<svg width="24" height="24" viewBox="0 0 24 24" fill="none" xmlns="http://www.w3.org/2000/svg">
<path d="M12 2.86682C16.0499 2.86682 19.3567 6.06156 19.4958 10.1159L19.5 10.3668V14.4638L20.88 17.6198C20.949 17.7777 20.9847 17.9482 20.9847 18.1206C20.9847 18.811 20.425 19.3706 19.7347 19.3706L15 19.3721C15 21.0289 13.6568 22.3721 12 22.3721C10.4023 22.3721 9.09633 21.1232 9.00508 19.5484L8.99954 19.3698L4.27485 19.3706C4.10351 19.3706 3.93401 19.3354 3.77685 19.2671C3.14365 18.9921 2.8533 18.2558 3.12834 17.6226L4.49999 14.4647V10.3667C4.50059 6.21192 7.85208 2.86682 12 2.86682ZM13.4995 19.3698L10.5 19.3721C10.5 20.2005 11.1716 20.8721 12 20.8721C12.7797 20.8721 13.4204 20.2772 13.4931 19.5166L13.4995 19.3698ZM12 4.36682C8.67983 4.36682 6.00047 7.04107 5.99999 10.3668V14.7764L4.65601 17.8706H19.3525L18 14.7774L18.0001 10.3797L17.9964 10.1545C17.8853 6.921 15.2416 4.36682 12 4.36682Z" fill="#373737"/>
</svg>
