<svg width="214" height="339" viewBox="0 0 214 339" fill="none" xmlns="http://www.w3.org/2000/svg">
<path d="M27.9082 234.894L57.9625 242.143L77.5281 145.973C31.8751 158.405 27.9082 234.894 27.9082 234.894Z" fill="#6D7DB3"/>
<path d="M144.426 142.516C144.023 142.482 150.612 227.88 150.612 227.88L175.085 259.993C176.329 258.739 177.338 257.181 178.279 255.725C182.381 249.255 185.003 241.802 186.784 234.35C188.23 228.286 189.07 222.087 189.507 215.854C190.18 206.166 190.382 196.173 188.667 186.587C184.734 164.67 167.017 144.955 144.426 142.516Z" fill="#6D7DB3"/>
<path d="M160.832 314.465C161.067 311.722 161.269 308.91 161.47 306.064H59.7093C59.5413 308.944 59.3732 311.755 59.2051 314.465" fill="#363C42"/>
<path d="M115.381 108.947C107.38 108.811 101.598 112.842 101.497 118.601L98.6396 144.718C98.5388 150.477 106.607 151.358 114.608 151.493C122.609 151.629 129.131 150.68 129.232 144.922V120.193C129.333 114.434 123.382 109.082 115.415 108.947H115.381Z" fill="#D78C74"/>
<path d="M135.755 314.466L141.941 303.389H133.436L126.779 314.466" fill="#3D4041"/>
<path d="M84.7871 144.281V163.928H142.711V142.316C125.33 137.133 101.596 137.201 84.7871 144.281Z" fill="#D78C74"/>
<path d="M149.335 314.465L149.335 144.008C147.822 143.398 146.208 142.89 144.426 142.518C142.914 142.077 141.367 141.671 139.753 141.23C138.073 151.291 125.5 153.561 111.75 153.798C99.3112 154.001 93.6971 151.291 91.5119 141.705C87.4105 142.416 76.8881 145.804 71.0723 149.53L71.0723 314.465" fill="#DFE5EA"/>
<path d="M97.058 314.464C95.915 259.621 104.723 165.923 105.429 158.403C104.891 155.795 97.058 148.207 95.4107 140.924C87.9476 140.924 73.0885 147.021 68.5501 151.527C58.8345 161.113 58.7001 184.622 57.7924 218.802C56.8511 253.997 56.7838 252.134 52.6152 314.497" fill="#6D7DB3"/>
<path d="M167.451 314.464C164.594 274.153 165.636 206.234 165.703 173.105C165.703 169.785 166.308 147.089 144.423 142.516C142.91 142.076 135.985 140.246 134.371 139.84C132.926 148.478 129.43 146.75 119.21 158.2C118.269 167.583 111.343 239.838 111.814 314.497" fill="#6D7DB3"/>
<path d="M88.4517 314.463C88.2163 300.507 88.25 280.893 89.3593 257.079C91.4773 210.976 98.537 156.912 99.5119 149.595C99.3102 149.29 99.1085 148.985 98.9068 148.647L95.982 148.24C95.9148 148.816 87.981 207.419 85.695 256.91C84.5856 280.758 84.552 300.439 84.7873 314.463" fill="#7588BC"/>
<path d="M125.43 314.462C124.724 300.404 124.086 281.028 124.119 257.35C124.22 205.657 130.305 150.441 130.372 149.899L128.12 149.662C127.616 150.069 127.078 150.509 126.506 151.017C125.531 160.265 120.489 210.264 120.388 257.383C120.32 280.994 120.959 300.37 121.699 314.496" fill="#7588BC"/>
<path d="M64.7849 175.308L62.9023 179.238L95.1418 173.784L94.5367 170.092L64.7849 175.308Z" fill="#7588BC"/>
<path d="M99.882 133.54C99.882 133.54 96.0496 134.962 90.9397 141.975C85.8634 148.953 90.469 163.417 90.469 163.417C90.469 163.417 91.2422 159.996 92.9231 154.271C95.4108 145.87 105.395 158.37 105.395 158.37C105.395 158.37 104.521 153.424 102.471 148.817C99.3777 141.805 99.8484 133.506 99.8484 133.506L99.882 133.54Z" fill="#7588BC"/>
<path d="M96.0834 225.206C97.4573 225.206 98.5711 224.221 98.5711 223.005C98.5711 221.789 97.4573 220.803 96.0834 220.803C94.7095 220.803 93.5957 221.789 93.5957 223.005C93.5957 224.221 94.7095 225.206 96.0834 225.206Z" fill="#B0B5C1"/>
<path d="M93.2924 254.338C91.9141 254.338 90.8047 255.32 90.8047 256.54C90.8047 257.759 91.9141 258.742 93.2924 258.742C94.6707 258.742 95.7801 257.759 95.7801 256.54C95.7801 255.32 94.6707 254.338 93.2924 254.338Z" fill="#B0B5C1"/>
<path d="M92.3881 280.422C91.0098 280.422 89.9004 281.404 89.9004 282.624C89.9004 283.843 91.0098 284.826 92.3881 284.826C93.7664 284.826 94.8758 283.843 94.8758 282.624C94.8758 281.404 93.7664 280.422 92.3881 280.422Z" fill="#B0B5C1"/>
<path d="M92.3881 307.455C91.0098 307.455 89.9004 308.437 89.9004 309.657C89.9004 310.876 91.0098 311.859 92.3881 311.859C93.7664 311.859 94.8758 310.876 94.8758 309.657C94.8758 308.437 93.7664 307.455 92.3881 307.455Z" fill="#B0B5C1"/>
<path d="M100.689 166.771C99.3106 166.771 98.2012 167.754 98.2012 168.973C98.2012 170.193 99.3106 171.175 100.689 171.175C102.067 171.175 103.177 170.193 103.177 168.973C103.177 167.754 102.067 166.771 100.689 166.771Z" fill="#B0B5C1"/>
<path d="M98.2026 191.773C96.8242 191.773 95.7148 192.756 95.7148 193.975C95.7148 195.195 96.8242 196.177 98.2026 196.177C99.5809 196.177 100.69 195.195 100.69 193.975C100.69 192.756 99.5809 191.773 98.2026 191.773Z" fill="#B0B5C1"/>
<path d="M127.014 169.523L126.264 173.172L156.187 179.416L156.937 175.767L127.014 169.523Z" fill="#7588BC"/>
<path d="M129.2 134.729C129.2 134.729 129.469 137.709 126.376 144.722C124.359 149.328 119.888 152.648 119.182 158.542C119.182 158.542 132.965 145.907 135.453 154.308C137.167 160.033 137.907 163.454 137.907 163.454C137.907 163.454 142.546 148.99 137.436 142.012C132.36 135.033 129.166 134.762 129.166 134.762L129.2 134.729Z" fill="#7588BC"/>
<path opacity="0.1" d="M99.8831 133.539C99.8831 133.539 98.9082 133.912 97.2945 135.165C93.5966 138.688 94.2017 145.836 95.849 151.425C99.715 151.255 105.43 158.403 105.43 158.403C105.43 158.403 104.556 153.457 102.505 148.85C99.4125 141.838 99.8831 133.539 99.8831 133.539Z" fill="white"/>
<path opacity="0.1" d="M129.2 134.729C129.2 134.729 129.469 137.709 126.376 144.722C124.359 149.328 119.888 152.648 119.182 158.542C119.182 158.542 127.149 151.225 132.091 151.429C132.999 145.602 133.066 139.708 129.267 134.762C129.233 134.762 129.2 134.762 129.2 134.762V134.729Z" fill="white"/>
<path d="M59.0694 184.151C58.3635 193.975 58.1281 205.594 57.7583 218.771C57.6911 221.21 57.6239 223.446 57.5566 225.546C61.9942 168.061 75.6094 149.497 79.2738 145.195C77.0886 145.737 76.2481 146.008 74.2983 146.991C68.6505 151.869 62.2968 167.315 59.0694 184.151Z" fill="#7588BC"/>
<path d="M150.376 143.569C150.242 143.535 149.536 143.4 149.334 143.332C152.023 146.178 159.487 161.015 152.864 233.947L154.78 233.032C159.856 177.037 158.781 154.341 155.183 145.06C153.704 144.382 152.225 143.976 150.343 143.569H150.376Z" fill="#7588BC"/>
<path d="M62.7027 221.921C62.5347 224.089 63.6104 226.156 65.4258 227.308L70.7374 230.559C72.2166 231.474 74.0656 231.44 75.5111 230.526L82.4028 226.122C83.882 225.173 84.8569 223.581 84.9914 221.82L86.6386 199.971H64.3164L62.7027 221.955V221.921Z" fill="#7588BC"/>
<path d="M54.8681 215.484C51.977 213.181 48.8842 212.198 45.7913 212.164C39.0342 212.063 32.2434 215.552 27.9067 220.701C23.1666 226.324 23.3683 234.081 25.2172 240.822C26.8981 246.886 29.8229 254.88 36.3447 257.251C46.4301 260.876 56.7507 250.917 60.1125 242.109C63.4743 233.302 62.7347 221.683 54.9018 215.45L54.8681 215.484Z" fill="#B6BDCE"/>
<path d="M128.694 224.085C128.593 226.152 129.4 228.082 130.845 229.268L134.745 232.452C136.829 234.146 139.754 234.044 141.906 232.181L148.125 226.795C149.94 225.237 151.016 222.832 151.083 220.359L152.327 203.252L129.736 202.541L128.66 224.085H128.694Z" fill="#7588BC"/>
<path d="M78.7335 152.577C76.9182 152.001 74.4977 153.762 72.6151 156.438C70.7325 159.114 71.2367 162.773 70.9342 165.28C70.598 167.752 67.7405 170.564 67.7405 170.564C67.169 170.361 63.7736 163.552 63.4374 161.079C63.1012 158.606 62.2608 155.795 62.2608 155.795C63.6391 153.39 64.9166 150.51 65.589 148.579C66.2277 146.682 65.6562 144.989 63.9753 144.718C62.2944 144.447 60.7816 147.258 60.7816 147.258C60.5799 146.208 59.605 144.785 57.7224 145.768C55.8398 146.75 55.0666 150.544 55.0666 150.544C54.5959 149.833 53.5202 149.155 51.9401 150.036C50.7635 150.68 49.3852 153.728 48.7464 155.185C48.612 155.524 48.2422 155.693 47.8724 155.558C46.8638 155.151 45.1157 155.896 44.6451 157.15C44.0736 158.708 42.7625 164.094 42.2582 167.888C41.7539 171.682 43.0986 176.56 43.0986 176.56C43.0986 176.56 43.0314 177.542 42.9642 181.336C42.8969 185.13 48.1077 194.242 48.1749 194.446C48.2422 194.649 46.7294 202.575 42.7288 208.436C38.6947 214.33 32.8452 216.362 29.349 223.103C25.8527 229.845 29.6851 235.874 30.4583 239.668C31.2315 243.462 34.2908 254.2 39.0981 254.268C43.9055 254.336 54.0917 246.206 57.4198 239.871C60.748 233.537 60.1429 215.651 61.2523 210.57C62.3616 205.455 67.606 201.153 72.2789 195.123C76.9518 189.093 76.8845 175.306 76.8845 170.598C76.8845 165.889 78.8344 159.656 79.8765 157.116C80.9187 154.575 80.5153 153.186 78.6999 152.61L78.7335 152.577Z" fill="#D78C74"/>
<path opacity="0.3" d="M77.1216 152.612C75.6425 153.053 73.9952 154.509 72.6168 156.44C70.7342 159.116 71.2385 162.775 70.936 165.281C70.8015 166.23 70.3308 167.212 69.7593 168.093C69.2214 170.6 67.8767 172.7 67.0363 172.022C66.0614 171.243 63.3383 164.942 62.6324 164.333C61.9264 163.757 56.7829 167.28 54.9003 168.262C53.0177 169.245 46.4958 176.799 46.5294 178.018C46.5294 178.729 47.0337 182.354 47.8069 185.301C49.9248 185.098 52.7487 185.369 52.7487 185.369C52.7487 185.369 53.253 182.422 57.7914 182.151C62.397 181.88 66.6329 182.422 71.8436 182.185C73.2892 181.575 74.2305 181.135 74.3986 180.897C75.3063 179.78 75.8778 169.888 75.9114 167.686C75.9114 165.451 78.7017 156.813 79.2059 155.254C80.1136 152.341 77.1552 152.612 77.1552 152.612H77.1216Z" fill="#E19D81"/>
<path d="M88.6196 154.884C87.174 152.513 84.6191 156.95 86.1991 161.354C87.7455 165.758 92.0486 169.789 92.4184 172.058C92.8218 174.328 85.594 180.696 78.5006 182.458C78.5006 182.458 68.8523 183.237 66.5327 183.339C64.1794 183.44 54.3967 180.934 53.0856 186.591C53.0856 186.591 46.6646 184.829 44.513 187.641C42.3615 190.452 43.8743 191.841 44.513 192.078C45.1518 192.315 45.9922 192.654 45.9922 192.654C45.9922 192.654 45.5216 193.975 47.3705 195.025C49.1859 196.075 49.7574 196.143 49.7574 196.143C49.7574 196.143 48.9169 197.397 50.5978 198.616C52.2787 199.836 64.1794 206.475 66.331 206.78C68.4825 207.119 84.0812 208.643 85.7621 207.965C93.6286 204.781 97.3938 207.728 97.3938 207.728L108.084 187.2C108.084 187.2 106.37 173.617 103.748 170.669C101.125 167.722 90.0988 157.221 88.6532 154.85L88.6196 154.884Z" fill="#E19D81"/>
<path d="M177.773 226.187C174.479 222.46 170.075 218.836 165.368 217.142C151.148 211.959 137.062 225.407 138.071 239.838C139.315 257.724 163.183 274.356 177.874 259.892C182.681 255.149 184.194 247.799 183.589 241.362C183.085 235.57 181.034 229.913 177.74 226.22L177.773 226.187Z" fill="#B6BDCE"/>
<path d="M177.573 235.569C176.698 230.284 174.11 225.169 169.807 222.019C165.941 219.174 161.066 218.157 156.427 216.87C142.408 213.042 129.23 206.335 117.497 197.731C112.825 194.31 108.051 190.007 107.412 184.249C107.412 184.215 107.412 184.147 107.412 184.113C107.479 184.859 103.681 188.212 103.109 188.923C101.664 190.719 100.285 192.548 99.0077 194.479C96.5872 198.103 94.1331 201.897 93.1582 206.2C99.6801 207.555 104.218 213.245 108.488 218.361C117.229 228.794 127.146 238.177 137.029 247.527C140.593 250.914 144.224 254.335 148.493 256.808C154.107 260.094 159.856 260.399 166.176 259.721C168.428 259.484 170.883 259.281 172.832 258.062C173.875 257.418 174.648 256.368 175.32 255.352C175.724 254.742 176.161 254.098 176.396 253.421C176.698 252.472 176.665 251.456 176.665 250.44C176.665 245.494 178.379 240.515 177.573 235.569Z" fill="#E19D81"/>
<path opacity="0.4" d="M177.577 235.571C176.703 230.286 174.114 225.171 169.811 222.021C165.945 219.175 161.07 218.159 156.431 216.872C142.412 213.044 129.234 206.337 117.502 197.733C113.602 194.887 109.635 191.398 108.055 186.96C107.786 184.996 106.172 173.58 103.786 170.768C104.223 176.663 103.786 183.607 102.306 185.368C100.76 187.198 87.649 205.321 86.2034 205.625C84.7579 205.964 66.9068 205.625 65.4276 205.219C63.9484 204.812 53.5942 198.986 52.2494 198.275C50.8711 197.563 50.7703 196.716 51.0728 196.581C51.409 196.445 64.6544 202.475 65.7638 202.78C66.8732 203.085 78.8748 203.593 79.2109 203.593C79.5471 203.593 79.7824 202.34 79.4799 202.34C79.1773 202.34 67.5455 201.764 66.7387 201.662C65.9655 201.56 53.7622 196.276 51.2409 195.531C48.7196 194.819 47.7446 193.431 47.9127 193.227C48.1144 193.024 63.9484 197.665 65.5621 197.868C67.1757 198.071 80.1186 198.85 80.1186 198.85L80.4884 197.665C80.4884 197.665 67.7136 196.886 66.4025 196.954C65.0914 197.021 45.9965 191.974 44.9544 190.992C43.9122 190.009 45.425 187.062 47.0387 187.062C48.6523 187.062 70.4031 192.821 73.0253 193.227C75.6138 193.634 84.9596 191.974 84.9596 191.974L84.6906 190.721C84.6906 190.721 77.1602 191.364 74.2355 191.5C71.3107 191.601 60.7211 189.095 56.8887 188.315C53.0563 187.536 54.1657 186.419 54.1657 186.419C55.6112 182.828 63.0408 184.115 66.0327 184.318C69.0247 184.522 75.6474 183.607 81.0599 182.929C86.4388 182.286 98.2386 176.967 97.3982 174.698C96.5577 172.394 87.2792 161.013 87.1111 157.354C86.9094 153.696 88.3886 154.61 88.3886 154.61V154.441C87.7835 154.034 87.4137 154.136 86.9766 154.61C86.9766 154.61 86.943 154.61 86.9094 154.644C86.8422 154.712 86.7749 154.813 86.7077 154.881C86.7077 154.915 86.6405 154.949 86.6068 154.983C86.5396 155.051 86.506 155.152 86.4388 155.254C86.4388 155.322 86.3715 155.355 86.3379 155.423C86.3043 155.525 86.2707 155.593 86.2034 155.694C86.2034 155.762 86.1362 155.864 86.1026 155.931C86.1026 156.033 86.0354 156.135 86.0017 156.236C86.0017 156.338 85.9345 156.439 85.9009 156.541C85.9009 156.643 85.8673 156.744 85.8336 156.846C85.8336 156.948 85.8 157.083 85.7664 157.185C85.7664 157.286 85.7664 157.388 85.7328 157.49C85.7328 157.625 85.7328 157.761 85.6992 157.896C85.6992 157.998 85.6992 158.099 85.6992 158.201C85.6992 158.336 85.6992 158.472 85.6992 158.641C85.6992 158.743 85.6992 158.845 85.6992 158.946C85.6992 159.116 85.6992 159.251 85.7328 159.42C85.7328 159.522 85.7328 159.624 85.7664 159.725C85.7664 159.895 85.8336 160.064 85.8673 160.267C85.8673 160.369 85.8673 160.437 85.9345 160.538C86.0017 160.809 86.069 161.08 86.1698 161.351C87.7162 165.755 92.0193 169.786 92.3891 172.056C92.7925 174.325 85.5647 180.694 78.4713 182.455C78.4713 182.455 68.823 183.234 66.5034 183.336C64.1501 183.438 54.3674 180.931 53.0563 186.588C53.0563 186.588 46.6353 184.826 44.4837 187.638C42.3322 190.45 43.845 191.838 44.4837 192.076C45.1225 192.347 45.9629 192.651 45.9629 192.651C45.9629 192.651 45.4923 193.973 47.3412 195.023C49.1566 196.073 49.7281 196.141 49.7281 196.141C49.7281 196.141 48.8877 197.394 50.5686 198.613C52.2494 199.867 64.1501 206.472 66.3017 206.777C68.4532 207.116 83.951 208.268 85.7328 207.963C90.5401 206.032 93.8011 206.371 95.6164 206.913C100.827 209.013 104.727 213.891 108.458 218.328C117.199 228.762 127.116 238.145 137 247.494C140.563 250.882 144.194 254.303 148.464 256.776C154.078 260.062 159.826 260.367 166.147 259.689C168.399 259.452 170.853 259.249 172.803 258.029C173.845 257.386 174.618 256.336 175.291 255.32C175.694 254.71 176.131 254.066 176.366 253.389C176.669 252.44 176.635 251.424 176.635 250.408C176.635 245.462 178.35 240.482 177.543 235.537L177.577 235.571ZM161.138 242.413C150.615 239.398 122.443 220.429 114.375 208.437C109.635 201.425 113.4 199.02 116.728 200.781C119.082 202.035 128.024 209.826 141.942 216.635C154.952 223.003 170.92 223.579 172.736 231.438C174.551 239.297 168.903 244.649 161.171 242.447L161.138 242.413Z" fill="#D78C74"/>
<path d="M48.8838 154.916C48.6149 155.526 48.1106 155.627 47.9089 155.56C48.4131 156.203 48.9847 157.219 48.9847 158.981C48.9847 161.013 47.6736 164.774 47.6399 164.807V164.943C47.6063 164.943 47.6399 165.078 47.6399 165.078C47.7072 165.858 48.1106 170.16 48.5476 172.294L49.7579 171.244C49.4889 169.685 48.9847 166.603 48.8502 165.112C49.0855 164.401 50.1949 161.047 50.1949 159.015C50.1949 156.982 49.5562 155.729 48.951 154.95L48.8838 154.916Z" fill="#CE826E"/>
<path d="M55.3719 149.46C55.1702 150.069 54.5651 149.934 54.1617 149.765C54.5987 150.374 55.3719 151.797 54.834 153.626C54.1281 156.099 53.0859 156.98 53.0859 156.98L52.9514 157.081L52.8842 157.251C52.6825 157.962 51.7076 161.519 51.7748 162.569C51.842 163.416 52.6489 167.007 52.9178 168.328L53.96 167.583C53.96 167.583 53.8255 167.278 53.8591 167.278C53.4893 165.652 52.9851 163.111 52.9178 162.501C52.8842 161.892 53.5229 159.317 53.96 157.759C54.3298 157.386 55.3047 156.268 55.9434 153.931C56.5149 151.932 55.8426 150.34 55.4055 149.561C55.4055 149.561 55.3719 149.494 55.3383 149.426L55.3719 149.46Z" fill="#CE826E"/>
<path d="M60.2144 146.043C60.3825 147.059 60.5842 149.126 60.0799 150.989C59.4076 153.563 56.7854 156.104 56.7518 156.138L56.5837 156.307V156.544C56.5837 156.747 56.4492 161.896 56.4492 163.217C56.4492 164.539 56.6509 164.979 56.8526 165.487L57.8948 164.877C57.7603 164.505 57.5922 163.726 57.5922 163.217C57.5922 162.066 57.6931 157.831 57.7267 156.781C58.3654 156.138 60.5506 153.766 61.1893 151.26C61.66 149.43 61.5591 147.466 61.391 146.28C60.9876 146.788 60.4833 146.416 60.1808 146.043H60.2144Z" fill="#CE826E"/>
<path opacity="0.3" d="M47.6057 202.543C44.6473 209.216 42.0924 213.247 36.7471 218.091C31.4019 222.935 30.427 228.728 30.8976 231.234C31.3683 233.707 36.2429 242.65 41.1175 235.672C45.992 228.728 51.4045 209.724 51.1356 204.507C51.0011 201.899 48.4125 200.646 47.6057 202.509V202.543Z" fill="#E19D81"/>
<path d="M78.9369 87.8759C75.2726 89.1293 73.6925 94.5492 75.407 100.003C77.1216 105.423 81.4582 108.81 85.1226 107.557C88.7869 106.304 90.367 100.884 88.6525 95.43C86.938 90.01 82.6013 86.6226 78.9369 87.8759Z" fill="#D78C74"/>
<path d="M147.686 94.5502C147.552 81.3052 145.434 64.5373 142.644 54.7136C140.425 41.909 104.387 36.2858 94.0324 54.07C90.7715 62.3015 85.4599 77.6129 83.8126 92.7887C83.8126 92.6193 83.8126 92.5177 83.8126 92.5177C83.8126 92.5177 74.5341 132.964 110.169 134.996C145.804 137.063 149.535 118.093 147.72 94.5502H147.686Z" fill="#E5A185"/>
<g opacity="0.4">
<path d="M96.3553 86.1484C89.2955 86.1484 83.5469 92.4152 83.5469 100.173C83.5469 107.93 89.2619 114.231 96.3216 114.231C103.381 114.231 109.13 107.964 109.13 100.206C109.13 92.4491 103.415 86.1484 96.3553 86.1484Z" fill="#E5A185"/>
<path d="M96.3544 86.2148C89.3283 86.2148 83.6469 92.4478 83.6133 100.171C83.6133 107.895 89.2947 114.128 96.3208 114.128C103.347 114.128 109.028 107.895 109.062 100.171C109.062 92.4478 103.381 86.2148 96.3544 86.2148Z" fill="#E5A084"/>
<path d="M96.3551 86.3164C89.3626 86.3164 83.7148 92.5155 83.7148 100.171C83.7148 107.827 89.3626 114.06 96.3215 114.06C103.314 114.06 108.962 107.861 108.962 100.205C108.962 92.5493 103.314 86.3164 96.3551 86.3164Z" fill="#E59F83"/>
<path d="M96.3524 86.3848C89.4271 86.3848 83.7793 92.5499 83.7793 100.138C83.7793 107.76 89.3935 113.925 96.3187 113.925C103.244 113.925 108.892 107.76 108.892 100.172C108.892 92.5499 103.278 86.3848 96.3524 86.3848Z" fill="#E49E83"/>
<path d="M96.3554 86.4883C89.4638 86.4883 83.8832 92.6196 83.8496 100.174C83.8496 107.728 89.4302 113.859 96.3218 113.893C103.213 113.893 108.794 107.762 108.828 100.208C108.828 92.6535 103.247 86.5222 96.3554 86.4883Z" fill="#E49D82"/>
<path d="M96.3542 86.5918C89.4962 86.5918 83.9492 92.6554 83.9492 100.176C83.9492 107.696 89.4962 113.793 96.3206 113.793C103.179 113.793 108.726 107.73 108.726 100.209C108.726 92.6892 103.179 86.5918 96.3542 86.5918Z" fill="#E49C81"/>
<path d="M96.3534 86.6562C89.5626 86.6562 84.0156 92.6859 84.0156 100.172C84.0156 107.625 89.5289 113.688 96.3197 113.688C103.111 113.688 108.657 107.659 108.657 100.172C108.657 92.7198 103.144 86.6562 96.3534 86.6562Z" fill="#E49B80"/>
<path d="M96.3541 86.7598C89.5969 86.7598 84.1172 92.7556 84.1172 100.174C84.1172 107.593 89.5633 113.622 96.3541 113.622C103.111 113.622 108.591 107.627 108.591 100.208C108.591 92.7895 103.145 86.7598 96.3541 86.7598Z" fill="#E49A80"/>
<path d="M96.3552 86.8262C89.6316 86.8262 84.1855 92.7881 84.1855 100.139C84.1855 107.524 89.598 113.486 96.3216 113.486C103.045 113.486 108.491 107.524 108.491 100.173C108.491 92.7881 103.079 86.8262 96.3552 86.8262Z" fill="#E3997F"/>
<path d="M96.3544 86.9277C89.698 86.9277 84.2856 92.8558 84.252 100.173C84.252 107.49 89.6308 113.418 96.3207 113.452C102.977 113.452 108.39 107.524 108.423 100.207C108.423 92.8897 103.044 86.9616 96.3544 86.9277Z" fill="#E3987E"/>
<path d="M96.3551 87.0293C89.7324 87.0293 84.3535 92.9235 84.3535 100.173C84.3535 107.456 89.6987 113.35 96.3215 113.35C102.944 113.35 108.323 107.456 108.323 100.207C108.323 92.9235 102.978 87.0293 96.3551 87.0293Z" fill="#E3977D"/>
<path d="M96.3562 87.0977C89.7671 87.0977 84.4219 92.9241 84.4219 100.173C84.4219 107.389 89.7335 113.249 96.3226 113.283C102.912 113.283 108.257 107.456 108.257 100.207C108.257 92.9918 102.945 87.1315 96.3562 87.0977Z" fill="#E3967C"/>
<path d="M96.3554 87.1992C89.8335 87.1992 84.5219 92.9918 84.4883 100.173C84.4883 107.355 89.7663 113.181 96.3217 113.181C102.844 113.181 108.155 107.388 108.189 100.207C108.189 93.0257 102.911 87.1992 96.3554 87.1992Z" fill="#E2957C"/>
<path d="M96.3561 87.2656C89.8678 87.2656 84.5898 93.0243 84.5898 100.138C84.5898 107.252 89.8342 113.044 96.3225 113.044C102.811 113.044 108.089 107.286 108.089 100.172C108.089 93.0582 102.844 87.2656 96.3561 87.2656Z" fill="#E2947B"/>
<path d="M96.3572 87.3672C89.9026 87.3672 84.6582 93.092 84.6582 100.172C84.6582 107.252 89.869 113.01 96.3236 113.01C102.778 113.01 108.023 107.285 108.023 100.206C108.023 93.1259 102.812 87.3672 96.3572 87.3672Z" fill="#E2937A"/>
<path d="M96.354 87.4688C89.933 87.4688 84.7559 93.1597 84.7559 100.172C84.7559 107.218 89.933 112.909 96.3204 112.909C102.741 112.909 107.919 107.218 107.919 100.206C107.919 93.1597 102.741 87.4688 96.354 87.4688Z" fill="#E29279"/>
<path d="M96.3571 87.5371C90.0033 87.5371 84.8262 93.1942 84.8262 100.172C84.8262 107.151 89.9697 112.808 96.3235 112.841C102.677 112.841 107.854 107.184 107.854 100.206C107.854 93.228 102.711 87.571 96.3571 87.5371Z" fill="#E29179"/>
<path d="M96.3563 87.6387C90.0361 87.6387 84.9262 93.228 84.8926 100.172C84.8926 107.117 90.0025 112.74 96.3226 112.74C102.643 112.74 107.753 107.15 107.786 100.206C107.786 93.2619 102.676 87.6387 96.3563 87.6387Z" fill="#E19078"/>
<path d="M96.357 87.707C90.0704 87.707 84.9941 93.2625 84.9941 100.173C84.9941 107.049 90.0704 112.639 96.3233 112.639C102.61 112.639 107.686 107.083 107.686 100.173C107.686 93.2963 102.61 87.707 96.357 87.707Z" fill="#E18F77"/>
<path d="M96.3561 87.8086C90.1368 87.8086 85.0605 93.3302 85.0605 100.173C85.0605 107.016 90.1032 112.571 96.3225 112.571C102.542 112.571 107.618 107.049 107.618 100.207C107.618 93.364 102.575 87.8086 96.3561 87.8086Z" fill="#E18E76"/>
<path d="M96.3549 87.9082C90.1692 87.9082 85.1602 93.3959 85.1602 100.171C85.1602 106.946 90.1692 112.467 96.3549 112.467C102.541 112.467 107.55 106.98 107.55 100.205C107.55 93.4298 102.541 87.9082 96.3549 87.9082Z" fill="#E18D75"/>
<path d="M96.356 87.9766C90.204 87.9766 85.2285 93.4304 85.2285 100.171C85.2285 106.912 90.204 112.366 96.3224 112.4C102.474 112.4 107.45 106.946 107.45 100.205C107.45 93.4643 102.474 88.0104 96.356 87.9766Z" fill="#E18C75"/>
<path d="M96.3552 88.0781C90.2704 88.0781 85.3285 93.4981 85.2949 100.171C85.2949 106.845 90.2367 112.298 96.3216 112.298C102.406 112.298 107.348 106.879 107.382 100.205C107.382 93.5319 102.44 88.0781 96.3552 88.0781Z" fill="#E08B74"/>
<path d="M96.3539 88.1484C90.3027 88.1484 85.3945 93.5345 85.3945 100.174C85.3945 106.813 90.2691 112.199 96.3203 112.199C102.372 112.199 107.28 106.813 107.28 100.174C107.28 93.5345 102.405 88.1484 96.3539 88.1484Z" fill="#E08A73"/>
<path d="M96.357 88.25C90.3394 88.25 85.4648 93.5683 85.4648 100.174C85.4648 106.779 90.3058 112.132 96.3234 112.132C102.341 112.132 107.216 106.813 107.216 100.208C107.216 93.6022 102.375 88.25 96.357 88.25Z" fill="#E08972"/>
<path d="M96.3542 88.3164C90.4039 88.3164 85.5629 93.6008 85.5293 100.139C85.5293 106.676 90.3366 111.995 96.3206 111.995C102.271 111.995 107.112 106.71 107.146 100.173C107.146 93.6347 102.338 88.3164 96.3542 88.3164Z" fill="#E08872"/>
<path d="M96.3549 88.418C90.4382 88.418 85.6309 93.6685 85.6309 100.172C85.6309 106.676 90.4046 111.927 96.3213 111.961C102.238 111.961 107.045 106.71 107.045 100.206C107.045 93.7024 102.272 88.4518 96.3549 88.418Z" fill="#DF8771"/>
<path d="M96.3541 88.5195C90.471 88.5195 85.6973 93.7362 85.6973 100.172C85.6973 106.609 90.4374 111.859 96.3205 111.859C102.204 111.859 106.977 106.642 106.977 100.206C106.977 93.7701 102.237 88.5195 96.3541 88.5195Z" fill="#DF8670"/>
<path d="M96.3548 88.5879C90.5389 88.5879 85.7988 93.7707 85.7988 100.173C85.7988 106.575 90.5053 111.758 96.3548 111.758C102.171 111.758 106.911 106.575 106.911 100.173C106.911 93.7707 102.204 88.5879 96.3548 88.5879Z" fill="#DF856F"/>
<path d="M96.354 88.6875C90.5717 88.6875 85.8652 93.8364 85.8652 100.171C85.8652 106.506 90.5381 111.688 96.3204 111.688C102.103 111.688 106.809 106.539 106.809 100.205C106.809 93.8703 102.136 88.6875 96.354 88.6875Z" fill="#DF846F"/>
<path d="M96.3551 88.7539C90.6065 88.7539 85.9672 93.8351 85.9336 100.136C85.9336 106.436 90.5729 111.552 96.3215 111.552C102.07 111.552 106.709 106.47 106.743 100.17C106.743 93.869 102.104 88.7539 96.3551 88.7539Z" fill="#DF836E"/>
<path d="M96.3558 88.8594C90.6744 88.8594 86.0352 93.9067 86.0352 100.173C86.0352 106.44 90.6408 111.488 96.3222 111.521C102.004 111.521 106.643 106.474 106.643 100.207C106.643 93.9406 102.037 88.8932 96.3558 88.8594Z" fill="#DE826D"/>
<path d="M96.355 88.9609C90.7072 88.9609 86.1016 93.9744 86.1016 100.173C86.1016 106.373 90.6736 111.42 96.3214 111.42C101.969 111.42 106.575 106.406 106.575 100.207C106.575 94.0083 102.003 88.9609 96.355 88.9609Z" fill="#DE816C"/>
<path d="M96.3561 89.0293C90.7419 89.0293 86.2035 94.0089 86.1699 100.174C86.1699 106.339 90.7083 111.319 96.3225 111.319C101.937 111.319 106.475 106.339 106.509 100.174C106.509 94.0089 101.97 89.0293 96.3561 89.0293Z" fill="#DE806B"/>
<path d="M96.3549 89.1309C90.7743 89.1309 86.2695 94.0766 86.2695 100.174C86.2695 106.271 90.7743 111.251 96.3213 111.251C101.902 111.251 106.407 106.305 106.407 100.208C106.407 94.1104 101.902 89.1309 96.3549 89.1309Z" fill="#DE7F6B"/>
<path d="M96.354 89.1953C90.8407 89.1953 86.3359 94.1071 86.3359 100.171C86.3359 106.234 90.8071 111.146 96.3204 111.146C101.834 111.146 106.339 106.234 106.339 100.171C106.339 94.1071 101.867 89.1953 96.354 89.1953Z" fill="#DE7E6A"/>
<path d="M96.3587 89.2988C90.879 89.2988 86.4414 94.1768 86.4414 100.173C86.4414 106.168 90.879 111.046 96.3587 111.08C101.838 111.08 106.276 106.202 106.276 100.206C106.276 94.2107 101.838 89.3327 96.3587 89.2988Z" fill="#DD7D69"/>
<path d="M96.3539 89.4004C90.9078 89.4004 86.5039 94.2106 86.5039 100.173C86.5039 106.134 90.9078 110.979 96.3203 110.979C101.766 110.979 106.17 106.168 106.17 100.206C106.17 94.2445 101.766 89.4004 96.3539 89.4004Z" fill="#DD7C68"/>
<path d="M96.3531 89.4688C90.9742 89.4688 86.6039 94.2451 86.5703 100.173C86.5703 106.101 90.9406 110.878 96.3195 110.878C101.698 110.878 106.069 106.101 106.102 100.173C106.102 94.2451 101.732 89.4688 96.3531 89.4688Z" fill="#DD7B68"/>
<path d="M96.3577 89.5703C91.0125 89.5703 86.6758 94.3128 86.6758 100.173C86.6758 106.033 90.9789 110.81 96.3241 110.81C101.669 110.81 106.006 106.067 106.006 100.207C106.006 94.3466 101.703 89.5703 96.3577 89.5703Z" fill="#DD7A67"/>
<path d="M96.3549 89.6367C91.0433 89.6367 86.7402 94.3453 86.7402 100.172C86.7402 105.998 91.0097 110.707 96.3213 110.707C101.633 110.707 105.936 105.998 105.936 100.172C105.936 94.3453 101.667 89.6367 96.3549 89.6367Z" fill="#DD7A66"/>
<path d="M96.3537 89.7383C91.1093 89.7383 86.8398 94.413 86.8398 100.172C86.8398 105.93 91.0757 110.639 96.3537 110.639C101.598 110.639 105.868 105.964 105.868 100.206C105.868 94.4469 101.632 89.7383 96.3537 89.7383Z" fill="#DC7965"/>
<path d="M96.3568 89.8398C91.146 89.8398 86.9102 94.4807 86.9102 100.172C86.9102 105.896 91.1124 110.537 96.3231 110.537C101.534 110.537 105.77 105.896 105.77 100.205C105.77 94.4807 101.568 89.8398 96.3568 89.8398Z" fill="#DC7864"/>
<path d="M96.354 89.9102C91.1768 89.9102 87.0082 94.4832 86.9746 100.174C86.9746 105.831 91.1432 110.438 96.3204 110.472C101.498 110.472 105.7 105.899 105.7 100.208C105.7 94.551 101.531 89.944 96.354 89.9102Z" fill="#DC7764"/>
<path d="M96.3566 90.0117C91.2467 90.0117 87.0781 94.5509 87.0781 100.174C87.0781 105.797 91.2131 110.37 96.3566 110.37C101.467 110.37 105.635 105.831 105.635 100.208C105.635 94.5848 101.5 90.0117 96.3566 90.0117Z" fill="#DC7663"/>
<path d="M96.3558 90.0762C91.2795 90.0762 87.1445 94.5815 87.1445 100.171C87.1445 105.76 91.2459 110.265 96.3222 110.265C101.398 110.265 105.533 105.76 105.533 100.171C105.533 94.5815 101.432 90.0762 96.3558 90.0762Z" fill="#DB7562"/>
<path d="M96.355 90.1797C91.3123 90.1797 87.2446 94.6511 87.2109 100.173C87.2109 105.694 91.2787 110.2 96.3214 110.2C101.364 110.2 105.432 105.728 105.465 100.207C105.465 94.685 101.398 90.1797 96.355 90.1797Z" fill="#DB7461"/>
<path d="M96.3537 90.2461C91.3783 90.2461 87.3105 94.6837 87.3105 100.137C87.3105 105.625 91.3447 110.063 96.3201 110.063C101.296 110.063 105.363 105.625 105.363 100.171C105.363 94.6837 101.329 90.2461 96.3537 90.2461Z" fill="#DB7361"/>
<path d="M96.3568 90.3477C91.415 90.3477 87.3809 94.7514 87.3809 100.171C87.3809 105.591 91.3814 109.995 96.3232 110.029C101.265 110.029 105.299 105.625 105.299 100.205C105.299 94.7852 101.299 90.3815 96.3568 90.3477Z" fill="#DB7260"/>
<path d="M96.3536 90.4512C91.4454 90.4512 87.4785 94.7871 87.4785 100.173C87.4785 105.559 91.4454 109.929 96.3536 109.929C101.262 109.929 105.229 105.593 105.229 100.207C105.229 94.821 101.262 90.4512 96.3536 90.4512Z" fill="#DB715F"/>
<path d="M96.3528 90.5195C91.4782 90.5195 87.5449 94.8216 87.5449 100.174C87.5449 105.492 91.4782 109.828 96.3192 109.828C101.194 109.828 105.127 105.526 105.127 100.174C105.127 94.8555 101.194 90.5195 96.3528 90.5195Z" fill="#DA705E"/>
<path d="M96.3578 90.6211C91.5505 90.6211 87.6508 94.8893 87.6172 100.174C87.6172 105.458 91.5169 109.76 96.3242 109.76C101.132 109.76 105.031 105.492 105.065 100.208C105.065 94.9232 101.165 90.6211 96.3578 90.6211Z" fill="#DA6F5D"/>
<path d="M96.3566 90.6875C91.5828 90.6875 87.7168 94.9218 87.7168 100.172C87.7168 105.423 91.5828 109.657 96.3566 109.657C101.13 109.657 104.996 105.423 104.996 100.172C104.996 94.9218 101.13 90.6875 96.3566 90.6875Z" fill="#DA6E5D"/>
<path d="M96.3557 90.7891C91.6156 90.7891 87.7832 94.9895 87.7832 100.172C87.7832 105.355 91.6156 109.556 96.3221 109.589C101.062 109.589 104.895 105.389 104.895 100.206C104.895 95.0234 101.062 90.8229 96.3557 90.7891Z" fill="#DA6D5C"/>
<path d="M96.3564 90.8926C91.6836 90.8926 87.8848 95.0592 87.8848 100.174C87.8848 105.323 91.6836 109.49 96.3564 109.49C101.029 109.49 104.828 105.323 104.828 100.208C104.828 95.0592 101.029 90.8926 96.3564 90.8926Z" fill="#DA6C5B"/>
<path d="M96.3556 90.957C91.7164 90.957 87.9512 95.0897 87.9512 100.171C87.9512 105.252 91.7164 109.385 96.322 109.385C100.961 109.385 104.726 105.252 104.726 100.171C104.726 95.0897 100.961 90.957 96.3556 90.957Z" fill="#D96B5A"/>
<path d="M96.3528 91.0625C91.7472 91.0625 88.0156 95.1275 88.0156 100.175C88.0156 105.222 91.7136 109.321 96.3192 109.321C100.925 109.321 104.656 105.256 104.656 100.209C104.656 95.1613 100.958 91.0625 96.3528 91.0625Z" fill="#D96A5A"/>
<path d="M96.3555 91.1289C91.8171 91.1289 88.1191 95.16 88.1191 100.173C88.1191 105.153 91.7835 109.218 96.3555 109.218C100.894 109.218 104.592 105.187 104.592 100.173C104.592 95.1939 100.928 91.1289 96.3555 91.1289Z" fill="#D96959"/>
<path d="M96.3547 91.2305C91.8499 91.2305 88.1855 95.2277 88.1855 100.173C88.1855 105.119 91.8163 109.116 96.3211 109.15C100.826 109.15 104.49 105.153 104.49 100.207C104.49 95.2615 100.859 91.2643 96.3547 91.2305Z" fill="#D96858"/>
<path d="M96.3539 91.332C91.8827 91.332 88.2856 95.2954 88.252 100.173C88.252 105.085 91.8491 109.048 96.3202 109.048C100.791 109.048 104.389 105.085 104.422 100.207C104.422 95.2954 100.825 91.332 96.3539 91.332Z" fill="#D86757"/>
<path d="M96.3546 91.4004C91.9506 91.4004 88.3535 95.3298 88.3535 100.174C88.3535 105.018 91.917 108.947 96.3546 108.947C100.758 108.947 104.356 105.018 104.356 100.174C104.356 95.3298 100.792 91.4004 96.3546 91.4004Z" fill="#D86657"/>
<path d="M96.3537 91.502C91.9834 91.502 88.4199 95.3975 88.4199 100.174C88.4199 104.984 91.9498 108.88 96.3201 108.88C100.69 108.88 104.254 104.984 104.254 100.208C104.254 95.3975 100.724 91.502 96.3537 91.502Z" fill="#D86556"/>
<path d="M96.3544 91.5684C92.0177 91.5684 88.5215 95.3962 88.5215 100.173C88.5215 104.915 92.0177 108.777 96.3544 108.777C100.691 108.777 104.187 104.949 104.187 100.173C104.187 95.4301 100.691 91.5684 96.3544 91.5684Z" fill="#D86455"/>
<path d="M96.3556 91.6699C92.0861 91.6699 88.5898 95.4639 88.5898 100.172C88.5898 104.881 92.0525 108.675 96.3219 108.709C100.591 108.709 104.088 104.915 104.088 100.206C104.088 95.4978 100.625 91.7038 96.3556 91.6699Z" fill="#D86354"/>
<path d="M96.3547 91.7715C92.1189 91.7715 88.6562 95.5316 88.6562 100.172C88.6562 104.813 92.0853 108.607 96.3211 108.607C100.557 108.607 104.02 104.847 104.02 100.206C104.02 95.5654 100.591 91.7715 96.3547 91.7715Z" fill="#D76253"/>
<path d="M96.3554 91.8398C92.1532 91.8398 88.7578 95.5661 88.7578 100.173C88.7578 104.78 92.1532 108.506 96.3554 108.506C100.558 108.506 103.953 104.78 103.953 100.173C103.953 95.5661 100.558 91.8398 96.3554 91.8398Z" fill="#D76153"/>
<path d="M96.3546 91.9395C92.186 91.9395 88.8242 95.6318 88.8242 100.171C88.8242 104.744 92.186 108.436 96.321 108.436C100.49 108.436 103.851 104.744 103.851 100.205C103.851 95.6318 100.49 91.9395 96.3546 91.9395Z" fill="#D76052"/>
<path d="M96.3538 92.0078C92.2524 92.0078 88.9242 95.6663 88.8906 100.172C88.8906 104.677 92.2188 108.335 96.3202 108.335C100.422 108.335 103.75 104.677 103.783 100.172C103.783 95.6663 100.455 92.0078 96.3538 92.0078Z" fill="#D75F51"/>
<path d="M96.3545 92.1113C92.2867 92.1113 88.9922 95.702 88.9922 100.173C88.9922 104.645 92.2867 108.27 96.3545 108.27C100.422 108.27 103.717 104.679 103.717 100.207C103.717 95.7359 100.422 92.1113 96.3545 92.1113Z" fill="#D75E50"/>
<path d="M96.3537 92.1777C92.3195 92.1777 89.0586 95.7346 89.0586 100.172C89.0586 104.576 92.3195 108.167 96.32 108.167C100.354 108.167 103.615 104.61 103.615 100.172C103.615 95.7684 100.354 92.1777 96.3537 92.1777Z" fill="#D65D50"/>
<path d="M96.3544 92.2812C92.3875 92.2812 89.1602 95.8042 89.1602 100.174C89.1602 104.544 92.3875 108.067 96.3544 108.067C100.321 108.067 103.549 104.544 103.549 100.174C103.549 95.8042 100.321 92.2812 96.3544 92.2812Z" fill="#D65C4F"/>
<path d="M96.3555 92.3809C92.4222 92.3809 89.2285 95.8699 89.2285 100.172C89.2285 104.474 92.4222 107.997 96.3219 107.997C100.255 107.997 103.449 104.508 103.449 100.206C103.449 95.9038 100.255 92.3809 96.3555 92.3809Z" fill="#D65B4E"/>
<path d="M96.3586 92.4492C92.4589 92.4492 89.3324 95.9044 89.2988 100.173C89.2988 104.441 92.4253 107.896 96.325 107.896C100.225 107.896 103.351 104.441 103.385 100.173C103.385 95.9044 100.258 92.4492 96.3586 92.4492Z" fill="#D65A4D"/>
<path d="M96.3573 92.5488C92.5249 92.5488 89.3984 95.9702 89.3984 100.171C89.3984 104.405 92.4913 107.826 96.3573 107.826C100.19 107.826 103.316 104.405 103.316 100.204C103.316 95.9702 100.223 92.5488 96.3573 92.5488Z" fill="#D5594C"/>
<path d="M96.3545 92.6172C92.5557 92.6172 89.4629 96.0046 89.4629 100.171C89.4629 104.338 92.5221 107.725 96.3209 107.725C100.12 107.725 103.213 104.338 103.213 100.171C103.213 96.0046 100.153 92.6172 96.3545 92.6172Z" fill="#D5584C"/>
<path d="M96.3533 92.7207C92.5881 92.7207 89.5625 96.0404 89.5625 100.173C89.5625 104.306 92.5881 107.626 96.3533 107.626C100.118 107.626 103.144 104.306 103.144 100.173C103.144 96.0404 100.118 92.7207 96.3533 92.7207Z" fill="#D5574B"/>
<path d="M96.3564 92.8184C92.6584 92.8184 89.6328 96.1042 89.6328 100.169C89.6328 104.234 92.6248 107.554 96.3564 107.554C100.054 107.554 103.08 104.268 103.08 100.203C103.08 96.1381 100.088 92.8184 96.3564 92.8184Z" fill="#D5564A"/>
<path d="M96.3536 92.8906C92.6892 92.8906 89.6973 96.1426 89.6973 100.174C89.6973 104.205 92.6556 107.457 96.32 107.457C99.9843 107.457 102.976 104.205 102.976 100.174C102.976 96.1426 100.018 92.8906 96.3536 92.8906Z" fill="#D55549"/>
<path d="M96.3543 92.9902C92.7236 92.9902 89.7988 96.2083 89.7988 100.172C89.7988 104.135 92.7236 107.387 96.3543 107.387C99.985 107.387 102.91 104.169 102.91 100.206C102.91 96.2422 99.985 92.9902 96.3543 92.9902Z" fill="#D45449"/>
<path d="M96.3535 93.0625C92.79 93.0625 89.8652 96.2467 89.8652 100.176C89.8652 104.106 92.7564 107.29 96.3198 107.29C99.8833 107.29 102.808 104.106 102.808 100.176C102.808 96.2467 99.917 93.0625 96.3535 93.0625Z" fill="#D45348"/>
<path d="M96.3546 93.1602C92.8247 93.1602 89.9672 96.3105 89.9336 100.172C89.9336 104.034 92.7911 107.184 96.321 107.218C99.8508 107.218 102.708 104.068 102.742 100.206C102.742 96.3444 99.8845 93.194 96.3546 93.1602Z" fill="#D45247"/>
</g>
<g opacity="0.4">
<path d="M137.842 112.503C144.548 108.68 146.909 100.103 143.114 93.3456C139.32 86.5881 130.808 84.2094 124.102 88.0326C117.395 91.8558 115.035 100.433 118.829 107.191C122.623 113.948 131.135 116.327 137.842 112.503Z" fill="#E5A185"/>
<path d="M137.889 112.213C144.527 108.383 146.826 99.8553 143.025 93.1667C139.223 86.4781 130.76 84.1612 124.123 87.9918C117.485 91.8224 115.185 100.35 118.987 107.039C122.788 113.727 131.251 116.044 137.889 112.213Z" fill="#E5A084"/>
<path d="M137.835 112.421C144.411 108.595 146.665 100.122 142.868 93.4954C139.071 86.8688 130.662 84.5983 124.085 88.4242C117.509 92.2501 115.256 100.723 119.053 107.35C122.849 113.977 131.259 116.247 137.835 112.421Z" fill="#E59F83"/>
<path d="M137.854 112.295C144.378 108.453 146.577 100.009 142.764 93.4352C138.952 86.861 130.572 84.6458 124.048 88.4874C117.523 92.3291 115.325 100.773 119.138 107.347C122.95 113.921 131.33 116.136 137.854 112.295Z" fill="#E49E83"/>
<path d="M137.885 112.208C144.341 108.36 146.48 99.9676 142.661 93.462C138.843 86.9563 130.514 84.8014 124.057 88.6488C117.601 92.4963 115.463 100.889 119.281 107.395C123.099 113.9 131.428 116.055 137.885 112.208Z" fill="#E49D82"/>
<path d="M137.978 111.748C144.375 107.874 146.445 99.508 142.601 93.0614C138.757 86.6148 130.454 84.5289 124.057 88.4024C117.659 92.2759 115.589 100.642 119.433 107.089C123.277 113.535 131.58 115.621 137.978 111.748Z" fill="#E49C81"/>
<path d="M137.955 111.795C144.285 107.917 146.296 99.6022 142.448 93.224C138.599 86.8457 130.348 84.8189 124.018 88.6969C117.688 92.575 115.677 100.889 119.525 107.268C123.374 113.646 131.625 115.673 137.955 111.795Z" fill="#E49B80"/>
<path d="M138.009 111.475C144.264 107.582 146.203 99.3159 142.34 93.0126C138.476 86.7093 130.273 84.7554 124.018 88.6484C117.762 92.5414 115.823 100.807 119.687 107.11C123.55 113.414 131.753 115.368 138.009 111.475Z" fill="#E49A80"/>
<path d="M137.986 111.682C144.189 107.776 146.076 99.5416 142.199 93.2905C138.323 87.0394 130.151 85.1385 123.948 89.0446C117.744 92.9507 115.857 101.185 119.734 107.436C123.61 113.687 131.782 115.588 137.986 111.682Z" fill="#E3997F"/>
<path d="M138.017 111.566C144.146 107.646 145.962 99.4622 142.072 93.2859C138.182 87.1097 130.06 85.2803 123.93 89.1999C117.801 93.1194 115.985 101.304 119.875 107.48C123.765 113.656 131.887 115.486 138.017 111.566Z" fill="#E3987E"/>
<path d="M138.128 111.111C144.192 107.158 145.928 98.9998 142.005 92.8894C138.082 86.779 129.985 85.0301 123.921 88.9831C117.857 92.9361 116.122 101.094 120.045 107.204C123.968 113.315 132.064 115.064 138.128 111.111Z" fill="#E3977D"/>
<path d="M138.097 111.155C144.087 107.19 145.753 99.0834 141.818 93.0476C137.883 87.0119 129.838 85.333 123.848 89.2977C117.858 93.2625 116.192 101.37 120.126 107.405C124.061 113.441 132.107 115.12 138.097 111.155Z" fill="#E3967C"/>
<path d="M138.172 110.902C144.097 106.906 145.684 98.8263 141.718 92.8564C137.752 86.8866 129.734 85.2869 123.809 89.2833C117.885 93.2798 116.297 101.359 120.263 107.329C124.23 113.299 132.248 114.898 138.172 110.902Z" fill="#E2957C"/>
<path d="M138.206 110.748C144.05 106.731 145.556 98.7014 141.569 92.8131C137.583 86.9247 129.614 85.4075 123.77 89.4243C117.927 93.441 116.421 101.471 120.407 107.359C124.394 113.247 132.362 114.765 138.206 110.748Z" fill="#E2947B"/>
<path d="M138.223 110.729C143.986 106.693 145.411 98.7138 141.405 92.9068C137.4 87.0998 129.481 85.6641 123.718 89.7C117.955 93.736 116.53 101.715 120.536 107.522C124.541 113.329 132.46 114.765 138.223 110.729Z" fill="#E2937A"/>
<path d="M138.329 110.439C144.019 106.364 145.354 98.4124 141.31 92.6785C137.266 86.9445 129.375 85.5996 123.684 89.6745C117.994 93.7494 116.659 101.701 120.703 107.435C124.747 113.169 132.638 114.514 138.329 110.439Z" fill="#E29279"/>
<path d="M138.384 110.287C143.986 106.185 145.228 98.2836 141.158 92.638C137.087 86.9925 129.245 85.741 123.643 89.8427C118.04 93.9444 116.798 101.846 120.869 107.492C124.939 113.137 132.781 114.389 138.384 110.287Z" fill="#E29179"/>
<path d="M138.434 110.295C143.964 106.157 145.118 98.2849 141.011 92.7127C136.904 87.1405 129.092 85.978 123.562 90.1163C118.032 94.2546 116.878 102.127 120.985 107.699C125.092 113.271 132.904 114.433 138.434 110.295Z" fill="#E19078"/>
<path d="M138.476 110.044C143.911 105.872 144.96 98.0502 140.82 92.5736C136.679 87.097 128.917 86.0394 123.482 90.2115C118.047 94.3835 116.997 102.205 121.138 107.682C125.278 113.158 133.04 114.216 138.476 110.044Z" fill="#E18F77"/>
<path d="M138.542 109.989C143.882 105.785 144.829 98.015 140.657 92.634C136.485 87.253 128.773 86.2989 123.433 90.503C118.093 94.7071 117.146 102.477 121.318 107.858C125.49 113.239 133.202 114.193 138.542 109.989Z" fill="#E18E76"/>
<path d="M138.624 109.733C143.876 105.477 144.711 97.7372 140.488 92.4446C136.265 87.1519 128.583 86.3111 123.331 90.5665C118.078 94.8218 117.244 102.562 121.467 107.855C125.69 113.147 133.372 113.988 138.624 109.733Z" fill="#E18D75"/>
<path d="M138.697 109.678C143.847 105.384 144.568 97.6973 140.308 92.5079C136.047 87.3185 128.419 86.5918 123.268 90.8849C118.118 95.178 117.397 102.865 121.658 108.055C125.918 113.244 133.547 113.971 138.697 109.678Z" fill="#E18C75"/>
<path d="M138.794 109.454C143.848 105.104 144.446 97.4493 140.129 92.3564C135.812 87.2635 128.216 86.661 123.161 91.0108C118.107 95.3605 117.509 103.015 121.826 108.108C126.143 113.201 133.74 113.804 138.794 109.454Z" fill="#E08B74"/>
<path d="M138.883 109.031C143.82 104.63 144.281 97.0304 139.913 92.0562C135.546 87.082 128.004 86.6172 123.067 91.018C118.131 95.4188 117.669 103.019 122.037 107.993C126.404 112.967 133.947 113.432 138.883 109.031Z" fill="#E08A73"/>
<path d="M139.335 108.662C143.956 104.005 143.956 96.4556 139.335 91.799C134.714 87.1425 127.221 87.1425 122.6 91.799C117.979 96.4556 117.979 104.005 122.6 108.662C127.221 113.318 134.714 113.318 139.335 108.662Z" fill="#E08972"/>
<path d="M139.29 108.614C143.885 103.984 143.885 96.477 139.29 91.8469C134.695 87.2168 127.245 87.2168 122.65 91.8469C118.055 96.477 118.055 103.984 122.65 108.614C127.245 113.244 134.695 113.244 139.29 108.614Z" fill="#E08872"/>
<path d="M139.217 108.542C143.772 103.952 143.772 96.5092 139.217 91.9188C134.661 87.3284 127.275 87.3284 122.719 91.9188C118.164 96.5092 118.164 103.952 122.719 108.542C127.275 113.133 134.661 113.133 139.217 108.542Z" fill="#DF8771"/>
<path d="M139.174 108.494C143.703 103.93 143.703 96.5306 139.174 91.9667C134.644 87.4027 127.301 87.4027 122.771 91.9667C118.242 96.5306 118.242 103.93 122.771 108.494C127.301 113.058 134.644 113.058 139.174 108.494Z" fill="#DF8670"/>
<path d="M139.1 108.422C143.59 103.898 143.59 96.5628 139.1 92.0386C134.61 87.5143 127.331 87.5143 122.841 92.0385C118.351 96.5628 118.351 103.898 122.841 108.422C127.331 112.947 134.61 112.947 139.1 108.422Z" fill="#DF856F"/>
<path d="M139.555 107.922C143.709 103.157 143.244 95.9013 138.515 91.7155C133.787 87.5296 126.586 87.9988 122.432 92.7635C118.278 97.5281 118.743 104.784 123.472 108.97C128.2 113.156 135.401 112.686 139.555 107.922Z" fill="#DF846F"/>
<path d="M139.723 107.641C143.728 102.797 143.078 95.5989 138.27 91.5632C133.463 87.5274 126.32 88.1825 122.314 93.0263C118.309 97.8702 118.959 105.068 123.767 109.104C128.574 113.14 135.717 112.485 139.723 107.641Z" fill="#DF836E"/>
<path d="M139.826 107.27C143.661 102.36 142.819 95.2463 137.946 91.3822C133.072 87.518 126.013 88.3662 122.178 93.2767C118.343 98.1872 119.185 105.301 124.058 109.165C128.932 113.029 135.991 112.181 139.826 107.27Z" fill="#DE826D"/>
<path d="M139.948 106.837C143.615 101.844 142.57 94.8013 137.615 91.1067C132.66 87.4121 125.671 88.4646 122.004 93.4576C118.338 98.4505 119.382 105.493 124.337 109.188C129.292 112.882 136.281 111.83 139.948 106.837Z" fill="#DE816C"/>
<path d="M140.094 106.698C143.58 101.644 142.34 94.6991 137.324 91.1864C132.308 87.6736 125.416 88.9232 121.929 93.9774C118.443 99.0316 119.683 105.977 124.699 109.489C129.715 113.002 136.608 111.753 140.094 106.698Z" fill="#DE806B"/>
<path d="M140.213 106.428C143.509 101.313 142.067 94.4733 136.991 91.1516C131.914 87.8299 125.127 89.2836 121.83 94.3986C118.534 99.5136 119.976 106.353 125.053 109.675C130.129 112.996 136.916 111.543 140.213 106.428Z" fill="#DE7F6B"/>
<path d="M140.34 105.96C143.447 100.77 141.79 94.024 136.639 90.893C131.489 87.762 124.794 89.4314 121.687 94.6217C118.579 99.812 120.236 106.558 125.387 109.689C130.538 112.82 137.233 111.15 140.34 105.96Z" fill="#DE7E6A"/>
<path d="M140.441 105.663C143.348 100.42 141.488 93.7957 136.285 90.8659C131.083 87.9361 124.508 89.8107 121.601 95.053C118.693 100.295 120.553 106.92 125.756 109.85C130.958 112.78 137.533 110.905 140.441 105.663Z" fill="#DD7D69"/>
<path d="M140.494 105.061C143.201 99.7527 141.125 93.2382 135.858 90.5103C130.59 87.7823 124.125 89.8739 121.418 95.1819C118.71 100.49 120.786 107.004 126.054 109.732C131.322 112.46 137.787 110.369 140.494 105.061Z" fill="#DD7C68"/>
<path d="M140.633 104.891C143.141 99.5467 140.873 93.1657 135.569 90.6392C130.265 88.1127 123.932 90.3974 121.425 95.7423C118.917 101.087 121.185 107.468 126.489 109.995C131.793 112.521 138.126 110.236 140.633 104.891Z" fill="#DD7B68"/>
<path d="M140.64 104.313C142.946 98.918 140.475 92.6605 135.12 90.3369C129.766 88.0133 123.556 90.5034 121.25 95.8988C118.944 101.294 121.415 107.552 126.769 109.875C132.124 112.199 138.334 109.709 140.64 104.313Z" fill="#DD7A67"/>
<path d="M140.698 104.037C142.804 98.6203 140.154 92.5078 134.778 90.3848C129.402 88.2618 123.336 90.9323 121.229 96.3495C119.122 101.767 121.772 107.879 127.148 110.002C132.525 112.125 138.591 109.455 140.698 104.037Z" fill="#DD7A66"/>
<path d="M140.674 103.588C142.583 98.1559 139.761 92.1933 134.37 90.2699C128.98 88.3464 123.062 91.1904 121.154 96.6221C119.245 102.054 122.067 108.016 127.458 109.94C132.848 111.863 138.765 109.019 140.674 103.588Z" fill="#DC7965"/>
<path d="M140.763 103.325C142.49 97.8707 139.503 92.0386 134.09 90.2981C128.678 88.5576 122.89 91.5677 121.163 97.0215C119.435 102.475 122.423 108.307 127.835 110.048C133.248 111.789 139.036 108.778 140.763 103.325Z" fill="#DC7864"/>
<path d="M140.862 103.208C142.412 97.7588 139.285 92.0748 133.878 90.5123C128.47 88.9499 122.829 92.1005 121.278 97.5496C119.728 102.999 122.855 108.683 128.262 110.245C133.67 111.808 139.311 108.657 140.862 103.208Z" fill="#DC7764"/>
<path d="M140.843 102.811C142.223 97.3541 138.952 91.803 133.537 90.4121C128.121 89.0212 122.612 92.3172 121.232 97.7739C119.851 103.231 123.122 108.782 128.538 110.173C133.953 111.564 139.462 108.268 140.843 102.811Z" fill="#DC7663"/>
<path d="M140.789 102.487C142.006 97.0486 138.616 91.6461 133.219 90.4204C127.821 89.1947 122.46 92.6101 121.243 98.0488C120.027 103.488 123.417 108.89 128.814 110.116C134.212 111.341 139.573 107.926 140.789 102.487Z" fill="#DB7562"/>
<path d="M140.766 102.22C141.83 96.806 138.337 91.5482 132.964 90.4762C127.591 89.4042 122.373 92.924 121.309 98.3379C120.245 103.752 123.738 109.01 129.111 110.082C134.484 111.154 139.702 107.634 140.766 102.22Z" fill="#DB7461"/>
<path d="M140.806 102.069C141.732 96.6674 138.137 91.5322 132.776 90.5992C127.416 89.6662 122.319 93.2887 121.393 98.6903C120.467 104.092 124.062 109.227 129.423 110.16C134.784 111.093 139.88 107.471 140.806 102.069Z" fill="#DB7361"/>
<path d="M140.592 101.603C141.379 96.2358 137.698 91.2423 132.372 90.4497C127.045 89.6572 122.09 93.3657 121.303 98.7329C120.517 104.1 124.197 109.094 129.523 109.886C134.85 110.679 139.806 106.97 140.592 101.603Z" fill="#DB7260"/>
<path d="M140.692 101.558C141.362 96.212 137.605 91.3311 132.3 90.6558C126.995 89.9805 122.151 93.7665 121.481 99.112C120.811 104.458 124.568 109.338 129.873 110.014C135.178 110.689 140.022 106.903 140.692 101.558Z" fill="#DB715F"/>
<path d="M140.545 101.247C141.098 95.9443 137.28 91.1938 132.018 90.6365C126.755 90.0791 122.041 93.926 121.488 99.2287C120.935 104.531 124.752 109.282 130.015 109.839C135.277 110.397 139.992 106.55 140.545 101.247Z" fill="#DA705E"/>
<path d="M140.47 101.058C140.918 95.801 137.051 91.1745 131.835 90.7239C126.618 90.2732 122.027 94.1691 121.579 99.4256C121.132 104.682 124.998 109.309 130.215 109.759C135.432 110.21 140.023 106.314 140.47 101.058Z" fill="#DA6F5D"/>
<path d="M130.977 90.752C125.767 90.752 121.564 94.9863 121.564 100.237C121.564 105.487 125.767 109.722 130.977 109.722C136.188 109.722 140.39 105.487 140.39 100.237C140.39 94.9863 136.188 90.752 130.977 90.752Z" fill="#DA6E5D"/>
<path d="M130.975 90.8203C125.831 90.8203 121.663 95.0208 121.629 100.204C121.629 105.386 125.798 109.587 130.941 109.621C136.085 109.621 140.253 105.42 140.287 100.237C140.287 95.0546 136.118 90.8542 130.975 90.8203Z" fill="#DA6D5C"/>
<path d="M130.975 90.9238C125.865 90.9238 121.73 95.0904 121.73 100.205C121.73 105.354 125.865 109.521 130.942 109.521C136.052 109.521 140.187 105.354 140.187 100.239C140.187 95.0904 136.052 90.9238 130.975 90.9238Z" fill="#DA6C5B"/>
<path d="M130.974 90.9883C125.931 90.9883 121.83 95.0871 121.83 100.202C121.83 105.283 125.898 109.416 130.974 109.416C136.017 109.416 140.118 105.317 140.118 100.202C140.118 95.121 136.05 90.9883 130.974 90.9883Z" fill="#D96B5A"/>
<path d="M130.979 91.0918C125.97 91.0918 121.902 95.1567 121.902 100.204C121.902 105.251 125.936 109.35 130.946 109.35C135.955 109.35 140.022 105.285 140.022 100.238C140.022 95.1906 135.988 91.0918 130.979 91.0918Z" fill="#D96A5A"/>
<path d="M130.976 91.1934C126.034 91.1934 122 95.2244 122 100.238C122 105.217 126.001 109.282 130.976 109.282C135.918 109.282 139.952 105.251 139.952 100.238C139.952 95.2583 135.951 91.1934 130.976 91.1934Z" fill="#D96959"/>
<path d="M130.981 91.2598C126.073 91.2598 122.106 95.257 122.072 100.203C122.072 105.148 126.039 109.146 130.947 109.179C135.856 109.179 139.822 105.182 139.856 100.237C139.856 95.2908 135.889 91.2936 130.981 91.2598Z" fill="#D96858"/>
<path d="M130.976 91.3613C126.101 91.3613 122.168 95.3247 122.168 100.203C122.168 105.114 126.101 109.078 130.942 109.078C135.817 109.078 139.75 105.114 139.75 100.236C139.75 95.3247 135.817 91.3613 130.976 91.3613Z" fill="#D86757"/>
<path d="M130.977 91.4297C126.169 91.4297 122.27 95.3591 122.27 100.203C122.27 105.047 126.169 108.977 130.977 108.977C135.784 108.977 139.684 105.047 139.684 100.203C139.684 95.3591 135.784 91.4297 130.977 91.4297Z" fill="#D86657"/>
<path d="M130.978 91.5312C126.204 91.5312 122.338 95.4268 122.338 100.203C122.338 105.013 126.204 108.909 130.944 108.909C135.718 108.909 139.584 105.013 139.584 100.237C139.584 95.4268 135.718 91.5312 130.978 91.5312Z" fill="#D86556"/>
<path d="M130.978 91.6309C126.272 91.6309 122.439 95.4587 122.439 100.235C122.439 104.977 126.238 108.839 130.978 108.839C135.685 108.839 139.517 105.011 139.517 100.235C139.517 95.4926 135.718 91.6309 130.978 91.6309Z" fill="#D86455"/>
<path d="M130.978 91.7031C126.305 91.7031 122.539 95.4971 122.506 100.206C122.506 104.914 126.271 108.708 130.944 108.742C135.617 108.742 139.382 104.948 139.416 100.24C139.416 95.531 135.65 91.737 130.978 91.7031Z" fill="#D86354"/>
<path d="M130.978 91.8047C126.373 91.8047 122.607 95.5648 122.607 100.206C122.607 104.846 126.339 108.64 130.945 108.64C135.55 108.64 139.315 104.88 139.315 100.239C139.315 95.5986 135.584 91.8047 130.978 91.8047Z" fill="#D76253"/>
<path d="M130.977 91.8711C126.405 91.8711 122.707 95.5973 122.707 100.204C122.707 104.811 126.405 108.537 130.977 108.537C135.549 108.537 139.247 104.811 139.247 100.204C139.247 95.5973 135.549 91.8711 130.977 91.8711Z" fill="#D76153"/>
<path d="M130.978 91.9727C126.44 91.9727 122.775 95.665 122.775 100.204C122.775 104.777 126.44 108.47 130.945 108.47C135.483 108.47 139.147 104.777 139.147 100.238C139.147 95.665 135.483 91.9727 130.978 91.9727Z" fill="#D76052"/>
<path d="M130.979 92.0762C126.508 92.0762 122.877 95.7346 122.877 100.24C122.877 104.745 126.508 108.404 130.979 108.404C135.45 108.404 139.081 104.745 139.081 100.24C139.081 95.7346 135.45 92.0762 130.979 92.0762Z" fill="#D75F51"/>
<path d="M130.978 92.1387C126.54 92.1387 122.943 95.7294 122.943 100.201C122.943 104.672 126.507 108.297 130.944 108.297C135.382 108.297 138.979 104.706 138.979 100.235C138.979 95.7633 135.416 92.1387 130.978 92.1387Z" fill="#D75E50"/>
<path d="M130.979 92.2441C126.608 92.2441 123.045 95.801 123.045 100.239C123.045 104.642 126.575 108.233 130.979 108.233C135.349 108.233 138.913 104.676 138.913 100.239C138.913 95.8349 135.383 92.2441 130.979 92.2441Z" fill="#D65D50"/>
<path d="M130.976 92.3105C126.639 92.3105 123.143 95.8335 123.143 100.203C123.143 104.573 126.639 108.096 130.976 108.096C135.312 108.096 138.808 104.573 138.808 100.203C138.808 95.8335 135.312 92.3105 130.976 92.3105Z" fill="#D65C4F"/>
<path d="M130.979 92.4121C126.709 92.4121 123.213 95.9012 123.213 100.203C123.213 104.505 126.676 108.028 130.945 108.028C135.214 108.028 138.711 104.539 138.711 100.237C138.711 95.9351 135.248 92.4121 130.979 92.4121Z" fill="#D65B4E"/>
<path d="M130.977 92.4805C126.742 92.4805 123.312 95.9357 123.312 100.204C123.312 104.472 126.742 107.927 130.977 107.927C135.213 107.927 138.642 104.472 138.642 100.204C138.642 95.9357 135.213 92.4805 130.977 92.4805Z" fill="#D65A4D"/>
<path d="M130.977 92.582C126.774 92.582 123.379 96.0034 123.379 100.204C123.379 104.438 126.774 107.859 130.943 107.859C135.145 107.859 138.541 104.438 138.541 100.238C138.541 96.0034 135.145 92.582 130.977 92.582Z" fill="#D5594C"/>
<path d="M130.977 92.6855C126.842 92.6855 123.48 96.073 123.48 100.24C123.48 104.406 126.842 107.794 130.977 107.794C135.112 107.794 138.474 104.406 138.474 100.24C138.474 96.073 135.112 92.6855 130.977 92.6855Z" fill="#D5584C"/>
<path d="M130.976 92.75C126.875 92.75 123.58 96.0697 123.547 100.202C123.547 104.335 126.841 107.655 130.943 107.689C135.044 107.689 138.339 104.369 138.372 100.236C138.372 96.1036 135.078 92.7839 130.976 92.75Z" fill="#D5574B"/>
<path d="M130.977 92.8535C126.943 92.8535 123.648 96.1394 123.648 100.204C123.648 104.269 126.909 107.589 130.944 107.589C134.978 107.589 138.272 104.303 138.272 100.238C138.272 96.1732 135.011 92.8535 130.977 92.8535Z" fill="#D5564A"/>
<path d="M130.976 92.9199C126.975 92.9199 123.748 96.1719 123.748 100.203C123.748 104.234 126.975 107.486 130.976 107.486C134.976 107.486 138.204 104.234 138.204 100.203C138.204 96.1719 134.976 92.9199 130.976 92.9199Z" fill="#D55549"/>
<path d="M130.977 93.0234C127.044 93.0234 123.816 96.2415 123.816 100.205C123.816 104.168 127.01 107.42 130.943 107.42C134.877 107.42 138.104 104.202 138.104 100.239C138.104 96.2754 134.91 93.0234 130.977 93.0234Z" fill="#D45449"/>
<path d="M130.978 93.123C127.078 93.123 123.918 96.3073 123.918 100.237C123.918 104.166 127.078 107.35 130.978 107.35C134.877 107.35 138.037 104.166 138.037 100.237C138.037 96.3073 134.877 93.123 130.978 93.123Z" fill="#D45348"/>
<path d="M130.975 93.1914C127.143 93.1914 124.016 96.3418 123.982 100.203C123.982 104.065 127.109 107.216 130.941 107.249C134.774 107.249 137.9 104.099 137.934 100.237C137.934 96.3756 134.807 93.2253 130.975 93.1914Z" fill="#D45247"/>
</g>
<path d="M155.252 87.945C151.588 86.6578 147.251 90.0453 145.537 95.4652C143.822 100.885 145.402 106.305 149.033 107.592C152.697 108.88 157.034 105.492 158.748 100.072C160.463 94.6522 158.883 89.2323 155.252 87.945Z" fill="#E5A185"/>
<path d="M155.822 100.718C152.325 103.021 148.56 102.344 145.804 100.142C145.938 104.681 145.064 113.319 138.677 122.194C133.567 129.308 122.338 131.781 114.001 131.544C94.0994 131.036 88.7878 124.972 84.6191 116.74C87.5103 125.785 94.5028 134.118 110.169 134.999C139.181 136.659 147.047 124.396 147.989 107.052C148.325 107.289 148.695 107.459 149.065 107.594C152.729 108.882 157.066 105.494 158.78 100.074C159.217 98.6853 159.452 97.2964 159.486 95.9414C158.847 97.8045 157.671 99.4644 155.822 100.684V100.718Z" fill="#D78C74"/>
<path opacity="0.5" d="M91.1762 79.6457C91.1762 79.6457 89.7306 85.3366 89.5625 89.6048L104.926 92.1115C104.926 92.1115 110.674 82.9315 108.758 69.1445L91.1762 79.6118V79.6457Z" fill="#D78C74"/>
<path d="M149.367 97.8385L152.695 98.2788C152.595 92.9944 156.494 91.199 156.494 91.199C150.14 88.9633 149.367 97.8385 149.367 97.8385Z" fill="#D78C74"/>
<path opacity="0.5" d="M124.054 68.9727C124.054 68.9727 116.994 81.4385 122.306 91.2622L140.358 91.8719C140.358 91.8719 142.14 85.0631 141.064 79.8125C139.955 74.562 124.087 69.0065 124.087 69.0065L124.054 68.9727Z" fill="#D78C74"/>
<path d="M132.292 84.6595C124.896 84.1853 122.273 91.2651 122.273 91.2651C122.273 91.2651 123.517 95.1607 131.317 95.1607C140.326 95.1607 139.755 91.4683 139.755 91.4683C139.755 91.4683 139.687 85.1676 132.292 84.6934V84.6595Z" fill="white"/>
<path d="M89.5596 89.6036C89.5596 89.6036 88.4502 93.4314 96.3167 93.7702C104.217 94.075 104.889 92.1442 104.889 92.1442C104.889 92.1442 97.1908 77.7136 89.5259 89.6375L89.5596 89.6036Z" fill="white"/>
<path d="M100.052 86.996C98.4049 86.454 96.3879 88.1816 95.5474 90.8238C95.2448 91.8401 95.144 92.7886 95.2449 93.6693C95.581 93.6693 95.9508 93.737 96.3542 93.737C98.4049 93.8048 99.985 93.737 101.195 93.6015C101.33 93.3306 101.431 93.0257 101.531 92.7208C102.372 90.0786 101.699 87.5041 100.052 86.996Z" fill="url(#paint0_linear_2394_71817)"/>
<path opacity="0.9" d="M94.5352 91.5369L94.8041 92.6548C94.8041 92.6548 99.477 92.2144 99.0063 90.0803C98.5357 87.9462 94.5352 91.5031 94.5352 91.5031V91.5369Z" fill="white"/>
<path d="M131.82 87.0292C130.173 86.4872 128.156 88.2148 127.316 90.857C126.879 92.2459 126.879 93.6009 127.181 94.651C128.291 94.922 129.635 95.0914 131.283 95.0914C131.551 95.0914 131.82 95.0914 132.056 95.0914C132.56 94.4477 132.997 93.6686 133.266 92.754C134.106 90.1118 133.434 87.5373 131.787 87.0292H131.82Z" fill="url(#paint1_linear_2394_71817)"/>
<path opacity="0.9" d="M126.306 92.3132L126.205 93.4989C126.205 93.4989 131.113 93.2617 130.643 91.1276C130.172 88.9935 126.306 92.3132 126.306 92.3132Z" fill="white"/>
<path d="M96.8576 83.6783C90.7055 83.6106 89.5625 89.6064 89.5625 89.6064C89.5625 89.6064 90.7727 87.0996 96.1852 86.8964C101.598 86.6931 104.926 92.1131 104.926 92.1131C104.926 92.1131 105.027 83.7461 96.8576 83.6783Z" fill="#381911"/>
<path d="M91.1758 79.6469C96.5883 76.3272 105.329 78.3936 108.388 75.1416C109.565 73.8883 108.758 69.1797 108.758 69.1797C92.1507 71.6864 91.1758 79.6469 91.1758 79.6469Z" fill="#422E26"/>
<path d="M124.055 68.9727C124.055 68.9727 121.87 72.6989 122.71 73.9861C125.332 78.0511 136.594 76.6283 141.032 80.0158C141.032 80.0158 142.107 72.0891 124.055 68.9727Z" fill="#422E26"/>
<path d="M131.989 84.2862C123.685 84.1846 122.273 91.2644 122.273 91.2644C122.273 91.2644 124.728 87.5382 132.056 87.9786C139.385 88.3851 139.755 91.4677 139.755 91.4677C139.755 91.4677 140.293 84.3879 131.989 84.3201V84.2862Z" fill="#381911"/>
<path d="M114.81 110.843C100.859 111.249 99.1777 108.167 99.1777 108.167C99.1777 108.167 96.9926 118.6 113.297 118.6C128.761 118.6 127.82 108.641 127.719 108.031C127.753 108.302 127.618 110.47 114.81 110.843Z" fill="#6C332E"/>
<path d="M125.632 114.47C125.396 113.623 124.69 110.913 124.556 109.93C122.673 110.371 119.648 110.777 114.773 110.913C108.251 111.082 104.419 110.54 102.166 109.896C101.965 111.522 101.561 113.284 101.191 114.876C103.108 116.909 106.671 118.602 113.26 118.602C120.051 118.602 123.682 116.671 125.598 114.47H125.632Z" fill="white"/>
<path opacity="0.3" d="M109.901 112.506C114.54 112.201 119.012 112.946 123.281 114.776C123.785 114.979 124.189 115.284 124.491 115.589C124.928 115.25 125.298 114.877 125.634 114.505C125.399 113.658 124.693 110.948 124.558 109.966C122.676 110.406 119.65 110.812 114.776 110.948C108.254 111.117 104.421 110.575 102.169 109.932C102.001 111.422 101.631 113.014 101.295 114.505C103.682 112.913 107.178 112.743 109.867 112.574L109.901 112.506Z" fill="#C3BBA5"/>
<path d="M109.496 95.8376C109.496 95.8376 104.218 92.0437 102.436 98.7847C100.655 105.526 114.001 109.387 117.564 102.342C121.161 95.2956 111.513 82.2539 111.513 82.2539C111.513 82.2539 113.463 90.3161 109.496 95.8376Z" fill="#E5A185"/>
<path opacity="0.2" d="M111.985 87.403C111.985 90.0114 111.414 93.1278 109.498 95.8039C109.498 95.8039 104.388 92.2471 102.572 98.3106C105.262 98.9204 108.119 99.3946 110.876 99.4963C112.389 95.7362 112.893 91.7051 113.061 87.3691C112.691 87.3691 112.355 87.3691 111.985 87.3691V87.403Z" fill="white"/>
<path d="M117.33 36.9978C80.485 39.9448 86.3681 81.0348 86.3681 81.0348C88.4188 68.7721 95.8147 53.4947 101.631 53.0882C101.631 53.0882 106.741 57.187 114.271 57.2548C121.028 57.3225 130.34 52.2413 130.34 52.2413C137.064 52.0042 145.031 72.9049 146.141 89.8422C146.41 93.7039 149.67 89.1986 149.67 89.1986C149.67 89.1986 153.436 34.1184 117.33 36.9978Z" fill="#4F372D"/>
<path d="M136.659 39.9436C125.532 23.3112 90.0985 28.6295 90.0985 28.6295C86.9048 47.7009 100.15 51.8336 100.15 51.8336C100.15 51.8336 130.843 45.9055 135.55 49.1575C140.256 52.4095 149.669 78.8994 149.669 78.8994C149.669 78.8994 156.09 53.2902 153.401 46.854C150.711 40.4179 136.693 39.9436 136.693 39.9436H136.659Z" fill="#4F372D"/>
<path d="M103.781 24.5996C103.949 27.1063 106.134 29.6469 106.134 29.6469C106.134 29.6469 143.719 54.6803 136.659 39.9448C129.633 25.2094 103.781 24.5996 103.781 24.5996Z" fill="#4F372D"/>
<path d="M132.76 36.9629L136.021 41.8408L142.643 40.6891L141.937 37.7081" fill="#4F372D"/>
<path d="M91.244 43.0977C80.4527 46.5529 84.117 90.014 84.117 90.014C86.1677 77.7514 95.7824 53.4633 101.598 53.0907C101.598 53.0907 96.1858 49.9403 91.244 43.0977Z" fill="#422E26"/>
<path opacity="0.1" d="M142.611 39.607C141.299 39.8441 144.258 38.1504 142.812 38.4891C139.383 39.336 135.753 39.9119 132.223 39.4715C128.121 38.9634 124.491 37.168 120.826 35.3388C118.977 34.4242 117.128 33.5096 115.212 32.6966C111.144 31.0029 106.303 29.343 101.832 29.5462C99.6134 29.6479 97.4619 30.3592 95.4112 31.24C93.5286 32.0191 91.9822 33.2047 90.8728 34.3903C90.4021 34.8984 89.9987 35.3727 89.6289 35.8808C89.7298 37.3713 89.9315 38.7263 90.2004 39.9796C90.3349 39.878 90.4694 39.7425 90.6374 39.607C91.377 39.0311 92.2847 38.4891 93.3605 38.0149C94.4363 37.5745 95.6465 37.168 97.0248 37.0325C102.336 36.5583 107.312 38.6585 112.153 40.5894C114.136 41.3685 116.153 42.317 118.271 43.1638C120.389 44.0446 122.608 44.8914 124.928 45.5689C128.827 46.7207 133.567 47.0255 137.501 45.8738C138.039 45.7044 138.576 45.5689 139.081 45.4334C141.098 44.7559 142.88 43.8752 144.426 43.0961C145.972 42.2831 149.536 40.3184 148.426 40.962C146.309 42.1815 145.569 42.2831 146.241 42.0798C145.199 40.7587 143.955 40.0135 142.611 39.6747V39.607Z" fill="#E5912F"/>
<path d="M102.34 100.646C103.18 106.168 114.341 108.709 117.602 102.306C117.804 101.934 117.939 101.493 118.073 101.087C112.829 102.272 107.383 102.001 102.34 100.646Z" fill="#D78C74"/>
<path d="M151.613 47.5259C152.793 45.3186 145.692 39.1577 135.752 33.765C125.813 28.3724 116.8 25.7902 115.62 27.9975C114.441 30.2048 121.542 36.3657 131.481 41.7584C141.42 47.151 150.434 49.7332 151.613 47.5259Z" fill="#0C4266"/>
<path d="M151.685 47.9059C150.508 50.1078 141.499 47.5333 131.548 42.1134C121.597 36.7273 114.537 30.1556 115.714 27.9538C116.891 25.7519 116.454 27.4118 117.092 27.615C117.731 27.8183 124.32 34.0173 132.388 38.421C140.457 42.8247 151.013 44.2136 151.719 46.9236C152.425 49.6335 151.786 47.6349 151.651 47.9398L151.685 47.9059Z" fill="#092E4C"/>
<defs>
<linearGradient id="paint0_linear_2394_71817" x1="97.3292" y1="95.0243" x2="100.77" y2="85.8953" gradientUnits="userSpaceOnUse">
<stop stop-color="#5C3333"/>
<stop offset="1"/>
</linearGradient>
<linearGradient id="paint1_linear_2394_71817" x1="128.694" y1="96.7512" x2="132.068" y2="86.6719" gradientUnits="userSpaceOnUse">
<stop stop-color="#5C3333"/>
<stop offset="1"/>
</linearGradient>
</defs>
</svg>
