<svg width="24" height="24" viewBox="0 0 24 24" fill="none" xmlns="http://www.w3.org/2000/svg">
<path d="M13.1872 2.06916C14.6237 2.24725 15.916 2.81746 16.9677 3.66087C16.5835 3.98131 16.2672 4.3839 16.0479 4.84597C15.2029 4.16314 14.1616 3.70104 13.0027 3.55736C9.70327 3.14832 6.71172 5.47143 6.30218 8.77096L5.75979 13.1459L4.04363 16.0501L18.6483 17.8608L17.6847 14.6253L18.2257 10.2621L18.2497 10.0383C18.2593 9.93028 18.266 9.82271 18.2699 9.71563C18.4364 9.76206 18.6085 9.79676 18.7852 9.81868C19.1208 9.86028 19.4511 9.85306 19.769 9.8026C19.7641 9.92944 19.7559 10.0568 19.7445 10.1847L19.7178 10.4342L19.2139 14.4989L20.1971 17.8001C20.2463 17.9653 20.2607 18.1389 20.2395 18.3099C20.1546 18.9948 19.5296 19.4811 18.8436 19.396L14.1383 18.8142C13.9345 20.458 12.4345 21.6251 10.788 21.421C9.20033 21.2242 8.05613 19.8242 8.15915 18.2505L8.1756 18.0727L3.48035 17.4914C3.31009 17.4703 3.14597 17.4144 2.99819 17.3274C2.40278 16.9765 2.20481 16.2102 2.55601 15.6159L4.3075 12.6519L4.81156 8.58606C5.3232 4.46402 9.06519 1.55814 13.1872 2.06916ZM12.6475 18.6271L9.6664 18.2598C9.5645 19.0817 10.1493 19.8307 10.9725 19.9328C11.7473 20.0289 12.4573 19.5176 12.6231 18.7719L12.6475 18.6271ZM16.8257 5.60022C16.9851 5.0888 17.3016 4.65476 17.7133 4.34643C18.2133 3.97192 18.8537 3.78287 19.5232 3.86587C20.8953 4.03598 21.8699 5.28436 21.7001 6.65421C21.5656 7.73879 20.7541 8.57434 19.7409 8.79088C19.4744 8.84783 19.194 8.86197 18.9082 8.82654C18.6617 8.79598 18.428 8.73062 18.2115 8.636C17.2229 8.20396 16.592 7.16196 16.7313 6.03821C16.7501 5.88704 16.782 5.74071 16.8257 5.60022Z" fill="#373737"/>
<circle cx="19.2193" cy="6.34621" r="2.5" transform="rotate(7.06722 19.2193 6.34621)" fill="#CD190E"/>
</svg>
