<svg width="940" height="1600" viewBox="0 0 940 1600" fill="none" xmlns="http://www.w3.org/2000/svg">
<path d="M764.5 1518.6C764.5 1518.6 622.5 1546 447.2 1546C271.9 1546 129.9 1518.6 129.9 1518.6C129.9 1518.6 271.9 1491.2 447.2 1491.2C622.5 1491.2 764.5 1518.6 764.5 1518.6Z" fill="url(#paint0_linear_2394_71807)"/>
<path d="M518.8 397.1C510.8 395.4 502.2 394 492.8 393L494 335.7C494.5 318.2 475.7 304.3 451.7 304.6C428.7 305 408.9 319.6 408.4 337.1L407 394.3C396.5 395.9 387 397.9 378.1 400.4L378.8 453H519.4L518.7 397.2L518.8 397.1Z" fill="url(#paint1_linear_2394_71807)"/>
<path d="M757.401 574.999C747.801 563.499 747.801 556.899 737.701 544.299C736.401 542.699 721.501 538.199 720.201 536.599C682.201 489.299 646.601 437.999 619.101 425.499C583.001 408.999 561.001 400.699 520.501 398.399C517.701 394.199 506.701 383.399 493.001 383.299C493.001 383.299 485.501 405.899 450.601 418.499C450.601 418.499 450.401 418.399 449.601 418.099C415.601 405.399 407.501 383.599 407.501 383.599C393.701 383.699 385.501 394.199 382.701 398.399C342.101 400.699 320.201 408.999 284.101 425.499C256.501 438.099 217.701 487.299 177.401 534.399C175.701 536.399 166.401 537.999 165.601 538.599C153.301 547.999 142.601 580.199 138.801 593.999C132.001 618.199 138.001 638.099 142.101 642.599C148.001 649.099 177.301 650.999 202.001 647.099C211.401 645.599 242.901 634.499 245.901 628.599L253.401 612.299C274.501 597.199 300.501 574.099 306.801 569.499C302.201 636.999 298.301 739.699 301.801 774.699C302.501 781.399 311.401 789.399 312.501 791.599C318.001 802.199 383.701 807.199 450.701 807.599C450.701 807.599 451.001 807.599 451.201 807.599C451.401 807.599 451.701 807.599 451.701 807.599C517.701 807.199 584.901 802.199 590.401 791.599C591.501 789.399 600.801 781.399 601.401 774.699C604.901 739.699 601.701 646.399 597.101 578.899C603.401 583.499 626.201 600.199 647.301 615.199L651.501 623.299C651.501 623.299 654.301 627.499 654.301 627.599C654.801 627.999 684.601 644.199 694.001 645.499C707.501 647.299 751.401 647.099 755.601 641.799C761.301 634.499 769.401 589.399 757.501 575.099L757.401 574.999Z" fill="url(#paint2_linear_2394_71807)"/>
<path d="M302 1454.5C300.9 1455 221.1 1498.6 220.2 1512.3C220.2 1512.9 217.9 1513.3 217.6 1513.7V1519.1C260.2 1533.5 346.3 1516.5 346.3 1516.5C346.3 1516.5 346.5 1519.9 347.4 1520C364.5 1521.7 393.4 1517.8 395.4 1516.2C395.8 1515.9 396.4 1511.2 396.2 1507.1C396.2 1506.7 395.1 1505.8 395.1 1505.8C396 1489.6 396 1458.4 396.1 1457.7C398.9 1443.7 308.5 1430.3 302 1454.5Z" fill="#2C2C2D"/>
<path d="M593.3 1454.5C594.4 1455 674.2 1498.6 675.1 1512.3C675.1 1512.9 677.4 1513.3 677.7 1513.7V1519.1C635.1 1533.5 549 1516.5 549 1516.5C549 1516.5 548.8 1519.9 547.9 1520C530.8 1521.7 501.9 1517.8 499.9 1516.2C499.5 1515.9 498.9 1511.2 499.1 1507.1C499.1 1506.7 500.2 1505.8 500.2 1505.8C499.3 1489.6 499.3 1458.4 499.2 1457.7C496.4 1443.7 586.8 1430.3 593.3 1454.5Z" fill="#2C2C2D"/>
<path d="M402.4 1477.9C430.9 1162.6 443.7 911.499 446.1 841.199L302.5 825.299C292.6 935.799 301.3 1220.8 284.5 1464.3C284.5 1464.3 298.1 1456.5 325.4 1458C351.4 1459.4 381.1 1475.5 395.8 1480C395.8 1480 401.7 1478.2 402.4 1478V1477.9Z" fill="#333844"/>
<path d="M493.9 1477.8C465.4 1162.5 451.8 911.499 449.5 841.199L593.1 825.299C603 935.799 594.2 1220.8 611 1464.3C611 1464.3 597.1 1458.3 570.2 1457.9C555 1457.7 514.3 1475.4 499.6 1479.9L494 1477.8H493.9Z" fill="#333844"/>
<path d="M303.8 794.099C299.6 874.199 298.4 911.799 298.4 911.799C298.4 911.799 381.9 918.699 472.4 917.899C531.2 917.399 581.4 921.799 585.3 897.899C588.8 876.299 592.1 850.399 594.1 795.599L588.9 791.499C574.2 792.999 524.2 797.399 445.7 796.399C359.4 795.299 321.1 789.699 310.2 788.799C308.6 788.699 303.8 792.399 303.7 794.099H303.8Z" fill="#333844"/>
<path d="M757.901 575.7C758.201 578.9 759.401 585.3 758.501 591.3C757.101 600 739.201 615.4 735.501 616.1C731.801 616.8 587.401 547.3 587.401 547.3L579.401 487.5H572.801L576.501 545.5L567.001 547.3L453.301 564.6L418.601 555.2L320.901 564.8L328.301 488H321.101L312.901 547.6L244.001 598.5C244.001 598.5 177.501 628.3 153.701 622.1C132.601 616.6 140.601 589.4 142.701 583.2C141.101 587.3 139.701 591 138.901 594.1C132.101 618.3 138.101 638.2 142.201 642.7C148.101 649.2 177.401 651.1 202.101 647.2C211.501 645.7 243.001 634.6 246.001 628.7L253.501 612.4C274.601 597.3 300.601 574.2 306.901 569.6C302.301 637.1 298.401 739.8 301.901 774.8C302.601 781.5 311.701 789.5 312.901 791.7C313.801 793.5 380.801 798.1 448.401 798.1C518.701 798.1 587.801 796.1 588.801 794.3C589.901 792.1 601.001 781.5 601.701 774.7C605.201 739.7 601.901 646.4 597.301 578.9C603.601 583.5 626.401 600.2 647.501 615.2L651.701 623.3C651.701 623.3 654.501 627.5 654.501 627.6C655.001 628 684.801 644.2 694.201 645.5C707.701 647.3 751.601 647.1 755.801 641.8C761.401 634.6 769.301 590.7 758.201 575.8L757.901 575.7ZM578.701 756.6C576.301 760.1 451.201 768.5 451.201 768.5C451.201 768.5 325.701 760 323.201 756.6C320.701 753.2 320.801 615.5 320.801 615.5L351.401 601.3C351.401 601.3 370.101 604.8 384.401 601.3C398.601 597.8 413.001 588.8 413.001 588.8L450.701 595.4L488.901 588.8C488.901 588.8 503.301 597.8 517.501 601.3C531.701 604.8 550.501 601.3 550.501 601.3L581.101 615.4C581.101 615.4 581.101 753.2 578.701 756.6Z" fill="url(#paint3_linear_2394_71807)"/>
<path d="M421 911L420 917.4C443.9 918.2 474.8 917.6 474.8 917.6V911.1C474.7 911.1 421 911.1 421 911.1V911Z" fill="#292D35"/>
<path d="M299 890.7C305.8 886.3 319.1 876.9 327.3 869.4C326.4 868.1 325.5 866.8 324.5 865.5C319.8 869 304.3 879.7 299.2 883.2C299.2 885.6 299 888.1 299 890.6V890.7Z" fill="#292D35"/>
<path d="M445.801 813.8C370.501 813.8 323.801 810.4 303.301 808.5C300.801 808.5 299.201 835.6 302.101 836.9C324.001 838.9 370.701 842.1 445.901 842.1C521.101 842.1 567.601 838.2 594.701 836.2C597.101 836.4 596.501 808.4 593.901 808.4C568.701 810.3 513.901 813.7 445.901 813.7L445.801 813.8Z" fill="#1C1D1E"/>
<path d="M379.2 851.9L362 851L365.3 803.6L382.4 804.5L379.2 851.9Z" fill="#333844"/>
<path d="M521.401 851.9L504.301 851L507.501 803.6L524.601 804.5L521.401 851.9Z" fill="#333844"/>
<path d="M567.2 865C566.1 867.5 566.5 866.7 565.5 869.3C573.7 876.4 588.7 885.3 596.5 890.2C596.5 886.8 596.3 885.9 596.3 882.9L567.2 865.1V865Z" fill="#292D35"/>
<path d="M589.4 917.699C589.4 917.699 597.4 1145.8 592.5 1150.7C587.7 1155.6 562.2 1175.9 555.5 1175.2C544.7 1174.1 493.5 1150.9 490.7 1143.4C488 1135.9 476.7 920.899 480.7 920.999C484.7 921.099 589.2 917.799 589.2 917.799L589.4 917.699Z" fill="url(#paint4_linear_2394_71807)"/>
<path d="M484.4 1368.2C484.2 1368.2 485.1 1387.5 485.1 1388.6C485.3 1393.8 484.2 1399.6 485 1404.6C485.8 1410 489.6 1414.6 489.2 1420.3C488.9 1423.8 486.9 1426.9 485.3 1430.1C483.7 1433.3 482.5 1437 483.8 1440.3C484.9 1443 487.7 1444.9 488.7 1447.7C490 1451.4 487.9 1454.9 487.7 1458.5C487.4 1462.5 488.6 1466.9 488.8 1471.1C488.9 1473.1 488.3 1486.1 490.4 1487.3C492.4 1488.4 497.4 1490.9 499.6 1490.4C516.7 1486.8 543.1 1465 564.7 1460C589.3 1454.2 610.8 1464.5 610.8 1464.5C608.6 1463.9 611.2 1448.8 611.8 1447.3C612.8 1445 614.2 1442.8 614.5 1440.4C615.2 1433.6 606.6 1428 608.1 1421.3C608.9 1417.9 612.2 1415.2 612.2 1411.7C612.2 1408.8 610.1 1406.4 608.6 1403.9C605.9 1399 607 1393.9 606.7 1388.6C606.4 1383.2 606.1 1377.9 605.8 1372.5C605.8 1371.7 604.9 1357.4 605 1357.4L484.2 1368.2H484.4Z" fill="#333844"/>
<path d="M411.6 1367.3C411.8 1367.3 410.6 1388.4 410.6 1389.5C410.4 1394.7 410.6 1399.6 410 1404.6C409.2 1410 407.2 1413.3 407.7 1419C408 1422.5 408.1 1426.9 409.7 1430.1C411.3 1433.3 412.5 1437 411.2 1440.3C410.1 1443 407.3 1444.9 406.3 1447.7C405 1451.4 407.1 1454.9 407.3 1458.5C407.6 1462.5 406.4 1466.9 406.2 1471.1C406.1 1473.1 406.7 1486.1 404.6 1487.3C402.6 1488.4 398.2 1489.9 395.9 1489.9C365 1489.9 350.6 1466.7 330.8 1461.6C306.3 1455.3 284.1 1464.5 284.1 1464.5C286.3 1463.9 283.7 1448.8 283.1 1447.3C282.1 1445 280.7 1442.8 280.4 1440.4C279.7 1433.6 288.3 1428 286.8 1421.3C286 1417.9 282.7 1415.2 282.7 1411.7C282.7 1408.8 284.8 1406.4 286.3 1403.9C289 1399 287.9 1393.9 288.2 1388.6C288.5 1383.2 288.8 1377.9 289.1 1372.5C289.1 1371.7 290.6 1356.2 290.5 1356.2L411.8 1367.3H411.6Z" fill="#333844"/>
<path d="M345.201 1509.6C322.401 1512.4 296.501 1515.6 274.801 1515.9C241.901 1516.5 225.801 1513.3 220.301 1511.9C220.301 1512 220.301 1512.1 220.301 1512.2C220.301 1512.8 218.001 1513.2 217.701 1513.6V1513.8C220.501 1514.7 234.101 1518.5 267.201 1518.5C300.301 1518.5 272.301 1518.5 275.001 1518.5C296.801 1518.1 322.701 1514.9 345.601 1512.1C367.701 1509.4 386.901 1507 396.401 1507.9C396.401 1507.6 396.401 1507.3 396.401 1507C396.401 1506.6 395.301 1505.7 395.301 1505.7C395.301 1505.6 395.301 1505.4 395.301 1505.3C385.201 1504.7 366.601 1507 345.401 1509.6H345.201Z" fill="#3D3D3D"/>
<path d="M550.2 1509.6C573 1512.4 598.9 1515.6 620.5 1515.9C653.4 1516.5 669.5 1513.3 675.1 1511.9C675.1 1512 675.1 1512.1 675.1 1512.2C675.1 1512.8 677.4 1513.2 677.7 1513.6C674.9 1514.7 661.2 1518.5 628.2 1518.5C595.2 1518.5 623.1 1518.5 620.4 1518.5C598.6 1518.1 572.7 1514.9 549.8 1512.1C527.7 1509.4 508.5 1507 499.1 1507.9C499.1 1507.6 499.1 1507.3 499.1 1507C499.1 1506.6 500.2 1505.7 500.2 1505.7C500.2 1505.6 500.2 1505.4 500.2 1505.3C510.3 1504.7 528.8 1507 550.1 1509.6H550.2Z" fill="#3D3D3D"/>
<path d="M317.7 1497.6C289.4 1480.8 263.9 1482.5 245.7 1488.5C236.7 1494.6 228.9 1500.6 224.4 1505.5C230.7 1507 242 1508.6 262.1 1509.1C302 1510.1 324.6 1501.8 317.7 1497.7V1497.6Z" fill="url(#paint5_linear_2394_71807)"/>
<path d="M671 1505.5C666.4 1500.6 658.3 1494.4 649.1 1488.1C631 1482.4 605.9 1481.1 578.1 1497.6C571.2 1501.7 593.9 1510 633.7 1509C653.3 1508.5 664.6 1506.9 670.9 1505.5H671Z" fill="url(#paint6_linear_2394_71807)"/>
<path d="M307.501 917.699C307.501 917.699 297.701 1147.7 302.601 1152.6C307.401 1157.5 334.001 1178.2 340.701 1177.6C351.501 1176.5 403.701 1146.6 406.401 1139.1C409.101 1131.6 420.101 920.799 416.001 920.999C412.001 921.099 307.501 917.799 307.501 917.799V917.699Z" fill="url(#paint7_linear_2394_71807)"/>
<path d="M520.6 398.399C515.9 408.499 499.4 435.999 493.2 439.499C487.3 442.799 464.4 424.499 455.1 416.799C452.3 417.799 450.7 418.499 450.7 418.499C449.3 417.999 447.9 417.399 446.5 416.899C436.9 423.199 415.5 436.499 407.3 435.999C398.1 435.399 386.4 406.899 382.5 398.399C380.9 398.499 378.7 398.699 377.1 398.799C381.1 408.699 394.1 442.299 401.2 446.899C409.6 452.399 450.3 422.299 450.3 422.299C450.3 422.299 484.4 452.599 494.4 451.299C503 450.199 522.8 410.399 527 398.699C525.4 398.399 522 398.499 520.6 398.299V398.399Z" fill="url(#paint8_linear_2394_71807)"/>
<path d="M453 798V419.1H447.8C447.8 419.1 450.9 729 446.9 797.9H453V798Z" fill="url(#paint9_linear_2394_71807)"/>
<path d="M470.201 813.701C470.201 813.701 418.201 813.201 418.201 814.201C418.201 814.201 417.701 841.201 418.201 841.601C418.701 842.001 470.501 842.001 470.501 842.001C470.501 842.001 470.501 846.401 469.601 847.001C466.401 848.901 412.801 848.401 411.301 847.001C409.801 845.601 410.801 810.501 411.901 808.501C413.001 806.501 467.901 807.201 469.001 808.001C470.001 808.801 470.101 813.701 470.101 813.701H470.201Z" fill="url(#paint10_linear_2394_71807)"/>
<path d="M413.3 823.5C413.3 823.5 412.6 829.7 413.1 830.1C413.5 830.5 426.1 830.1 426.4 829.9C426.7 829.7 426.9 824.6 426.5 823.7C426.3 823.1 413.8 823 413.3 823.5Z" fill="url(#paint11_linear_2394_71807)"/>
<path d="M237.1 557.099L246.5 551.699C246.5 551.699 218.2 526.499 173 536.599C170.3 537.199 167.9 537.899 165.6 538.599C158 544.399 151.1 558.799 146 572.199C146.5 572.999 142.6 582.999 142.6 582.999C142.6 582.999 158.1 587.599 178.2 582.499C198.3 577.399 237 556.999 237 556.999L237.1 557.099Z" fill="url(#paint12_linear_2394_71807)"/>
<path d="M756.4 574.999C756.1 574.199 755.8 573.399 755.5 572.599C747.7 562.499 747.1 555.999 737.7 544.299C736.4 542.699 721.9 538.299 720.3 536.699C677.2 528.599 655 556.699 655 556.699L664.4 562.099C664.4 562.099 708.1 581.699 728.2 586.799C748.3 591.899 754.5 575.499 754.5 575.499C754.5 575.499 756 575.899 756.4 575.099V574.999Z" fill="url(#paint13_linear_2394_71807)"/>
<path d="M323.7 520.1C323.7 520.1 365.2 475.5 367 474.6C368.8 473.7 404.9 446.1 410.3 446.1C415.7 446.1 439.5 458.4 440.8 460C442 461.6 445.9 475 445.9 475C445.9 475 452.4 480.5 449.8 483.9C447.2 487.3 440.1 488.5 428.7 482.7C428.7 482.7 415.2 481.5 409.8 486.1C404.4 490.7 393.3 503.6 397.3 520.9C402.2 541.7 446.4 549.9 449.3 559.8C452.2 569.7 448.3 573.5 443 570.9C437.8 568.3 415.9 560.7 402.7 563.4C389.5 566.1 372.4 577.1 348.7 570.8L308.6 530.7L323.7 520.2V520.1Z" fill="#FF9E78"/>
<path d="M419.8 541.799C409.2 536.399 399.4 529.799 397.3 520.699C393.3 503.499 404.4 490.499 409.8 485.899C415.2 481.299 428.7 482.499 428.7 482.499C437.7 487.099 448.5 488.099 450.7 487.999C450.7 487.999 450.6 485.499 450.7 484.399C451 481.499 449.2 478.099 447.4 476.199C449.9 480.299 448.9 484.599 443.9 484.999C438.9 485.399 427 479.999 427 479.999C427 479.999 427.1 476.999 427 476.699C426.9 476.499 425.1 476.199 425.1 476.199C425.1 476.199 424.7 478.999 424.1 479.399C423.4 479.799 411 479.599 410.6 479.499C410.2 479.499 410.2 476.299 410.2 476.299C410.2 476.299 408.6 475.999 407.9 476.299C407.3 476.599 407.9 479.599 407.9 479.599C407.9 479.599 399.2 483.499 397.1 484.399C395 485.299 381.9 499.999 379.9 502.599C377.9 505.199 351.4 545.799 351.4 545.799C351.4 545.799 352.8 546.999 353.2 546.999C353.6 546.999 374.9 531.899 386 531.899C397.1 531.899 419.9 541.499 419.9 541.499L419.8 541.799Z" fill="url(#paint14_linear_2394_71807)"/>
<path d="M407.4 463.6C405.9 463.6 369.3 477.1 368.6 477.3C367.9 477.5 358 485.8 358 485.8C358 485.8 359.6 487.6 359.9 487.6C360.2 487.6 368.9 480.9 369.9 480.1C370.9 479.3 406.9 466 407.8 466C408.7 466 427.1 467.9 428.2 467.9C429.3 467.9 447.5 476.4 447.5 476.5C446.7 475.6 446 475.1 446 475.1C446 475.1 445.5 473.3 444.8 470.9C443 467.7 440.4 463 439.9 462.6C439.1 461.9 422.6 453.5 421.4 453.2C420.5 452.9 407.7 450.4 403.2 449.5C402.3 450 401.3 450.6 400.3 451.3C403.2 452.3 420.4 455.3 420.8 455.4C421.2 455.4 437.3 463.7 437.6 463.7C437.9 463.7 440.5 468.7 442.2 472C437.3 469.8 430.3 466.5 429.1 466.1C427.3 465.4 408.8 463.8 407.4 463.8V463.6Z" fill="url(#paint15_linear_2394_71807)"/>
<path d="M326.7 516.899C326.7 516.899 262.4 548.199 242.4 548.299C222.4 548.499 183.6 543.999 165.3 557.199C147 570.399 141.2 632.199 148.2 636.999C155.2 641.799 214 640.899 236.8 626.599C259.6 612.399 338.3 570.499 350 571.199C361.6 571.899 326.7 516.799 326.7 516.799V516.899Z" fill="#FF9E78"/>
<path d="M152.9 604.799C155.7 610.499 217.1 606.599 244 598.299C270.9 589.999 352.8 542.399 353.5 540.899C354.2 539.399 390.7 486.999 391.4 486.299C392.1 485.599 406.5 479.099 406.5 479.099C406.5 479.099 407.5 474.999 408.1 474.699C408.7 474.399 411.1 474.699 411.1 474.699C411.1 474.699 411.5 478.499 411.9 478.499C412.2 478.499 423.6 478.799 423.9 478.499C424.2 478.199 425.1 474.899 425.6 474.899C426.1 474.899 427.6 475.099 428 475.599C428.6 476.399 427.8 478.799 428.2 479.099C428.6 479.399 442.8 485.499 445.5 484.199C448.2 482.899 448.4 477.999 447.6 476.699C446.8 475.399 431.1 468.599 428.3 467.699C425.5 466.799 409.7 465.199 407.9 465.799C406.2 466.399 372.4 478.099 370 479.899C367.6 481.699 332 518.199 332 518.199C332 518.199 266.7 547.999 248.9 550.399C231.1 552.799 194.9 549.899 179 554.299C158 560.199 150.2 598.899 153 604.599L152.9 604.799Z" fill="url(#paint16_linear_2394_71807)"/>
<path d="M366.201 475.2C366.201 475.2 406.301 464 407.401 463.6C408.501 463.2 428.001 465.4 429.101 465.9C430.301 466.4 442.201 471.8 442.201 471.8C442.201 471.8 438.501 463.9 437.601 463.5C436.701 463.1 422.401 455.8 421.301 455.5C420.201 455.2 401.901 451.2 399.401 451.1C396.901 451.1 366.201 475.1 366.201 475.1V475.2Z" fill="url(#paint17_linear_2394_71807)"/>
<path d="M403.1 449.4L421.3 453.1L439.8 462.5L444.7 470.8C444.7 470.8 441.8 459.8 441 459.2C440.2 458.6 413.4 445.4 410.6 445.6C409 445.8 403.1 449.4 403.1 449.4Z" fill="url(#paint18_linear_2394_71807)"/>
<path d="M352.301 550.199C352.301 550.199 376.301 531.299 387.501 532.199C398.601 533.099 415.201 541.999 415.201 541.999C415.201 541.999 446.801 552.399 449.501 560.299C450.301 562.699 450.601 565.799 450.101 567.299C449.201 569.999 446.601 570.399 444.901 569.799C442.301 568.899 415.401 557.999 404.201 558.899C393.001 559.799 386.801 567.499 370.301 569.299C353.801 571.099 341.701 568.699 341.301 565.399C340.901 562.099 352.301 550.099 352.301 550.099V550.199Z" fill="url(#paint19_linear_2394_71807)"/>
<path d="M451.3 564.3C451.3 565.5 450.9 567.099 449.1 567.599C446.3 568.399 432.6 561.7 413.9 559.9C395.2 558.2 392.6 564.1 376.9 568.2C361.2 572.3 341.3 564.4 341.3 564.4C341.3 564.4 169.2 630.1 157 624.3C144.8 618.6 148.4 593.8 148.4 593.8C144.3 613.7 144.2 634.3 148.2 637C155.2 641.8 214 640.9 236.8 626.6C259.6 612.4 338.3 570.5 350 571.2C350.4 571.2 350.7 571.199 351 571.099C373.5 576.199 390 565.7 402.8 563.2C416 560.6 437.9 568.1 443.1 570.7C447.4 572.8 451.5 570.5 451.3 564.2V564.3Z" fill="url(#paint20_linear_2394_71807)"/>
<path d="M576.101 520.1C576.101 520.1 534.601 475.5 532.801 474.6C531.001 473.7 494.901 446.1 489.501 446.1C484.101 446.1 460.301 458.4 459.001 460C457.801 461.6 453.901 475 453.901 475C453.901 475 447.401 480.5 450.001 483.9C452.601 487.3 459.701 488.5 471.101 482.7C471.101 482.7 484.601 481.5 490.001 486.1C495.401 490.7 506.501 503.6 502.501 520.9C497.601 541.7 453.601 549.7 450.701 559.5C447.801 569.4 451.501 573.5 456.801 570.9C462.001 568.3 483.901 560.7 497.101 563.4C510.301 566 527.401 577.1 551.101 570.8L591.201 530.7L576.101 520.2V520.1Z" fill="#FF9E78"/>
<path d="M519.9 502.9C517.9 500.3 504.8 485.6 502.7 484.7C500.6 483.8 491.9 479.9 491.9 479.9C491.9 479.9 492.5 476.9 491.9 476.6C491.3 476.3 489.6 476.6 489.6 476.6C489.6 476.6 489.6 479.7 489.2 479.8C488.8 479.8 476.4 480.1 475.7 479.7C475 479.3 474.7 476.5 474.7 476.5C474.7 476.5 473 476.7 472.8 477C472.6 477.3 472.8 480.3 472.8 480.3C472.8 480.3 460.9 485.7 455.9 485.3C450.9 484.9 449.8 480.6 452.4 476.5C450.7 478.4 448.3 481.2 450.2 485.4C450.4 485.8 450.2 488.4 450.7 488.2C452.4 487.8 461.1 487.7 471.1 482.7C471.1 482.7 484.6 481.5 490 486.1C495.4 490.7 506.5 503.6 502.5 520.9C499.9 531.8 486.3 539.2 473.4 545.2C473.4 545.2 501.8 532.4 513.8 532.4C525.8 532.4 546.3 547.5 546.6 547.5C546.9 547.5 548.4 546.3 548.4 546.3C548.4 546.3 521.9 505.7 519.9 503.1V502.9Z" fill="url(#paint21_linear_2394_71807)"/>
<path d="M492.399 463.6C493.899 463.6 530.499 477.1 531.199 477.3C531.899 477.5 541.799 485.8 541.799 485.8C541.799 485.8 540.199 487.6 539.899 487.6C539.599 487.6 530.899 480.9 529.899 480.1C528.899 479.3 492.899 466 491.999 466C491.099 466 472.699 467.9 471.599 467.9C470.499 467.9 452.299 476.4 452.299 476.5C453.099 475.6 453.799 475.1 453.799 475.1C453.799 475.1 454.299 473.3 454.999 470.9C456.799 467.7 459.399 463 459.899 462.6C460.699 461.9 477.199 453.5 478.399 453.2C479.299 452.9 492.099 450.4 496.599 449.5C497.499 450 498.499 450.6 499.499 451.3C496.599 452.3 479.399 455.3 478.999 455.4C478.599 455.4 462.499 463.7 462.199 463.7C461.899 463.7 459.299 468.7 457.599 472C462.499 469.8 469.499 466.5 470.699 466.1C472.499 465.4 490.999 463.8 492.399 463.8V463.6Z" fill="url(#paint22_linear_2394_71807)"/>
<path d="M573.101 516.899C573.101 516.899 637.401 548.199 657.401 548.299C677.401 548.499 716.201 543.999 734.501 557.199C752.801 570.399 758.601 632.199 751.601 636.999C744.601 641.799 685.801 640.899 663.001 626.599C640.201 612.299 561.501 570.499 549.801 571.199C538.201 571.899 573.101 516.799 573.101 516.799V516.899Z" fill="#FF9E78"/>
<path d="M746.901 604.799C744.101 610.499 682.701 606.599 655.801 598.299C628.901 589.999 547.001 542.399 546.301 540.899C545.601 539.399 509.101 486.999 508.401 486.299C507.701 485.599 493.301 479.099 493.301 479.099C493.301 479.099 492.301 474.999 491.701 474.699C491.101 474.399 488.701 474.699 488.701 474.699C488.701 474.699 488.301 478.499 487.901 478.499C487.601 478.499 476.201 478.799 475.901 478.499C475.601 478.199 474.701 474.899 474.201 474.899C473.701 474.899 472.201 475.099 471.801 475.599C471.201 476.399 472.001 478.799 471.601 479.099C471.201 479.399 457.001 485.499 454.301 484.199C451.601 482.899 451.401 477.999 452.201 476.699C453.001 475.399 468.701 468.599 471.501 467.699C474.301 466.799 490.101 465.199 491.901 465.799C493.601 466.399 527.401 478.099 529.801 479.899C532.201 481.699 567.801 518.199 567.801 518.199C567.801 518.199 633.101 547.999 650.901 550.399C668.701 552.799 704.901 549.899 720.801 554.299C741.801 560.199 749.601 598.899 746.801 604.599L746.901 604.799Z" fill="url(#paint23_linear_2394_71807)"/>
<path d="M533.6 475.2C533.6 475.2 493.5 464 492.4 463.6C491.3 463.2 471.8 465.4 470.7 465.9C469.6 466.4 457.6 471.8 457.6 471.8C457.6 471.8 461.3 463.9 462.2 463.5C463.1 463.1 477.4 455.8 478.5 455.5C479.6 455.2 497.9 451.2 500.4 451.1C502.9 451.1 533.6 475.1 533.6 475.1V475.2Z" fill="url(#paint24_linear_2394_71807)"/>
<path d="M496.7 449.4L478.5 453.1L460 462.5L455.1 470.8C455.1 470.8 458 459.8 458.8 459.2C459.6 458.6 486.4 445.4 489.2 445.6C490.8 445.8 496.7 449.4 496.7 449.4Z" fill="url(#paint25_linear_2394_71807)"/>
<path d="M547.5 550.199C547.5 550.199 523.5 531.299 512.3 532.199C501.2 533.099 484.6 541.999 484.6 541.999C484.6 541.999 453.3 552.699 451.4 560.899C449.5 569.099 452.3 570.699 454.9 569.799C457.5 568.899 484.4 557.999 495.6 558.899C506.8 559.799 513 567.499 529.5 569.299C546 571.099 558.1 568.699 558.5 565.399C558.9 562.099 547.5 550.099 547.5 550.099V550.199Z" fill="url(#paint26_linear_2394_71807)"/>
<path d="M751.4 593.899C751.4 593.899 755 618.699 742.8 624.399C730.6 630.099 558.5 564.499 558.5 564.499C558.5 564.499 538.7 572.399 522.9 568.299C507.2 564.199 504.5 558.299 485.9 559.999C467.6 561.699 454 568.199 450.9 567.699C450.7 568.299 450.4 568.799 450.2 569.299C450.2 569.299 450 569.599 450 569.699C451.5 571.999 454.1 572.299 456.9 570.899C462.1 568.299 484 560.699 497.2 563.399C510 565.899 526.4 576.399 549 571.299C549.3 571.299 549.6 571.399 550 571.399C561.6 570.699 640.3 612.499 663.2 626.799C686 640.999 744.9 641.999 751.8 637.199C755.7 634.499 755.6 613.899 751.6 593.999L751.4 593.899Z" fill="url(#paint27_linear_2394_71807)"/>
<path d="M355 254.9C344.8 257.8 339.8 272.3 343.8 287.3C347.7 302.2 359.2 312 369.3 309C379.5 306.1 384.5 291.6 380.5 276.6C376.6 261.7 365.1 251.9 355 254.9Z" fill="url(#paint28_linear_2394_71807)"/>
<path d="M525.2 171.099C520.8 136.099 423.2 116.099 392.6 162.899C382.6 184.699 370.7 225.799 364.2 266.699C364.2 266.299 364.2 265.999 364.2 265.999C364.2 265.999 332.7 372.099 429.8 380.999C523.3 389.599 540.2 343.999 538.3 279.999C539.7 244.099 531.5 198.199 525.2 171.199V171.099Z" fill="url(#paint29_linear_2394_71807)"/>
<g opacity="0.6">
<path d="M516.748 317.15C529.488 300.961 527.501 278.147 512.31 266.193C497.12 254.239 474.478 257.673 461.739 273.861C448.999 290.05 450.986 312.864 466.177 324.818C481.367 336.772 504.009 333.339 516.748 317.15Z" fill="#FF9E78"/>
<path d="M516.59 317.027C529.227 300.968 527.227 278.315 512.124 266.43C497.02 254.544 474.532 257.927 461.895 273.986C449.258 290.044 451.258 312.698 466.361 324.583C481.465 336.469 503.954 333.086 516.59 317.027Z" fill="#FF9D77"/>
<path d="M516.434 316.902C529.002 300.93 527.017 278.402 512 266.585C496.983 254.768 474.621 258.136 462.052 274.108C449.484 290.08 451.469 312.607 466.486 324.424C481.503 336.241 503.865 332.873 516.434 316.902Z" fill="#FF9C77"/>
<path d="M516.278 316.779C528.744 300.937 526.746 278.571 511.816 266.822C496.886 255.073 474.677 258.391 462.211 274.232C449.744 290.074 451.742 312.44 466.672 324.189C481.602 335.938 503.811 332.62 516.278 316.779Z" fill="#FF9B76"/>
<path d="M516.042 316.594C528.44 300.839 526.492 278.626 511.692 266.98C496.892 255.333 474.844 258.664 462.446 274.419C450.048 290.174 451.996 312.387 466.796 324.033C481.596 335.679 503.644 332.349 516.042 316.594Z" fill="#FF9A76"/>
<path d="M515.885 316.469C528.214 300.801 526.282 278.713 511.569 267.135C496.856 255.557 474.933 258.873 462.604 274.541C450.274 290.209 452.207 312.296 466.92 323.874C481.633 335.452 503.555 332.137 515.885 316.469Z" fill="#FF9975"/>
<path d="M515.727 316.346C527.954 300.808 526.009 278.882 511.382 267.372C496.756 255.862 474.987 259.127 462.76 274.665C450.533 290.203 452.478 312.129 467.104 323.639C481.731 335.149 503.5 331.884 515.727 316.346Z" fill="#FF9875"/>
<path d="M515.57 316.223C527.729 300.772 525.799 278.971 511.259 267.529C496.72 256.088 475.076 259.338 462.918 274.789C450.759 290.24 452.689 312.041 467.229 323.482C481.768 334.924 503.411 331.673 515.57 316.223Z" fill="#FF9774"/>
<path d="M515.335 316.036C527.391 300.716 525.484 279.104 511.074 267.765C496.665 256.425 475.21 259.653 463.154 274.974C451.098 290.295 453.005 311.907 467.415 323.246C481.824 334.585 503.279 331.357 515.335 316.036Z" fill="#FF9674"/>
<path d="M515.176 315.913C527.164 300.679 525.272 279.193 510.949 267.922C496.627 256.651 475.298 259.864 463.31 275.098C451.322 290.332 453.214 311.818 467.537 323.089C481.859 334.36 503.188 331.147 515.176 315.913Z" fill="#FF9573"/>
<path d="M515.019 315.79C526.939 300.642 525.062 279.282 510.826 268.079C496.59 256.877 475.387 260.075 463.467 275.222C451.548 290.369 453.425 311.73 467.661 322.932C481.897 334.135 503.1 330.937 515.019 315.79Z" fill="#FF9472"/>
<path d="M514.863 315.665C526.68 300.648 524.79 279.448 510.641 268.314C496.492 257.18 475.443 260.328 463.625 275.345C451.808 290.362 453.698 311.561 467.847 322.695C481.996 333.829 503.046 330.682 514.863 315.665Z" fill="#FF9372"/>
<path d="M514.627 315.48C526.376 300.55 524.536 279.504 510.518 268.472C496.499 257.44 475.61 260.601 463.861 275.531C452.112 290.461 453.952 311.507 467.971 322.539C481.99 333.571 502.879 330.41 514.627 315.48Z" fill="#FF9271"/>
<path d="M514.469 315.357C526.116 300.557 524.263 279.672 510.331 268.709C496.399 257.745 475.664 260.855 464.017 275.655C452.371 290.455 454.224 311.341 468.156 322.304C482.088 333.267 502.823 330.157 514.469 315.357Z" fill="#FF9171"/>
<path d="M514.313 315.232C525.891 300.519 524.053 279.759 510.208 268.864C496.363 257.969 475.753 261.064 464.175 275.777C452.597 290.491 454.435 311.25 468.28 322.145C482.125 333.04 502.735 329.945 514.313 315.232Z" fill="#FF9070"/>
<path d="M514.156 315.108C525.666 300.482 523.843 279.848 510.085 269.022C496.326 258.195 475.842 261.275 464.333 275.901C452.823 290.528 454.646 311.162 468.404 321.988C482.162 332.815 502.646 329.735 514.156 315.108Z" fill="#FF8F70"/>
<path d="M513.919 314.924C525.326 300.428 523.526 279.983 509.898 269.259C496.27 258.534 475.974 261.592 464.567 276.088C453.16 290.584 454.96 311.03 468.588 321.754C482.216 332.478 502.511 329.421 513.919 314.924Z" fill="#FF8E6F"/>
<path d="M513.762 314.799C525.101 300.39 523.316 280.07 509.774 269.414C496.233 258.758 476.064 261.801 464.725 276.21C453.385 290.62 455.171 310.939 468.712 321.595C482.253 332.251 502.423 329.208 513.762 314.799Z" fill="#FF8D6F"/>
<path d="M513.605 314.676C524.876 300.353 523.106 280.159 509.651 269.572C496.197 258.984 476.153 262.012 464.882 276.334C453.611 290.657 455.382 310.851 468.836 321.438C482.291 332.026 502.334 328.998 513.605 314.676Z" fill="#FF8C6E"/>
<path d="M513.447 314.553C524.615 300.36 522.832 280.328 509.465 269.808C496.097 259.289 476.207 262.266 465.038 276.459C453.87 290.651 455.653 310.684 469.021 321.203C482.389 331.723 502.279 328.745 513.447 314.553Z" fill="#FF8B6E"/>
<path d="M513.211 314.366C524.311 300.261 522.578 280.381 509.341 269.964C496.103 259.547 476.374 262.538 465.274 276.643C454.174 290.749 455.907 310.628 469.144 321.045C482.382 331.462 502.111 328.472 513.211 314.366Z" fill="#FF8A6D"/>
<path d="M513.055 314.243C524.053 300.268 522.307 280.549 509.156 270.201C496.006 259.852 476.43 262.792 465.432 276.768C454.435 290.743 456.18 310.461 469.331 320.81C482.482 331.159 502.058 328.219 513.055 314.243Z" fill="#FF896C"/>
<path d="M512.898 314.12C523.828 300.231 522.097 280.639 509.033 270.358C495.969 260.078 476.519 263.003 465.59 276.892C454.661 290.78 456.391 310.373 469.455 320.653C482.519 330.933 501.969 328.008 512.898 314.12Z" fill="#FF886C"/>
<path d="M512.74 313.996C523.601 300.195 521.885 280.728 508.908 270.516C495.931 260.304 476.606 263.214 465.745 277.016C454.885 290.817 456.6 310.284 469.577 320.496C482.554 330.708 501.879 327.798 512.74 313.996Z" fill="#FF876B"/>
<path d="M512.505 313.81C523.263 300.139 521.57 280.86 508.723 270.751C495.876 260.641 476.74 263.529 465.982 277.201C455.223 290.872 456.916 310.15 469.763 320.26C482.61 330.369 501.746 327.482 512.505 313.81Z" fill="#FF866B"/>
<path d="M512.348 313.687C523.038 300.102 521.36 280.95 508.6 270.908C495.84 260.867 476.83 263.74 466.139 277.325C455.449 290.909 457.127 310.062 469.887 320.103C482.647 330.144 501.658 327.272 512.348 313.687Z" fill="#FF856A"/>
<path d="M512.19 313.564C522.777 300.11 521.087 281.118 508.413 271.145C495.74 261.172 476.883 263.994 466.296 277.449C455.708 290.904 457.399 309.895 470.072 319.868C482.745 329.841 501.602 327.019 512.19 313.564Z" fill="#FF846A"/>
<path d="M512.033 313.439C522.552 300.071 520.877 281.205 508.29 271.3C495.704 261.396 476.973 264.203 466.453 277.571C455.934 290.939 457.61 309.805 470.196 319.709C482.783 329.614 501.514 326.806 512.033 313.439Z" fill="#FF8369"/>
<path d="M511.797 313.254C522.248 299.973 520.623 281.261 508.166 271.459C495.71 261.656 477.14 264.477 466.689 277.757C456.238 291.038 457.863 309.751 470.32 319.553C482.776 329.355 501.346 326.535 511.797 313.254Z" fill="#FF8269"/>
<path d="M511.641 313.129C521.99 299.979 520.351 281.427 507.982 271.693C495.612 261.959 477.196 264.729 466.847 277.88C456.499 291.031 458.137 309.582 470.506 319.316C482.876 329.05 501.292 326.28 511.641 313.129Z" fill="#FF8168"/>
<path d="M511.484 313.006C521.764 299.942 520.141 281.516 507.859 271.851C495.576 262.185 477.285 264.94 467.005 278.004C456.724 291.068 458.348 309.494 470.63 319.159C482.913 328.825 501.204 326.07 511.484 313.006Z" fill="#FF8067"/>
<path d="M511.326 312.883C521.504 299.949 519.868 281.684 507.672 272.087C495.476 262.49 477.339 265.195 467.161 278.128C456.983 291.062 458.619 309.327 470.815 318.924C483.011 328.521 501.148 325.817 511.326 312.883Z" fill="#FF7F67"/>
<path d="M511.09 312.696C521.2 299.849 519.614 281.738 507.548 272.243C495.483 262.748 477.506 265.466 467.397 278.313C457.287 291.16 458.873 309.271 470.939 318.766C483.004 328.261 500.981 325.543 511.09 312.696Z" fill="#FF7E66"/>
<path d="M510.934 312.573C520.975 299.813 519.404 281.827 507.425 272.401C495.446 262.974 477.595 265.677 467.554 278.437C457.513 291.197 459.084 309.183 471.063 318.609C483.042 328.036 500.892 325.333 510.934 312.573Z" fill="#FF7D66"/>
<path d="M510.775 312.45C520.714 299.82 519.131 281.995 507.239 272.637C495.347 263.279 477.649 265.931 467.711 278.561C457.772 291.191 459.355 309.016 471.247 318.374C483.139 327.732 500.837 325.08 510.775 312.45Z" fill="#FF7C65"/>
<path d="M510.619 312.327C520.489 299.784 518.921 282.084 507.115 272.795C495.31 263.505 477.739 266.142 467.868 278.685C457.998 291.228 459.566 308.927 471.371 318.217C483.177 327.507 500.748 324.87 510.619 312.327Z" fill="#FF7B65"/>
<path d="M510.383 312.14C520.185 299.684 518.667 282.138 506.992 272.951C495.317 263.763 477.906 266.413 468.104 278.87C458.302 291.326 459.82 308.872 471.495 318.059C483.17 327.246 500.581 324.596 510.383 312.14Z" fill="#FF7A64"/>
<path d="M510.227 312.017C519.926 299.691 518.395 282.306 506.807 273.187C495.219 264.068 477.962 266.668 468.262 278.994C458.562 291.32 460.093 308.705 471.682 317.824C483.27 326.943 500.527 324.343 510.227 312.017Z" fill="#FF7964"/>
<path d="M510.068 311.894C519.699 299.655 518.183 282.396 506.682 273.345C495.181 264.294 478.049 266.879 468.418 279.118C458.786 291.357 460.302 308.616 471.804 317.667C483.305 326.718 500.437 324.133 510.068 311.894Z" fill="#FF7863"/>
<path d="M509.912 311.769C519.441 299.66 517.912 282.562 506.497 273.579C495.083 264.597 478.105 267.132 468.576 279.241C459.047 291.35 460.576 308.448 471.99 317.43C483.405 326.413 500.383 323.878 509.912 311.769Z" fill="#FF7762"/>
<path d="M509.676 311.584C519.137 299.562 517.658 282.617 506.374 273.737C495.089 264.857 478.272 267.405 468.812 279.427C459.351 291.449 460.829 308.394 472.114 317.274C483.398 326.154 500.216 323.607 509.676 311.584Z" fill="#FF7762"/>
<path d="M509.519 311.461C518.912 299.525 517.448 282.707 506.25 273.895C495.053 265.083 478.361 267.616 468.969 279.551C459.577 291.487 461.04 308.305 472.238 317.117C483.436 325.929 500.127 323.396 509.519 311.461Z" fill="#FF7661"/>
<path d="M509.361 311.336C518.651 299.531 517.175 282.873 506.064 274.129C494.953 265.386 478.415 267.868 469.125 279.674C459.836 291.479 461.312 308.137 472.423 316.88C483.533 325.623 500.071 323.141 509.361 311.336Z" fill="#FF7561"/>
<path d="M509.205 311.213C518.426 299.494 516.965 282.962 505.941 274.287C494.917 265.612 478.504 268.079 469.283 279.797C460.061 291.516 461.523 308.048 472.547 316.723C483.571 325.398 499.983 322.931 509.205 311.213Z" fill="#FF7460"/>
<path d="M508.969 311.029C518.088 299.44 516.65 283.097 505.756 274.524C494.862 265.951 478.638 268.396 469.519 279.984C460.4 291.573 461.839 307.916 472.733 316.489C483.627 325.061 499.85 322.617 508.969 311.029Z" fill="#FF7360"/>
<path d="M508.811 310.903C517.861 299.402 516.438 283.184 505.631 274.68C494.824 266.175 478.726 268.605 469.675 280.106C460.624 291.608 462.048 307.826 472.855 316.33C483.662 324.834 499.76 322.405 508.811 310.903Z" fill="#FF725F"/>
<path d="M508.654 310.78C517.636 299.365 516.227 283.273 505.507 274.837C494.787 266.401 478.815 268.816 469.832 280.23C460.85 291.645 462.259 307.737 472.979 316.173C483.699 324.609 499.671 322.194 508.654 310.78Z" fill="#FF715F"/>
<path d="M508.498 310.657C517.378 299.372 515.956 283.441 505.323 275.074C494.689 266.706 478.871 269.07 469.991 280.355C461.111 291.639 462.532 307.57 473.166 315.938C483.799 324.306 499.618 321.941 508.498 310.657Z" fill="#FF705E"/>
<path d="M508.262 310.47C517.074 299.273 515.702 283.495 505.199 275.23C494.696 266.965 479.038 269.342 470.226 280.539C461.415 291.737 462.786 307.515 473.289 315.78C483.792 324.045 499.45 321.668 508.262 310.47Z" fill="#FF6F5E"/>
<path d="M508.103 310.347C516.847 299.236 515.49 283.584 505.074 275.387C494.657 267.19 479.125 269.553 470.382 280.663C461.639 291.774 462.995 307.426 473.411 315.623C483.828 323.82 499.36 321.458 508.103 310.347Z" fill="#FF6E5D"/>
<path d="M507.947 310.224C516.588 299.243 515.219 283.752 504.889 275.624C494.56 267.495 479.181 269.807 470.54 280.788C461.899 291.768 463.268 307.259 473.598 315.388C483.928 323.517 499.306 321.205 507.947 310.224Z" fill="#FF6D5C"/>
<path d="M507.79 310.101C516.363 299.207 515.009 283.841 504.766 275.781C494.523 267.721 479.27 270.018 470.698 280.912C462.125 291.806 463.479 307.171 473.722 315.231C483.965 323.291 499.218 320.994 507.79 310.101Z" fill="#FF6C5C"/>
<path d="M507.632 309.976C516.102 299.212 514.736 284.008 504.58 276.016C494.424 268.024 479.324 270.271 470.854 281.034C462.384 291.798 463.751 307.002 473.907 314.994C484.063 322.986 499.162 320.739 507.632 309.976Z" fill="#FF6B5B"/>
<path d="M507.396 309.791C515.798 299.114 514.482 284.063 504.456 276.174C494.43 268.284 479.492 270.544 471.09 281.221C462.688 291.897 464.004 306.948 474.03 314.838C484.056 322.727 498.995 320.468 507.396 309.791Z" fill="#FF6A5B"/>
<path d="M507.24 309.668C515.573 299.078 514.272 284.152 504.333 276.331C494.394 268.51 479.581 270.755 471.247 281.345C462.914 291.935 464.215 306.86 474.154 314.681C484.093 322.502 498.906 320.258 507.24 309.668Z" fill="#FF695A"/>
<path d="M507.082 309.543C515.313 299.083 513.998 284.319 504.146 276.566C494.294 268.813 479.635 271.007 471.404 281.467C463.173 291.927 464.487 306.691 474.339 314.444C484.191 322.197 498.85 320.003 507.082 309.543Z" fill="#FF685A"/>
<path d="M506.925 309.419C515.088 299.046 513.788 284.408 504.023 276.723C494.258 269.039 479.724 271.218 471.561 281.591C463.398 291.964 464.698 306.603 474.463 314.287C484.228 321.972 498.762 319.792 506.925 309.419Z" fill="#FF6759"/>
<path d="M506.69 309.233C514.75 298.991 513.473 284.541 503.838 276.958C494.203 269.376 479.858 271.533 471.798 281.776C463.737 292.019 465.014 306.469 474.649 314.051C484.284 321.633 498.629 319.476 506.69 309.233Z" fill="#FF6659"/>
<path d="M506.533 309.11C514.525 298.954 513.263 284.63 503.715 277.116C494.166 269.602 479.947 271.744 471.955 281.9C463.963 292.056 465.225 306.38 474.773 313.894C484.322 321.408 498.541 319.266 506.533 309.11Z" fill="#FF6558"/>
<path d="M506.376 308.987C514.3 298.917 513.053 284.719 503.591 277.273C494.13 269.828 480.036 271.955 472.113 282.024C464.189 292.093 465.436 306.292 474.897 313.737C484.359 321.183 498.452 319.056 506.376 308.987Z" fill="#FF6457"/>
<path d="M506.218 308.864C514.039 298.925 512.78 284.887 503.405 277.51C494.03 270.133 480.09 272.209 472.269 282.148C464.448 292.087 465.707 306.125 475.082 313.502C484.457 320.879 498.397 318.803 506.218 308.864Z" fill="#FF6357"/>
<path d="M505.982 308.677C513.735 298.825 512.526 284.941 503.281 277.666C494.037 270.391 480.258 272.481 472.505 282.333C464.752 292.185 465.961 306.069 475.206 313.344C484.45 320.619 498.229 318.529 505.982 308.677Z" fill="#FF6256"/>
<path d="M505.826 308.554C513.476 298.832 512.255 285.109 503.097 277.903C493.939 270.696 480.313 272.735 472.663 282.457C465.012 292.179 466.234 305.903 475.392 313.109C484.55 320.315 498.176 318.276 505.826 308.554Z" fill="#FF6156"/>
<path d="M505.667 308.431C513.249 298.796 512.043 285.198 502.972 278.06C493.901 270.922 480.401 272.946 472.818 282.581C465.236 292.217 466.443 305.814 475.514 312.952C484.585 320.09 498.085 318.066 505.667 308.431Z" fill="#FF6055"/>
<path d="M505.511 308.307C513.024 298.759 511.832 285.287 502.848 278.217C493.864 271.148 480.49 273.157 472.976 282.705C465.462 292.254 466.654 305.725 475.638 312.795C484.622 319.865 497.997 317.856 505.511 308.307Z" fill="#FF5F55"/>
<path d="M505.275 308.121C512.687 298.703 511.517 285.42 502.663 278.453C493.809 271.485 480.624 273.472 473.212 282.89C465.801 292.308 466.971 305.592 475.824 312.559C484.678 319.526 497.864 317.54 505.275 308.121Z" fill="#FF5E54"/>
<path d="M505.119 307.998C512.462 298.667 511.307 285.509 502.54 278.61C493.773 271.711 480.713 273.683 473.37 283.014C466.027 292.346 467.181 305.503 475.949 312.402C484.716 319.301 497.776 317.329 505.119 307.998Z" fill="#FF5D54"/>
<path d="M504.96 307.875C512.235 298.63 511.095 285.598 502.415 278.768C493.735 271.937 480.8 273.894 473.526 283.138C466.251 292.383 467.39 305.414 476.071 312.245C484.751 319.076 497.685 317.119 504.96 307.875Z" fill="#FF5C53"/>
<path d="M504.804 307.75C511.976 298.635 510.824 285.765 502.23 279.002C493.637 272.24 480.856 274.146 473.684 283.261C466.512 292.375 467.664 305.246 476.257 312.008C484.851 318.771 497.631 316.864 504.804 307.75Z" fill="#FF5B53"/>
<path d="M504.568 307.565C511.672 298.538 510.57 285.82 502.107 279.16C493.643 272.5 481.024 274.42 473.92 283.447C466.816 292.475 467.918 305.192 476.381 311.852C484.844 318.512 497.464 316.593 504.568 307.565Z" fill="#FF5A52"/>
<path d="M504.41 307.44C511.411 298.543 510.297 285.987 501.92 279.395C493.544 272.803 481.077 274.672 474.076 283.57C467.074 292.467 468.189 305.023 476.565 311.615C484.942 318.207 497.408 316.338 504.41 307.44Z" fill="#FF5951"/>
<path d="M504.253 307.317C511.186 298.506 510.087 286.076 501.797 279.552C493.507 273.029 481.167 274.883 474.233 283.694C467.3 292.504 468.4 304.935 476.69 311.458C484.979 317.981 497.32 316.127 504.253 307.317Z" fill="#FF5851"/>
<path d="M504.096 307.193C510.961 298.47 509.877 286.165 501.674 279.71C493.471 273.255 481.256 275.094 474.391 283.818C467.526 292.541 468.611 304.846 476.814 311.301C485.017 317.756 497.231 315.917 504.096 307.193Z" fill="#FF5750"/>
<path d="M503.861 307.007C510.624 298.414 509.561 286.298 501.489 279.945C493.416 273.592 481.39 275.409 474.627 284.003C467.865 292.596 468.927 304.712 477 311.065C485.072 317.417 497.099 315.601 503.861 307.007Z" fill="#FF5650"/>
<path d="M503.702 306.884C510.397 298.377 509.349 286.387 501.363 280.102C493.378 273.818 481.477 275.62 474.783 284.127C468.089 292.633 469.136 304.624 477.122 310.908C485.108 317.192 497.008 315.391 503.702 306.884Z" fill="#FF554F"/>
<path d="M503.546 306.761C510.138 298.384 509.078 286.555 501.179 280.339C493.28 274.123 481.533 275.874 474.941 284.251C468.349 292.627 469.409 304.457 477.308 310.673C485.208 316.889 496.955 315.138 503.546 306.761Z" fill="#FF544F"/>
<path d="M503.39 306.638C509.913 298.348 508.868 286.644 501.056 280.496C493.243 274.349 481.622 276.085 475.099 284.375C468.575 292.665 469.62 304.368 477.433 310.516C485.245 316.664 496.866 314.927 503.39 306.638Z" fill="#FF534E"/>
<path d="M503.154 306.451C509.609 298.248 508.614 286.698 500.932 280.653C493.25 274.607 481.789 276.357 475.334 284.559C468.879 292.762 469.874 304.313 477.556 310.358C485.238 316.403 496.699 314.654 503.154 306.451Z" fill="#FF524E"/>
<path d="M502.996 306.328C509.348 298.255 508.341 286.866 500.746 280.889C493.15 274.912 481.843 276.611 475.491 284.684C469.138 292.757 470.145 304.146 477.741 310.123C485.336 316.1 496.643 314.401 502.996 306.328Z" fill="#FF514D"/>
</g>
<path d="M559.801 262.999C550.001 259.099 537.701 267.599 532.301 282.099C526.901 296.599 530.501 311.499 540.301 315.399C550.101 319.299 562.401 310.799 567.801 296.299C573.201 281.799 569.601 266.899 559.801 262.999Z" fill="#FF9E78"/>
<path d="M559.3 297.6C549.4 303.4 539.2 301 532 294.7C532 298.5 531.5 303.3 530.5 308.8H530.7L528.9 345.8C533.3 336.6 535.8 325.9 537.1 313.7C538 314.3 538.9 314.9 540 315.3C549.8 319.2 562.1 310.7 567.5 296.2C568.9 292.5 569.7 288.7 569.9 285.1C567.9 290.1 564.5 294.4 559.3 297.5V297.6Z" fill="url(#paint30_linear_2394_71807)"/>
<path d="M542.4 288.999L551.4 290.599C551.9 276.199 562.7 271.899 562.7 271.899C545.7 264.999 542.4 288.999 542.4 288.999Z" fill="url(#paint31_linear_2394_71807)"/>
<path d="M490.901 106.7C463.801 87.2996 427.601 84.5996 427.601 84.5996C426.001 86.8996 425.201 90.5996 425.701 93.2996C403.101 91.6996 385.201 93.4996 385.201 93.4996C379.301 120.4 386.301 136.7 394.301 146.2C397.201 149.7 401.401 155.4 413.501 161.3C413.501 161.3 426.901 173.1 447.501 174.2C465.901 175.2 492.001 162.7 492.001 162.7C510.401 162.9 534.001 220.9 534.801 266.9C535.001 277.4 544.501 265.6 544.501 265.6C544.501 265.6 545.801 254.2 545.701 237.7C545.701 237.6 565.401 175.7 550.601 147.4" fill="url(#paint32_linear_2394_71807)"/>
<path d="M386.4 132.799C358.5 140.199 364.6 240.899 364.6 257.399C364.6 258.599 364.5 259.399 364.3 260.699C364.3 261.299 366.5 261.199 366.3 260.699C366.1 259.699 366.4 258.099 366.5 257.499C371.4 227.099 398 161.499 413.3 161.299C413.3 161.299 399 151.999 386.3 132.799H386.4Z" fill="#59352C"/>
<g opacity="0.6">
<path d="M420.714 324.922C438.271 316.321 445.039 294.11 435.83 275.313C426.622 256.516 404.924 248.251 387.366 256.852C369.809 265.453 363.041 287.664 372.25 306.461C381.458 325.258 403.157 333.524 420.714 324.922Z" fill="#FF9E78"/>
<path d="M420.583 324.653C438.041 316.101 444.787 294.05 435.652 275.402C426.516 256.753 404.957 248.569 387.499 257.122C370.041 265.674 363.295 287.725 372.43 306.373C381.566 325.022 403.125 333.206 420.583 324.653Z" fill="#FF9D77"/>
<path d="M420.495 324.473C437.804 315.993 444.469 294.082 435.382 275.533C426.295 256.984 404.896 248.821 387.587 257.3C370.278 265.78 363.613 287.691 372.7 306.241C381.787 324.79 403.185 332.953 420.495 324.473Z" fill="#FF9C77"/>
<path d="M420.362 324.204C437.572 315.773 444.216 294.021 435.201 275.621C426.187 257.221 404.928 249.139 387.718 257.57C370.508 266.001 363.864 287.752 372.878 306.153C381.893 324.553 403.152 332.635 420.362 324.204Z" fill="#FF9B76"/>
<path d="M420.274 324.024C437.385 315.642 443.988 294.01 435.022 275.709C426.056 257.408 404.917 249.367 387.806 257.75C370.695 266.132 364.092 287.764 373.058 306.065C382.024 324.366 403.163 332.407 420.274 324.024Z" fill="#FF9A76"/>
<path d="M420.143 323.755C437.154 315.421 443.736 293.95 434.843 275.797C425.95 257.645 404.951 249.686 387.939 258.019C370.927 266.353 364.346 287.825 373.238 305.977C382.131 324.13 403.131 332.089 420.143 323.755Z" fill="#FF9975"/>
<path d="M420.055 323.575C436.918 315.314 443.418 293.982 434.574 275.929C425.73 257.875 404.89 249.937 388.027 258.198C371.164 266.459 364.664 287.791 373.508 305.844C382.352 323.898 403.192 331.836 420.055 323.575Z" fill="#FF9875"/>
<path d="M419.967 323.395C436.73 315.183 443.19 293.971 434.394 276.017C425.599 258.063 404.879 250.166 388.115 258.378C371.351 266.591 364.892 287.803 373.688 305.757C382.483 323.711 403.203 331.608 419.967 323.395Z" fill="#FF9774"/>
<path d="M419.834 323.126C436.498 314.962 442.936 293.91 434.214 276.105C425.491 258.3 404.91 250.484 388.246 258.648C371.582 266.812 365.143 287.864 373.866 305.669C382.589 323.474 403.169 331.29 419.834 323.126Z" fill="#FF9674"/>
<path d="M419.746 322.947C436.311 314.831 442.708 293.899 434.034 276.193C425.36 258.487 404.899 250.712 388.334 258.828C371.769 266.943 365.372 287.875 374.046 305.581C382.72 323.287 403.18 331.062 419.746 322.947Z" fill="#FF9573"/>
<path d="M419.615 322.677C436.031 314.634 442.367 293.882 433.765 276.324C425.164 258.767 404.883 251.054 388.467 259.096C372.05 267.139 365.715 287.891 374.316 305.448C382.917 323.006 403.198 330.719 419.615 322.677Z" fill="#FF9472"/>
<path d="M419.527 322.497C435.844 314.503 442.138 293.871 433.586 276.413C425.033 258.955 404.872 251.282 388.555 259.276C372.238 267.27 365.943 287.903 374.496 305.361C383.048 322.819 403.209 330.491 419.527 322.497Z" fill="#FF9372"/>
<path d="M419.394 322.228C435.612 314.283 441.885 293.81 433.405 276.501C424.925 259.192 404.904 251.6 388.686 259.546C372.468 267.491 366.194 287.964 374.674 305.273C383.154 322.582 403.175 330.173 419.394 322.228Z" fill="#FF9271"/>
<path d="M419.306 322.048C435.375 314.175 441.567 293.842 433.136 276.632C424.705 259.422 404.843 251.852 388.774 259.724C372.704 267.597 366.513 287.93 374.944 305.14C383.375 322.35 403.236 329.92 419.306 322.048Z" fill="#FF9171"/>
<path d="M419.218 321.868C435.188 314.044 441.339 293.831 432.956 276.72C424.574 259.609 404.832 252.081 388.862 259.904C372.892 267.728 366.741 287.941 375.123 305.052C383.506 322.163 403.247 329.692 419.218 321.868Z" fill="#FF9070"/>
<path d="M419.087 321.599C434.957 313.824 441.087 293.77 432.778 276.808C424.468 259.846 404.866 252.399 388.995 260.174C373.124 267.949 366.994 288.002 375.304 304.965C383.613 321.927 403.216 329.374 419.087 321.599Z" fill="#FF8F70"/>
<path d="M418.999 321.42C434.77 313.693 440.859 293.759 432.598 276.897C424.337 260.034 404.854 252.627 389.083 260.354C373.311 268.08 367.222 288.014 375.483 304.877C383.744 321.74 403.227 329.146 418.999 321.42Z" fill="#FF8E6F"/>
<path d="M418.866 321.149C434.489 313.496 440.516 293.742 432.327 277.028C424.139 260.314 404.837 252.969 389.214 260.622C373.591 268.276 367.564 288.03 375.752 304.744C383.94 321.458 403.243 328.803 418.866 321.149Z" fill="#FF8D6F"/>
<path d="M418.778 320.97C434.301 313.365 440.287 293.731 432.148 277.116C424.008 260.501 404.825 253.197 389.302 260.802C373.778 268.407 367.792 288.041 375.931 304.656C384.071 321.271 403.254 328.575 418.778 320.97Z" fill="#FF8C6E"/>
<path d="M418.69 320.791C434.114 313.234 440.059 293.72 431.968 277.204C423.877 260.688 404.814 253.426 389.39 260.982C373.965 268.538 368.02 288.053 376.111 304.568C384.202 321.084 403.265 328.347 418.69 320.791Z" fill="#FF8B6E"/>
<path d="M418.558 320.521C433.884 313.014 439.808 293.659 431.79 277.292C423.771 260.925 404.848 253.744 389.522 261.252C374.197 268.759 368.273 288.114 376.291 304.481C384.309 320.848 403.233 328.029 418.558 320.521Z" fill="#FF8A6D"/>
<path d="M418.471 320.341C433.647 312.906 439.49 293.691 431.52 277.424C423.551 261.156 404.787 253.996 389.611 261.43C374.434 268.865 368.591 288.08 376.561 304.348C384.53 320.616 403.294 327.776 418.471 320.341Z" fill="#FF896C"/>
<path d="M418.337 320.072C433.415 312.686 439.236 293.631 431.339 277.512C423.443 261.393 404.819 254.314 389.741 261.7C374.664 269.086 368.843 288.141 376.739 304.26C384.636 320.379 403.26 327.458 418.337 320.072Z" fill="#FF886C"/>
<path d="M418.25 319.892C433.228 312.555 439.008 293.62 431.16 277.6C423.312 261.58 404.808 254.542 389.829 261.88C374.851 269.218 369.071 288.153 376.919 304.172C384.767 320.192 403.271 327.23 418.25 319.892Z" fill="#FF876B"/>
<path d="M418.118 319.623C432.997 312.334 438.756 293.559 430.981 277.688C423.206 261.817 404.841 254.86 389.962 262.149C375.083 269.439 369.324 288.214 377.1 304.085C384.875 319.955 403.239 326.912 418.118 319.623Z" fill="#FF866B"/>
<path d="M418.03 319.443C432.761 312.227 438.438 293.591 430.712 277.819C422.985 262.048 404.781 255.112 390.05 262.328C375.32 269.545 369.642 288.18 377.369 303.952C385.095 319.724 403.3 326.659 418.03 319.443Z" fill="#FF856A"/>
<path d="M417.942 319.263C432.573 312.096 438.21 293.58 430.532 277.908C422.854 262.235 404.769 255.34 390.138 262.508C375.507 269.676 369.871 288.191 377.549 303.864C385.226 319.537 403.311 326.431 417.942 319.263Z" fill="#FF846A"/>
<path d="M417.809 318.994C432.341 311.875 437.957 293.52 430.352 277.996C422.747 262.472 404.801 255.659 390.269 262.778C375.737 269.897 370.122 288.252 377.727 303.776C385.332 319.3 403.278 326.113 417.809 318.994Z" fill="#FF8369"/>
<path d="M417.721 318.816C432.105 311.77 437.639 293.554 430.082 278.129C422.526 262.704 404.74 255.912 390.357 262.959C375.974 270.005 370.44 288.221 377.997 303.645C385.553 319.07 403.338 325.862 417.721 318.816Z" fill="#FF8269"/>
<path d="M417.59 318.545C431.874 311.547 437.387 293.491 429.903 278.215C422.42 262.939 404.774 256.229 390.49 263.226C376.206 270.224 370.694 288.28 378.177 303.556C385.661 318.832 403.307 325.542 417.59 318.545Z" fill="#FF8168"/>
<path d="M417.502 318.365C431.687 311.416 437.159 293.48 429.724 278.303C422.289 263.127 404.763 256.457 390.578 263.406C376.393 270.355 370.922 288.291 378.357 303.468C385.792 318.645 403.318 325.314 417.502 318.365Z" fill="#FF8067"/>
<path d="M417.369 318.096C431.455 311.196 436.905 293.419 429.543 278.392C422.181 263.364 404.795 256.775 390.709 263.676C376.624 270.576 371.173 288.352 378.535 303.38C385.897 318.408 403.284 324.997 417.369 318.096Z" fill="#FF7F67"/>
<path d="M417.281 317.918C431.218 311.09 436.587 293.453 429.274 278.525C421.96 263.596 404.734 257.029 390.797 263.856C376.86 270.684 371.491 288.321 378.805 303.249C386.118 318.178 403.345 324.745 417.281 317.918Z" fill="#FF7E66"/>
<path d="M417.193 317.738C431.031 310.959 436.359 293.442 429.094 278.613C421.829 263.784 404.723 257.257 390.885 264.036C377.048 270.815 371.719 288.332 378.984 303.162C386.249 317.991 403.356 324.517 417.193 317.738Z" fill="#FF7D66"/>
<path d="M417.062 317.467C430.801 310.737 436.107 293.38 428.916 278.699C421.724 264.019 404.756 257.574 391.018 264.304C377.28 271.034 371.973 288.391 379.165 303.072C386.357 317.752 403.324 324.197 417.062 317.467Z" fill="#FF7C65"/>
<path d="M416.974 317.288C430.613 310.606 435.879 293.369 428.736 278.787C421.593 264.206 404.745 257.802 391.106 264.484C377.467 271.165 372.201 288.403 379.344 302.984C386.488 317.565 403.335 323.969 416.974 317.288Z" fill="#FF7B65"/>
<path d="M416.841 317.02C430.332 310.411 435.536 293.353 428.465 278.921C421.395 264.488 404.727 258.146 391.237 264.754C377.747 271.363 372.542 288.421 379.613 302.853C386.683 317.286 403.351 323.628 416.841 317.02Z" fill="#FF7A64"/>
<path d="M416.753 316.84C430.144 310.28 435.308 293.342 428.286 279.009C421.264 264.675 404.716 258.374 391.325 264.934C377.934 271.494 372.77 288.432 379.792 302.765C386.814 317.099 403.362 323.4 416.753 316.84Z" fill="#FF7964"/>
<path d="M416.622 316.571C429.914 310.059 435.056 293.282 428.107 279.097C421.158 264.912 404.75 258.692 391.458 265.204C378.166 271.715 373.024 288.493 379.973 302.678C386.922 316.862 403.33 323.083 416.622 316.571Z" fill="#FF7863"/>
<path d="M416.534 316.391C429.677 309.952 434.738 293.314 427.838 279.228C420.937 265.143 404.689 258.944 391.546 265.383C378.403 271.821 373.342 288.46 380.242 302.545C387.143 316.63 403.391 322.829 416.534 316.391Z" fill="#FF7762"/>
<path d="M416.446 316.211C429.49 309.821 434.51 293.303 427.658 279.316C420.806 265.33 404.678 259.172 391.634 265.562C378.59 271.953 373.57 288.471 380.422 302.457C387.274 316.443 403.402 322.601 416.446 316.211Z" fill="#FF7762"/>
<path d="M416.315 315.942C429.26 309.6 434.258 293.242 427.479 279.405C420.701 265.567 404.711 259.49 391.767 265.832C378.822 272.174 373.824 288.532 380.602 302.369C387.381 316.207 403.371 322.284 416.315 315.942Z" fill="#FF7661"/>
<path d="M416.227 315.763C429.073 309.47 434.03 293.231 427.3 279.493C420.57 265.754 404.7 259.719 391.855 266.012C379.009 272.305 374.052 288.543 380.782 302.282C387.512 316.02 403.382 322.056 416.227 315.763Z" fill="#FF7561"/>
<path d="M416.094 315.492C428.791 309.272 433.687 293.214 427.029 279.624C420.372 266.035 404.682 260.06 391.986 266.281C379.289 272.501 374.393 288.559 381.05 302.149C387.708 315.738 403.398 321.713 416.094 315.492Z" fill="#FF7460"/>
<path d="M416.006 315.313C428.604 309.142 433.459 293.203 426.85 279.712C420.241 266.222 404.671 260.289 392.074 266.46C379.476 272.632 374.621 288.571 381.23 302.061C387.839 315.551 403.409 321.484 416.006 315.313Z" fill="#FF7360"/>
<path d="M415.875 315.044C428.374 308.921 433.207 293.142 426.671 279.8C420.135 266.459 404.705 260.607 392.206 266.73C379.708 272.853 374.875 288.632 381.411 301.973C387.946 315.315 403.377 321.167 415.875 315.044Z" fill="#FF725F"/>
<path d="M415.787 314.864C428.186 308.79 432.979 293.131 426.492 279.889C420.004 266.646 404.694 260.835 392.294 266.91C379.895 272.984 375.103 288.643 381.59 301.886C388.077 315.128 403.388 320.939 415.787 314.864Z" fill="#FF715F"/>
<path d="M415.699 314.684C427.95 308.683 432.661 293.163 426.222 280.02C419.783 266.877 404.633 261.087 392.382 267.089C380.132 273.09 375.421 288.61 381.86 301.753C388.298 314.896 403.449 320.685 415.699 314.684Z" fill="#FF705E"/>
<path d="M415.566 314.415C427.717 308.462 432.407 293.102 426.041 280.108C419.676 267.114 404.665 261.405 392.513 267.358C380.362 273.311 375.672 288.671 382.038 301.665C388.404 314.659 403.415 320.368 415.566 314.415Z" fill="#FF6F5E"/>
<path d="M415.478 314.235C427.53 308.331 432.179 293.091 425.862 280.196C419.545 267.301 404.653 261.634 392.601 267.538C380.549 273.442 375.9 288.682 382.218 301.577C388.535 314.472 403.426 320.14 415.478 314.235Z" fill="#FF6E5D"/>
<path d="M415.347 313.966C427.3 308.111 431.928 293.031 425.683 280.284C419.439 267.538 404.687 261.952 392.734 267.808C380.781 273.663 376.154 288.743 382.398 301.489C388.643 314.236 403.394 319.822 415.347 313.966Z" fill="#FF6D5C"/>
<path d="M415.259 313.786C427.063 308.003 431.61 293.063 425.414 280.416C419.218 267.768 404.626 262.204 392.822 267.986C381.018 273.769 376.472 288.71 382.668 301.357C388.863 314.004 403.455 319.569 415.259 313.786Z" fill="#FF6C5C"/>
<path d="M415.126 313.517C426.831 307.783 431.356 293.002 425.233 280.504C419.11 268.005 404.658 262.522 392.953 268.256C381.248 273.99 376.723 288.771 382.846 301.269C388.969 313.767 403.421 319.251 415.126 313.517Z" fill="#FF6B5B"/>
<path d="M415.038 313.337C426.644 307.652 431.128 292.991 425.054 280.592C418.979 268.193 404.647 262.75 393.041 268.436C381.436 274.121 376.952 288.782 383.026 301.181C389.1 313.58 403.433 319.023 415.038 313.337Z" fill="#FF6A5B"/>
<path d="M414.95 313.157C426.407 307.544 430.81 293.023 424.784 280.723C418.758 268.423 404.586 263.002 393.129 268.615C381.672 274.227 377.27 288.748 383.295 301.048C389.321 313.348 403.493 318.77 414.95 313.157Z" fill="#FF695A"/>
<path d="M414.819 312.888C426.177 307.324 430.558 292.963 424.605 280.811C418.653 268.66 404.62 263.32 393.262 268.884C381.904 274.448 377.523 288.809 383.476 300.961C389.429 313.112 403.461 318.452 414.819 312.888Z" fill="#FF685A"/>
<path d="M414.731 312.708C425.99 307.193 430.33 292.952 424.426 280.9C418.522 268.848 404.609 263.549 393.35 269.064C382.092 274.58 377.751 288.821 383.655 300.873C389.56 312.925 403.473 318.224 414.731 312.708Z" fill="#FF6759"/>
<path d="M414.598 312.439C425.757 306.972 430.076 292.891 424.245 280.988C418.414 269.085 404.64 263.867 393.481 269.334C382.322 274.801 378.003 288.882 383.834 300.785C389.665 312.688 403.439 317.906 414.598 312.439Z" fill="#FF6659"/>
<path d="M414.51 312.259C425.521 306.865 429.759 292.923 423.976 281.119C418.193 269.315 404.58 264.119 393.569 269.513C382.559 274.907 378.321 288.848 384.103 300.652C389.886 312.456 403.5 317.653 414.51 312.259Z" fill="#FF6558"/>
<path d="M414.379 311.99C425.29 306.644 429.507 292.862 423.797 281.207C418.087 269.552 404.613 264.437 393.702 269.782C382.791 275.128 378.574 288.909 384.284 300.565C389.994 312.22 403.468 317.335 414.379 311.99Z" fill="#FF6457"/>
<path d="M414.291 311.81C425.103 306.513 429.279 292.851 423.617 281.295C417.956 269.739 404.602 264.665 393.79 269.962C382.978 275.259 378.802 288.921 384.463 300.477C390.125 312.033 403.479 317.107 414.291 311.81Z" fill="#FF6357"/>
<path d="M414.203 311.631C424.916 306.383 429.051 292.84 423.438 281.384C417.825 269.927 404.591 264.894 393.878 270.142C383.165 275.39 379.03 288.932 384.643 300.389C390.256 311.846 403.49 316.879 414.203 311.631Z" fill="#FF6256"/>
<path d="M414.07 311.361C424.634 306.185 428.707 292.823 423.167 281.515C417.628 270.207 404.573 265.235 394.009 270.411C383.445 275.586 379.372 288.948 384.911 300.256C390.451 311.564 403.506 316.536 414.07 311.361Z" fill="#FF6156"/>
<path d="M413.982 311.181C424.447 306.054 428.479 292.812 422.988 281.603C417.497 270.394 404.562 265.464 394.097 270.59C383.632 275.717 379.6 288.96 385.091 300.168C390.582 311.377 403.517 316.308 413.982 311.181Z" fill="#FF6055"/>
<path d="M413.851 310.912C424.217 305.834 428.227 292.751 422.809 281.691C417.391 270.631 404.595 265.782 394.23 270.86C383.864 275.938 379.853 289.021 385.272 300.081C390.69 311.141 403.485 315.99 413.851 310.912Z" fill="#FF5F55"/>
<path d="M413.763 310.734C423.98 305.728 427.909 292.785 422.54 281.824C417.17 270.864 404.535 266.036 394.318 271.041C384.101 276.046 380.171 288.989 385.541 299.95C390.911 310.911 403.546 315.739 413.763 310.734Z" fill="#FF5E54"/>
<path d="M413.63 310.462C423.748 305.506 427.656 292.723 422.359 281.911C417.062 271.099 404.566 266.352 394.449 271.308C384.331 276.265 380.423 289.048 385.72 299.86C391.016 310.672 403.512 315.419 413.63 310.462Z" fill="#FF5D54"/>
<path d="M413.542 310.283C423.561 305.375 427.428 292.712 422.179 281.999C416.931 271.286 404.555 266.58 394.537 271.488C384.518 276.396 380.651 289.06 385.899 299.772C391.147 310.485 403.523 315.191 413.542 310.283Z" fill="#FF5C53"/>
<path d="M413.454 310.104C423.373 305.244 427.199 292.701 422 282.087C416.8 271.473 404.544 266.809 394.625 271.668C384.705 276.527 380.879 289.071 386.079 299.685C391.278 310.298 403.535 314.963 413.454 310.104Z" fill="#FF5B53"/>
<path d="M413.323 309.835C423.094 305.049 426.858 292.685 421.731 282.22C416.605 271.755 404.528 267.152 394.758 271.939C384.987 276.725 381.222 289.089 386.349 299.554C391.476 310.019 403.552 314.622 413.323 309.835Z" fill="#FF5A52"/>
<path d="M413.235 309.656C422.906 304.918 426.63 292.674 421.552 282.308C416.474 271.943 404.517 267.381 394.846 272.118C385.174 276.856 381.451 289.1 386.529 299.466C391.607 309.832 403.564 314.394 413.235 309.656Z" fill="#FF5951"/>
<path d="M413.102 309.385C422.674 304.696 426.376 292.612 421.371 282.395C416.366 272.178 404.549 267.697 394.976 272.386C385.404 277.075 381.702 289.159 386.707 299.376C391.712 309.593 403.53 314.074 413.102 309.385Z" fill="#FF5851"/>
<path d="M413.014 309.205C422.487 304.565 426.148 292.601 421.192 282.483C416.235 272.365 404.537 267.925 395.064 272.566C385.591 277.207 381.93 289.171 386.887 299.289C391.843 309.406 403.541 313.846 413.014 309.205Z" fill="#FF5750"/>
<path d="M412.883 308.937C422.207 304.369 425.807 292.585 420.923 282.616C416.039 272.647 404.522 268.269 395.197 272.837C385.873 277.404 382.274 289.189 387.157 299.158C392.041 309.127 403.559 313.505 412.883 308.937Z" fill="#FF5650"/>
<path d="M412.795 308.758C422.02 304.239 425.579 292.574 420.743 282.704C415.908 272.834 404.51 268.497 395.285 273.016C386.06 277.536 382.502 289.2 387.337 299.07C392.172 308.94 403.57 313.277 412.795 308.758Z" fill="#FF554F"/>
<path d="M412.707 308.578C421.833 304.108 425.35 292.563 420.564 282.792C415.777 273.022 404.499 268.725 395.373 273.196C386.248 277.667 382.73 289.212 387.516 298.982C392.303 308.753 403.581 313.049 412.707 308.578Z" fill="#FF544F"/>
<path d="M412.574 308.307C421.601 303.885 425.097 292.5 420.383 282.879C415.67 273.257 404.531 269.042 395.504 273.464C386.478 277.886 382.981 289.271 387.695 298.892C392.409 308.514 403.547 312.729 412.574 308.307Z" fill="#FF534E"/>
<path d="M412.486 308.129C421.364 303.78 424.779 292.534 420.114 283.012C415.449 273.489 404.47 269.295 395.592 273.645C386.714 277.994 383.299 289.239 387.964 298.762C392.629 308.284 403.608 312.478 412.486 308.129Z" fill="#FF524E"/>
<path d="M412.355 307.86C421.133 303.559 424.527 292.474 419.935 283.1C415.343 273.726 404.504 269.614 395.725 273.914C386.947 278.215 383.553 289.3 388.145 298.674C392.737 308.048 403.576 312.16 412.355 307.86Z" fill="#FF514D"/>
</g>
<path opacity="0.1" d="M527.8 127.2C518.3 129 508.3 130.1 498.7 128.4C487.5 126.5 477.9 121.1 468.1 115.7C463.2 113 458.2 110.2 453.1 107.8C442.2 102.6 429.3 97.5 417 97.5C410.9 97.5 404.9 99.1 399.3 101.2C394.1 103.1 389.7 106.1 386.5 109.1C385.8 109.7 384.3 110.7 382.9 111.7C382.9 116.2 383.2 120.3 383.9 124C384.5 123.7 385 123.4 385.2 123.2C387.3 121.8 389.9 120.4 392.8 119.2C395.8 118.1 399.2 117.2 402.9 117C417.5 116.4 430.8 122.7 443.8 128.6C449.1 131 454.5 133.8 460.2 136.4C465.9 139.1 471.8 141.6 478 143.8C488.5 147.4 501.4 148.9 512.3 146.3C513.8 145.9 515.2 145.7 516.6 145.3C522.2 143.7 527.2 141.6 531.5 139.6C535.8 137.6 537.6 137 534.4 138.4" fill="#FFBC80"/>
<path d="M470.901 211.199C470.901 211.199 451.701 247.599 469.601 269.299L514.501 265.599C514.501 265.599 517.601 251.999 516.401 242.299C515.201 232.599 470.801 211.199 470.801 211.199H470.901Z" fill="url(#paint33_linear_2394_71807)"/>
<path d="M385.3 241C382.4 249.6 380.4 264.2 380.4 264.2L422.1 270.7C442 249.7 433.9 211.4 433.9 211.4C433.9 211.4 388.2 232.4 385.3 241Z" fill="url(#paint34_linear_2394_71807)"/>
<path d="M408.201 319.4C408.201 319.4 403.401 339.2 445.201 339.3C485.701 339.3 480.801 319.9 480.801 319.9L408.201 319.4Z" fill="#FB755C"/>
<path d="M495.4 252.2C476.5 250.3 469.6 269.3 469.6 269.3C469.6 269.3 474.1 274 493.9 272.9C515 271.7 514.5 265.7 514.5 265.7C514.5 265.7 514.2 254.1 495.4 252.2Z" fill="white"/>
<path d="M380.4 264.199C380.4 264.199 381.1 269.899 400 272.199C421.4 274.699 422.1 270.699 422.1 270.699C422.1 270.699 402 232.399 380.4 264.199Z" fill="white"/>
<path d="M395.5 271.5C396.9 271.7 398.3 272 399.9 272.1C405.2 272.7 409.3 273 412.3 272.9C412.4 272.6 412.5 272.3 412.7 272C415.1 264.9 413.5 257.9 409 256.3C404.5 254.8 398.9 259.3 396.5 266.4C395.9 268.1 395.6 269.7 395.5 271.3V271.5Z" fill="url(#paint35_linear_2394_71807)"/>
<path d="M493.9 272.999C496.2 272.899 498.2 272.699 500 272.499C501.8 265.099 500 258.199 495.9 256.599C491.4 254.899 485.8 259.899 483.4 267.799C482.9 269.299 482.6 271.099 482.5 272.899C485.6 273.099 489.3 273.199 493.9 272.899V272.999Z" fill="url(#paint36_linear_2394_71807)"/>
<path d="M401.6 248.899C386.1 247.599 380.4 264.199 380.4 264.199C380.4 264.199 387.7 257.499 399.7 257.599C414.9 257.699 422.1 270.699 422.1 270.699C422.1 270.699 424.7 250.799 401.6 248.899Z" fill="#603F37"/>
<path d="M385.301 240.999C405.601 228.599 423.301 235.599 432.401 227.499C435.901 224.399 433.901 211.299 433.901 211.299C385.601 215.999 385.301 240.899 385.301 240.899V240.999Z" fill="url(#paint37_linear_2394_71807)"/>
<path d="M470.9 211.2C470.9 211.2 464.8 222.7 467.2 226.2C474.6 237.1 501.5 232.1 516.7 245C516.7 245 520.4 223.2 470.9 211.1V211.2Z" fill="url(#paint38_linear_2394_71807)"/>
<path d="M492.6 250.599C471.4 249.199 469.6 269.399 469.6 269.399C469.6 269.399 475.9 259.699 493.6 259.699C512.1 259.699 514.5 265.799 514.5 265.799C514.5 265.799 513.7 252.099 492.6 250.699V250.599Z" fill="#603F37"/>
<path opacity="0.1" d="M454.8 354.901C448.3 356.101 443.3 355.901 440 355.401C436.8 354.901 434.2 357.601 434.9 360.801C435.6 364.201 438.7 367.501 448.3 367.001C457.7 366.501 460.4 363.301 460.7 360.101C461 357.001 457.9 354.301 454.9 354.901H454.8Z" fill="black"/>
<path d="M410 266.6C409.9 269 407.9 271.1 405.5 271.2C403.1 271.3 401.4 269.4 401.6 267C401.7 264.6 403.7 262.5 406.1 262.4C408.5 262.3 410.2 264.2 410 266.6Z" fill="#1E1D1D"/>
<path d="M496.501 267.899C496.401 270.299 494.401 272.399 492.001 272.499C489.701 272.599 487.901 270.699 488.101 268.299C488.201 265.899 490.201 263.799 492.601 263.699C494.901 263.599 496.701 265.499 496.501 267.899Z" fill="#1E1D1D"/>
<path opacity="0.8" d="M401.6 262.599C399.5 263.699 398.1 265.999 398.3 267.599C398.6 269.199 400.5 269.599 402.5 268.499C404.6 267.399 406 265.099 405.8 263.499C405.5 261.899 403.6 261.499 401.6 262.599Z" fill="white"/>
<path opacity="0.8" d="M487.401 265.399C485.201 266.599 483.801 268.699 484.201 270.199C484.601 271.699 486.701 271.899 488.901 270.799C491.101 269.599 492.501 267.499 492.101 265.999C491.701 264.499 489.601 264.299 487.401 265.399Z" fill="white"/>
<path d="M435.5 277.6C435.5 277.6 419 274.3 414.9 288.6C409.6 306.8 445.8 318.1 456 299.2C466.2 280.3 440.7 244.4 440.7 244.4C440.7 244.4 446.7 262.9 435.5 277.7V277.6Z" fill="#FF9E78"/>
<path d="M414.5 293.699C416.4 308.699 446.8 316.299 456.1 299.199C456.7 298.199 457.1 297.099 457.5 295.899C443.1 298.799 428.2 297.699 414.6 293.699H414.5Z" fill="url(#paint39_linear_2394_71807)"/>
<path opacity="0.2" d="M446.201 263.499L442.101 263.299C442.101 263.299 439.801 276.399 435.701 278.199C435.101 278.199 434.401 278.099 433.801 277.999C426.701 277.599 420.801 279.899 420.601 282.999C420.401 286.099 426.101 288.699 433.201 289.099C439.901 289.399 445.801 288.299 446.601 284.699C446.601 284.699 450.001 270.999 446.101 263.499H446.201Z" fill="white"/>
<path opacity="0.1" d="M498.9 165.3C506.6 161.7 513.9 157.1 520.1 151.2C522.2 149.1 519 146 516.8 148C509.5 154.6 500.8 158.7 492 162.7C494.2 162.7 496.5 163.7 498.8 165.3H498.9Z" fill="black"/>
<path opacity="0.6" d="M406 275.199C400.8 275.199 395.7 274.899 390.6 273.699C387.9 272.999 387 276.899 389.5 277.799C395 279.799 400.7 280.399 406.6 279.499C409 279.099 408.4 275.199 406 275.299V275.199Z" fill="#ED6954"/>
<path opacity="0.6" d="M499.599 275.8C494.399 276.2 489.199 276.5 483.999 276.4C481.699 276.4 481.099 280.1 483.499 280.5C488.999 281.4 494.799 281.4 500.299 280.1C502.699 279.5 502.199 275.6 499.699 275.8H499.599Z" fill="#ED6954"/>
<path d="M551.851 152.554C555.359 146.038 531.279 126.258 498.067 108.375C464.854 90.4921 435.086 81.2773 431.577 87.7934C428.069 94.3095 452.149 114.089 485.361 131.972C518.574 149.855 548.342 159.07 551.851 152.554Z" fill="#0C4266"/>
<path d="M552.101 153.699C548.601 160.199 518.801 150.999 485.701 133.099C452.501 115.199 428.501 94.1986 432.001 87.6986C432.701 86.4986 434.301 86.0986 436.501 86.8986C438.701 87.6986 461.001 107.399 488.001 121.999C517.001 137.699 549.501 142.399 552.201 150.799C554.901 159.199 552.601 152.999 552.201 153.799L552.101 153.699Z" fill="#092E4C"/>
<defs>
<linearGradient id="paint0_linear_2394_71807" x1="447.2" y1="1557" x2="447.2" y2="1474.9" gradientUnits="userSpaceOnUse">
<stop stop-color="white"/>
<stop offset="1" stop-color="#A5B7C6"/>
</linearGradient>
<linearGradient id="paint1_linear_2394_71807" x1="448.8" y1="384.3" x2="448.8" y2="410.5" gradientUnits="userSpaceOnUse">
<stop stop-color="#DB7D67"/>
<stop offset="1" stop-color="#FF9E78"/>
</linearGradient>
<linearGradient id="paint2_linear_2394_71807" x1="449.601" y1="412.399" x2="449.601" y2="544.299" gradientUnits="userSpaceOnUse">
<stop stop-color="#DEEFFF"/>
<stop offset="1" stop-color="#CADBEF"/>
</linearGradient>
<linearGradient id="paint3_linear_2394_71807" x1="449.601" y1="541.1" x2="449.601" y2="783.5" gradientUnits="userSpaceOnUse">
<stop stop-color="#B3CBE2"/>
<stop offset="1" stop-color="#CADBEF"/>
</linearGradient>
<linearGradient id="paint4_linear_2394_71807" x1="546.4" y1="1103.7" x2="531.1" y2="929.499" gradientUnits="userSpaceOnUse">
<stop stop-color="#3D434F"/>
<stop offset="1" stop-color="#333844"/>
</linearGradient>
<linearGradient id="paint5_linear_2394_71807" x1="271.2" y1="1475.6" x2="271.7" y2="1502.7" gradientUnits="userSpaceOnUse">
<stop stop-color="#5B5B60"/>
<stop offset="1" stop-color="#2C2C2D"/>
</linearGradient>
<linearGradient id="paint6_linear_2394_71807" x1="623.5" y1="1475.6" x2="624" y2="1502.8" gradientUnits="userSpaceOnUse">
<stop stop-color="#5B5B60"/>
<stop offset="1" stop-color="#2C2C2D"/>
</linearGradient>
<linearGradient id="paint7_linear_2394_71807" x1="350.401" y1="1105.5" x2="365.801" y2="929.599" gradientUnits="userSpaceOnUse">
<stop stop-color="#3D434F"/>
<stop offset="1" stop-color="#333844"/>
</linearGradient>
<linearGradient id="paint8_linear_2394_71807" x1="452" y1="429.299" x2="452" y2="451.699" gradientUnits="userSpaceOnUse">
<stop stop-color="#B3CBE2"/>
<stop offset="1" stop-color="#CADBEF"/>
</linearGradient>
<linearGradient id="paint9_linear_2394_71807" x1="449.9" y1="650.8" x2="449.9" y2="818.7" gradientUnits="userSpaceOnUse">
<stop stop-color="#B3CBE2"/>
<stop offset="1" stop-color="#CADBEF"/>
</linearGradient>
<linearGradient id="paint10_linear_2394_71807" x1="393.401" y1="827.701" x2="425.201" y2="827.701" gradientUnits="userSpaceOnUse">
<stop stop-color="#5F6163"/>
<stop offset="1" stop-color="#444749"/>
</linearGradient>
<linearGradient id="paint11_linear_2394_71807" x1="410.9" y1="826.8" x2="425" y2="826.8" gradientUnits="userSpaceOnUse">
<stop stop-color="#5F6163"/>
<stop offset="1" stop-color="#444749"/>
</linearGradient>
<linearGradient id="paint12_linear_2394_71807" x1="188.9" y1="535.299" x2="193.1" y2="559.499" gradientUnits="userSpaceOnUse">
<stop stop-color="#DEEFFF"/>
<stop offset="1" stop-color="#CADBEF"/>
</linearGradient>
<linearGradient id="paint13_linear_2394_71807" x1="700.6" y1="536.899" x2="706" y2="567.299" gradientUnits="userSpaceOnUse">
<stop stop-color="#DEEFFF"/>
<stop offset="1" stop-color="#CADBEF"/>
</linearGradient>
<linearGradient id="paint14_linear_2394_71807" x1="386.4" y1="485.999" x2="402.5" y2="516.699" gradientUnits="userSpaceOnUse">
<stop stop-color="#F28C70"/>
<stop offset="1" stop-color="#FF9E78"/>
</linearGradient>
<linearGradient id="paint15_linear_2394_71807" x1="402.1" y1="472.3" x2="362.5" y2="488.4" gradientUnits="userSpaceOnUse">
<stop stop-color="#F28C70"/>
<stop offset="1" stop-color="#FF9E78"/>
</linearGradient>
<linearGradient id="paint16_linear_2394_71807" x1="289" y1="512.099" x2="304.4" y2="551.799" gradientUnits="userSpaceOnUse">
<stop stop-color="#FFB9A4"/>
<stop offset="1" stop-color="#FF9E78"/>
</linearGradient>
<linearGradient id="paint17_linear_2394_71807" x1="398.801" y1="452.1" x2="402.701" y2="467.8" gradientUnits="userSpaceOnUse">
<stop stop-color="#FFB9A4"/>
<stop offset="1" stop-color="#FF9E78"/>
</linearGradient>
<linearGradient id="paint18_linear_2394_71807" x1="425.9" y1="447.2" x2="424.5" y2="456.3" gradientUnits="userSpaceOnUse">
<stop stop-color="#FFB9A4"/>
<stop offset="1" stop-color="#FF9E78"/>
</linearGradient>
<linearGradient id="paint19_linear_2394_71807" x1="412.701" y1="509.099" x2="397.801" y2="558.899" gradientUnits="userSpaceOnUse">
<stop stop-color="#FFB9A4"/>
<stop offset="1" stop-color="#FF9E78"/>
</linearGradient>
<linearGradient id="paint20_linear_2394_71807" x1="283.5" y1="552" x2="299.5" y2="601.2" gradientUnits="userSpaceOnUse">
<stop stop-color="#F28C70"/>
<stop offset="1" stop-color="#FF9E78"/>
</linearGradient>
<linearGradient id="paint21_linear_2394_71807" x1="505.7" y1="483.5" x2="496.9" y2="523" gradientUnits="userSpaceOnUse">
<stop stop-color="#F28C70"/>
<stop offset="1" stop-color="#FF9E78"/>
</linearGradient>
<linearGradient id="paint22_linear_2394_71807" x1="497.699" y1="472.3" x2="537.299" y2="488.4" gradientUnits="userSpaceOnUse">
<stop stop-color="#F28C70"/>
<stop offset="1" stop-color="#FF9E78"/>
</linearGradient>
<linearGradient id="paint23_linear_2394_71807" x1="610.801" y1="512.099" x2="595.401" y2="551.799" gradientUnits="userSpaceOnUse">
<stop stop-color="#FFB9A4"/>
<stop offset="1" stop-color="#FF9E78"/>
</linearGradient>
<linearGradient id="paint24_linear_2394_71807" x1="501" y1="452.1" x2="497" y2="467.8" gradientUnits="userSpaceOnUse">
<stop stop-color="#FFB9A4"/>
<stop offset="1" stop-color="#FF9E78"/>
</linearGradient>
<linearGradient id="paint25_linear_2394_71807" x1="473.9" y1="447.2" x2="475.3" y2="456.3" gradientUnits="userSpaceOnUse">
<stop stop-color="#FFB9A4"/>
<stop offset="1" stop-color="#FF9E78"/>
</linearGradient>
<linearGradient id="paint26_linear_2394_71807" x1="487.7" y1="508.999" x2="502.5" y2="558.799" gradientUnits="userSpaceOnUse">
<stop stop-color="#FFB9A4"/>
<stop offset="1" stop-color="#FF9E78"/>
</linearGradient>
<linearGradient id="paint27_linear_2394_71807" x1="617.7" y1="552.399" x2="601.7" y2="601.799" gradientUnits="userSpaceOnUse">
<stop stop-color="#F28C70"/>
<stop offset="1" stop-color="#FF9E78"/>
</linearGradient>
<linearGradient id="paint28_linear_2394_71807" x1="342.647" y1="281.399" x2="382.243" y2="281.952" gradientUnits="userSpaceOnUse">
<stop stop-color="#F28C70"/>
<stop offset="1" stop-color="#FF9E78"/>
</linearGradient>
<linearGradient id="paint29_linear_2394_71807" x1="451.042" y1="160.7" x2="450.612" y2="191.497" gradientUnits="userSpaceOnUse">
<stop stop-color="#C6664F"/>
<stop offset="1" stop-color="#FF9E78"/>
</linearGradient>
<linearGradient id="paint30_linear_2394_71807" x1="529.597" y1="314.912" x2="569.793" y2="315.474" gradientUnits="userSpaceOnUse">
<stop stop-color="#F28C70"/>
<stop offset="1" stop-color="#FF9E78"/>
</linearGradient>
<linearGradient id="paint31_linear_2394_71807" x1="542.785" y1="280.092" x2="562.883" y2="280.373" gradientUnits="userSpaceOnUse">
<stop stop-color="#F28C70"/>
<stop offset="1" stop-color="#FF9E78"/>
</linearGradient>
<linearGradient id="paint32_linear_2394_71807" x1="472.532" y1="94.6401" x2="468.311" y2="170.725" gradientUnits="userSpaceOnUse">
<stop stop-color="#75483B"/>
<stop offset="0.4" stop-color="#704438"/>
<stop offset="0.7" stop-color="#623C2F"/>
<stop offset="1" stop-color="#563428"/>
</linearGradient>
<linearGradient id="paint33_linear_2394_71807" x1="491.616" y1="177.268" x2="489.17" y2="259.342" gradientUnits="userSpaceOnUse">
<stop stop-color="#C6664F"/>
<stop offset="1" stop-color="#FF9E78"/>
</linearGradient>
<linearGradient id="paint34_linear_2394_71807" x1="410.169" y1="180.033" x2="407.723" y2="262.106" gradientUnits="userSpaceOnUse">
<stop stop-color="#C6664F"/>
<stop offset="1" stop-color="#FF9E78"/>
</linearGradient>
<linearGradient id="paint35_linear_2394_71807" x1="402.408" y1="274.695" x2="411.025" y2="253.057" gradientUnits="userSpaceOnUse">
<stop stop-color="#704A3E"/>
<stop offset="1"/>
</linearGradient>
<linearGradient id="paint36_linear_2394_71807" x1="490.132" y1="274.279" x2="498.175" y2="251.329" gradientUnits="userSpaceOnUse">
<stop stop-color="#704A3E"/>
<stop offset="1"/>
</linearGradient>
<linearGradient id="paint37_linear_2394_71807" x1="411.631" y1="211.904" x2="409.552" y2="238.034" gradientUnits="userSpaceOnUse">
<stop stop-color="#75483B"/>
<stop offset="0.4" stop-color="#704438"/>
<stop offset="0.7" stop-color="#623C2F"/>
<stop offset="1" stop-color="#563428"/>
</linearGradient>
<linearGradient id="paint38_linear_2394_71807" x1="493.22" y1="218.198" x2="491.142" y2="244.328" gradientUnits="userSpaceOnUse">
<stop stop-color="#75483B"/>
<stop offset="0.4" stop-color="#704438"/>
<stop offset="0.7" stop-color="#623C2F"/>
<stop offset="1" stop-color="#563428"/>
</linearGradient>
<linearGradient id="paint39_linear_2394_71807" x1="436.033" y1="304.505" x2="436.266" y2="287.806" gradientUnits="userSpaceOnUse">
<stop stop-color="#F28C70"/>
<stop offset="1" stop-color="#FF9E78"/>
</linearGradient>
</defs>
</svg>
