<svg width="658" height="1048" viewBox="0 0 658 1048" fill="none" xmlns="http://www.w3.org/2000/svg">
<path d="M24.0003 625.26C23.9003 635.36 47.3003 638.76 47.3003 638.76L48.6003 611.26C48.6003 611.26 24.2003 613.06 24.0003 625.36V625.26Z" fill="#D78C74"/>
<path d="M307.401 846.661C307.001 846.661 297.401 848.461 297.001 848.361C261.101 843.361 227.701 799.961 191.901 794.361C187.601 832.261 185.901 921.661 189.501 1023.56H291.401C295.201 932.261 304.701 861.461 307.501 846.661H307.401Z" fill="#363C42"/>
<path d="M458.801 803.16L342.801 821.46C325.101 822.96 331.101 926.16 348.201 1023.56H458.601C449.801 928.56 458.601 805.16 458.701 803.16H458.801Z" fill="#363C42"/>
<path d="M188.301 858.161C188.301 858.161 265.601 865.861 349.401 865.161C403.901 864.661 450.301 869.061 453.901 844.861C457.201 822.361 459.701 795.361 461.701 767.061H193.501C188.801 816.661 188.301 858.161 188.301 858.161Z" fill="#363C42"/>
<path opacity="0.1" d="M456.6 843.461C457.5 821.061 459.8 794.761 461.8 767.061H193.6C191.7 798.961 190 827.361 188.9 843.461C188.9 843.461 247.5 840.061 319.5 840.961C395.5 841.861 456.7 843.461 456.7 843.461H456.6Z" fill="black"/>
<path opacity="0.1" d="M313.1 849.36C232 852.36 296.1 865.06 303.8 865.16C317.5 865.46 317.6 865.56 332.2 865.56C332.2 865.56 332.4 868.36 332.2 869.76C332.4 869.66 394 846.36 313.1 849.36Z" fill="black"/>
<path d="M116.801 584.961C130.201 584.761 143.601 584.961 157.001 585.961C171.101 586.961 185.001 588.861 198.801 591.461C206.501 536.461 232.801 468.761 245.901 441.961L255.001 345.961C234.801 351.561 139.101 359.161 116.801 584.961Z" fill="#6D7DB3"/>
<path d="M114.101 517.56C114.101 517.56 106.401 581.16 107.701 596.76C107.701 596.76 109.801 605.46 118.101 605.06C118.101 605.06 169.701 598.06 195.301 621.76C195.301 621.76 206.501 617.06 210.201 594.96C214.401 569.16 217.301 548.26 215.401 536.76C212.501 519.56 126.301 497.96 114.101 517.56Z" fill="#B6BDCE"/>
<path d="M340.199 256.46C319.099 256.06 303.799 266.66 303.599 281.66L295.999 350.06C295.799 365.16 316.999 367.46 338.099 367.76C359.199 368.16 376.399 365.66 376.599 350.56V285.86C376.799 270.76 361.199 256.76 340.099 256.46H340.199Z" fill="#D78C74"/>
<path d="M409.701 337.961L418.901 434.961C432.401 461.561 459.801 528.861 468.301 583.661C482.101 580.861 496.001 578.661 510.001 577.461C523.401 576.361 536.801 575.861 550.201 575.861C527.401 334.761 412.201 342.961 409.701 337.961Z" fill="#6D7DB3"/>
<path d="M354.701 814.461L378.201 816.961L410.201 760.061H387.801L354.701 814.461Z" fill="#3D4041"/>
<path d="M259.5 343.86V395.26H412.2V338.76C366.4 325.26 303.8 325.36 259.5 343.86Z" fill="#D78C74"/>
<path d="M404.5 335.86C400.1 362.16 366.9 368.16 330.7 368.76C298 369.26 283.1 362.26 277.3 337.06C266.4 338.96 238.8 347.76 223.4 357.56V799.96C247.7 805.46 283.3 810.86 326.8 810.36C373.5 809.76 408.2 803.26 429.7 797.66V343.06C425.7 341.46 421.5 340.16 416.8 339.16C412.8 338.06 408.7 336.96 404.5 335.76V335.86Z" fill="#DFE5EA"/>
<path d="M287.501 334.961C267.801 334.961 228.701 350.961 216.701 362.661C191.001 387.761 190.701 449.261 188.301 538.661C185.701 634.561 185.701 625.261 173.301 810.361C173.301 810.361 227.201 823.061 293.501 826.661C284.401 693.861 311.901 402.261 314.001 380.661C312.601 373.761 291.901 353.961 287.601 334.961H287.501Z" fill="#6D7DB3"/>
<path d="M472.8 419.26C472.8 410.66 474.4 351.16 416.7 339.26C412.7 338.16 394.5 333.36 390.2 332.26C386.4 354.86 377.2 350.36 350.2 380.26C347.6 406.56 326.7 622.06 331.3 831.66C411.8 829.96 478.3 802.46 478.3 802.46C469.5 699.26 472.4 509.76 472.7 419.36L472.8 419.26Z" fill="#6D7DB3"/>
<path d="M288.901 354.161C288.701 355.661 267.801 508.961 261.801 638.461C257.801 724.461 259.101 789.661 260.401 824.161C263.601 824.461 266.901 824.761 270.201 825.061C268.901 791.261 267.501 725.761 271.501 638.861C277.101 518.261 295.701 376.861 298.301 357.661C297.801 356.861 297.201 356.061 296.701 355.161L289.001 354.061L288.901 354.161Z" fill="#7588BC"/>
<path d="M379.7 358.46L373.8 357.76C372.5 358.86 371.1 360.06 369.6 361.26C367 385.46 353.8 516.26 353.5 639.46C353.3 728.76 356.9 794.76 359.4 829.76C362.7 829.46 365.9 829.16 369.1 828.76C366.6 793.86 363 728.26 363.2 639.46C363.5 504.16 379.5 359.76 379.7 358.36V358.46Z" fill="#7588BC"/>
<path d="M206.8 424.961L201.9 435.261L286.8 420.961L285.3 411.361L206.8 424.961Z" fill="#7588BC"/>
<path d="M300.099 315.161C300.099 315.161 289.099 319.461 275.699 337.761C262.299 356.061 274.499 393.861 274.499 393.861C274.499 393.861 276.499 384.961 280.999 369.961C287.599 347.961 313.899 380.661 313.899 380.661C313.899 380.661 311.599 367.761 306.199 355.661C298.099 337.361 300.099 315.061 300.099 315.061V315.161Z" fill="#7588BC"/>
<path d="M289.301 543.961C285.701 543.961 282.801 546.561 282.801 549.761C282.801 552.961 285.701 555.561 289.301 555.561C292.901 555.561 295.801 552.961 295.801 549.761C295.801 546.561 292.901 543.961 289.301 543.961Z" fill="#B0B5C1"/>
<path d="M282 643.36C285.59 643.36 288.5 640.763 288.5 637.56C288.5 634.357 285.59 631.76 282 631.76C278.41 631.76 275.5 634.357 275.5 637.56C275.5 640.763 278.41 643.36 282 643.36Z" fill="#B0B5C1"/>
<path d="M279.5 699.961C275.9 699.961 273 702.561 273 705.761C273 708.961 275.9 711.561 279.5 711.561C283.1 711.561 286 708.961 286 705.761C286 702.561 283.1 699.961 279.5 699.961Z" fill="#B0B5C1"/>
<path d="M279.5 770.66C275.9 770.66 273 773.26 273 776.46C273 779.66 275.9 782.26 279.5 782.26C283.1 782.26 286 779.66 286 776.46C286 773.26 283.1 770.66 279.5 770.66Z" fill="#B0B5C1"/>
<path d="M301.5 402.66C297.9 402.66 295 405.26 295 408.46C295 411.66 297.9 414.26 301.5 414.26C305.1 414.26 308 411.66 308 408.46C308 405.26 305.1 402.66 301.5 402.66Z" fill="#B0B5C1"/>
<path d="M294.9 468.061C291.3 468.061 288.4 470.661 288.4 473.861C288.4 477.061 291.3 479.661 294.9 479.661C298.5 479.661 301.4 477.061 301.4 473.861C301.4 470.661 298.5 468.061 294.9 468.061Z" fill="#B0B5C1"/>
<path d="M370.819 409.849L368.852 419.348L447.679 435.672L449.646 426.174L370.819 409.849Z" fill="#7588BC"/>
<path d="M376.301 316.461C376.301 316.461 377.401 326.661 369.201 344.961C363.801 357.061 352.101 365.661 350.201 381.061C350.201 381.061 386.501 347.961 393.101 369.961C397.601 384.961 399.601 393.861 399.601 393.861C399.601 393.861 411.801 356.061 398.401 337.761C385.001 319.461 376.201 316.461 376.201 316.461H376.301Z" fill="#7588BC"/>
<path opacity="0.1" d="M300.101 315.161C300.101 315.161 296.701 316.661 292.501 319.961C282.801 329.261 284.301 347.961 288.701 362.461C298.901 362.061 313.901 380.661 313.901 380.661C313.901 380.661 311.601 367.761 306.201 355.661C298.101 337.361 300.101 315.061 300.101 315.061V315.161Z" fill="white"/>
<path opacity="0.1" d="M376.601 318.861C376.601 318.861 377.301 326.661 369.201 344.961C363.801 357.061 352.101 365.661 350.201 381.061C350.201 381.061 371.201 361.961 384.201 362.461C386.601 347.161 386.201 329.361 376.201 316.361C376.101 316.361 376.601 318.761 376.601 318.761V318.861Z" fill="white"/>
<path d="M191.801 448.06C189.901 473.76 189.301 504.16 188.301 538.66C188.101 544.96 188.001 550.86 187.801 556.36C199.501 405.96 230.801 359.46 240.401 348.16C232.201 349.86 224.601 353.56 220.201 357.26C211.901 373.36 200.201 403.96 191.701 448.06H191.801Z" fill="#7588BC"/>
<path d="M416.8 339.16C416.4 339.06 415.9 338.96 415.4 338.76C423.8 346.16 448.4 383.96 460.7 575.86L470.5 575.26C461.1 427.86 444.2 367.66 430.9 343.46C426.7 341.76 422 340.26 416.9 339.16H416.8Z" fill="#7588BC"/>
<path d="M450.9 529.261C449.2 540.761 452.4 561.561 457 587.361C461 609.461 472.3 613.961 472.3 613.961C497.6 589.861 551.9 596.261 551.9 596.261C557.9 594.361 559.5 587.561 559.5 587.561C560.6 572.061 551.9 508.461 551.9 508.461C539.4 489.061 453.5 511.961 450.9 529.261Z" fill="#B6BDCE"/>
<path d="M201.3 546.961C200.9 552.661 203.7 558.061 208.5 561.061L222.5 569.561C226.4 571.961 231.3 571.861 235.1 569.461L253.3 557.961C257.2 555.461 259.7 551.261 260.1 546.661L264.5 489.461H205.6L201.4 546.961H201.3Z" fill="#7588BC"/>
<path d="M379.4 495.961V552.761C379.4 558.161 382 563.261 386.5 566.461L398.4 574.861C404.8 579.361 413.3 579.061 419.4 574.161L436.9 559.961C442 555.861 444.8 549.561 444.6 542.961L443 496.061H379.5L379.4 495.961Z" fill="#7588BC"/>
<path d="M615.001 435.26H46.8008V831.56H615.001V435.26Z" fill="url(#paint0_linear_2394_71816)"/>
<path d="M63.0995 628.16C59.9995 626.06 50.6995 625.461 42.8995 619.761C36.9995 615.461 26.1995 613.86 24.1995 623.86C22.1995 633.96 36.7995 639.261 46.1995 641.761C50.8995 642.961 55.9995 644.36 60.8995 643.66C64.8995 643.06 66.9995 640.56 67.4995 637.66C68.0995 634.36 66.4995 630.46 63.0995 628.16Z" fill="#E5A185"/>
<path d="M69.9005 648.461C62.5005 647.461 44.5005 644.061 34.3005 635.961C34.3005 635.961 24.7005 635.961 24.2005 644.861C23.7005 653.761 30.6005 655.261 30.6005 655.261C30.6005 655.261 24.2005 655.561 24.1005 662.561C24.0005 669.561 32.7005 672.661 32.7005 672.661C32.7005 672.661 29.3005 675.061 30.7005 682.861C32.2005 690.661 46.0005 691.461 49.6005 688.861C53.2005 686.261 55.3005 681.061 50.4005 677.961C50.4005 677.961 63.4005 681.361 68.2005 677.961C73.0005 674.561 73.3005 668.861 70.1005 665.261C70.1005 665.261 78.4005 665.761 79.4005 659.761C80.4005 653.761 75.3005 649.061 70.0005 648.361L69.9005 648.461Z" fill="#E5A185"/>
<path d="M633.7 641.96C632.6 636.06 625.8 634.36 625.8 634.36C625.8 634.36 631.5 630.96 630.7 624.56C629.9 618.16 621.8 616.06 615.1 616.66C615.1 616.66 615.1 620.06 614.3 620.66C610.7 623.26 598.499 623.66 595.499 631.06C592.999 637.26 596.299 640.56 603.999 640.46C599.799 640.96 593.8 642.06 590.1 644.66C583.9 649.06 586.4 656.66 593.7 657.86C600.9 658.96 604.4 658.36 604.4 658.36C604.4 658.36 596 659.96 596.2 667.36C596.4 674.76 607.7 672.76 609.8 672.36C609.8 672.36 605.7 675.36 606.3 679.36C607 683.36 612.9 683.26 614.3 684.26C614.9 684.66 615.1 687.06 615.1 687.06C615.1 687.06 621.5 685.36 624.2 680.56C626.9 675.76 625.1 671.06 623.3 669.86C623.3 669.86 630.199 667.86 632.499 662.66C634.799 657.46 631.699 653.36 628.499 652.46C628.499 652.46 634.9 647.86 633.7 642.06V641.96Z" fill="#E5A185"/>
<path opacity="0.5" d="M69.9006 648.461C64.1006 647.661 51.7006 645.361 41.7006 640.461C43.2006 640.961 44.8006 641.361 46.2006 641.761C50.9006 642.961 56.0006 644.36 60.9006 643.66C64.9006 643.06 67.0006 640.56 67.5006 637.66C68.1006 634.36 66.5006 630.46 63.1006 628.16C60.0006 626.06 50.7006 625.461 42.9006 619.761C37.0006 615.461 26.2006 613.86 24.2006 623.86C23.2006 629.26 26.8006 633.261 31.8006 636.261C28.9006 636.861 24.5006 638.86 24.2006 644.86C23.7006 653.76 30.6006 655.261 30.6006 655.261C30.6006 655.261 24.2006 655.56 24.1006 662.56C24.0006 669.56 32.7006 672.66 32.7006 672.66C32.7006 672.66 29.3006 675.06 30.7006 682.86C32.2006 690.66 46.0006 691.46 49.6006 688.86C53.2006 686.26 55.3006 681.061 50.4006 677.961C50.4006 677.961 63.4006 681.361 68.2006 677.961C73.0006 674.561 73.3006 668.861 70.1006 665.261C70.1006 665.261 78.4006 665.761 79.4006 659.761C80.4006 653.761 75.3006 649.06 70.0006 648.36L69.9006 648.461ZM25.2006 623.66C25.2006 623.66 26.0006 616.86 33.0006 617.56C40.0006 618.26 39.3006 622.361 47.2006 624.961C55.1006 627.561 62.2006 628.86 63.3006 634.56C64.4006 640.26 58.3006 643.46 48.5006 641.06C38.7006 638.56 24.3006 633.661 25.1006 623.761L25.2006 623.66ZM47.1006 688.461C43.2006 689.761 34.1006 687.76 32.5006 682.16C30.9006 676.56 33.9006 673.761 33.9006 673.761C40.2006 676.961 44.6006 675.861 48.2006 678.761C51.8006 681.661 50.9006 687.161 47.1006 688.461ZM68.7006 672.86C67.6006 679.96 51.5006 676.56 42.8006 674.16C34.1006 671.76 25.6006 667.76 26.0006 662.66C26.0006 662.66 27.4006 656.061 32.6006 657.261C37.8006 658.461 43.2006 661.16 52.4006 663.16C61.6006 665.26 69.8006 665.76 68.7006 672.86ZM68.6006 663.16C60.4006 663.46 33.8006 655.861 29.5006 652.461C25.2006 649.061 26.1006 645.361 26.0006 644.261C26.0006 644.261 26.9006 638.861 32.5006 638.761C38.1006 638.761 40.5006 644.06 51.4006 646.66C62.4006 649.36 69.2006 648.961 73.4006 652.261C77.6006 655.561 76.8006 662.86 68.6006 663.16Z" fill="#D78C74"/>
<path opacity="0.5" d="M633.7 641.96C632.6 636.06 625.8 634.36 625.8 634.36C625.8 634.36 631.5 630.96 630.7 624.56C629.9 618.16 621.8 616.06 615.1 616.66C615.1 616.66 615.1 620.06 614.3 620.66C610.7 623.26 598.499 623.66 595.499 631.06C592.999 637.26 596.299 640.56 603.999 640.46C599.799 640.96 593.8 642.06 590.1 644.66C583.9 649.06 586.4 656.66 593.7 657.86C600.9 658.96 604.4 658.36 604.4 658.36C604.4 658.36 596 659.96 596.2 667.36C596.4 674.76 607.7 672.76 609.8 672.36C609.8 672.36 605.7 675.36 606.3 679.36C607 683.36 612.9 683.26 614.3 684.26C614.9 684.66 615.1 687.06 615.1 687.06C615.1 687.06 621.5 685.36 624.2 680.56C626.9 675.76 625.1 671.06 623.3 669.86C623.3 669.86 630.199 667.86 632.499 662.66C634.799 657.46 631.699 653.36 628.499 652.46C628.499 652.46 634.9 647.86 633.7 642.06V641.96ZM601.1 638.56C597.8 638.06 596.8 635.66 596.8 635.66C596.8 635.66 595.2 631.26 599.4 628.56C603.6 625.86 612.6 624.76 615.2 622.16C617.8 619.56 618 617.56 618.4 617.56C618.8 617.56 627.8 618.56 628.7 623.76C629.5 628.96 627 632.16 621.6 634.36C616.2 636.56 605.3 639.26 601.1 638.66V638.56ZM621.3 680.86C618.6 682.66 617.9 681.76 613.1 681.26C608.4 680.76 608.4 678.56 608.1 677.56C608.1 677.56 607.8 673.56 613.4 672.26C619 670.96 621.799 670.66 622.999 673.56C624.099 676.46 624 679.16 621.3 680.96V680.86ZM630.999 658.16C632.499 662.56 625.9 667.76 614.8 669.66C603.8 671.56 599.8 671.26 598.7 667.36C597.6 663.46 601 661.16 604.9 660.16C604.9 660.16 614.7 657.56 619.7 656.16C624.7 654.76 629.499 653.86 630.999 658.16ZM611.3 654.46C603.3 656.26 590.7 658.16 589.3 651.36C588.8 648.86 589.699 645.46 596.499 643.86C603.299 642.36 611.299 640.76 616.499 639.06C621.699 637.36 628.5 635.36 631.3 642.36C634.1 649.36 619.2 652.66 611.2 654.36L611.3 654.46Z" fill="#D78C74"/>
<path d="M243.201 194.261C233.501 197.461 229.101 211.661 233.401 225.961C237.701 240.261 249.101 249.261 258.801 246.061C268.501 242.861 272.901 228.661 268.601 214.361C264.301 200.061 252.901 191.061 243.201 194.261Z" fill="#D78C74"/>
<path d="M424.901 214.06C425.001 179.26 419.901 135.26 412.801 109.26C407.301 75.5604 312.201 59.6604 284.201 105.96C275.301 127.46 260.701 167.46 255.901 207.26C255.901 206.86 255.901 206.56 255.901 206.56C255.901 206.56 230.001 312.46 324.201 318.96C418.401 325.56 428.901 275.86 424.901 213.96V214.06Z" fill="#E5A185"/>
<g opacity="0.4">
<path d="M289.301 190.26C270.601 189.96 255.201 206.26 254.901 226.66C254.601 247.06 269.601 263.76 288.201 263.96C306.901 264.26 322.301 247.96 322.601 227.56C322.901 207.16 307.901 190.46 289.301 190.26Z" fill="#E5A185"/>
<path d="M289.302 190.561C270.702 190.261 255.402 206.461 255.202 226.761C254.902 246.961 269.802 263.661 288.302 263.861C306.902 264.161 322.202 247.961 322.502 227.661C322.802 207.461 307.902 190.761 289.402 190.561H289.302Z" fill="#E5A084"/>
<path d="M289.301 190.76C270.801 190.46 255.601 206.56 255.401 226.76C255.101 246.86 269.901 263.36 288.301 263.66C306.801 263.96 322.001 247.86 322.201 227.66C322.501 207.56 307.701 191.06 289.301 190.76Z" fill="#E59F83"/>
<path d="M289.3 190.959C271 190.659 255.9 206.659 255.6 226.659C255.3 246.659 270 263.059 288.3 263.259C306.6 263.559 321.7 247.559 322 227.559C322.3 207.559 307.6 191.159 289.3 190.959Z" fill="#E49E83"/>
<path d="M289.301 191.16C271.101 190.86 256.101 206.76 255.801 226.66C255.501 246.56 270.101 262.86 288.301 263.06C306.501 263.36 321.501 247.46 321.801 227.56C322.101 207.66 307.501 191.36 289.301 191.16Z" fill="#E49D82"/>
<path d="M289.301 191.461C271.201 191.261 256.301 206.961 256.001 226.761C255.701 246.461 270.201 262.661 288.301 262.961C306.401 263.161 321.301 247.461 321.601 227.661C321.901 207.961 307.401 191.761 289.301 191.461Z" fill="#E49C81"/>
<path d="M289.3 191.66C271.3 191.46 256.5 207.06 256.2 226.66C255.9 246.26 270.3 262.36 288.3 262.56C306.3 262.76 321.1 247.16 321.4 227.56C321.7 207.96 307.3 191.86 289.3 191.66Z" fill="#E49B80"/>
<path d="M289.301 191.859C271.401 191.659 256.701 207.159 256.401 226.659C256.101 246.159 270.401 262.159 288.301 262.359C306.201 262.559 320.901 247.059 321.201 227.559C321.501 208.059 307.201 192.059 289.301 191.859Z" fill="#E49A80"/>
<path d="M289.3 192.16C271.5 191.96 256.9 207.36 256.7 226.76C256.4 246.06 270.6 261.96 288.4 262.26C306.2 262.46 320.8 247.06 321 227.66C321.3 208.36 307.1 192.46 289.3 192.16Z" fill="#E3997F"/>
<path d="M289.301 192.359C271.701 192.159 257.101 207.459 256.901 226.759C256.601 245.959 270.701 261.759 288.401 261.959C306.001 262.159 320.601 246.859 320.801 227.559C321.101 208.359 307.001 192.559 289.301 192.359Z" fill="#E3987E"/>
<path d="M289.3 192.561C271.8 192.361 257.3 207.561 257.1 226.661C256.8 245.761 270.8 261.461 288.4 261.661C305.9 261.861 320.4 246.661 320.6 227.561C320.9 208.461 306.9 192.761 289.3 192.561Z" fill="#E3977D"/>
<path d="M289.302 192.859C271.902 192.659 257.602 207.759 257.302 226.759C257.002 245.759 270.902 261.259 288.402 261.559C305.802 261.759 320.102 246.659 320.402 227.659C320.702 208.659 306.802 193.159 289.302 192.859Z" fill="#E3967C"/>
<path d="M289.301 193.061C272.001 192.861 257.801 207.861 257.501 226.761C257.201 245.561 271.101 261.061 288.301 261.261C305.601 261.461 319.801 246.461 320.101 227.561C320.401 208.761 306.501 193.261 289.301 193.061Z" fill="#E2957C"/>
<path d="M289.3 193.26C272.1 193.06 258 207.96 257.7 226.76C257.4 245.46 271.2 260.86 288.3 261.06C305.5 261.26 319.6 246.36 319.9 227.56C320.2 208.86 306.4 193.46 289.3 193.26Z" fill="#E2947B"/>
<path d="M289.301 193.459C272.201 193.259 258.201 208.059 257.901 226.659C257.601 245.259 271.301 260.459 288.301 260.759C305.401 260.959 319.401 246.159 319.701 227.559C320.001 208.959 306.301 193.759 289.301 193.459Z" fill="#E2937A"/>
<path d="M289.3 193.76C272.4 193.56 258.4 208.26 258.2 226.76C257.9 245.26 271.5 260.36 288.4 260.56C305.3 260.76 319.3 246.06 319.5 227.56C319.8 209.06 306.2 193.96 289.3 193.76Z" fill="#E29279"/>
<path d="M289.301 193.959C272.501 193.759 258.601 208.359 258.401 226.759C258.101 245.059 271.601 260.159 288.401 260.359C305.201 260.559 319.101 245.959 319.301 227.559C319.601 209.259 306.101 194.159 289.301 193.959Z" fill="#E29179"/>
<path d="M289.301 194.16C272.601 193.96 258.801 208.46 258.601 226.66C258.301 244.86 271.701 259.76 288.401 260.06C305.101 260.26 318.901 245.76 319.101 227.56C319.401 209.36 306.001 194.46 289.301 194.16Z" fill="#E19078"/>
<path d="M289.301 194.459C272.701 194.259 259.101 208.659 258.801 226.759C258.601 244.859 271.801 259.659 288.401 259.859C305.001 260.059 318.601 245.659 318.901 227.559C319.101 209.459 305.901 194.659 289.301 194.459Z" fill="#E18F77"/>
<path d="M289.3 194.66C272.8 194.46 259.3 208.76 259 226.76C258.8 244.66 271.9 259.46 288.4 259.66C304.9 259.86 318.4 245.56 318.7 227.56C318.9 209.66 305.8 194.86 289.3 194.66Z" fill="#E18E76"/>
<path d="M289.302 194.86C272.902 194.66 259.501 208.86 259.201 226.76C259.001 244.56 272.002 259.26 288.402 259.46C304.802 259.66 318.202 245.46 318.502 227.56C318.702 209.76 305.701 195.06 289.302 194.86Z" fill="#E18D75"/>
<path d="M289.301 195.16C273.101 194.96 259.701 209.06 259.401 226.76C259.201 244.46 272.101 258.96 288.401 259.16C304.601 259.36 318.001 245.26 318.301 227.56C318.501 209.86 305.601 195.36 289.301 195.16Z" fill="#E18C75"/>
<path d="M289.302 195.36C273.202 195.16 259.902 209.16 259.702 226.76C259.502 244.36 272.302 258.76 288.502 258.96C304.602 259.16 317.902 245.16 318.102 227.56C318.302 209.96 305.502 195.56 289.302 195.36Z" fill="#E08B74"/>
<path d="M289.201 195.561C273.201 195.361 260.001 209.261 259.801 226.761C259.601 244.161 272.301 258.561 288.401 258.761C304.401 258.961 317.601 245.061 317.801 227.561C318.001 210.161 305.301 195.761 289.201 195.561Z" fill="#E08A73"/>
<path d="M289.2 195.86C273.3 195.66 260.2 209.46 260 226.86C259.8 244.16 272.5 258.36 288.3 258.56C304.2 258.76 317.3 244.96 317.5 227.56C317.7 210.26 305 196.06 289.2 195.86Z" fill="#E08972"/>
<path d="M289.202 196.061C273.402 195.861 260.402 209.561 260.202 226.761C260.002 243.961 272.602 258.061 288.302 258.261C304.102 258.461 317.102 244.761 317.302 227.561C317.502 210.361 304.902 196.261 289.202 196.061Z" fill="#E08872"/>
<path d="M289.201 196.26C273.501 196.06 260.701 209.66 260.401 226.76C260.201 243.86 272.701 257.86 288.301 258.06C304.001 258.26 316.801 244.66 317.101 227.56C317.301 210.46 304.801 196.46 289.201 196.26Z" fill="#DF8771"/>
<path d="M289.2 196.459C273.7 196.259 260.9 209.759 260.6 226.759C260.4 243.659 272.8 257.559 288.3 257.759C303.8 257.959 316.6 244.459 316.9 227.459C317.1 210.559 304.7 196.659 289.2 196.459Z" fill="#DF8670"/>
<path d="M316.813 227.644C317.047 210.856 304.747 197.072 289.34 196.857C273.933 196.642 261.253 210.077 261.018 226.865C260.784 243.653 273.084 257.436 288.491 257.651C303.898 257.866 316.578 244.432 316.813 227.644Z" fill="#DF856F"/>
<path d="M316.613 227.641C316.846 210.964 304.634 197.271 289.338 197.057C274.041 196.844 261.451 210.19 261.219 226.867C260.986 243.545 273.197 257.238 288.494 257.451C303.791 257.665 316.38 244.318 316.613 227.641Z" fill="#DF846F"/>
<path d="M316.414 227.638C316.645 211.071 304.521 197.469 289.335 197.257C274.149 197.045 261.65 210.303 261.419 226.87C261.188 243.437 273.311 257.039 288.497 257.251C303.684 257.463 316.182 244.205 316.414 227.638Z" fill="#DF836E"/>
<path d="M316.214 227.636C316.443 211.234 304.408 197.768 289.332 197.557C274.256 197.347 261.849 210.472 261.62 226.873C261.391 243.274 273.427 256.741 288.502 256.951C303.578 257.162 315.985 244.037 316.214 227.636Z" fill="#DE826D"/>
<path d="M316.013 227.633C316.24 211.342 304.293 197.966 289.327 197.757C274.362 197.548 262.046 210.585 261.818 226.876C261.591 243.167 273.538 256.542 288.504 256.751C303.469 256.96 315.785 243.923 316.013 227.633Z" fill="#DE816C"/>
<path d="M315.813 227.63C316.039 211.449 304.18 198.164 289.325 197.957C274.47 197.75 262.244 210.698 262.018 226.879C261.793 243.059 273.652 256.344 288.507 256.551C303.362 256.759 315.587 243.81 315.813 227.63Z" fill="#DE806B"/>
<path d="M315.614 227.625C315.838 211.611 304.066 198.461 289.322 198.255C274.577 198.05 262.443 210.865 262.219 226.88C261.996 242.894 273.767 256.044 288.512 256.25C303.256 256.456 315.391 243.64 315.614 227.625Z" fill="#DE7F6B"/>
<path d="M315.415 227.623C315.637 211.718 303.953 198.66 289.319 198.455C274.685 198.251 262.642 210.978 262.42 226.883C262.198 242.787 273.881 255.845 288.515 256.05C303.149 256.254 315.192 243.527 315.415 227.623Z" fill="#DE7E6A"/>
<path d="M315.115 227.619C315.335 211.825 303.785 198.858 289.316 198.656C274.848 198.454 262.94 211.093 262.72 226.887C262.499 242.681 274.049 255.648 288.518 255.85C302.986 256.052 314.894 243.413 315.115 227.619Z" fill="#DD7D69"/>
<path d="M314.913 227.616C315.132 211.933 303.67 199.056 289.312 198.856C274.954 198.655 263.137 211.207 262.918 226.89C262.699 242.573 274.161 255.45 288.519 255.65C302.877 255.851 314.694 243.299 314.913 227.616Z" fill="#DD7C68"/>
<path d="M314.714 227.613C314.931 212.096 303.556 199.355 289.309 199.156C275.061 198.957 263.336 211.375 263.119 226.893C262.902 242.411 274.277 255.152 288.524 255.35C302.772 255.549 314.497 243.131 314.714 227.613Z" fill="#DD7B68"/>
<path d="M314.514 227.611C314.729 212.203 303.443 199.553 289.306 199.356C275.169 199.158 263.534 211.488 263.319 226.896C263.104 242.303 274.39 254.953 288.527 255.15C302.664 255.348 314.299 243.018 314.514 227.611Z" fill="#DD7A67"/>
<path d="M314.315 227.608C314.528 212.311 303.33 199.752 289.304 199.556C275.277 199.36 263.733 211.602 263.52 226.898C263.306 242.195 274.504 254.754 288.53 254.95C302.557 255.146 314.101 242.904 314.315 227.608Z" fill="#DD7A66"/>
<path d="M314.114 227.605C314.325 212.474 303.215 200.05 289.299 199.856C275.382 199.662 263.93 211.77 263.719 226.902C263.507 242.033 274.617 254.456 288.533 254.651C302.45 254.845 313.902 242.736 314.114 227.605Z" fill="#DC7965"/>
<path d="M313.914 227.602C314.124 212.582 303.102 200.249 289.296 200.056C275.49 199.863 264.129 211.884 263.919 226.904C263.709 241.925 274.731 254.258 288.537 254.451C302.342 254.643 313.704 242.623 313.914 227.602Z" fill="#DC7864"/>
<path d="M313.714 227.599C313.923 212.689 302.989 200.447 289.294 200.256C275.598 200.065 264.327 211.997 264.119 226.907C263.911 241.817 274.844 254.059 288.54 254.251C302.235 254.442 313.506 242.51 313.714 227.599Z" fill="#DC7764"/>
<path d="M313.415 227.596C313.621 212.852 302.82 200.746 289.29 200.557C275.76 200.368 264.626 212.167 264.42 226.912C264.214 241.657 275.015 253.763 288.544 253.951C302.074 254.14 313.209 242.341 313.415 227.596Z" fill="#DC7663"/>
<path d="M313.213 227.593C313.418 212.959 302.705 200.944 289.286 200.757C275.866 200.569 264.822 212.281 264.618 226.915C264.414 241.549 275.126 253.564 288.546 253.751C301.965 253.939 313.009 242.227 313.213 227.593Z" fill="#DB7562"/>
<path d="M313.014 227.59C313.216 213.067 302.592 201.142 289.283 200.956C275.974 200.771 265.021 212.394 264.818 226.917C264.616 241.441 275.24 253.365 288.549 253.551C301.858 253.737 312.811 242.114 313.014 227.59Z" fill="#DB7461"/>
<path d="M312.815 227.588C313.015 213.23 302.478 201.441 289.28 201.257C276.082 201.072 265.22 212.562 265.019 226.921C264.819 241.279 275.356 253.067 288.554 253.252C301.752 253.436 312.614 241.946 312.815 227.588Z" fill="#DB7361"/>
<path d="M312.615 227.585C312.814 213.337 302.365 201.639 289.278 201.457C276.19 201.274 265.419 212.676 265.22 226.923C265.021 241.171 275.469 252.869 288.557 253.052C301.645 253.234 312.416 241.833 312.615 227.585Z" fill="#DB7260"/>
<path d="M312.413 227.582C312.611 213.445 302.251 201.838 289.273 201.657C276.296 201.475 265.615 212.789 265.418 226.926C265.221 241.063 275.581 252.67 288.558 252.852C301.536 253.033 312.216 241.719 312.413 227.582Z" fill="#DB715F"/>
<path d="M312.214 227.579C312.41 213.553 302.138 202.036 289.271 201.856C276.404 201.677 265.814 212.902 265.618 226.929C265.422 240.955 275.694 252.472 288.561 252.651C301.428 252.831 312.018 241.606 312.214 227.579Z" fill="#DA705E"/>
<path d="M312.015 227.577C312.208 213.716 302.024 202.335 289.267 202.157C276.511 201.979 266.013 213.071 265.819 226.932C265.626 240.793 275.81 252.174 288.567 252.352C301.323 252.53 311.821 241.438 312.015 227.577Z" fill="#DA6F5D"/>
<path d="M311.815 227.574C312.007 213.823 301.911 202.533 289.265 202.357C276.619 202.18 266.212 213.184 266.02 226.934C265.828 240.685 275.924 251.975 288.57 252.152C301.216 252.328 311.623 241.324 311.815 227.574Z" fill="#DA6E5D"/>
<path d="M311.515 227.568C311.706 213.928 301.743 202.729 289.262 202.555C276.782 202.381 266.51 213.297 266.319 226.937C266.129 240.577 276.092 251.776 288.572 251.95C301.053 252.125 311.325 241.208 311.515 227.568Z" fill="#DA6D5C"/>
<path d="M311.314 227.566C311.502 214.091 301.627 203.028 289.257 202.855C276.887 202.683 266.707 213.466 266.518 226.94C266.33 240.415 276.206 251.478 288.576 251.651C300.946 251.823 311.126 241.04 311.314 227.566Z" fill="#DA6C5B"/>
<path d="M311.114 227.563C311.301 214.199 301.514 203.226 289.254 203.055C276.995 202.884 266.905 213.579 266.719 226.943C266.532 240.307 276.319 251.279 288.579 251.451C300.838 251.622 310.928 240.927 311.114 227.563Z" fill="#D96B5A"/>
<path d="M310.915 227.56C311.1 214.306 301.401 203.425 289.252 203.255C277.103 203.086 267.104 213.692 266.919 226.946C266.734 240.199 276.433 251.081 288.582 251.251C300.731 251.42 310.73 240.814 310.915 227.56Z" fill="#D96A5A"/>
<path d="M310.714 227.558C310.897 214.47 301.285 203.724 289.247 203.555C277.208 203.387 267.301 213.861 267.118 226.949C266.935 240.037 276.546 250.783 288.585 250.951C300.624 251.119 310.531 240.645 310.714 227.558Z" fill="#D96959"/>
<path d="M310.514 227.555C310.695 214.577 301.173 203.922 289.244 203.755C277.316 203.589 267.5 213.974 267.318 226.952C267.137 239.929 276.66 250.584 288.588 250.751C300.516 250.917 310.333 240.532 310.514 227.555Z" fill="#D96858"/>
<path d="M310.314 227.552C310.494 214.685 301.06 204.12 289.242 203.955C277.424 203.79 267.698 214.087 267.519 226.954C267.339 239.821 276.774 250.386 288.591 250.551C300.409 250.716 310.135 240.419 310.314 227.552Z" fill="#D86757"/>
<path d="M310.115 227.549C310.293 214.792 300.947 204.319 289.239 204.155C277.532 203.992 267.897 214.2 267.719 226.957C267.541 239.713 276.887 250.187 288.594 250.351C300.302 250.514 309.937 240.305 310.115 227.549Z" fill="#D86657"/>
<path d="M309.914 227.546C310.09 214.956 300.831 204.617 289.234 204.455C277.637 204.294 268.094 214.369 267.918 226.96C267.742 239.551 277.001 249.889 288.598 250.051C300.194 250.213 309.738 240.137 309.914 227.546Z" fill="#D86556"/>
<path d="M309.614 227.543C309.788 215.062 300.663 204.816 289.231 204.656C277.8 204.496 268.392 214.484 268.218 226.965C268.044 239.445 277.169 249.692 288.6 249.852C300.032 250.011 309.44 240.023 309.614 227.543Z" fill="#D86455"/>
<path d="M309.414 227.54C309.587 215.17 300.55 205.014 289.229 204.856C277.908 204.698 268.591 214.597 268.418 226.967C268.245 239.337 277.283 249.493 288.603 249.651C299.924 249.81 309.241 239.91 309.414 227.54Z" fill="#D86354"/>
<path d="M309.215 227.537C309.386 215.333 300.436 205.313 289.226 205.156C278.015 205 268.79 214.766 268.619 226.971C268.449 239.175 277.398 249.195 288.609 249.352C299.819 249.508 309.045 239.742 309.215 227.537Z" fill="#D76253"/>
<path d="M309.014 227.535C309.182 215.441 300.321 205.511 289.221 205.356C278.121 205.201 268.986 214.879 268.817 226.973C268.649 239.067 277.51 248.997 288.61 249.152C299.71 249.307 308.845 239.628 309.014 227.535Z" fill="#D76153"/>
<path d="M308.814 227.532C308.981 215.548 300.208 205.709 289.219 205.556C278.229 205.402 269.185 214.993 269.018 226.976C268.85 238.959 277.624 248.798 288.613 248.952C299.602 249.105 308.647 239.515 308.814 227.532Z" fill="#D76052"/>
<path d="M308.615 227.529C308.78 215.711 300.095 206.008 289.216 205.856C278.337 205.704 269.384 215.161 269.219 226.979C269.054 238.797 277.739 248.5 288.618 248.652C299.497 248.804 308.45 239.347 308.615 227.529Z" fill="#D75F51"/>
<path d="M308.415 227.526C308.579 215.819 299.982 206.206 289.213 206.056C278.445 205.906 269.583 215.274 269.419 226.982C269.256 238.689 277.853 248.302 288.621 248.452C299.39 248.602 308.252 239.234 308.415 227.526Z" fill="#D75E50"/>
<path d="M308.214 227.523C308.376 215.927 299.867 206.405 289.209 206.256C278.551 206.107 269.779 215.388 269.617 226.984C269.455 238.581 277.964 248.103 288.622 248.252C299.28 248.401 308.052 239.12 308.214 227.523Z" fill="#D65D50"/>
<path d="M289.1 206.46C278.6 206.36 269.9 215.46 269.8 226.96C269.6 238.46 278 247.86 288.6 247.96C299.1 248.06 307.8 238.96 307.9 227.46C308.1 215.96 299.7 206.56 289.1 206.46Z" fill="#D65C4F"/>
<path d="M289.102 206.659C278.702 206.559 270.102 215.559 270.002 226.959C269.802 238.259 278.102 247.559 288.602 247.759C299.002 247.859 307.602 238.859 307.702 227.459C307.902 216.159 299.602 206.859 289.102 206.659Z" fill="#D65B4E"/>
<path d="M289.101 206.86C278.801 206.76 270.401 215.66 270.201 226.86C270.001 238.06 278.301 247.26 288.501 247.36C298.801 247.46 307.201 238.56 307.401 227.36C307.601 216.16 299.301 206.96 289.101 206.86Z" fill="#D65A4D"/>
<path d="M289.1 207.059C278.9 206.959 270.6 215.759 270.4 226.859C270.2 237.959 278.4 247.059 288.5 247.159C298.7 247.259 307 238.459 307.2 227.359C307.4 216.259 299.2 207.159 289.1 207.059Z" fill="#D5594C"/>
<path d="M289.101 207.36C279.001 207.26 270.801 215.96 270.601 226.96C270.401 237.86 278.501 246.86 288.501 247.06C298.601 247.16 306.801 238.46 307.001 227.46C307.201 216.56 299.101 207.56 289.101 207.36Z" fill="#D5584C"/>
<path d="M289.102 207.559C279.202 207.459 271.002 216.059 270.802 226.859C270.702 237.659 278.602 246.559 288.502 246.659C298.402 246.759 306.602 238.159 306.802 227.359C306.902 216.559 299.002 207.659 289.102 207.559Z" fill="#D5574B"/>
<path d="M289.101 207.761C279.301 207.661 271.201 216.161 271.101 226.861C271.001 237.561 278.801 246.361 288.601 246.461C298.401 246.561 306.501 238.061 306.601 227.361C306.701 216.661 298.901 207.861 289.101 207.761Z" fill="#D5564A"/>
<path d="M289.102 208.059C279.402 207.959 271.402 216.359 271.302 226.959C271.202 237.559 278.902 246.159 288.602 246.359C298.302 246.459 306.302 238.059 306.402 227.459C306.502 216.859 298.802 208.259 289.102 208.059Z" fill="#D55549"/>
<path d="M289.101 208.261C279.501 208.161 271.601 216.461 271.501 226.961C271.401 237.361 279.001 245.961 288.601 246.061C298.201 246.161 306.101 237.861 306.201 227.361C306.301 216.961 298.701 208.361 289.101 208.261Z" fill="#D45449"/>
<path d="M289.1 208.46C279.6 208.36 271.8 216.56 271.7 226.86C271.6 237.16 279.1 245.66 288.6 245.76C298.1 245.86 305.9 237.66 306 227.36C306.1 217.06 298.6 208.56 289.1 208.46Z" fill="#D45348"/>
<path d="M289.101 208.761C279.801 208.661 272.101 216.761 271.901 226.961C271.801 237.161 279.201 245.461 288.601 245.661C297.901 245.761 305.601 237.661 305.801 227.461C305.901 217.261 298.501 208.961 289.101 208.761Z" fill="#D45247"/>
</g>
<g opacity="0.4">
<path d="M410.219 249.655C422.198 233.168 418.543 210.091 402.056 198.113C385.568 186.134 362.492 189.789 350.513 206.276C338.535 222.763 342.19 245.84 358.677 257.818C375.164 269.797 398.24 266.142 410.219 249.655Z" fill="#E5A185"/>
<path d="M410.191 249.825C422.019 233.365 418.263 210.434 401.803 198.606C385.343 186.778 362.412 190.533 350.584 206.993C338.756 223.453 342.511 246.385 358.971 258.213C375.431 270.041 398.363 266.285 410.191 249.825Z" fill="#E5A084"/>
<path d="M410.259 250.042C421.905 233.655 418.061 210.931 401.674 199.286C385.288 187.64 362.563 191.484 350.918 207.87C339.272 224.257 343.116 246.981 359.503 258.627C375.889 270.272 398.614 266.429 410.259 250.042Z" fill="#E59F83"/>
<path d="M410.049 248.991C421.516 232.614 417.536 210.041 401.159 198.574C384.782 187.107 362.209 191.087 350.742 207.464C339.275 223.841 343.255 246.413 359.632 257.881C376.009 269.348 398.581 265.368 410.049 248.991Z" fill="#E49E83"/>
<path d="M410.151 249.377C421.47 233.031 417.394 210.605 401.048 199.286C384.702 187.967 362.276 192.043 350.957 208.389C339.638 224.735 343.714 247.162 360.06 258.48C376.406 269.799 398.833 265.723 410.151 249.377Z" fill="#E49D82"/>
<path d="M409.894 248.385C421.005 232.097 416.808 209.886 400.52 198.775C384.233 187.664 362.022 191.861 350.911 208.149C339.8 224.437 343.997 246.648 360.285 257.758C376.572 268.869 398.783 264.672 409.894 248.385Z" fill="#E49C81"/>
<path d="M410.049 248.887C421.013 232.633 416.724 210.569 400.469 199.605C384.215 188.641 362.151 192.93 351.187 209.184C340.224 225.439 344.513 247.503 360.767 258.467C377.021 269.43 399.085 265.141 410.049 248.887Z" fill="#E49B80"/>
<path d="M409.913 248.068C420.702 231.829 416.284 209.92 400.046 199.131C383.807 188.342 361.898 192.76 351.109 208.998C340.32 225.237 344.738 247.146 360.976 257.935C377.215 268.724 399.124 264.306 409.913 248.068Z" fill="#E49A80"/>
<path d="M409.656 247.304C420.241 231.13 415.709 209.437 399.534 198.853C383.36 188.269 361.667 192.8 351.083 208.975C340.498 225.15 345.03 246.842 361.205 257.426C377.379 268.011 399.072 263.479 409.656 247.304Z" fill="#E3997F"/>
<path d="M409.836 247.828C420.276 231.691 415.657 210.147 399.52 199.707C383.383 189.268 361.838 193.886 351.399 210.023C340.959 226.161 345.578 247.705 361.715 258.145C377.852 268.584 399.397 263.965 409.836 247.828Z" fill="#E3987E"/>
<path d="M409.699 247.238C419.967 231.122 415.225 209.733 399.109 199.466C382.992 189.199 361.604 193.941 351.337 210.057C341.069 226.173 345.811 247.562 361.927 257.829C378.044 268.096 399.432 263.354 409.699 247.238Z" fill="#E3977D"/>
<path d="M409.443 246.607C419.51 230.559 414.661 209.39 398.614 199.323C382.566 189.257 361.397 194.105 351.33 210.153C341.264 226.2 346.112 247.369 362.16 257.436C378.207 267.502 399.377 262.654 409.443 246.607Z" fill="#E3967C"/>
<path d="M409.336 246.139C419.233 230.116 414.266 209.104 398.242 199.208C382.219 189.312 361.207 194.279 351.311 210.302C341.415 226.325 346.382 247.337 362.405 257.233C378.428 267.129 399.44 262.162 409.336 246.139Z" fill="#E2957C"/>
<path d="M409.294 245.681C419.021 229.684 413.937 208.83 397.94 199.103C381.942 189.377 361.088 194.46 351.362 210.458C341.635 226.455 346.719 247.309 362.716 257.036C378.714 266.762 399.567 261.679 409.294 245.681Z" fill="#E2947B"/>
<path d="M409.216 245.237C418.774 229.267 413.576 208.572 397.606 199.014C381.635 189.456 360.941 194.654 351.383 210.624C341.824 226.595 347.023 247.289 362.993 256.847C378.963 266.405 399.658 261.207 409.216 245.237Z" fill="#E2937A"/>
<path d="M409.355 245.958C418.745 230.081 413.486 209.597 397.608 200.208C381.731 190.818 361.247 196.077 351.857 211.954C342.468 227.832 347.727 248.315 363.604 257.705C379.482 267.095 399.965 261.836 409.355 245.958Z" fill="#E29279"/>
<path d="M409.317 245.634C418.54 229.787 413.17 209.463 397.323 200.24C381.476 191.017 361.152 196.387 351.929 212.234C342.705 228.081 348.075 248.405 363.922 257.628C379.77 266.851 400.093 261.482 409.317 245.634Z" fill="#E29179"/>
<path d="M409.241 245.322C418.299 229.507 412.82 209.343 397.005 200.286C381.19 191.228 361.026 196.707 351.969 212.522C342.911 228.337 348.389 248.501 364.205 257.558C380.02 266.616 400.183 261.138 409.241 245.322Z" fill="#E19078"/>
<path d="M409.143 244.974C418.009 229.24 412.441 209.298 396.707 200.433C380.973 191.567 361.031 197.135 352.166 212.869C343.3 228.603 348.868 248.544 364.602 257.41C380.336 266.276 400.278 260.708 409.143 244.974Z" fill="#E18F77"/>
<path d="M409.099 244.789C417.801 229.09 412.129 209.309 396.43 200.607C380.731 191.905 360.95 197.577 352.248 213.276C343.547 228.975 349.219 248.756 364.917 257.457C380.616 266.159 400.397 260.487 409.099 244.789Z" fill="#E18E76"/>
<path d="M408.637 243.423C417.149 227.746 411.34 208.137 395.663 199.625C379.986 191.113 360.377 196.922 351.865 212.599C343.353 228.276 349.162 247.885 364.839 256.397C380.516 264.909 400.125 259.1 408.637 243.423Z" fill="#E18D75"/>
<path d="M408.527 243.217C416.851 227.628 410.961 208.241 395.371 199.917C379.781 191.593 360.395 197.483 352.07 213.073C343.746 228.663 349.636 248.049 365.226 256.373C380.816 264.697 400.202 258.807 408.527 243.217Z" fill="#E18C75"/>
<path d="M408.57 243.074C416.733 227.525 410.746 208.301 395.196 200.137C379.646 191.973 360.422 197.961 352.259 213.511C344.095 229.06 350.082 248.284 365.632 256.448C381.182 264.612 400.406 258.624 408.57 243.074Z" fill="#E08B74"/>
<path d="M408.576 242.945C416.58 227.437 410.497 208.376 394.989 200.372C379.481 192.367 360.42 198.45 352.415 213.959C344.411 229.467 350.494 248.528 366.002 256.532C381.511 264.537 400.571 258.454 408.576 242.945Z" fill="#E08A73"/>
<path d="M408.46 242.884C416.281 227.468 410.124 208.63 394.708 200.809C379.292 192.988 360.455 199.145 352.634 214.561C344.813 229.977 350.97 248.815 366.386 256.636C381.802 264.457 400.639 258.3 408.46 242.884Z" fill="#E08972"/>
<path d="M408.499 242.782C416.163 227.411 409.914 208.737 394.543 201.073C379.172 193.409 360.498 199.657 352.834 215.029C345.17 230.4 351.418 249.074 366.789 256.738C382.161 264.402 400.835 258.154 408.499 242.782Z" fill="#E08872"/>
<path d="M408.07 241.623C415.551 226.285 409.181 207.786 393.843 200.305C378.504 192.824 360.005 199.193 352.524 214.532C345.043 229.87 351.413 248.369 366.751 255.85C382.09 263.331 400.589 256.962 408.07 241.623Z" fill="#DF8771"/>
<path d="M408.134 241.654C415.46 226.364 409.003 208.029 393.712 200.703C378.422 193.377 360.087 199.834 352.761 215.124C345.435 230.415 351.892 248.749 367.182 256.076C382.473 263.402 400.808 256.945 408.134 241.654Z" fill="#DF8670"/>
<path d="M408.07 241.558C415.219 226.367 408.699 208.257 393.507 201.108C378.316 193.959 360.206 200.479 353.057 215.671C345.908 230.863 352.428 248.973 367.62 256.121C382.812 263.27 400.922 256.75 408.07 241.558Z" fill="#DF856F"/>
<path d="M408.066 241.621C415.062 226.48 408.459 208.535 393.318 201.539C378.177 194.543 360.232 201.145 353.236 216.286C346.24 231.427 352.842 249.373 367.983 256.369C383.124 263.365 401.07 256.762 408.066 241.621Z" fill="#DF846F"/>
<path d="M407.659 240.54C414.477 225.44 407.762 207.671 392.662 200.853C377.561 194.034 359.793 200.749 352.974 215.849C346.156 230.95 352.87 248.719 367.971 255.537C383.072 262.355 400.84 255.641 407.659 240.54Z" fill="#DF836E"/>
<path d="M407.685 240.596C414.331 225.599 407.561 208.055 392.564 201.41C377.568 194.764 360.024 201.534 353.378 216.53C346.733 231.527 353.503 249.071 368.499 255.716C383.495 262.362 401.04 255.592 407.685 240.596Z" fill="#DE826D"/>
<path d="M407.67 240.61C414.167 225.669 407.321 208.29 392.38 201.793C377.439 195.297 360.06 202.142 353.564 217.083C347.067 232.025 353.913 249.403 368.854 255.9C383.795 262.396 401.174 255.551 407.67 240.61Z" fill="#DE816C"/>
<path d="M380.802 199.162C364.602 198.962 351.302 211.862 351.102 228.062C350.902 244.262 363.802 257.562 380.002 257.762C396.202 257.962 409.502 245.062 409.702 228.862C409.902 212.662 397.002 199.362 380.802 199.162Z" fill="#DE806B"/>
<path d="M380.801 199.362C364.801 199.162 351.601 211.962 351.401 227.962C351.201 243.962 364.001 257.162 380.001 257.362C396.001 257.562 409.201 244.762 409.401 228.762C409.601 212.762 396.801 199.562 380.801 199.362Z" fill="#DE7F6B"/>
<path d="M380.802 199.561C364.902 199.361 351.802 212.061 351.602 227.961C351.402 243.861 364.102 256.961 380.002 257.161C395.902 257.361 409.002 244.661 409.202 228.761C409.402 212.861 396.702 199.761 380.802 199.561Z" fill="#DE7E6A"/>
<path d="M380.801 199.862C365.001 199.662 352.001 212.262 351.801 228.062C351.601 243.862 364.201 256.862 380.001 257.062C395.801 257.262 408.801 244.662 409.001 228.862C409.201 213.062 396.601 200.062 380.801 199.862Z" fill="#DD7D69"/>
<path d="M380.802 200.061C365.102 199.861 352.302 212.361 352.102 228.061C351.902 243.761 364.402 256.561 380.102 256.761C395.802 256.961 408.602 244.461 408.802 228.761C409.002 213.061 396.502 200.261 380.802 200.061Z" fill="#DD7C68"/>
<path d="M380.801 200.262C365.301 200.062 352.501 212.462 352.301 227.962C352.101 243.462 364.501 256.262 380.001 256.462C395.501 256.662 408.301 244.262 408.501 228.762C408.701 213.262 396.301 200.462 380.801 200.262Z" fill="#DD7B68"/>
<path d="M380.8 200.561C365.4 200.361 352.7 212.661 352.5 228.061C352.3 243.461 364.6 256.161 380 256.361C395.4 256.561 408.1 244.261 408.3 228.861C408.5 213.461 396.2 200.761 380.8 200.561Z" fill="#DD7A67"/>
<path d="M380.801 200.762C365.501 200.562 353.001 212.762 352.801 228.062C352.601 243.362 364.801 255.862 380.101 256.062C395.401 256.262 407.901 244.062 408.101 228.762C408.301 213.462 396.101 200.962 380.801 200.762Z" fill="#DD7A66"/>
<path d="M380.801 200.961C365.701 200.761 353.2 212.861 353 228.061C352.8 243.161 364.9 255.661 380.1 255.861C395.2 256.061 407.7 243.961 407.9 228.761C408.1 213.661 396.001 201.161 380.801 200.961Z" fill="#DC7965"/>
<path d="M380.802 201.262C365.802 201.062 353.402 213.062 353.202 228.062C353.002 243.062 365.002 255.462 380.002 255.662C395.002 255.862 407.402 243.862 407.602 228.862C407.802 213.862 395.802 201.462 380.802 201.262Z" fill="#DC7864"/>
<path d="M380.801 201.461C365.901 201.261 353.701 213.161 353.501 228.061C353.301 242.961 365.201 255.161 380.101 255.361C395.001 255.561 407.201 243.661 407.401 228.761C407.601 213.861 395.701 201.661 380.801 201.461Z" fill="#DC7764"/>
<path d="M380.802 201.661C366.002 201.461 353.902 213.261 353.702 228.061C353.502 242.861 365.302 254.961 380.102 255.161C394.902 255.361 407.002 243.561 407.202 228.761C407.402 213.961 395.602 201.861 380.802 201.661Z" fill="#DC7663"/>
<path d="M380.801 201.962C366.201 201.762 354.101 213.462 353.901 228.062C353.701 242.662 365.401 254.762 380.001 254.962C394.601 255.162 406.701 243.462 406.901 228.862C407.101 214.262 395.401 202.162 380.801 201.962Z" fill="#DB7562"/>
<path d="M380.802 202.161C366.302 201.961 354.402 213.561 354.202 228.061C354.002 242.561 365.602 254.461 380.102 254.661C394.602 254.861 406.502 243.261 406.702 228.761C406.902 214.261 395.302 202.361 380.802 202.161Z" fill="#DB7461"/>
<path d="M380.801 202.362C366.401 202.162 354.601 213.662 354.401 228.062C354.201 242.462 365.701 254.262 380.101 254.462C394.501 254.662 406.301 243.162 406.501 228.762C406.701 214.362 395.201 202.562 380.801 202.362Z" fill="#DB7361"/>
<path d="M380.8 202.561C366.5 202.361 354.8 213.761 354.6 228.061C354.4 242.361 365.8 254.061 380.1 254.261C394.4 254.461 406.1 243.061 406.3 228.761C406.5 214.461 395.1 202.761 380.8 202.561Z" fill="#DB7260"/>
<path d="M380.801 202.862C366.701 202.662 355.101 213.962 354.901 228.062C354.701 242.162 366.001 253.762 380.101 253.962C394.201 254.162 405.801 242.862 406.001 228.762C406.201 214.662 394.901 203.062 380.801 202.862Z" fill="#DB715F"/>
<path d="M380.8 203.061C366.8 202.861 355.3 214.061 355.1 228.061C354.9 242.061 366.1 253.561 380.1 253.761C394.1 253.961 405.6 242.761 405.8 228.761C406 214.761 394.8 203.261 380.8 203.061Z" fill="#DA705E"/>
<path d="M380.802 203.262C366.902 203.062 355.501 214.162 355.301 228.062C355.101 241.962 366.202 253.362 380.102 253.562C394.002 253.762 405.402 242.662 405.602 228.762C405.802 214.862 394.702 203.462 380.802 203.262Z" fill="#DA6F5D"/>
<path d="M380.8 203.561C367.1 203.361 355.8 214.361 355.6 228.161C355.4 241.861 366.4 253.161 380.2 253.361C393.9 253.561 405.2 242.561 405.4 228.761C405.6 215.061 394.6 203.761 380.9 203.561H380.8Z" fill="#DA6E5D"/>
<path d="M380.802 203.761C367.202 203.561 356.002 214.461 355.802 228.061C355.602 241.661 366.502 252.861 380.102 253.061C393.702 253.261 404.902 242.361 405.102 228.761C405.302 215.161 394.402 203.961 380.802 203.761Z" fill="#DA6D5C"/>
<path d="M380.801 203.962C367.301 203.762 356.201 214.562 356.001 228.062C355.801 241.562 366.601 252.662 380.101 252.862C393.601 253.062 404.701 242.262 404.901 228.762C405.101 215.262 394.301 204.162 380.801 203.962Z" fill="#DA6C5B"/>
<path d="M380.802 204.261C367.402 204.061 356.402 214.761 356.302 228.161C356.102 241.561 366.802 252.561 380.202 252.661C393.602 252.861 404.602 242.161 404.702 228.761C404.902 215.361 394.202 204.361 380.802 204.261Z" fill="#D96B5A"/>
<path d="M380.801 204.462C367.601 204.262 356.701 214.862 356.501 228.062C356.301 241.262 366.901 252.162 380.101 252.362C393.301 252.562 404.201 241.962 404.401 228.762C404.601 215.562 394.001 204.662 380.801 204.462Z" fill="#D96A5A"/>
<path d="M380.802 204.661C367.702 204.461 356.902 214.961 356.702 228.061C356.502 241.161 367.002 251.961 380.102 252.161C393.202 252.361 404.002 241.861 404.202 228.761C404.402 215.661 393.902 204.861 380.802 204.661Z" fill="#D96959"/>
<path d="M380.701 204.962C367.701 204.762 357.001 215.162 356.901 228.162C356.701 241.162 367.101 251.862 380.101 251.962C393.101 252.162 403.801 241.762 403.901 228.762C404.101 215.762 393.701 205.062 380.701 204.962Z" fill="#D96858"/>
<path d="M380.7 205.161C367.8 204.961 357.301 215.261 357.101 228.161C356.901 241.061 367.201 251.561 380.101 251.761C393.001 251.961 403.5 241.661 403.7 228.761C403.9 215.861 393.6 205.361 380.7 205.161Z" fill="#D86757"/>
<path d="M380.702 205.362C368.002 205.162 357.502 215.362 357.302 228.062C357.102 240.762 367.302 251.262 380.002 251.462C392.702 251.662 403.202 241.462 403.402 228.762C403.602 216.062 393.402 205.562 380.702 205.362Z" fill="#D86657"/>
<path d="M380.701 205.562C368.101 205.362 357.701 215.462 357.601 228.062C357.401 240.662 367.501 251.062 380.101 251.162C392.701 251.362 403.101 241.262 403.201 228.662C403.401 216.062 393.301 205.662 380.701 205.562Z" fill="#D86556"/>
<path d="M380.702 205.862C368.202 205.662 358.002 215.662 357.802 228.162C357.602 240.662 367.602 250.862 380.102 251.062C392.602 251.262 402.802 241.262 403.002 228.762C403.202 216.262 393.202 206.062 380.702 205.862Z" fill="#D86455"/>
<path d="M380.701 206.062C368.401 205.862 358.201 215.762 358.001 228.062C357.801 240.362 367.701 250.562 380.001 250.762C392.301 250.962 402.501 241.062 402.701 228.762C402.901 216.462 393.001 206.262 380.701 206.062Z" fill="#D86354"/>
<path d="M380.702 206.261C368.502 206.061 358.402 215.861 358.302 228.061C358.102 240.261 367.902 250.361 380.102 250.461C392.302 250.661 402.402 240.861 402.502 228.661C402.702 216.461 392.902 206.361 380.702 206.261Z" fill="#D76253"/>
<path d="M380.701 206.562C368.601 206.362 358.701 216.062 358.501 228.162C358.301 240.262 368.001 250.162 380.101 250.362C392.201 250.562 402.101 240.862 402.301 228.762C402.501 216.662 392.801 206.762 380.701 206.562Z" fill="#D76153"/>
<path d="M380.7 206.761C368.7 206.561 358.9 216.161 358.7 228.161C358.5 240.161 368.1 249.961 380.1 250.161C392.1 250.361 401.9 240.761 402.1 228.761C402.3 216.761 392.7 206.961 380.7 206.761Z" fill="#D76052"/>
<path d="M380.701 206.962C368.901 206.762 359.101 216.262 359.001 228.062C358.801 239.862 368.301 249.662 380.101 249.762C391.901 249.962 401.701 240.462 401.801 228.662C402.001 216.862 392.501 207.062 380.701 206.962Z" fill="#D75F51"/>
<path d="M380.7 207.261C369 207.061 359.4 216.461 359.2 228.161C359 239.861 368.4 249.461 380.1 249.661C391.8 249.861 401.4 240.461 401.6 228.761C401.8 217.061 392.4 207.461 380.7 207.261Z" fill="#D75E50"/>
<path d="M380.702 207.462C369.102 207.262 359.602 216.562 359.402 228.162C359.202 239.762 368.502 249.262 380.102 249.462C391.702 249.662 401.202 240.362 401.402 228.762C401.602 217.162 392.302 207.662 380.702 207.462Z" fill="#D65D50"/>
<path d="M380.7 207.661C369.2 207.461 359.8 216.661 359.7 228.161C359.5 239.661 368.7 249.061 380.2 249.161C391.7 249.361 401.1 240.161 401.2 228.661C401.4 217.161 392.2 207.761 380.7 207.661Z" fill="#D65C4F"/>
<path d="M380.702 207.861C369.402 207.661 360.102 216.761 359.902 228.061C359.702 239.361 368.802 248.661 380.102 248.861C391.402 249.061 400.702 239.961 400.902 228.661C401.102 217.361 392.002 208.061 380.702 207.861Z" fill="#D65B4E"/>
<path d="M380.701 208.161C369.501 207.961 360.301 216.961 360.101 228.161C359.901 239.361 368.901 248.561 380.101 248.761C391.301 248.961 400.501 239.961 400.701 228.761C400.901 217.561 391.901 208.361 380.701 208.161Z" fill="#D65A4D"/>
<path d="M380.702 208.361C369.602 208.161 360.502 217.061 360.402 228.161C360.202 239.261 369.102 248.361 380.202 248.461C391.302 248.661 400.402 239.761 400.502 228.661C400.702 217.561 391.802 208.461 380.702 208.361Z" fill="#D5594C"/>
<path d="M380.701 208.562C369.801 208.362 360.801 217.162 360.601 228.062C360.401 238.962 369.201 247.962 380.101 248.162C391.001 248.362 400.001 239.562 400.201 228.662C400.401 217.762 391.601 208.762 380.701 208.562Z" fill="#D5584C"/>
<path d="M380.702 208.862C369.902 208.762 361.002 217.362 360.802 228.162C360.702 238.962 369.302 247.862 380.102 248.062C390.902 248.162 399.802 239.562 400.002 228.762C400.102 217.962 391.502 209.062 380.702 208.862Z" fill="#D5574B"/>
<path d="M380.7 209.061C370 208.961 361.2 217.461 361.1 228.161C361 238.861 369.5 247.661 380.2 247.761C390.9 247.861 399.7 239.361 399.8 228.661C399.9 217.961 391.4 209.161 380.7 209.061Z" fill="#D5564A"/>
<path d="M380.702 209.261C370.102 209.161 361.502 217.561 361.302 228.161C361.202 238.761 369.602 247.361 380.202 247.561C390.802 247.661 399.402 239.261 399.602 228.661C399.702 218.061 391.302 209.461 380.702 209.261Z" fill="#D55549"/>
<path d="M380.701 209.561C370.301 209.461 361.701 217.761 361.501 228.161C361.401 238.561 369.701 247.161 380.101 247.361C390.501 247.461 399.101 239.161 399.301 228.761C399.401 218.361 391.101 209.761 380.701 209.561Z" fill="#D45449"/>
<path d="M380.702 209.761C370.402 209.661 361.902 217.861 361.802 228.161C361.702 238.461 369.902 246.961 380.202 247.061C390.502 247.161 399.002 238.961 399.102 228.661C399.202 218.361 391.002 209.861 380.702 209.761Z" fill="#D45348"/>
<path d="M380.701 209.962C370.501 209.862 362.101 217.962 362.001 228.162C361.901 238.362 370.001 246.762 380.201 246.862C390.401 246.962 398.801 238.862 398.901 228.662C399.001 218.462 390.901 210.062 380.701 209.962Z" fill="#D45247"/>
</g>
<path d="M445.101 196.96C435.501 193.46 423.801 202.16 419.101 216.36C414.401 230.56 418.401 244.86 428.001 248.36C437.601 251.86 449.301 243.16 454.001 228.96C458.701 214.76 454.701 200.46 445.101 196.96Z" fill="#E5A185"/>
<path d="M446.1 230.46C436.7 236.46 426.8 234.46 419.6 228.56C419.8 240.46 417.2 263.16 400 286.26C386.2 304.76 356.5 310.86 334.4 310.06C281.7 308.06 267.9 291.96 257.1 270.16C264.5 293.96 282.7 316.06 324.1 318.96C400.8 324.36 422 292.36 425.1 246.86C426 247.46 426.9 247.96 427.9 248.36C437.5 251.86 449.2 243.16 453.9 228.96C455.1 225.26 455.7 221.66 455.9 218.16C454.2 223.06 451 227.36 446.1 230.46Z" fill="#D78C74"/>
<path opacity="0.5" d="M275.801 173.061C275.801 173.061 271.801 187.961 271.201 199.161L311.701 206.261C311.701 206.261 327.201 182.361 322.601 146.061L275.801 172.961V173.061Z" fill="#D78C74"/>
<path d="M429.201 222.761L438.001 224.061C438.001 210.161 448.301 205.561 448.301 205.561C431.601 199.461 429.201 222.761 429.201 222.761Z" fill="#D78C74"/>
<path opacity="0.5" d="M363.101 146.16C363.101 146.16 344.001 178.66 357.701 204.56L405.501 206.76C405.501 206.76 410.501 188.86 407.701 175.06C405.001 161.26 363.101 146.16 363.101 146.16Z" fill="#D78C74"/>
<path d="M384.401 187.561C364.801 186.061 357.701 204.561 357.701 204.561C357.701 204.561 360.901 216.861 381.501 217.161C405.301 217.461 405.501 206.061 405.501 206.061C405.501 206.061 404.001 189.161 384.401 187.561Z" fill="white"/>
<path d="M271.201 199.161C271.201 199.161 268.101 210.661 289.001 211.761C309.901 212.861 311.801 206.261 311.801 206.261C311.801 206.261 291.901 168.061 271.301 199.161H271.201Z" fill="white"/>
<path d="M299 192.66C294.7 191.26 289.3 195.66 287 202.56C285.9 205.76 285.8 208.86 286.3 211.46C287.2 211.46 288.1 211.66 289.1 211.66C294.2 211.96 298.1 211.66 301.2 211.26C301.8 210.16 302.4 208.96 302.8 207.66C305.1 200.76 303.4 193.96 299.1 192.56L299 192.66Z" fill="url(#paint1_linear_2394_71816)"/>
<path opacity="0.6" d="M284.301 204.46L285.001 207.46C285.001 207.46 297.401 206.46 296.201 200.86C295.001 195.26 284.301 204.46 284.301 204.46Z" fill="white"/>
<path d="M383.1 193.861C378.8 192.461 373.4 196.861 371.1 203.761C369.6 208.361 369.8 212.861 371.5 215.861C374.3 216.661 377.6 217.161 381.5 217.161C383.7 215.361 385.7 212.461 386.9 208.961C389.2 202.061 387.5 195.261 383.2 193.861H383.1Z" fill="url(#paint2_linear_2394_71816)"/>
<path opacity="0.6" d="M368.3 207.461L368 210.561C368 210.561 381 210.061 379.8 204.461C378.6 198.861 368.3 207.461 368.3 207.461Z" fill="white"/>
<path d="M290.701 183.86C274.401 183.56 271.201 199.16 271.201 199.16C271.201 199.16 274.501 192.66 288.801 192.26C303.101 191.86 311.701 206.26 311.701 206.26C311.701 206.26 312.201 184.26 290.601 183.86H290.701Z" fill="#381911"/>
<path d="M275.801 173.061C290.301 164.561 313.301 170.161 321.501 161.761C324.601 158.561 322.701 146.061 322.701 146.061C278.701 152.061 275.901 172.961 275.901 172.961L275.801 173.061Z" fill="#422E26"/>
<path d="M363.1 146.161C363.1 146.161 357.2 155.861 359.3 159.261C366.1 170.061 395.9 166.661 407.6 175.661C407.6 175.661 410.7 154.961 363 146.061L363.1 146.161Z" fill="#422E26"/>
<path d="M383.701 186.561C361.801 186.061 357.801 204.561 357.801 204.561C357.801 204.561 364.401 194.861 383.801 196.261C403.201 197.561 405.601 206.761 405.601 206.761C405.601 206.761 405.601 187.161 383.801 186.661L383.701 186.561Z" fill="#381911"/>
<path d="M337.3 255.76C300.4 256.36 296 248.26 296 248.26C296 248.26 288.4 278.16 333.3 278.56C376.2 278.86 371.7 250.46 371.5 248.86C371.5 249.56 371.2 255.26 337.3 255.86V255.76Z" fill="#6C332E"/>
<path d="M363.2 253.56C358.2 254.66 350.2 255.66 337.3 255.86C320.1 256.16 309.9 254.46 304 252.66C303.3 257.76 302.3 262.96 301.1 268.06C306.2 273.76 315.7 278.46 333.4 278.56C352 278.66 361.7 273.46 366.7 267.26C366.1 265.56 365.4 263.86 364.9 262.06C364 259.36 363.6 256.46 363.2 253.56Z" fill="white"/>
<path opacity="0.4" d="M363.201 253.56C358.201 254.66 350.201 255.66 337.301 255.86C320.101 256.16 309.901 254.46 304.001 252.66C303.801 254.36 303.501 256.06 303.201 257.76C322.701 252.56 345.901 258.86 365.701 268.36C366.001 267.96 366.401 267.66 366.701 267.26C366.101 265.56 365.401 263.86 364.901 262.06C364.001 259.36 363.601 256.46 363.201 253.56Z" fill="#C3BBA5"/>
<path d="M323.801 216.161C323.801 216.161 310.001 206.061 305.001 223.661C300.001 241.261 335.201 251.961 344.901 233.461C354.601 215.061 329.501 180.561 329.501 180.561C329.501 180.561 334.401 201.761 323.701 216.161H323.801Z" fill="#E5A185"/>
<path opacity="0.2" d="M323.8 216.161C323.8 216.161 310.4 206.661 305.4 222.461C312.5 224.161 320 225.461 327.4 225.861C331.8 215.261 333.3 203.861 333.7 191.361C332.7 191.061 331.7 190.761 330.7 190.461C331 197.961 330 207.761 323.9 216.061L323.8 216.161Z" fill="white"/>
<path d="M346.5 61.96C248.9 68.46 263.1 176.56 263.1 176.56C268.9 144.36 289 104.56 304.4 103.76C304.4 103.76 317.7 114.66 337.7 115.06C355.6 115.46 380.4 102.46 380.4 102.46C398.2 102.06 418.6 157.26 421 201.76C421.5 211.96 430.4 200.16 430.4 200.16C430.4 200.16 442.2 55.66 346.5 62.06V61.96Z" fill="#4F372D"/>
<path d="M397.5 70.3614C368.6 26.3614 274.6 39.1614 274.6 39.1614C265.5 89.1614 300.4 100.361 300.4 100.361C300.4 100.361 381.8 85.8614 394.1 94.5614C406.4 103.261 430.5 173.161 430.5 173.161C430.5 173.161 448.9 109.061 437.4 81.6614C429.4 62.6614 397.5 70.4614 397.5 70.4614V70.3614Z" fill="#4F372D"/>
<path d="M311 28.9609C311.3 35.5609 317 42.261 317 42.261C317 42.261 415.6 109.261 397.5 70.3609C379.4 31.4609 311 28.9609 311 28.9609Z" fill="#4F372D"/>
<path d="M398.1 58.0605C392.8 46.9605 374.4 45.5605 374.4 45.5605C374.9 54.7605 386.7 62.0605 387.3 62.3605L395.8 75.2606L413.4 72.4605L411.7 64.6606" fill="#4F372D"/>
<path d="M277.2 77.1606C248.5 85.8606 256.8 200.061 256.8 200.061C262.6 167.861 288.9 104.461 304.3 103.661C304.3 103.661 290.1 95.1605 277.2 77.0605V77.1606Z" fill="#422E26"/>
<path opacity="0.1" d="M418.9 68.4604C415.4 69.0604 417.7 65.8604 413.9 66.7604C404.8 68.8604 395.2 70.2604 385.8 68.9604C374.9 67.4604 365.4 62.6604 355.8 57.7604C350.9 55.2604 346.1 52.7604 341.1 50.6604C330.4 46.0604 317.7 41.5604 305.8 41.9604C299.9 42.1604 294.2 43.9604 288.8 46.1604C283.8 48.1604 279.7 51.2604 276.7 54.2604C275.4 55.5604 274.3 56.8604 273.4 58.1604C273.6 62.0604 274.1 65.6604 274.8 68.8604C275.2 68.5604 275.6 68.2604 276 67.9604C277.9 66.4604 280.4 65.0604 283.3 63.8604C286.2 62.6604 289.4 61.6604 293 61.3604C307.1 60.2604 320.2 65.9604 332.9 71.1604C338.1 73.3604 343.4 75.8604 349 78.1604C354.6 80.5604 360.4 82.7604 366.5 84.6604C376.8 87.7604 389.3 88.7604 399.8 85.8604C401.2 85.4604 402.6 85.1604 404 84.7604C409.4 83.0604 414.1 80.8604 418.2 78.7604C422.3 76.6604 425.8 74.7604 428.8 73.2604C430.9 72.2604 426.8 75.4604 428.6 74.9604C425.9 71.4604 422.6 69.4604 419.1 68.4604H418.9Z" fill="#E5912F"/>
<path d="M304.6 228.66C306.6 243.16 336.1 250.16 344.9 233.56C345.4 232.56 345.8 231.46 346.2 230.36C332.3 233.26 317.9 232.36 304.6 228.66Z" fill="#D78C74"/>
<path d="M439.263 85.8859C442.285 79.1304 419.887 62.5387 389.235 48.8274C358.583 35.1161 331.285 29.4774 328.263 36.2329C325.241 42.9884 347.639 59.58 378.291 73.2913C408.943 87.0026 436.241 92.6414 439.263 85.8859Z" fill="#0C4266"/>
<path d="M439.601 87.0607C436.601 93.8607 409.301 88.1607 378.601 74.4607C347.901 60.7607 325.501 42.9607 328.601 36.1607C329.201 34.8607 330.701 34.3607 332.701 34.8607C334.701 35.3607 355.501 52.1607 380.501 63.2607C407.301 75.2607 437.001 76.2607 439.701 84.0607C442.401 91.8607 440.101 86.1607 439.701 87.0607H439.601Z" fill="#092E4C"/>
<defs>
<linearGradient id="paint0_linear_2394_71816" x1="83.4008" y1="446.76" x2="597.201" y2="834.16" gradientUnits="userSpaceOnUse">
<stop stop-color="#F7F6ED"/>
<stop offset="1" stop-color="#EAE8DC"/>
</linearGradient>
<linearGradient id="paint1_linear_2394_71816" x1="291.2" y1="214.86" x2="300.8" y2="189.46" gradientUnits="userSpaceOnUse">
<stop stop-color="#5C3333"/>
<stop offset="1"/>
</linearGradient>
<linearGradient id="paint2_linear_2394_71816" x1="374.1" y1="221.161" x2="383.5" y2="192.661" gradientUnits="userSpaceOnUse">
<stop stop-color="#5C3333"/>
<stop offset="1"/>
</linearGradient>
</defs>
</svg>
