<svg width="1044" height="1425" viewBox="0 0 1044 1425" fill="none" xmlns="http://www.w3.org/2000/svg">
<path d="M263.45 828.699C259.05 833.299 364.45 1052.9 364.45 1052.9C364.45 1052.9 360.35 791.799 356.35 790.399C352.35 789.099 280.45 810.799 263.45 828.699Z" fill="url(#paint0_linear_2394_71812)"/>
<path d="M173.75 334.9C173.75 334.9 192.05 329.9 194.95 323.4C197.85 316.9 186.15 251.7 186.15 251.7L266.35 237.4C266.35 237.4 275.95 308.2 281.05 311.7C286.25 315.2 300.85 315.5 300.85 315.5C300.85 315.5 301.65 382.9 238.75 389C175.85 395.1 173.65 334.8 173.65 334.8L173.75 334.9Z" fill="url(#paint1_linear_2394_71812)"/>
<path d="M184.75 332.201C184.75 332.201 177.85 382.601 241.15 369.601C300.95 357.301 297.15 316.201 297.15 316.201L285.95 313.701L286.95 310.101C286.95 310.101 375.75 283.801 388.75 281.801L333.55 826.201C333.55 826.201 244.15 853.501 240.65 843.501C216.25 774.801 145.35 536.901 145.35 536.901C145.35 536.901 135.75 576.401 133.85 576.401C121.35 576.401 32.1501 555.101 24.2501 546.701C21.5501 543.801 40.6501 448.801 84.5501 397.101C117.15 358.801 187.85 325.801 187.85 325.801L191.05 327.601L184.75 332.401V332.201Z" fill="url(#paint2_linear_2394_71812)"/>
<path d="M194.95 323.3C194.75 323.7 194.55 324.1 194.25 324.5C204.85 330.8 217.55 334.1 229.25 335C241.85 335.9 255.05 334.7 266.65 329.2C274.45 325.5 280.85 320.2 286.15 313.7C284.15 313.2 282.45 312.5 281.15 311.7C275.95 308.2 266.45 237.4 266.45 237.4L186.25 251.7C186.25 251.7 197.85 316.9 195.05 323.4L194.95 323.3Z" fill="url(#paint3_linear_2394_71812)"/>
<path d="M321.95 182.8C312.25 179.4 301.45 189.1 297.85 204.5C294.25 219.9 297.85 234.6 307.55 238.1C317.25 241.5 329.45 232.4 333.05 216.9C336.65 201.5 331.65 186.2 321.95 182.8Z" fill="#FF9C78"/>
<path d="M127.151 183.9C116.051 181 106.751 190.4 106.251 204.9C105.851 219.4 112.851 233.1 123.951 236.1C135.051 239 145.951 230.1 146.351 215.6C146.751 201.1 138.151 186.9 127.151 183.9Z" fill="url(#paint4_linear_2394_71812)"/>
<path d="M312.65 233.3C306.45 233.8 305.85 228.1 307.55 223.5C308.95 219.6 312.45 217.1 312.05 214.1C311.45 209.9 307.55 208.6 308.15 204.6C310.15 192 317.55 186.3 322.65 187.5C333.45 190.2 337.15 231.4 312.751 233.3H312.65Z" fill="url(#paint5_linear_2394_71812)"/>
<path d="M130.15 232.799C136.35 233.099 136.75 227.399 134.95 222.799C133.35 218.999 129.85 216.499 130.15 213.599C130.55 209.399 134.55 207.999 133.75 203.899C131.35 191.399 124.55 187.199 119.55 188.599C108.85 191.699 105.75 231.699 130.25 232.799H130.15Z" fill="url(#paint6_linear_2394_71812)"/>
<path d="M283.75 97.9991C278.35 64.0991 182.95 47.7991 154.65 94.0991C145.65 115.599 135.35 155.799 130.25 195.799C130.25 195.399 130.25 195.099 130.25 195.099C130.25 195.099 102.95 299.099 197.55 304.699C288.55 310.199 303.55 265.299 299.75 203.199C299.95 168.299 290.65 123.999 283.65 97.8991L283.75 97.9991Z" fill="url(#paint7_linear_2394_71812)"/>
<g opacity="0.4">
<path d="M293.238 214.437C297.768 193.662 286.698 173.607 268.513 169.642C250.329 165.677 231.915 179.304 227.385 200.079C222.856 220.854 233.925 240.91 252.11 244.874C270.295 248.839 288.708 235.212 293.238 214.437Z" fill="#FF9C78"/>
<path d="M293.043 214.395C297.549 193.728 286.548 173.779 268.471 169.838C250.394 165.896 232.087 179.455 227.581 200.122C223.075 220.789 234.076 240.738 252.153 244.679C270.23 248.621 288.537 235.062 293.043 214.395Z" fill="#FF9B77"/>
<path d="M292.75 214.33C297.221 193.825 286.322 174.036 268.408 170.13C250.493 166.224 232.345 179.68 227.874 200.185C223.404 220.69 234.302 240.479 252.217 244.385C270.132 248.291 288.279 234.835 292.75 214.33Z" fill="#FF9A77"/>
<path d="M292.555 214.288C297.002 193.891 286.172 174.208 268.365 170.326C250.558 166.443 232.517 179.831 228.07 200.228C223.623 220.625 234.453 240.308 252.26 244.19C270.067 248.073 288.108 234.685 292.555 214.288Z" fill="#FF9976"/>
<path d="M292.358 214.246C296.77 194.01 285.999 174.478 268.3 170.619C250.601 166.76 232.676 180.036 228.264 200.271C223.852 220.506 234.623 240.039 252.322 243.898C270.022 247.757 287.946 234.481 292.358 214.246Z" fill="#FF9876"/>
<path d="M292.163 214.204C296.552 194.076 285.849 174.651 268.257 170.815C250.666 166.98 232.848 180.187 228.46 200.314C224.071 220.441 234.774 239.867 252.365 243.703C269.957 247.538 287.775 234.331 292.163 214.204Z" fill="#FF9775"/>
<path d="M291.968 214.16C296.321 194.194 285.677 174.919 268.194 171.107C250.711 167.295 233.009 180.39 228.656 200.355C224.302 220.321 234.946 239.596 252.43 243.408C269.913 247.22 287.615 234.125 291.968 214.16Z" fill="#FF9675"/>
<path d="M291.675 214.096C296.005 194.239 285.473 175.079 268.152 171.303C250.83 167.526 233.279 180.562 228.949 200.42C224.619 220.277 235.151 239.437 252.473 243.213C269.794 246.99 287.346 233.954 291.675 214.096Z" fill="#FF9574"/>
<path d="M291.48 214.054C295.775 194.359 285.302 175.349 268.088 171.596C250.875 167.843 233.439 180.767 229.145 200.463C224.85 220.159 235.323 239.168 252.537 242.921C269.75 246.674 287.186 233.75 291.48 214.054Z" fill="#FF9473"/>
<path d="M291.283 214.012C295.554 194.424 285.149 175.522 268.044 171.792C250.938 168.063 233.609 180.918 229.338 200.506C225.068 220.094 235.472 238.996 252.578 242.726C269.683 246.455 287.012 233.6 291.283 214.012Z" fill="#FF9373"/>
<path d="M291.088 213.968C295.324 194.542 284.978 175.79 267.98 172.084C250.983 168.378 233.77 181.121 229.534 200.547C225.299 219.973 235.645 238.725 252.642 242.431C269.64 246.137 286.853 233.394 291.088 213.968Z" fill="#FF9272"/>
<path d="M290.795 213.905C295.007 194.587 284.774 175.951 267.938 172.28C251.102 168.609 234.04 181.294 229.828 200.612C225.616 219.93 235.849 238.566 252.685 242.236C269.521 245.907 286.583 233.223 290.795 213.905Z" fill="#FF9172"/>
<path d="M290.6 213.863C294.777 194.707 284.602 176.221 267.875 172.574C251.147 168.926 234.2 181.499 230.024 200.655C225.847 219.811 236.022 238.297 252.749 241.944C269.477 245.591 286.424 233.019 290.6 213.863Z" fill="#FF9071"/>
<path d="M290.405 213.82C294.547 194.826 284.431 176.491 267.811 172.867C251.191 169.243 234.361 181.704 230.219 200.698C226.078 219.692 236.194 238.027 252.814 241.651C269.434 245.275 286.264 232.815 290.405 213.82Z" fill="#FF8F71"/>
<path d="M290.21 213.776C294.328 194.89 284.281 176.661 267.769 173.061C251.257 169.461 234.533 181.853 230.415 200.739C226.297 219.625 236.345 237.854 252.857 241.454C269.369 245.054 286.092 232.663 290.21 213.776Z" fill="#FF8E70"/>
<path d="M290.013 213.734C294.096 195.01 284.107 176.931 267.703 173.355C251.299 169.778 234.692 182.058 230.609 200.782C226.526 219.506 236.515 237.585 252.919 241.162C269.323 244.738 285.931 232.459 290.013 213.734Z" fill="#FF8D70"/>
<path d="M289.72 213.671C293.779 195.055 283.903 177.092 267.661 173.551C251.419 170.009 234.961 182.23 230.902 200.847C226.843 219.463 236.72 237.426 252.962 240.967C269.204 244.508 285.661 232.287 289.72 213.671Z" fill="#FF8C6F"/>
<path d="M289.525 213.627C293.549 195.172 283.732 177.36 267.597 173.842C251.463 170.325 235.122 182.433 231.098 200.888C227.074 219.342 236.892 237.155 253.026 240.672C269.16 244.19 285.502 232.082 289.525 213.627Z" fill="#FF8B6E"/>
<path d="M289.33 213.585C293.331 195.238 283.581 177.533 267.555 174.038C251.529 170.544 235.294 182.584 231.294 200.931C227.294 219.277 237.043 236.983 253.069 240.477C269.095 243.972 285.33 231.931 289.33 213.585Z" fill="#FF8A6E"/>
<path d="M289.135 213.543C293.1 195.358 283.41 177.803 267.492 174.332C251.573 170.861 235.455 182.789 231.49 200.974C227.525 219.159 237.215 236.714 253.133 240.185C269.052 243.656 285.17 231.728 289.135 213.543Z" fill="#FF896D"/>
<path d="M288.938 213.501C292.88 195.424 283.258 177.975 267.447 174.528C251.637 171.081 235.625 182.94 231.683 201.017C227.742 219.094 237.364 236.543 253.174 239.99C268.985 243.437 284.997 231.577 288.938 213.501Z" fill="#FF886D"/>
<path d="M288.646 213.435C292.552 195.52 283.032 178.232 267.384 174.82C251.735 171.408 235.883 183.165 231.977 201.08C228.071 218.995 237.59 236.284 253.239 239.695C268.887 243.107 284.739 231.35 288.646 213.435Z" fill="#FF876C"/>
<path d="M288.45 213.393C292.333 195.586 282.882 178.404 267.341 175.015C251.801 171.627 236.055 183.316 232.173 201.123C228.29 218.93 237.741 236.112 253.281 239.501C268.822 242.889 284.568 231.2 288.45 213.393Z" fill="#FF866C"/>
<path d="M288.255 213.351C292.103 195.706 282.711 178.674 267.278 175.309C251.845 171.944 236.216 183.521 232.368 201.166C228.521 218.811 237.913 235.843 253.346 239.208C268.779 242.573 284.408 230.996 288.255 213.351Z" fill="#FF856B"/>
<path d="M288.06 213.309C291.884 195.772 282.561 178.846 267.236 175.505C251.911 172.164 236.388 183.672 232.564 201.209C228.74 218.746 238.064 235.672 253.389 239.013C268.714 242.354 284.237 230.846 288.06 213.309Z" fill="#FF846A"/>
<path d="M287.768 213.244C291.556 195.868 282.335 179.103 267.172 175.797C252.009 172.491 236.646 183.896 232.858 201.272C229.069 218.647 238.29 235.413 253.453 238.719C268.616 242.025 283.979 230.619 287.768 213.244Z" fill="#FF836A"/>
<path d="M287.571 213.202C291.335 195.934 282.183 179.275 267.128 175.993C252.073 172.71 236.816 184.047 233.051 201.315C229.286 218.582 238.439 235.241 253.494 238.524C268.549 241.806 283.806 230.469 287.571 213.202Z" fill="#FF8269"/>
<path d="M287.376 213.16C291.105 196.054 282.012 179.545 267.064 176.286C252.117 173.027 236.977 184.252 233.247 201.358C229.518 218.463 238.611 234.972 253.558 238.231C268.505 241.49 283.646 230.265 287.376 213.16Z" fill="#FF8169"/>
<path d="M287.181 213.118C290.875 196.174 281.84 179.815 267.001 176.58C252.162 173.344 237.137 184.457 233.443 201.401C229.749 218.345 238.783 234.703 253.623 237.938C268.462 241.174 283.486 230.061 287.181 213.118Z" fill="#FF8068"/>
<path d="M286.985 213.073C290.656 196.238 281.69 179.986 266.959 176.774C252.227 173.562 237.31 184.606 233.639 201.442C229.968 218.278 238.934 234.53 253.666 237.742C268.397 240.953 283.315 229.909 286.985 213.073Z" fill="#FF7F68"/>
<path d="M286.693 213.01C290.328 196.336 281.465 180.244 266.895 177.068C252.326 173.891 237.568 184.833 233.932 201.507C230.297 218.18 239.16 234.272 253.73 237.449C268.299 240.626 283.057 229.684 286.693 213.01Z" fill="#FF7E67"/>
<path d="M286.496 212.968C290.108 196.402 281.312 180.417 266.851 177.264C252.389 174.11 237.738 184.984 234.126 201.55C230.514 218.116 239.309 234.101 253.771 237.254C268.232 240.407 282.884 229.534 286.496 212.968Z" fill="#FF7D66"/>
<path d="M286.301 212.924C289.877 196.52 281.141 180.685 266.787 177.555C252.434 174.426 237.898 185.187 234.322 201.591C230.745 217.995 239.482 233.83 253.835 236.96C268.189 240.089 282.724 229.328 286.301 212.924Z" fill="#FF7C66"/>
<path d="M286.106 212.882C289.659 196.586 280.991 180.857 266.745 177.751C252.499 174.645 238.071 185.338 234.518 201.634C230.964 217.93 239.632 233.659 253.878 236.765C268.124 239.871 282.552 229.178 286.106 212.882Z" fill="#FF7B65"/>
<path d="M285.911 212.84C289.428 196.705 280.819 181.127 266.682 178.045C252.544 174.962 238.231 185.543 234.713 201.677C231.196 217.811 239.805 233.389 253.942 236.472C268.08 239.555 282.393 228.974 285.911 212.84Z" fill="#FF7A65"/>
<path d="M285.618 212.776C289.112 196.75 280.615 181.288 266.639 178.241C252.663 175.193 238.501 185.715 235.007 201.741C231.512 217.768 240.009 233.23 253.985 236.277C267.961 239.324 282.123 228.803 285.618 212.776Z" fill="#FF7964"/>
<path d="M285.423 212.732C288.882 196.868 280.444 181.556 266.576 178.532C252.708 175.509 238.662 185.918 235.203 201.783C231.744 217.647 240.182 232.959 254.05 235.983C267.917 239.006 281.964 228.597 285.423 212.732Z" fill="#FF7864"/>
<path d="M285.226 212.69C288.661 196.934 280.291 181.728 266.531 178.728C252.771 175.728 238.832 186.069 235.396 201.826C231.961 217.582 240.33 232.788 254.09 235.788C267.85 238.788 281.79 228.447 285.226 212.69Z" fill="#FF7763"/>
<path d="M285.031 212.648C288.431 197.054 280.12 181.999 266.468 179.022C252.816 176.045 238.992 186.274 235.592 201.869C232.192 217.464 240.503 232.519 254.155 235.495C267.807 238.472 281.63 228.243 285.031 212.648Z" fill="#FF7662"/>
<path d="M284.738 212.585C288.114 197.098 279.916 182.159 266.426 179.218C252.935 176.277 239.262 186.447 235.885 201.933C232.509 217.42 240.707 232.359 254.198 235.3C267.688 238.242 281.361 228.072 284.738 212.585Z" fill="#FF7662"/>
<path d="M284.543 212.541C287.884 197.216 279.744 182.427 266.362 179.51C252.98 176.592 239.423 186.65 236.081 201.975C232.74 217.299 240.88 232.088 254.262 235.006C267.644 237.924 281.201 227.866 284.543 212.541Z" fill="#FF7561"/>
<path d="M284.348 212.499C287.654 197.336 279.573 182.697 266.299 179.803C253.024 176.909 239.583 186.855 236.277 202.018C232.971 217.181 241.052 231.819 254.326 234.713C267.601 237.607 281.042 227.662 284.348 212.499Z" fill="#FF7461"/>
<path d="M284.151 212.457C287.433 197.402 279.421 182.87 266.254 179.999C253.088 177.128 239.753 187.006 236.471 202.061C233.188 217.116 241.201 231.648 254.367 234.518C267.534 237.389 280.868 227.512 284.151 212.457Z" fill="#FF7360"/>
<path d="M283.956 212.415C287.203 197.521 279.249 183.14 266.191 180.293C253.132 177.446 239.914 187.211 236.667 202.104C233.42 216.997 241.373 231.378 254.432 234.226C267.49 237.073 280.709 227.308 283.956 212.415Z" fill="#FF7260"/>
<path d="M283.663 212.349C286.887 197.564 279.045 183.299 266.148 180.487C253.252 177.675 240.184 187.381 236.96 202.166C233.736 216.952 241.578 231.217 254.474 234.029C267.371 236.841 280.439 227.135 283.663 212.349Z" fill="#FF715F"/>
<path d="M283.468 212.307C286.656 197.684 278.874 183.569 266.085 180.78C253.296 177.992 240.344 187.586 237.156 202.21C233.968 216.833 241.75 230.948 254.539 233.736C267.327 236.525 280.279 226.931 283.468 212.307Z" fill="#FF705F"/>
<path d="M283.273 212.265C286.438 197.75 278.723 183.741 266.043 180.976C253.362 178.211 240.516 187.737 237.352 202.253C234.187 216.768 241.901 230.777 254.582 233.541C267.262 236.306 280.108 226.781 283.273 212.265Z" fill="#FF6F5E"/>
<path d="M283.078 212.221C286.207 197.867 278.552 184.009 265.979 181.268C253.406 178.527 240.677 187.94 237.547 202.294C234.418 216.647 242.073 230.505 254.646 233.247C267.219 235.988 279.948 226.575 283.078 212.221Z" fill="#FF6E5D"/>
<path d="M282.783 212.158C285.889 197.912 278.346 184.17 265.935 181.464C253.524 178.758 240.945 188.113 237.839 202.358C234.733 216.604 242.276 230.346 254.687 233.052C267.098 235.758 279.677 226.403 282.783 212.158Z" fill="#FF6D5D"/>
<path d="M282.588 212.116C285.659 198.032 278.174 184.44 265.871 181.758C253.568 179.075 241.105 188.318 238.035 202.401C234.964 216.485 242.448 230.077 254.751 232.759C267.054 235.442 279.517 226.199 282.588 212.116Z" fill="#FF6C5C"/>
<path d="M282.393 212.073C285.44 198.098 278.024 184.612 265.829 181.954C253.634 179.295 241.278 188.469 238.23 202.445C235.183 216.42 242.599 229.906 254.794 232.564C266.989 235.223 279.346 226.049 282.393 212.073Z" fill="#FF6B5C"/>
<path d="M282.198 212.029C285.21 198.215 277.853 184.881 265.766 182.245C253.678 179.61 241.438 188.672 238.426 202.486C235.414 216.3 242.771 229.634 254.858 232.27C266.946 234.905 279.186 225.843 282.198 212.029Z" fill="#FF6A5B"/>
<path d="M282.003 211.987C284.991 198.281 277.703 185.053 265.723 182.441C253.744 179.829 241.61 188.823 238.622 202.529C235.634 216.235 242.922 229.463 254.901 232.075C266.881 234.687 279.014 225.693 282.003 211.987Z" fill="#FF695B"/>
<path d="M281.708 211.924C284.661 198.38 277.475 185.311 265.658 182.735C253.84 180.158 241.867 189.049 238.913 202.593C235.96 216.137 243.146 229.206 254.964 231.783C266.781 234.359 278.755 225.468 281.708 211.924Z" fill="#FF685A"/>
<path d="M281.513 211.882C284.442 198.446 277.325 185.484 265.615 182.931C253.906 180.378 242.039 189.2 239.109 202.636C236.18 216.073 243.297 229.035 255.007 231.588C266.716 234.141 278.583 225.318 281.513 211.882Z" fill="#FF6759"/>
<path d="M281.318 211.838C284.212 198.564 277.154 185.752 265.552 183.222C253.95 180.693 242.199 189.403 239.305 202.678C236.411 215.952 243.469 228.763 255.071 231.293C266.672 233.823 278.424 225.112 281.318 211.838Z" fill="#FF6659"/>
<path d="M281.123 211.796C283.982 198.683 276.982 186.022 265.489 183.516C253.995 181.01 242.36 189.608 239.501 202.721C236.642 215.833 243.642 228.494 255.135 231C266.629 233.506 278.264 224.908 281.123 211.796Z" fill="#FF6558"/>
<path d="M280.928 211.754C283.763 198.749 276.832 186.194 265.446 183.712C254.06 181.229 242.532 189.759 239.697 202.764C236.861 215.768 243.792 228.323 255.178 230.805C266.564 233.288 278.092 224.758 280.928 211.754Z" fill="#FF6458"/>
<path d="M280.635 211.688C283.435 198.846 276.607 186.451 265.383 184.004C254.159 181.557 242.79 189.984 239.99 202.826C237.19 215.669 244.019 228.064 255.242 230.511C266.466 232.958 277.835 224.531 280.635 211.688Z" fill="#FF6357"/>
<path d="M280.438 211.646C283.215 198.912 276.454 186.623 265.338 184.2C254.222 181.776 242.96 190.135 240.184 202.869C237.407 215.604 244.167 227.892 255.283 230.316C266.399 232.74 277.661 224.381 280.438 211.646Z" fill="#FF6257"/>
<path d="M280.243 211.604C282.984 199.031 276.283 186.893 265.275 184.493C254.267 182.093 243.121 190.34 240.38 202.913C237.638 215.485 244.34 227.623 255.348 230.024C266.356 232.424 277.502 224.177 280.243 211.604Z" fill="#FF6156"/>
<path d="M280.048 211.562C282.766 199.097 276.133 187.066 265.233 184.689C254.333 182.312 243.293 190.491 240.575 202.956C237.858 215.421 244.491 227.452 255.391 229.829C266.291 232.205 277.33 224.027 280.048 211.562Z" fill="#FF6055"/>
<path d="M279.755 211.497C282.438 199.194 275.907 187.322 265.169 184.981C254.431 182.64 243.551 190.715 240.869 203.018C238.186 215.321 244.717 227.193 255.455 229.534C266.193 231.876 277.073 223.8 279.755 211.497Z" fill="#FF5F55"/>
<path d="M279.56 211.455C282.219 199.26 275.757 187.495 265.127 185.177C254.496 182.859 243.723 190.866 241.064 203.061C238.406 215.256 244.868 227.022 255.498 229.339C266.128 231.657 276.901 223.65 279.56 211.455Z" fill="#FF5E54"/>
<path d="M279.363 211.413C281.987 199.379 275.584 187.765 265.061 185.47C254.539 183.176 243.882 191.071 241.258 203.104C238.635 215.138 245.038 226.752 255.56 229.047C266.083 231.341 276.739 223.446 279.363 211.413Z" fill="#FF5D54"/>
<path d="M279.168 211.37C281.768 199.445 275.433 187.937 265.019 185.666C254.605 183.396 244.054 191.222 241.454 203.148C238.854 215.073 245.189 226.581 255.603 228.852C266.017 231.122 276.568 223.296 279.168 211.37Z" fill="#FF5C53"/>
<path d="M278.973 211.326C281.538 199.563 275.262 188.205 264.956 185.958C254.649 183.711 244.215 191.425 241.65 203.189C239.085 214.952 245.361 226.31 255.667 228.557C265.974 230.804 276.408 223.09 278.973 211.326Z" fill="#FF5B53"/>
<path d="M278.68 211.263C281.221 199.608 275.058 188.366 264.913 186.154C254.769 183.942 244.485 191.598 241.943 203.253C239.402 214.909 245.566 226.151 255.71 228.362C265.855 230.574 276.139 222.919 278.68 211.263Z" fill="#FF5A52"/>
<path d="M278.485 211.221C280.991 199.727 274.886 188.636 264.85 186.448C254.813 184.259 244.645 191.803 242.139 203.296C239.633 214.79 245.738 225.881 255.775 228.07C265.811 230.258 275.979 222.715 278.485 211.221Z" fill="#FF5952"/>
<path d="M278.29 211.179C280.761 199.847 274.715 188.906 264.786 186.741C254.857 184.576 244.806 192.008 242.335 203.339C239.864 214.671 245.91 225.612 255.839 227.777C265.768 229.942 275.82 222.511 278.29 211.179Z" fill="#FF5851"/>
<path d="M278.093 211.135C280.54 199.911 274.563 189.076 264.742 186.935C254.921 184.794 244.976 192.157 242.529 203.381C240.081 214.604 246.059 225.439 255.88 227.58C265.701 229.722 275.646 222.359 278.093 211.135Z" fill="#FF5750"/>
<path d="M277.898 211.093C280.31 200.031 274.391 189.347 264.678 187.229C254.966 185.111 245.136 192.362 242.725 203.424C240.313 214.486 246.231 225.17 255.944 227.288C265.657 229.405 275.486 222.155 277.898 211.093Z" fill="#FF5650"/>
<path d="M277.605 211.03C279.994 200.075 274.187 189.507 264.636 187.425C255.085 185.342 245.406 192.534 243.018 203.488C240.63 214.442 246.436 225.01 255.987 227.093C265.538 229.175 275.217 221.984 277.605 211.03Z" fill="#FF554F"/>
<path d="M277.41 210.985C279.763 200.193 274.016 189.775 264.573 187.717C255.13 185.658 245.567 192.737 243.214 203.529C240.861 214.322 246.608 224.739 256.051 226.798C265.495 228.857 275.057 221.778 277.41 210.985Z" fill="#FF544F"/>
<path d="M277.215 210.943C279.545 200.259 273.865 189.948 264.53 187.912C255.195 185.877 245.739 192.888 243.409 203.572C241.08 214.257 246.759 224.568 256.094 226.603C265.429 228.639 274.886 221.628 277.215 210.943Z" fill="#FF534E"/>
<path d="M277.018 210.901C279.312 200.379 273.692 190.218 264.465 188.206C255.238 186.194 245.898 193.093 243.603 203.616C241.309 214.138 246.929 224.299 256.157 226.311C265.384 228.323 274.724 221.424 277.018 210.901Z" fill="#FF524E"/>
<path d="M276.725 210.838C278.996 200.424 273.488 190.379 264.422 188.402C255.357 186.426 246.167 193.266 243.897 203.68C241.626 214.095 247.134 224.139 256.2 226.116C265.265 228.093 274.455 221.252 276.725 210.838Z" fill="#FF514D"/>
</g>
<path d="M248.951 40.1C223.751 26 174.951 24 174.951 24C173.551 26.3 172.651 30 173.251 32.7C151.251 31.8 146.051 36.2 146.051 36.2C141.151 62.5 147.851 69.1 155.851 78C158.751 81.3 163.051 86.7 174.951 92.1C174.951 92.1 193.251 87.9 213.251 87.6C233.751 87.2 251.151 91.1 251.151 91.1C269.051 90.8 293.751 146.3 295.951 190.9C296.451 201.1 305.351 189.4 305.351 189.4C305.351 189.4 309.351 138.4 306.951 104.5C304.951 76.2 290.751 61 282.351 62.9" fill="url(#paint8_linear_2394_71812)"/>
<path d="M146.85 65.5996C113.25 84.7996 130.35 181.1 130.55 186.8C130.55 188 130.55 188.7 130.35 190.1C130.35 190.7 132.45 190.5 132.35 189.9C132.15 188.9 132.35 187.3 132.35 186.8C136.15 157.2 159.95 92.5996 174.85 91.8996C174.85 91.8996 155.95 81.4996 146.85 65.5996Z" fill="#59352C"/>
<g opacity="0.4">
<path d="M172.93 242.361C190.762 239.505 202.414 219.683 198.955 198.088C195.496 176.493 178.236 161.302 160.404 164.158C142.571 167.015 130.919 186.836 134.378 208.432C137.837 230.027 155.097 245.218 172.93 242.361Z" fill="#FF9C78"/>
<path d="M172.882 242.064C190.605 239.225 202.19 219.55 198.757 198.119C195.324 176.687 178.174 161.615 160.45 164.454C142.727 167.292 131.142 186.967 134.575 208.399C138.008 229.831 155.158 244.903 172.882 242.064Z" fill="#FF9B77"/>
<path d="M172.835 241.769C190.45 238.948 201.967 219.42 198.561 198.152C195.154 176.883 178.113 161.93 160.499 164.751C142.885 167.572 131.367 187.101 134.774 208.369C138.18 229.637 155.221 244.59 172.835 241.769Z" fill="#FF9A77"/>
<path d="M172.803 241.572C190.308 238.768 201.752 219.342 198.362 198.183C194.973 177.024 178.035 162.145 160.53 164.949C143.025 167.752 131.581 187.178 134.971 208.337C138.36 229.496 155.298 244.376 172.803 241.572Z" fill="#FF9976"/>
<path d="M172.757 241.275C190.153 238.488 201.529 219.209 198.166 198.214C194.803 177.219 177.975 162.457 160.579 165.244C143.182 168.03 131.806 187.309 135.169 208.304C138.532 229.3 155.361 244.061 172.757 241.275Z" fill="#FF9876"/>
<path d="M172.723 241.078C189.956 238.317 201.214 219.148 197.868 198.262C194.523 177.376 177.841 162.681 160.609 165.442C143.376 168.202 132.118 187.371 135.464 208.257C138.809 229.144 155.491 243.838 172.723 241.078Z" fill="#FF9775"/>
<path d="M172.677 240.782C189.801 238.04 200.991 219.017 197.672 198.294C194.353 177.572 177.781 162.996 160.657 165.739C143.534 168.482 132.343 187.504 135.662 208.227C138.982 228.949 155.554 243.525 172.677 240.782Z" fill="#FF9675"/>
<path d="M172.629 240.485C189.643 237.76 200.767 218.884 197.474 198.325C194.181 177.766 177.718 163.309 160.704 166.034C143.689 168.759 132.566 187.635 135.859 208.194C139.152 228.753 155.615 243.211 172.629 240.485Z" fill="#FF9574"/>
<path d="M172.597 240.288C189.502 237.58 200.551 218.807 197.276 198.357C194 177.907 177.64 163.524 160.735 166.232C143.829 168.94 132.78 187.713 136.056 208.163C139.331 228.613 155.691 242.996 172.597 240.288Z" fill="#FF9473"/>
<path d="M172.55 239.991C189.347 237.3 200.329 218.674 197.079 198.388C193.83 178.101 177.58 163.837 160.783 166.527C143.987 169.217 133.005 187.844 136.255 208.13C139.504 228.417 155.754 242.681 172.55 239.991Z" fill="#FF9373"/>
<path d="M172.518 239.793C189.205 237.121 200.113 218.597 196.881 198.419C193.649 178.242 177.502 164.052 160.814 166.725C144.127 169.398 133.22 187.921 136.451 208.099C139.683 228.276 155.831 242.466 172.518 239.793Z" fill="#FF9272"/>
<path d="M172.472 239.498C189.05 236.843 199.891 218.466 196.685 198.452C193.479 178.438 177.441 164.367 160.863 167.022C144.285 169.677 133.444 188.054 136.65 208.068C139.856 228.082 155.894 242.154 172.472 239.498Z" fill="#FF9172"/>
<path d="M172.425 239.201C188.839 236.572 199.568 218.349 196.389 198.499C193.209 178.649 177.325 164.688 160.911 167.318C144.496 169.947 133.767 188.17 136.946 208.02C140.126 227.87 156.01 241.83 172.425 239.201Z" fill="#FF9071"/>
<path d="M172.392 239.004C188.698 236.392 199.353 218.272 196.191 198.531C193.029 178.79 177.247 164.904 160.942 167.515C144.636 170.127 133.981 188.247 137.143 207.989C140.305 227.73 156.087 241.616 172.392 239.004Z" fill="#FF8F71"/>
<path d="M172.344 238.709C188.54 236.115 199.128 218.141 195.992 198.563C192.857 178.986 177.185 165.218 160.988 167.812C144.792 170.407 134.204 188.38 137.34 207.958C140.476 227.535 156.148 241.303 172.344 238.709Z" fill="#FF8E70"/>
<path d="M172.314 238.51C188.401 235.933 198.915 218.062 195.796 198.593C192.678 179.125 177.109 165.431 161.021 168.008C144.934 170.585 134.42 188.456 137.539 207.925C140.657 227.393 156.226 241.086 172.314 238.51Z" fill="#FF8D70"/>
<path d="M172.266 238.214C188.244 235.655 198.69 217.931 195.598 198.626C192.506 179.321 177.046 165.746 161.068 168.305C145.09 170.865 134.643 188.589 137.736 207.894C140.828 227.199 156.287 240.774 172.266 238.214Z" fill="#FF8C6F"/>
<path d="M172.217 237.917C188.086 235.375 198.466 217.798 195.4 198.657C192.334 179.515 176.984 166.059 161.115 168.601C145.245 171.143 134.866 188.72 137.932 207.861C140.998 227.003 156.348 240.459 172.217 237.917Z" fill="#FF8B6E"/>
<path d="M172.186 237.72C187.892 235.204 198.152 217.736 195.104 198.704C192.055 179.672 176.852 166.283 161.147 168.799C145.441 171.314 135.18 188.782 138.229 207.814C141.277 226.846 156.48 240.236 172.186 237.72Z" fill="#FF8A6E"/>
<path d="M172.14 237.425C187.736 234.927 197.93 217.606 194.907 198.737C191.885 179.868 176.792 166.598 161.195 169.096C145.599 171.594 135.405 188.915 138.427 207.784C141.45 226.652 156.543 239.923 172.14 237.425Z" fill="#FF896D"/>
<path d="M172.107 237.228C187.595 234.747 197.714 217.528 194.709 198.769C191.705 180.009 176.714 166.813 161.226 169.293C145.739 171.774 135.619 188.993 138.624 207.752C141.629 226.512 156.62 239.708 172.107 237.228Z" fill="#FF886D"/>
<path d="M172.059 236.93C187.438 234.467 197.49 217.395 194.511 198.8C191.532 180.204 176.651 167.126 161.273 169.589C145.894 172.052 135.842 189.124 138.821 207.72C141.8 226.316 156.681 239.394 172.059 236.93Z" fill="#FF876C"/>
<path d="M172.013 236.635C187.282 234.189 197.267 217.264 194.315 198.832C191.362 180.4 176.591 167.44 161.321 169.886C146.052 172.332 136.067 189.257 139.02 207.689C141.972 226.121 156.744 239.081 172.013 236.635Z" fill="#FF866C"/>
<path d="M171.981 236.436C187.141 234.008 197.052 217.185 194.117 198.862C191.182 180.539 176.513 167.653 161.352 170.082C146.192 172.51 136.282 189.332 139.216 207.656C142.151 225.979 156.82 238.864 171.981 236.436Z" fill="#FF856B"/>
<path d="M171.932 236.141C186.984 233.73 196.827 217.054 193.918 198.895C191.01 180.735 176.45 167.968 161.399 170.379C146.348 172.79 136.504 189.465 139.413 207.625C142.322 225.785 156.881 238.552 171.932 236.141Z" fill="#FF846A"/>
<path d="M171.901 235.944C186.789 233.559 196.514 216.993 193.622 198.943C190.731 180.892 176.319 168.192 161.431 170.577C146.543 172.961 136.818 189.527 139.71 207.578C142.601 225.628 157.013 238.328 171.901 235.944Z" fill="#FF836A"/>
<path d="M171.855 235.646C186.633 233.279 196.291 216.86 193.426 198.973C190.561 181.086 176.258 168.505 161.48 170.872C146.701 173.239 137.043 189.658 139.908 207.545C142.773 225.432 157.076 238.014 171.855 235.646Z" fill="#FF8269"/>
<path d="M171.807 235.351C186.476 233.002 196.067 216.729 193.228 199.006C190.389 181.283 176.196 168.82 161.526 171.169C146.857 173.519 137.266 189.791 140.105 207.515C142.944 225.238 157.137 237.701 171.807 235.351Z" fill="#FF8169"/>
<path d="M171.774 235.154C186.335 232.822 195.851 216.652 193.03 199.038C190.208 181.423 176.118 169.035 161.557 171.367C146.997 173.699 137.481 189.869 140.302 207.483C143.123 225.098 157.214 237.486 171.774 235.154Z" fill="#FF8068"/>
<path d="M171.728 234.857C186.179 232.542 195.629 216.519 192.833 199.068C190.038 181.618 176.057 169.348 161.606 171.662C147.155 173.977 137.705 190 140.501 207.451C143.296 224.901 157.277 237.172 171.728 234.857Z" fill="#FF7F68"/>
<path d="M171.696 234.659C186.038 232.362 195.413 216.442 192.635 199.1C189.858 181.759 175.979 169.563 161.637 171.86C147.295 174.157 137.92 190.078 140.697 207.419C143.475 224.761 157.354 236.957 171.696 234.659Z" fill="#FF7E67"/>
<path d="M171.648 234.363C185.827 232.091 195.091 216.325 192.339 199.147C189.588 181.969 175.863 169.884 161.684 172.155C147.506 174.427 138.242 190.193 140.994 207.371C143.745 224.549 157.47 236.634 171.648 234.363Z" fill="#FF7D66"/>
<path d="M171.602 234.067C185.672 231.814 194.868 216.194 192.143 199.18C189.418 182.165 175.803 170.199 161.733 172.453C147.663 174.706 138.467 190.326 141.192 207.341C143.918 224.355 157.533 236.321 171.602 234.067Z" fill="#FF7C66"/>
<path d="M171.57 233.87C185.53 231.634 194.653 216.117 191.945 199.211C189.237 182.306 175.725 170.414 161.764 172.65C147.804 174.886 138.681 190.404 141.389 207.309C144.097 224.214 157.609 236.106 171.57 233.87Z" fill="#FF7B65"/>
<path d="M171.522 233.573C185.373 231.354 194.428 215.984 191.747 199.242C189.065 182.5 175.662 170.727 161.811 172.946C147.959 175.164 138.904 190.535 141.586 207.277C144.268 224.018 157.67 235.792 171.522 233.573Z" fill="#FF7A65"/>
<path d="M171.491 233.376C185.234 231.174 194.215 215.907 191.55 199.274C188.886 182.641 175.586 170.942 161.844 173.143C148.101 175.345 139.121 190.612 141.785 207.245C144.449 223.878 157.749 235.577 171.491 233.376Z" fill="#FF7964"/>
<path d="M171.443 233.08C185.077 230.897 193.99 215.776 191.352 199.307C188.714 182.837 175.524 171.257 161.89 173.441C148.257 175.624 139.344 190.745 141.981 207.214C144.619 223.684 157.81 235.264 171.443 233.08Z" fill="#FF7864"/>
<path d="M171.395 232.783C184.919 230.617 193.766 215.643 191.154 199.337C188.542 183.032 175.461 171.57 161.937 173.736C148.413 175.902 139.566 190.876 142.178 207.182C144.79 223.487 157.871 234.949 171.395 232.783Z" fill="#FF7763"/>
<path d="M171.364 232.586C184.724 230.446 193.452 215.581 190.858 199.385C188.264 183.189 175.33 171.794 161.969 173.934C148.608 176.074 139.88 190.938 142.475 207.135C145.069 223.331 158.003 234.726 171.364 232.586Z" fill="#FF7662"/>
<path d="M171.317 232.289C184.569 230.166 193.23 215.449 190.662 199.416C188.094 183.383 175.269 172.106 162.018 174.229C148.766 176.352 140.105 191.069 142.673 207.102C145.241 223.135 158.066 234.412 171.317 232.289Z" fill="#FF7662"/>
<path d="M171.285 232.092C184.428 229.987 193.014 215.371 190.464 199.448C187.913 183.524 175.191 172.322 162.049 174.427C148.906 176.532 140.32 191.147 142.87 207.071C145.421 222.995 158.143 234.197 171.285 232.092Z" fill="#FF7561"/>
<path d="M171.237 231.796C184.27 229.709 192.79 215.24 190.265 199.48C187.741 183.72 175.129 172.636 162.095 174.724C149.062 176.812 140.542 191.28 143.067 207.04C145.591 222.8 158.203 233.884 171.237 231.796Z" fill="#FF7461"/>
<path d="M171.191 231.499C184.115 229.429 192.567 215.107 190.069 199.511C187.571 183.914 175.068 172.949 162.144 175.019C149.219 177.089 140.767 191.411 143.266 207.008C145.764 222.604 158.266 233.569 171.191 231.499Z" fill="#FF7360"/>
<path d="M171.158 231.302C183.974 229.249 192.352 215.03 189.871 199.543C187.39 184.055 174.99 173.164 162.175 175.217C149.36 177.27 140.982 191.489 143.462 206.976C145.943 222.464 158.343 233.355 171.158 231.302Z" fill="#FF7260"/>
<path d="M171.11 231.007C183.816 228.972 192.127 214.899 189.673 199.575C187.218 184.252 174.928 173.479 162.222 175.514C149.515 177.549 141.205 191.622 143.659 206.946C146.114 222.269 158.404 233.042 171.11 231.007Z" fill="#FF715F"/>
<path d="M171.079 230.808C183.621 228.799 191.814 214.836 189.377 199.621C186.94 184.406 174.796 173.701 162.253 175.71C149.711 177.719 141.519 191.682 143.956 206.896C146.393 222.111 158.536 232.817 171.079 230.808Z" fill="#FF705F"/>
<path d="M171.032 230.513C183.466 228.521 191.591 214.705 189.18 199.654C186.769 184.603 174.736 174.016 162.302 176.007C149.868 177.999 141.743 191.815 144.154 206.866C146.565 221.917 158.599 232.504 171.032 230.513Z" fill="#FF6F5E"/>
<path d="M170.984 230.215C183.309 228.241 191.367 214.572 188.982 199.685C186.597 184.797 174.673 174.329 162.349 176.303C150.024 178.277 141.966 191.946 144.351 206.833C146.736 221.721 158.66 232.189 170.984 230.215Z" fill="#FF6E5D"/>
<path d="M170.952 230.018C183.167 228.061 191.151 214.495 188.784 199.716C186.417 184.938 174.595 174.544 162.38 176.5C150.164 178.457 142.181 192.023 144.548 206.802C146.915 221.58 158.736 231.975 170.952 230.018Z" fill="#FF6D5D"/>
<path d="M170.906 229.723C183.012 227.784 190.929 214.364 188.588 199.749C186.247 185.134 174.535 174.858 162.428 176.797C150.322 178.737 142.406 192.156 144.746 206.771C147.087 221.386 158.799 231.662 170.906 229.723Z" fill="#FF6C5C"/>
<path d="M170.857 229.426C182.855 227.504 190.704 214.231 188.389 199.78C186.075 185.328 174.472 175.171 162.475 177.093C150.478 179.014 142.628 192.287 144.943 206.739C147.258 221.19 158.86 231.347 170.857 229.426Z" fill="#FF6B5C"/>
<path d="M170.826 229.229C182.66 227.333 190.391 214.17 188.093 199.828C185.796 185.485 174.341 175.395 162.507 177.291C150.673 179.186 142.942 192.349 145.24 206.692C147.537 221.034 158.992 231.124 170.826 229.229Z" fill="#FF6A5B"/>
<path d="M170.78 228.933C182.504 227.055 190.168 214.039 187.897 199.86C185.626 185.682 174.28 175.71 162.556 177.588C150.831 179.466 143.167 192.482 145.438 206.661C147.709 220.84 159.055 230.811 170.78 228.933Z" fill="#FF695B"/>
<path d="M170.748 228.734C182.363 226.874 189.953 213.96 187.699 199.89C185.445 185.82 174.202 175.923 162.587 177.784C150.971 179.644 143.382 192.558 145.635 206.628C147.889 220.697 159.132 230.595 170.748 228.734Z" fill="#FF685A"/>
<path d="M170.699 228.439C182.206 226.596 189.728 213.829 187.501 199.923C185.273 186.017 174.14 176.238 162.633 178.081C151.127 179.924 143.604 192.691 145.832 206.597C148.059 220.503 159.193 230.282 170.699 228.439Z" fill="#FF6759"/>
<path d="M170.653 228.142C182.051 226.316 189.506 213.696 187.304 199.953C185.103 186.211 174.079 176.551 162.682 178.376C151.284 180.202 143.829 192.822 146.031 206.564C148.232 220.307 159.256 229.967 170.653 228.142Z" fill="#FF6659"/>
<path d="M170.621 227.944C181.909 226.136 189.29 213.619 187.106 199.985C184.923 186.352 174.001 176.766 162.713 178.574C151.424 180.382 144.044 192.9 146.227 206.533C148.411 220.166 159.332 229.753 170.621 227.944Z" fill="#FF6558"/>
<path d="M170.573 227.649C181.752 225.859 189.066 213.488 186.908 200.018C184.751 186.548 173.939 177.08 162.76 178.871C151.58 180.662 144.267 193.033 146.424 206.502C148.582 219.972 159.393 229.44 170.573 227.649Z" fill="#FF6458"/>
<path d="M170.541 227.452C181.557 225.688 188.752 213.426 186.612 200.066C184.472 186.705 173.807 177.304 162.791 179.069C151.776 180.833 144.581 193.095 146.721 206.455C148.861 219.816 159.525 229.217 170.541 227.452Z" fill="#FF6357"/>
<path d="M170.495 227.155C181.402 225.408 188.53 213.294 186.416 200.096C184.302 186.899 173.747 177.617 162.84 179.364C151.933 181.111 144.805 193.226 146.919 206.423C149.033 219.62 159.588 228.902 170.495 227.155Z" fill="#FF6257"/>
<path d="M170.447 226.86C181.244 225.13 188.305 213.163 186.218 200.129C184.13 187.096 173.684 177.932 162.887 179.661C152.089 181.391 145.028 193.359 147.116 206.392C149.204 219.426 159.649 228.589 170.447 226.86Z" fill="#FF6156"/>
<path d="M170.414 226.661C181.103 224.949 188.09 213.083 186.019 200.159C183.949 187.235 173.606 178.145 162.918 179.857C152.229 181.569 145.243 193.434 147.313 206.359C149.383 219.283 159.726 228.373 170.414 226.661Z" fill="#FF6055"/>
<path d="M170.368 226.365C180.948 224.671 187.867 212.952 185.823 200.192C183.779 187.431 173.546 178.46 162.966 180.154C152.387 181.849 145.467 193.567 147.511 206.328C149.555 219.089 159.789 228.06 170.368 226.365Z" fill="#FF5F55"/>
<path d="M170.336 226.168C180.806 224.491 187.651 212.875 185.625 200.223C183.599 187.572 173.468 178.675 162.997 180.352C152.527 182.029 145.682 193.645 147.708 206.297C149.735 218.948 159.866 227.845 170.336 226.168Z" fill="#FF5E54"/>
<path d="M170.289 225.871C180.595 224.22 187.329 212.758 185.329 200.27C183.329 187.782 173.352 178.997 163.045 180.648C152.738 182.298 146.004 193.76 148.005 206.248C150.005 218.737 159.982 227.522 170.289 225.871Z" fill="#FF5D54"/>
<path d="M170.24 225.576C180.438 223.942 187.105 212.627 185.131 200.303C183.157 187.978 173.289 179.311 163.092 180.945C152.894 182.578 146.227 193.893 148.201 206.218C150.175 218.542 160.043 227.209 170.24 225.576Z" fill="#FF5C53"/>
<path d="M170.21 225.379C180.299 223.763 186.891 212.55 184.934 200.335C182.978 188.119 173.213 179.526 163.125 181.142C153.036 182.758 146.444 193.971 148.4 206.186C150.357 218.402 160.121 226.995 170.21 225.379Z" fill="#FF5B53"/>
<path d="M170.162 225.081C180.141 223.483 186.667 212.417 184.736 200.365C182.806 188.313 173.151 179.839 163.171 181.438C153.192 183.036 146.666 194.102 148.597 206.154C150.527 218.206 160.182 226.68 170.162 225.081Z" fill="#FF5A52"/>
<path d="M170.13 224.884C180 223.303 186.451 212.34 184.538 200.397C182.625 188.454 173.073 180.054 163.202 181.635C153.332 183.216 146.881 194.18 148.794 206.122C150.707 218.065 160.259 226.465 170.13 224.884Z" fill="#FF5952"/>
<path d="M170.083 224.587C179.845 223.023 186.229 212.207 184.342 200.428C182.455 188.649 173.012 180.367 163.251 181.931C153.489 183.494 147.106 194.311 148.992 206.09C150.879 217.869 160.322 226.151 170.083 224.587Z" fill="#FF5851"/>
<path d="M170.035 224.292C179.687 222.746 186.004 212.076 184.144 200.46C182.283 188.845 172.95 180.682 163.298 182.228C153.645 183.774 147.329 194.444 149.189 206.059C151.05 217.675 160.383 225.838 170.035 224.292Z" fill="#FF5750"/>
<path d="M170.004 224.095C179.493 222.575 185.691 212.015 183.848 200.508C182.005 189.002 172.818 180.906 163.329 182.426C153.841 183.946 147.643 194.506 149.486 206.012C151.329 217.519 160.515 225.615 170.004 224.095Z" fill="#FF5650"/>
<path d="M169.955 223.797C179.335 222.295 185.466 211.882 183.649 200.539C181.832 189.196 172.756 181.219 163.376 182.721C153.996 184.223 147.865 194.637 149.682 205.98C151.499 217.323 160.576 225.3 169.955 223.797Z" fill="#FF554F"/>
<path d="M169.925 223.6C179.196 222.115 185.253 211.805 183.453 200.571C181.654 189.337 172.68 181.434 163.409 182.919C154.138 184.404 148.082 194.714 149.881 205.948C151.68 217.182 160.655 225.085 169.925 223.6Z" fill="#FF544F"/>
<path d="M169.877 223.305C179.039 221.838 185.028 211.674 183.255 200.603C181.482 189.533 172.617 181.749 163.456 183.216C154.294 184.683 148.305 194.847 150.078 205.918C151.851 216.988 160.715 224.772 169.877 223.305Z" fill="#FF534E"/>
<path d="M169.831 223.008C178.883 221.558 184.806 211.541 183.059 200.634C181.312 189.727 172.557 182.061 163.504 183.511C154.452 184.961 148.529 194.978 150.276 205.885C152.023 216.792 160.778 224.458 169.831 223.008Z" fill="#FF524E"/>
<path d="M169.798 222.811C178.742 221.378 184.59 211.464 182.861 200.666C181.131 189.868 172.479 182.276 163.535 183.709C154.592 185.141 148.744 195.056 150.473 205.854C152.203 216.651 160.855 224.243 169.798 222.811Z" fill="#FF514D"/>
</g>
<path d="M169.952 235.701C167.952 238.401 175.152 279.801 214.652 276.201C257.052 272.301 253.852 230.501 252.852 228.901C251.152 226.001 176.352 226.901 169.852 235.701H169.952Z" fill="#F7755C"/>
<path d="M172.051 236.3C171.451 237.2 176.051 268.8 213.551 265.3C251.451 261.7 252.151 231.4 251.551 230.6C249.951 228.2 174.251 233.1 172.051 236.3Z" fill="url(#paint9_linear_2394_71812)"/>
<path d="M178.551 235.2C178.551 235.2 179.151 241.1 183.251 244.9C192.551 253.5 234.851 249.8 241.651 240.6C246.151 234.6 245.551 229.9 245.551 229.9L178.451 235.2H178.551Z" fill="#F3ECEC"/>
<path opacity="0.3" d="M245.651 229.9L178.551 235.2C178.551 235.2 179.051 240.6 182.851 244.4C185.051 239.6 195.551 246 211.751 244.7C229.051 243.3 234.351 238.5 237.951 238.8C240.251 239 240.351 240.3 240.051 242.3C240.751 241.7 241.351 241.2 241.851 240.6C246.351 234.6 245.751 229.9 245.751 229.9H245.651Z" fill="#BAB0A2"/>
<path opacity="0.1" d="M267.151 74.2995C268.551 73.9995 269.951 73.6995 271.351 73.2995C276.751 71.7995 281.451 69.8995 285.551 68.0995C287.551 67.1995 289.351 66.3995 291.051 65.5995C287.951 63.0995 279.651 62.9995 282.251 62.6995C244.051 66.4995 223.651 49.6995 208.251 42.9995C197.651 38.3995 184.751 34.7995 172.851 35.0995C166.951 35.1995 161.151 36.7995 155.751 38.6995C151.251 40.2995 147.451 42.5995 144.451 44.9995C143.951 49.6995 143.951 53.4995 144.451 56.8995C146.151 55.9995 148.051 55.0995 150.151 54.2995C153.051 53.2995 156.251 52.3995 159.851 52.1995C174.051 51.2995 187.151 56.3995 199.951 61.0995C205.151 62.9995 210.451 65.2995 216.151 67.2995C221.751 69.3995 227.551 71.4995 233.751 73.0995C244.051 75.8995 256.651 76.7995 267.151 74.2995Z" fill="#FFBA80"/>
<path d="M229.75 133.2C229.75 133.2 214.15 165.8 232.25 186.3L275.45 180.6C275.45 180.6 278.85 166 277.35 156.6C275.95 147.2 229.75 133.1 229.75 133.1V133.2Z" fill="url(#paint10_linear_2394_71812)"/>
<path d="M149.85 159.401C147.25 167.901 145.75 182.101 145.75 182.101L186.45 187.101C205.05 166.101 196.75 132.801 196.75 132.801C196.75 132.801 152.35 151.001 149.75 159.501L149.85 159.401Z" fill="url(#paint11_linear_2394_71812)"/>
<path d="M145.852 182.1C145.852 182.1 146.752 186.2 165.252 187.4C186.152 188.7 186.552 187.1 186.552 187.1C186.552 187.1 185.552 181.9 182.352 178.1C174.952 169.4 159.752 160.1 145.852 182.1Z" fill="#F2F2F2"/>
<path opacity="0.3" d="M182.352 178.1C174.952 169.4 159.752 160.1 145.852 182.1C145.852 182.1 145.852 182.5 146.552 183C151.952 177.9 159.852 175.4 167.252 175.6C175.752 175.8 180.452 180.5 183.452 187.8C186.552 187.6 186.652 187.1 186.652 187.1C186.652 187.1 185.652 181.9 182.452 178.1H182.352Z" fill="#CEBEB3"/>
<path d="M275.35 180.299C275.35 180.299 274.65 184.799 254.65 185.999C233.65 187.199 232.15 186.399 232.15 186.399C232.15 186.399 234.35 179.099 241.15 173.699C249.55 166.999 263.75 163.299 275.35 180.299Z" fill="#F2F2F2"/>
<path opacity="0.3" d="M234.451 186.3C242.551 173.1 262.651 173 275.251 180.5C275.251 180.3 275.251 180.2 275.251 180.2C263.651 163.2 249.451 166.9 241.051 173.6C234.251 179 232.051 186.3 232.051 186.3C232.051 186.3 232.351 186.4 234.151 186.5C234.151 186.5 234.151 186.3 234.251 186.3H234.451Z" fill="#CEBEB3"/>
<path d="M160.75 187C162.15 187.1 163.65 187.3 165.25 187.4C170.55 187.7 174.45 187.9 177.45 187.9C179.15 182.5 178.35 177.2 175.95 174.5C175.35 174 174.75 173.5 174.15 173.1C173.95 173 173.65 172.9 173.45 172.8C169.05 171.5 163.75 176 161.65 183C161.25 184.4 160.95 185.7 160.85 187.1L160.75 187Z" fill="url(#paint12_linear_2394_71812)"/>
<path d="M254.652 185.999C257.652 185.799 260.252 185.599 262.452 185.299C263.552 178.499 261.652 172.499 257.752 171.199C253.352 169.699 248.052 174.799 245.952 182.499C245.652 183.699 245.452 185.099 245.352 186.499C247.952 186.399 251.052 186.299 254.652 185.999Z" fill="url(#paint13_linear_2394_71812)"/>
<path d="M166.152 164.901C149.752 164.801 145.852 182.101 145.852 182.101C145.852 182.101 154.052 172.301 165.652 172.301C183.152 172.301 186.552 187.101 186.552 187.101C186.552 187.101 187.952 165.001 166.152 164.901Z" fill="#603F37"/>
<path d="M149.851 159.399C169.151 146.799 186.651 152.999 195.151 144.799C198.451 141.699 196.851 132.699 196.851 132.699C147.851 137.899 149.851 159.399 149.851 159.399Z" fill="url(#paint14_linear_2394_71812)"/>
<path d="M229.951 132.6C229.951 132.6 226.451 139.3 228.851 142.6C236.351 153 262.251 147.2 277.551 159.3C277.551 159.3 283.651 137.7 229.951 132.5V132.6Z" fill="url(#paint15_linear_2394_71812)"/>
<path d="M254.55 163.5C233.95 162.5 232.25 186.3 232.25 186.3C232.25 186.3 237.35 171.5 255.35 171.8C273.35 172.1 275.35 180.2 275.35 180.2C275.35 180.2 275.35 164.5 254.45 163.4L254.55 163.5Z" fill="#603F37"/>
<path d="M174.651 183.6C174.651 181.2 172.951 179.5 170.651 179.7C168.351 179.9 166.551 181.9 166.451 184.3C166.451 185.7 167.051 187 168.051 187.6C169.451 187.6 170.651 187.7 171.851 187.8C173.351 187.1 174.551 185.4 174.551 183.6H174.651Z" fill="#1E1D1D"/>
<path d="M258.651 182.1C258.651 179.7 256.951 178 254.651 178.2C252.351 178.4 250.551 180.4 250.451 182.8C250.451 184.2 251.051 185.4 252.051 186.1C252.851 186.1 253.751 186.1 254.651 186C255.351 186 256.051 186 256.751 185.9C257.851 185 258.551 183.7 258.651 182.2V182.1Z" fill="#1E1D1D"/>
<path opacity="0.8" d="M167.25 179.001C165.25 179.801 163.75 181.501 164.05 182.801C164.35 184.101 166.15 184.501 168.15 183.801C170.15 183.001 171.65 181.301 171.35 180.001C171.05 178.701 169.25 178.301 167.25 179.001Z" fill="white"/>
<path opacity="0.8" d="M250.252 178.7C248.252 179.6 246.952 181.4 247.352 182.7C247.752 184 249.652 184.4 251.652 183.5C253.652 182.6 254.952 180.8 254.552 179.5C254.152 178.2 252.252 177.8 250.252 178.7Z" fill="white"/>
<path d="M199.75 193.4C199.75 193.4 183.65 190.7 180.05 204.7C175.45 222.5 210.95 232.4 220.35 213.7C229.75 195 203.75 160.9 203.75 160.9C203.75 160.9 210.15 178.7 199.75 193.4Z" fill="#FF9C78"/>
<path d="M179.85 209.699C182.15 224.199 211.95 230.599 220.35 213.699C220.85 212.699 221.25 211.599 221.55 210.499C207.65 213.699 193.15 213.199 179.75 209.699H179.85Z" fill="url(#paint16_linear_2394_71812)"/>
<path opacity="0.2" d="M209.751 179.4H205.751C205.751 179.4 203.851 192.2 200.051 194C199.451 194 198.851 194 198.151 194C191.251 193.9 185.551 196.2 185.451 199.2C185.451 202.2 190.951 204.6 197.951 204.7C204.451 204.8 210.151 203.6 210.851 200C210.851 200 213.751 186.6 209.751 179.4Z" fill="white"/>
<path opacity="0.1" d="M266.451 83.8995C268.251 81.8995 265.251 79.1995 263.351 81.0995C259.551 84.6995 255.651 87.9995 251.451 90.8995C253.351 90.8995 255.351 91.5995 257.351 92.7995C260.751 90.1995 263.651 87.0995 266.451 83.8995Z" fill="black"/>
<path opacity="0.1" d="M221.852 286.699C216.552 287.999 211.252 288.399 205.752 287.799C201.452 287.399 201.552 294.199 205.852 294.599C211.852 295.199 217.852 294.599 223.752 293.199C227.952 292.099 226.052 285.599 221.852 286.699Z" fill="black"/>
<path d="M167.45 190.701C165.65 190.801 163.95 190.701 162.15 190.601C162.05 190.601 161.95 190.601 161.85 190.601C161.65 190.601 161.45 190.601 161.25 190.601C160.85 190.601 160.45 190.501 159.95 190.401C159.05 190.201 158.25 190.001 157.35 189.801C156.35 189.501 155.15 190.201 154.95 191.201C154.75 192.301 155.35 193.301 156.35 193.601C159.95 194.601 163.75 195.101 167.55 194.801C168.55 194.801 169.55 193.901 169.55 192.801C169.55 191.801 168.65 190.801 167.55 190.801L167.45 190.701Z" fill="#E96954"/>
<path d="M263.351 189.6C262.951 188.6 261.951 188 260.851 188.2C259.951 188.4 259.051 188.7 258.051 188.8C257.851 188.8 257.651 188.8 257.451 188.8C257.451 188.8 257.051 188.8 256.951 188.8C256.451 188.8 256.051 188.9 255.551 189C253.651 189.2 251.751 189.2 249.951 189C248.951 189 247.951 190 247.951 191C247.951 192.2 248.851 192.9 249.951 193C253.951 193.4 258.051 193 261.851 191.9C262.851 191.6 263.551 190.4 263.251 189.4L263.351 189.6Z" fill="#E96954"/>
<path d="M333.65 826.2L348.55 679L341.35 294.4C335.05 296.2 328.65 298 322.65 299.8C322.65 352 322.65 805.8 313.85 816.4C306.85 824.8 279.75 837.8 267.35 843.2C294.85 838 333.65 826.1 333.65 826.1V826.2Z" fill="url(#paint17_linear_2394_71812)"/>
<path d="M894.049 1396.9H453.349C390.149 1396.9 338.949 1345.7 338.949 1282.5V207.201C338.949 144.001 390.149 92.8008 453.349 92.8008H894.049C957.249 92.8008 1008.45 144.001 1008.45 207.201V1282.5C1008.45 1345.7 957.249 1396.9 894.049 1396.9Z" fill="white"/>
<path d="M917.15 1400.4H430.25C374.05 1400.4 328.35 1354.7 328.35 1298.5V191.201C328.35 135.001 374.05 89.3008 430.25 89.3008H917.15C973.35 89.3008 1019.05 135.001 1019.05 191.201V1298.5C1019.05 1354.7 973.35 1400.4 917.15 1400.4ZM430.25 125.301C393.95 125.301 364.35 154.901 364.35 191.201V1298.5C364.35 1334.8 393.95 1364.4 430.25 1364.4H917.15C953.45 1364.4 983.05 1334.8 983.05 1298.5V191.201C983.05 154.901 953.45 125.301 917.15 125.301H430.25Z" fill="url(#paint18_linear_2394_71812)"/>
<path d="M614.549 111.499C607.149 112.899 606.149 109.299 606.249 109.099C606.249 109.099 603.949 116.799 597.949 116.799C590.249 116.799 588.349 111.799 588.349 111.799C588.349 111.799 586.749 116.199 580.149 115.699C573.549 115.199 571.249 107.599 571.249 107.599C571.249 107.599 570.649 113.799 560.049 111.799C550.849 109.999 550.749 95.8992 550.749 95.8992L523.949 89.1992H635.349L626.049 92.4992C626.049 92.4992 623.549 109.799 614.549 111.499Z" fill="url(#paint19_linear_2394_71812)"/>
<path d="M31.3498 541.701C30.4498 544.501 53.4498 553.801 80.3498 562.001C107.25 570.201 129.75 574.701 130.65 571.901C131.55 569.101 110.45 560.201 83.5498 552.001C56.6498 543.801 32.2498 538.901 31.3498 541.701Z" fill="#D0D0D9"/>
<path d="M555.45 71.9005C555.45 71.9005 555.95 65.9006 561.45 63.3006C567.65 60.3006 572.75 64.6006 572.75 64.6006C572.75 64.6006 573.25 56.8006 583.25 57.6006C593.15 58.4006 594.95 66.4005 594.95 66.4005C594.95 66.4005 597.45 61.8006 604.95 64.1006C612.45 66.4006 613.25 72.9005 613.25 72.9005C613.25 72.9005 615.75 69.3006 625.55 73.1006C635.25 76.9006 635.25 89.3006 635.25 89.3006L624.85 89.7005C624.85 89.7005 623.25 99.5006 616.75 101.801C610.15 104.101 606.25 101.101 606.25 101.101C606.25 101.101 604.15 108.201 597.55 107.701C590.95 107.201 589.85 102.301 589.85 102.301C589.85 102.301 588.05 107.901 580.85 106.801C573.75 105.801 573.05 92.4005 573.05 92.4005C573.05 92.4005 571.55 103.601 562.95 103.001C554.35 102.401 554.45 91.2005 554.45 91.2005L528.75 89.3006C528.75 89.3006 526.65 83.3005 529.95 78.9005C533.15 74.4005 546.85 71.0006 550.45 70.6006C554.05 70.2006 555.45 72.0005 555.45 72.0005V71.9005Z" fill="#FF9C78"/>
<path d="M529.95 78.8006C533.15 74.3006 546.85 70.9005 550.45 70.5005C554.05 70.1005 555.45 71.9005 555.45 71.9005C555.45 71.9005 555.95 65.9006 561.45 63.3006C567.65 60.3006 572.75 64.6006 572.75 64.6006C572.75 64.6006 573.25 56.8006 583.25 57.6006C593.15 58.4006 594.95 66.4005 594.95 66.4005C594.95 66.4005 597.45 61.8006 604.95 64.1006C612.45 66.4006 613.25 72.9005 613.25 72.9005C613.25 72.9005 615.75 69.3006 625.55 73.1006C629.75 74.7006 632.05 77.9005 633.45 81.0005C631.85 82.3005 628.65 84.8006 627.95 84.8006C627.05 84.8006 623.55 84.8006 623.55 84.8006C623.55 84.8006 611.35 74.0005 587.65 70.9005C563.95 67.8005 553.55 78.8006 553.55 78.8006C553.55 78.8006 531.75 83.0005 528.55 88.3006C528.15 85.7006 527.95 81.7005 529.95 78.9005V78.8006Z" fill="url(#paint20_linear_2394_71812)"/>
<path d="M570.949 98.4996C572.449 88.5996 571.349 72.3996 570.549 63.2996C571.949 63.8996 572.749 64.5996 572.749 64.5996C572.749 64.5996 572.849 62.4996 574.449 60.5996C575.349 69.4996 576.849 89.0996 574.849 100.5C573.449 96.5996 573.149 92.3996 573.149 92.3996C573.149 92.3996 572.749 95.5996 570.949 98.5996V98.4996Z" fill="url(#paint21_linear_2394_71812)"/>
<path d="M594.95 66.2988C594.95 66.2988 595.35 65.5988 596.25 64.8988C593.55 72.0988 592.15 91.0988 591.75 105.299C590.25 103.799 589.85 102.199 589.85 102.199C589.85 102.199 589.25 103.899 587.65 105.199C587.95 94.0988 588.95 71.2988 592.85 62.2988C594.45 64.3988 594.85 66.2988 594.85 66.2988H594.95Z" fill="url(#paint22_linear_2394_71812)"/>
<path d="M552.85 70.6C554.65 71 555.45 71.9 555.45 71.9C555.45 71.9 555.55 70.4 556.45 68.5C560.45 76.2 558.35 85.3 554.55 91.1L547.85 90.6C551.25 85.8 556.15 77.1 552.85 70.5V70.6Z" fill="url(#paint23_linear_2394_71812)"/>
<path d="M606.349 100.999C606.349 100.999 605.749 103.199 603.949 105.099C603.549 99.6992 603.249 88.0992 606.449 78.4992C607.949 73.9992 609.949 71.2992 612.049 69.6992C613.049 71.4992 613.249 72.9992 613.249 72.9992C613.249 72.9992 614.549 71.1992 618.849 71.4992C616.249 71.5992 612.649 72.8992 610.349 79.8992C607.849 87.2992 607.649 96.2992 607.849 101.999C606.849 101.599 606.249 101.099 606.249 101.099L606.349 100.999Z" fill="url(#paint24_linear_2394_71812)"/>
<path d="M628.351 89.5012H624.951C624.951 89.6012 624.751 90.7012 624.251 92.3012C624.251 89.0012 623.951 85.5012 623.551 82.7012L627.651 82.2012C627.851 83.4012 628.151 86.2012 628.351 89.6012V89.5012Z" fill="url(#paint25_linear_2394_71812)"/>
<path d="M211.149 592.699C210.949 591.999 115.049 611.799 111.249 607.599C108.749 604.799 114.349 573.999 118.249 553.799C106.249 550.899 94.1493 548.199 82.0493 545.599C67.2493 542.299 52.5493 538.899 37.7493 535.299C31.3493 569.899 21.6493 663.299 41.5493 682.399C62.5493 702.499 179.149 665.899 213.649 653.799C218.549 652.099 225.049 652.899 225.049 652.899C227.749 649.599 211.249 593.499 211.049 592.799L211.149 592.699Z" fill="url(#paint26_linear_2394_71812)"/>
<path d="M208.149 596.499C208.149 596.499 213.549 581.399 223.549 570.399C233.549 559.299 257.549 538.799 259.649 532.999C261.849 526.999 261.049 519.899 264.849 519.699C271.949 519.399 277.449 530.499 275.049 541.799C272.749 552.599 261.349 564.699 262.949 568.299C264.649 571.899 283.949 565.499 315.349 557.499C345.549 549.799 356.649 550.499 357.149 559.199C357.549 566.099 336.549 570.799 321.449 575.599C306.349 580.399 296.049 584.399 296.049 584.399C296.049 584.399 309.449 582.999 312.249 593.799C315.049 604.599 307.149 606.799 307.149 606.799C307.149 606.799 312.349 610.499 312.749 617.199C313.249 623.899 305.349 627.899 305.349 627.899C305.349 627.899 309.949 634.899 303.249 641.799C296.749 648.499 269.449 653.199 262.049 654.399C254.649 655.699 218.749 652.499 218.749 652.499L207.949 596.599L208.149 596.499Z" fill="#FF9C78"/>
<path d="M110.55 603.498C110.55 605.598 110.75 607.098 111.15 607.598C111.55 607.998 112.95 608.198 115.25 608.198C109.65 608.598 67.15 611.898 55.75 616.598L53.75 611.898C64.35 607.498 97.75 604.398 110.45 603.398L110.55 603.498Z" fill="url(#paint27_linear_2394_71812)"/>
<path d="M257.45 654.599C257.55 654.599 284.95 647.299 286.75 643.799C288.55 640.299 285.75 587.699 285.75 587.699L296.15 584.399C296.15 584.399 309.55 582.999 312.35 593.799C315.15 604.599 307.25 606.799 307.25 606.799C307.25 606.799 312.45 610.499 312.85 617.199C313.35 623.899 305.45 627.899 305.45 627.899C305.45 627.899 310.05 634.899 303.35 641.799C296.85 648.499 269.55 653.199 262.15 654.399C261.05 654.599 259.45 654.699 257.35 654.699L257.45 654.599Z" fill="url(#paint28_linear_2394_71812)"/>
<path d="M270.749 538.1C272.849 528.5 267.149 520 267.149 520C273.149 521.8 277.249 531.7 275.049 541.9C272.749 552.7 261.35 564.8 262.95 568.4C263.45 569.6 265.849 569.7 269.849 569.1C269.749 569.1 269.649 569.3 269.649 569.3C269.649 569.3 248.149 574.8 246.849 572.9C245.549 571.1 268.749 547.8 270.749 538.2V538.1Z" fill="url(#paint29_linear_2394_71812)"/>
<path d="M299.949 627.098C303.749 626.298 307.349 625.098 310.749 623.398C308.549 626.198 305.449 627.798 305.449 627.798C305.449 627.798 306.149 628.898 306.549 630.598C304.849 631.098 303.149 631.598 301.449 631.998C300.149 632.298 298.749 631.798 298.249 630.398C297.849 629.198 298.549 627.498 299.849 627.198L299.949 627.098Z" fill="url(#paint30_linear_2394_71812)"/>
<path d="M307.25 606.698C307.25 606.698 308.65 607.698 310.05 609.498C307.15 610.398 304.25 611.198 301.25 611.998C299.95 612.298 298.55 611.798 298.05 610.398C297.65 609.198 298.35 607.498 299.65 607.198C303.55 606.198 307.35 605.098 311.15 603.898C309.45 606.098 307.25 606.698 307.25 606.698Z" fill="url(#paint31_linear_2394_71812)"/>
<path d="M128.75 569.599C123.05 565.699 105.15 558.599 83.5504 551.999C66.4504 546.799 34.4504 540.899 32.1504 541.099C33.4504 536.499 35.6504 525.199 35.6504 525.199C36.1504 525.899 133.45 552.899 133.45 552.899L128.75 569.599Z" fill="url(#paint32_linear_2394_71812)"/>
<path d="M28.8496 518.3C47.5496 519.7 114.25 526.2 141.65 551.5C142.15 549.6 142.65 547.8 143.05 546.1C113.55 521.2 50.0496 514.8 30.1496 513.4C29.7496 515.1 29.2496 516.7 28.8496 518.3Z" fill="#D0D0D9"/>
<path d="M132.05 487.1L127.25 488.4L142.95 546.7C144.35 541 145.45 536.8 145.45 536.8C145.45 536.8 145.65 537.5 146.05 538.8L132.15 487.1H132.05Z" fill="#D0D0D9"/>
<path d="M311.55 325.299C311.65 344.999 291.05 371.099 251.25 382.799C210.15 394.799 182.65 380.399 173.65 360.699C168.15 348.699 170.55 336.799 179.75 329.699C176.75 331.199 172.95 333.199 168.65 335.499C164.75 343.399 164.75 353.199 169.15 362.799C174.35 374.099 184.551 382.999 197.951 387.999C205.451 390.699 213.651 392.099 222.451 392.199C231.951 392.199 242.25 390.699 252.75 387.599C296.85 374.699 316.75 346.299 316.55 325.299C316.55 316.199 312.55 308.899 305.75 304.699C303.15 305.499 300.65 306.199 298.451 306.799C306.65 309.299 311.45 315.999 311.55 325.299Z" fill="#D0D0D9"/>
<path d="M298.15 73.2998C295.65 78.8998 269.85 72.7998 240.35 59.8998C210.85 46.8998 188.05 32.9998 190.95 27.6998C195.35 19.5998 219.75 26.7998 249.25 39.7998C278.75 52.7998 300.55 67.7998 298.15 73.3998V73.2998Z" fill="#0C4266"/>
<path d="M298.249 73.9994C295.749 79.5994 269.949 73.4994 240.449 60.5994C210.949 47.5994 188.449 33.1994 190.849 27.5994C191.349 26.5994 193.349 24.5994 195.249 24.9994C197.149 25.3994 217.549 40.5994 241.449 51.1994C267.249 62.5994 295.049 64.6994 297.949 71.4994C298.349 72.4994 298.449 73.2994 298.149 73.9994H298.249Z" fill="#092E4C"/>
<defs>
<linearGradient id="paint0_linear_2394_71812" x1="350.45" y1="905.599" x2="299.45" y2="787.899" gradientUnits="userSpaceOnUse">
<stop stop-color="#7FA3ED"/>
<stop offset="1" stop-color="#6388E2"/>
</linearGradient>
<linearGradient id="paint1_linear_2394_71812" x1="242.999" y1="244.962" x2="235.168" y2="342.84" gradientUnits="userSpaceOnUse">
<stop stop-color="#D97D67"/>
<stop offset="1" stop-color="#FF9C78"/>
</linearGradient>
<linearGradient id="paint2_linear_2394_71812" x1="177.05" y1="358.401" x2="436.65" y2="849.201" gradientUnits="userSpaceOnUse">
<stop stop-color="#EBEBF5"/>
<stop offset="1" stop-color="#D7D7DF"/>
</linearGradient>
<linearGradient id="paint3_linear_2394_71812" x1="234.603" y1="275.738" x2="240.674" y2="352.48" gradientUnits="userSpaceOnUse">
<stop stop-color="#CF735D"/>
<stop offset="1" stop-color="#FF9C78"/>
</linearGradient>
<linearGradient id="paint4_linear_2394_71812" x1="100.568" y1="202.667" x2="142.224" y2="200.994" gradientUnits="userSpaceOnUse">
<stop stop-color="#F08A70"/>
<stop offset="1" stop-color="#FF9C78"/>
</linearGradient>
<linearGradient id="paint5_linear_2394_71812" x1="306.116" y1="192.752" x2="326.084" y2="225.108" gradientUnits="userSpaceOnUse">
<stop stop-color="#F08A70"/>
<stop offset="1" stop-color="#FF9C78"/>
</linearGradient>
<linearGradient id="paint6_linear_2394_71812" x1="128.172" y1="203.258" x2="111.643" y2="247.553" gradientUnits="userSpaceOnUse">
<stop stop-color="#D97D67"/>
<stop offset="1" stop-color="#FF9C78"/>
</linearGradient>
<linearGradient id="paint7_linear_2394_71812" x1="211.208" y1="90.5456" x2="211.732" y2="120.541" gradientUnits="userSpaceOnUse">
<stop stop-color="#C4664F"/>
<stop offset="1" stop-color="#FF9C78"/>
</linearGradient>
<linearGradient id="paint8_linear_2394_71812" x1="227.473" y1="32.4211" x2="225.832" y2="103.503" gradientUnits="userSpaceOnUse">
<stop stop-color="#75483B"/>
<stop offset="0.4" stop-color="#704438"/>
<stop offset="0.7" stop-color="#623C2F"/>
<stop offset="1" stop-color="#563428"/>
</linearGradient>
<linearGradient id="paint9_linear_2394_71812" x1="213.347" y1="263.877" x2="212.859" y2="256.186" gradientUnits="userSpaceOnUse">
<stop stop-color="#7C302A"/>
<stop offset="0.2" stop-color="#772E28"/>
<stop offset="0.4" stop-color="#692A26"/>
<stop offset="0.7" stop-color="#522421"/>
<stop offset="1" stop-color="#2D1A19"/>
</linearGradient>
<linearGradient id="paint10_linear_2394_71812" x1="250.52" y1="108.063" x2="250.629" y2="183.072" gradientUnits="userSpaceOnUse">
<stop stop-color="#C4664F"/>
<stop offset="1" stop-color="#FF9C78"/>
</linearGradient>
<linearGradient id="paint11_linear_2394_71812" x1="172.225" y1="109.03" x2="172.331" y2="183.84" gradientUnits="userSpaceOnUse">
<stop stop-color="#C4664F"/>
<stop offset="1" stop-color="#FF9C78"/>
</linearGradient>
<linearGradient id="paint12_linear_2394_71812" x1="168.042" y1="189.761" x2="175.287" y2="169.331" gradientUnits="userSpaceOnUse">
<stop stop-color="#704A3E"/>
<stop offset="1"/>
</linearGradient>
<linearGradient id="paint13_linear_2394_71812" x1="253.214" y1="187.274" x2="259.843" y2="165.955" gradientUnits="userSpaceOnUse">
<stop stop-color="#704A3E"/>
<stop offset="1"/>
</linearGradient>
<linearGradient id="paint14_linear_2394_71812" x1="174.293" y1="133.908" x2="173.299" y2="156.494" gradientUnits="userSpaceOnUse">
<stop stop-color="#75483B"/>
<stop offset="0.4" stop-color="#704438"/>
<stop offset="0.7" stop-color="#623C2F"/>
<stop offset="1" stop-color="#563428"/>
</linearGradient>
<linearGradient id="paint15_linear_2394_71812" x1="253.432" y1="138.09" x2="252.46" y2="159.377" gradientUnits="userSpaceOnUse">
<stop stop-color="#75483B"/>
<stop offset="0.4" stop-color="#704438"/>
<stop offset="0.7" stop-color="#623C2F"/>
<stop offset="1" stop-color="#563428"/>
</linearGradient>
<linearGradient id="paint16_linear_2394_71812" x1="200.976" y1="220.544" x2="200.691" y2="204.247" gradientUnits="userSpaceOnUse">
<stop stop-color="#F08A70"/>
<stop offset="1" stop-color="#FF9C78"/>
</linearGradient>
<linearGradient id="paint17_linear_2394_71812" x1="156.15" y1="304.6" x2="373.45" y2="691.9" gradientUnits="userSpaceOnUse">
<stop stop-color="#EBEBF5"/>
<stop offset="1" stop-color="#CDCDD5"/>
</linearGradient>
<linearGradient id="paint18_linear_2394_71812" x1="645.35" y1="95.6008" x2="685.65" y2="1018.4" gradientUnits="userSpaceOnUse">
<stop stop-color="#4E4D54"/>
<stop offset="1" stop-color="#3B3A3F"/>
</linearGradient>
<linearGradient id="paint19_linear_2394_71812" x1="579.549" y1="123.799" x2="579.549" y2="76.0992" gradientUnits="userSpaceOnUse">
<stop stop-color="#4E4D54"/>
<stop offset="1" stop-color="#3B3A3F"/>
</linearGradient>
<linearGradient id="paint20_linear_2394_71812" x1="620.623" y1="63.9422" x2="619.065" y2="93.1214" gradientUnits="userSpaceOnUse">
<stop stop-color="#FFB9A4"/>
<stop offset="1" stop-color="#FF9E78"/>
</linearGradient>
<linearGradient id="paint21_linear_2394_71812" x1="611.242" y1="107.199" x2="611.845" y2="68.804" gradientUnits="userSpaceOnUse">
<stop stop-color="#D97D67"/>
<stop offset="1" stop-color="#FF9C78"/>
</linearGradient>
<linearGradient id="paint22_linear_2394_71812" x1="630.141" y1="107.495" x2="630.744" y2="69.1001" gradientUnits="userSpaceOnUse">
<stop stop-color="#D97D67"/>
<stop offset="1" stop-color="#FF9C78"/>
</linearGradient>
<linearGradient id="paint23_linear_2394_71812" x1="553.15" y1="100.7" x2="553.15" y2="62.3" gradientUnits="userSpaceOnUse">
<stop stop-color="#D97D67"/>
<stop offset="1" stop-color="#FF9C78"/>
</linearGradient>
<linearGradient id="paint24_linear_2394_71812" x1="649.537" y1="107.8" x2="650.14" y2="69.4052" gradientUnits="userSpaceOnUse">
<stop stop-color="#D97D67"/>
<stop offset="1" stop-color="#FF9C78"/>
</linearGradient>
<linearGradient id="paint25_linear_2394_71812" x1="664.9" y1="97.6425" x2="664.137" y2="88.9294" gradientUnits="userSpaceOnUse">
<stop stop-color="#D97D67"/>
<stop offset="1" stop-color="#FF9C78"/>
</linearGradient>
<linearGradient id="paint26_linear_2394_71812" x1="140.146" y1="530.639" x2="134.368" y2="566.812" gradientUnits="userSpaceOnUse">
<stop stop-color="#D97D67"/>
<stop offset="1" stop-color="#FF9C78"/>
</linearGradient>
<linearGradient id="paint27_linear_2394_71812" x1="119.867" y1="597.983" x2="55.0311" y2="612.49" gradientUnits="userSpaceOnUse">
<stop stop-color="#D97D67"/>
<stop offset="1" stop-color="#FF9C78"/>
</linearGradient>
<linearGradient id="paint28_linear_2394_71812" x1="305.231" y1="610.303" x2="281.005" y2="615.095" gradientUnits="userSpaceOnUse">
<stop stop-color="#F08A70"/>
<stop offset="1" stop-color="#FF9C78"/>
</linearGradient>
<linearGradient id="paint29_linear_2394_71812" x1="289.484" y1="556.947" x2="257.553" y2="543.33" gradientUnits="userSpaceOnUse">
<stop stop-color="#F08A70"/>
<stop offset="1" stop-color="#FF9C78"/>
</linearGradient>
<linearGradient id="paint30_linear_2394_71812" x1="311.928" y1="622.197" x2="287.29" y2="628.601" gradientUnits="userSpaceOnUse">
<stop stop-color="#D97D67"/>
<stop offset="1" stop-color="#FF9C78"/>
</linearGradient>
<linearGradient id="paint31_linear_2394_71812" x1="309.695" y1="603.127" x2="285.31" y2="609.342" gradientUnits="userSpaceOnUse">
<stop stop-color="#D97D67"/>
<stop offset="1" stop-color="#FF9C78"/>
</linearGradient>
<linearGradient id="paint32_linear_2394_71812" x1="25.4504" y1="438.599" x2="285.15" y2="929.399" gradientUnits="userSpaceOnUse">
<stop stop-color="#EBEBF5"/>
<stop offset="1" stop-color="#D7D7DF"/>
</linearGradient>
</defs>
</svg>
