<svg width="1282" height="1600" viewBox="0 0 1282 1600" fill="none" xmlns="http://www.w3.org/2000/svg">
<path d="M1161.4 1341.8C1159.1 1342.9 1154.8 1345.7 1152.7 1345.1C1150.6 1344.5 1126.1 1316.1 1123.7 1316.7C1121.3 1317.3 1088.8 1349.6 1087.9 1352.8C1087 1356.1 1120.8 1396.1 1124.6 1405.1C1128.5 1414.1 1135.8 1425.4 1135.8 1425.4C1135.8 1425.4 1164.9 1433.5 1178.9 1412.6C1192.9 1391.7 1187.9 1349.3 1187.3 1347.8C1186.7 1346.3 1161.3 1341.8 1161.3 1341.8H1161.4Z" fill="url(#paint0_linear_2394_71810)"/>
<path d="M984.2 800C985.4 800 986.6 800 987.9 800C988.7 800 989.4 800 990.2 800C991 800 991.7 800 992.5 800C1078.9 798.9 1118 793.3 1129 792.4C1130.7 792.3 1132.1 797.9 1132.3 799.6C1133.8 815.8 1136.7 822.1 1135.7 833.5C1138.4 993.5 1086 1213.5 1061.1 1348.5C1060.6 1351 1050.4 1357.9 1050.3 1360.4C1049 1382 1042.8 1394.9 1041.2 1417.4L944.2 1419.6C945.1 1398 944.3 1388.4 945.1 1367.4C945.1 1365 934.4 1357.2 934.9 1354.9C975.3 1150.3 983.4 1030.4 986.4 921.1L970.2 921.5L984.3 800H984.2Z" fill="url(#paint1_linear_2394_71810)"/>
<path d="M1032.8 1460.2C1032.8 1460.2 1018.3 1454.4 1017.8 1452.3C1015.4 1442.7 1019 1406.7 1020.1 1402C1020.3 1400.9 957.899 1404.7 957.699 1406.1C957.199 1408.3 952.499 1451.3 951.999 1453C951.399 1454.6 946.499 1460 945.999 1463.1C945.399 1466.1 950.599 1485.7 952.199 1486.8C953.799 1487.9 1032.9 1460.3 1032.9 1460.3L1032.8 1460.2Z" fill="url(#paint2_linear_2394_71810)"/>
<path d="M1027.9 1447.4C1027.9 1447.4 1097.3 1496 1104.8 1510.8C1112.3 1525.6 1109.5 1528.8 1109.5 1528.8C1109.5 1528.8 1112.1 1530.5 1112.3 1531C1112.7 1532 1108.5 1539 1108.5 1539C1108.5 1539 1075.8 1558.2 1036.2 1552.4C1019.4 1550 990.699 1539.4 970.999 1534.1C944.399 1526.9 924.499 1524.7 923.499 1523.5C921.699 1521.2 927.399 1503.6 929.199 1502.8C930.999 1502 934.199 1500.5 934.199 1500.5C934.199 1500.5 938.499 1461.3 942.399 1456.9C943.799 1455.3 950.899 1452 951.999 1452.9C951.999 1452.9 947.099 1460.2 947.599 1460.9C951.299 1465.5 954.299 1473.5 954.299 1473.5C954.299 1473.5 966.299 1456.1 971.399 1454.5C1006.5 1443.6 1027.9 1447.4 1027.9 1447.4Z" fill="url(#paint3_linear_2394_71810)"/>
<path d="M1087.7 1522.7C1073 1525 1056.1 1538.2 1054.7 1538.2C1034.2 1537.1 987 1521.1 980.5 1518.7C975.2 1516.7 934.3 1499.8 934.3 1499.8C934.3 1499.8 928.6 1501.1 927.7 1502.6C926.8 1504 920.3 1522.5 922.4 1524.1C932.4 1531.4 965.7 1534.1 969.8 1536.1C985.6 1543.6 1035.6 1556 1058.2 1554.4C1101.9 1551.4 1111.2 1538.7 1111.7 1538C1112.1 1537.3 1113.8 1530.9 1113.6 1530C1113.2 1528.2 1112.9 1518.9 1087.7 1522.8V1522.7Z" fill="#F0F0F7"/>
<path d="M1042.8 1553.8C1053.1 1550.7 1074.1 1532 1093.8 1529.1C1104.4 1527.5 1110.2 1529.3 1113.3 1532.2C1112.9 1534.4 1112 1537.4 1111.7 1537.9C1111.3 1538.6 1101.9 1551.3 1058.2 1554.3C1053.9 1554.6 1048.6 1554.3 1042.7 1553.8H1042.8Z" fill="#D2D2DB"/>
<path d="M1078.8 1485.4C1078.8 1485.4 1064.5 1481.2 1051.6 1484.5C1038.7 1487.8 1025.9 1500.2 1020.3 1500.9C1014.7 1501.6 981.9 1474.5 983.7 1469.1C985.5 1463.7 1017.7 1449.7 1039 1452.7C1060.3 1455.7 1079.1 1479.6 1079.2 1482C1079.3 1484.4 1078.9 1485.4 1078.9 1485.4H1078.8Z" fill="#F0F0F7"/>
<path d="M1036.2 1466.1C1045.3 1463.2 1054.1 1462.6 1061.3 1462.9C1063.4 1464.5 1065.4 1466.1 1067.2 1467.8C1059.5 1466.7 1048.4 1466.3 1036.8 1470C1021 1475.1 1008.6 1485.3 1003 1490.4C1002 1489.6 1001 1488.8 1000 1487.9C1005.9 1482.4 1019.1 1471.5 1036.1 1466L1036.2 1466.1Z" fill="#E2E2ED"/>
<path d="M1011.4 1496.6C1016.4 1490.5 1027.9 1478.6 1044.3 1474C1055.8 1470.8 1066 1472 1073.2 1473.9C1075.7 1476.6 1077.4 1479 1078.4 1480.5C1072.9 1478.1 1059.9 1473.8 1044.8 1478C1030 1482.1 1019.4 1493.2 1014.8 1498.7C1013.8 1498.1 1012.6 1497.4 1011.4 1496.6Z" fill="#E2E2ED"/>
<path d="M1027.3 1457.6C1032.7 1455.2 1038.3 1454.1 1043.5 1453.6C1047 1454.6 1050.3 1456 1053.5 1457.8C1046.6 1457.3 1037 1457.5 1028.5 1461.3C1016.6 1466.6 1001.2 1477.2 993.8 1482.4C992.8 1481.5 991.9 1480.6 991 1479.7C998.3 1474.5 1014.4 1463.2 1027.3 1457.6Z" fill="#E2E2ED"/>
<path d="M1123 909.1C1123 909.1 1117.4 1047.5 1096.6 1105.9C1094.2 1112.6 1050 1138.2 1043.3 1137.5C1032.4 1136.4 997.8 1097.6 995.6 1090.2C993.4 1082.8 1007.5 933.7 1007.2 928.1C1007 924.1 1123 909.1 1123 909.1Z" fill="#7FA3ED"/>
<path d="M1053.5 1361.4C1056.4 1365.3 1048.5 1423.7 1046.3 1426.2C1044.1 1428.7 937.4 1431.4 937.3 1428C937.2 1424.6 938.6 1366.3 941.2 1364.6C943.8 1362.8 1051.7 1359.1 1053.5 1361.5V1361.4Z" fill="#8BB7FF"/>
<path d="M982.6 864.8C980.1 868.1 960.7 1054.6 965.5 1075.8C967.6 1085.3 1081.3 1209.2 1107.5 1248.5C1108.4 1249.9 1112.2 1263.7 1112 1266.2C1110.3 1286.6 1075.2 1331.5 1049.3 1323.3C1047 1322.6 1037.6 1324.7 1033.2 1321.6C988.8 1290.1 861.7 1148.1 845 1117C826.6 1082.8 823.5 829.6 852.1 829C880.6 828.4 982.7 864.7 982.7 864.7L982.6 864.8Z" fill="url(#paint4_linear_2394_71810)"/>
<path d="M1059 400.099C1055 399.199 1049.6 396.999 1047 395.999C1040.4 393.599 1033.9 387.499 1034.3 380.299L1036.8 336.999C1037.8 319.799 1020.5 306.099 997.499 306.399C975.399 306.699 955.599 320.999 954.599 338.199L952.399 381.499C951.999 388.599 947.199 393.999 940.499 395.999C930.899 398.699 928.499 399.399 923.299 400.899L922.299 451.799L1057.4 452.199L1059.1 400.199L1059 400.099Z" fill="url(#paint5_linear_2394_71810)"/>
<path d="M966.899 394.199C986.699 398.199 1007.2 398.499 1027.1 395.499C1031.7 394.799 1036.6 393.899 1041.1 392.899C1037 390.099 1034.3 385.399 1034.4 380.399L1036.9 337.099C1037.9 319.899 1020.6 306.199 997.599 306.499C975.499 306.799 955.699 321.099 954.699 338.299L952.499 381.599C952.299 384.699 951.299 387.499 949.699 389.799C955.399 391.599 961.099 393.099 966.999 394.299L966.899 394.199Z" fill="url(#paint6_linear_2394_71810)"/>
<path d="M1226.8 549C1225.6 545.9 1189.2 454.3 1163.7 435.9C1131.5 412.6 1047.3 396.1 1047.3 396.1C1047.3 396.1 1052.4 401.2 1051.8 406.3C1050.7 416.3 1025.1 432.2 988.6 430.8C952 429.4 936.8 417.8 936 404.1C935.7 398.6 941.8 395.4 941.8 395.4C941.8 395.4 870.8 404.7 848.2 409.7C813.9 417.4 774.5 436.1 774.5 436.1C764.6 445 755.5 542.1 784.5 551.8L847.4 544.9C847.6 564.9 845.8 652.8 838 745.1C834.3 788.6 829.3 832.6 830.3 833.9C834.1 838.7 873 865.7 977.6 869.7C1036.3 871.9 1142.5 861 1143.6 854C1144 851.3 1133.6 783 1131 731.6C1128.4 680.6 1123.4 602.2 1122.4 574.1C1122.4 574.1 1133.3 600.2 1136.9 599C1164.8 590.3 1227.7 550.9 1226.8 548.7V549Z" fill="url(#paint7_linear_2394_71810)"/>
<path d="M986.599 922.8H970.699L933.699 909.2L935.599 904.5L971.799 917.8H985.799L1022.5 903L1024.2 907.6L986.599 922.8Z" fill="#87B1F5"/>
<path d="M1111.1 1259.4C1114.3 1258.6 1117.9 1258.5 1117.9 1258.5C1117.9 1258.5 1145.2 1277.5 1147.2 1292C1149.2 1306.5 1146.2 1322.6 1129.5 1342.7C1113.7 1361.5 1087.7 1372.8 1082.3 1370.6C1076.9 1368.4 1047.2 1337.7 1047.5 1335.7C1047.8 1333.8 1049.3 1323.3 1049.3 1323.3C1049.3 1323.3 1065.9 1328.3 1090.7 1300C1101.7 1287.4 1111.2 1259.4 1111.2 1259.4H1111.1Z" fill="#8BB7FF"/>
<path d="M1098.5 257.7C1088.9 253.8 1077.7 263.1 1073.4 278.3C1069.1 293.5 1072.1 308.4 1081.6 312.3C1091.2 316.2 1103.7 307.5 1108 292.3C1112.3 277.1 1108 261.6 1098.4 257.7H1098.5Z" fill="#FF9C78"/>
<path d="M903.899 249.999C892.999 246.599 883.199 255.499 882.099 269.999C880.999 284.499 887.399 298.499 898.399 301.899C909.399 305.299 920.599 296.899 921.699 282.399C922.799 267.899 914.799 253.299 903.899 249.899V249.999Z" fill="url(#paint8_linear_2394_71810)"/>
<path d="M1087 307.701C1080.8 307.901 1080.4 302.201 1082.3 297.701C1083.9 293.901 1087.5 291.501 1087.2 288.501C1086.8 284.301 1082.9 282.801 1083.7 278.801C1086.2 266.301 1093.9 260.901 1098.9 262.401C1109.6 265.601 1111.4 306.901 1086.9 307.701H1087Z" fill="url(#paint9_linear_2394_71810)"/>
<path d="M904.699 299C910.899 299.5 911.599 293.9 909.899 289.2C908.499 285.3 905.099 282.7 905.499 279.7C906.099 275.5 910.099 274.3 909.499 270.2C907.699 257.6 900.999 253.1 895.999 254.3C885.099 256.9 880.299 296.8 904.699 298.9V299Z" fill="url(#paint10_linear_2394_71810)"/>
<path d="M1064.1 171.2C1060.2 137.1 965.699 116.5 935.299 161.6C925.299 182.7 913.199 222.4 906.399 262.1C906.399 261.7 906.399 261.4 906.399 261.4C906.399 261.4 874.499 364 968.699 373.9C1059.4 383.4 1076.4 339.3 1075.4 277.1C1077.2 242.2 1069.8 197.6 1064 171.2H1064.1Z" fill="url(#paint11_linear_2394_71810)"/>
<g opacity="0.4">
<path d="M1068.81 288.309C1074.28 267.761 1064.13 247.224 1046.15 242.438C1028.16 237.652 1009.15 250.43 1003.68 270.978C998.212 291.526 1008.36 312.063 1026.35 316.849C1044.33 321.635 1063.35 308.857 1068.81 288.309Z" fill="#FF9C78"/>
<path d="M1068.62 288.259C1074.06 267.817 1063.97 247.39 1046.09 242.633C1028.21 237.875 1009.31 250.589 1003.87 271.031C998.433 291.472 1008.52 311.9 1026.4 316.657C1044.28 321.414 1063.18 308.7 1068.62 288.259Z" fill="#FF9B77"/>
<path d="M1068.33 288.181C1073.73 267.9 1063.74 247.637 1046.02 242.922C1028.3 238.207 1009.56 250.827 1004.16 271.108C998.765 291.389 1008.75 311.652 1026.47 316.367C1044.19 321.082 1062.93 308.463 1068.33 288.181Z" fill="#FF9A77"/>
<path d="M1068.14 288.129C1073.51 267.955 1063.58 247.801 1045.97 243.115C1028.35 238.429 1009.72 250.984 1004.36 271.158C998.988 291.333 1008.91 311.487 1026.53 316.173C1044.14 320.859 1062.77 308.304 1068.14 288.129Z" fill="#FF9976"/>
<path d="M1067.94 288.078C1073.27 268.064 1063.39 248.063 1045.89 243.405C1028.38 238.747 1009.87 251.196 1004.55 271.21C999.223 291.224 1009.1 311.225 1026.6 315.883C1044.11 320.541 1062.62 308.092 1067.94 288.078Z" fill="#FF9876"/>
<path d="M1067.75 288.028C1073.05 268.12 1063.24 248.229 1045.84 243.599C1028.44 238.97 1010.04 251.355 1004.74 271.263C999.444 291.17 1009.26 311.062 1026.65 315.691C1044.05 320.321 1062.45 307.935 1067.75 288.028Z" fill="#FF9775"/>
<path d="M1067.56 287.975C1072.81 268.227 1063.05 248.489 1045.76 243.888C1028.47 239.286 1010.19 251.565 1004.94 271.312C999.681 291.06 1009.44 310.798 1026.73 315.399C1044.02 320.001 1062.3 307.722 1067.56 287.975Z" fill="#FF9675"/>
<path d="M1067.27 287.898C1072.49 268.258 1062.84 248.64 1045.71 244.082C1028.58 239.523 1010.45 251.75 1005.22 271.39C999.998 291.031 1009.65 310.649 1026.78 315.207C1043.91 319.766 1062.04 307.539 1067.27 287.898Z" fill="#FF9574"/>
<path d="M1067.07 287.847C1072.26 268.367 1062.66 248.902 1045.63 244.372C1028.61 239.842 1010.6 251.961 1005.42 271.442C1000.24 290.923 1009.84 310.387 1026.86 314.917C1043.89 319.448 1061.89 307.328 1067.07 287.847Z" fill="#FF9473"/>
<path d="M1066.88 287.795C1072.03 268.421 1062.5 249.066 1045.58 244.564C1028.66 240.063 1010.77 252.119 1005.61 271.493C1000.46 290.867 1009.99 310.222 1026.91 314.723C1043.83 319.225 1061.72 307.169 1066.88 287.795Z" fill="#FF9373"/>
<path d="M1066.69 287.744C1071.8 268.53 1062.32 249.328 1045.5 244.855C1028.69 240.381 1010.92 252.331 1005.81 271.544C1000.69 290.758 1010.18 309.96 1026.99 314.434C1043.8 318.907 1061.57 306.957 1066.69 287.744Z" fill="#FF9272"/>
<path d="M1066.4 287.668C1071.48 268.561 1062.1 249.48 1045.45 245.049C1028.8 240.618 1011.18 252.515 1006.09 271.622C1001.01 290.729 1010.39 309.811 1027.04 314.241C1043.69 318.672 1061.31 306.775 1066.4 287.668Z" fill="#FF9172"/>
<path d="M1066.2 287.616C1071.25 268.669 1061.92 249.741 1045.37 245.339C1028.83 240.936 1011.33 252.727 1006.29 271.674C1001.25 290.621 1010.57 309.549 1027.12 313.952C1043.66 318.354 1061.16 306.563 1066.2 287.616Z" fill="#FF9071"/>
<path d="M1066.01 287.563C1071.01 268.776 1061.73 250.001 1045.3 245.627C1028.86 241.253 1011.48 252.937 1006.48 271.724C1001.48 290.51 1010.76 309.286 1027.19 313.66C1043.63 318.034 1061.01 306.35 1066.01 287.563Z" fill="#FF8F71"/>
<path d="M1065.82 287.513C1070.79 268.833 1061.58 250.167 1045.25 245.821C1028.91 241.476 1011.65 253.096 1006.68 271.776C1001.71 290.456 1010.92 309.122 1027.25 313.468C1043.58 317.813 1060.85 306.193 1065.82 287.513Z" fill="#FF8E70"/>
<path d="M1065.62 287.462C1070.55 268.942 1061.39 250.429 1045.17 246.112C1028.94 241.795 1011.8 253.308 1006.87 271.828C1001.94 290.348 1011.1 308.861 1027.32 313.178C1043.55 317.495 1060.7 305.982 1065.62 287.462Z" fill="#FF8D70"/>
<path d="M1065.33 287.384C1070.23 268.97 1061.18 250.578 1045.12 246.304C1029.05 242.029 1012.06 253.491 1007.16 271.904C1002.26 290.317 1011.31 308.709 1027.38 312.984C1043.44 317.258 1060.43 305.797 1065.33 287.384Z" fill="#FF8C6F"/>
<path d="M1065.14 287.332C1070 269.079 1061 250.84 1045.04 246.594C1029.08 242.348 1012.21 253.703 1007.35 271.956C1002.49 290.209 1011.49 308.448 1027.45 312.694C1043.41 316.94 1060.28 305.585 1065.14 287.332Z" fill="#FF8B6E"/>
<path d="M1064.95 287.282C1069.78 269.136 1060.84 251.006 1044.99 246.788C1029.14 242.571 1012.37 253.862 1007.55 272.008C1002.72 290.155 1011.65 308.284 1027.5 312.502C1043.36 316.72 1060.12 305.428 1064.95 287.282Z" fill="#FF8A6E"/>
<path d="M1064.75 287.229C1069.54 269.243 1060.66 251.266 1044.91 247.077C1029.17 242.887 1012.52 254.072 1007.74 272.058C1002.95 290.044 1011.84 308.021 1027.58 312.21C1043.32 316.4 1059.97 305.215 1064.75 287.229Z" fill="#FF896D"/>
<path d="M1064.56 287.179C1069.32 269.299 1060.5 251.432 1044.86 247.271C1029.22 243.11 1012.69 254.231 1007.93 272.111C1003.17 289.99 1011.99 307.857 1027.63 312.018C1043.27 316.179 1059.8 305.058 1064.56 287.179Z" fill="#FF886D"/>
<path d="M1064.27 287.101C1068.98 269.382 1060.26 251.679 1044.78 247.561C1029.3 243.443 1012.94 254.468 1008.22 272.188C1003.51 289.907 1012.23 307.61 1027.71 311.728C1043.19 315.847 1059.56 304.821 1064.27 287.101Z" fill="#FF876C"/>
<path d="M1064.08 287.049C1068.76 269.437 1060.1 251.843 1044.73 247.753C1029.36 243.664 1013.1 254.626 1008.42 272.238C1003.73 289.851 1012.39 307.444 1027.76 311.534C1043.13 315.624 1059.39 304.662 1064.08 287.049Z" fill="#FF866C"/>
<path d="M1063.88 286.998C1068.53 269.546 1059.92 252.105 1044.65 248.044C1029.39 243.982 1013.25 254.838 1008.61 272.29C1003.96 289.743 1012.57 307.183 1027.84 311.245C1043.1 315.306 1059.24 304.451 1063.88 286.998Z" fill="#FF856B"/>
<path d="M1063.69 286.946C1068.31 269.6 1059.76 252.269 1044.6 248.236C1029.44 244.203 1013.42 254.995 1008.8 272.341C1004.18 289.686 1012.73 307.018 1027.89 311.051C1043.05 315.084 1059.08 304.292 1063.69 286.946Z" fill="#FF846A"/>
<path d="M1063.4 286.871C1067.97 269.685 1059.52 252.518 1044.53 248.528C1029.53 244.537 1013.66 255.234 1009.09 272.42C1004.52 289.605 1012.97 306.772 1027.97 310.763C1042.96 314.753 1058.83 304.056 1063.4 286.871Z" fill="#FF836A"/>
<path d="M1063.21 286.818C1067.75 269.74 1059.36 252.683 1044.47 248.72C1029.58 244.758 1013.83 255.392 1009.28 272.47C1004.74 289.549 1013.13 306.606 1028.02 310.569C1042.91 314.531 1058.66 303.897 1063.21 286.818Z" fill="#FF8269"/>
<path d="M1063.01 286.767C1067.52 269.848 1059.18 252.944 1044.4 249.011C1029.61 245.077 1013.98 255.603 1009.48 272.522C1004.98 289.441 1013.31 306.345 1028.09 310.279C1042.88 314.213 1058.51 303.686 1063.01 286.767Z" fill="#FF8169"/>
<path d="M1062.82 286.716C1067.28 269.957 1059 253.206 1044.32 249.301C1029.64 245.395 1014.13 255.815 1009.67 272.574C1005.21 289.332 1013.49 306.084 1028.17 309.989C1042.85 313.894 1058.36 303.475 1062.82 286.716Z" fill="#FF8068"/>
<path d="M1062.63 286.664C1067.06 270.012 1058.84 253.37 1044.27 249.493C1029.7 245.616 1014.3 255.972 1009.86 272.624C1005.43 289.276 1013.65 305.918 1028.22 309.795C1042.79 313.672 1058.2 303.316 1062.63 286.664Z" fill="#FF7F68"/>
<path d="M1062.34 286.587C1066.73 270.095 1058.6 253.617 1044.19 249.783C1029.78 245.949 1014.54 256.21 1010.15 272.701C1005.77 289.193 1013.89 305.671 1028.3 309.505C1042.71 313.339 1057.95 303.078 1062.34 286.587Z" fill="#FF7E67"/>
<path d="M1062.14 286.536C1066.5 270.151 1058.44 253.783 1044.14 249.978C1029.84 246.172 1014.71 256.369 1010.35 272.754C1005.99 289.139 1014.05 305.507 1028.35 309.313C1042.66 313.119 1057.79 302.921 1062.14 286.536Z" fill="#FF7D66"/>
<path d="M1061.95 286.483C1066.27 270.258 1058.26 254.043 1044.06 250.266C1029.87 246.488 1014.86 256.579 1010.54 272.804C1006.22 289.029 1014.23 305.244 1028.43 309.021C1042.63 312.799 1057.63 302.708 1061.95 286.483Z" fill="#FF7C66"/>
<path d="M1061.76 286.433C1066.05 270.315 1058.1 254.209 1044.01 250.46C1029.92 246.711 1015.02 256.738 1010.73 272.856C1006.45 288.975 1014.39 305.08 1028.48 308.829C1042.57 312.578 1057.47 302.551 1061.76 286.433Z" fill="#FF7B65"/>
<path d="M1061.56 286.382C1065.81 270.424 1057.92 254.471 1043.93 250.75C1029.95 247.03 1015.17 256.95 1010.93 272.908C1006.68 288.866 1014.57 304.819 1028.56 308.54C1042.54 312.26 1057.32 302.34 1061.56 286.382Z" fill="#FF7A65"/>
<path d="M1061.28 286.304C1065.49 270.452 1057.71 254.621 1043.88 250.943C1030.06 247.264 1015.43 257.133 1011.22 272.984C1007 288.835 1014.79 304.667 1028.61 308.345C1042.43 312.023 1057.06 302.155 1061.28 286.304Z" fill="#FF7964"/>
<path d="M1061.08 286.252C1065.26 270.561 1057.52 254.882 1043.8 251.233C1030.09 247.583 1015.58 257.345 1011.41 273.036C1007.23 288.727 1014.97 304.406 1028.69 308.056C1042.4 311.705 1056.91 301.944 1061.08 286.252Z" fill="#FF7864"/>
<path d="M1060.89 286.2C1065.04 270.616 1057.36 255.046 1043.75 251.425C1030.15 247.804 1015.75 257.502 1011.6 273.086C1007.46 288.671 1015.13 304.24 1028.74 307.862C1042.35 311.483 1056.74 301.785 1060.89 286.2Z" fill="#FF7763"/>
<path d="M1060.7 286.149C1064.8 270.725 1057.18 255.308 1043.68 251.715C1030.17 248.123 1015.9 257.714 1011.8 273.138C1007.69 288.562 1015.31 303.979 1028.81 307.572C1042.32 311.165 1056.59 301.573 1060.7 286.149Z" fill="#FF7662"/>
<path d="M1060.41 286.073C1064.48 270.755 1056.97 255.46 1043.63 251.909C1030.28 248.359 1016.16 257.898 1012.09 273.216C1008.01 288.534 1015.52 303.829 1028.87 307.379C1042.21 310.93 1056.33 301.39 1060.41 286.073Z" fill="#FF7662"/>
<path d="M1060.21 286.022C1064.24 270.864 1056.78 255.722 1043.55 252.2C1030.31 248.678 1016.31 258.11 1012.28 273.268C1008.25 288.425 1015.71 303.568 1028.94 307.09C1042.18 310.612 1056.18 301.179 1060.21 286.022Z" fill="#FF7561"/>
<path d="M1060.02 285.97C1064.01 270.973 1056.6 255.983 1043.47 252.49C1030.34 248.996 1016.46 258.322 1012.47 273.319C1008.48 288.317 1015.89 303.307 1029.02 306.8C1042.15 310.294 1056.03 300.968 1060.02 285.97Z" fill="#FF7461"/>
<path d="M1059.83 285.918C1063.79 271.028 1056.44 256.147 1043.42 252.682C1030.4 249.217 1016.63 258.479 1012.67 273.37C1008.7 288.261 1016.05 303.141 1029.07 306.606C1042.09 310.071 1055.86 300.809 1059.83 285.918Z" fill="#FF7360"/>
<path d="M1059.63 285.867C1063.55 271.136 1056.26 256.409 1043.34 252.972C1030.43 249.536 1016.78 258.691 1012.86 273.422C1008.94 288.152 1016.23 302.88 1029.15 306.316C1042.06 309.753 1055.71 300.597 1059.63 285.867Z" fill="#FF7260"/>
<path d="M1059.34 285.791C1063.23 271.167 1056.05 256.561 1043.29 253.167C1030.53 249.773 1017.04 258.876 1013.15 273.5C1009.26 288.124 1016.44 302.73 1029.2 306.124C1041.96 309.518 1055.45 300.415 1059.34 285.791Z" fill="#FF715F"/>
<path d="M1059.15 285.738C1063 271.274 1055.86 256.82 1043.21 253.455C1030.57 250.089 1017.19 259.086 1013.34 273.549C1009.49 288.013 1016.63 302.467 1029.28 305.832C1041.93 309.198 1055.3 300.201 1059.15 285.738Z" fill="#FF705F"/>
<path d="M1058.96 285.687C1062.78 271.33 1055.7 256.987 1043.16 253.649C1030.62 250.312 1017.36 259.245 1013.54 273.602C1009.72 287.959 1016.79 302.303 1029.33 305.64C1041.87 308.978 1055.14 300.044 1058.96 285.687Z" fill="#FF6F5E"/>
<path d="M1058.76 285.636C1062.54 271.439 1055.52 257.248 1043.08 253.939C1030.65 250.631 1017.51 259.457 1013.73 273.654C1009.95 287.851 1016.97 302.042 1029.41 305.351C1041.84 308.659 1054.98 299.833 1058.76 285.636Z" fill="#FF6E5D"/>
<path d="M1058.47 285.558C1062.22 271.468 1055.31 257.398 1043.03 254.132C1030.76 250.865 1017.77 259.64 1014.02 273.73C1010.27 287.82 1017.18 301.89 1029.46 305.156C1041.73 308.422 1054.72 299.648 1058.47 285.558Z" fill="#FF6D5D"/>
<path d="M1058.28 285.507C1061.99 271.577 1055.13 257.66 1042.96 254.422C1030.79 251.184 1017.92 259.852 1014.21 273.781C1010.51 287.711 1017.37 301.629 1029.54 304.867C1041.7 308.104 1054.57 299.437 1058.28 285.507Z" fill="#FF6C5C"/>
<path d="M1058.09 285.455C1061.76 271.631 1054.97 257.824 1042.91 254.614C1030.84 251.405 1018.08 260.009 1014.41 273.832C1010.73 287.655 1017.52 301.463 1029.59 304.673C1041.65 307.882 1054.41 299.278 1058.09 285.455Z" fill="#FF6B5C"/>
<path d="M1057.89 285.403C1061.53 271.74 1054.78 258.085 1042.83 254.904C1030.87 251.723 1018.23 260.221 1014.6 273.884C1010.96 287.547 1017.71 301.202 1029.66 304.383C1041.62 307.564 1054.26 299.066 1057.89 285.403Z" fill="#FF6A5B"/>
<path d="M1057.7 285.353C1061.31 271.797 1054.63 258.252 1042.78 255.099C1030.93 251.946 1018.4 260.38 1014.79 273.936C1011.19 287.493 1017.87 301.038 1029.72 304.191C1041.56 307.343 1054.09 298.909 1057.7 285.353Z" fill="#FF695B"/>
<path d="M1057.41 285.276C1060.97 271.88 1054.39 258.499 1042.7 255.389C1031.01 252.279 1018.65 260.617 1015.08 274.013C1011.52 287.41 1018.1 300.791 1029.79 303.901C1041.48 307.011 1053.85 298.672 1057.41 285.276Z" fill="#FF685A"/>
<path d="M1057.22 285.224C1060.75 271.934 1054.23 258.663 1042.65 255.581C1031.07 252.5 1018.81 260.775 1015.28 274.064C1011.74 287.354 1018.26 300.625 1029.84 303.707C1041.43 306.788 1053.68 298.513 1057.22 285.224Z" fill="#FF6759"/>
<path d="M1057.02 285.172C1060.52 272.043 1054.05 258.925 1042.57 255.871C1031.1 252.818 1018.96 260.986 1015.47 274.116C1011.97 287.245 1018.44 300.364 1029.92 303.417C1041.39 306.47 1053.53 298.302 1057.02 285.172Z" fill="#FF6659"/>
<path d="M1056.83 285.121C1060.28 272.152 1053.86 259.186 1042.49 256.161C1031.13 253.137 1019.11 261.198 1015.66 274.167C1012.21 287.137 1018.63 300.102 1030 303.127C1041.37 306.152 1053.38 298.091 1056.83 285.121Z" fill="#FF6558"/>
<path d="M1056.64 285.069C1060.06 272.207 1053.7 259.35 1042.44 256.354C1031.18 253.358 1019.28 261.356 1015.86 274.218C1012.43 287.081 1018.79 299.937 1030.05 302.933C1041.31 305.93 1053.21 297.932 1056.64 285.069Z" fill="#FF6458"/>
<path d="M1056.35 284.992C1059.73 272.289 1053.47 259.598 1042.37 256.644C1031.26 253.69 1019.53 261.593 1016.15 274.295C1012.77 286.998 1019.02 299.689 1030.13 302.643C1041.23 305.597 1052.97 297.694 1056.35 284.992Z" fill="#FF6357"/>
<path d="M1056.15 284.942C1059.5 272.346 1053.31 259.764 1042.31 256.838C1031.32 253.913 1019.69 261.752 1016.34 274.348C1012.99 286.943 1019.18 299.526 1030.18 302.451C1041.17 305.377 1052.8 297.537 1056.15 284.942Z" fill="#FF6257"/>
<path d="M1055.96 284.89C1059.27 272.455 1053.13 260.025 1042.24 257.128C1031.35 254.231 1019.84 261.964 1016.53 274.399C1013.22 286.835 1019.37 299.265 1030.26 302.162C1041.14 305.059 1052.65 297.326 1055.96 284.89Z" fill="#FF6156"/>
<path d="M1055.77 284.838C1059.05 272.509 1052.97 260.19 1042.19 257.321C1031.4 254.452 1020.01 262.121 1016.72 274.45C1013.44 286.779 1019.52 299.099 1030.31 301.968C1041.09 304.836 1052.49 297.167 1055.77 284.838Z" fill="#FF6055"/>
<path d="M1055.48 284.761C1058.71 272.592 1052.73 260.437 1042.11 257.611C1031.49 254.785 1020.25 262.358 1017.01 274.527C1013.78 286.696 1019.76 298.851 1030.38 301.677C1041 304.503 1052.24 296.93 1055.48 284.761Z" fill="#FF5F55"/>
<path d="M1055.28 284.709C1058.49 272.647 1052.57 260.601 1042.06 257.803C1031.54 255.006 1020.42 262.516 1017.21 274.578C1014 286.64 1019.92 298.686 1030.43 301.483C1040.95 304.281 1052.07 296.771 1055.28 284.709Z" fill="#FF5E54"/>
<path d="M1055.09 284.658C1058.26 272.756 1052.39 260.863 1041.98 258.093C1031.57 255.324 1020.57 262.728 1017.4 274.629C1014.24 286.531 1020.1 298.425 1030.51 301.194C1040.92 303.963 1051.92 296.559 1055.09 284.658Z" fill="#FF5D54"/>
<path d="M1054.9 284.607C1058.04 272.812 1052.23 261.029 1041.93 258.288C1031.63 255.547 1020.73 262.887 1017.59 274.682C1014.46 286.477 1020.26 298.261 1030.56 301.002C1040.86 303.743 1051.76 296.403 1054.9 284.607Z" fill="#FF5C53"/>
<path d="M1054.7 284.556C1057.8 272.921 1052.04 261.29 1041.85 258.578C1031.66 255.866 1020.88 263.099 1017.79 274.734C1014.69 286.369 1020.45 298 1030.64 300.712C1040.83 303.424 1051.61 296.191 1054.7 284.556Z" fill="#FF5B53"/>
<path d="M1054.41 284.478C1057.48 272.95 1051.83 261.44 1041.8 258.77C1031.77 256.1 1021.14 263.282 1018.08 274.81C1015.01 286.338 1020.66 297.848 1030.69 300.518C1040.73 303.187 1051.35 296.006 1054.41 284.478Z" fill="#FF5A52"/>
<path d="M1054.22 284.427C1057.25 273.059 1051.65 261.702 1041.72 259.06C1031.8 256.419 1021.3 263.493 1018.27 274.861C1015.25 286.23 1020.84 297.587 1030.77 300.228C1040.7 302.869 1051.2 295.795 1054.22 284.427Z" fill="#FF5952"/>
<path d="M1054.03 284.376C1057.01 273.168 1051.47 261.963 1041.65 259.35C1031.83 256.737 1021.45 263.705 1018.46 274.913C1015.48 286.121 1021.03 297.325 1030.85 299.938C1040.67 302.551 1051.04 295.584 1054.03 284.376Z" fill="#FF5851"/>
<path d="M1053.83 284.323C1056.79 273.222 1051.31 262.128 1041.59 259.543C1031.88 256.958 1021.61 263.863 1018.66 274.964C1015.7 286.065 1021.18 297.16 1030.9 299.744C1040.61 302.329 1050.88 295.425 1053.83 284.323Z" fill="#FF5750"/>
<path d="M1053.64 284.272C1056.55 273.331 1051.12 262.389 1041.52 259.833C1031.91 257.277 1021.76 264.074 1018.85 275.015C1015.94 285.957 1021.37 296.898 1030.97 299.455C1040.58 302.011 1050.73 295.213 1053.64 284.272Z" fill="#FF5650"/>
<path d="M1053.35 284.196C1056.23 273.362 1050.91 262.541 1041.47 260.027C1032.02 257.514 1022.02 264.259 1019.14 275.093C1016.26 285.928 1021.58 296.749 1031.03 299.262C1040.47 301.776 1050.47 295.03 1053.35 284.196Z" fill="#FF554F"/>
<path d="M1053.16 284.145C1056 273.47 1050.73 262.803 1041.39 260.317C1032.05 257.832 1022.17 264.471 1019.33 275.145C1016.49 285.819 1021.76 296.487 1031.1 298.972C1040.44 301.458 1050.32 294.819 1053.16 284.145Z" fill="#FF544F"/>
<path d="M1052.96 284.093C1055.78 273.525 1050.57 262.967 1041.34 260.51C1032.1 258.053 1022.34 264.628 1019.53 275.196C1016.71 285.763 1021.92 296.322 1031.15 298.778C1040.39 301.235 1050.15 294.66 1052.96 284.093Z" fill="#FF534E"/>
<path d="M1052.77 284.041C1055.54 273.634 1050.39 263.228 1041.26 260.8C1032.13 258.372 1022.49 264.84 1019.72 275.247C1016.95 285.655 1022.11 296.06 1031.23 298.489C1040.36 300.917 1050 294.449 1052.77 284.041Z" fill="#FF524E"/>
<path d="M1052.48 283.963C1055.22 273.662 1050.18 263.378 1041.21 260.992C1032.24 258.607 1022.75 265.023 1020.01 275.324C1017.27 285.624 1022.32 295.909 1031.28 298.294C1040.25 300.68 1049.74 294.264 1052.48 283.963Z" fill="#FF514D"/>
</g>
<path d="M1032 111.8C973.499 88.4996 958.799 92.3996 958.799 92.3996C957.299 94.5996 956.299 98.2996 956.699 101C934.699 99.1996 929.299 103.2 929.299 103.2C923.199 129.3 929.599 136.1 937.199 145.4C939.999 148.8 943.999 154.5 955.699 160.3C955.699 160.3 974.099 157 994.199 157.5C1014.7 158.1 1031.9 162.7 1031.9 162.7C1049.8 163.2 1072 219.8 1072.2 264.5C1072.2 274.7 1081.7 263.4 1081.7 263.4C1081.7 263.4 1088 212.7 1087.1 178.6C1086.4 150.2 1072.9 134.4 1064.4 136" fill="url(#paint12_linear_2394_71810)"/>
<path d="M928.898 133.1C894.498 150.8 907.098 247.4 906.998 253.1C906.998 254.3 906.798 255 906.598 256.3C906.598 256.9 908.698 256.8 908.598 256.3C908.398 255.3 908.698 253.7 908.798 253.2C913.898 223.8 940.598 160.4 955.498 160.3C955.498 160.3 938.498 150.4 928.798 133.1H928.898Z" fill="#59352C"/>
<g opacity="0.4">
<path d="M946.848 310.53C964.792 308.486 977.331 289.213 974.855 267.483C972.379 245.753 955.826 229.795 937.882 231.839C919.939 233.884 907.4 253.157 909.875 274.886C912.351 296.616 928.904 312.575 946.848 310.53Z" fill="#FF9C78"/>
<path d="M946.814 310.232C964.648 308.2 977.113 289.071 974.656 267.506C972.199 245.94 955.75 230.105 937.916 232.137C920.082 234.169 907.617 253.298 910.074 274.864C912.531 296.429 928.98 312.264 946.814 310.232Z" fill="#FF9B77"/>
<path d="M946.78 309.934C964.504 307.915 976.895 288.929 974.457 267.528C972.019 246.128 955.674 230.416 937.95 232.435C920.226 234.455 907.834 253.44 910.272 274.841C912.711 296.242 929.056 311.953 946.78 309.934Z" fill="#FF9A77"/>
<path d="M946.758 309.735C964.373 307.728 976.685 288.841 974.26 267.551C971.834 246.26 955.588 230.627 937.974 232.634C920.359 234.641 908.047 253.527 910.472 274.818C912.898 296.109 929.144 311.742 946.758 309.735Z" fill="#FF9976"/>
<path d="M946.724 309.437C964.229 307.442 976.468 288.699 974.061 267.573C971.654 246.447 955.512 230.937 938.007 232.932C920.503 234.926 908.264 253.669 910.671 274.795C913.078 295.922 929.219 311.431 946.724 309.437Z" fill="#FF9876"/>
<path d="M946.701 309.237C964.041 307.262 976.157 288.623 973.762 267.606C971.368 246.59 955.37 231.154 938.03 233.13C920.69 235.105 908.574 253.744 910.968 274.761C913.363 295.777 929.361 311.213 946.701 309.237Z" fill="#FF9775"/>
<path d="M946.667 308.939C963.897 306.976 975.939 288.481 973.563 267.629C971.187 246.777 955.294 231.465 938.063 233.428C920.833 235.391 908.791 253.886 911.167 274.738C913.543 295.59 929.437 310.902 946.667 308.939Z" fill="#FF9675"/>
<path d="M946.633 308.641C963.753 306.691 975.721 288.339 973.364 267.652C971.007 246.964 955.218 231.775 938.097 233.726C920.977 235.677 909.008 254.028 911.365 274.715C913.722 295.403 929.512 310.592 946.633 308.641Z" fill="#FF9574"/>
<path d="M946.611 308.442C963.622 306.504 975.511 288.251 973.167 267.674C970.822 247.096 955.132 231.986 938.121 233.924C921.11 235.862 909.221 254.115 911.565 274.693C913.91 295.27 929.601 310.38 946.611 308.442Z" fill="#FF9473"/>
<path d="M946.577 308.144C963.478 306.218 975.294 288.109 972.968 267.697C970.642 247.284 955.056 232.297 938.155 234.222C921.254 236.148 909.438 254.257 911.764 274.67C914.09 295.083 929.676 310.07 946.577 308.144Z" fill="#FF9373"/>
<path d="M946.554 307.947C963.345 306.034 975.082 288.024 972.769 267.721C970.455 247.418 954.968 232.51 938.177 234.423C921.385 236.336 909.649 254.346 911.962 274.649C914.275 294.952 929.762 309.86 946.554 307.947Z" fill="#FF9272"/>
<path d="M946.52 307.649C963.201 305.748 974.864 287.882 972.57 267.743C970.275 247.605 954.892 232.82 938.21 234.721C921.529 236.621 909.866 254.488 912.16 274.626C914.455 294.765 929.838 309.55 946.52 307.649Z" fill="#FF9172"/>
<path d="M946.486 307.35C963.002 305.469 974.547 287.751 972.272 267.777C969.996 247.803 954.761 233.137 938.244 235.018C921.727 236.9 910.183 254.618 912.458 274.592C914.734 294.566 929.969 309.232 946.486 307.35Z" fill="#FF9071"/>
<path d="M946.462 307.151C962.869 305.282 974.335 287.664 972.072 267.799C969.809 247.935 954.674 233.347 938.266 235.217C921.859 237.086 910.393 254.705 912.657 274.569C914.92 294.433 930.055 309.021 946.462 307.151Z" fill="#FF8F71"/>
<path d="M946.43 306.853C962.727 304.996 974.12 287.521 971.875 267.822C969.631 248.122 954.599 233.658 938.302 235.515C922.005 237.372 910.612 254.847 912.857 274.546C915.101 294.246 930.133 308.71 946.43 306.853Z" fill="#FF8E70"/>
<path d="M946.407 306.654C962.594 304.81 973.908 287.434 971.676 267.844C969.444 248.254 954.512 233.869 938.324 235.713C922.136 237.558 910.823 254.933 913.055 274.523C915.287 294.113 930.219 308.499 946.407 306.654Z" fill="#FF8D70"/>
<path d="M946.373 306.356C962.45 304.524 973.69 287.292 971.477 267.867C969.264 248.442 954.436 234.179 938.358 236.011C922.28 237.843 911.04 255.075 913.253 274.501C915.467 293.926 930.295 308.188 946.373 306.356Z" fill="#FF8C6F"/>
<path d="M946.338 306.058C962.306 304.239 973.472 287.15 971.278 267.889C969.083 248.629 954.36 234.49 938.391 236.309C922.423 238.129 911.257 255.217 913.452 274.478C915.646 293.738 930.37 307.877 946.338 306.058Z" fill="#FF8B6E"/>
<path d="M946.315 305.859C962.119 304.058 973.161 287.074 970.979 267.923C968.797 248.772 954.217 234.707 938.414 236.507C922.61 238.308 911.568 255.292 913.75 274.443C915.932 293.594 930.512 307.659 946.315 305.859Z" fill="#FF8A6E"/>
<path d="M946.283 305.561C961.977 303.772 972.946 286.932 970.782 267.945C968.619 248.959 954.143 235.017 938.449 236.805C922.756 238.593 911.787 255.434 913.95 274.421C916.113 293.407 930.589 307.349 946.283 305.561Z" fill="#FF896D"/>
<path d="M946.26 305.363C961.844 303.588 972.734 286.846 970.583 267.97C968.432 249.093 954.055 235.23 938.471 237.006C922.887 238.781 911.997 255.523 914.148 274.4C916.299 293.276 930.676 307.139 946.26 305.363Z" fill="#FF886D"/>
<path d="M946.226 305.065C961.7 303.302 972.516 286.704 970.384 267.992C968.252 249.28 953.979 235.541 938.505 237.304C923.031 239.067 912.215 255.665 914.347 274.377C916.479 293.089 930.751 306.828 946.226 305.065Z" fill="#FF876C"/>
<path d="M946.191 304.767C961.556 303.017 972.298 286.562 970.185 268.015C968.072 249.468 953.903 235.851 938.539 237.602C923.174 239.352 912.432 255.807 914.545 274.354C916.658 292.901 930.827 306.518 946.191 304.767Z" fill="#FF866C"/>
<path d="M946.168 304.568C961.423 302.83 972.086 286.475 969.986 268.037C967.885 249.6 953.816 236.062 938.561 237.8C923.306 239.538 912.642 255.894 914.743 274.331C916.844 292.769 930.913 306.306 946.168 304.568Z" fill="#FF856B"/>
<path d="M946.136 304.27C961.281 302.545 971.871 286.333 969.789 268.06C967.707 249.787 953.741 236.373 938.596 238.098C923.451 239.824 912.862 256.036 914.943 274.309C917.025 292.581 930.991 305.996 946.136 304.27Z" fill="#FF846A"/>
<path d="M946.113 304.071C961.093 302.364 971.56 286.256 969.49 268.093C967.421 249.93 953.599 236.589 938.619 238.296C923.638 240.003 913.172 256.111 915.241 274.274C917.311 292.437 931.132 305.778 946.113 304.071Z" fill="#FF836A"/>
<path d="M946.078 303.773C960.949 302.078 971.342 286.114 969.291 268.116C967.241 250.117 953.523 236.9 938.652 238.594C923.782 240.289 913.389 256.253 915.44 274.251C917.49 292.25 931.208 305.467 946.078 303.773Z" fill="#FF8269"/>
<path d="M946.044 303.475C960.805 301.793 971.124 285.972 969.092 268.138C967.06 250.304 953.447 237.211 938.686 238.892C923.925 240.574 913.606 256.395 915.638 274.229C917.67 292.062 931.283 305.156 946.044 303.475Z" fill="#FF8169"/>
<path d="M946.021 303.276C960.672 301.606 970.912 285.885 968.893 268.161C966.874 250.436 953.359 237.421 938.708 239.091C924.057 240.76 913.817 256.482 915.836 274.206C917.856 291.93 931.37 304.945 946.021 303.276Z" fill="#FF8068"/>
<path d="M945.989 302.977C960.53 301.321 970.697 285.743 968.696 268.183C966.695 250.624 953.285 237.732 938.744 239.389C924.202 241.046 914.036 256.623 916.037 274.183C918.037 291.742 931.447 304.634 945.989 302.977Z" fill="#FF7F68"/>
<path d="M945.965 302.78C960.397 301.136 970.485 285.657 968.496 268.207C966.508 250.758 953.197 237.945 938.766 239.589C924.334 241.233 914.246 256.712 916.235 274.162C918.223 291.612 931.534 304.425 945.965 302.78Z" fill="#FF7E67"/>
<path d="M945.931 302.482C960.199 300.856 970.168 285.526 968.198 268.241C966.229 250.956 953.067 238.261 938.8 239.887C924.533 241.512 914.563 256.842 916.533 274.128C918.502 291.413 931.664 304.107 945.931 302.482Z" fill="#FF7D66"/>
<path d="M945.897 302.184C960.055 300.571 969.95 285.384 967.999 268.264C966.049 251.143 952.991 238.572 938.833 240.185C924.676 241.798 914.781 256.984 916.731 274.105C918.682 291.225 931.74 303.797 945.897 302.184Z" fill="#FF7C66"/>
<path d="M945.874 301.985C959.922 300.384 969.738 285.297 967.8 268.286C965.862 251.275 952.903 238.783 938.855 240.383C924.808 241.984 914.991 257.071 916.929 274.082C918.867 291.093 931.826 303.585 945.874 301.985Z" fill="#FF7B65"/>
<path d="M945.84 301.687C959.778 300.099 969.52 285.155 967.601 268.309C965.682 251.462 952.827 239.093 938.889 240.681C924.951 242.269 915.208 257.213 917.128 274.059C919.047 290.905 931.902 303.275 945.84 301.687Z" fill="#FF7A65"/>
<path d="M945.818 301.488C959.647 299.912 969.311 285.067 967.404 268.331C965.497 251.595 952.741 239.304 938.913 240.88C925.085 242.455 915.421 257.3 917.328 274.036C919.235 290.773 931.99 303.063 945.818 301.488Z" fill="#FF7964"/>
<path d="M945.784 301.189C959.503 299.626 969.093 284.925 967.205 268.354C965.317 251.782 952.665 239.615 938.947 241.178C925.228 242.741 915.638 257.442 917.526 274.014C919.414 290.585 932.066 302.752 945.784 301.189Z" fill="#FF7864"/>
<path d="M945.75 300.891C959.359 299.341 968.875 284.783 967.006 268.376C965.136 251.969 952.589 239.925 938.98 241.476C925.372 243.026 915.855 257.584 917.725 273.991C919.594 290.398 932.141 302.442 945.75 300.891Z" fill="#FF7763"/>
<path d="M945.727 300.694C959.171 299.162 968.564 284.709 966.707 268.411C964.85 252.114 952.447 240.144 939.003 241.676C925.559 243.207 916.165 257.661 918.022 273.958C919.879 290.256 932.283 302.226 945.727 300.694Z" fill="#FF7662"/>
<path d="M945.693 300.396C959.027 298.877 968.346 284.567 966.508 268.434C964.67 252.301 952.371 240.455 939.036 241.974C925.702 243.493 916.383 257.803 918.221 273.936C920.059 290.068 932.358 301.915 945.693 300.396Z" fill="#FF7662"/>
<path d="M945.671 300.197C958.896 298.69 968.137 284.479 966.311 268.456C964.485 252.433 952.285 240.665 939.06 242.172C925.836 243.679 916.595 257.89 918.421 273.913C920.246 289.936 932.447 301.704 945.671 300.197Z" fill="#FF7561"/>
<path d="M945.637 299.899C958.752 298.404 967.919 284.337 966.112 268.479C964.305 252.62 952.209 240.976 939.094 242.47C925.979 243.964 916.812 258.032 918.619 273.89C920.426 289.748 932.522 301.393 945.637 299.899Z" fill="#FF7461"/>
<path d="M945.603 299.601C958.608 298.119 967.701 284.195 965.913 268.501C964.125 252.808 952.133 241.287 939.128 242.768C926.123 244.25 917.03 258.174 918.818 273.867C920.606 289.561 932.598 301.082 945.603 299.601Z" fill="#FF7360"/>
<path d="M945.58 299.402C958.475 297.932 967.489 284.108 965.714 268.524C963.938 252.94 952.045 241.497 939.15 242.967C926.254 244.436 917.24 258.26 919.016 273.844C920.791 289.428 932.684 300.871 945.58 299.402Z" fill="#FF7260"/>
<path d="M945.545 299.103C958.331 297.647 967.271 283.966 965.515 268.546C963.758 253.127 951.969 241.808 939.183 243.265C926.398 244.721 917.457 258.402 919.214 273.822C920.971 289.241 932.76 300.56 945.545 299.103Z" fill="#FF715F"/>
<path d="M945.524 298.904C958.145 297.466 966.962 283.889 965.218 268.58C963.474 253.27 951.829 242.025 939.208 243.463C926.587 244.901 917.77 258.477 919.514 273.787C921.258 289.097 932.903 300.342 945.524 298.904Z" fill="#FF705F"/>
<path d="M945.49 298.606C958.001 297.18 966.745 283.747 965.019 268.602C963.294 253.457 951.752 242.335 939.241 243.761C926.73 245.186 917.987 258.619 919.712 273.764C921.438 288.909 932.979 300.031 945.49 298.606Z" fill="#FF6F5E"/>
<path d="M945.456 298.308C957.857 296.895 966.527 283.605 964.82 268.625C963.113 253.644 951.676 242.646 939.275 244.059C926.874 245.472 918.204 258.761 919.911 273.742C921.618 288.722 933.055 299.721 945.456 298.308Z" fill="#FF6E5D"/>
<path d="M945.433 298.109C957.724 296.708 966.315 283.518 964.621 268.647C962.927 253.777 951.589 242.857 939.297 244.257C927.005 245.658 918.415 258.848 920.109 273.719C921.803 288.589 933.141 299.509 945.433 298.109Z" fill="#FF6D5D"/>
<path d="M945.398 297.811C957.58 296.423 966.097 283.376 964.422 268.67C962.746 253.964 951.513 243.167 939.331 244.555C927.149 245.943 918.632 258.99 920.307 273.696C921.983 288.402 933.217 299.199 945.398 297.811Z" fill="#FF6C5C"/>
<path d="M945.364 297.513C957.436 296.137 965.88 283.234 964.223 268.692C962.566 254.151 951.437 243.478 939.364 244.853C927.292 246.229 918.849 259.132 920.506 273.673C922.163 288.215 933.292 298.888 945.364 297.513Z" fill="#FF6B5C"/>
<path d="M945.343 297.315C957.251 295.958 965.571 283.159 963.926 268.728C962.282 254.296 951.296 243.697 939.389 245.053C927.481 246.41 919.161 259.209 920.805 273.641C922.45 288.072 933.436 298.672 945.343 297.315Z" fill="#FF6A5B"/>
<path d="M945.309 297.017C957.107 295.673 965.353 283.017 963.727 268.75C962.102 254.483 951.22 244.007 939.422 245.351C927.625 246.695 919.378 259.351 921.004 273.618C922.629 287.885 933.511 298.361 945.309 297.017Z" fill="#FF695B"/>
<path d="M945.286 296.818C956.974 295.486 965.141 282.93 963.528 268.773C961.915 254.615 951.132 244.218 939.444 245.55C927.756 246.881 919.589 259.438 921.202 273.595C922.815 287.752 933.598 298.15 945.286 296.818Z" fill="#FF685A"/>
<path d="M945.251 296.52C956.83 295.201 964.923 282.788 963.329 268.795C961.735 254.803 951.056 244.529 939.478 245.848C927.9 247.167 919.806 259.58 921.4 273.572C922.995 287.565 933.673 297.839 945.251 296.52Z" fill="#FF6759"/>
<path d="M945.217 296.222C956.686 294.915 964.706 282.646 963.13 268.818C961.555 254.99 950.98 244.839 939.512 246.146C928.043 247.452 920.023 259.722 921.599 273.55C923.174 287.378 933.749 297.528 945.217 296.222Z" fill="#FF6659"/>
<path d="M945.196 296.023C956.555 294.729 964.496 282.559 962.933 268.84C961.37 255.122 950.895 245.05 939.536 246.344C928.177 247.638 920.236 259.808 921.799 273.527C923.362 287.245 933.837 297.317 945.196 296.023Z" fill="#FF6558"/>
<path d="M945.162 295.725C956.411 294.443 964.278 282.417 962.734 268.863C961.189 255.309 950.818 245.361 939.569 246.642C928.32 247.924 920.453 259.95 921.997 273.504C923.542 287.058 933.913 297.006 945.162 295.725Z" fill="#FF6458"/>
<path d="M945.139 295.527C956.223 294.264 963.967 282.342 962.435 268.898C960.904 255.454 950.676 245.579 939.592 246.842C928.507 248.105 920.763 260.027 922.295 273.471C923.827 286.915 934.054 296.79 945.139 295.527Z" fill="#FF6357"/>
<path d="M945.104 295.229C956.079 293.979 963.749 282.2 962.236 268.921C960.723 255.641 950.6 245.89 939.625 247.14C928.651 248.391 920.98 260.169 922.493 273.449C924.006 286.728 934.13 296.48 945.104 295.229Z" fill="#FF6257"/>
<path d="M945.07 294.931C955.935 293.693 963.532 282.058 962.037 268.943C960.543 255.828 950.524 246.2 939.659 247.438C928.794 248.676 921.198 260.311 922.692 273.426C924.186 286.541 934.205 296.169 945.07 294.931Z" fill="#FF6156"/>
<path d="M945.049 294.732C955.804 293.507 963.322 281.971 961.84 268.966C960.358 255.961 950.438 246.411 939.683 247.637C928.928 248.862 921.41 260.398 922.892 273.403C924.374 286.408 934.294 295.957 945.049 294.732Z" fill="#FF6055"/>
<path d="M945.015 294.434C955.66 293.221 963.104 281.829 961.641 268.988C960.178 256.148 950.362 246.722 939.717 247.935C929.071 249.148 921.627 260.54 923.09 273.38C924.553 286.221 934.369 295.647 945.015 294.434Z" fill="#FF5F55"/>
<path d="M944.991 294.235C955.527 293.034 962.892 281.741 961.442 269.01C959.991 256.28 950.274 246.933 939.739 248.133C929.203 249.334 921.838 260.627 923.288 273.358C924.739 286.088 934.456 295.435 944.991 294.235Z" fill="#FF5E54"/>
<path d="M944.957 293.936C955.328 292.755 962.575 281.61 961.143 269.044C959.712 256.478 950.144 247.249 939.773 248.431C929.402 249.612 922.155 260.757 923.586 273.323C925.018 285.889 934.586 295.118 944.957 293.936Z" fill="#FF5D54"/>
<path d="M944.923 293.638C955.184 292.469 962.358 281.468 960.945 269.067C959.532 256.665 950.068 247.56 939.806 248.729C929.545 249.898 922.372 260.899 923.785 273.3C925.198 285.702 934.662 294.807 944.923 293.638Z" fill="#FF5C53"/>
<path d="M944.902 293.439C955.053 292.283 962.148 281.381 960.747 269.089C959.347 256.797 949.982 247.771 939.83 248.927C929.679 250.084 922.585 260.986 923.985 273.277C925.385 285.569 934.75 294.596 944.902 293.439Z" fill="#FF5B53"/>
<path d="M944.868 293.141C954.909 291.997 961.93 281.239 960.548 269.112C959.166 256.985 949.906 248.081 939.864 249.225C929.822 250.369 922.802 261.128 924.183 273.255C925.565 285.382 934.826 294.285 944.868 293.141Z" fill="#FF5A52"/>
<path d="M944.844 292.944C954.776 291.812 961.718 281.153 960.349 269.136C958.98 257.119 949.818 248.294 939.886 249.426C929.954 250.557 923.012 261.217 924.381 273.234C925.751 285.251 934.912 294.076 944.844 292.944Z" fill="#FF5952"/>
<path d="M944.81 292.646C954.632 291.527 961.5 281.011 960.15 269.158C958.799 257.306 949.742 248.605 939.92 249.724C930.097 250.843 923.23 261.358 924.58 273.211C925.93 285.064 934.988 293.765 944.81 292.646Z" fill="#FF5851"/>
<path d="M944.776 292.348C954.488 291.241 961.283 280.869 959.951 269.181C958.619 257.493 949.666 248.915 939.953 250.022C930.241 251.128 923.447 261.5 924.778 273.188C926.11 284.877 935.063 293.454 944.776 292.348Z" fill="#FF5750"/>
<path d="M944.755 292.148C954.303 291.061 960.974 280.793 959.654 269.214C958.335 257.636 949.526 249.132 939.978 250.22C930.43 251.308 923.759 261.576 925.078 273.154C926.397 284.732 935.207 293.236 944.755 292.148Z" fill="#FF5650"/>
<path d="M944.721 291.85C954.159 290.775 960.756 280.651 959.455 269.237C958.155 257.823 949.45 249.442 940.011 250.518C930.573 251.593 923.976 261.717 925.277 273.131C926.577 284.545 935.282 292.926 944.721 291.85Z" fill="#FF554F"/>
<path d="M944.697 291.651C954.026 290.588 960.544 280.563 959.256 269.259C957.968 257.955 949.362 249.653 940.033 250.716C930.705 251.779 924.187 261.804 925.475 273.108C926.762 284.412 935.369 292.714 944.697 291.651Z" fill="#FF544F"/>
<path d="M944.663 291.353C953.882 290.303 960.326 280.421 959.057 269.282C957.788 258.143 949.286 249.964 940.067 251.014C930.848 252.065 924.404 261.946 925.673 273.086C926.942 284.225 935.444 292.404 944.663 291.353Z" fill="#FF534E"/>
<path d="M944.629 291.055C953.738 290.017 960.108 280.279 958.858 269.304C957.608 258.33 949.21 250.274 940.101 251.312C930.992 252.35 924.621 262.088 925.871 273.063C927.122 284.038 935.52 292.093 944.629 291.055Z" fill="#FF524E"/>
<path d="M944.607 290.856C953.607 289.831 959.899 280.192 958.661 269.327C957.423 258.462 949.124 250.485 940.125 251.511C931.125 252.536 924.834 262.175 926.072 273.04C927.309 283.905 935.608 291.881 944.607 290.856Z" fill="#FF514D"/>
</g>
<path d="M944.299 303.8C942.199 306.4 947.799 345.2 987.499 343.3C1030 341.3 1028.4 302.4 1027.5 300.7C1025.9 297.8 951.199 295.2 944.299 303.8Z" fill="#F7755C"/>
<path d="M946.398 304.401C945.798 305.201 949.198 335.701 986.798 333.801C1024.9 331.901 1026.6 303.101 1026.1 302.301C1024.6 299.801 948.698 301.301 946.398 304.401Z" fill="url(#paint13_linear_2394_71810)"/>
<path d="M952.898 303.601C952.898 303.601 953.198 309.501 957.198 313.501C966.098 322.501 1008.6 320.701 1015.7 311.801C1020.4 306.001 1020.1 301.301 1020.1 301.301L952.898 303.501V303.601Z" fill="#F3ECEC"/>
<path opacity="0.3" d="M1020.1 301.301L952.898 303.501C952.898 303.501 953.198 308.901 956.698 312.901C959.098 308.201 969.298 315.001 985.498 314.501C1002.9 313.901 1008.3 309.301 1011.9 309.801C1014.2 310.101 1014.3 311.401 1013.8 313.401C1014.5 312.901 1015.2 312.301 1015.6 311.801C1020.3 306.001 1020 301.301 1020 301.301H1020.1Z" fill="#BAB0A2"/>
<path opacity="0.1" d="M1048.7 146.8C1050.1 146.5 1051.5 146.3 1052.9 146C1058.4 144.8 1063.2 143.1 1067.4 141.4C1069.4 140.6 1071.3 139.9 1073 139.2C1070 136.6 1061.7 136.1 1064.4 135.9C1026.1 138 1006.5 120.3 991.399 112.9C980.999 107.8 968.299 103.7 956.399 103.4C950.499 103.3 944.699 104.6 939.199 106.2C934.599 107.6 930.699 109.7 927.699 112C926.999 116.6 926.899 120.5 927.099 123.8C928.799 122.9 930.799 122.1 932.899 121.4C935.799 120.5 939.099 119.8 942.699 119.7C956.899 119.5 969.799 125.1 982.299 130.4C987.399 132.6 992.599 135 998.199 137.4C1003.7 139.8 1009.5 142.1 1015.5 144C1025.7 147.3 1038.2 148.7 1048.8 146.7L1048.7 146.8Z" fill="#FFBA80"/>
<path d="M1008.6 204C1008.6 204 991.498 235.8 1008.6 257.2L1052 253.4C1052 253.4 1056 239 1055 229.5C1054 220.1 1008.5 203.9 1008.5 203.9L1008.6 204Z" fill="url(#paint14_linear_2394_71810)"/>
<path d="M927.7 226.6C924.8 235 922.6 249.1 922.6 249.1L963 255.9C982.6 235.8 975.8 202.1 975.8 202.1C975.8 202.1 930.6 218.3 927.7 226.6Z" fill="url(#paint15_linear_2394_71810)"/>
<path d="M922.6 249.099C922.6 249.099 923.3 253.299 941.8 255.299C962.7 257.499 963.1 255.999 963.1 255.999C963.1 255.999 944.1 218.499 922.7 249.199L922.6 249.099Z" fill="#F2F2F2"/>
<path opacity="0.3" d="M922.6 249.1C922.6 249.1 922.7 249.9 924.3 250.9C924.6 250.6 924.9 250.3 925.4 250.1C936.6 243.7 952.8 244.6 958.6 256.4C962.9 256.4 963 255.9 963 255.9C963 255.9 944 218.4 922.6 249.1Z" fill="#CEBEB3"/>
<path d="M1052.1 253.1C1052.1 253.1 1051.2 257.6 1031.2 257.8C1010.2 258 1008.7 257.2 1008.7 257.2C1008.7 257.2 1011.2 250 1018.2 244.9C1026.8 238.6 1041.2 235.5 1052.1 253V253.1Z" fill="#F2F2F2"/>
<path opacity="0.3" d="M1034.2 249.1C1040 249.5 1044.9 251.8 1049 255.5C1051.9 254.3 1052.1 253.1 1052.1 253.1C1041.2 235.6 1026.9 238.7 1018.2 245C1011.2 250.1 1008.7 257.3 1008.7 257.3C1008.7 257.3 1009 257.5 1011.2 257.6C1016.7 251.5 1026.1 248.6 1034.1 249.1H1034.2Z" fill="#CEBEB3"/>
<path d="M937.299 254.699C938.699 254.899 940.099 255.099 941.799 255.299C946.999 255.899 950.999 256.199 953.899 256.299C955.799 250.999 955.299 245.699 952.999 242.799C952.399 242.299 951.799 241.799 951.199 241.299C950.999 241.199 950.699 241.099 950.499 240.999C946.199 239.499 940.699 243.799 938.199 250.699C937.699 252.099 937.399 253.399 937.299 254.699Z" fill="url(#paint16_linear_2394_71810)"/>
<path d="M1031.2 257.8C1034.2 257.8 1036.8 257.6 1039 257.4C1040.4 250.7 1038.8 244.6 1035 243.1C1030.7 241.4 1025.2 246.2 1022.7 253.9C1022.3 255.1 1022.1 256.5 1021.9 257.9C1024.5 257.9 1027.6 257.9 1031.2 257.9V257.8Z" fill="url(#paint17_linear_2394_71810)"/>
<path d="M942.8 234.2C927.7 233.2 922.6 249.1 922.6 249.1C922.6 249.1 929.9 242 941.6 242.1C954.4 242.3 963.1 255.9 963.1 255.9C963.1 255.9 963.1 235.5 942.8 234.2Z" fill="#603F37"/>
<path d="M927.699 226.6C947.599 214.8 964.699 221.8 973.599 214.1C976.999 211.2 975.799 202.1 975.799 202.1C926.599 205.1 927.699 226.6 927.699 226.6Z" fill="url(#paint18_linear_2394_71810)"/>
<path d="M1008.9 203.4C1008.9 203.4 1005.1 210 1007.4 213.4C1014.4 224.1 1040.6 219.5 1055.3 232.3C1055.3 232.3 1062.4 211 1009 203.4H1008.9Z" fill="url(#paint19_linear_2394_71810)"/>
<path d="M1032.7 237.599C1012.2 235.699 1008.7 257.199 1008.7 257.199C1008.7 257.199 1014.6 243.999 1032.4 245.799C1050.3 247.499 1052.1 253.099 1052.1 253.099C1052.1 253.099 1053.5 239.599 1032.7 237.599Z" fill="#603F37"/>
<path d="M951.398 251.899C951.598 249.499 949.898 247.699 947.598 247.799C945.298 247.799 943.398 249.899 943.198 252.199C943.098 253.599 943.698 254.899 944.698 255.599C946.098 255.699 947.298 255.899 948.498 255.999C950.098 255.299 951.298 253.699 951.398 251.899Z" fill="#1E1D1D"/>
<path d="M1035.3 254.2C1035.5 251.8 1033.8 250 1031.5 250.1C1029.2 250.1 1027.3 252.2 1027.1 254.5C1027 255.9 1027.6 257.1 1028.5 257.9C1029.3 257.9 1030.2 257.9 1031.1 257.9C1031.8 257.9 1032.5 257.9 1033.2 257.9C1034.3 257.1 1035.1 255.8 1035.3 254.3V254.2Z" fill="#1E1D1D"/>
<path opacity="0.8" d="M944.099 246.9C941.999 247.6 940.5 249.2 940.7 250.5C940.9 251.8 942.699 252.3 944.799 251.7C946.899 251 948.4 249.4 948.2 248.1C948 246.8 946.199 246.3 944.099 246.9Z" fill="white"/>
<path opacity="0.8" d="M1027.1 250.399C1025.1 251.199 1023.7 252.899 1024.1 254.299C1024.4 255.599 1026.4 256.099 1028.4 255.299C1030.4 254.499 1031.8 252.799 1031.4 251.399C1031.1 250.099 1029.1 249.599 1027.1 250.399Z" fill="white"/>
<path d="M975.999 262.8C975.999 262.8 960.099 259.4 955.799 273.2C950.399 290.8 985.499 302.2 995.599 284C1005.8 265.7 981.399 230.5 981.399 230.5C981.399 230.5 986.999 248.6 975.899 262.8H975.999Z" fill="#FF9C78"/>
<path d="M955.299 278.2C956.999 292.8 986.399 300.5 995.599 284C996.199 283 996.599 281.9 996.999 280.8C982.999 283.4 968.499 282.2 955.299 278.1V278.2Z" fill="url(#paint20_linear_2394_71810)"/>
<path opacity="0.2" d="M986.498 249.3L982.498 249.1C982.498 249.1 980.098 261.8 976.098 263.5C975.498 263.5 974.898 263.4 974.198 263.3C967.298 262.9 961.498 264.9 961.298 268C961.098 271 966.598 273.6 973.498 274C979.998 274.4 985.698 273.4 986.598 269.9C986.598 269.9 990.098 256.6 986.398 249.3H986.498Z" fill="white"/>
<path opacity="0.1" d="M1047.5 156.4C1049.4 154.4 1046.6 151.6 1044.5 153.4C1040.6 156.9 1036.5 160 1032.2 162.7C1034.1 162.8 1036.1 163.5 1038 164.8C1041.5 162.3 1044.5 159.4 1047.5 156.4Z" fill="black"/>
<path opacity="0.1" d="M993.099 355.5C987.699 356.6 982.399 356.7 976.999 355.9C972.699 355.3 972.499 362.1 976.799 362.7C982.799 363.6 988.799 363.3 994.699 362.1C998.999 361.2 997.399 354.6 993.099 355.5Z" fill="black"/>
<path d="M943.898 258.599C942.098 258.599 940.398 258.499 938.598 258.299C938.498 258.299 938.398 258.299 938.298 258.299C938.098 258.299 937.898 258.299 937.698 258.199C937.298 258.199 936.898 257.999 936.398 257.899C935.498 257.699 934.698 257.399 933.798 257.099C932.798 256.799 931.598 257.399 931.298 258.399C930.998 259.499 931.598 260.499 932.598 260.899C936.198 262.099 939.898 262.699 943.698 262.599C944.698 262.599 945.798 261.799 945.798 260.699C945.798 259.699 944.998 258.599 943.898 258.599Z" fill="#E96954"/>
<path d="M1039.7 261.899C1039.4 260.799 1038.4 260.199 1037.3 260.399C1036.4 260.599 1035.5 260.799 1034.5 260.899C1034.3 260.899 1034.1 260.899 1033.9 260.899C1033.9 260.899 1033.5 260.899 1033.4 260.899C1032.9 260.899 1032.5 260.899 1032 260.899C1030.1 260.899 1028.2 260.899 1026.4 260.599C1025.4 260.499 1024.3 261.499 1024.3 262.499C1024.3 263.699 1025.1 264.399 1026.2 264.599C1030.2 265.099 1034.3 264.899 1038.2 263.999C1039.2 263.799 1040 262.599 1039.7 261.599V261.899Z" fill="#E96954"/>
<path d="M841 909.1C841 909.1 831.7 1042.7 847.5 1094C849.6 1100.8 878 1127.1 884.7 1126.5C895.6 1125.4 947.8 1090.9 950 1083.5C952.2 1076.1 958.3 941.4 958.6 935.7C958.8 931.7 841.1 909.1 841.1 909.1H841Z" fill="url(#paint21_linear_2394_71810)"/>
<path d="M1222.4 547C1223.9 549.5 1204.9 563 1181.9 576.2C1158.9 589.4 1139.1 598.1 1137.6 595.6C1136.1 593.1 1153.5 580.4 1176.5 567.2C1199.5 554 1221 544.5 1222.5 547H1222.4Z" fill="#D0D0D9"/>
<path d="M1066.7 414.5C1068.2 409.7 1068.2 404.9 1066.9 400.6C1066 400.4 1065.2 400.1 1064.4 399.9C1063.2 399.6 1062 399.3 1060.9 399.1C1063.1 403.1 1063.6 407.9 1062 413C1057.4 427.5 1035.8 444.4 990 444.2C956.1 444 933.1 436 925.4 421.6C921.9 415 923.4 404.2 928.1 397.4C926.4 397.6 924.5 397.9 922.6 398.2C918.3 404.9 917.4 417.2 921.1 424C927.2 435.4 944.1 449 990 449.2C1038.4 449.4 1061.6 430.7 1066.7 414.5Z" fill="#D0D0D9"/>
<path d="M1184.1 1417.4V1346.7H1171.4C1171.6 1343.7 1171.8 1342 1171.8 1342C1171.8 1342 1171.4 1337 1180.2 1334.3C1188.9 1331.6 1222.5 1336.5 1225.9 1347.7C1234.5 1376 1218 1426.8 1219.4 1433.1C1220.8 1439.5 1229.3 1511.3 1214.8 1536C1200.3 1560.7 1164.6 1554.1 1160.8 1538C1158.7 1529 1162.4 1468.7 1166.1 1417.4H1184.3H1184.1Z" fill="#F0F0F7"/>
<path d="M1168.9 1349.4C1170.6 1351.6 1180 1361.7 1174.6 1382.3C1169.6 1401.7 1158 1406.2 1158 1406.2C1158 1406.2 1152 1405.2 1149.4 1404.3C1146.8 1403.4 1121.7 1407.9 1117.2 1415.2C1112.7 1422.4 1144.6 1473.1 1146.5 1484.4C1148.4 1495.7 1153.8 1530.1 1160.6 1538C1166.1 1544.4 1191.1 1552 1204 1534.8C1214.1 1521.4 1215.7 1459.7 1212.2 1441C1205.5 1404.5 1220.2 1360.7 1206.7 1346.5C1193.2 1332.2 1157.9 1338.4 1155.2 1341.2C1152.5 1344 1152.4 1345.1 1152.9 1345.1C1153.3 1345.1 1168.9 1349.4 1168.9 1349.4Z" fill="url(#paint22_linear_2394_71810)"/>
<path d="M1120.2 1429.6C1120.2 1429.6 1126.2 1433.2 1134.2 1428.9C1142.1 1424.6 1147.3 1415.1 1152.8 1418C1158.3 1420.9 1175.7 1457.4 1173.2 1471.6C1170.7 1485.8 1149.3 1485.5 1145.8 1484.2C1142.2 1482.8 1123.2 1459.1 1120.3 1429.6H1120.2Z" fill="#F0F0F7"/>
<path d="M1166.1 1440.9C1166.8 1442.5 1167.4 1444.2 1168 1445.8C1157.4 1454.8 1144 1460.3 1130.1 1461.1C1129.8 1461.1 1129.6 1461.1 1129.3 1461.1C1128.5 1459.5 1127.8 1457.9 1127.1 1456.2C1139.2 1456 1151.2 1452.1 1161 1445C1162.8 1443.7 1164.4 1442.4 1166 1440.9H1166.1Z" fill="url(#paint23_linear_2394_71810)"/>
<path d="M1158.7 1425.7C1159.5 1427.1 1160.4 1428.7 1161.2 1430.3C1153.4 1438.7 1142.5 1444.2 1131.2 1445.7C1128.6 1446 1126.1 1446.1 1123.5 1446C1123 1444.3 1122.5 1442.7 1122.1 1440.9C1134.2 1441.7 1146.3 1437.3 1155.3 1429.1C1156.5 1428 1157.6 1426.8 1158.7 1425.6V1425.7Z" fill="url(#paint24_linear_2394_71810)"/>
<path d="M1137.3 1474.8C1136.3 1473.4 1135.3 1471.8 1134.2 1470C1146 1469.5 1157.6 1464.4 1166.1 1456.2C1167.5 1454.8 1168.8 1453.4 1170.1 1451.8C1170.7 1453.7 1171.3 1455.7 1171.7 1457.5C1163.8 1466.1 1153.1 1471.9 1141.6 1474.1C1140.1 1474.4 1138.7 1474.6 1137.2 1474.7L1137.3 1474.8Z" fill="url(#paint25_linear_2394_71810)"/>
<path d="M1203.8 1535.8C1192.2 1541.2 1183.9 1534.6 1169.8 1537.7C1161.8 1539.4 1164.7 1543.7 1166.7 1546.2C1171.8 1552.7 1184.3 1552.2 1194.6 1546.4C1204.8 1540.6 1203.8 1535.8 1203.8 1535.8Z" fill="#F0F0F7"/>
<path d="M1209.4 1542.9C1209.4 1542.9 1199.9 1543.6 1190.7 1542.1C1181.3 1540.5 1176.8 1540.1 1171.7 1540.7C1164.2 1541.6 1169.5 1548.3 1169.5 1548.3C1169.5 1548.3 1188.5 1561.3 1209.4 1543V1542.9Z" fill="#D2D2DB"/>
<path d="M1131 731.899C1130.5 721.199 1129.8 709.199 1129.1 696.799C1110.3 699.499 1092.9 701.799 1087.8 702.599C1084.1 698.499 1076.6 690.899 1067.7 685.799C1054.9 678.499 1026 666.699 1022.2 661.899C1018.2 656.899 1016.8 649.999 1013.2 651.099C1006.4 652.999 1004.7 665.099 1010.6 674.999C1016.1 684.399 1030.6 692.199 1030.2 696.099C1029.8 699.999 1010.9 698.799 978.899 701.099C948.199 703.299 936.699 708.599 938.899 716.899C940.699 723.499 960.399 721.399 976.099 721.199C991.799 720.999 994.399 722.999 994.399 722.999C994.399 722.999 991.099 724.399 991.899 735.399C992.599 746.399 1000.8 745.999 1000.8 745.999C1000.8 745.999 997.099 750.999 998.699 757.499C1000.4 763.899 1009 765.199 1009 765.199C1009 765.199 1006.9 773.199 1015.3 777.499C1023.4 781.699 1067.8 773.699 1083.5 768.599C1088.7 766.899 1122.4 777.199 1134.8 776.899C1133.9 766.999 1131.7 741.099 1131.2 731.799L1131 731.899Z" fill="url(#paint26_linear_2394_71810)"/>
<path d="M693.8 1551.1H280.8C221.6 1551.1 173.6 1503.1 173.6 1443.9V436.2C173.6 377 221.6 329 280.8 329H693.8C753 329 801 377 801 436.2V1443.9C801 1503.1 753 1551.1 693.8 1551.1Z" fill="white"/>
<path d="M715.4 1554.4H259.1C206.4 1554.4 163.6 1511.5 163.6 1458.9V421.199C163.6 368.499 206.5 325.699 259.1 325.699H715.4C768.1 325.699 810.9 368.599 810.9 421.199V1458.9C810.9 1511.6 768 1554.4 715.4 1554.4ZM259.2 359.399C225.2 359.399 197.5 387.099 197.5 421.099V1458.8C197.5 1492.8 225.2 1520.5 259.2 1520.5H715.5C749.5 1520.5 777.2 1492.8 777.2 1458.8V421.199C777.2 387.199 749.5 359.499 715.5 359.499H259.2V359.399Z" fill="url(#paint27_linear_2394_71810)"/>
<path d="M1142.2 582.4C1142.2 582.4 1176.6 640.8 1174.4 645.9C1172.2 651.1 1076 662.3 1076 663.1C1076 663.9 1078 721.6 1081.6 723.9C1081.6 723.9 1087.4 721.1 1092.6 721.2C1128.7 721.8 1249.6 719.8 1263 694.4C1278.7 664.7 1217.4 543.9 1213.5 544.2C1209.6 544.5 1148.2 570.5 1142.2 582.4Z" fill="url(#paint28_linear_2394_71810)"/>
<path d="M1079.9 665.8C1079.9 665.8 1070.1 653.4 1057.3 646.1C1044.5 638.8 1015.6 627 1011.8 622.2C1007.8 617.2 1006.4 610.3 1002.8 611.4C996.001 613.3 994.301 625.4 1000.2 635.3C1005.7 644.7 1020.2 652.5 1019.8 656.4C1019.4 660.3 999.301 660.3 967.201 662.6C936.501 664.8 926.201 668.9 928.501 677.2C930.301 683.8 951.501 681.7 967.101 681.5C982.801 681.3 993.601 681.8 993.601 681.8C993.601 681.8 980.601 684.6 981.301 695.7C982.001 706.7 990.201 706.3 990.201 706.3C990.201 706.3 986.501 711.3 988.101 717.8C989.801 724.2 998.401 725.5 998.401 725.5C998.401 725.5 996.301 733.5 1004.7 737.8C1012.8 742 1039.9 737.9 1047.2 736.8C1054.5 735.7 1087.2 721.5 1087.2 721.5L1079.9 665.7V665.8Z" fill="#FF9C78"/>
<path d="M1173.6 641.901C1174.3 643.901 1174.6 645.3 1174.3 646C1174.1 646.5 1172.8 647.2 1170.7 647.8C1176.1 646.4 1216.9 636.3 1229.1 637.2L1229.5 632.2C1218.2 631.3 1185.9 638.901 1173.7 641.901H1173.6Z" fill="url(#paint29_linear_2394_71810)"/>
<path d="M847.399 560.4L851.399 516.3L846.399 515.9L843.699 545.5L847.399 545.1C847.399 548.4 847.399 553.6 847.399 560.4Z" fill="#D0D0D9"/>
<path d="M1213.3 517.199C1198.7 520.199 1154.1 531.499 1120.8 562.499L1108 523.399L1103.2 524.999L1122.9 585.299C1122.7 581.099 1122.5 577.499 1122.4 574.399C1122.4 574.399 1125.9 582.799 1129.6 589.799L1122.4 567.799C1155.9 535.499 1202.4 524.399 1215.3 521.899C1214.6 520.399 1213.9 518.799 1213.2 517.199H1213.3Z" fill="#D0D0D9"/>
<path d="M1051.8 735.6C1051.7 735.6 1023.7 737.3 1021 734.6C1018.2 731.8 1004.4 681.6 1004.4 681.6L993.599 681.8C993.599 681.8 980.599 684.6 981.299 695.7C981.999 706.7 990.199 706.3 990.199 706.3C990.199 706.3 986.499 711.3 988.099 717.8C989.799 724.2 998.399 725.5 998.399 725.5C998.399 725.5 996.299 733.5 1004.7 737.8C1012.8 742 1039.9 737.9 1047.2 736.8C1048.3 736.6 1049.8 736.2 1051.8 735.6Z" fill="url(#paint30_linear_2394_71810)"/>
<path d="M1003 630.5C998.1 622.1 1000.7 612.4 1000.7 612.4C995.7 615.9 994.9 626.5 1000.1 635.4C1005.6 644.8 1020.1 652.6 1019.7 656.5C1019.6 657.8 1017.4 658.6 1013.5 659.3C1013.7 659.3 1013.7 659.3 1013.7 659.3C1013.7 659.3 1035.6 657.7 1036.3 655.6C1037 653.5 1008 638.9 1003 630.5Z" fill="url(#paint31_linear_2394_71810)"/>
<path d="M1003.4 723.1C999.6 723.5 995.8 723.5 992.1 723C995 725 998.4 725.5 998.4 725.5C998.4 725.5 998.1 726.7 998.2 728.5C999.9 728.5 1001.7 728.4 1003.4 728.2C1004.7 728 1005.9 727.2 1005.9 725.7C1005.9 724.2 1004.7 723 1003.4 723.2V723.1Z" fill="url(#paint32_linear_2394_71810)"/>
<path d="M990.2 706.3C990.2 706.3 989.2 707.6 988.5 709.8C991.5 709.8 994.5 709.6 997.5 709.4C998.8 709.4 1000 708.3 1000 706.9C1000 705.5 998.9 704.3 997.5 704.4C993.5 704.7 989.6 704.8 985.6 704.9C987.9 706.4 990.1 706.3 990.1 706.3H990.2Z" fill="url(#paint33_linear_2394_71810)"/>
<path d="M567.999 347.999C575.399 349.399 576.399 345.799 576.299 345.599C576.299 345.599 578.599 353.299 584.599 353.299C592.299 353.299 594.199 348.299 594.199 348.299C594.199 348.299 595.799 352.699 602.399 352.199C608.899 351.699 611.299 344.099 611.299 344.099C611.299 344.099 611.899 350.299 622.499 348.299C631.699 346.499 631.799 332.399 631.799 332.399L658.599 325.699H547.199L556.499 328.999C556.499 328.999 558.999 346.299 567.999 347.999Z" fill="url(#paint34_linear_2394_71810)"/>
<path d="M1138.7 593C1143 588.1 1157.9 577.8 1176.4 567.2C1191 558.8 1219.3 546.9 1221.5 546.6C1219.2 542.5 1214.4 532 1214.4 532C1214.1 532.8 1130.3 577.8 1130.3 577.8L1138.8 592.9L1138.7 593Z" fill="url(#paint35_linear_2394_71810)"/>
<path d="M626.999 308.299C626.999 308.299 626.499 302.299 620.999 299.699C614.799 296.699 609.699 300.999 609.699 300.999C609.699 300.999 609.199 293.199 599.199 293.999C589.199 294.799 587.499 302.799 587.499 302.799C587.499 302.799 584.999 298.199 577.499 300.499C569.999 302.799 569.199 309.299 569.199 309.299C569.199 309.299 566.699 305.699 556.899 309.499C547.199 313.299 547.199 325.699 547.199 325.699L557.599 326.099C557.599 326.099 559.199 335.899 565.699 338.199C572.199 340.499 576.199 337.499 576.199 337.499C576.199 337.499 578.299 344.599 584.899 344.099C591.499 343.599 592.599 338.699 592.599 338.699C592.599 338.699 594.399 344.299 601.599 343.199C608.699 342.199 609.399 328.799 609.399 328.799C609.399 328.799 610.899 339.999 619.499 339.399C628.099 338.899 627.999 327.599 627.999 327.599L653.699 325.699C653.699 325.699 655.799 319.699 652.499 315.299C649.299 310.799 635.599 307.399 631.999 306.999C628.399 306.599 626.999 308.399 626.999 308.399V308.299Z" fill="#FF9C78"/>
<path d="M652.5 315.199C649.3 310.699 635.6 307.299 632 306.899C628.4 306.499 627 308.299 627 308.299C627 308.299 626.5 302.299 621 299.699C614.8 296.699 609.7 300.999 609.7 300.999C609.7 300.999 609.2 293.199 599.2 293.999C589.2 294.799 587.5 302.799 587.5 302.799C587.5 302.799 585 298.199 577.5 300.499C570 302.799 569.2 309.299 569.2 309.299C569.2 309.299 566.7 305.699 556.9 309.499C552.7 311.099 550.4 314.299 549 317.399C550.6 318.699 553.8 321.199 554.5 321.199C555.4 321.199 558.9 321.199 558.9 321.199C558.9 321.199 571.1 310.399 594.8 307.299C618.5 304.199 628.9 315.199 628.9 315.199C628.9 315.199 650.7 319.399 653.9 324.699C654.3 322.099 654.5 318.099 652.5 315.299V315.199Z" fill="url(#paint36_linear_2394_71810)"/>
<path d="M611.5 334.898C610 324.998 611.1 308.798 611.9 299.698C610.5 300.298 609.7 300.998 609.7 300.998C609.7 300.998 609.6 298.898 608 296.998C607.1 305.898 605.6 325.498 607.6 336.898C609 332.998 609.3 328.798 609.3 328.798C609.3 328.798 609.7 331.998 611.5 334.998V334.898Z" fill="url(#paint37_linear_2394_71810)"/>
<path d="M587.499 302.799C587.499 302.799 587.099 302.099 586.199 301.399C588.899 308.599 590.299 327.599 590.699 341.799C592.199 340.299 592.599 338.699 592.599 338.699C592.599 338.699 593.199 340.399 594.799 341.699C594.499 330.599 593.499 307.799 589.599 298.799C587.999 300.899 587.599 302.799 587.599 302.799H587.499Z" fill="url(#paint38_linear_2394_71810)"/>
<path d="M629.599 306.998C627.799 307.398 626.999 308.298 626.999 308.298C626.999 308.298 626.899 306.798 625.999 304.898C621.999 312.598 624.099 321.698 627.899 327.498L634.599 326.998C631.199 322.198 626.299 313.498 629.599 306.898V306.998Z" fill="url(#paint39_linear_2394_71810)"/>
<path d="M576.1 337.398C576.1 337.398 576.7 339.598 578.5 341.498C578.9 336.098 579.2 324.498 576 314.898C574.5 310.398 572.5 307.698 570.4 306.098C569.4 307.898 569.2 309.398 569.2 309.398C569.2 309.398 567.9 307.598 563.6 307.898C566.2 307.998 569.8 309.298 572.1 316.298C574.6 323.698 574.8 332.698 574.6 338.398C575.6 337.998 576.2 337.498 576.2 337.498L576.1 337.398Z" fill="url(#paint40_linear_2394_71810)"/>
<path d="M554.1 325.9H557.5C557.5 326 557.7 327.1 558.2 328.7C558.2 325.4 558.5 321.9 558.9 319.1L554.8 318.6C554.6 319.8 554.3 322.6 554.1 326V325.9Z" fill="url(#paint41_linear_2394_71810)"/>
<path d="M1074.9 142.8C1072.4 148.4 1046.6 142.3 1017.1 129.4C987.6 116.4 964.8 102.5 967.7 97.1998C972.1 89.0998 996.5 96.2998 1026 109.3C1055.5 122.3 1077.3 137.3 1074.9 142.9V142.8Z" fill="#0C4266"/>
<path d="M1075 143.499C1072.5 149.099 1046.7 142.999 1017.2 130.099C987.699 117.099 965.199 102.699 967.599 97.0994C968.099 96.0994 970.099 94.0994 971.999 94.4994C973.899 94.8994 994.299 110.099 1018.2 120.699C1044 132.099 1071.8 134.199 1074.7 140.999C1075.1 141.999 1075.2 142.799 1074.9 143.499H1075Z" fill="#092E4C"/>
<defs>
<linearGradient id="paint0_linear_2394_71810" x1="1136" y1="1378.4" x2="1156.6" y2="1344.2" gradientUnits="userSpaceOnUse">
<stop stop-color="#D97D67"/>
<stop offset="1" stop-color="#FF9C78"/>
</linearGradient>
<linearGradient id="paint1_linear_2394_71810" x1="1145" y1="935.5" x2="1145" y2="1464.9" gradientUnits="userSpaceOnUse">
<stop stop-color="#7FA3ED"/>
<stop offset="1" stop-color="#6388E2"/>
</linearGradient>
<linearGradient id="paint2_linear_2394_71810" x1="1066.6" y1="1422.1" x2="1067.9" y2="1458.7" gradientUnits="userSpaceOnUse">
<stop stop-color="#D97D67"/>
<stop offset="1" stop-color="#FF9C78"/>
</linearGradient>
<linearGradient id="paint3_linear_2394_71810" x1="1187.1" y1="1437.7" x2="1167.3" y2="1490.1" gradientUnits="userSpaceOnUse">
<stop stop-color="#EBEBF5"/>
<stop offset="1" stop-color="#D7D7DF"/>
</linearGradient>
<linearGradient id="paint4_linear_2394_71810" x1="1012.8" y1="1145.3" x2="1202.7" y2="1441" gradientUnits="userSpaceOnUse">
<stop stop-color="#7FA3ED"/>
<stop offset="1" stop-color="#6388E2"/>
</linearGradient>
<linearGradient id="paint5_linear_2394_71810" x1="980.931" y1="379.233" x2="980.843" y2="404.632" gradientUnits="userSpaceOnUse">
<stop stop-color="#D97D67"/>
<stop offset="1" stop-color="#FF9C78"/>
</linearGradient>
<linearGradient id="paint6_linear_2394_71810" x1="973.32" y1="382.301" x2="971.033" y2="407.193" gradientUnits="userSpaceOnUse">
<stop stop-color="#CF735D"/>
<stop offset="1" stop-color="#FF9C78"/>
</linearGradient>
<linearGradient id="paint7_linear_2394_71810" x1="995.9" y1="416.8" x2="995.9" y2="872.7" gradientUnits="userSpaceOnUse">
<stop stop-color="#EBEBF5"/>
<stop offset="1" stop-color="#D7D7DF"/>
</linearGradient>
<linearGradient id="paint8_linear_2394_71810" x1="947.285" y1="280.807" x2="989.085" y2="281.026" gradientUnits="userSpaceOnUse">
<stop stop-color="#F08A70"/>
<stop offset="1" stop-color="#FF9C78"/>
</linearGradient>
<linearGradient id="paint9_linear_2394_71810" x1="1082.2" y1="267.117" x2="1100.58" y2="300.343" gradientUnits="userSpaceOnUse">
<stop stop-color="#F08A70"/>
<stop offset="1" stop-color="#FF9C78"/>
</linearGradient>
<linearGradient id="paint10_linear_2394_71810" x1="903.966" y1="269.541" x2="885.444" y2="313.041" gradientUnits="userSpaceOnUse">
<stop stop-color="#D97D67"/>
<stop offset="1" stop-color="#FF9C78"/>
</linearGradient>
<linearGradient id="paint11_linear_2394_71810" x1="992.019" y1="160.771" x2="991.182" y2="190.759" gradientUnits="userSpaceOnUse">
<stop stop-color="#C4664F"/>
<stop offset="1" stop-color="#FF9C78"/>
</linearGradient>
<linearGradient id="paint12_linear_2394_71810" x1="1011.09" y1="102.837" x2="1006.11" y2="173.964" gradientUnits="userSpaceOnUse">
<stop stop-color="#75483B"/>
<stop offset="0.4" stop-color="#704438"/>
<stop offset="0.7" stop-color="#623C2F"/>
<stop offset="1" stop-color="#563428"/>
</linearGradient>
<linearGradient id="paint13_linear_2394_71810" x1="986.898" y1="332.438" x2="986.738" y2="325.134" gradientUnits="userSpaceOnUse">
<stop stop-color="#7C302A"/>
<stop offset="0.2" stop-color="#772E28"/>
<stop offset="0.4" stop-color="#692A26"/>
<stop offset="0.7" stop-color="#522421"/>
<stop offset="1" stop-color="#2D1A19"/>
</linearGradient>
<linearGradient id="paint14_linear_2394_71810" x1="1030.5" y1="180.053" x2="1027.2" y2="254.99" gradientUnits="userSpaceOnUse">
<stop stop-color="#C4664F"/>
<stop offset="1" stop-color="#FF9C78"/>
</linearGradient>
<linearGradient id="paint15_linear_2394_71810" x1="952.239" y1="177.466" x2="948.951" y2="252.203" gradientUnits="userSpaceOnUse">
<stop stop-color="#C4664F"/>
<stop offset="1" stop-color="#FF9C78"/>
</linearGradient>
<linearGradient id="paint16_linear_2394_71810" x1="944.408" y1="257.865" x2="952.572" y2="237.785" gradientUnits="userSpaceOnUse">
<stop stop-color="#704A3E"/>
<stop offset="1"/>
</linearGradient>
<linearGradient id="paint17_linear_2394_71810" x1="1029.6" y1="259.344" x2="1037.19" y2="238.248" gradientUnits="userSpaceOnUse">
<stop stop-color="#704A3E"/>
<stop offset="1"/>
</linearGradient>
<linearGradient id="paint18_linear_2394_71810" x1="953.227" y1="202.3" x2="951.209" y2="224.817" gradientUnits="userSpaceOnUse">
<stop stop-color="#75483B"/>
<stop offset="0.4" stop-color="#704438"/>
<stop offset="0.7" stop-color="#623C2F"/>
<stop offset="1" stop-color="#563428"/>
</linearGradient>
<linearGradient id="paint19_linear_2394_71810" x1="1032.1" y1="210.068" x2="1030.16" y2="231.288" gradientUnits="userSpaceOnUse">
<stop stop-color="#75483B"/>
<stop offset="0.4" stop-color="#704438"/>
<stop offset="0.7" stop-color="#623C2F"/>
<stop offset="1" stop-color="#563428"/>
</linearGradient>
<linearGradient id="paint20_linear_2394_71810" x1="975.797" y1="290.268" x2="976.255" y2="273.874" gradientUnits="userSpaceOnUse">
<stop stop-color="#F08A70"/>
<stop offset="1" stop-color="#FF9C78"/>
</linearGradient>
<linearGradient id="paint21_linear_2394_71810" x1="897.4" y1="973.8" x2="919.2" y2="698.4" gradientUnits="userSpaceOnUse">
<stop stop-color="#83A8F2"/>
<stop offset="1" stop-color="#6388E2"/>
</linearGradient>
<linearGradient id="paint22_linear_2394_71810" x1="1212.43" y1="1439.16" x2="1113.85" y2="1453.45" gradientUnits="userSpaceOnUse">
<stop stop-color="#EBEBF5"/>
<stop offset="1" stop-color="#D7D7DF"/>
</linearGradient>
<linearGradient id="paint23_linear_2394_71810" x1="1137.5" y1="1430.5" x2="1138.01" y2="1449.88" gradientUnits="userSpaceOnUse">
<stop stop-color="#EBEBF5"/>
<stop offset="1" stop-color="#D7D7DF"/>
</linearGradient>
<linearGradient id="paint24_linear_2394_71810" x1="1131.62" y1="1415.39" x2="1132.1" y2="1434.97" gradientUnits="userSpaceOnUse">
<stop stop-color="#EBEBF5"/>
<stop offset="1" stop-color="#D7D7DF"/>
</linearGradient>
<linearGradient id="paint25_linear_2394_71810" x1="1142.98" y1="1441.41" x2="1143.48" y2="1463.61" gradientUnits="userSpaceOnUse">
<stop stop-color="#EBEBF5"/>
<stop offset="1" stop-color="#D7D7DF"/>
</linearGradient>
<linearGradient id="paint26_linear_2394_71810" x1="1045.8" y1="830.099" x2="1038.5" y2="754.099" gradientUnits="userSpaceOnUse">
<stop stop-color="#EDEDF7"/>
<stop offset="1" stop-color="#CFCFD7"/>
</linearGradient>
<linearGradient id="paint27_linear_2394_71810" x1="460.7" y1="331.599" x2="498.5" y2="1196.4" gradientUnits="userSpaceOnUse">
<stop stop-color="#4E4D54"/>
<stop offset="1" stop-color="#3B3A3F"/>
</linearGradient>
<linearGradient id="paint28_linear_2394_71810" x1="1123.4" y1="586.5" x2="1140.2" y2="618.7" gradientUnits="userSpaceOnUse">
<stop stop-color="#D97D67"/>
<stop offset="1" stop-color="#FF9C78"/>
</linearGradient>
<linearGradient id="paint29_linear_2394_71810" x1="1163.4" y1="643.4" x2="1228.8" y2="636.8" gradientUnits="userSpaceOnUse">
<stop stop-color="#D97D67"/>
<stop offset="1" stop-color="#FF9C78"/>
</linearGradient>
<linearGradient id="paint30_linear_2394_71810" x1="993.499" y1="712.8" x2="1017.7" y2="709.8" gradientUnits="userSpaceOnUse">
<stop stop-color="#F08A70"/>
<stop offset="1" stop-color="#FF9C78"/>
</linearGradient>
<linearGradient id="paint31_linear_2394_71810" x1="991.5" y1="657.8" x2="1017.3" y2="635.1" gradientUnits="userSpaceOnUse">
<stop stop-color="#F08A70"/>
<stop offset="1" stop-color="#FF9C78"/>
</linearGradient>
<linearGradient id="paint32_linear_2394_71810" x1="990.8" y1="726.1" x2="1015.9" y2="724.4" gradientUnits="userSpaceOnUse">
<stop stop-color="#D97D67"/>
<stop offset="1" stop-color="#FF9C78"/>
</linearGradient>
<linearGradient id="paint33_linear_2394_71810" x1="987" y1="707.5" x2="1011.8" y2="705.7" gradientUnits="userSpaceOnUse">
<stop stop-color="#D97D67"/>
<stop offset="1" stop-color="#FF9C78"/>
</linearGradient>
<linearGradient id="paint34_linear_2394_71810" x1="602.899" y1="360.199" x2="602.899" y2="312.499" gradientUnits="userSpaceOnUse">
<stop stop-color="#4E4D54"/>
<stop offset="1" stop-color="#3B3A3F"/>
</linearGradient>
<linearGradient id="paint35_linear_2394_71810" x1="990.29" y1="172.449" x2="1376.31" y2="792.622" gradientUnits="userSpaceOnUse">
<stop stop-color="#EBEBF5"/>
<stop offset="1" stop-color="#D7D7DF"/>
</linearGradient>
<linearGradient id="paint36_linear_2394_71810" x1="609.055" y1="292.129" x2="610.712" y2="321.206" gradientUnits="userSpaceOnUse">
<stop stop-color="#FFB9A4"/>
<stop offset="1" stop-color="#FF9E78"/>
</linearGradient>
<linearGradient id="paint37_linear_2394_71810" x1="618.535" y1="335.384" x2="617.932" y2="296.989" gradientUnits="userSpaceOnUse">
<stop stop-color="#D97D67"/>
<stop offset="1" stop-color="#FF9C78"/>
</linearGradient>
<linearGradient id="paint38_linear_2394_71810" x1="599.637" y1="335.682" x2="599.034" y2="297.286" gradientUnits="userSpaceOnUse">
<stop stop-color="#D97D67"/>
<stop offset="1" stop-color="#FF9C78"/>
</linearGradient>
<linearGradient id="paint39_linear_2394_71810" x1="629.299" y1="337.198" x2="629.299" y2="298.798" gradientUnits="userSpaceOnUse">
<stop stop-color="#D97D67"/>
<stop offset="1" stop-color="#FF9C78"/>
</linearGradient>
<linearGradient id="paint40_linear_2394_71810" x1="580.14" y1="335.987" x2="579.537" y2="297.591" gradientUnits="userSpaceOnUse">
<stop stop-color="#D97D67"/>
<stop offset="1" stop-color="#FF9C78"/>
</linearGradient>
<linearGradient id="paint41_linear_2394_71810" x1="564.878" y1="325.827" x2="565.542" y2="317.116" gradientUnits="userSpaceOnUse">
<stop stop-color="#D97D67"/>
<stop offset="1" stop-color="#FF9C78"/>
</linearGradient>
</defs>
</svg>
