<svg width="248" height="344" viewBox="0 0 248 344" fill="none" xmlns="http://www.w3.org/2000/svg">
<path d="M70.0491 162.774C55.9255 178.587 27.0059 230.05 27.0059 230.05L32.3526 242.063C32.3526 242.063 46.2744 261.708 80.0028 207.475C108.855 161.099 109.158 145.641 109.158 145.641C109.158 145.641 84.1726 146.897 70.0491 162.742V162.774Z" fill="#6D7DB3"/>
<path d="M49.6026 189.762C46.7106 189.343 34.5038 202.515 34.5038 202.515C34.5038 202.515 24.9536 203.9 24.0457 224.028C22.5997 255.879 55.9245 249.341 62.3474 233.432C68.7702 217.555 52.4945 190.18 49.6026 189.762Z" fill="#B6BDCE"/>
<path d="M100.478 107.61C104.434 106.631 106.43 101.355 104.938 95.8278C103.445 90.3002 99.0282 86.6135 95.0726 87.5932C91.1169 88.573 89.1202 93.8482 90.6129 99.3758C92.1055 104.903 96.5223 108.59 100.478 107.61Z" fill="#D78C74"/>
<path d="M117.093 126.545L114.436 148.508C114.335 154.273 124.525 154.95 132.931 155.078C141.338 155.207 149.409 153.758 149.51 147.993V125.965C138.682 126.448 127.887 127.028 117.059 126.512L117.093 126.545Z" fill="#D78C74"/>
<path d="M167.267 96.3988C167.569 83.0981 165.888 66.2225 163.231 56.2711C161.281 43.3569 123.45 36.5616 111.916 54.049C108.183 62.1969 102.096 77.3977 99.877 92.5664C99.877 92.4054 99.877 92.3087 99.877 92.3087C99.877 92.3087 88.7463 132.565 126.275 135.786C163.803 138.974 168.376 120.07 167.233 96.3988H167.267Z" fill="#E5A185"/>
<g opacity="0.4">
<path d="M126.453 100.946C126.723 93.1597 120.893 86.6556 113.431 86.4186C105.969 86.1815 99.7014 92.3012 99.4317 100.087C99.162 107.874 104.992 114.378 112.454 114.615C119.916 114.852 126.184 108.732 126.453 100.946Z" fill="#E5A185"/>
<path d="M126.354 100.944C126.622 93.2114 120.835 86.752 113.429 86.5167C106.023 86.2814 99.8017 92.3593 99.5338 100.092C99.266 107.825 105.053 114.284 112.459 114.52C119.865 114.755 126.086 108.677 126.354 100.944Z" fill="#E5A084"/>
<path d="M126.284 100.943C126.55 93.2633 120.792 86.848 113.423 86.6139C106.054 86.3798 99.8648 92.4155 99.5988 100.095C99.3328 107.775 105.091 114.19 112.46 114.424C119.829 114.658 126.018 108.622 126.284 100.943Z" fill="#E59F83"/>
<path d="M126.186 100.938C126.451 93.2943 120.737 86.9093 113.423 86.677C106.11 86.4446 99.9668 92.4529 99.7021 100.097C99.4373 107.741 105.151 114.126 112.465 114.358C119.778 114.591 125.921 108.582 126.186 100.938Z" fill="#E49E83"/>
<path d="M126.12 100.933C126.383 93.3421 120.699 87.0018 113.422 86.7712C106.146 86.5407 100.034 92.5072 99.7703 100.098C99.5067 107.688 105.192 114.029 112.468 114.259C119.744 114.49 125.856 108.523 126.12 100.933Z" fill="#E49D82"/>
<path d="M126.017 100.931C126.278 93.394 120.636 87.0978 113.416 86.8684C106.195 86.639 100.13 92.5632 99.8692 100.101C99.6081 107.638 105.25 113.934 112.47 114.163C119.691 114.393 125.756 108.469 126.017 100.931Z" fill="#E49C81"/>
<path d="M125.95 100.93C126.209 93.4458 120.596 87.1939 113.412 86.9657C106.229 86.7374 100.195 92.6194 99.9362 100.103C99.6769 107.587 105.29 113.839 112.473 114.068C119.657 114.296 125.69 108.414 125.95 100.93Z" fill="#E49B80"/>
<path d="M125.849 100.927C126.107 93.4788 120.538 87.2571 113.41 87.0307C106.283 86.8042 100.295 92.6588 100.037 100.107C99.7795 107.556 105.348 113.777 112.476 114.004C119.604 114.23 125.591 108.376 125.849 100.927Z" fill="#E49A80"/>
<path d="M125.78 100.924C126.036 93.5287 120.496 87.3512 113.405 87.126C106.314 86.9007 100.359 92.713 100.102 100.108C99.8463 107.503 105.387 113.681 112.477 113.906C119.568 114.131 125.524 108.319 125.78 100.924Z" fill="#E3997F"/>
<path d="M125.678 100.922C125.933 93.5804 120.436 87.4476 113.401 87.2241C106.366 87.0006 100.457 92.7711 100.203 100.113C99.9483 107.455 105.445 113.587 112.48 113.811C119.515 114.034 125.424 108.264 125.678 100.922Z" fill="#E3987E"/>
<path d="M125.615 100.921C125.867 93.6323 120.399 87.5436 113.401 87.3213C106.403 87.099 100.526 92.8272 100.274 100.116C100.021 107.404 105.489 113.493 112.487 113.715C119.485 113.937 125.362 108.209 125.615 100.921Z" fill="#E3977D"/>
<path d="M125.514 100.918C125.766 93.6653 120.342 87.6069 113.399 87.3863C106.457 87.1658 100.626 92.8666 100.375 100.119C100.124 107.372 105.548 113.431 112.49 113.651C119.432 113.872 125.263 108.171 125.514 100.918Z" fill="#E3967C"/>
<path d="M125.445 100.915C125.694 93.7152 120.299 87.701 113.394 87.4816C106.489 87.2622 100.689 92.9208 100.44 100.12C100.19 107.32 105.586 113.334 112.491 113.553C119.396 113.773 125.196 108.114 125.445 100.915Z" fill="#E2957C"/>
<path d="M125.343 100.911C125.591 93.7649 120.239 87.7954 113.39 87.5778C106.541 87.3602 100.788 92.9769 100.54 100.123C100.292 107.269 105.644 113.239 112.494 113.457C119.343 113.674 125.096 108.057 125.343 100.911Z" fill="#E2947B"/>
<path d="M125.276 100.91C125.522 93.8168 120.198 87.8914 113.386 87.675C106.574 87.4586 100.853 93.033 100.607 100.126C100.361 107.219 105.684 113.144 112.497 113.361C119.309 113.577 125.03 108.003 125.276 100.91Z" fill="#E2937A"/>
<path d="M125.176 100.907C125.42 93.8498 120.141 87.9547 113.385 87.74C106.628 87.5253 100.953 93.0724 100.708 100.13C100.464 107.187 105.743 113.082 112.499 113.297C119.256 113.512 124.931 107.964 125.176 100.907Z" fill="#E29279"/>
<path d="M125.11 100.904C125.353 93.8997 120.102 88.0488 113.383 87.8353C106.664 87.6218 101.02 93.1266 100.777 100.131C100.535 107.135 105.785 112.986 112.504 113.199C119.224 113.413 124.867 107.908 125.11 100.904Z" fill="#E29179"/>
<path d="M125.009 100.9C125.249 93.9494 120.043 88.1432 113.379 87.9315C106.715 87.7198 101.118 93.1828 100.877 100.133C100.637 107.084 105.843 112.89 112.507 113.102C119.171 113.314 124.768 107.851 125.009 100.9Z" fill="#E19078"/>
<path d="M124.94 100.898C125.18 93.9826 120.002 88.2061 113.376 87.9956C106.749 87.785 101.183 93.2202 100.943 100.135C100.704 107.05 105.882 112.827 112.508 113.037C119.135 113.248 124.701 107.813 124.94 100.898Z" fill="#E18F77"/>
<path d="M124.841 100.894C125.078 94.0323 119.944 88.3005 113.374 88.0918C106.803 87.883 101.283 93.2763 101.046 100.138C100.808 107 105.942 112.732 112.513 112.94C119.084 113.149 124.603 107.756 124.841 100.894Z" fill="#E18E76"/>
<path d="M124.773 100.893C125.009 94.0842 119.904 88.3966 113.37 88.189C106.836 87.9814 101.348 93.3325 101.113 100.141C100.877 106.949 105.982 112.637 112.516 112.845C119.05 113.052 124.537 107.701 124.773 100.893Z" fill="#E18D75"/>
<path d="M124.674 100.891C124.908 94.1359 119.846 88.4929 113.368 88.2871C106.89 88.0813 101.449 93.3906 101.215 100.146C100.981 106.901 106.043 112.544 112.521 112.75C118.999 112.955 124.44 107.646 124.674 100.891Z" fill="#E18C75"/>
<path d="M124.604 100.889C124.836 94.169 119.804 88.5559 113.363 88.3512C106.922 88.1466 101.512 93.428 101.279 100.148C101.046 106.867 106.079 112.48 112.52 112.685C118.961 112.89 124.371 107.608 124.604 100.889Z" fill="#E08B74"/>
<path d="M124.504 100.883C124.735 94.2168 119.746 88.6483 113.361 88.4454C106.975 88.2426 101.612 93.4822 101.381 100.148C101.15 106.815 106.139 112.383 112.524 112.586C118.91 112.789 124.273 107.549 124.504 100.883Z" fill="#E08A73"/>
<path d="M124.437 100.882C124.666 94.2687 119.705 88.7444 113.357 88.5427C107.009 88.341 101.677 93.5383 101.448 100.151C101.219 106.764 106.179 112.288 112.527 112.49C118.876 112.692 124.207 107.495 124.437 100.882Z" fill="#E08972"/>
<path d="M124.337 100.878C124.564 94.3184 119.647 88.8388 113.355 88.6389C107.063 88.4389 101.777 93.5945 101.55 100.154C101.323 106.714 106.24 112.193 112.532 112.393C118.825 112.593 124.11 107.438 124.337 100.878Z" fill="#E08872"/>
<path d="M124.269 100.878C124.495 94.3535 119.607 88.9037 113.352 88.7049C107.096 88.5062 101.842 93.6339 101.616 100.158C101.39 106.682 106.278 112.132 112.533 112.331C118.789 112.529 124.043 107.402 124.269 100.878Z" fill="#DF8771"/>
<path d="M124.167 100.874C124.391 94.4033 119.547 88.9981 113.348 88.8011C107.148 88.6041 101.941 93.69 101.716 100.161C101.492 106.631 106.336 112.037 112.536 112.234C118.736 112.431 123.943 107.345 124.167 100.874Z" fill="#DF8670"/>
<path d="M124.102 100.873C124.324 94.4551 119.508 89.0941 113.346 88.8983C107.183 88.7026 102.008 93.7461 101.785 100.164C101.563 106.581 106.378 111.942 112.541 112.138C118.703 112.333 123.879 107.29 124.102 100.873Z" fill="#DF856F"/>
<path d="M123.998 100.869C124.219 94.5049 119.447 89.1885 113.34 88.9945C107.233 88.8005 102.104 93.8023 101.884 100.166C101.663 106.53 106.435 111.847 112.542 112.041C118.649 112.235 123.778 107.233 123.998 100.869Z" fill="#DF846F"/>
<path d="M123.932 100.867C124.151 94.538 119.408 89.2515 113.339 89.0586C107.269 88.8658 102.171 93.8397 101.952 100.168C101.732 106.497 106.475 111.783 112.545 111.976C118.615 112.169 123.713 107.195 123.932 100.867Z" fill="#DF836E"/>
<path d="M123.832 100.863C124.05 94.5878 119.351 89.3459 113.337 89.1548C107.323 88.9637 102.271 93.8959 102.054 100.171C101.836 106.446 106.535 111.688 112.549 111.879C118.563 112.07 123.615 107.138 123.832 100.863Z" fill="#DE826D"/>
<path d="M123.763 100.861C123.978 94.6396 119.308 89.4419 113.331 89.252C107.354 89.0621 102.334 93.952 102.119 100.174C101.903 106.396 106.574 111.593 112.551 111.783C118.527 111.973 123.547 107.083 123.763 100.861Z" fill="#DE816C"/>
<path d="M123.663 100.858C123.877 94.6894 119.25 89.5363 113.329 89.3482C107.408 89.1601 102.435 94.0081 102.221 100.177C102.007 106.345 106.634 111.498 112.555 111.686C118.476 111.874 123.45 107.026 123.663 100.858Z" fill="#DE806B"/>
<path d="M123.563 100.853C123.775 94.7204 119.193 89.5976 113.327 89.4113C107.462 89.2249 102.535 94.0456 102.322 100.179C102.11 106.311 106.692 111.434 112.558 111.621C118.423 111.807 123.351 106.986 123.563 100.853Z" fill="#DE7F6B"/>
<path d="M123.496 100.85C123.706 94.7703 119.152 89.6917 113.324 89.5065C107.495 89.3214 102.6 94.0998 102.389 100.179C102.179 106.259 106.733 111.338 112.561 111.523C118.389 111.708 123.285 106.93 123.496 100.85Z" fill="#DE7E6A"/>
<path d="M123.394 100.85C123.603 94.824 119.092 89.79 113.32 89.6066C107.547 89.4232 102.698 94.1598 102.489 100.186C102.281 106.212 106.791 111.246 112.564 111.43C118.336 111.613 123.185 106.877 123.394 100.85Z" fill="#DD7D69"/>
<path d="M123.328 100.846C123.535 94.8552 119.054 89.851 113.318 89.6688C107.583 89.4866 102.765 94.1953 102.557 100.186C102.35 106.177 106.831 111.181 112.567 111.363C118.302 111.545 123.12 106.837 123.328 100.846Z" fill="#DD7C68"/>
<path d="M123.226 100.844C123.432 94.9069 118.994 89.9474 113.314 89.7669C107.634 89.5864 102.863 94.2534 102.658 100.191C102.452 106.128 106.89 111.088 112.57 111.268C118.249 111.449 123.021 106.782 123.226 100.844Z" fill="#DD7B68"/>
<path d="M123.159 100.841C123.363 94.9568 118.953 90.0415 113.311 89.8622C107.668 89.6829 102.928 94.3076 102.725 100.192C102.521 106.076 106.93 110.991 112.573 111.17C118.215 111.35 122.955 106.725 123.159 100.841Z" fill="#DD7A67"/>
<path d="M123.057 100.837C123.259 95.0065 118.894 90.1359 113.307 89.9584C107.72 89.7809 103.027 94.3637 102.825 100.194C102.623 106.025 106.988 110.896 112.575 111.073C118.162 111.251 122.855 106.668 123.057 100.837Z" fill="#DD7A66"/>
<path d="M122.991 100.837C123.192 95.0416 118.855 90.2008 113.305 90.0244C107.755 89.8481 103.093 94.4031 102.893 100.198C102.692 105.993 107.028 110.834 112.578 111.011C118.128 111.187 122.79 106.632 122.991 100.837Z" fill="#DC7965"/>
<path d="M122.889 100.833C123.088 95.0914 118.796 90.2952 113.301 90.1206C107.807 89.946 103.192 94.4592 102.993 100.201C102.794 105.943 107.087 110.739 112.581 110.914C118.075 111.088 122.691 106.575 122.889 100.833Z" fill="#DC7864"/>
<path d="M122.824 100.832C123.021 95.1432 118.757 90.3912 113.3 90.2178C107.843 90.0445 103.259 94.5154 103.062 100.204C102.865 105.892 107.129 110.644 112.586 110.818C118.043 110.991 122.627 106.52 122.824 100.832Z" fill="#DC7764"/>
<path d="M122.724 100.828C122.92 95.193 118.699 90.4856 113.298 90.314C107.896 90.1424 103.359 94.5715 103.164 100.207C102.969 105.842 107.189 110.549 112.591 110.721C117.992 110.892 122.529 106.463 122.724 100.828Z" fill="#DC7663"/>
<path d="M122.656 100.824C122.85 95.2242 118.659 90.5466 113.294 90.3762C107.93 90.2057 103.424 94.607 103.23 100.207C103.036 105.806 107.228 110.484 112.592 110.654C117.956 110.825 122.462 106.423 122.656 100.824Z" fill="#DB7562"/>
<path d="M122.557 100.824C122.749 95.2778 118.601 90.6449 113.292 90.4763C107.984 90.3076 103.524 94.667 103.332 100.213C103.14 105.76 107.288 110.393 112.597 110.561C117.905 110.73 122.364 106.37 122.557 100.824Z" fill="#DB7461"/>
<path d="M122.485 100.821C122.675 95.3277 118.556 90.739 113.285 90.5715C108.013 90.4041 103.586 94.7212 103.395 100.214C103.205 105.707 107.324 110.296 112.596 110.463C117.867 110.631 122.295 106.314 122.485 100.821Z" fill="#DB7361"/>
<path d="M122.384 100.817C122.572 95.3775 118.497 90.8334 113.281 90.6677C108.065 90.502 103.684 94.7774 103.495 100.217C103.307 105.657 107.383 110.201 112.598 110.366C117.814 110.532 122.195 106.257 122.384 100.817Z" fill="#DB7260"/>
<path d="M122.319 100.815C122.507 95.4106 118.46 90.8963 113.281 90.7318C108.103 90.5673 103.753 94.8148 103.566 100.219C103.378 105.623 107.425 110.137 112.603 110.302C117.782 110.466 122.132 106.219 122.319 100.815Z" fill="#DB715F"/>
<path d="M113.224 90.7662C108.079 90.6052 103.775 94.824 103.607 100.17C103.439 105.516 107.44 109.993 112.552 110.154C117.697 110.315 122.001 106.096 122.169 100.75C122.337 95.4037 118.336 90.9272 113.224 90.7662Z" fill="#DA705E"/>
<path d="M113.225 90.8287C108.147 90.6677 103.876 94.8544 103.708 100.136C103.54 105.45 107.508 109.862 112.586 110.023C117.664 110.184 121.934 105.997 122.103 100.716C122.271 95.4019 118.303 90.9897 113.225 90.8287Z" fill="#DA6F5D"/>
<path d="M113.222 90.9264C108.178 90.7654 103.975 94.8877 103.773 100.137C103.605 105.387 107.539 109.766 112.583 109.928C117.627 110.089 121.831 105.966 122.033 100.717C122.201 95.4674 118.266 91.0875 113.222 90.9264Z" fill="#DA6E5D"/>
<path d="M113.223 91.0241C108.246 90.8631 104.043 94.9532 103.874 100.17C103.706 105.388 107.607 109.735 112.584 109.864C117.561 110.025 121.764 105.935 121.932 100.718C122.1 95.5007 118.2 91.1529 113.223 91.0241Z" fill="#DA6D5C"/>
<path d="M113.222 91.1179C108.279 90.9569 104.143 95.0147 103.941 100.168C103.773 105.32 107.64 109.636 112.583 109.797C117.526 109.958 121.663 105.9 121.864 100.747C122.032 95.5944 118.165 91.2789 113.222 91.1179Z" fill="#DA6C5B"/>
<path d="M113.191 91.1844C108.282 91.0233 104.179 95.049 104.011 100.17C103.843 105.29 107.677 109.541 112.553 109.702C117.462 109.863 121.565 105.838 121.733 100.717C121.901 95.5965 118.067 91.3454 113.191 91.1844Z" fill="#D96B5A"/>
<path d="M113.188 91.2801C108.346 91.1191 104.277 95.1125 104.109 100.169C103.941 105.225 107.741 109.444 112.583 109.605C117.425 109.766 121.494 105.772 121.662 100.716C121.831 95.66 118.031 91.4411 113.188 91.2801Z" fill="#D96A5A"/>
<path d="M113.189 91.3758C108.381 91.2148 104.345 95.176 104.177 100.168C104.009 105.192 107.775 109.346 112.551 109.507C117.359 109.668 121.395 105.707 121.563 100.715C121.731 95.6913 117.965 91.5369 113.189 91.3758Z" fill="#D96959"/>
<path d="M113.19 91.4735C108.449 91.3125 104.447 95.2415 104.279 100.201C104.111 105.161 107.843 109.315 112.585 109.444C117.326 109.605 121.328 105.676 121.496 100.716C121.664 95.7568 117.932 91.6023 113.19 91.4735Z" fill="#D96858"/>
<path d="M113.191 91.5361C108.483 91.3751 104.515 95.2397 104.347 100.167C104.179 105.094 107.878 109.185 112.586 109.313C117.294 109.474 121.262 105.61 121.43 100.682C121.598 95.755 117.899 91.6649 113.191 91.5361Z" fill="#D86757"/>
<path d="M113.19 91.6338C108.516 91.4728 104.615 95.3052 104.447 100.168C104.279 105.031 107.911 109.089 112.585 109.25C117.259 109.411 121.16 105.579 121.328 100.716C121.496 95.8527 117.864 91.7948 113.19 91.6338Z" fill="#D86657"/>
<path d="M113.189 91.7317C108.582 91.6029 104.715 95.3709 104.547 100.202C104.379 105.032 107.977 109.026 112.617 109.187C117.224 109.316 121.091 105.548 121.26 100.717C121.428 95.8862 117.83 91.8927 113.189 91.7317Z" fill="#D86556"/>
<path d="M113.19 91.7962C108.617 91.6674 104.783 95.4032 104.615 100.17C104.447 104.936 108.011 108.929 112.585 109.058C117.158 109.187 120.992 105.451 121.16 100.685C121.328 95.9185 117.763 91.925 113.19 91.7962Z" fill="#D86455"/>
<path d="M113.189 91.8919C108.683 91.7631 104.883 95.4667 104.715 100.169C104.547 104.871 108.077 108.832 112.617 108.961C117.123 109.09 120.923 105.386 121.091 100.684C121.259 95.982 117.729 92.0208 113.189 91.8919Z" fill="#D86354"/>
<path d="M113.19 91.9877C108.718 91.8588 104.951 95.5302 104.783 100.2C104.615 104.87 108.112 108.767 112.585 108.895C117.057 109.024 120.823 105.353 120.992 100.683C121.16 96.0133 117.662 92.1165 113.19 91.9877Z" fill="#D76253"/>
<path d="M113.189 92.0853C108.75 91.9565 105.051 95.5957 104.883 100.201C104.715 104.806 108.178 108.671 112.617 108.832C117.056 108.961 120.755 105.322 120.923 100.716C121.091 96.111 117.628 92.2464 113.189 92.0853Z" fill="#D76153"/>
<path d="M113.154 92.1499C108.783 92.021 105.084 95.5958 104.949 100.169C104.781 104.742 108.211 108.542 112.616 108.703C116.988 108.832 120.687 105.257 120.821 100.684C120.99 96.1111 117.56 92.3109 113.154 92.1499Z" fill="#D76052"/>
<path d="M113.158 92.2456C108.82 92.1168 105.188 95.6593 105.02 100.2C104.852 104.709 108.248 108.509 112.586 108.638C116.924 108.767 120.556 105.224 120.724 100.683C120.892 96.1746 117.495 92.3744 113.158 92.2456Z" fill="#D75F51"/>
<path d="M113.156 92.3433C108.852 92.2145 105.254 95.7248 105.119 100.201C104.951 104.678 108.314 108.414 112.618 108.542C116.923 108.671 120.521 105.161 120.655 100.684C120.823 96.2079 117.461 92.4721 113.156 92.3433Z" fill="#D75E50"/>
<path d="M113.157 92.441C108.92 92.3121 105.356 95.7903 105.188 100.202C105.053 104.615 108.349 108.318 112.586 108.447C116.823 108.576 120.387 105.098 120.555 100.685C120.69 96.2734 117.394 92.5698 113.157 92.441Z" fill="#D65D50"/>
<path d="M113.154 92.5035C108.951 92.3747 105.42 95.8206 105.285 100.201C105.151 104.58 108.413 108.22 112.616 108.348C116.819 108.477 120.35 105.031 120.485 100.651C120.619 96.2715 117.358 92.6323 113.154 92.5035Z" fill="#D65C4F"/>
<path d="M113.157 92.6012C109.021 92.4724 105.523 95.8861 105.389 100.202C105.254 104.517 108.483 108.156 112.619 108.285C116.755 108.414 120.252 105 120.387 100.685C120.521 96.3692 117.293 92.73 113.157 92.6012Z" fill="#D65B4E"/>
<path d="M113.156 92.6989C109.053 92.5701 105.623 95.9516 105.455 100.203C105.321 104.486 108.515 108.061 112.618 108.19C116.72 108.318 120.15 104.937 120.319 100.686C120.453 96.4025 117.259 92.8277 113.156 92.6989Z" fill="#D65A4D"/>
<path d="M113.157 92.7946C109.088 92.6658 105.691 95.983 105.557 100.234C105.422 104.453 108.583 107.995 112.652 108.124C116.721 108.253 120.118 104.936 120.252 100.685C120.387 96.466 117.226 92.9235 113.157 92.7946Z" fill="#D5594C"/>
<path d="M113.156 92.8591C109.154 92.7303 105.791 96.0152 105.623 100.202C105.489 104.389 108.616 107.867 112.618 107.996C116.62 108.124 119.982 104.839 120.15 100.653C120.285 96.4661 117.158 92.988 113.156 92.8591Z" fill="#D5584C"/>
<path d="M113.157 92.9549C109.189 92.826 105.859 96.0788 105.725 100.201C105.59 104.323 108.684 107.801 112.652 107.898C116.62 108.027 119.949 104.774 120.084 100.652C120.218 96.5296 117.125 93.0515 113.157 92.9549Z" fill="#D5574B"/>
<path d="M113.155 93.0506C109.255 92.9218 105.959 96.1423 105.825 100.232C105.69 104.322 108.75 107.736 112.651 107.865C116.552 107.994 119.847 104.773 119.982 100.683C120.116 96.5932 117.056 93.1794 113.155 93.0506Z" fill="#D5564A"/>
<path d="M113.123 93.1151C109.256 92.9863 105.994 96.1746 105.86 100.2C105.725 104.226 108.752 107.607 112.619 107.736C116.486 107.865 119.748 104.677 119.882 100.651C120.017 96.6255 116.99 93.2439 113.123 93.1151Z" fill="#D55549"/>
<path d="M113.124 93.2108C109.291 93.082 106.096 96.2381 105.961 100.232C105.827 104.225 108.82 107.542 112.653 107.671C116.487 107.8 119.681 104.644 119.816 100.65C119.95 96.6568 116.958 93.3397 113.124 93.2108Z" fill="#D45449"/>
<path d="M113.121 93.3085C109.355 93.1797 106.16 96.3036 106.026 100.233C105.891 104.162 108.851 107.447 112.617 107.575C116.383 107.704 119.578 104.58 119.712 100.651C119.847 96.7223 116.888 93.4374 113.121 93.3085Z" fill="#D45348"/>
<path d="M113.122 93.4063C109.389 93.2774 106.262 96.3369 106.128 100.234C105.993 104.131 108.919 107.383 112.651 107.48C116.384 107.609 119.511 104.549 119.646 100.652C119.78 96.7556 116.855 93.5029 113.122 93.4063Z" fill="#D45247"/>
</g>
<g opacity="0.4">
<path d="M149.913 87.4785C141.775 87.2209 134.982 93.3399 134.713 101.101C134.444 108.895 140.833 115.4 148.938 115.658C157.076 115.916 163.868 109.797 164.137 102.035C164.406 94.2416 158.017 87.7362 149.913 87.4785Z" fill="#E5A185"/>
<path d="M149.912 87.5743C141.841 87.3167 135.082 93.3713 134.813 101.133C134.544 108.862 140.866 115.335 148.97 115.593C157.041 115.85 163.8 109.796 164.069 102.034C164.338 94.3052 158.016 87.832 149.912 87.5743Z" fill="#E5A084"/>
<path d="M149.914 87.674C141.877 87.4163 135.186 93.4387 134.917 101.136C134.648 108.833 140.936 115.242 148.973 115.499C157.01 115.757 163.702 109.735 163.971 102.037C164.24 94.3405 157.951 87.9316 149.914 87.674Z" fill="#E59F83"/>
<path d="M149.915 87.7697C141.945 87.5121 135.254 93.5023 135.018 101.135C134.749 108.768 141.004 115.176 148.974 115.402C156.943 115.659 163.635 109.669 163.871 102.037C164.14 94.404 157.885 87.9952 149.915 87.7697Z" fill="#E49E83"/>
<path d="M149.914 87.8342C141.978 87.5766 135.354 93.5345 135.085 101.135C134.816 108.735 141.037 115.08 148.973 115.337C156.909 115.595 163.533 109.637 163.802 102.037C164.071 94.4363 157.85 88.0919 149.914 87.8342Z" fill="#E49D82"/>
<path d="M149.911 87.93C142.042 87.6723 135.451 93.5981 135.182 101.134C134.913 108.67 141.101 114.982 148.97 115.24C156.838 115.498 163.429 109.572 163.698 102.036C163.967 94.4998 157.78 88.1876 149.911 87.93Z" fill="#E49C81"/>
<path d="M149.914 88.0257C142.079 87.7681 135.555 93.6616 135.286 101.133C135.017 108.637 141.171 114.885 148.972 115.142C156.807 115.4 163.331 109.507 163.6 102.035C163.869 94.5312 157.715 88.2834 149.914 88.0257Z" fill="#E49B80"/>
<path d="M149.913 88.1215C142.145 87.8638 135.655 93.7252 135.385 101.165C135.116 108.604 141.237 114.82 149.005 115.077C156.773 115.335 163.263 109.473 163.532 102.034C163.801 94.5947 157.681 88.3791 149.913 88.1215Z" fill="#E49A80"/>
<path d="M149.913 88.188C142.179 87.9626 135.723 93.7595 135.487 101.134C135.252 108.542 141.305 114.725 149.005 114.951C156.74 115.176 163.196 109.379 163.432 102.004C163.667 94.5968 157.614 88.4134 149.913 88.188Z" fill="#E3997F"/>
<path d="M149.879 88.2838C142.212 88.0583 135.789 93.7909 135.554 101.134C135.318 108.476 141.304 114.628 148.971 114.853C156.638 115.078 163.061 109.346 163.296 102.003C163.532 94.6604 157.546 88.5092 149.879 88.2838Z" fill="#E3987E"/>
<path d="M149.88 88.3815C142.247 88.156 135.891 93.8563 135.622 101.167C135.387 108.478 141.339 114.564 148.972 114.822C156.606 115.047 162.961 109.347 163.23 102.036C163.466 94.7259 157.513 88.6391 149.88 88.3815Z" fill="#E3977D"/>
<path d="M149.879 88.444C142.313 88.2186 135.991 93.8867 135.722 101.133C135.486 108.379 141.405 114.434 148.971 114.691C156.537 114.917 162.859 109.249 163.128 102.002C163.363 94.7562 157.445 88.7016 149.879 88.444Z" fill="#E3967C"/>
<path d="M149.88 88.5417C142.347 88.3163 136.059 93.9522 135.823 101.166C135.588 108.38 141.473 114.402 149.005 114.628C156.538 114.853 162.826 109.217 163.062 102.003C163.297 94.7895 157.412 88.7671 149.88 88.5417Z" fill="#E2957C"/>
<path d="M149.878 88.6374C142.413 88.412 136.158 94.0157 135.923 101.165C135.687 108.315 141.539 114.305 149.004 114.53C156.469 114.756 162.724 109.152 162.959 102.003C163.195 94.853 157.344 88.8629 149.878 88.6374Z" fill="#E2947B"/>
<path d="M149.879 88.7351C142.481 88.5097 136.26 94.0812 136.024 101.166C135.789 108.251 141.607 114.209 149.005 114.435C156.403 114.66 162.624 109.089 162.859 102.004C163.095 94.9185 157.277 88.9606 149.879 88.7351Z" fill="#E2937A"/>
<path d="M149.878 88.7996C142.513 88.5742 136.36 94.1135 136.124 101.166C135.889 108.219 141.673 114.113 149.037 114.338C156.402 114.564 162.555 109.024 162.791 101.972C163.026 94.9186 157.242 89.025 149.878 88.7996Z" fill="#E29279"/>
<path d="M149.879 88.8954C142.582 88.67 136.428 94.1448 136.193 101.166C135.957 108.154 141.674 114.048 149.005 114.273C156.302 114.499 162.456 109.024 162.691 102.003C162.926 95.0144 157.21 89.1208 149.879 88.8954Z" fill="#E29179"/>
<path d="M149.88 88.9911C142.616 88.7657 136.53 94.2084 136.294 101.165C136.059 108.121 141.742 113.95 149.005 114.176C156.269 114.401 162.355 108.958 162.591 102.002C162.826 95.0457 157.143 89.2166 149.88 88.9911Z" fill="#E19078"/>
<path d="M149.878 89.0888C142.682 88.8634 136.629 94.2739 136.394 101.198C136.158 108.09 141.808 113.887 149.038 114.112C156.234 114.338 162.287 108.927 162.522 102.003C162.758 95.1112 157.108 89.3143 149.878 89.0888Z" fill="#E18F77"/>
<path d="M149.879 89.1533C142.717 88.9279 136.731 94.3062 136.495 101.166C136.26 108.026 141.876 113.758 149.038 113.984C156.201 114.209 162.187 108.831 162.422 101.971C162.658 95.1113 157.042 89.3788 149.879 89.1533Z" fill="#E18E76"/>
<path d="M149.845 89.251C142.749 89.0256 136.797 94.3716 136.562 101.167C136.326 107.962 141.909 113.663 149.004 113.888C156.099 114.113 162.052 108.767 162.287 101.972C162.522 95.1768 156.94 89.4765 149.845 89.251Z" fill="#E18D75"/>
<path d="M149.846 89.3468C142.784 89.1213 136.866 94.4352 136.63 101.198C136.395 107.961 141.943 113.629 149.005 113.855C156.067 114.08 161.985 108.766 162.187 102.003C162.423 95.2403 156.874 89.5722 149.812 89.3468H149.846Z" fill="#E18C75"/>
<path d="M149.843 89.4425C142.848 89.2171 136.963 94.4987 136.728 101.197C136.493 107.896 142.007 113.532 149.002 113.757C155.997 113.983 161.881 108.701 162.117 102.003C162.352 95.3038 156.837 89.6679 149.843 89.4425Z" fill="#E08B74"/>
<path d="M149.845 89.509C142.884 89.2835 137.067 94.533 136.832 101.167C136.596 107.834 142.077 113.405 149.005 113.631C155.966 113.856 161.783 108.607 162.019 101.972C162.254 95.3059 156.773 89.7344 149.845 89.509Z" fill="#E08A73"/>
<path d="M149.844 89.6028C142.951 89.3773 137.167 94.5624 136.931 101.197C136.696 107.799 142.11 113.338 149.037 113.563C155.931 113.789 161.715 108.604 161.95 101.97C162.185 95.3675 156.771 89.8282 149.844 89.6028Z" fill="#E08972"/>
<path d="M149.845 89.7005C142.985 89.475 137.235 94.6279 137.033 101.198C136.797 107.768 142.178 113.275 149.038 113.468C155.898 113.693 161.648 108.541 161.85 101.971C162.085 95.4008 156.705 89.8937 149.845 89.7005Z" fill="#E08872"/>
<path d="M149.846 89.7669C143.053 89.5415 137.336 94.6621 137.134 101.168C136.899 107.673 142.246 113.148 149.039 113.341C155.831 113.567 161.548 108.446 161.75 101.94C161.985 95.435 156.638 89.9602 149.846 89.7669Z" fill="#DF8771"/>
<path d="M149.849 89.8607C143.09 89.6353 137.44 94.7237 137.205 101.197C136.969 107.67 142.283 113.081 149.042 113.306C155.801 113.532 161.45 108.443 161.686 101.97C161.921 95.4966 156.608 90.0862 149.849 89.8607Z" fill="#DF8670"/>
<path d="M149.846 89.9584C143.154 89.733 137.538 94.7892 137.302 101.198C137.067 107.607 142.347 112.985 149.039 113.211C155.73 113.436 161.346 108.38 161.582 101.971C161.817 95.5621 156.537 90.1839 149.846 89.9584Z" fill="#DF856F"/>
<path d="M149.844 90.0562C143.186 89.863 137.638 94.8548 137.402 101.231C137.2 107.608 142.413 112.922 149.071 113.147C155.729 113.341 161.278 108.349 161.513 101.972C161.715 95.5955 156.503 90.2816 149.844 90.0562Z" fill="#DF846F"/>
<path d="M149.845 90.1187C143.254 89.9255 137.706 94.8851 137.504 101.197C137.302 107.51 142.481 112.823 149.072 113.017C155.663 113.21 161.211 108.25 161.413 101.938C161.615 95.6258 156.436 90.312 149.845 90.1187Z" fill="#DF836E"/>
<path d="M149.813 90.2165C143.255 90.0232 137.774 94.9184 137.572 101.198C137.37 107.478 142.482 112.728 149.039 112.921C155.597 113.114 161.078 108.219 161.28 101.939C161.481 95.6591 156.37 90.4097 149.813 90.2165Z" fill="#DE826D"/>
<path d="M149.813 90.3122C143.323 90.119 137.876 94.982 137.674 101.23C137.472 107.445 142.55 112.663 149.073 112.856C155.564 113.049 161.011 108.186 161.213 101.938C161.415 95.7227 156.337 90.5054 149.813 90.3122Z" fill="#DE816C"/>
<path d="M149.812 90.4099C143.356 90.2167 137.976 95.0474 137.74 101.231C137.538 107.414 142.583 112.567 149.039 112.793C155.496 112.986 160.876 108.155 161.111 101.972C161.313 95.7882 156.269 90.6353 149.812 90.4099Z" fill="#DE806B"/>
<path d="M149.813 90.4744C143.424 90.2812 138.044 95.0797 137.842 101.199C137.64 107.318 142.651 112.471 149.04 112.664C155.429 112.857 160.809 108.058 161.011 101.939C161.213 95.8205 156.202 90.6676 149.813 90.4744Z" fill="#DE7F6B"/>
<path d="M149.814 90.5701C143.458 90.3769 138.145 95.1433 137.943 101.23C137.742 107.317 142.719 112.405 149.074 112.598C155.43 112.792 160.743 108.025 160.945 101.939C161.146 95.8518 156.17 90.7634 149.814 90.5701Z" fill="#DE7E6A"/>
<path d="M149.815 90.6659C143.526 90.4726 138.247 95.2068 138.045 101.229C137.843 107.252 142.786 112.308 149.075 112.501C155.363 112.694 160.643 107.96 160.844 101.938C161.046 95.9153 156.103 90.8591 149.815 90.6659Z" fill="#DD7D69"/>
<path d="M149.81 90.7636C143.555 90.5703 138.343 95.2723 138.141 101.23C137.939 107.22 142.849 112.212 149.07 112.405C155.324 112.599 160.537 107.897 160.738 101.939C160.94 95.9486 156.031 90.9568 149.81 90.7636Z" fill="#DD7C68"/>
<path d="M149.81 90.8281C143.623 90.6349 138.444 95.2724 138.242 101.23C138.041 107.156 142.883 112.116 149.104 112.309C155.292 112.502 160.47 107.865 160.672 101.907C160.874 95.9809 156.031 91.0213 149.81 90.8281Z" fill="#DD7B68"/>
<path d="M149.811 90.9258C143.658 90.7326 138.513 95.3379 138.311 101.231C138.109 107.125 142.918 112.052 149.072 112.246C155.225 112.439 160.37 107.834 160.572 101.94C160.774 96.0464 155.965 91.119 149.811 90.9258Z" fill="#DD7A67"/>
<path d="M149.812 91.0196C143.726 90.8263 138.614 95.3995 138.412 101.229C138.211 107.058 142.986 111.953 149.072 112.146C155.159 112.339 160.27 107.766 160.472 101.937C160.674 96.108 155.899 91.2128 149.812 91.0196Z" fill="#DD7A66"/>
<path d="M149.815 91.1173C143.762 90.924 138.718 95.465 138.516 101.262C138.314 107.059 143.056 111.89 149.109 112.083C155.162 112.276 160.206 107.735 160.407 101.938C160.609 96.1413 155.868 91.3105 149.815 91.1173Z" fill="#DC7965"/>
<path d="M149.778 91.1798C143.793 90.9866 138.782 95.4953 138.58 101.228C138.379 106.96 143.087 111.759 149.072 111.952C155.058 112.145 160.068 107.637 160.27 101.904C160.472 96.1716 155.764 91.373 149.778 91.1798Z" fill="#DC7864"/>
<path d="M149.779 91.2775C143.827 91.0843 138.85 95.5608 138.682 101.261C138.48 106.961 143.155 111.728 149.107 111.889C155.059 112.082 160.036 107.606 160.204 101.905C160.405 96.2049 155.731 91.4385 149.779 91.2775Z" fill="#DC7764"/>
<path d="M149.78 91.3752C143.895 91.182 138.952 95.6263 138.75 101.262C138.549 106.898 143.189 111.632 149.074 111.826C154.959 112.019 159.902 107.574 160.104 101.939C160.306 96.3026 155.665 91.5684 149.78 91.3752Z" fill="#DC7663"/>
<path d="M149.777 91.4397C143.926 91.2465 139.05 95.6586 138.848 101.23C138.646 106.834 143.253 111.504 149.071 111.697C154.922 111.89 159.798 107.478 160 101.906C160.202 96.3027 155.595 91.6329 149.777 91.4397Z" fill="#DB7562"/>
<path d="M149.778 91.5355C143.994 91.3423 139.152 95.69 138.95 101.261C138.748 106.801 143.288 111.438 149.105 111.632C154.889 111.825 159.732 107.477 159.933 101.906C160.135 96.3663 155.595 91.7287 149.778 91.5355Z" fill="#DB7461"/>
<path d="M149.779 91.6332C144.028 91.44 139.22 95.7555 139.051 101.263C138.85 106.77 143.356 111.375 149.106 111.536C154.856 111.729 159.665 107.414 159.833 101.907C160.035 96.3996 155.529 91.7942 149.779 91.6332Z" fill="#DB7361"/>
<path d="M149.779 91.7289C144.096 91.5357 139.321 95.819 139.153 101.262C138.951 106.704 143.424 111.278 149.107 111.439C154.79 111.632 159.565 107.348 159.733 101.906C159.935 96.4631 155.462 91.89 149.779 91.7289Z" fill="#DB7260"/>
<path d="M156.255 108.872C160.458 105.261 160.808 99.0709 157.037 95.0464C153.267 91.0218 146.803 90.6866 142.601 94.2976C138.399 97.9086 138.049 104.098 141.819 108.123C145.59 112.148 152.053 112.483 156.255 108.872Z" fill="#DB715F"/>
<path d="M156.186 108.736C160.347 105.16 160.693 99.0317 156.96 95.0469C153.227 91.062 146.827 90.7301 142.667 94.3055C138.506 97.8809 138.159 104.01 141.893 107.994C145.626 111.979 152.025 112.311 156.186 108.736Z" fill="#DA705E"/>
<path d="M156.121 108.633C160.24 105.093 160.583 99.0257 156.887 95.0805C153.191 91.1354 146.855 90.8068 142.736 94.3466C138.617 97.8863 138.274 103.954 141.97 107.899C145.666 111.844 152.001 112.173 156.121 108.633Z" fill="#DA6F5D"/>
<path d="M156.054 108.495C160.131 104.991 160.471 98.9845 156.812 95.0791C153.153 91.1737 146.881 90.8484 142.804 94.3525C138.726 97.8566 138.386 103.863 142.045 107.769C145.704 111.674 151.976 111.999 156.054 108.495Z" fill="#DA6E5D"/>
<path d="M156.013 108.775C160.069 105.302 160.418 99.3365 156.791 95.4515C153.164 91.5665 146.935 91.233 142.878 94.7066C138.822 98.1802 138.473 104.145 142.1 108.03C145.727 111.915 151.956 112.249 156.013 108.775Z" fill="#DA6D5C"/>
<path d="M155.948 108.639C159.963 105.201 160.307 99.2969 156.717 95.4517C153.128 91.6064 146.963 91.2763 142.948 94.7144C138.933 98.1524 138.588 104.057 142.178 107.902C145.768 111.747 151.933 112.077 155.948 108.639Z" fill="#DA6C5B"/>
<path d="M155.879 108.536C159.852 105.134 160.193 99.2904 156.64 95.485C153.088 91.6796 146.987 91.3529 143.013 94.7553C139.04 98.1578 138.698 104.001 142.251 107.806C145.804 111.612 151.905 111.938 155.879 108.536Z" fill="#D96B5A"/>
<path d="M155.833 108.424C159.778 105.046 160.117 99.2432 156.589 95.4642C153.061 91.6853 147.002 91.3609 143.057 94.7397C139.111 98.1184 138.772 103.921 142.3 107.7C145.828 111.479 151.887 111.803 155.833 108.424Z" fill="#D96A5A"/>
<path d="M149.746 92.5048C144.5 92.3438 140.128 96.2728 139.96 101.265C139.792 106.289 143.894 110.475 149.107 110.636C154.353 110.797 158.724 106.868 158.892 101.876C159.06 96.8525 154.958 92.6658 149.746 92.5048Z" fill="#D96959"/>
<path d="M149.746 92.5986C144.568 92.4375 140.23 96.3344 140.062 101.294C139.894 106.254 143.962 110.408 149.141 110.569C154.32 110.73 158.658 106.833 158.826 101.874C158.994 96.9141 154.925 92.7596 149.746 92.5986Z" fill="#D96858"/>
<path d="M149.745 92.6943C144.6 92.5333 140.329 96.3979 140.161 101.293C139.993 106.22 144.028 110.311 149.14 110.472C154.285 110.633 158.556 106.768 158.724 101.873C158.892 96.9454 154.857 92.8553 149.745 92.6943Z" fill="#D86757"/>
<path d="M149.746 92.7608C144.668 92.5997 140.431 96.4321 140.263 101.295C140.095 106.158 144.096 110.216 149.174 110.377C154.252 110.538 158.489 106.706 158.657 101.843C158.825 96.9796 154.824 92.9218 149.746 92.7608Z" fill="#D86657"/>
<path d="M149.743 92.8546C144.699 92.6936 140.496 96.4616 140.327 101.292C140.159 106.123 144.094 110.149 149.138 110.31C154.182 110.471 158.385 106.703 158.554 101.872C158.722 97.0413 154.787 93.0156 149.743 92.8546Z" fill="#D86556"/>
<path d="M149.744 92.9542C144.767 92.7932 140.597 96.529 140.429 101.295C140.261 106.062 144.162 110.055 149.139 110.216C154.115 110.377 158.285 106.641 158.453 101.875C158.622 97.1087 154.721 93.1153 149.744 92.9542Z" fill="#D86455"/>
<path d="M149.745 93.05C144.835 92.889 140.699 96.5926 140.531 101.327C140.363 106.029 144.23 109.99 149.173 110.151C154.083 110.312 158.219 106.608 158.387 101.874C158.555 97.1722 154.688 93.211 149.745 93.05Z" fill="#D86354"/>
<path d="M149.745 93.1125C144.869 92.9515 140.8 96.6229 140.632 101.293C140.464 105.962 144.298 109.859 149.174 110.02C154.05 110.181 158.119 106.51 158.287 101.84C158.455 97.1704 154.621 93.2735 149.745 93.1125Z" fill="#D76253"/>
<path d="M149.711 93.2102C144.902 93.0492 140.833 96.6884 140.699 101.294C140.531 105.899 144.331 109.796 149.139 109.925C153.948 110.086 158.017 106.447 158.151 101.841C158.32 97.2359 154.52 93.339 149.711 93.2102Z" fill="#D76153"/>
<path d="M149.712 93.3079C144.937 93.1469 140.935 96.7539 140.8 101.327C140.632 105.9 144.398 109.733 149.174 109.861C153.949 110.022 157.95 106.415 158.085 101.842C158.253 97.2692 154.487 93.4367 149.712 93.3079Z" fill="#D76052"/>
<path d="M149.711 93.4037C145.003 93.2426 141.035 96.8174 140.867 101.326C140.699 105.835 144.431 109.635 149.139 109.796C153.847 109.957 157.815 106.382 157.983 101.874C158.151 97.3649 154.419 93.5647 149.711 93.4037Z" fill="#D75F51"/>
<path d="M149.712 93.4682C145.037 93.3072 141.137 96.8176 140.968 101.294C140.8 105.771 144.466 109.506 149.14 109.667C153.814 109.828 157.715 106.318 157.883 101.842C158.051 97.365 154.386 93.6292 149.712 93.4682Z" fill="#D75E50"/>
<path d="M149.708 93.566C145.101 93.4372 141.234 96.8831 141.066 101.327C140.932 105.74 144.53 109.443 149.17 109.604C153.777 109.733 157.645 106.287 157.813 101.843C157.947 97.4306 154.349 93.727 149.708 93.566Z" fill="#D65D50"/>
<path d="M149.709 93.6617C145.136 93.5329 141.302 96.9467 141.168 101.327C141.033 105.706 144.598 109.378 149.171 109.507C153.744 109.636 157.578 106.222 157.712 101.842C157.847 97.462 154.282 93.7906 149.709 93.6617Z" fill="#D65C4F"/>
<path d="M149.712 93.7594C145.206 93.6306 141.406 97.0121 141.271 101.328C141.137 105.643 144.668 109.282 149.174 109.411C153.68 109.54 157.48 106.158 157.614 101.843C157.749 97.5274 154.218 93.8882 149.712 93.7594Z" fill="#D65B4E"/>
<path d="M149.711 93.8239C145.238 93.6951 141.505 97.0444 141.371 101.328C141.236 105.611 144.734 109.186 149.206 109.315C153.679 109.443 157.411 106.094 157.546 101.811C157.68 97.5275 154.183 93.9527 149.711 93.8239Z" fill="#D65A4D"/>
<path d="M149.71 93.9216C145.305 93.7928 141.606 97.1099 141.437 101.329C141.303 105.548 144.766 109.09 149.172 109.251C153.577 109.38 157.276 106.063 157.444 101.844C157.579 97.6252 154.115 94.0826 149.71 93.9216Z" fill="#D5594C"/>
<path d="M149.71 94.0154C145.339 93.8866 141.673 97.1715 141.539 101.326C141.404 105.513 144.834 109.023 149.172 109.152C153.544 109.281 157.209 105.996 157.344 101.841C157.478 97.6546 154.048 94.1442 149.71 94.0154Z" fill="#D5584C"/>
<path d="M149.711 94.0819C145.407 93.953 141.775 97.1736 141.641 101.328C141.506 105.45 144.869 108.928 149.207 109.057C153.511 109.186 157.143 105.966 157.277 101.811C157.412 97.6888 154.049 94.2107 149.711 94.0819Z" fill="#D5574B"/>
<path d="M149.681 94.1796C145.41 94.0507 141.845 97.239 141.711 101.329C141.576 105.419 144.906 108.833 149.176 108.962C153.447 109.091 157.011 105.902 157.146 101.812C157.28 97.7221 153.951 94.3084 149.681 94.1796Z" fill="#D5564A"/>
<path d="M149.677 94.2733C145.474 94.1445 141.943 97.3006 141.809 101.358C141.674 105.384 144.97 108.766 149.207 108.894C153.41 109.023 156.941 105.867 157.076 101.809C157.21 97.7837 153.915 94.4022 149.677 94.2733Z" fill="#D55549"/>
<path d="M149.677 94.3691C145.507 94.2403 142.01 97.3642 141.875 101.358C141.741 105.351 145.002 108.7 149.172 108.829C153.342 108.958 156.839 105.834 156.974 101.841C157.108 97.8472 153.846 94.4979 149.677 94.3691Z" fill="#D45449"/>
<path d="M149.677 94.4336C145.575 94.3048 142.111 97.3964 141.977 101.325C141.842 105.255 145.07 108.572 149.173 108.7C153.276 108.829 156.739 105.738 156.874 101.809C157.008 97.8795 153.78 94.5624 149.677 94.4336Z" fill="#D45348"/>
<path d="M149.678 94.5293C145.609 94.4005 142.213 97.46 142.078 101.357C141.944 105.254 145.138 108.506 149.207 108.635C153.276 108.764 156.673 105.705 156.807 101.808C156.942 97.9109 153.747 94.6581 149.678 94.5293Z" fill="#D45247"/>
</g>
<path d="M178.937 102.087C180.809 96.6668 179.182 91.2764 175.303 90.0477C171.423 88.8191 166.761 92.2174 164.889 97.6381C163.017 103.059 164.645 108.449 168.524 109.678C172.403 110.906 177.065 107.508 178.937 102.087Z" fill="#E5A185"/>
<path d="M175.641 102.841C171.875 105.063 167.907 104.225 165.082 101.939C165.082 106.512 163.871 115.143 156.843 123.838C151.194 130.827 139.289 132.92 130.479 132.437C109.462 131.278 104.081 125.03 99.9453 116.624C102.703 125.803 109.798 134.37 126.309 135.754C156.877 138.363 165.586 126.286 167.133 108.927C167.469 109.153 167.839 109.378 168.243 109.507C172.043 110.892 176.751 107.671 178.768 102.261C179.273 100.876 179.575 99.4913 179.642 98.1387C178.936 99.9744 177.625 101.617 175.641 102.776V102.841Z" fill="#D78C74"/>
<path d="M168.912 99.7502L172.409 100.298C172.477 94.9839 176.646 93.3092 176.646 93.3092C170.022 90.8616 168.912 99.7502 168.912 99.7502Z" fill="#D78C74"/>
<path d="M106.097 89.6051C106.097 89.6051 104.786 93.985 113.092 94.5325C121.431 95.1122 122.205 92.6002 122.205 92.6002C122.205 92.6002 114.538 77.8825 106.097 89.5729V89.6051Z" fill="white"/>
<path d="M117.227 87.3194C115.512 86.7397 113.326 88.3822 112.351 91.023C111.914 92.2146 111.813 93.4384 111.981 94.4368C112.317 94.469 112.687 94.5334 113.091 94.5334C115.109 94.6622 116.689 94.63 117.933 94.469C118.202 94.0503 118.438 93.5994 118.606 93.1164C119.581 90.4755 118.942 87.8991 117.227 87.3194Z" fill="url(#paint0_linear_2394_71818)"/>
<path opacity="0.6" d="M111.274 91.73L111.509 92.8572C111.509 92.8572 116.453 92.5674 116.015 90.4096C115.578 88.2519 111.24 91.6978 111.24 91.6978L111.274 91.73Z" fill="white"/>
<path d="M113.832 83.1327C107.611 83.0039 106.098 89.606 106.098 89.606C106.098 89.606 108.721 86.2566 113.395 86.3532C118.506 86.4499 122.239 92.6333 122.239 92.6333C122.239 92.6333 121.97 83.2937 113.866 83.1327H113.832Z" fill="#381911"/>
<path d="M108.652 75.2401V78.0742C114.907 75.9164 127.349 77.108 127.349 77.108L129.131 70.4738C115.277 69.0567 108.652 75.2723 108.652 75.2723V75.2401Z" fill="#422E26"/>
<path d="M141.474 76.6582L140.096 82.7772C140.096 82.7772 154.825 85.1604 159.6 88.4453L160.642 85.7723C160.642 85.7723 155.026 78.2041 141.474 76.6582Z" fill="#422E26"/>
<path d="M149.476 88.3481C144.196 88.0905 141.607 90.377 140.396 92.2127C140.026 92.7602 140.632 93.4043 141.237 93.1145C142.784 92.3738 145.44 91.633 149.577 92.0195C153.444 92.3738 155.663 93.2433 156.907 93.984C157.445 94.3061 158.118 93.7908 157.883 93.2433C157.042 91.2466 154.923 88.6057 149.476 88.3481Z" fill="#381911"/>
<path d="M131.553 109.669C116.791 109.605 114.504 108.735 114.504 108.735C114.504 108.735 116.723 124.645 131.957 123.324C145.777 122.133 145.845 109.154 145.744 108.574C145.744 108.864 145.105 109.734 131.553 109.669Z" fill="#6C332E"/>
<path d="M123.752 122.068C125.938 123.067 128.662 123.614 131.957 123.324C136.867 122.906 140.061 120.973 142.113 118.654C135.723 117.366 129.2 118.365 123.752 122.068Z" fill="#843531"/>
<path d="M131.555 109.668C125.266 109.668 121.433 109.442 119.112 109.217C118.944 110.183 118.036 110.73 117.868 111.793C117.633 113.21 123.484 116.592 130.815 116.109C139.255 115.561 143.492 110.988 142.988 109.313C140.97 109.507 137.507 109.668 131.555 109.668Z" fill="white"/>
<path opacity="0.3" d="M131.556 109.668C125.267 109.668 121.434 109.442 119.113 109.217C118.945 110.183 118.037 110.73 117.869 111.793C117.768 112.341 118.643 113.21 120.189 114.048C125.839 111.085 132.8 111.954 138.819 114.048C141.879 112.437 143.325 110.376 142.989 109.346C140.971 109.539 137.508 109.7 131.556 109.7V109.668Z" fill="#D1B693"/>
<path d="M126.948 96.4959C126.948 96.4959 121.5 92.5346 119.382 99.2333C117.263 105.932 131.218 110.248 135.254 103.291C139.289 96.3349 129.503 82.9375 129.503 82.9375C129.503 82.9375 131.319 91.0854 126.948 96.4959Z" fill="#E5A185"/>
<path opacity="0.2" d="M126.947 96.4984C126.947 96.4984 121.667 92.7626 119.549 98.785C122.374 99.4935 125.366 100.041 128.292 100.234C130.141 96.2408 130.814 91.8609 131.049 87.0945C130.646 86.9657 130.242 86.8691 129.872 86.7402C129.94 89.6065 129.469 93.3745 126.947 96.4662V96.4984Z" fill="white"/>
<path d="M137.134 37.6907C98.16 39.462 103.002 80.9101 103.002 80.9101C105.558 68.6721 113.898 53.5678 120.018 53.3746C120.018 53.3746 125.264 57.6579 133.234 57.9477C140.363 58.2054 150.35 53.4068 150.35 53.4068C157.479 53.4068 165.18 74.63 165.819 91.6344C165.953 95.5312 169.585 91.0869 169.585 91.0869C169.585 91.0869 175.369 35.9516 137.168 37.6907H137.134Z" fill="#4F372D"/>
<path d="M157.445 41.2961C146.247 24.2596 108.651 28.4785 108.651 28.4785C104.65 47.5117 118.504 52.0527 118.504 52.0527C118.504 52.0527 151.089 47.0931 155.932 50.5068C160.774 53.9206 169.853 80.7797 169.853 80.7797C169.853 80.7797 177.588 57.1733 173.889 47.5118C170.19 37.8502 157.479 41.2961 157.479 41.2961H157.445Z" fill="#4F372D"/>
<path d="M123.213 24.8398C123.314 27.3841 125.533 29.9927 125.533 29.9927C125.533 29.9927 164.373 56.3043 157.446 41.2967C150.518 26.2891 123.247 24.8398 123.247 24.8398H123.213Z" fill="#4F372D"/>
<path d="M157.749 36.5934C155.732 32.3101 147.291 32.6965 147.291 32.6965C147.426 36.2069 153.209 38.0426 153.411 38.1392L156.707 43.131L163.735 42.1971L163.096 39.1698" fill="#4F372D"/>
<path d="M109.391 43.0049C97.8899 46.1288 100.345 89.8312 100.345 89.8312C102.9 77.5932 113.863 53.536 120.017 53.3427C120.017 53.3427 114.401 49.9934 109.391 42.9727V43.0049Z" fill="#422E26"/>
<path opacity="0.1" d="M165.72 41.1689C164.307 41.3621 165.518 39.7196 163.971 40.0417C160.306 40.7824 156.472 41.2333 152.74 40.6858C148.402 40.0417 144.635 38.1094 140.835 36.1771C138.919 35.2109 137.002 34.2125 135.018 33.343C130.747 31.5073 125.737 29.6716 120.995 29.736C118.641 29.736 116.355 30.4123 114.169 31.2175C112.151 31.9582 110.503 33.0854 109.259 34.2447C108.721 34.7278 108.318 35.2109 107.914 35.694C107.948 37.1754 108.116 38.5602 108.385 39.8162C108.519 39.6874 108.688 39.5908 108.856 39.462C109.629 38.9145 110.638 38.367 111.781 37.9483C112.925 37.5297 114.236 37.1432 115.682 37.0788C121.331 36.7568 126.51 39.0111 131.554 41.1367C133.605 42.0062 135.724 43.0046 137.943 43.9385C140.163 44.9047 142.45 45.8064 144.871 46.5471C148.94 47.8031 153.95 48.2862 158.154 47.2234C158.725 47.0946 159.297 46.9658 159.835 46.8048C161.987 46.1929 163.904 45.3877 165.552 44.6148C167.199 43.8419 168.612 43.1334 169.856 42.6181C170.697 42.2316 168.78 43.9063 169.486 43.7131C168.444 42.3605 167.132 41.5553 165.753 41.1689H165.72Z" fill="#E5912F"/>
<path d="M119.18 101.102C119.886 106.673 131.588 109.572 135.22 103.259C135.455 102.873 135.624 102.486 135.758 102.068C130.21 103.066 124.426 102.647 119.18 101.102Z" fill="#D78C74"/>
<path d="M152.772 306.701L144.365 319.97H153.915L161.717 306.701H152.772Z" fill="#3D4041"/>
<path d="M79.6323 306.25C79.6323 306.25 78.4217 313.11 78.7244 319.97H172.814L173.218 303.867L79.6659 306.218L79.6323 306.25Z" fill="#363C42"/>
<path d="M172.579 317.038L151.629 319.969H174.327C174.126 318.004 173.621 317.006 172.579 317.038Z" fill="#363C42"/>
<path d="M101.59 147.572V167.217H162.523V145.608C144.263 140.423 119.278 140.487 101.59 147.572Z" fill="#D78C74"/>
<path d="M155.363 151.342C150.016 155.722 140.331 156.946 129.974 157.107C116.893 157.3 110.974 154.595 108.654 144.998C104.316 145.707 93.2862 149.088 87.166 152.824V319.969H169.52V157.139C164.879 155.014 160.138 153.178 155.363 151.342Z" fill="#DFE5EA"/>
<path d="M123.315 161.681C122.743 159.072 114.505 151.472 112.756 144.193C104.921 144.193 89.2839 150.312 84.4752 154.789C74.2524 164.386 74.1179 187.896 73.1427 222.066C72.1339 257.684 72.1003 255.333 67.5605 319.969H114.538C113.025 265.478 122.508 169.313 123.281 161.681H123.315Z" fill="#6D7DB3"/>
<path d="M186.735 176.012C186.735 172.695 187.374 149.99 164.372 145.417C162.792 144.999 155.495 143.163 153.813 142.744C152.3 151.375 148.635 149.668 137.84 161.101C136.865 170.569 129.366 244.416 130.106 320.001H188.752C187.743 310.243 185.894 297.361 185.087 275.172C183.809 239.489 186.667 199.071 186.735 176.044V176.012Z" fill="#6D7DB3"/>
<path d="M106.367 260.391C108.62 214.305 116.018 160.233 117.061 152.89C116.825 152.568 116.623 152.278 116.422 151.956L113.328 151.537C113.261 152.117 104.921 210.73 102.5 260.197C101.289 285.317 101.289 305.832 101.592 319.97H105.493C105.19 305.897 105.156 285.478 106.401 260.391H106.367Z" fill="#7588BC"/>
<path d="M142.985 260.646C143.12 208.957 149.509 153.725 149.542 153.178L147.189 152.92C146.651 153.339 146.112 153.789 145.507 154.273C144.498 163.515 139.185 213.498 139.084 260.646C139.017 285.702 139.757 305.766 140.564 319.968H144.465C143.658 305.83 142.918 285.766 142.985 260.646Z" fill="#7588BC"/>
<path d="M80.5383 178.622L78.5879 182.551L112.484 177.076L111.845 173.404L80.5383 178.622Z" fill="#7588BC"/>
<path d="M115.847 137.01C115.847 137.01 113.426 138.266 108.079 145.254C102.732 152.243 107.608 166.703 107.608 166.703C107.608 166.703 108.415 163.289 110.198 157.557C112.821 149.151 123.312 161.647 123.312 161.647C123.312 161.647 123.884 155.721 120.252 152.114C114.233 146.124 115.847 137.01 115.847 137.01Z" fill="#7588BC"/>
<path opacity="0.1" d="M120.221 152.147C114.202 146.157 115.816 137.043 115.816 137.043C115.816 137.043 115.648 137.14 115.345 137.365C112.42 143.065 111.781 148.83 113.462 154.724C117.531 154.852 123.282 161.712 123.282 161.712C123.282 161.712 123.853 155.786 120.221 152.179V152.147Z" fill="white"/>
<path d="M113.463 226.605C112.017 226.605 110.84 227.604 110.84 228.828C110.84 230.051 112.017 231.05 113.463 231.05C114.909 231.05 116.086 230.051 116.086 228.828C116.086 227.604 114.909 226.605 113.463 226.605Z" fill="#B0B5C1"/>
<path d="M116.086 196.592C114.64 196.592 113.463 197.59 113.463 198.814C113.463 200.038 114.64 201.036 116.086 201.036C117.532 201.036 118.709 200.038 118.709 198.814C118.709 197.59 117.532 196.592 116.086 196.592Z" fill="#B0B5C1"/>
<path d="M110.537 257.619C109.091 257.619 107.914 258.617 107.914 259.841C107.914 261.065 109.091 262.063 110.537 262.063C111.983 262.063 113.16 261.065 113.16 259.841C113.16 258.617 111.983 257.619 110.537 257.619Z" fill="#B0B5C1"/>
<path d="M109.56 283.705C108.114 283.705 106.938 284.703 106.938 285.927C106.938 287.151 108.114 288.149 109.56 288.149C111.006 288.149 112.183 287.151 112.183 285.927C112.183 284.703 111.006 283.705 109.56 283.705Z" fill="#B0B5C1"/>
<path d="M109.56 310.727C108.114 310.727 106.938 311.725 106.938 312.949C106.938 314.172 108.114 315.171 109.56 315.171C111.006 315.171 112.183 314.172 112.183 312.949C112.183 311.725 111.006 310.727 109.56 310.727Z" fill="#B0B5C1"/>
<path d="M118.336 170.053C116.89 170.053 115.713 171.051 115.713 172.275C115.713 173.499 116.89 174.497 118.336 174.497C119.782 174.497 120.959 173.499 120.959 172.275C120.959 171.051 119.782 170.053 118.336 170.053Z" fill="#B0B5C1"/>
<path d="M149.545 138.395C149.545 138.395 149.847 140.842 146.619 147.831C144.467 152.436 138.212 154.98 137.809 161.808C137.809 161.808 152.302 149.151 154.925 157.557C156.707 163.289 157.514 166.703 157.514 166.703C157.514 166.703 162.39 152.243 157.044 145.254C151.697 138.266 149.545 138.395 149.545 138.395Z" fill="#7588BC"/>
<path opacity="0.1" d="M149.58 138.395C149.58 138.395 149.882 140.842 146.654 147.831C144.502 152.436 138.247 154.98 137.844 161.808C137.844 161.808 144.367 156.14 149.445 154.916C151.597 149.602 152.371 143.354 149.613 138.395H149.58Z" fill="white"/>
<path d="M74.5551 187.445C73.8153 197.268 73.5463 208.862 73.1764 222.066C73.1091 224.481 73.0419 226.735 72.9746 228.829C77.6488 171.343 89.2167 153.147 93.0502 148.863C89.2167 149.862 88.3087 150.313 86.2575 151.407C82.962 157.559 77.9179 170.602 74.5215 187.445H74.5551Z" fill="#7588BC"/>
<path d="M78.3566 225.221C78.1884 227.379 79.2981 229.472 81.2485 230.599L86.8307 233.852C88.3776 234.753 90.328 234.753 91.8748 233.82L99.1384 229.407C100.685 228.473 101.694 226.863 101.829 225.092L103.577 203.225H80.0716L78.3902 225.221H78.3566Z" fill="#7588BC"/>
<path d="M149.409 205.736V227.443C149.409 229.504 150.451 231.468 152.233 232.66L156.975 235.848C159.53 237.555 162.927 237.458 165.348 235.558L172.309 230.116C174.327 228.538 175.47 226.122 175.369 223.642L174.73 205.736H149.375H149.409Z" fill="#7588BC"/>
<path d="M221.137 247.701C216.967 178.878 193.731 157.236 178.228 149.861C177.22 160.07 173.184 170.376 170.797 180.005C170.326 181.873 169.889 183.709 169.418 185.577C176.278 199.522 188.283 229.73 188.586 250.019C188.989 277.394 198.539 279.391 192.285 320.001H215.017C218.111 301.032 222.718 273.658 221.171 247.733L221.137 247.701Z" fill="#E19D81"/>
<path d="M191.31 158.975C189.931 164.546 187.711 170.118 185.862 175.399C182.835 184.159 179.607 192.854 176.379 201.55C182.297 216.525 188.317 235.72 188.552 249.987C188.552 251.5 188.619 252.917 188.687 254.302C193.563 250.083 200.658 248.022 207.047 249.278C213.941 250.631 218.716 254.721 221.44 260.228C221.473 256.041 221.406 251.854 221.137 247.732C218.043 196.655 204.424 171.567 191.31 159.007V158.975Z" fill="#D58A73"/>
<path d="M164.139 145.352L164.812 182.549C170.226 192.725 184.114 218.329 187.51 239.294C192.991 238.199 198.54 237.394 204.156 236.911C209.503 236.46 214.849 236.299 220.196 236.299C211.083 144.16 165.148 147.252 164.105 145.352H164.139Z" fill="#6D7DB3"/>
<path d="M167.534 146.254C164.541 144.998 161.75 144.74 161.75 144.74C165.449 148.251 172.444 158.138 174.461 168.862C176.714 180.842 179.236 205.125 180.581 218.458C182.162 222.451 183.44 223.128 184.65 227.186H185.188C185.188 226.38 185.222 225.607 185.256 224.835C184.449 216.107 181.355 184.256 178.328 168.153C176.243 157.139 171.603 150.28 167.534 146.222V146.254Z" fill="#7588BC"/>
<path d="M180.583 218.458C179.91 222.838 181.155 230.825 183.038 240.68C184.618 249.118 188.62 252.435 188.62 252.435C198.708 243.224 220.902 244.094 220.902 244.094C223.29 243.385 223.962 240.744 223.962 240.744C224.4 234.818 220.902 210.536 220.902 210.536C215.892 203.129 181.625 211.888 180.583 218.49V218.458Z" fill="#B6BDCE"/>
<path d="M145.139 176.303L176.412 183.227L177.791 179.427L145.912 172.664L145.139 176.303Z" fill="#7588BC"/>
<path d="M84.8448 113.886C83.1971 112.437 82.7935 109.41 82.3564 107.961C81.9192 106.511 79.5653 107.316 79.5653 107.316C78.3547 106.962 76.337 103.323 74.622 102.775C72.907 102.228 65.5426 101.036 64.1975 102.614C62.8524 104.16 59.6242 109.635 59.6242 109.635C59.9941 107.671 61.6755 92.7275 60.5657 86.9949C59.4897 81.2302 54.042 82.615 54.311 84.1609C54.5464 85.7067 54.4792 88.0577 53.9075 91.8901C53.3022 95.7225 51.8562 107.542 51.8562 107.542C51.8562 107.542 51.1837 104.901 50.1412 103.13C49.0988 101.358 48.6616 97.6549 46.7112 91.1172C44.7608 84.5796 39.9857 87.5746 40.0866 88.8628C40.1875 90.151 40.6246 92.18 41.1963 96.6565C41.8016 101.133 44.6936 113.886 44.6936 113.886C44.6936 113.886 40.5238 107.542 40.2547 106.93C39.9857 106.318 39.3132 102.292 37.0937 100.038C34.8743 97.7515 31.8815 99.4906 32.554 100.875C33.2266 102.292 34.8071 109.345 37.161 114.273C39.5149 119.2 41.1963 125.609 42.8777 130.15C44.5591 134.723 47.3165 138.523 49.0651 142.227C51.8898 148.249 45.6688 165.511 43.9874 170.084C40.4901 179.553 36.4212 188.796 32.9912 198.264C31.0072 203.707 29.0568 209.375 28.4851 215.172C27.5435 224.737 28.7878 230.856 31.5452 234.785C31.7806 237.329 32.6213 241.226 35.6478 242.385C38.6406 243.544 42.1379 242.192 44.1555 241.129C52.6297 241.677 62.7515 233.722 66.4169 222.225C68.0647 217.072 68.0647 211.21 68.3673 205.897C69.0062 195.591 69.3425 185.253 69.3089 174.947C69.3089 170.052 67.7284 151.18 69.0063 146.8C70.1496 142.871 74.4875 139.715 77.3459 137.01C82.8272 131.857 85.0129 122.711 86.0218 119.522C87.0642 116.334 86.5598 115.368 84.8784 113.918L84.8448 113.886ZM74.1176 121.261C71.3602 122.646 66.4506 120.199 66.3497 116.978C66.2152 113.725 69.6115 108.379 71.8982 109.474C74.1849 110.569 77.2114 110.537 77.2114 110.537C76.9087 110.891 76.4716 114.756 77.0769 116.302C77.6821 117.848 76.9087 119.909 74.1513 121.293L74.1176 121.261Z" fill="#E5A185"/>
<path opacity="0.5" d="M84.8444 113.886C83.1966 112.437 82.7931 109.41 82.3559 107.961C81.9188 106.511 79.5649 107.316 79.5649 107.316C79.0268 107.155 78.3206 106.35 77.5808 105.449C77.8162 106.189 77.8835 106.866 77.5808 107.22C76.572 108.444 73.4783 105.223 69.2412 104.193C64.9705 103.162 65.105 105.738 62.4485 107.574C61.2715 108.379 61.2379 107.638 61.5405 106.543C60.5317 108.154 59.6574 109.635 59.6574 109.635C60.0273 107.671 61.7087 92.7275 60.599 86.9949C59.5229 81.2302 54.0752 82.615 54.3442 84.1609C54.5796 85.7067 54.5124 88.0577 53.9407 91.8901C53.3354 95.7225 51.8894 107.542 51.8894 107.542C51.8894 107.542 51.2169 104.901 50.1744 103.13C49.132 101.358 48.6948 97.6549 46.7444 91.1172C44.794 84.5796 40.0189 87.5746 40.1198 88.8628C40.2207 90.151 40.6578 92.18 41.2295 96.6565C41.8348 101.133 44.7268 113.886 44.7268 113.886C44.7268 113.886 40.557 107.542 40.2879 106.93C40.0189 106.318 39.3464 102.292 37.1269 100.038C34.9075 97.7515 31.9147 99.4906 32.5872 100.875C33.2598 102.292 34.8403 109.345 37.1942 114.273C39.5481 119.2 41.2295 125.609 42.9109 130.15C44.5923 134.723 47.3497 138.523 49.0983 142.227C51.923 148.249 45.702 165.511 44.0206 170.084C40.5233 179.553 36.4544 188.796 33.0244 198.264C31.0404 203.707 29.09 209.375 28.5183 215.172C27.5767 224.737 28.821 230.856 31.5784 234.785C31.8138 237.329 32.6545 241.226 35.681 242.385C38.6738 243.544 42.1711 242.192 44.1887 241.129C52.6629 241.677 62.7847 233.722 66.4501 222.225C68.0979 217.072 68.0979 211.21 68.4005 205.897C69.0394 195.591 69.3757 185.253 69.3421 174.947C69.3421 170.052 67.7616 151.18 69.0394 146.8C70.1828 142.871 74.5207 139.715 77.3791 137.01C82.8604 131.857 85.0461 122.711 86.055 119.522C87.0974 116.334 86.593 115.368 84.9116 113.918L84.8444 113.886ZM42.0366 115.497C39.7163 116.753 35.3447 104.837 34.3695 102.099C33.3943 99.3617 35.2438 100.199 35.2438 100.199C37.7995 100.65 39.5481 107.832 39.5481 107.832C39.5481 107.832 44.3232 114.241 42.0366 115.497ZM56.261 97.1718C57.1353 90.2799 56.261 85.1915 56.261 85.1915C59.2875 82.0675 60.2627 91.5359 59.8591 96.6887C59.4556 101.842 58.3459 107.51 56.6645 107.832C54.9832 108.122 55.3867 104.096 56.261 97.1718ZM42.0366 88.412C41.9693 87.9289 43.3817 87.5746 44.525 88.9917C45.6683 90.4087 47.0807 99.1041 48.5939 102.937C50.1072 106.769 49.5355 111.342 46.9126 108.701C44.2896 106.06 42.0366 88.412 42.0366 88.412ZM62.7175 177.975C61.9104 193.498 61.7759 221.291 55.8575 227.989C49.939 234.688 40.3888 226.765 41.9693 214.689C43.5498 202.612 50.0063 173.498 57.3371 161.679C60.9352 155.882 63.5245 162.452 62.7175 177.975ZM73.5455 129.602C73.411 130.214 73.142 130.762 72.8057 131.309C70.9226 134.272 66.3492 136.43 63.3228 137.203C60.9016 137.815 58.245 137.75 55.9247 136.816C53.1 135.657 50.9479 133.338 49.2665 130.858C47.5515 128.346 46.1391 125.545 46.0382 122.549C45.9374 119.554 47.2488 117.268 49.4346 115.271C51.5531 113.339 54.6469 112.791 57.4716 112.308C58.5813 112.115 59.7583 112.018 60.868 112.276C61.9777 112.534 63.0201 113.21 63.4573 114.208C63.9617 115.336 63.5918 116.688 62.852 117.719C62.0113 118.878 60.6662 119.651 59.6574 120.682C58.0096 122.421 55.5885 124.804 56.53 127.38C56.8663 128.346 57.6061 129.216 58.6149 129.506C59.5229 129.763 60.4981 129.506 61.3051 129.087C62.1122 128.668 62.8184 128.057 63.5245 127.477C65.4077 125.995 67.6607 124.772 70.0819 124.9C72.5703 125.061 74.0163 127.348 73.4783 129.602H73.5455ZM74.1172 121.261C71.3597 122.646 66.4501 120.199 66.3492 116.978C66.2147 113.725 69.6111 108.379 71.8978 109.474C74.1845 110.569 77.2109 110.537 77.2109 110.537C76.9083 110.891 76.4711 114.756 77.0764 116.302C77.6817 117.848 76.9083 119.909 74.1508 121.293L74.1172 121.261ZM79.8675 123.226C77.3791 123.065 81.3135 118.492 79.5985 116.817C77.8835 115.142 79.8675 109.056 79.8675 109.056C80.1365 108.089 81.2462 107.638 81.5153 109.732C81.7843 111.825 83.9028 114.112 84.7099 116.141C85.5169 118.17 82.3559 123.387 79.8675 123.226Z" fill="#D78C74"/>
<path d="M174.075 48.6561C175.255 46.5576 167.158 40.1876 155.989 34.4283C144.821 28.669 134.81 25.7014 133.63 27.7999C132.451 29.8984 140.548 36.2684 151.717 42.0277C162.885 47.787 172.895 50.7547 174.075 48.6561Z" fill="#0C4266"/>
<path d="M174.157 49.028C172.98 51.1213 162.959 48.1584 151.828 42.3937C140.664 36.629 132.593 29.8659 133.77 27.7725C134.006 27.3861 134.544 27.2573 135.283 27.5149C136.023 27.7725 143.522 34.117 152.602 38.8189C162.354 43.8751 173.283 45.3888 174.19 48.094C175.098 50.7993 174.325 48.8025 174.19 49.0602L174.157 49.028Z" fill="#092E4C"/>
<defs>
<linearGradient id="paint0_linear_2394_71818" x1="113.92" y1="95.8134" x2="117.625" y2="86.0493" gradientUnits="userSpaceOnUse">
<stop stop-color="#5C3333"/>
<stop offset="1"/>
</linearGradient>
</defs>
</svg>
