<svg width="940" height="1600" viewBox="0 0 940 1600" fill="none" xmlns="http://www.w3.org/2000/svg">
<path d="M769.5 1503.6C769.5 1503.6 627.5 1531 452.2 1531C276.9 1531 134.9 1503.6 134.9 1503.6C134.9 1503.6 276.9 1476.2 452.2 1476.2C627.5 1476.2 769.5 1503.6 769.5 1503.6Z" fill="url(#paint0_linear_2394_71809)"/>
<path d="M523.8 382.1C515.8 380.4 507.2 379 497.8 378L499 320.7C499.5 303.2 480.7 289.3 456.7 289.6C433.7 290 413.9 304.6 413.4 322.1L412 379.3C401.5 380.9 392 382.9 383.1 385.4L383.8 438H524.4L523.7 382.2L523.8 382.1Z" fill="url(#paint1_linear_2394_71809)"/>
<path d="M665.7 555.499C657.6 483.799 639.5 449.299 615.1 421.899C593.6 397.699 546.5 386.199 522.7 381.699L522.5 380.799C515.9 360.899 498.3 361.799 498.3 361.799C493.9 393.999 455.7 403.499 455.7 403.499C420.8 390.899 412.5 368.599 412.5 368.599C398.7 368.699 390.5 379.199 387.7 383.399C347.1 385.699 297.9 409.099 283.5 425.099C253.8 458.099 194.3 554.399 181.9 593.799C183.5 601.299 198.8 654.599 220.5 656.499C229.3 657.299 281.3 628.099 287.9 620.099C294.3 612.299 319.5 559.499 319.5 559.499C314.9 626.999 303.2 724.599 306.7 759.599C307.4 766.299 316.5 774.299 317.6 776.499C328.8 798.199 595.2 795.999 595.8 778.799C595.8 775.799 606.9 767.399 607.3 761.499C610 724.899 609.2 642.299 607.4 567.599C629.7 563.399 654.6 556.099 665.5 555.599L665.7 555.499Z" fill="url(#paint2_linear_2394_71809)"/>
<path d="M307 1439.5C305.9 1440 226.1 1483.6 225.2 1497.3C225.2 1497.9 222.9 1498.3 222.6 1498.7V1504.1C265.2 1518.5 351.3 1501.5 351.3 1501.5C351.3 1501.5 351.5 1504.9 352.4 1505C369.5 1506.7 398.4 1502.8 400.4 1501.2C400.8 1500.9 401.4 1496.2 401.2 1492.1C401.2 1491.7 400.1 1490.8 400.1 1490.8C401 1474.6 401 1443.4 401.1 1442.7C403.9 1428.7 313.5 1415.3 307 1439.5Z" fill="#2C2C2D"/>
<path d="M598.3 1439.5C599.4 1440 679.2 1483.6 680.1 1497.3C680.1 1497.9 682.4 1498.3 682.7 1498.7V1504.1C640.1 1518.5 554 1501.5 554 1501.5C554 1501.5 553.8 1504.9 552.9 1505C535.8 1506.7 506.9 1502.8 504.9 1501.2C504.5 1500.9 503.9 1496.2 504.1 1492.1C504.1 1491.7 505.2 1490.8 505.2 1490.8C504.3 1474.6 504.3 1443.4 504.2 1442.7C501.4 1428.7 591.8 1415.3 598.3 1439.5Z" fill="#2C2C2D"/>
<path d="M407.4 1462.9C435.9 1147.6 448.7 896.499 451.1 826.199L307.5 810.299C297.6 920.799 306.3 1205.8 289.5 1449.3C289.5 1449.3 303.1 1441.5 330.4 1443C356.4 1444.4 386.1 1460.5 400.8 1465C400.8 1465 406.7 1463.2 407.4 1463V1462.9Z" fill="#333844"/>
<path d="M498.9 1462.8C470.4 1147.5 456.8 896.499 454.5 826.199L598.1 810.299C608 920.799 599.2 1205.8 616 1449.3C616 1449.3 602.1 1443.3 575.2 1442.9C560 1442.7 519.3 1460.4 504.6 1464.9L499 1462.8H498.9Z" fill="#333844"/>
<path d="M308.8 779.099C304.6 859.199 303.4 896.799 303.4 896.799C303.4 896.799 386.9 903.699 477.4 902.899C536.2 902.399 586.4 906.799 590.3 882.899C593.8 861.299 597.3 834.499 599.4 779.699C599.4 779.699 596.4 776.299 594 776.499C579.3 777.999 529.3 782.399 450.8 781.399C364.5 780.299 326.2 774.699 315.3 773.799C313.7 773.699 308.9 777.399 308.8 779.099Z" fill="#333844"/>
<path d="M426 896L425 902.4C448.9 903.2 479.8 902.6 479.8 902.6V896.1C479.7 896.1 426 896.1 426 896.1V896Z" fill="#292D35"/>
<path d="M304 875.7C310.8 871.3 324.1 861.9 332.3 854.4C331.4 853.1 330.5 851.8 329.5 850.5C324.8 854 309.3 864.7 304.2 868.2C304.2 870.6 304 873.1 304 875.6V875.7Z" fill="#292D35"/>
<path d="M450.801 798.8C375.501 798.8 328.801 795.4 308.301 793.5C305.801 793.5 304.201 820.6 307.101 821.9C329.001 823.9 375.701 827.1 450.901 827.1C526.101 827.1 572.601 823.2 599.701 821.2C602.101 821.4 601.501 793.4 598.901 793.4C573.701 795.3 518.901 798.7 450.901 798.7L450.801 798.8Z" fill="#1C1D1E"/>
<path d="M384.2 836.9L367 836L370.3 788.6L387.4 789.5L384.2 836.9Z" fill="#333844"/>
<path d="M526.401 836.9L509.301 836L512.501 788.6L529.601 789.5L526.401 836.9Z" fill="#333844"/>
<path d="M572.2 850C571.1 852.5 571.5 851.7 570.5 854.3C578.7 861.4 593.7 870.3 601.5 875.2C601.5 871.8 601.3 870.9 601.3 867.9L572.2 850.1V850Z" fill="#292D35"/>
<path d="M594.4 902.699C594.4 902.699 602.4 1130.8 597.5 1135.7C592.7 1140.6 567.2 1160.9 560.5 1160.2C549.7 1159.1 498.5 1135.9 495.7 1128.4C493 1120.9 481.7 905.899 485.7 905.999C489.7 906.099 594.2 902.799 594.2 902.799L594.4 902.699Z" fill="url(#paint3_linear_2394_71809)"/>
<path d="M489.4 1353.2C489.2 1353.2 490.1 1372.5 490.1 1373.6C490.3 1378.8 489.2 1384.6 490 1389.6C490.8 1395 494.6 1399.6 494.2 1405.3C493.9 1408.8 491.9 1411.9 490.3 1415.1C488.7 1418.3 487.5 1422 488.8 1425.3C489.9 1428 492.7 1429.9 493.7 1432.7C495 1436.4 492.9 1439.9 492.7 1443.5C492.4 1447.5 493.6 1451.9 493.8 1456.1C493.9 1458.1 493.3 1471.1 495.4 1472.3C497.4 1473.4 502.4 1475.9 504.6 1475.4C521.7 1471.8 548.1 1450 569.7 1445C594.3 1439.2 615.8 1449.5 615.8 1449.5C613.6 1448.9 616.2 1433.8 616.8 1432.3C617.8 1430 619.2 1427.8 619.5 1425.4C620.2 1418.6 611.6 1413 613.1 1406.3C613.9 1402.9 617.2 1400.2 617.2 1396.7C617.2 1393.8 615.1 1391.4 613.6 1388.9C610.9 1384 612 1378.9 611.7 1373.6C611.4 1368.2 611.1 1362.9 610.8 1357.5C610.8 1356.7 609.9 1342.4 610 1342.4L489.2 1353.2H489.4Z" fill="#333844"/>
<path d="M416.6 1352.3C416.8 1352.3 415.6 1373.4 415.6 1374.5C415.4 1379.7 415.6 1384.6 415 1389.6C414.2 1395 412.2 1398.3 412.7 1404C413 1407.5 413.1 1411.9 414.7 1415.1C416.3 1418.3 417.5 1422 416.2 1425.3C415.1 1428 412.3 1429.9 411.3 1432.7C410 1436.4 412.1 1439.9 412.3 1443.5C412.6 1447.5 411.4 1451.9 411.2 1456.1C411.1 1458.1 411.7 1471.1 409.6 1472.3C407.6 1473.4 403.2 1474.9 400.9 1474.9C370 1474.9 355.6 1451.7 335.8 1446.6C311.3 1440.3 289.1 1449.5 289.1 1449.5C291.3 1448.9 288.7 1433.8 288.1 1432.3C287.1 1430 285.7 1427.8 285.4 1425.4C284.7 1418.6 293.3 1413 291.8 1406.3C291 1402.9 287.7 1400.2 287.7 1396.7C287.7 1393.8 289.8 1391.4 291.3 1388.9C294 1384 292.9 1378.9 293.2 1373.6C293.5 1368.2 293.8 1362.9 294.1 1357.5C294.1 1356.7 295.6 1341.2 295.5 1341.2L416.8 1352.3H416.6Z" fill="#333844"/>
<path d="M350.201 1494.6C327.401 1497.4 301.501 1500.6 279.801 1500.9C246.901 1501.5 230.801 1498.3 225.301 1496.9C225.301 1497 225.301 1497.1 225.301 1497.2C225.301 1497.8 223.001 1498.2 222.701 1498.6V1498.8C225.501 1499.7 239.101 1503.5 272.201 1503.5C305.301 1503.5 277.301 1503.5 280.001 1503.5C301.801 1503.1 327.701 1499.9 350.601 1497.1C372.701 1494.4 391.901 1492 401.401 1492.9C401.401 1492.6 401.401 1492.3 401.401 1492C401.401 1491.6 400.301 1490.7 400.301 1490.7C400.301 1490.6 400.301 1490.4 400.301 1490.3C390.201 1489.7 371.601 1492 350.401 1494.6H350.201Z" fill="#3D3D3D"/>
<path d="M555.2 1494.6C578 1497.4 603.9 1500.6 625.5 1500.9C658.4 1501.5 674.5 1498.3 680.1 1496.9C680.1 1497 680.1 1497.1 680.1 1497.2C680.1 1497.8 682.4 1498.2 682.7 1498.6C679.9 1499.7 666.2 1503.5 633.2 1503.5C600.2 1503.5 628.1 1503.5 625.4 1503.5C603.6 1503.1 577.7 1499.9 554.8 1497.1C532.7 1494.4 513.5 1492 504.1 1492.9C504.1 1492.6 504.1 1492.3 504.1 1492C504.1 1491.6 505.2 1490.7 505.2 1490.7C505.2 1490.6 505.2 1490.4 505.2 1490.3C515.3 1489.7 533.8 1492 555.1 1494.6H555.2Z" fill="#3D3D3D"/>
<path d="M322.7 1482.6C294.4 1465.8 268.9 1467.5 250.7 1473.5C241.7 1479.6 233.9 1485.6 229.4 1490.5C235.7 1492 247 1493.6 267.1 1494.1C307 1495.1 329.6 1486.8 322.7 1482.7V1482.6Z" fill="url(#paint4_linear_2394_71809)"/>
<path d="M676 1490.5C671.4 1485.6 663.3 1479.4 654.1 1473.1C636 1467.4 610.9 1466.1 583.1 1482.6C576.2 1486.7 598.9 1495 638.7 1494C658.3 1493.5 669.6 1491.9 675.9 1490.5H676Z" fill="url(#paint5_linear_2394_71809)"/>
<path d="M312.501 902.699C312.501 902.699 302.701 1132.7 307.601 1137.6C312.401 1142.5 339.001 1163.2 345.701 1162.6C356.501 1161.5 408.701 1131.6 411.401 1124.1C414.101 1116.6 425.101 905.799 421.001 905.999C417.001 906.099 312.501 902.799 312.501 902.799V902.699Z" fill="url(#paint6_linear_2394_71809)"/>
<path d="M677.401 682.1C673.801 647.3 670.701 622.3 670.701 622.3C670.701 622.3 668.601 561.3 659.801 517.6C659.801 517.6 569.201 538.7 569.301 540.4C570.701 553.4 580.601 625.7 589.801 692.6C616.601 685 639.901 679.6 677.301 682.2L677.401 682.1Z" fill="#CADBEF"/>
<path d="M523 381.799C518.3 391.899 504.4 420.999 498.2 424.499C492.3 427.799 469.5 409.799 460.2 402.099C457.4 403.099 455.7 403.499 455.7 403.499C454.3 402.999 452.9 402.399 451.5 401.899C441.9 408.199 420.5 421.499 412.3 420.999C403.1 420.399 391.7 391.899 387.8 383.399C386.2 383.499 383.6 383.699 382 383.799C386 393.699 399.1 427.299 406.2 431.899C414.6 437.399 455.3 407.299 455.3 407.299C455.3 407.299 489.4 437.599 499.4 436.299C508 435.199 523.3 394.299 527.5 382.599C525.9 382.299 524.4 381.999 523 381.699V381.799Z" fill="url(#paint7_linear_2394_71809)"/>
<path d="M674.8 607.7C675.6 608.9 681.1 681 678.3 683.5C677.9 683.8 672.5 684.8 672.5 684.8C654.1 681.6 611 689 599.7 693.4C597.9 694.1 596.6 693 596.4 692.5C594.6 688.3 590 618.2 589.8 613C589.5 607.8 672.3 604.1 674.8 607.7Z" fill="#CADBEF"/>
<path d="M672.401 684.7C672.401 684.7 677.801 683.8 678.201 683.4C679.401 682.3 679.101 668.7 678.201 653.2C677.001 659 674.601 670.2 674.301 671.1C673.901 672.3 654.401 673.6 651.101 673.6C647.801 673.6 601.501 679 601.001 678.6C600.501 678.2 594.001 615.2 594.001 615.2C610.001 608.6 652.501 606.8 669.801 606.4C669.601 603 669.401 599.1 669.101 595C631.201 590.9 589.601 603.6 589.601 603.6L580.001 486H572.501C572.501 486 586.001 751.8 581.201 753.9C576.401 756 462.301 762.8 459.001 762.8C455.701 762.8 330.101 751.3 326.901 743.3C323.701 735.3 343.001 486 343.001 486H336.301L329.801 531.8L295.301 577L281.301 549.6L279.001 558.7L289.201 586.4C289.201 586.4 231.801 637.5 221.301 638C213.301 638.4 195.801 599.6 186.901 580.4C184.801 585.4 183.001 590 181.801 594C183.401 601.5 198.701 654.8 220.401 656.7C229.201 657.5 281.201 628.3 287.801 620.3C294.201 612.5 319.401 559.7 319.401 559.7C314.801 627.2 303.101 724.8 306.601 759.8C307.301 766.5 316.401 774.5 317.501 776.7C317.501 776.7 390.001 783.7 457.001 783.7C526.701 783.7 595.701 779 595.701 779C595.701 776 606.801 767.6 607.201 761.7C608.401 745.5 608.901 720.3 609.001 690.8C626.301 686.7 657.301 682.4 672.201 685L672.401 684.7Z" fill="url(#paint8_linear_2394_71809)"/>
<path d="M630.2 946.6C629.9 946.6 611.9 941.3 606.5 944.2C601.1 947.1 592.1 964.2 593.8 966.9C595.6 969.7 601.9 969.9 602.2 970C602.5 970 627.7 964.6 627.7 964.6L630.1 946.5L630.2 946.6Z" fill="url(#paint9_linear_2394_71809)"/>
<path d="M601.099 690.7C601.099 728.3 618.899 824.5 614.599 841.4C610.299 858.2 594.9 869.3 592.9 881.5C590.9 893.7 587.399 948.3 583.999 956.2C580.599 964.1 597.199 967.9 602.999 960.5C608.799 953.1 615.099 925.9 618.299 922.2C621.499 918.5 627.999 930.1 627.999 930.1C627.999 930.1 625.199 958.3 624.199 958.5C623.199 958.7 597.2 963.9 591.4 969.8C585.6 975.7 591.899 983.7 593.299 983.9C594.699 984.1 621.899 982.5 627.199 980.8C632.499 979.2 640.9 975.5 640.9 975.5C640.9 975.5 650.599 973.3 653.099 971.2C655.599 969.1 679.599 933.3 680.799 923.2C681.999 913.1 670.099 854.3 670.099 851C670.099 847.7 674.5 685.2 671.9 681.6C669.3 678.1 601.099 687.4 601.099 690.5V690.7Z" fill="#FF9E78"/>
<path d="M599.199 952.8C606.499 953.7 623.499 955.8 628.999 956L629.399 953.2C623.699 952.3 607.199 949.9 601.399 949.5C600.599 950.5 599.899 951.7 599.199 952.9V952.8Z" fill="#D37762"/>
<path d="M678.4 900.101C678 906.301 678.4 911.401 677.6 912.701C676.1 915.101 641.8 916.201 636.6 913.701C632 911.501 611.8 865.301 609.4 853.301C603.2 864.001 594.3 872.401 592.8 881.501C590.8 893.701 587.3 948.301 583.9 956.201C580.5 964.101 597.1 967.901 602.9 960.501C608.7 953.101 615 925.901 618.2 922.201C621.4 918.501 627.9 930.101 627.9 930.101C627.9 930.101 625.1 958.301 624.1 958.501C623.1 958.801 597.1 963.901 591.3 969.801C585.5 975.701 591.8 983.701 593.2 983.901C594.6 984.101 621.8 982.501 627.1 980.801C632.4 979.201 640.8 975.501 640.8 975.501C640.8 975.501 650.5 973.301 653 971.201C655.5 969.101 679.5 933.301 680.7 923.201C681.1 919.801 680 910.601 678.3 900.001L678.4 900.101Z" fill="url(#paint10_linear_2394_71809)"/>
<path d="M622.4 908.001C622 908.101 619.7 916.901 618.5 922.001C619.8 920.901 621.4 921.801 623 923.401C624.3 918.001 626.1 909.101 626 908.801C625.8 908.401 623 907.801 622.5 908.001H622.4Z" fill="#E4856B"/>
<path d="M640.9 975.6C640.9 975.6 643.8 974.9 646.8 974C651.7 965.1 664.7 938.5 664.5 938C664.3 937.4 662.1 936.4 661.1 936.4C660.1 936.4 643.2 968.9 639.4 976.3C640.3 975.9 640.9 975.7 640.9 975.7V975.6Z" fill="#E4856B"/>
<path d="M665 690.799C669.2 695.799 671.8 776.199 671.8 776.299C672.7 731.799 673.3 683.699 671.9 681.799C669.3 678.299 600.9 687.599 600.9 690.699C600.9 726.499 616.7 815.599 614.7 838.499C616.7 837.599 614.7 703.699 615 699.099C615.5 689.599 663.2 688.699 665 690.899V690.799Z" fill="url(#paint11_linear_2394_71809)"/>
<path d="M460.101 783.5L458.001 404.1H452.701C452.701 404.1 455.801 716.1 453.801 783.5H460.001H460.101Z" fill="url(#paint12_linear_2394_71809)"/>
<path d="M475.201 798.699C475.201 798.699 423.201 798.199 423.201 799.199C423.201 799.199 422.701 826.199 423.201 826.599C423.701 827.099 475.501 826.999 475.501 826.999C475.501 826.999 475.501 831.399 474.601 831.999C471.401 833.899 417.801 833.399 416.301 831.999C414.801 830.599 415.801 795.499 416.901 793.499C418.001 791.599 472.901 792.199 474.001 792.999C475.001 793.799 475.101 798.699 475.101 798.699H475.201Z" fill="url(#paint13_linear_2394_71809)"/>
<path d="M418.3 808.5C418.3 808.5 417.6 814.7 418.1 815.1C418.5 815.5 431.1 815.1 431.4 814.9C431.7 814.7 431.9 809.6 431.5 808.7C431.3 808.1 418.8 808 418.3 808.5Z" fill="url(#paint14_linear_2394_71809)"/>
<path d="M676.2 620.999C675.6 613.299 675 607.999 674.8 607.699C674.3 606.999 669.4 606.499 664.4 606.299C627.8 606.899 595.5 612.799 593.6 615.199C593.6 615.199 595.4 626.099 595.4 626.699C595.4 627.199 661.6 622.999 676.2 620.999Z" fill="url(#paint15_linear_2394_71809)"/>
<path d="M346.9 289.501C344.5 287.901 341.7 289.4 341.7 289.4C341.8 287.701 329.7 269.301 312.9 269.201C296.1 269.101 282.1 283.501 282.1 283.501C282.1 283.501 276.5 276.901 277.8 264.701C279.1 252.501 289.2 229.801 289.2 220.101C289.2 210.401 281.7 204.901 277.7 208.301C273.2 212.101 264.5 242.901 264.5 242.901C264.5 242.901 267 220.201 264.5 213.501C262 206.801 253.2 205.001 251 207.701C248.8 210.401 248.1 221.701 248.1 221.701C248.1 221.701 243.5 216.401 237.3 220.801C233.5 223.501 225.3 284.401 225.3 294.701C225.3 305.001 227.7 371.8 227.7 371.8C227.7 371.8 225.2 387.301 225.3 388.001C225.4 388.701 288.6 401.201 288.7 400.4C289.8 395.6 294.4 379.3 294.4 379.3C294.4 379.3 302.2 376.601 315.7 366.501C329.2 356.4 352.6 327.9 354 322.9C355.4 317.9 349.2 291.101 346.8 289.501H346.9ZM330.8 314.9C330.8 314.9 320.6 325.801 315 327.501C309.5 329.201 291.2 318.001 291.1 317.601C290.5 312.901 295.7 302.701 302.4 297.701C309 292.601 320.3 291.3 320.3 291.3C324.7 296.1 334.8 295.701 334.8 295.701C332.2 298.301 330.7 314.9 330.7 314.9H330.8Z" fill="#FF9E78"/>
<path d="M313.701 327.7C307.001 327.7 291.301 318 291.301 317.6C290.701 312.9 295.901 302.7 302.601 297.7C303.601 296.9 304.801 296.2 305.901 295.6C304.501 290.5 303.401 287.3 303.001 287.3C301.201 287.3 291.301 289.7 291.301 289.7L284.801 281.2C283.201 282.6 282.201 283.5 282.201 283.5C282.201 283.5 280.701 281.8 279.501 278.4L248.801 283.8C248.801 283.8 258.701 323.2 260.201 334.9C261.701 346.6 259.501 367.1 261.201 368.4C262.901 369.7 282.301 372.9 296.301 367.1C310.301 361.3 318.101 351.7 318.101 348.9C318.101 346.1 316.201 338.6 313.701 327.6V327.7Z" fill="url(#paint16_linear_2394_71809)"/>
<path d="M247.2 222.4C251.1 227.7 247.2 247.7 247.2 247.7C247.2 247.7 245.3 274.8 248.5 282.9L251.4 282C251.4 282 249.2 272.6 249.5 261.4C249.8 250.2 252.9 229.3 252.5 226.2C252.2 223.7 250.9 220.3 248.3 218.4C248.1 220.3 248 221.7 248 221.7C248 221.7 243.4 216.4 237.2 220.8C236.9 221 236.7 221.4 236.4 222.1C237.9 221.1 243.7 217.7 247.1 222.3L247.2 222.4Z" fill="url(#paint17_linear_2394_71809)"/>
<path d="M262.2 277.899L265.4 276.699C265.4 276.699 263.9 267.399 265 254.599C266.1 241.799 268.8 228.799 268.8 228.799C266.3 236.299 264.5 242.899 264.5 242.899C264.5 242.899 265.2 236.899 265.5 230.199C265.5 230.199 258.6 264.399 262.3 277.999L262.2 277.899Z" fill="url(#paint18_linear_2394_71809)"/>
<path d="M285.101 280.7C283.501 282.1 282.501 283.1 282.201 283.3C283.901 285.6 286.801 289.3 287.001 289C287.301 288.6 288.901 286.4 288.901 286.4C288.901 286.4 286.601 282.7 285.101 280.6V280.7Z" fill="url(#paint19_linear_2394_71809)"/>
<path d="M346.901 289.5C344.501 287.9 341.701 289.4 341.701 289.4C341.701 289.1 341.401 288.4 340.801 287.3C340.801 288.1 340.701 289.1 340.101 289.9C339.001 291.6 333.001 293 328.701 291.9C324.401 290.7 321.701 286.8 321.701 286.8C321.701 286.8 313.001 284.8 301.301 290.4C289.601 296 286.601 314.4 286.601 314.4C284.001 313.8 278.501 314.3 274.001 314.8C274.001 316.6 273.901 318.3 273.801 320.1C280.001 319.9 288.901 319.1 288.901 319.1C288.901 319.1 311.001 330.8 315.801 330.2C320.601 329.6 331.801 318.1 331.801 318.1C331.801 318.1 335.601 322.2 336.001 322.3C336.501 322.3 338.001 320.8 338.201 320.1C338.401 319.4 333.901 316 333.901 316C333.901 316 335.201 298.3 339.101 294.6C343.001 290.9 348.301 292 348.301 292C347.801 290.6 347.301 289.7 346.901 289.4V289.5ZM330.801 314.9C330.801 314.9 320.601 325.8 315.001 327.5C309.501 329.2 291.201 318 291.101 317.6C290.501 312.9 295.701 302.7 302.401 297.7C309.001 292.6 320.301 291.3 320.301 291.3C324.701 296.1 334.801 295.7 334.801 295.7C332.201 298.3 330.701 314.9 330.701 314.9H330.801Z" fill="url(#paint20_linear_2394_71809)"/>
<path d="M227.401 376.199C227.401 376.199 215.601 444.599 211.001 458.999C206.401 473.399 186.401 555.399 186.601 576.799C186.801 598.299 204.401 644.199 215.001 645.599C225.501 646.999 274.601 604.399 280.401 588.199C286.201 572.099 274.301 477.999 276.801 458.599C279.301 439.199 293.601 379.499 293.601 379.499L227.401 376.199Z" fill="#FF9E78"/>
<path d="M354.101 322.899C354.801 320.299 353.501 311.899 351.801 304.199C351.901 304.799 353.401 321.599 352.801 322.999C352.301 324.399 320.901 359.399 315.901 362.499C310.801 365.699 292.301 374.699 291.201 374.699C290.101 374.699 270.001 376.099 270.001 376.099C270.001 376.099 257.501 448.599 256.501 462.899C255.401 477.099 265.401 570.499 257.901 586.899C250.401 603.299 226.201 628.899 219.401 626.399C212.601 623.899 192.701 578.999 192.001 574.399C191.501 571.399 191.701 553.199 191.801 540.499C188.801 556.099 186.701 569.699 186.701 576.799C186.901 598.299 204.501 644.199 215.101 645.599C225.601 646.999 274.701 604.399 280.501 588.199C286.301 572.099 274.401 477.999 276.901 458.599C278.501 446.699 284.501 419.599 288.801 400.499C289.901 395.699 294.501 379.399 294.501 379.399C294.501 379.399 302.301 376.699 315.801 366.599C329.301 356.499 352.701 327.999 354.101 322.999V322.899Z" fill="url(#paint21_linear_2394_71809)"/>
<path d="M225.401 294.7C225.401 303.7 227.301 356.3 227.701 369C235.701 376.5 256.601 373.4 261.201 367.7C266.301 361.2 255.701 305.2 252.001 296.7C248.301 288.2 246.701 266.6 246.701 266.6L247.301 247.1C247.301 247.1 251.501 226.6 246.601 221.6C243.201 218.1 238.801 220.3 236.501 221.8C232.501 230.7 225.301 284.9 225.301 294.5L225.401 294.7Z" fill="url(#paint22_linear_2394_71809)"/>
<path d="M251.701 223.001C253.501 227.301 249.701 256.5 249.801 264.401C249.901 272.3 251.101 280.701 251.101 280.701L261.801 276.4C261.801 276.4 260.901 262.401 261.801 254.501C262.301 249.901 263.901 240.201 265.201 232.401C265.601 225.501 265.701 217.101 264.401 213.501C261.901 206.801 253.101 205.001 250.901 207.701C249.401 209.501 248.601 215.001 248.301 218.601C249.201 219.001 250.701 220.601 251.701 223.001Z" fill="url(#paint23_linear_2394_71809)"/>
<path d="M265.001 259.699C264.301 274.599 265.501 276.699 265.501 276.699L277.9 272.099C277.6 269.899 277.6 267.499 277.9 264.699C279.2 252.499 289.3 229.799 289.3 220.099C289.3 210.399 281.8 204.899 277.8 208.299C275.7 210.099 272.701 217.799 270.001 225.499C270.001 225.699 265.801 244.799 265.101 259.699H265.001Z" fill="url(#paint24_linear_2394_71809)"/>
<path d="M339.301 285.099C335.001 279.099 325.201 269.299 312.901 269.199C300.401 269.199 289.501 277.099 284.701 281.099C286.201 283.399 289.301 287.899 291.201 288.399C293.801 289.099 301.501 283.299 311.101 282.799C320.701 282.299 323.201 285.699 323.201 285.699C323.201 285.699 332.701 294.099 337.101 289.499C338.701 287.899 339.201 286.299 339.301 284.999V285.099Z" fill="url(#paint25_linear_2394_71809)"/>
<path d="M288.9 319.1C288.9 319.1 275.5 318.8 273.8 320.1C272.1 321.4 266 366.3 274.7 369.4C283.4 372.5 313.2 358.9 316.6 356.1C320 353.4 343 331.1 343.2 328.9C343.4 326.7 333.6 317.7 332.1 318.4C330.6 319.1 315.8 331.2 315.8 331.2C315.8 331.2 297.7 324.4 288.8 319.1H288.9Z" fill="url(#paint26_linear_2394_71809)"/>
<path d="M264.301 381.799C263.901 381.299 234.401 377.599 227.301 376.699C226.201 382.899 215.401 445.299 211.001 458.999C207.901 468.599 197.901 508.499 191.801 540.299C191.801 548.699 192.201 563.299 193.301 572.999C195.001 587.299 211.201 616.199 218.601 616.899C226.001 617.599 248.001 593.899 252.801 583.199C257.701 572.499 251.801 482.799 251.301 469.999C250.801 457.199 264.801 382.399 264.301 381.799Z" fill="url(#paint27_linear_2394_71809)"/>
<path d="M358.201 238.1C348.001 241 342.9 255.5 346.8 270.4C350.7 285.4 362.001 295.1 372.201 292.2C382.401 289.3 387.501 274.8 383.601 259.9C379.701 244.9 368.401 235.2 358.201 238.1Z" fill="url(#paint28_linear_2394_71809)"/>
<path d="M528.8 155.099C524.6 120.099 427.1 99.5989 396.2 146.299C386.1 168.099 374 209.099 367.3 249.999C367.3 249.599 367.3 249.299 367.3 249.299C367.3 249.299 335.3 355.199 432.4 364.599C525.8 373.699 542.9 328.099 541.4 264.099C543 228.199 535 182.299 528.8 155.199V155.099Z" fill="url(#paint29_linear_2394_71809)"/>
<g opacity="0.4">
<path d="M527.7 289.113C533.153 267.876 522.525 246.797 503.963 242.031C485.401 237.265 465.933 250.617 460.48 271.854C455.028 293.091 465.655 314.17 484.217 318.936C502.779 323.702 522.247 310.35 527.7 289.113Z" fill="#FF9E78"/>
<path d="M527.41 289.038C532.821 267.961 522.29 247.045 503.889 242.32C485.487 237.596 466.183 250.851 460.771 271.928C455.36 293.004 465.89 313.92 484.292 318.645C502.694 323.37 521.998 310.114 527.41 289.038Z" fill="#FF9D77"/>
<path d="M527.217 288.987C532.601 268.018 522.134 247.211 503.84 242.514C485.545 237.816 466.349 251.007 460.965 271.977C455.581 292.946 466.048 313.753 484.342 318.451C502.637 323.148 521.833 309.957 527.217 288.987Z" fill="#FF9C77"/>
<path d="M527.022 288.938C532.365 268.129 521.952 247.475 503.764 242.805C485.577 238.135 466.501 251.218 461.158 272.027C455.816 292.836 466.228 313.491 484.416 318.161C502.604 322.83 521.679 309.747 527.022 288.938Z" fill="#FF9B76"/>
<path d="M526.829 288.888C532.144 268.186 521.796 247.64 503.715 242.998C485.634 238.356 466.668 251.374 461.353 272.076C456.037 292.778 466.386 313.324 484.467 317.966C502.547 322.609 521.514 309.59 526.829 288.888Z" fill="#FF9A76"/>
<path d="M526.635 288.839C531.909 268.297 521.614 247.904 503.64 243.289C485.666 238.674 466.82 251.585 461.546 272.127C456.272 292.668 466.567 313.061 484.54 317.676C502.514 322.291 521.36 309.38 526.635 288.839Z" fill="#FF9975"/>
<path d="M526.344 288.763C531.577 268.382 521.379 248.153 503.565 243.579C485.752 239.005 467.069 251.82 461.836 272.2C456.603 292.581 466.802 312.811 484.615 317.385C502.428 321.959 521.111 309.144 526.344 288.763Z" fill="#FF9875"/>
<path d="M526.151 288.715C531.357 268.441 521.223 248.32 503.516 243.774C485.81 239.228 467.236 251.978 462.031 272.252C456.825 292.526 466.959 312.646 484.666 317.193C502.372 321.739 520.946 308.989 526.151 288.715Z" fill="#FF9774"/>
<path d="M525.957 288.664C531.121 268.55 521.04 248.582 503.441 244.063C485.842 239.544 467.388 252.187 462.224 272.3C457.06 292.414 467.14 312.382 484.739 316.901C502.339 321.419 520.792 308.777 525.957 288.664Z" fill="#FF9674"/>
<path d="M525.764 288.615C530.9 268.609 520.884 248.75 503.392 244.258C485.9 239.767 467.555 252.345 462.418 272.351C457.281 292.358 467.298 312.217 484.79 316.708C502.282 321.2 520.627 308.622 525.764 288.615Z" fill="#FF9573"/>
<path d="M525.473 288.54C530.569 268.694 520.649 248.998 503.317 244.548C485.985 240.098 467.804 252.579 462.709 272.425C457.613 292.271 467.533 311.967 484.865 316.417C502.196 320.867 520.377 308.386 525.473 288.54Z" fill="#FF9472"/>
<path d="M525.278 288.49C530.346 268.751 520.491 249.164 503.266 244.741C486.041 240.319 467.969 252.735 462.901 272.474C457.833 292.213 467.688 311.8 484.913 316.223C502.138 320.645 520.21 308.229 525.278 288.49Z" fill="#FF9372"/>
<path d="M525.086 288.441C530.112 268.862 520.311 249.428 503.193 245.032C486.075 240.637 468.123 252.946 463.096 272.524C458.069 292.103 467.871 311.538 484.989 315.933C502.107 320.328 520.059 308.019 525.086 288.441Z" fill="#FF9271"/>
<path d="M524.891 288.39C529.89 268.919 520.153 249.593 503.142 245.226C486.131 240.858 468.288 253.102 463.289 272.574C458.289 292.045 468.026 311.371 485.037 315.738C502.048 320.106 519.891 307.862 524.891 288.39Z" fill="#FF9171"/>
<path d="M524.698 288.341C529.656 269.03 519.972 249.857 503.068 245.517C486.165 241.177 468.442 253.313 463.484 272.624C458.525 291.935 468.209 311.108 485.113 315.448C502.017 319.789 519.74 307.652 524.698 288.341Z" fill="#FF9070"/>
<path d="M524.407 288.267C529.338 269.062 519.762 250.009 503.018 245.71C486.275 241.411 468.704 253.494 463.774 272.699C458.843 291.903 468.419 310.956 485.162 315.255C501.906 319.554 519.476 307.471 524.407 288.267Z" fill="#FF8F70"/>
<path d="M524.213 288.217C529.102 269.174 519.579 250.273 502.943 246.002C486.307 241.73 468.856 253.705 463.967 272.749C459.077 291.793 468.6 310.693 485.236 314.965C501.873 319.236 519.323 307.261 524.213 288.217Z" fill="#FF8E6F"/>
<path d="M524.02 288.166C528.868 269.283 519.399 250.535 502.87 246.291C486.34 242.047 469.01 253.914 464.162 272.797C459.313 291.68 468.783 310.429 485.312 314.673C501.841 318.917 519.172 307.049 524.02 288.166Z" fill="#FF8D6F"/>
<path d="M523.825 288.118C528.646 269.342 519.241 250.703 502.819 246.486C486.396 242.269 469.175 254.072 464.354 272.848C459.533 291.625 468.938 310.264 485.361 314.48C501.783 318.697 519.004 306.894 523.825 288.118Z" fill="#FF8C6E"/>
<path d="M523.534 288.043C528.314 269.427 519.006 250.951 502.744 246.776C486.482 242.6 469.424 254.307 464.645 272.922C459.865 291.538 469.173 310.014 485.435 314.189C501.697 318.364 518.755 306.658 523.534 288.043Z" fill="#FF8B6E"/>
<path d="M523.341 287.992C528.094 269.484 518.85 251.117 502.695 246.969C486.54 242.821 469.591 254.463 464.839 272.971C460.087 291.48 469.331 309.847 485.486 313.995C501.641 318.143 518.589 306.501 523.341 287.992Z" fill="#FF8A6D"/>
<path d="M523.147 287.943C527.858 269.595 518.668 251.38 502.62 247.26C486.572 243.14 469.743 254.673 465.032 273.022C460.321 291.37 469.511 309.584 485.559 313.705C501.607 317.825 518.436 306.291 523.147 287.943Z" fill="#FF896C"/>
<path d="M522.954 287.893C527.638 269.652 518.512 251.546 502.571 247.453C486.629 243.36 469.91 254.83 465.226 273.071C460.543 291.312 469.669 309.418 485.61 313.511C501.551 317.604 518.27 306.134 522.954 287.893Z" fill="#FF886C"/>
<path d="M522.76 287.844C527.402 269.763 518.329 251.81 502.495 247.744C486.661 243.679 470.062 255.04 465.419 273.121C460.777 291.202 469.85 309.155 485.684 313.221C501.518 317.286 518.117 305.924 522.76 287.844Z" fill="#FF876B"/>
<path d="M522.47 287.769C527.085 269.795 518.12 251.962 502.447 247.938C486.773 243.914 470.326 255.222 465.711 273.196C461.097 291.17 470.061 309.003 485.735 313.027C501.409 317.051 517.856 305.743 522.47 287.769Z" fill="#FF866B"/>
<path d="M522.276 287.72C526.85 269.907 517.938 252.226 502.372 248.229C486.805 244.232 470.478 255.433 465.904 273.246C461.331 291.059 470.242 308.74 485.809 312.737C501.375 316.734 517.702 305.533 522.276 287.72Z" fill="#FF856A"/>
<path d="M522.083 287.67C526.629 269.963 517.782 252.392 502.323 248.422C486.863 244.453 470.645 255.589 466.099 273.295C461.553 291.002 470.4 308.573 485.859 312.543C501.319 316.512 517.537 305.376 522.083 287.67Z" fill="#FF846A"/>
<path d="M521.888 287.62C526.393 270.075 517.6 252.655 502.247 248.714C486.895 244.772 470.797 255.8 466.292 273.346C461.787 290.892 470.581 308.311 485.933 312.253C501.286 316.195 517.383 305.166 521.888 287.62Z" fill="#FF8369"/>
<path d="M521.597 287.546C526.075 270.107 517.389 252.808 502.197 248.907C487.005 245.007 471.059 255.981 466.582 273.42C462.104 290.859 470.79 308.158 485.982 312.059C501.174 315.96 517.12 304.985 521.597 287.546Z" fill="#FF8269"/>
<path d="M521.405 287.497C525.841 270.218 517.209 253.072 502.124 249.198C487.038 245.325 471.213 256.192 466.777 273.471C462.341 290.749 470.973 307.896 486.058 311.769C501.143 315.642 516.969 304.775 521.405 287.497Z" fill="#FF8168"/>
<path d="M521.21 287.446C525.606 270.328 517.026 253.333 502.048 249.488C487.07 245.642 471.365 256.401 466.97 273.519C462.575 290.637 471.154 307.631 486.132 311.477C501.11 315.323 516.815 304.564 521.21 287.446Z" fill="#FF8067"/>
<path d="M521.017 287.395C525.385 270.384 516.87 253.499 501.999 249.681C487.128 245.863 471.532 256.557 467.164 273.568C462.797 290.579 471.311 307.464 486.182 311.283C501.054 315.101 516.65 304.406 521.017 287.395Z" fill="#FF7F67"/>
<path d="M520.823 287.346C525.149 270.496 516.688 253.763 501.924 249.972C487.16 246.181 471.684 256.768 467.357 273.619C463.031 290.469 471.492 307.202 486.256 310.993C501.021 314.784 516.497 304.197 520.823 287.346Z" fill="#FF7E66"/>
<path d="M520.532 287.272C524.831 270.528 516.477 253.915 501.874 250.166C487.27 246.416 471.946 256.95 467.647 273.693C463.348 290.437 471.702 307.049 486.306 310.799C500.909 314.549 516.233 304.015 520.532 287.272Z" fill="#FF7D66"/>
<path d="M520.339 287.222C524.597 270.64 516.297 254.179 501.8 250.457C487.303 246.735 472.1 257.161 467.842 273.743C463.584 290.326 471.885 306.787 486.381 310.509C500.878 314.231 516.082 303.805 520.339 287.222Z" fill="#FF7C65"/>
<path d="M520.144 287.172C524.375 270.696 516.139 254.345 501.749 250.65C487.359 246.955 472.265 257.317 468.035 273.793C463.804 290.269 472.04 306.62 486.43 310.315C500.82 314.009 515.914 303.648 520.144 287.172Z" fill="#FF7B65"/>
<path d="M519.952 287.123C524.141 270.808 515.959 254.608 501.676 250.941C487.393 247.274 472.419 257.528 468.23 273.843C464.04 290.158 472.223 306.358 486.506 310.025C500.788 313.692 515.763 303.438 519.952 287.123Z" fill="#FF7A64"/>
<path d="M519.661 287.048C523.822 270.84 515.748 254.761 501.626 251.135C487.503 247.509 472.681 257.709 468.52 273.918C464.358 290.126 472.433 306.205 486.555 309.831C500.677 313.457 515.499 303.257 519.661 287.048Z" fill="#FF7964"/>
<path d="M519.466 286.999C523.587 270.951 515.565 255.025 501.55 251.426C487.535 247.828 472.833 257.92 468.713 273.968C464.592 290.016 472.614 305.943 486.629 309.541C500.644 313.14 515.346 303.047 519.466 286.999Z" fill="#FF7863"/>
<path d="M519.273 286.949C523.366 271.008 515.409 255.19 501.501 251.619C487.593 248.048 473 258.076 468.907 274.017C464.814 289.958 472.771 305.776 486.679 309.347C500.588 312.918 515.18 302.89 519.273 286.949Z" fill="#FF7762"/>
<path d="M519.079 286.9C523.131 271.119 515.227 255.454 501.426 251.91C487.625 248.367 473.152 258.287 469.1 274.067C465.048 289.848 472.952 305.513 486.753 309.057C500.554 312.6 515.027 302.68 519.079 286.9Z" fill="#FF7762"/>
<path d="M518.886 286.849C522.897 271.229 515.047 255.716 501.352 252.2C487.658 248.684 473.306 258.496 469.295 274.116C465.284 289.736 473.135 305.249 486.829 308.765C500.523 312.281 514.876 302.469 518.886 286.849Z" fill="#FF7661"/>
<path d="M518.595 286.774C522.578 271.261 514.836 255.868 501.302 252.393C487.768 248.918 473.568 258.677 469.585 274.19C465.602 289.703 473.344 305.096 486.878 308.571C500.412 312.046 514.612 302.287 518.595 286.774Z" fill="#FF7561"/>
<path d="M518.401 286.725C522.343 271.372 514.654 256.132 501.227 252.684C487.8 249.237 473.72 258.888 469.778 274.241C465.836 289.593 473.525 304.834 486.952 308.281C500.379 311.729 514.459 302.078 518.401 286.725Z" fill="#FF7460"/>
<path d="M518.208 286.675C522.122 271.429 514.498 256.298 501.178 252.878C487.858 249.458 473.887 259.044 469.972 274.29C466.058 289.536 473.683 304.667 487.002 308.087C500.322 311.507 514.293 301.92 518.208 286.675Z" fill="#FF7360"/>
<path d="M518.013 286.626C521.887 271.54 514.315 256.561 501.102 253.169C487.89 249.776 474.039 259.255 470.165 274.34C466.292 289.425 473.863 304.404 487.076 307.797C500.289 311.189 514.14 301.711 518.013 286.626Z" fill="#FF725F"/>
<path d="M517.724 286.551C521.57 271.573 514.107 256.714 501.054 253.363C488.002 250.011 474.303 259.437 470.457 274.415C466.612 289.393 474.075 304.252 487.128 307.603C500.18 310.954 513.879 301.529 517.724 286.551Z" fill="#FF715F"/>
<path d="M517.53 286.502C521.334 271.684 513.924 256.978 500.979 253.654C488.033 250.33 474.455 259.647 470.65 274.465C466.846 289.283 474.256 303.989 487.201 307.313C500.147 310.637 513.725 301.319 517.53 286.502Z" fill="#FF705E"/>
<path d="M517.337 286.451C521.114 271.741 513.768 257.143 500.93 253.847C488.091 250.551 474.622 259.804 470.845 274.514C467.068 289.225 474.413 303.823 487.252 307.119C500.09 310.415 513.56 301.162 517.337 286.451Z" fill="#FF6F5E"/>
<path d="M517.142 286.402C520.878 271.852 513.586 257.407 500.854 254.138C488.123 250.869 474.774 260.014 471.038 274.565C467.302 289.115 474.594 303.56 487.326 306.829C500.057 310.098 513.406 300.953 517.142 286.402Z" fill="#FF6E5D"/>
<path d="M516.949 286.352C520.658 271.909 513.43 257.573 500.805 254.331C488.181 251.09 474.941 260.171 471.232 274.614C467.524 289.057 474.752 303.393 487.376 306.635C500.001 309.876 513.241 300.795 516.949 286.352Z" fill="#FF6D5C"/>
<path d="M516.659 286.277C520.326 271.994 513.195 257.821 500.731 254.621C488.267 251.421 475.19 260.405 471.523 274.688C467.856 288.97 474.987 303.143 487.451 306.343C499.915 309.543 512.992 300.559 516.659 286.277Z" fill="#FF6C5C"/>
<path d="M516.464 286.227C520.09 272.105 513.012 258.085 500.655 254.912C488.299 251.739 475.342 260.616 471.716 274.738C468.09 288.86 475.168 302.881 487.525 306.053C499.882 309.226 512.838 300.35 516.464 286.227Z" fill="#FF6B5B"/>
<path d="M516.271 286.177C519.87 272.162 512.856 258.251 500.606 255.105C488.356 251.96 475.509 260.772 471.91 274.787C468.312 288.802 475.325 302.714 487.575 305.859C499.825 309.004 512.673 300.192 516.271 286.177Z" fill="#FF6A5B"/>
<path d="M516.077 286.128C519.634 272.273 512.674 258.514 500.531 255.396C488.388 252.279 475.66 260.983 472.103 274.838C468.546 288.692 475.506 302.451 487.649 305.569C499.792 308.687 512.52 299.983 516.077 286.128Z" fill="#FF695A"/>
<path d="M515.786 286.053C519.316 272.306 512.463 258.667 500.481 255.59C488.498 252.514 475.923 261.164 472.393 274.912C468.863 288.66 475.716 302.299 487.698 305.375C499.681 308.452 512.256 299.801 515.786 286.053Z" fill="#FF685A"/>
<path d="M515.593 286.004C519.082 272.417 512.283 258.93 500.407 255.881C488.532 252.832 476.077 261.375 472.588 274.962C469.1 288.55 475.899 302.036 487.774 305.085C499.65 308.134 512.105 299.592 515.593 286.004Z" fill="#FF6759"/>
<path d="M515.398 285.954C518.859 272.474 512.125 259.096 500.356 256.074C488.588 253.053 476.242 261.531 472.781 275.012C469.319 288.492 476.054 301.869 487.823 304.891C499.591 307.913 511.937 299.434 515.398 285.954Z" fill="#FF6659"/>
<path d="M515.206 285.905C518.626 272.585 511.945 259.36 500.283 256.366C488.622 253.372 476.396 261.742 472.976 275.062C469.556 288.382 476.237 301.607 487.898 304.601C499.56 307.595 511.786 299.225 515.206 285.905Z" fill="#FF6558"/>
<path d="M515.011 285.855C518.403 272.642 511.787 259.526 500.232 256.559C488.678 253.592 476.561 261.898 473.168 275.111C469.776 288.324 476.392 301.44 487.947 304.407C499.501 307.374 511.618 299.067 515.011 285.855Z" fill="#FF6457"/>
<path d="M514.72 285.779C518.072 272.727 511.552 259.774 500.157 256.849C488.763 253.923 476.81 262.133 473.459 275.185C470.107 288.237 476.627 301.19 488.021 304.115C499.416 307.041 511.369 298.831 514.72 285.779Z" fill="#FF6357"/>
<path d="M514.527 285.731C517.851 272.785 511.396 259.942 500.108 257.044C488.821 254.146 476.977 262.291 473.653 275.236C470.329 288.181 476.785 301.025 488.072 303.923C499.359 306.821 511.203 298.676 514.527 285.731Z" fill="#FF6256"/>
<path d="M514.333 285.68C517.615 272.895 511.213 260.204 500.033 257.333C488.853 254.462 477.129 262.5 473.846 275.284C470.563 288.069 476.966 300.761 488.146 303.631C499.326 306.502 511.05 298.465 514.333 285.68Z" fill="#FF6156"/>
<path d="M514.14 285.631C517.395 272.953 511.057 260.371 499.984 257.528C488.911 254.685 477.296 262.658 474.04 275.336C470.785 288.014 477.123 300.596 488.196 303.439C499.269 306.282 510.885 298.309 514.14 285.631Z" fill="#FF6055"/>
<path d="M513.849 285.556C517.063 273.038 510.822 260.62 499.909 257.818C488.997 255.016 477.545 262.892 474.331 275.409C471.117 287.927 477.358 300.346 488.271 303.147C499.183 305.949 510.635 298.073 513.849 285.556Z" fill="#FF5F55"/>
<path d="M513.655 285.507C516.828 273.15 510.64 260.883 499.834 258.109C489.028 255.335 477.697 263.103 474.524 275.46C471.351 287.817 477.539 300.083 488.345 302.858C499.15 305.632 510.482 297.864 513.655 285.507Z" fill="#FF5E54"/>
<path d="M513.462 285.456C516.607 273.206 510.484 261.049 499.785 258.302C489.086 255.555 477.864 263.259 474.718 275.509C471.573 287.759 477.696 299.916 488.395 302.663C499.094 305.41 510.317 297.706 513.462 285.456Z" fill="#FF5D54"/>
<path d="M513.267 285.407C516.371 273.318 510.301 261.313 499.71 258.593C489.118 255.874 478.015 263.47 474.911 275.559C471.807 287.649 477.877 299.654 488.469 302.373C499.061 305.093 510.163 297.497 513.267 285.407Z" fill="#FF5C53"/>
<path d="M513.074 285.357C516.151 273.375 510.145 261.479 499.661 258.786C489.176 256.094 478.182 263.626 475.106 275.608C472.029 287.591 478.035 299.487 488.519 302.179C499.004 304.871 509.998 297.34 513.074 285.357Z" fill="#FF5B53"/>
<path d="M512.784 285.282C515.819 273.46 509.91 261.727 499.586 259.076C489.262 256.425 478.432 263.86 475.396 275.682C472.361 287.504 478.27 299.237 488.594 301.888C498.918 304.538 509.748 297.104 512.784 285.282Z" fill="#FF5A52"/>
<path d="M512.591 285.233C515.599 273.518 509.754 261.895 499.537 259.271C489.32 256.648 478.599 264.018 475.591 275.733C472.583 287.448 478.427 299.072 488.644 301.695C498.862 304.319 509.583 296.948 512.591 285.233Z" fill="#FF5951"/>
<path d="M512.396 285.182C515.363 273.628 509.572 262.156 499.462 259.561C489.351 256.965 478.751 264.227 475.784 275.782C472.817 287.336 478.608 298.807 488.718 301.403C498.829 303.999 509.43 296.737 512.396 285.182Z" fill="#FF5851"/>
<path d="M512.203 285.134C515.142 273.686 509.416 262.324 499.413 259.756C489.409 257.187 478.917 264.385 475.978 275.833C473.039 287.28 478.766 298.643 488.769 301.211C498.772 303.779 509.264 296.581 512.203 285.134Z" fill="#FF5750"/>
<path d="M511.913 285.058C514.811 273.771 509.181 262.573 499.338 260.045C489.495 257.518 479.167 264.62 476.269 275.907C473.371 287.194 479.001 298.392 488.843 300.92C498.686 303.447 509.015 296.346 511.913 285.058Z" fill="#FF5650"/>
<path d="M511.718 285.008C514.588 273.828 509.023 262.738 499.287 260.239C489.551 257.739 479.332 264.776 476.461 275.956C473.591 287.136 479.156 298.226 488.892 300.725C498.628 303.225 508.847 296.188 511.718 285.008Z" fill="#FF554F"/>
<path d="M511.525 284.959C514.355 273.939 508.843 263.002 499.214 260.53C489.585 258.058 479.486 264.987 476.656 276.006C473.827 287.026 479.339 297.963 488.968 300.435C498.597 302.908 508.696 295.979 511.525 284.959Z" fill="#FF544F"/>
<path d="M511.331 284.91C514.119 274.051 508.66 263.266 499.138 260.821C489.617 258.376 479.637 265.197 476.849 276.056C474.061 286.916 479.52 297.701 489.042 300.145C498.563 302.59 508.543 295.769 511.331 284.91Z" fill="#FF534E"/>
<path d="M511.138 284.86C513.898 274.107 508.504 263.431 499.089 261.014C489.674 258.597 479.804 265.354 477.044 276.106C474.283 286.858 479.677 297.534 489.092 299.951C498.507 302.368 508.377 295.612 511.138 284.86Z" fill="#FF524E"/>
<path d="M510.847 284.784C513.567 274.192 508.269 263.68 499.015 261.304C489.76 258.928 480.054 265.588 477.334 276.179C474.615 286.771 479.912 297.284 489.167 299.66C498.421 302.036 508.128 295.376 510.847 284.784Z" fill="#FF514D"/>
</g>
<path d="M570.951 279.563C576.113 264.986 572.237 250.314 562.293 246.793C552.35 243.272 540.104 252.234 534.942 266.811C529.78 281.388 533.657 296.06 543.6 299.581C553.544 303.102 565.789 294.14 570.951 279.563Z" fill="#FF9E78"/>
<path d="M562.3 281.8C552.4 287.6 542.2 285.1 535 278.8C534.9 282.6 534.5 287.4 533.4 292.9H533.6L531.6 329.9C536 320.7 538.6 310 539.9 297.9C540.8 298.6 541.7 299.1 542.8 299.5C552.6 303.5 565 295 570.4 280.6C571.8 276.9 572.6 273.1 572.9 269.5C570.9 274.4 567.5 278.8 562.3 281.8Z" fill="url(#paint30_linear_2394_71809)"/>
<path d="M545.4 273.1L554.4 274.8C554.9 260.5 565.8 256.1 565.8 256.1C548.8 249.1 545.4 273.1 545.4 273.1Z" fill="url(#paint31_linear_2394_71809)"/>
<path d="M494.8 90.4996C467.8 70.9996 431.6 68.0996 431.6 68.0996C430 70.3996 429.2 74.0996 429.6 76.7996C407 75.0996 389.1 76.7996 389.1 76.7996C383.1 103.7 390 120 398 129.5C400.9 133 405 138.8 417.1 144.7C417.1 144.7 430.4 156.5 451 157.8C469.4 158.9 495.6 146.5 495.6 146.5C514 146.8 537.3 204.9 537.9 250.9C538 261.4 547.7 249.7 547.7 249.7C547.7 249.7 549.1 238.3 549 221.8C549 221.7 568.3 157.7 553.6 129.4" fill="url(#paint32_linear_2394_71809)"/>
<path d="M390.2 116.1C362.3 123.4 367.9 224.1 367.8 240.6C367.8 241.8 367.6 242.6 367.5 243.9C367.5 244.5 369.7 244.4 369.5 243.9C369.3 242.9 369.6 241.3 369.7 240.7C374.7 210.4 401.7 144.9 417 144.7C417 144.7 402.7 135.3 390.2 116.1Z" fill="#59352C"/>
<g opacity="0.4">
<path d="M408.768 312.192C427.245 309.956 440.035 290.053 437.335 267.738C434.634 245.422 417.466 229.145 398.989 231.381C380.512 233.617 367.722 253.52 370.423 275.835C373.123 298.15 390.291 314.428 408.768 312.192Z" fill="#FF9E78"/>
<path d="M408.744 311.992C427.112 309.77 439.823 289.967 437.136 267.761C434.449 245.555 417.381 229.356 399.013 231.579C380.646 233.802 367.934 253.605 370.621 275.81C373.309 298.016 390.377 314.215 408.744 311.992Z" fill="#FF9D77"/>
<path d="M408.708 311.694C426.911 309.492 439.506 289.838 436.838 267.797C434.171 245.756 417.252 229.674 399.049 231.877C380.846 234.08 368.252 253.733 370.919 275.774C373.587 297.815 390.505 313.897 408.708 311.694Z" fill="#FF9C77"/>
<path d="M408.672 311.396C426.766 309.207 439.287 289.697 436.64 267.821C433.992 245.944 417.179 229.985 399.085 232.174C380.992 234.364 368.47 253.873 371.118 275.75C373.765 297.626 390.579 313.586 408.672 311.396Z" fill="#FF9B76"/>
<path d="M408.648 311.199C426.632 309.023 439.075 289.613 436.441 267.846C433.807 246.079 417.093 230.198 399.109 232.374C381.126 234.55 368.682 253.96 371.316 275.727C373.95 297.494 390.664 313.375 408.648 311.199Z" fill="#FF9A76"/>
<path d="M408.612 310.901C426.486 308.738 438.857 289.472 436.242 267.87C433.628 246.267 417.019 230.508 399.145 232.671C381.271 234.834 368.9 254.1 371.515 275.703C374.129 297.305 390.738 313.064 408.612 310.901Z" fill="#FF9975"/>
<path d="M408.588 310.701C426.352 308.552 438.645 289.386 436.044 267.893C433.443 246.4 416.934 230.72 399.169 232.869C381.405 235.019 369.112 254.185 371.713 275.678C374.314 297.171 390.824 312.851 408.588 310.701Z" fill="#FF9875"/>
<path d="M408.552 310.403C426.206 308.267 438.426 289.245 435.845 267.917C433.264 246.588 416.86 231.03 399.205 233.167C381.55 235.303 369.331 254.325 371.912 275.653C374.493 296.982 390.897 312.54 408.552 310.403Z" fill="#FF9774"/>
<path d="M408.515 310.107C426.061 307.984 438.208 289.106 435.646 267.942C433.085 246.778 416.786 231.343 399.241 233.466C381.696 235.589 369.549 254.467 372.11 275.631C374.671 296.795 390.97 312.23 408.515 310.107Z" fill="#FF9674"/>
<path d="M408.492 309.908C425.872 307.805 437.897 289.032 435.349 267.978C432.801 246.924 416.646 231.561 399.265 233.664C381.885 235.768 369.86 254.54 372.408 275.595C374.956 296.649 391.111 312.011 408.492 309.908Z" fill="#FF9573"/>
<path d="M408.456 309.61C425.727 307.52 437.678 288.891 435.15 268.002C432.622 247.112 416.572 231.872 399.301 233.962C382.03 236.052 370.079 254.68 372.607 275.57C375.134 296.46 391.185 311.7 408.456 309.61Z" fill="#FF9472"/>
<path d="M408.419 309.312C425.581 307.235 437.459 288.75 434.951 268.025C432.443 247.3 416.498 232.182 399.337 234.259C382.176 236.336 370.297 254.821 372.805 275.546C375.313 296.271 391.258 311.388 408.419 309.312Z" fill="#FF9372"/>
<path d="M408.395 309.114C425.447 307.051 437.248 288.666 434.753 268.05C432.258 247.435 416.413 232.396 399.361 234.459C382.309 236.523 370.509 254.907 373.003 275.523C375.498 296.138 391.344 311.178 408.395 309.114Z" fill="#FF9271"/>
<path d="M408.359 308.816C425.301 306.766 437.029 288.525 434.554 268.074C432.079 247.623 416.339 232.706 399.397 234.757C382.455 236.807 370.727 255.048 373.202 275.499C375.677 295.95 391.417 310.866 408.359 308.816Z" fill="#FF9171"/>
<path d="M408.335 308.617C425.168 306.58 436.817 288.439 434.356 268.097C431.894 247.756 416.253 232.917 399.421 234.954C382.589 236.991 370.939 255.133 373.4 275.474C375.862 295.815 391.503 310.654 408.335 308.617Z" fill="#FF9070"/>
<path d="M408.299 308.319C424.967 306.302 436.5 288.31 434.058 268.133C431.616 247.957 416.125 233.235 399.457 235.252C382.789 237.269 371.257 255.261 373.698 275.438C376.14 295.615 391.631 310.336 408.299 308.319Z" fill="#FF8F70"/>
<path d="M408.263 308.021C424.821 306.017 436.281 288.17 433.859 268.157C431.437 248.145 416.051 233.546 399.493 235.55C382.935 237.553 371.475 255.401 373.897 275.413C376.318 295.426 391.705 310.025 408.263 308.021Z" fill="#FF8E6F"/>
<path d="M408.239 307.824C424.688 305.833 436.069 288.085 433.661 268.182C431.252 248.28 415.966 233.759 399.517 235.749C383.069 237.74 371.687 255.488 374.095 275.391C376.504 295.293 391.79 309.814 408.239 307.824Z" fill="#FF8D6F"/>
<path d="M408.203 307.525C424.542 305.548 435.851 287.944 433.462 268.206C431.073 248.468 415.892 234.07 399.553 236.047C383.214 238.024 371.905 255.628 374.294 275.366C376.682 295.104 391.864 309.503 408.203 307.525Z" fill="#FF8C6E"/>
<path d="M408.179 307.326C424.408 305.362 435.639 287.858 433.264 268.229C430.888 248.601 415.806 234.281 399.577 236.245C383.348 238.209 372.117 255.713 374.492 275.341C376.868 294.97 391.95 309.29 408.179 307.326Z" fill="#FF8B6E"/>
<path d="M408.145 307.028C424.264 305.077 435.422 287.717 433.067 268.253C430.711 248.789 415.734 234.592 399.615 236.542C383.495 238.493 372.337 255.853 374.693 275.317C377.048 294.781 392.025 308.979 408.145 307.028Z" fill="#FF8A6D"/>
<path d="M408.107 306.73C424.062 304.799 435.103 287.589 432.767 268.289C430.432 248.989 415.604 234.909 399.649 236.84C383.694 238.771 372.653 255.981 374.989 275.281C377.324 294.581 392.152 308.661 408.107 306.73Z" fill="#FF896C"/>
<path d="M408.083 306.533C423.928 304.615 434.891 287.504 432.569 268.314C430.246 249.124 415.519 235.122 399.673 237.04C383.828 238.957 372.865 256.068 375.187 275.258C377.509 294.448 392.237 308.45 408.083 306.533Z" fill="#FF886C"/>
<path d="M408.048 306.235C423.784 304.33 434.674 287.363 432.372 268.338C430.069 249.312 415.447 235.433 399.711 237.337C383.975 239.241 373.085 256.208 375.387 275.234C377.69 294.259 392.313 308.139 408.048 306.235Z" fill="#FF876B"/>
<path d="M408.024 306.035C423.651 304.144 434.462 287.277 432.173 268.361C429.884 249.445 415.361 235.644 399.735 237.535C384.109 239.426 373.297 256.293 375.586 275.209C377.875 294.125 392.398 307.926 408.024 306.035Z" fill="#FF866B"/>
<path d="M407.988 305.739C423.505 303.861 434.244 287.138 431.975 268.387C429.705 249.636 415.287 235.957 399.771 237.835C384.254 239.712 373.515 256.435 375.784 275.187C378.054 293.938 392.472 307.617 407.988 305.739Z" fill="#FF856A"/>
<path d="M407.952 305.441C423.359 303.576 434.025 286.997 431.776 268.411C429.527 249.824 415.213 236.268 399.807 238.132C384.4 239.996 373.734 256.575 375.983 275.162C378.232 293.749 392.545 307.305 407.952 305.441Z" fill="#FF846A"/>
<path d="M407.928 305.242C423.225 303.391 433.813 286.911 431.577 268.434C429.341 249.957 415.128 236.479 399.831 238.33C384.534 240.181 373.945 256.66 376.181 275.138C378.417 293.615 392.631 307.093 407.928 305.242Z" fill="#FF8369"/>
<path d="M407.892 304.944C423.025 303.113 433.496 286.783 431.28 268.47C429.064 250.157 415 236.796 399.867 238.628C384.734 240.459 374.263 256.789 376.479 275.101C378.695 293.414 392.759 306.775 407.892 304.944Z" fill="#FF8269"/>
<path d="M407.868 304.745C422.891 302.927 433.284 286.696 431.081 268.493C428.878 250.29 414.914 237.007 399.891 238.825C384.868 240.643 374.475 256.874 376.678 275.077C378.881 293.28 392.845 306.563 407.868 304.745Z" fill="#FF8168"/>
<path d="M407.832 304.448C422.745 302.644 433.065 286.557 430.882 268.519C428.699 250.48 414.84 237.32 399.927 239.125C385.013 240.93 374.693 257.016 376.876 275.054C379.059 293.093 392.918 306.253 407.832 304.448Z" fill="#FF8067"/>
<path d="M407.796 304.15C422.599 302.359 432.847 286.417 430.684 268.543C428.521 250.668 414.766 237.631 399.963 239.422C385.159 241.214 374.912 257.156 377.075 275.03C379.238 292.904 392.992 305.942 407.796 304.15Z" fill="#FF7F67"/>
<path d="M407.772 303.951C422.466 302.173 432.635 286.33 430.485 268.566C428.335 250.801 414.681 237.842 399.987 239.62C385.293 241.398 375.124 257.241 377.273 275.005C379.423 292.77 393.078 305.729 407.772 303.951Z" fill="#FF7E66"/>
<path d="M407.735 303.653C422.32 301.888 432.416 286.189 430.286 268.59C428.157 250.99 414.607 238.153 400.023 239.918C385.438 241.683 375.342 257.381 377.472 274.981C379.601 292.581 393.151 305.418 407.735 303.653Z" fill="#FF7D66"/>
<path d="M407.699 303.355C422.119 301.61 432.099 286.061 429.989 268.625C427.879 251.19 414.479 238.47 400.059 240.215C385.639 241.96 375.66 257.509 377.77 274.945C379.879 292.38 393.28 305.1 407.699 303.355Z" fill="#FF7C65"/>
<path d="M407.675 303.157C421.986 301.426 431.887 285.977 429.79 268.651C427.693 251.325 414.393 238.683 400.083 240.415C385.773 242.147 375.872 257.596 377.968 274.922C380.065 292.248 393.365 304.889 407.675 303.157Z" fill="#FF7B65"/>
<path d="M407.639 302.859C421.84 301.141 431.668 285.836 429.591 268.674C427.515 251.513 414.319 238.994 400.119 240.713C385.918 242.431 376.09 257.736 378.167 274.898C380.243 292.059 393.439 304.578 407.639 302.859Z" fill="#FF7A64"/>
<path d="M407.615 302.66C421.706 300.955 431.456 285.749 429.393 268.698C427.329 251.646 414.234 239.205 400.143 240.911C386.052 242.616 376.302 257.821 378.365 274.873C380.429 291.924 393.524 304.365 407.615 302.66Z" fill="#FF7964"/>
<path d="M407.579 302.362C421.56 300.67 431.238 285.609 429.194 268.721C427.151 251.834 414.16 239.516 400.179 241.208C386.197 242.9 376.52 257.961 378.563 274.848C380.607 291.736 393.598 304.054 407.579 302.362Z" fill="#FF7863"/>
<path d="M407.543 302.066C421.414 300.387 431.019 285.47 428.995 268.747C426.972 252.024 414.086 239.829 400.214 241.507C386.343 243.186 376.738 258.103 378.762 274.826C380.785 291.549 393.671 303.744 407.543 302.066Z" fill="#FF7762"/>
<path d="M407.519 301.867C421.226 300.208 430.708 285.396 428.698 268.783C426.688 252.17 413.946 240.047 400.239 241.706C386.532 243.364 377.05 258.176 379.06 274.79C381.07 291.403 393.812 303.525 407.519 301.867Z" fill="#FF7762"/>
<path d="M407.483 301.568C421.08 299.923 430.49 285.255 428.499 268.806C426.509 252.358 413.872 240.358 400.275 242.003C386.677 243.648 377.268 258.317 379.258 274.765C381.249 291.214 393.885 303.214 407.483 301.568Z" fill="#FF7661"/>
<path d="M407.459 301.369C420.947 299.737 430.278 285.169 428.301 268.83C426.323 252.491 413.787 240.569 400.299 242.201C386.811 243.833 377.48 258.402 379.457 274.74C381.434 291.079 393.971 303.001 407.459 301.369Z" fill="#FF7561"/>
<path d="M407.423 301.073C420.801 299.454 430.059 285.03 428.102 268.855C426.145 252.681 413.713 240.881 400.335 242.5C386.956 244.119 377.698 258.544 379.655 274.718C381.613 290.892 394.045 302.692 407.423 301.073Z" fill="#FF7460"/>
<path d="M407.386 300.775C420.655 299.169 429.841 284.889 427.903 268.879C425.966 252.869 413.639 241.192 400.37 242.798C387.102 244.403 377.916 258.684 379.854 274.694C381.791 290.704 394.118 302.38 407.386 300.775Z" fill="#FF7360"/>
<path d="M407.362 300.576C420.521 298.983 429.629 284.803 427.705 268.902C425.781 253.002 413.553 241.403 400.395 242.996C387.236 244.588 378.128 258.769 380.052 274.669C381.976 290.569 394.204 302.168 407.362 300.576Z" fill="#FF725F"/>
<path d="M407.327 300.278C420.321 298.705 429.311 284.674 427.407 268.938C425.503 253.202 413.425 241.721 400.431 243.293C387.436 244.866 378.446 258.897 380.35 274.633C382.255 290.369 394.332 301.85 407.327 300.278Z" fill="#FF715F"/>
<path d="M407.303 300.08C420.187 298.521 429.099 284.59 427.208 268.964C425.318 253.337 413.339 241.934 400.455 243.493C387.57 245.052 378.658 258.984 380.549 274.61C382.44 290.236 394.418 301.64 407.303 300.08Z" fill="#FF705E"/>
<path d="M407.266 299.782C420.041 298.236 428.881 284.449 427.01 268.987C425.139 253.526 413.266 242.245 400.491 243.791C387.716 245.337 378.876 259.124 380.747 274.586C382.618 290.047 394.491 301.328 407.266 299.782Z" fill="#FF6F5E"/>
<path d="M407.23 299.484C419.895 297.951 428.662 284.308 426.811 269.011C424.96 253.714 413.192 242.555 400.526 244.088C387.861 245.621 379.094 259.264 380.946 274.561C382.797 289.858 394.565 301.017 407.23 299.484Z" fill="#FF6E5D"/>
<path d="M407.206 299.285C419.762 297.765 428.45 284.222 426.612 269.034C424.775 253.847 413.106 242.767 400.551 244.286C387.995 245.805 379.306 259.349 381.144 274.536C382.982 289.724 394.65 300.804 407.206 299.285Z" fill="#FF6D5C"/>
<path d="M407.17 298.987C419.616 297.48 428.232 284.081 426.414 269.058C424.596 254.035 413.032 243.077 400.586 244.583C388.14 246.09 379.525 259.489 381.343 274.512C383.161 289.535 394.724 300.493 407.17 298.987Z" fill="#FF6C5C"/>
<path d="M407.134 298.69C419.47 297.197 428.013 283.942 426.215 269.083C424.417 254.225 412.959 243.39 400.622 244.883C388.286 246.376 379.743 259.631 381.541 274.49C383.339 289.348 394.797 300.183 407.134 298.69Z" fill="#FF6B5B"/>
<path d="M407.11 298.491C419.282 297.018 427.702 283.868 425.918 269.119C424.133 254.37 412.819 243.608 400.647 245.081C388.475 246.554 380.054 259.704 381.839 274.453C383.624 289.202 394.938 299.964 407.11 298.491Z" fill="#FF6A5B"/>
<path d="M407.074 298.193C419.136 296.733 427.484 283.727 425.719 269.143C423.954 254.558 412.745 243.919 400.682 245.378C388.62 246.838 380.273 259.844 382.037 274.429C383.802 289.013 395.011 299.653 407.074 298.193Z" fill="#FF695A"/>
<path d="M407.05 297.994C419.002 296.547 427.272 283.641 425.52 269.166C423.769 254.691 412.659 244.13 400.707 245.576C388.754 247.023 380.484 259.929 382.236 274.404C383.988 288.879 395.097 299.44 407.05 297.994Z" fill="#FF685A"/>
<path d="M407.014 297.698C418.856 296.265 427.053 283.502 425.322 269.192C423.59 254.882 412.585 244.443 400.742 245.876C388.899 247.309 380.703 260.071 382.434 274.382C384.166 288.692 395.171 299.131 407.014 297.698Z" fill="#FF6759"/>
<path d="M406.979 297.399C418.713 295.98 426.837 283.361 425.125 269.215C423.413 255.07 412.513 244.753 400.78 246.173C389.047 247.593 380.923 260.212 382.635 274.357C384.347 288.503 395.246 298.819 406.979 297.399Z" fill="#FF6659"/>
<path d="M406.953 297.2C418.577 295.794 426.623 283.275 424.924 269.239C423.226 255.203 412.426 244.964 400.802 246.371C389.179 247.778 381.133 260.296 382.831 274.333C384.53 288.369 395.33 298.607 406.953 297.2Z" fill="#FF6558"/>
<path d="M406.917 296.902C418.377 295.516 426.305 283.146 424.627 269.275C422.948 255.403 412.298 245.282 400.838 246.669C389.379 248.056 381.451 260.425 383.129 274.296C384.808 288.168 395.458 298.289 406.917 296.902Z" fill="#FF6457"/>
<path d="M406.893 296.703C418.243 295.33 426.093 283.06 424.428 269.298C422.763 255.536 412.212 245.493 400.863 246.867C389.513 248.24 381.663 260.51 383.328 274.272C384.993 288.034 395.544 298.077 406.893 296.703Z" fill="#FF6357"/>
<path d="M406.857 296.407C418.097 295.047 425.875 282.921 424.229 269.324C422.584 255.726 412.138 245.806 400.898 247.166C389.659 248.526 381.881 260.652 383.526 274.249C385.172 287.847 395.617 297.767 406.857 296.407Z" fill="#FF6256"/>
<path d="M406.823 296.109C417.953 294.762 425.658 282.78 424.033 269.347C422.407 255.914 412.066 246.117 400.936 247.464C389.806 248.81 382.101 260.792 383.727 274.225C385.352 287.658 395.693 297.456 406.823 296.109Z" fill="#FF6156"/>
<path d="M406.799 295.909C417.819 294.576 425.446 282.694 423.834 269.371C422.222 256.047 411.981 246.328 400.96 247.661C389.94 248.995 382.313 260.877 383.925 274.2C385.537 287.523 395.778 297.243 406.799 295.909Z" fill="#FF6055"/>
<path d="M406.763 295.611C417.674 294.291 425.228 282.553 423.635 269.394C422.043 256.236 411.907 246.639 400.996 247.959C390.085 249.279 382.531 261.017 384.124 274.176C385.716 287.335 395.852 296.932 406.763 295.611Z" fill="#FF5F55"/>
<path d="M406.737 295.414C417.483 294.114 424.915 282.481 423.336 269.432C421.757 256.383 411.765 246.859 401.019 248.159C390.272 249.459 382.841 261.092 384.42 274.141C385.999 287.19 395.991 296.715 406.737 295.414Z" fill="#FF5E54"/>
<path d="M406.703 295.116C417.34 293.829 424.698 282.34 423.139 269.456C421.58 256.571 411.693 247.169 401.056 248.456C390.42 249.744 383.061 261.232 384.62 274.117C386.179 287.002 396.066 296.403 406.703 295.116Z" fill="#FF5D54"/>
<path d="M406.667 294.818C417.194 293.544 424.48 282.199 422.94 269.479C421.401 256.759 411.619 247.48 401.092 248.754C390.565 250.028 383.279 261.372 384.818 274.093C386.358 286.813 396.139 296.092 406.667 294.818Z" fill="#FF5C53"/>
<path d="M406.643 294.619C417.06 293.358 424.268 282.113 422.742 269.503C421.216 256.892 411.534 247.691 401.116 248.952C390.699 250.212 383.491 261.457 385.017 274.068C386.543 286.678 396.225 295.879 406.643 294.619Z" fill="#FF5B53"/>
<path d="M406.606 294.322C416.914 293.075 424.049 281.974 422.543 269.528C421.037 257.082 411.46 248.004 401.152 249.251C390.844 250.499 383.709 261.599 385.215 274.045C386.722 286.491 396.299 295.57 406.606 294.322Z" fill="#FF5A52"/>
<path d="M406.57 294.024C416.768 292.79 423.831 281.833 422.344 269.552C420.858 257.27 411.386 248.315 401.188 249.549C390.99 250.783 383.927 261.739 385.414 274.021C386.9 286.303 396.372 295.258 406.57 294.024Z" fill="#FF5951"/>
<path d="M406.546 293.825C416.635 292.604 423.619 281.747 422.146 269.575C420.673 257.403 411.3 248.526 401.212 249.747C391.124 250.967 384.139 261.824 385.612 273.996C387.085 286.168 396.458 295.046 406.546 293.825Z" fill="#FF5851"/>
<path d="M406.51 293.527C416.434 292.326 423.301 281.619 421.848 269.611C420.395 257.604 411.172 248.843 401.248 250.044C391.324 251.245 384.457 261.953 385.91 273.96C387.363 285.968 396.586 294.728 406.51 293.527Z" fill="#FF5750"/>
<path d="M406.486 293.328C416.301 292.14 423.089 281.532 421.65 269.635C420.21 257.737 411.087 249.054 401.272 250.242C391.458 251.43 384.669 262.038 386.109 273.935C387.549 285.833 396.672 294.515 406.486 293.328Z" fill="#FF5650"/>
<path d="M406.45 293.032C416.155 291.857 422.871 281.393 421.451 269.66C420.031 257.927 411.013 249.367 401.308 250.542C391.604 251.716 384.887 262.18 386.307 273.913C387.727 285.646 396.745 294.206 406.45 293.032Z" fill="#FF554F"/>
<path d="M406.414 292.733C416.009 291.572 422.652 281.253 421.252 269.684C419.852 258.115 410.939 249.678 401.344 250.839C391.749 252 385.106 262.32 386.506 273.889C387.906 285.457 396.819 293.894 406.414 292.733Z" fill="#FF544F"/>
<path d="M406.39 292.534C415.875 291.386 422.44 281.166 421.054 269.707C419.667 258.248 410.853 249.889 401.368 251.037C391.883 252.185 385.318 262.405 386.704 273.864C388.091 285.323 396.904 293.682 406.39 292.534Z" fill="#FF534E"/>
<path d="M406.354 292.236C415.729 291.101 422.222 281.025 420.855 269.731C419.488 258.436 410.78 250.2 401.404 251.334C392.028 252.469 385.536 262.545 386.903 273.839C388.269 285.134 396.978 293.371 406.354 292.236Z" fill="#FF524E"/>
<path d="M406.33 292.039C415.541 290.924 421.911 280.953 420.557 269.768C419.204 258.583 410.64 250.42 401.428 251.534C392.217 252.649 385.847 262.62 387.201 273.805C388.554 284.99 397.119 293.154 406.33 292.039Z" fill="#FF514D"/>
</g>
<path d="M409.6 303.199C409.6 303.199 410.4 335.099 450.8 332.299C493.5 329.299 487.6 297.699 487.6 297.699L409.6 303.199Z" fill="url(#paint33_linear_2394_71809)"/>
<path opacity="0.1" d="M543.5 121.5C540.9 117.5 537.8 114.8 534.5 113.5C531.5 113.9 534.8 110.6 531.6 111.2C522.1 113 512.1 114 502.5 112.3C491.3 110.3 481.7 104.9 472 99.5C467.1 96.8 462.2 94 457.1 91.5C446.2 86.3 433.3 81.1 421.1 81C415 81 409 82.6 403.4 84.6C398.2 86.5 393.8 89.4 390.5 92.5C389.8 93.1 388.3 94.1 386.9 95.1C386.9 99.6 387.2 103.7 387.9 107.4C388.5 107.1 389 106.8 389.2 106.6C391.3 105.2 393.9 103.8 396.9 102.6C399.9 101.5 403.3 100.6 407 100.5C421.6 100 434.9 106.4 447.8 112.3C453.1 114.7 458.5 117.6 464.1 120.2C469.8 122.9 475.7 125.5 481.9 127.7C492.4 131.4 505.3 132.9 516.2 130.3C517.7 130 519.1 129.7 520.5 129.3C526.1 127.7 531.1 125.7 535.4 123.7C539.7 121.7 539.3 121.8 542.5 120.5C543.6 120 542.5 121.9 543.5 121.5Z" fill="#FFBC80"/>
<path d="M473.4 252.7C479.2 246.9 489.6 245.7 497.4 245.4C502 245.2 506.8 245.6 511.1 247.4C513.3 248.3 516.6 249.4 517.9 251.6C518.6 249.6 520 234.1 517.9 224.3C515.8 214.7 467.5 212.9 467.5 212.9C467.5 212.9 457.9 233.5 472.5 254C472.7 253.5 473 253 473.4 252.6V252.7Z" fill="url(#paint34_linear_2394_71809)"/>
<path d="M390.2 219.2C387.2 227.8 383.5 247.5 383.5 247.5L425.2 254.2C445.2 233.3 439.2 203.1 439.2 203.1C439.2 203.1 393.2 210.5 390.2 219.2Z" fill="url(#paint35_linear_2394_71809)"/>
<path d="M383.5 247.5C383.5 247.5 381.4 252.7 401.3 255.2C422.7 257.8 425.1 254.2 425.1 254.2C425.1 254.2 405.2 215.8 383.4 247.5H383.5Z" fill="white"/>
<path d="M415.301 304.899C415.301 304.899 415.601 310.799 419.701 314.799C428.701 323.699 471.101 321.699 478.201 312.699C482.901 306.799 482.501 302.199 482.501 302.199L415.301 304.899Z" fill="#F7F0F0"/>
<path opacity="0.2" d="M482.501 302.2L415.301 304.9C415.301 304.9 415.601 310.3 419.201 314.3C421.501 309.5 430.901 311.5 435.501 312.4C442.601 313.9 449.901 313.4 457.001 312.2C462.401 311.3 468.201 308.5 473.701 309.6C475.901 310.1 476.801 312.3 476.301 314.3C477.001 313.8 477.701 313.2 478.101 312.6C482.801 306.7 482.401 302.1 482.401 302.1L482.501 302.2Z" fill="#CCC4B8"/>
<path d="M412.2 240C407.7 238.4 402.1 243 399.6 250.1C399 251.7 398.7 253.4 398.6 254.9C399.5 255 400.4 255.2 401.3 255.3C407.5 256.1 412.1 256.3 415.6 256.2C415.6 256 415.8 255.9 415.8 255.7C418.3 248.6 416.6 241.6 412.2 240Z" fill="url(#paint36_linear_2394_71809)"/>
<path d="M405.5 232.299C387.8 231.099 383.5 247.499 383.5 247.499C383.5 247.499 390.8 238.999 402.8 238.999C418.3 238.999 425.2 254.099 425.2 254.099C425.2 254.099 428.3 233.699 405.5 232.199V232.299Z" fill="#603F37"/>
<path d="M390 219.899C407.2 208.899 429.2 223.499 436.5 215.699C439.3 212.699 439.2 203.199 439.2 203.199C394.1 197.099 390 219.899 390 219.899Z" fill="url(#paint37_linear_2394_71809)"/>
<path d="M467.3 212.499C467.3 212.499 463.5 223.899 465.8 226.599C473 235.199 506.8 214.699 517.8 225.499C517.8 225.499 520.9 201.899 467.3 212.399V212.499Z" fill="url(#paint38_linear_2394_71809)"/>
<path d="M496.4 239.8C474.6 240.4 472.5 254.1 472.5 254.1C472.5 254.1 479 250.2 496.2 249.6C513.7 249 517.8 252 517.8 252C517.8 252 517.4 239.3 496.4 239.8Z" fill="#603F37"/>
<path opacity="0.1" d="M459.601 345.3C453.101 346.8 448.001 346.9 444.701 346.6C441.501 346.3 438.901 349.1 439.501 352.2C440.201 355.5 443.301 358.7 452.901 357.7C462.301 356.7 465.001 353.3 465.301 350.2C465.601 347.1 462.601 344.6 459.501 345.3H459.601Z" fill="black"/>
<path d="M413.101 250.1C412.901 252.5 410.901 254.6 408.601 254.7C406.301 254.8 404.501 252.9 404.701 250.5C404.901 248.1 406.901 246 409.201 245.9C411.501 245.8 413.301 247.7 413.101 250.1Z" fill="#1E1D1D"/>
<path opacity="0.8" d="M404.3 246C402 247.1 400.4 249.4 400.7 251C401 252.6 403.1 253 405.3 251.9C407.6 250.8 409.2 248.5 408.9 246.9C408.6 245.3 406.5 244.9 404.3 246Z" fill="white"/>
<path d="M438.601 261.2C438.601 261.2 422.201 257.8 417.901 272.1C412.501 290.3 448.701 301.7 459.001 282.9C469.301 264 443.901 228 443.901 228C443.901 228 449.801 246.6 438.601 261.2Z" fill="#FF9E78"/>
<path d="M417.5 277.199C419.4 292.199 449.7 299.899 459 282.899C459.6 281.899 460 280.799 460.4 279.599C446 282.399 431.1 281.299 417.5 277.199Z" fill="url(#paint39_linear_2394_71809)"/>
<path opacity="0.2" d="M449.4 247.2L445.3 247C445.3 247 442.9 260.1 438.9 261.9C438.3 261.9 437.6 261.8 437 261.7C429.9 261.3 424 263.5 423.8 266.6C423.6 269.7 429.3 272.3 436.4 272.7C443.1 273.1 449 272 449.8 268.4C449.8 268.4 453.3 254.7 449.4 247.2Z" fill="white"/>
<path opacity="0.6" d="M503.801 256.099C496.801 256.299 489.801 256.399 482.801 255.999C479.801 255.799 480.001 260.199 482.801 260.499C490.001 261.499 497.201 261.699 504.401 260.499C506.901 260.099 506.301 256.099 503.801 256.099Z" fill="#ED6954"/>
<path d="M554.823 134.579C558.332 128.063 534.252 108.284 501.039 90.4006C467.827 72.5175 438.059 63.3027 434.55 69.8188C431.042 76.3349 455.121 96.1143 488.334 113.997C521.546 131.881 551.315 141.095 554.823 134.579Z" fill="#0C4266"/>
<path d="M555.099 135.701C551.599 142.201 521.799 133.001 488.699 115.101C455.499 97.2006 431.499 76.2006 434.999 69.7006C435.699 68.5006 437.299 68.1006 439.499 68.9006C441.699 69.7006 463.999 89.4006 490.999 104.001C519.999 119.701 552.499 124.401 555.199 132.801C557.899 141.201 555.599 135.001 555.199 135.801L555.099 135.701Z" fill="#092E4C"/>
<defs>
<linearGradient id="paint0_linear_2394_71809" x1="452.2" y1="1542" x2="452.2" y2="1459.9" gradientUnits="userSpaceOnUse">
<stop stop-color="white"/>
<stop offset="1" stop-color="#A5B7C6"/>
</linearGradient>
<linearGradient id="paint1_linear_2394_71809" x1="453.8" y1="369.3" x2="453.8" y2="395.5" gradientUnits="userSpaceOnUse">
<stop stop-color="#DB7D67"/>
<stop offset="1" stop-color="#FF9E78"/>
</linearGradient>
<linearGradient id="paint2_linear_2394_71809" x1="423.8" y1="397.699" x2="423.8" y2="529.399" gradientUnits="userSpaceOnUse">
<stop stop-color="#DEEFFF"/>
<stop offset="1" stop-color="#CADBEF"/>
</linearGradient>
<linearGradient id="paint3_linear_2394_71809" x1="551.4" y1="1088.7" x2="536.1" y2="914.499" gradientUnits="userSpaceOnUse">
<stop stop-color="#3D434F"/>
<stop offset="1" stop-color="#333844"/>
</linearGradient>
<linearGradient id="paint4_linear_2394_71809" x1="276.2" y1="1460.6" x2="276.7" y2="1487.7" gradientUnits="userSpaceOnUse">
<stop stop-color="#5B5B60"/>
<stop offset="1" stop-color="#2C2C2D"/>
</linearGradient>
<linearGradient id="paint5_linear_2394_71809" x1="628.5" y1="1460.6" x2="629" y2="1487.8" gradientUnits="userSpaceOnUse">
<stop stop-color="#5B5B60"/>
<stop offset="1" stop-color="#2C2C2D"/>
</linearGradient>
<linearGradient id="paint6_linear_2394_71809" x1="355.401" y1="1090.5" x2="370.801" y2="914.599" gradientUnits="userSpaceOnUse">
<stop stop-color="#3D434F"/>
<stop offset="1" stop-color="#333844"/>
</linearGradient>
<linearGradient id="paint7_linear_2394_71809" x1="454.7" y1="413.599" x2="454.7" y2="436.699" gradientUnits="userSpaceOnUse">
<stop stop-color="#B3CBE2"/>
<stop offset="1" stop-color="#CADBEF"/>
</linearGradient>
<linearGradient id="paint8_linear_2394_71809" x1="430.501" y1="566" x2="430.501" y2="788.2" gradientUnits="userSpaceOnUse">
<stop stop-color="#B3CBE2"/>
<stop offset="1" stop-color="#CADBEF"/>
</linearGradient>
<linearGradient id="paint9_linear_2394_71809" x1="608.8" y1="953.3" x2="586.8" y2="929.8" gradientUnits="userSpaceOnUse">
<stop stop-color="#DB7D67"/>
<stop offset="1" stop-color="#FF9E78"/>
</linearGradient>
<linearGradient id="paint10_linear_2394_71809" x1="622.8" y1="954.901" x2="646.7" y2="865.301" gradientUnits="userSpaceOnUse">
<stop stop-color="#F28C70"/>
<stop offset="1" stop-color="#FF9E78"/>
</linearGradient>
<linearGradient id="paint11_linear_2394_71809" x1="694.4" y1="693.899" x2="595.9" y2="774.199" gradientUnits="userSpaceOnUse">
<stop stop-color="#F28C70"/>
<stop offset="1" stop-color="#FF9E78"/>
</linearGradient>
<linearGradient id="paint12_linear_2394_71809" x1="456.401" y1="636.1" x2="456.401" y2="804.3" gradientUnits="userSpaceOnUse">
<stop stop-color="#B3CBE2"/>
<stop offset="1" stop-color="#CADBEF"/>
</linearGradient>
<linearGradient id="paint13_linear_2394_71809" x1="398.401" y1="812.699" x2="430.201" y2="812.699" gradientUnits="userSpaceOnUse">
<stop stop-color="#5F6163"/>
<stop offset="1" stop-color="#444749"/>
</linearGradient>
<linearGradient id="paint14_linear_2394_71809" x1="415.9" y1="811.8" x2="430" y2="811.8" gradientUnits="userSpaceOnUse">
<stop stop-color="#5F6163"/>
<stop offset="1" stop-color="#444749"/>
</linearGradient>
<linearGradient id="paint15_linear_2394_71809" x1="635.5" y1="611.199" x2="634.2" y2="626.299" gradientUnits="userSpaceOnUse">
<stop stop-color="#DEEFFF"/>
<stop offset="1" stop-color="#CADBEF"/>
</linearGradient>
<linearGradient id="paint16_linear_2394_71809" x1="244.701" y1="327.3" x2="279.501" y2="324.4" gradientUnits="userSpaceOnUse">
<stop stop-color="#F28C70"/>
<stop offset="1" stop-color="#FF9E78"/>
</linearGradient>
<linearGradient id="paint17_linear_2394_71809" x1="243" y1="255.6" x2="231.9" y2="294.4" gradientUnits="userSpaceOnUse">
<stop stop-color="#DB7D67"/>
<stop offset="1" stop-color="#FF9E78"/>
</linearGradient>
<linearGradient id="paint18_linear_2394_71809" x1="263.2" y1="261.399" x2="252.1" y2="300.199" gradientUnits="userSpaceOnUse">
<stop stop-color="#DB7D67"/>
<stop offset="1" stop-color="#FF9E78"/>
</linearGradient>
<linearGradient id="paint19_linear_2394_71809" x1="290.101" y1="269" x2="279.101" y2="307.9" gradientUnits="userSpaceOnUse">
<stop stop-color="#DB7D67"/>
<stop offset="1" stop-color="#FF9E78"/>
</linearGradient>
<linearGradient id="paint20_linear_2394_71809" x1="311.901" y1="307.2" x2="326.301" y2="331.4" gradientUnits="userSpaceOnUse">
<stop stop-color="#F28C70"/>
<stop offset="1" stop-color="#FF9E78"/>
</linearGradient>
<linearGradient id="paint21_linear_2394_71809" x1="296.301" y1="474.599" x2="250.301" y2="475.699" gradientUnits="userSpaceOnUse">
<stop stop-color="#F28C70"/>
<stop offset="1" stop-color="#FF9E78"/>
</linearGradient>
<linearGradient id="paint22_linear_2394_71809" x1="217.201" y1="295.5" x2="249.301" y2="297" gradientUnits="userSpaceOnUse">
<stop stop-color="#FFB9A4"/>
<stop offset="1" stop-color="#FF9E78"/>
</linearGradient>
<linearGradient id="paint23_linear_2394_71809" x1="232.601" y1="223.801" x2="256.101" y2="244.801" gradientUnits="userSpaceOnUse">
<stop stop-color="#FFB9A4"/>
<stop offset="1" stop-color="#FF9E78"/>
</linearGradient>
<linearGradient id="paint24_linear_2394_71809" x1="276.1" y1="199.099" x2="276.9" y2="239.699" gradientUnits="userSpaceOnUse">
<stop stop-color="#FFB9A4"/>
<stop offset="1" stop-color="#FF9E78"/>
</linearGradient>
<linearGradient id="paint25_linear_2394_71809" x1="313.601" y1="266.699" x2="311.801" y2="284.899" gradientUnits="userSpaceOnUse">
<stop stop-color="#FFB9A4"/>
<stop offset="1" stop-color="#FF9E78"/>
</linearGradient>
<linearGradient id="paint26_linear_2394_71809" x1="305.2" y1="293.8" x2="307" y2="349.8" gradientUnits="userSpaceOnUse">
<stop stop-color="#FFB9A4"/>
<stop offset="1" stop-color="#FF9E78"/>
</linearGradient>
<linearGradient id="paint27_linear_2394_71809" x1="159.401" y1="483.399" x2="238.501" y2="498.699" gradientUnits="userSpaceOnUse">
<stop stop-color="#FFB9A4"/>
<stop offset="1" stop-color="#FF9E78"/>
</linearGradient>
<linearGradient id="paint28_linear_2394_71809" x1="345.504" y1="264.768" x2="385.097" y2="265.529" gradientUnits="userSpaceOnUse">
<stop stop-color="#F28C70"/>
<stop offset="1" stop-color="#FF9E78"/>
</linearGradient>
<linearGradient id="paint29_linear_2394_71809" x1="454.53" y1="144.638" x2="453.939" y2="175.432" gradientUnits="userSpaceOnUse">
<stop stop-color="#C6664F"/>
<stop offset="1" stop-color="#FF9E78"/>
</linearGradient>
<linearGradient id="paint30_linear_2394_71809" x1="532.375" y1="299.262" x2="572.468" y2="300.032" gradientUnits="userSpaceOnUse">
<stop stop-color="#F28C70"/>
<stop offset="1" stop-color="#FF9E78"/>
</linearGradient>
<linearGradient id="paint31_linear_2394_71809" x1="545.646" y1="264.51" x2="565.742" y2="264.896" gradientUnits="userSpaceOnUse">
<stop stop-color="#F28C70"/>
<stop offset="1" stop-color="#FF9E78"/>
</linearGradient>
<linearGradient id="paint32_linear_2394_71809" x1="476.017" y1="78.5149" x2="471.397" y2="154.576" gradientUnits="userSpaceOnUse">
<stop stop-color="#75483B"/>
<stop offset="0.4" stop-color="#704438"/>
<stop offset="0.7" stop-color="#623C2F"/>
<stop offset="1" stop-color="#563428"/>
</linearGradient>
<linearGradient id="paint33_linear_2394_71809" x1="448.7" y1="330.299" x2="448.7" y2="322.199" gradientUnits="userSpaceOnUse">
<stop stop-color="#7C302A"/>
<stop offset="0.2" stop-color="#772E28"/>
<stop offset="0.4" stop-color="#692A26"/>
<stop offset="0.7" stop-color="#522421"/>
<stop offset="1" stop-color="#2D1A19"/>
</linearGradient>
<linearGradient id="paint34_linear_2394_71809" x1="493.032" y1="196.988" x2="490.922" y2="254.758" gradientUnits="userSpaceOnUse">
<stop stop-color="#C6664F"/>
<stop offset="1" stop-color="#FF9E78"/>
</linearGradient>
<linearGradient id="paint35_linear_2394_71809" x1="413.827" y1="175.663" x2="411.266" y2="246.527" gradientUnits="userSpaceOnUse">
<stop stop-color="#C6664F"/>
<stop offset="1" stop-color="#FF9E78"/>
</linearGradient>
<linearGradient id="paint36_linear_2394_71809" x1="405.804" y1="257.791" x2="414.585" y2="236.256" gradientUnits="userSpaceOnUse">
<stop stop-color="#704A3E"/>
<stop offset="1"/>
</linearGradient>
<linearGradient id="paint37_linear_2394_71809" x1="0.845933" y1="31.9838" x2="-6.91697" y2="55.1266" gradientUnits="userSpaceOnUse">
<stop stop-color="#75483B"/>
<stop offset="0.4" stop-color="#704438"/>
<stop offset="0.7" stop-color="#623C2F"/>
<stop offset="1" stop-color="#563428"/>
</linearGradient>
<linearGradient id="paint38_linear_2394_71809" x1="125.6" y1="296.381" x2="131.587" y2="318.496" gradientUnits="userSpaceOnUse">
<stop stop-color="#75483B"/>
<stop offset="0.4" stop-color="#704438"/>
<stop offset="0.7" stop-color="#623C2F"/>
<stop offset="1" stop-color="#563428"/>
</linearGradient>
<linearGradient id="paint39_linear_2394_71809" x1="438.747" y1="289.462" x2="439.01" y2="275.765" gradientUnits="userSpaceOnUse">
<stop stop-color="#F28C70"/>
<stop offset="1" stop-color="#FF9E78"/>
</linearGradient>
</defs>
</svg>
