<svg width="802" height="1008" viewBox="0 0 802 1008" fill="none" xmlns="http://www.w3.org/2000/svg">
<path d="M534.034 71.3608C526.034 56.9608 503.934 53.7608 503.934 53.7608C504.134 55.8608 504.834 57.9608 505.634 59.9608C468.234 38.4608 421.134 39.3608 421.134 39.3608C419.434 42.5608 418.834 47.3608 419.734 50.8608C390.334 51.5608 367.434 56.0609 367.434 56.0609C366.134 66.5609 366.234 75.6609 367.234 83.6609C367.234 83.8609 367.234 84.0608 367.234 84.2608C367.434 85.4608 367.634 86.7608 367.834 87.9608C367.834 88.0608 367.834 88.1608 367.834 88.2608C368.334 90.7608 368.934 93.1608 369.534 95.4608C370.734 99.4608 372.134 103.061 373.734 106.361C340.734 118.461 356.634 232.661 360.434 263.961C356.234 262.661 352.034 262.661 348.034 264.261C335.334 269.261 330.534 288.461 337.534 307.161C342.234 319.761 351.034 328.961 360.234 331.961C360.234 332.361 360.334 332.761 360.434 333.161C360.434 333.361 360.434 333.661 360.434 333.861C366.934 383.761 393.134 432.761 461.534 434.961C459.534 439.861 458.434 446.061 459.334 453.761L459.534 454.861C459.134 455.161 458.734 455.461 458.234 455.761C458.134 455.961 457.934 456.061 457.834 456.161C455.934 457.561 453.934 459.061 451.834 460.661C450.834 461.461 445.734 458.661 442.434 461.561C439.634 464.061 441.934 468.161 440.134 469.661C437.634 471.761 430.834 470.561 428.134 472.961C425.934 474.861 427.134 481.261 424.834 483.361C398.134 507.461 370.634 537.761 358.134 566.161C350.634 583.061 338.834 616.561 321.534 662.861C318.734 658.861 316.134 655.161 314.134 651.761C291.234 613.761 253.534 521.561 253.534 521.561C253.534 521.561 247.034 505.761 245.434 503.061C245.434 503.061 241.934 487.761 231.034 472.261C228.634 468.861 225.834 465.361 222.634 462.061C219.434 458.761 215.834 455.661 211.734 452.761C201.034 445.361 187.134 440.161 169.334 440.261C169.334 440.261 168.134 439.961 166.434 439.461C166.234 439.461 166.134 439.461 165.934 439.361C165.034 439.161 164.034 438.961 163.034 438.661C161.734 438.361 160.434 438.161 159.134 437.861C159.134 437.861 158.934 437.861 158.834 437.861C157.434 437.561 156.134 437.361 154.734 437.061C144.634 435.161 134.034 433.261 123.534 431.661C123.334 431.661 123.134 431.661 122.934 431.661C120.434 431.261 117.834 430.861 115.334 430.561C115.134 430.561 114.934 430.561 114.734 430.561C113.434 430.361 112.234 430.161 110.934 430.061C110.934 430.061 110.834 430.061 110.734 430.061C109.534 429.861 108.334 429.761 107.034 429.561C106.934 429.561 106.834 429.561 106.634 429.561C105.434 429.361 104.134 429.261 102.934 429.061C102.734 429.061 102.634 429.061 102.434 429.061C101.234 428.961 100.034 428.761 98.8342 428.661C98.8342 428.661 98.7342 428.661 98.6342 428.661C97.4342 428.561 96.2342 428.361 95.0342 428.261C94.8342 428.261 94.6342 428.261 94.4342 428.261C92.0342 427.961 89.7342 427.761 87.4342 427.461C87.2342 427.461 87.0342 427.461 86.8342 427.461C85.7342 427.361 84.5342 427.261 83.4342 427.161C83.4342 427.161 83.2342 427.161 83.1342 427.161C82.0342 427.161 81.0342 426.961 80.0342 426.861C79.8342 426.861 79.6342 426.861 79.5342 426.861C78.4342 426.861 77.3342 426.661 76.3342 426.561C76.1342 426.561 76.0342 426.561 75.8342 426.561C74.8342 426.561 73.9342 426.461 72.9342 426.361C72.8342 426.361 72.6342 426.361 72.5342 426.361C71.5342 426.361 70.5342 426.261 69.5342 426.161C69.3342 426.161 69.1342 426.161 68.9342 426.161C67.9342 426.161 66.9342 426.061 66.0342 425.961C65.0342 425.961 64.1342 425.961 63.1342 425.861C62.9342 425.861 62.7342 425.861 62.5342 425.861C61.6342 425.861 60.6342 425.861 59.7342 425.861C59.7342 425.861 59.6342 425.861 59.5342 425.861C58.7342 425.861 57.8342 425.861 57.0342 425.861C56.8342 425.861 56.6342 425.861 56.5342 425.861C55.7342 425.861 54.8342 425.861 54.0342 425.861C53.9342 425.861 53.7342 425.861 53.6342 425.861C52.9342 425.861 52.2342 425.861 51.5342 425.861C51.4342 425.861 51.2342 425.861 51.1342 425.861C50.3342 425.861 49.6342 425.861 48.9342 425.861C48.7342 425.861 48.6342 425.861 48.4342 425.861C47.7342 425.861 47.1342 425.861 46.4342 425.961C46.4342 425.961 46.3342 425.961 46.2342 425.961C45.5342 425.961 44.9342 426.061 44.2342 426.161C44.1342 426.161 43.9342 426.161 43.8342 426.161C43.2342 426.161 42.5342 426.261 42.0342 426.361C41.4342 426.361 40.9342 426.561 40.4342 426.661C40.3342 426.661 40.2342 426.661 40.0342 426.661C39.5342 426.661 39.0342 426.861 38.5342 426.961C38.5342 426.961 38.4342 426.961 38.3342 426.961C37.9342 427.061 37.5342 427.161 37.1342 427.261C37.1342 427.261 36.9342 427.261 36.8342 427.261C36.4342 427.361 36.0342 427.561 35.6342 427.661H35.4342C35.1342 427.761 34.8342 427.961 34.5342 428.061C34.5342 428.061 34.5342 428.061 34.4342 428.061C34.1342 428.261 33.8342 428.361 33.6342 428.561C33.6342 428.561 33.5342 428.561 33.4342 428.661C33.2342 428.861 32.9342 429.061 32.7342 429.261C32.4342 429.561 32.2342 429.761 32.0342 430.061C31.8342 430.261 31.7342 430.461 31.5342 430.661C31.5342 430.661 31.5342 430.761 31.4342 430.861C25.1342 439.061 32.8342 444.061 40.5342 446.261C47.6342 448.361 78.2342 452.861 86.5342 453.961C86.5342 453.961 86.6342 453.961 86.7342 453.961C86.9342 453.961 87.0342 453.961 87.2342 453.961C87.2342 453.961 87.3342 453.961 87.4342 453.961C87.5342 453.961 87.6342 453.961 87.7342 453.961C88.3342 453.961 88.6342 454.061 88.6342 454.061C88.6342 454.061 88.6342 454.061 88.5342 454.061C88.5342 454.061 88.5342 454.061 88.4342 454.061C88.4342 454.061 88.2342 454.061 88.1342 454.161C88.1342 454.161 88.0342 454.161 87.9342 454.161C87.9342 454.161 87.7342 454.161 87.6342 454.261C87.6342 454.261 87.5342 454.261 87.4342 454.261C87.2342 454.261 87.1342 454.361 86.9342 454.461C86.9342 454.461 86.7342 454.461 86.6342 454.561C86.5342 454.561 86.4342 454.661 86.2342 454.761C86.1342 454.761 86.0342 454.861 85.9342 454.961C85.7342 455.061 85.5342 455.161 85.3342 455.261C85.3342 455.261 85.1342 455.361 85.0342 455.461C84.9342 455.461 84.7342 455.661 84.6342 455.761C84.5342 455.761 84.4342 455.961 84.3342 455.961C84.1342 456.061 84.0342 456.261 83.8342 456.361C83.7342 456.461 83.6342 456.561 83.4342 456.661C83.2342 456.761 83.1342 456.961 82.9342 457.161C82.9342 457.161 82.7342 457.361 82.6342 457.461C82.5342 457.661 82.3342 457.761 82.2342 457.961C80.9342 459.561 80.0342 461.661 79.9342 464.561C79.8342 469.861 82.4342 473.061 84.6342 474.861C84.8342 474.961 84.9342 475.161 85.1342 475.261C85.1342 475.261 85.1342 475.261 85.2342 475.261C85.4342 475.361 85.5342 475.461 85.6342 475.561C85.7342 475.561 85.9342 475.761 86.0342 475.761C86.1342 475.761 86.2342 475.861 86.3342 475.961C86.3342 475.961 86.5342 475.961 86.6342 476.061C86.7342 476.061 86.8342 476.161 86.8342 476.161C85.9342 476.561 79.6342 479.461 77.9342 487.061C76.7342 492.461 80.4342 498.061 83.1342 501.361C84.1342 502.561 84.9342 503.361 85.3342 503.761L85.4342 503.861C85.4342 503.861 83.8342 504.461 81.9342 505.661C79.0342 507.661 75.4342 511.561 76.9342 517.761C77.7342 520.961 79.3342 524.161 81.5342 527.261C87.0342 534.961 96.2342 542.261 106.634 548.561C107.234 548.961 107.834 549.261 108.434 549.661C108.534 549.661 108.634 549.761 108.734 549.861C109.334 550.161 109.934 550.561 110.434 550.861C110.534 550.861 110.634 550.961 110.734 551.061C113.134 552.461 115.634 553.861 118.134 555.161C118.334 555.261 118.634 555.361 118.834 555.561C119.334 555.761 119.734 556.061 120.234 556.261C120.534 556.361 120.834 556.561 121.134 556.661C121.534 556.861 122.034 557.061 122.434 557.361C122.734 557.561 123.034 557.661 123.434 557.861C123.834 558.061 124.234 558.261 124.634 558.461C125.034 558.661 125.534 558.861 125.934 559.061C126.434 559.261 126.934 559.561 127.434 559.761C127.934 559.961 128.434 560.261 128.934 560.461C129.234 560.561 129.534 560.761 129.834 560.861C130.234 561.061 130.734 561.261 131.134 561.461C131.434 561.561 131.734 561.761 132.034 561.861C132.534 562.061 132.934 562.261 133.434 562.461C133.734 562.561 133.934 562.661 134.234 562.861C134.734 563.061 135.234 563.261 135.734 563.461C135.934 563.461 136.134 563.661 136.334 563.761C137.034 564.061 137.734 564.361 138.434 564.661C142.134 566.161 145.634 567.461 149.134 568.461C154.634 570.161 159.734 571.361 164.534 572.561C165.734 572.861 166.834 573.161 168.034 573.461C168.634 573.661 169.134 573.761 169.734 573.961C171.434 574.461 173.034 574.861 174.534 575.461C175.034 575.661 175.534 575.861 176.034 575.961C177.534 576.561 178.934 577.161 180.334 577.861C180.834 578.061 181.234 578.361 181.634 578.561C185.134 580.561 188.034 583.061 190.434 586.661C192.434 589.661 196.234 600.861 201.334 616.861C201.734 617.961 202.034 619.161 202.434 620.361C204.634 627.461 207.134 635.461 209.834 643.961C210.234 645.361 210.734 646.861 211.234 648.261C212.134 651.161 213.034 654.161 214.034 657.161C220.234 676.761 227.234 698.261 234.634 719.261C238.634 730.561 242.734 741.561 247.034 752.061C247.634 753.561 248.234 755.061 248.834 756.461C251.834 763.761 254.934 770.761 257.934 777.261C258.534 778.561 259.134 779.861 259.734 781.061C260.934 783.561 262.234 785.961 263.434 788.361C264.034 789.561 264.634 790.661 265.234 791.761C266.434 793.961 267.734 796.161 268.934 798.161C270.134 800.161 271.334 802.061 272.634 803.861C273.334 804.861 273.934 805.761 274.634 806.661C286.634 841.761 340.934 872.461 384.334 839.761C427.634 807.161 449.334 734.061 455.134 718.161C458.634 722.961 466.034 732.661 469.634 737.761C475.134 745.361 617.834 923.661 648.134 956.861L702.534 961.961L705.434 983.261C705.734 983.261 706.134 983.261 706.534 983.261C706.634 983.261 706.734 983.261 706.834 983.261C707.234 983.261 707.734 983.261 708.234 983.061C708.734 983.061 709.234 982.861 709.834 982.661C709.934 982.661 710.134 982.661 710.234 982.561C710.834 982.361 711.434 982.161 712.034 981.961C712.634 981.761 713.334 981.461 714.034 981.161C714.234 981.161 714.334 981.061 714.534 980.961C715.234 980.661 716.034 980.361 716.834 979.961C716.834 979.961 716.934 979.961 717.034 979.961C717.834 979.661 718.534 979.261 719.334 978.861C719.534 978.861 719.734 978.661 719.934 978.561C720.834 978.161 721.634 977.661 722.634 977.261C722.634 977.261 722.834 977.261 722.834 977.161C723.734 976.761 724.634 976.261 725.534 975.761C725.734 975.661 725.934 975.561 726.234 975.361C727.234 974.861 728.234 974.261 729.234 973.661C729.234 973.661 729.434 973.561 729.534 973.461C730.534 972.961 731.534 972.361 732.534 971.761C732.734 971.661 733.034 971.461 733.234 971.361C734.334 970.761 735.434 970.061 736.634 969.361C736.734 969.361 736.834 969.261 737.034 969.161C738.034 968.561 739.134 967.861 740.234 967.261C740.534 967.061 740.734 966.961 741.034 966.761C742.234 966.061 743.434 965.261 744.634 964.561C744.834 964.561 744.934 964.361 745.134 964.261C746.234 963.561 747.334 962.861 748.534 962.161C748.834 961.961 749.034 961.861 749.334 961.661C750.634 960.861 751.934 959.661 753.234 958.761C753.234 958.761 753.234 958.261 753.334 958.261C760.934 953.261 770.234 948.461 777.734 942.461V377.561C775.234 376.661 773.434 375.961 771.334 375.361C762.534 373.061 753.034 371.161 743.134 369.761C705.534 364.761 660.334 367.161 622.834 381.261C621.634 381.661 620.334 382.161 619.134 382.661C618.434 382.261 617.634 381.661 616.734 381.161V381.061C610.434 377.361 598.634 373.261 585.834 377.361C600.234 348.961 593.934 320.761 593.934 320.761C594.134 320.761 594.434 320.961 594.634 321.061C596.734 321.661 598.934 321.861 601.134 321.661C612.534 320.961 623.834 309.461 628.234 293.161C633.434 273.961 627.534 255.261 614.434 251.361C607.834 249.461 600.434 251.561 595.434 256.561V256.061H594.634C594.634 256.061 594.834 241.461 592.634 220.461C592.634 220.261 605.334 124.161 582.734 89.7608C581.834 88.4608 580.934 87.4609 580.134 86.1609C576.234 81.1609 572.134 78.6608 567.734 77.4608C563.034 77.4608 558.034 76.7608 552.834 78.2608" fill="url(#paint0_linear_2394_71820)"/>
<path d="M437.634 436.461C445.734 430.361 454.834 424.361 465.034 418.161L433.234 354.061C423.534 334.561 437.134 308.961 464.534 296.761C490.834 285.061 521.234 291.061 530.934 310.561L562.734 374.561C575.434 370.761 587.234 367.861 598.634 366.061L625.434 425.761L466.134 499.861L437.634 436.461Z" fill="url(#paint1_linear_2394_71820)"/>
<path d="M259.034 756.961C303.434 649.761 328.634 572.261 341.234 543.561C353.334 515.961 379.834 486.561 405.534 463.261C407.734 461.261 406.634 455.061 408.734 453.261C411.334 450.961 417.834 452.061 420.234 450.061C421.934 448.661 419.734 444.661 422.434 442.261C425.634 439.361 430.434 442.161 431.434 441.361C434.134 439.261 436.634 437.361 438.834 435.761L438.634 434.661C435.634 408.661 456.034 400.361 456.034 400.361C477.934 434.461 515.634 428.461 515.634 428.461C549.534 399.061 556.734 362.861 556.734 362.861C572.334 355.761 587.234 363.261 592.534 366.561C639.734 347.861 698.034 348.561 739.234 359.561C741.234 360.061 743.234 360.761 745.334 361.661V909.461C712.034 933.061 683.434 950.061 675.734 948.961L646.734 946.561C574.834 867.161 495.234 755.761 441.934 680.961C436.334 696.461 408.034 778.161 366.334 809.861C316.134 847.961 250.734 797.261 259.034 757.161V756.961Z" fill="url(#paint2_linear_2394_71820)"/>
<path d="M438.834 435.66V434.96C446.934 448.66 472.134 474.36 480.334 474.96C487.834 475.56 501.234 445.16 508.734 428.76C513.034 428.76 515.634 428.36 515.634 428.36C517.834 426.46 519.934 424.46 521.934 422.56C536.334 424.66 566.934 430.56 575.834 425.76C585.934 420.26 590.234 376.76 590.134 365.16C591.034 365.66 591.834 366.16 592.534 366.56C593.734 366.06 594.934 365.66 596.134 365.16C596.634 379.66 593.934 426.16 588.434 435.06C581.834 445.66 516.134 431.26 516.134 431.26C516.134 431.26 497.234 485.26 485.134 489.06C475.934 491.96 443.134 459.06 431.834 440.86C434.334 438.96 436.634 437.16 438.734 435.76L438.834 435.66Z" fill="url(#paint3_linear_2394_71820)"/>
<path d="M259.034 756.961C259.534 755.761 260.034 754.461 260.534 753.261C260.134 754.161 264.634 767.661 269.134 774.561C288.734 804.761 341.434 808.561 368.734 790.561C395.934 772.561 434.734 663.661 434.734 663.661L419.034 598.161C419.034 598.161 426.234 595.461 427.534 595.461C428.834 595.461 616.734 852.361 616.734 852.361C616.734 852.361 640.134 843.361 649.034 839.961C654.734 837.761 669.234 376.561 671.434 351.861C686.134 351.861 703.134 352.861 712.034 354.061C714.234 364.961 717.634 381.761 721.934 403.061V925.361C699.334 940.161 681.634 949.661 675.734 948.861L646.734 946.461C574.834 867.061 495.234 755.661 441.934 680.861C436.334 696.361 408.034 778.061 366.334 809.761C316.134 847.861 250.734 797.161 259.034 757.061V756.961Z" fill="url(#paint4_linear_2394_71820)"/>
<path d="M515.633 428.361C516.533 427.661 517.933 426.261 518.833 425.561C544.033 470.061 671.433 691.461 735.633 751.261L729.533 759.461C663.533 697.961 536.133 472.761 511.133 428.661C513.133 428.561 515.633 428.361 515.633 428.361Z" fill="url(#paint5_linear_2394_71820)"/>
<path d="M671.433 983.762H777.633L777.633 24.4617H671.433L671.433 983.762Z" fill="white"/>
<path d="M383.933 767.862C383.933 767.862 400.833 720.162 345.133 683.362C305.333 657.062 280.633 690.862 280.633 705.662C280.633 713.162 370.433 784.862 370.433 784.862C370.433 784.862 383.833 771.262 383.933 767.762V767.862Z" fill="url(#paint6_linear_2394_71820)"/>
<path d="M232.633 482.163C232.633 482.163 218.733 420.862 159.233 421.262C159.233 421.262 156.333 420.462 153.133 419.762C102.833 409.462 35.7335 401.462 27.5335 410.462C19.2335 419.362 27.1335 424.662 35.0335 426.962C42.9335 429.262 81.3335 434.762 81.3335 434.762C81.3335 434.762 73.1335 436.762 72.9335 445.262C72.7335 453.762 79.9335 456.863 79.9335 456.863C79.9335 456.863 73.0335 459.562 71.2335 467.462C69.4335 475.462 78.6335 483.962 78.6335 483.962C78.6335 483.962 68.1335 487.662 70.5335 497.462C74.9335 515.962 107.034 533.263 129.633 542.863C152.333 552.463 170.434 550.163 179.633 564.163C188.833 578.163 240.433 500.163 240.433 500.163C240.433 500.163 234.133 484.763 232.633 482.163Z" fill="#FF9E78"/>
<path d="M99.0328 431.062C99.5328 429.062 100.533 427.162 102.233 425.562C107.533 420.562 130.833 418.762 145.033 418.162C147.733 418.662 150.433 419.262 153.133 419.762C155.233 420.162 157.233 420.662 159.233 421.262C158.233 421.262 109.733 422.362 104.733 427.762C99.7328 433.262 102.733 441.162 111.233 445.862C119.733 450.562 138.133 446.062 144.133 445.862C150.133 445.662 166.733 455.062 166.733 455.062L167.333 459.962L153.833 455.062C153.833 455.062 155.733 468.362 164.933 485.162C174.133 501.962 192.033 504.962 192.033 504.962C192.033 504.962 181.133 515.362 164.933 515.662C148.733 515.962 86.8328 506.662 86.8328 506.662L87.2328 504.262C87.2328 504.262 104.533 504.662 119.533 503.862C134.533 503.162 130.733 490.562 127.633 488.462C124.533 486.362 75.8328 485.662 75.4328 485.662C77.2328 484.562 78.7328 483.862 78.7328 483.862C78.7328 483.862 77.3328 482.562 75.7328 480.562C80.6328 480.962 114.733 483.462 126.133 483.462C137.533 483.462 139.933 469.262 132.333 467.462C125.333 465.762 83.0328 460.462 75.8328 459.562C78.0328 457.562 80.0328 456.762 80.0328 456.762C80.0328 456.762 78.6328 456.162 77.0328 454.762C85.2328 456.562 123.333 464.762 131.533 463.262C140.733 461.562 138.933 450.962 138.933 450.962C138.933 450.962 121.233 453.662 111.033 449.962C104.333 447.562 99.5328 441.162 99.0328 434.862C94.4328 435.262 80.0328 436.562 75.1328 439.062C77.6328 435.662 81.5328 434.762 81.5328 434.762C81.5328 434.762 80.3328 434.562 78.3328 434.262C82.9328 432.962 92.2328 430.762 99.2328 431.062H99.0328Z" fill="url(#paint7_linear_2394_71820)"/>
<path d="M240.434 500.162C240.434 500.162 276.734 589.562 298.834 626.462C317.334 657.262 371.734 711.362 376.634 765.962C379.834 801.462 305.734 818.062 269.334 787.162C232.934 756.262 188.734 577.562 179.734 564.162C170.834 550.762 240.534 500.162 240.534 500.162H240.434Z" fill="#FF9E78"/>
<path d="M25.3344 413.362C25.9344 412.462 26.6344 411.462 27.6344 410.362C34.1344 403.362 76.6344 406.762 118.834 413.462C113.634 416.762 100.634 424.662 91.1344 425.662C79.2344 426.862 31.6344 423.862 27.8344 420.262C26.0344 418.462 25.3344 415.762 25.2344 413.362H25.3344Z" fill="url(#paint8_linear_2394_71820)"/>
<path d="M117.734 445.163C107.834 444.263 102.334 433.563 107.834 427.763C112.434 422.963 155.634 422.163 170.834 422.062C194.234 425.362 209.334 438.963 218.734 452.363C212.934 457.263 190.234 461.363 182.834 459.663C174.234 457.763 147.034 442.663 147.034 442.663C147.034 442.663 127.634 446.062 117.734 445.062V445.163Z" fill="url(#paint9_linear_2394_71820)"/>
<path d="M132.234 538.162C160.934 542.562 187.634 536.262 189.434 540.862C191.234 545.462 244.834 754.162 279.334 772.862C313.834 791.562 358.734 780.762 361.934 750.262C364.734 723.662 338.434 681.162 338.434 681.162C358.534 705.862 375.634 741.762 376.534 765.962C377.834 801.562 305.634 818.062 269.234 787.162C232.834 756.262 188.634 577.562 179.634 564.162C170.434 550.162 152.334 552.362 129.634 542.862C110.734 534.862 85.4336 521.562 74.9336 506.662C74.9336 506.662 107.034 534.362 132.234 538.162Z" fill="url(#paint10_linear_2394_71820)"/>
<path d="M236.934 497.762C236.934 497.762 281.534 613.062 300.034 640.162C322.534 673.162 356.034 717.562 356.934 740.362C358.034 768.362 298.534 789.062 277.934 755.262C257.334 721.462 204.034 545.362 201.834 531.462C200.334 521.962 237.034 497.762 237.034 497.762H236.934Z" fill="url(#paint11_linear_2394_71820)"/>
<path d="M334.034 259.561C321.734 264.461 317.234 283.061 323.934 301.161C330.634 319.261 345.934 329.961 358.234 325.161C370.534 320.261 375.034 301.661 368.334 283.561C361.634 265.461 346.334 254.761 334.034 259.561Z" fill="url(#paint12_linear_2394_71820)"/>
<path d="M533.434 128.862C523.834 85.8619 400.034 72.562 367.534 134.362C357.634 162.662 347.734 215.162 344.534 266.762C344.534 266.262 344.534 265.862 344.534 265.862C344.534 265.862 317.934 401.462 439.834 401.062C557.134 400.662 572.734 341.962 562.834 262.562C560.334 217.762 544.734 161.662 533.634 128.762L533.434 128.862Z" fill="url(#paint13_linear_2394_71820)"/>
<g opacity="0.4">
<path d="M548.565 289.656C552.709 262.578 536.905 237.694 513.266 234.077C489.627 230.46 467.105 249.479 462.962 276.557C458.818 303.635 474.622 328.518 498.261 332.136C521.9 335.753 544.422 316.734 548.565 289.656Z" fill="#FF9E78"/>
<path d="M548.269 289.511C552.379 262.652 536.681 237.965 513.206 234.373C489.731 230.781 467.369 249.643 463.258 276.503C459.148 303.363 474.847 328.049 498.322 331.641C521.797 335.233 544.159 316.371 548.269 289.511Z" fill="#FF9D77"/>
<path d="M548.07 289.48C552.155 262.784 536.525 238.244 513.159 234.668C489.794 231.093 467.54 249.836 463.455 276.532C459.37 303.228 475 327.768 498.366 331.343C521.732 334.919 543.985 316.176 548.07 289.48Z" fill="#FF9C77"/>
<path d="M547.875 289.436C551.935 262.903 536.418 238.517 513.215 234.966C490.013 231.416 467.913 250.046 463.853 276.578C459.793 303.111 475.311 327.497 498.513 331.048C521.715 334.598 543.815 315.968 547.875 289.436Z" fill="#FF9B76"/>
<path d="M547.479 289.374C551.514 263.005 536.109 238.772 513.07 235.246C490.032 231.721 468.085 250.239 464.05 276.607C460.015 302.976 475.42 327.209 498.459 330.735C521.497 334.26 543.444 315.742 547.479 289.374Z" fill="#FF9A76"/>
<path d="M547.182 289.33C551.192 263.125 535.899 239.044 513.025 235.544C490.15 232.044 468.356 250.449 464.346 276.654C460.337 302.859 475.629 326.939 498.504 330.439C521.378 333.94 543.172 315.534 547.182 289.33Z" fill="#FF9975"/>
<path d="M546.984 289.198C550.968 263.158 535.744 239.223 512.979 235.74C490.213 232.256 468.528 250.542 464.543 276.583C460.558 302.624 475.783 326.558 498.548 330.042C521.314 333.526 542.999 315.239 546.984 289.198Z" fill="#FF9875"/>
<path d="M546.687 289.153C550.639 263.331 535.52 239.594 512.918 236.135C490.317 232.677 468.792 250.807 464.84 276.629C460.889 302.452 476.008 326.188 498.609 329.647C521.211 333.105 542.736 314.976 546.687 289.153Z" fill="#FF9774"/>
<path d="M546.393 289.094C550.319 263.435 535.313 239.851 512.875 236.418C490.437 232.984 469.065 251.001 465.139 276.66C461.212 302.319 476.219 325.903 498.656 329.336C521.094 332.769 542.466 314.752 546.393 289.094Z" fill="#FF9674"/>
<path d="M546.096 289.047C549.997 263.553 535.103 240.122 512.829 236.713C490.555 233.305 469.336 251.21 465.435 276.705C461.534 302.2 476.428 325.63 498.702 329.039C520.976 332.447 542.195 314.542 546.096 289.047Z" fill="#FF9573"/>
<path d="M545.799 289.001C549.676 263.67 534.894 240.392 512.784 237.009C490.674 233.626 469.608 251.418 465.731 276.749C461.855 302.08 476.637 325.358 498.747 328.741C520.857 332.125 541.923 314.332 545.799 289.001Z" fill="#FF9472"/>
<path d="M545.603 288.972C549.454 263.804 534.741 240.673 512.74 237.306C490.739 233.94 469.781 251.613 465.93 276.78C462.079 301.947 476.792 325.079 498.793 328.445C520.794 331.812 541.752 314.139 545.603 288.972Z" fill="#FF9372"/>
<path d="M545.306 288.826C549.132 263.822 534.531 240.844 512.694 237.502C490.857 234.161 470.053 251.721 466.227 276.725C462.4 301.729 477.001 324.707 498.839 328.048C520.676 331.39 541.48 313.83 545.306 288.826Z" fill="#FF9271"/>
<path d="M544.91 288.765C548.703 263.98 534.208 241.199 512.534 237.883C490.861 234.566 470.217 251.97 466.424 276.755C462.631 301.54 477.126 324.321 498.8 327.638C520.473 330.954 541.118 313.551 544.91 288.765Z" fill="#FF9171"/>
<path d="M544.713 288.721C548.481 264.1 534.098 241.472 512.588 238.18C491.079 234.889 470.588 252.18 466.82 276.802C463.052 301.423 477.435 324.051 498.945 327.342C520.454 330.634 540.946 313.343 544.713 288.721Z" fill="#FF9070"/>
<path d="M544.517 288.69C548.259 264.232 533.945 241.75 512.544 238.476C491.144 235.201 470.761 252.373 467.019 276.831C463.276 301.288 477.591 323.77 498.991 327.045C520.392 330.319 540.774 313.147 544.517 288.69Z" fill="#FF8F70"/>
<path d="M544.22 288.645C547.937 264.351 533.735 242.023 512.499 238.773C491.262 235.524 471.033 252.583 467.315 276.877C463.598 301.171 477.8 323.5 499.036 326.749C520.273 329.999 540.502 312.939 544.22 288.645Z" fill="#FF8E6F"/>
<path d="M543.923 288.5C547.616 264.37 533.526 242.194 512.453 238.97C491.38 235.745 471.304 252.692 467.612 276.822C463.919 300.952 478.009 323.128 499.082 326.352C520.155 329.577 540.231 312.63 543.923 288.5Z" fill="#FF8D6F"/>
<path d="M543.527 288.439C547.186 264.527 533.202 242.549 512.293 239.35C491.384 236.15 471.468 252.941 467.809 276.852C464.15 300.764 478.134 322.742 499.043 325.942C519.952 329.141 539.868 312.351 543.527 288.439Z" fill="#FF8C6E"/>
<path d="M543.33 288.393C546.964 264.645 533.093 242.82 512.347 239.645C491.602 236.471 471.839 253.149 468.205 276.897C464.571 300.645 478.442 322.47 499.188 325.644C519.933 328.819 539.696 312.141 543.33 288.393Z" fill="#FF8B6E"/>
<path d="M543.134 288.363C546.743 264.779 532.939 243.1 512.303 239.943C491.667 236.785 472.012 253.344 468.404 276.928C464.795 300.512 478.598 322.191 499.234 325.349C519.87 328.506 539.525 311.947 543.134 288.363Z" fill="#FF8A6D"/>
<path d="M542.837 288.317C546.421 264.897 532.73 243.371 512.258 240.238C491.785 237.106 472.284 253.552 468.7 276.973C465.116 300.393 478.807 321.918 499.279 325.051C519.752 328.184 539.253 311.738 542.837 288.317Z" fill="#FF896C"/>
<path d="M542.54 288.173C546.099 264.917 532.521 243.544 512.212 240.437C491.904 237.329 472.555 253.663 468.996 276.919C465.438 300.176 479.016 321.549 499.325 324.656C519.633 327.764 538.982 311.43 542.54 288.173Z" fill="#FF886C"/>
<path d="M542.144 288.111C545.678 265.019 532.212 243.799 512.067 240.717C491.922 237.634 472.727 253.856 469.193 276.948C465.66 300.041 479.126 321.261 499.27 324.343C519.415 327.426 538.61 311.204 542.144 288.111Z" fill="#FF876B"/>
<path d="M542.048 288.081C545.548 265.207 532.143 244.178 512.108 241.112C492.072 238.046 472.992 254.104 469.492 276.979C465.992 299.853 479.396 320.882 499.432 323.948C519.468 327.014 538.547 310.956 542.048 288.081Z" fill="#FF866B"/>
<path d="M541.751 288.037C545.226 265.326 531.934 244.451 512.062 241.41C492.19 238.369 473.264 254.314 469.789 277.025C466.313 299.736 479.605 320.612 499.477 323.652C519.349 326.693 538.276 310.748 541.751 288.037Z" fill="#FF856A"/>
<path d="M541.454 287.991C544.904 265.444 531.725 244.721 512.017 241.705C492.309 238.69 473.535 254.523 470.085 277.07C466.635 299.617 479.814 320.339 499.523 323.355C519.231 326.371 538.004 310.538 541.454 287.991Z" fill="#FF846A"/>
<path d="M541.158 287.845C544.583 265.462 531.515 244.892 511.971 241.902C492.427 238.911 473.806 254.632 470.381 277.015C466.956 299.398 480.024 319.967 499.568 322.958C519.112 325.949 537.732 310.228 541.158 287.845Z" fill="#FF8369"/>
<path d="M540.761 287.785C544.161 265.566 531.207 245.149 511.826 242.184C492.446 239.218 473.978 254.826 470.578 277.046C467.178 299.265 480.133 319.681 499.513 322.647C518.894 325.613 537.361 310.005 540.761 287.785Z" fill="#FF8269"/>
<path d="M540.565 287.756C543.94 265.7 531.053 245.43 511.782 242.481C492.51 239.532 474.152 255.021 470.777 277.077C467.402 299.132 480.289 319.402 499.56 322.351C518.831 325.3 537.19 309.811 540.565 287.756Z" fill="#FF8168"/>
<path d="M540.368 287.711C543.71 265.873 530.929 245.801 511.821 242.877C492.714 239.953 474.515 255.285 471.173 277.122C467.832 298.96 480.613 319.032 499.72 321.956C518.828 324.88 537.026 309.548 540.368 287.711Z" fill="#FF8067"/>
<path d="M540.071 287.665C543.388 265.991 530.719 246.071 511.776 243.173C492.832 240.274 474.786 255.494 471.47 277.167C468.153 298.84 480.822 318.76 499.766 321.659C518.709 324.558 536.755 309.338 540.071 287.665Z" fill="#FF7F67"/>
<path d="M539.775 287.618C543.066 266.109 530.51 246.342 511.73 243.468C492.95 240.595 475.058 255.702 471.766 277.212C468.475 298.721 481.031 318.488 499.811 321.362C518.591 324.235 536.483 309.128 539.775 287.618Z" fill="#FF7E66"/>
<path d="M539.478 287.474C542.745 266.128 530.257 246.507 511.586 243.65C492.915 240.793 475.132 255.781 471.865 277.127C468.599 298.473 481.087 318.093 499.758 320.95C518.428 323.808 536.212 308.819 539.478 287.474Z" fill="#FF7D66"/>
<path d="M539.182 287.427C542.423 266.245 530.048 246.778 511.541 243.946C493.034 241.114 475.403 255.99 472.162 277.172C468.921 298.354 481.296 317.821 499.803 320.653C518.31 323.485 535.94 308.609 539.182 287.427Z" fill="#FF7C65"/>
<path d="M538.985 287.382C542.193 266.419 529.924 247.149 511.58 244.342C493.237 241.535 475.766 256.254 472.558 277.218C469.351 298.181 481.62 317.451 499.963 320.258C518.307 323.065 535.777 308.346 538.985 287.382Z" fill="#FF7B65"/>
<path d="M538.688 287.338C541.871 266.538 529.714 247.421 511.535 244.64C493.355 241.858 476.038 256.464 472.855 277.264C469.672 298.064 481.829 317.181 500.009 319.963C518.188 322.745 535.506 308.138 538.688 287.338Z" fill="#FF7A64"/>
<path d="M538.392 287.292C541.55 266.656 529.505 247.692 511.489 244.935C493.474 242.178 476.309 256.673 473.151 277.309C469.993 297.945 482.038 316.909 500.054 319.665C518.07 322.422 535.234 307.928 538.392 287.292Z" fill="#FF7964"/>
<path d="M538.096 287.147C541.228 266.675 529.252 247.857 511.345 245.117C493.439 242.377 476.383 256.752 473.25 277.224C470.118 297.697 482.094 316.514 500.001 319.254C517.907 321.994 534.963 307.62 538.096 287.147Z" fill="#FF7863"/>
<path d="M537.799 287.101C540.907 266.792 529.043 248.128 511.3 245.413C493.557 242.698 476.654 256.96 473.547 277.269C470.439 297.578 482.303 316.242 500.046 318.957C517.789 321.672 534.691 307.41 537.799 287.101Z" fill="#FF7762"/>
<path d="M537.602 287.057C540.684 266.912 528.933 248.401 511.354 245.711C493.775 243.021 477.025 257.171 473.943 277.316C470.86 297.46 482.612 315.972 500.191 318.662C517.77 321.352 534.519 307.202 537.602 287.057Z" fill="#FF7762"/>
<path d="M537.306 287.01C540.355 267.083 528.709 248.77 511.294 246.105C493.879 243.44 477.289 257.433 474.24 277.359C471.191 297.286 482.836 315.6 500.252 318.265C517.667 320.93 534.256 306.936 537.306 287.01Z" fill="#FF7661"/>
<path d="M537.107 286.98C540.131 267.218 528.553 249.05 511.247 246.402C493.941 243.754 477.461 257.628 474.437 277.39C471.412 297.153 482.99 315.321 500.296 317.969C517.602 320.617 534.083 306.743 537.107 286.98Z" fill="#FF7561"/>
<path d="M536.713 286.819C539.712 267.22 528.247 249.206 511.104 246.582C493.962 243.959 477.634 257.721 474.635 277.32C471.636 296.919 483.102 314.933 500.244 317.556C517.386 320.179 533.714 306.418 536.713 286.819Z" fill="#FF7460"/>
<path d="M536.416 286.775C539.39 267.34 528.037 249.478 511.059 246.88C494.08 244.282 477.906 257.931 474.932 277.366C471.958 296.801 483.311 314.663 500.289 317.261C517.267 319.859 533.442 306.21 536.416 286.775Z" fill="#FF7360"/>
<path d="M536.119 286.729C539.068 267.457 527.828 249.749 511.013 247.176C494.199 244.603 478.177 258.14 475.228 277.411C472.279 296.682 483.52 314.391 500.334 316.964C517.149 319.537 533.17 306 536.119 286.729Z" fill="#FF725F"/>
<path d="M535.923 286.684C538.838 267.631 527.704 250.12 511.053 247.572C494.402 245.024 478.54 258.404 475.625 277.457C472.709 296.51 483.844 314.021 500.495 316.569C517.146 319.116 533.007 305.737 535.923 286.684Z" fill="#FF715F"/>
<path d="M535.627 286.638C538.517 267.749 527.451 250.384 510.909 247.853C494.367 245.322 478.614 258.583 475.724 277.472C472.833 296.361 483.9 313.726 500.442 316.257C516.983 318.788 532.736 305.528 535.627 286.638Z" fill="#FF705E"/>
<path d="M535.33 286.493C538.195 267.767 527.241 250.556 510.863 248.049C494.485 245.543 478.886 258.692 476.02 277.417C473.155 296.142 484.109 313.354 500.487 315.86C516.865 318.366 532.465 305.218 535.33 286.493Z" fill="#FF6F5E"/>
<path d="M535.033 286.448C537.874 267.887 527.032 250.828 510.818 248.347C494.604 245.866 479.157 258.902 476.317 277.463C473.476 296.025 484.318 313.084 500.532 315.565C516.746 318.046 532.193 305.01 535.033 286.448Z" fill="#FF6E5D"/>
<path d="M534.737 286.402C537.552 268.004 526.823 251.099 510.772 248.643C494.722 246.187 479.428 259.11 476.613 277.508C473.798 295.906 484.527 312.811 500.577 315.267C516.628 317.723 531.921 304.8 534.737 286.402Z" fill="#FF6D5C"/>
<path d="M534.639 286.373C537.43 268.139 526.769 251.379 510.828 248.94C494.886 246.501 479.702 259.305 476.911 277.539C474.121 295.773 484.782 312.532 500.723 314.972C516.665 317.411 531.849 304.607 534.639 286.373Z" fill="#FF6C5C"/>
<path d="M534.244 286.312C537.001 268.296 526.445 251.735 510.668 249.32C494.89 246.906 479.866 259.553 477.109 277.569C474.352 295.585 484.907 312.147 500.685 314.561C516.462 316.975 531.487 304.328 534.244 286.312Z" fill="#FF6B5B"/>
<path d="M533.947 286.266C536.679 268.414 526.236 252.005 510.622 249.616C495.009 247.227 480.137 259.762 477.405 277.614C474.673 295.466 485.116 311.874 500.73 314.264C516.343 316.653 531.215 304.118 533.947 286.266Z" fill="#FF6A5B"/>
<path d="M533.65 286.12C536.357 268.432 526.027 252.176 510.577 249.812C495.127 247.448 480.408 259.871 477.702 277.559C474.995 295.247 485.325 311.502 500.775 313.867C516.225 316.231 530.944 303.808 533.65 286.12Z" fill="#FF695A"/>
<path d="M533.354 286.076C536.035 268.552 525.817 252.449 510.531 250.11C495.245 247.771 480.68 260.081 477.998 277.605C475.316 295.13 485.534 311.232 500.82 313.571C516.106 315.91 530.672 303.6 533.354 286.076Z" fill="#FF685A"/>
<path d="M533.257 286.044C535.913 268.684 525.763 252.728 510.587 250.405C495.41 248.083 480.953 260.274 478.296 277.634C475.64 294.995 485.79 310.951 500.966 313.273C516.143 315.596 530.6 303.405 533.257 286.044Z" fill="#FF6759"/>
<path d="M532.86 285.985C535.492 268.788 525.455 252.985 510.442 250.687C495.428 248.39 481.125 260.468 478.493 277.665C475.862 294.862 485.899 310.665 500.912 312.962C515.925 315.26 530.229 303.181 532.86 285.985Z" fill="#FF6659"/>
<path d="M532.564 285.94C535.162 268.961 525.231 253.355 510.381 251.083C495.532 248.811 481.388 260.733 478.79 277.711C476.192 294.689 486.124 310.295 500.973 312.567C515.822 314.84 529.966 302.918 532.564 285.94Z" fill="#FF6558"/>
<path d="M532.268 285.794C534.841 268.979 525.021 253.526 510.336 251.279C495.65 249.032 481.66 260.841 479.087 277.656C476.514 294.471 486.333 309.923 501.018 312.17C515.704 314.418 529.695 302.608 532.268 285.794Z" fill="#FF6457"/>
<path d="M532.055 285.862C534.603 269.211 524.852 253.905 510.276 251.674C495.7 249.444 481.818 261.134 479.27 277.785C476.722 294.435 486.473 309.742 501.049 311.972C515.625 314.203 529.507 302.513 532.055 285.862Z" fill="#FF6357"/>
<path d="M531.858 285.818C534.381 269.331 524.743 254.177 510.33 251.972C495.918 249.766 482.189 261.344 479.666 277.831C477.143 294.318 486.781 309.471 501.194 311.677C515.606 313.882 529.335 302.305 531.858 285.818Z" fill="#FF6256"/>
<path d="M531.462 285.756C533.96 269.433 524.434 254.432 510.185 252.252C495.936 250.072 482.36 261.537 479.863 277.86C477.365 294.183 486.891 309.184 501.14 311.364C515.388 313.544 528.964 302.079 531.462 285.756Z" fill="#FF6156"/>
<path d="M531.166 285.711C533.63 269.606 524.21 254.803 510.125 252.648C496.04 250.492 482.624 261.801 480.159 277.906C477.695 294.011 487.115 308.814 501.2 310.969C515.285 313.124 528.701 301.816 531.166 285.711Z" fill="#FF6055"/>
<path d="M530.869 285.565C533.308 269.624 524.001 254.974 510.079 252.844C496.158 250.714 482.895 261.91 480.456 277.851C478.017 293.792 487.324 308.442 501.246 310.572C515.167 312.702 528.43 301.506 530.869 285.565Z" fill="#FF5F55"/>
<path d="M530.672 285.536C533.087 269.758 523.847 255.255 510.035 253.141C496.223 251.028 483.069 262.104 480.655 277.882C478.24 293.659 487.48 308.163 501.292 310.276C515.104 312.39 528.258 301.313 530.672 285.536Z" fill="#FF5E54"/>
<path d="M530.376 285.489C532.765 269.876 523.638 255.525 509.989 253.437C496.341 251.349 483.34 262.313 480.951 277.926C478.562 293.54 487.689 307.89 501.337 309.979C514.986 312.067 527.987 301.103 530.376 285.489Z" fill="#FF5D54"/>
<path d="M530.081 285.43C532.445 269.98 523.43 255.782 509.946 253.719C496.461 251.656 483.614 262.507 481.249 277.957C478.885 293.407 487.9 307.604 501.385 309.668C514.869 311.731 527.717 300.879 530.081 285.43Z" fill="#FF5C53"/>
<path d="M529.784 285.383C532.123 270.097 523.221 256.053 509.9 254.015C496.58 251.976 483.885 262.716 481.546 278.002C479.207 293.288 488.109 307.332 501.43 309.37C514.751 311.409 527.445 300.669 529.784 285.383Z" fill="#FF5B53"/>
<path d="M529.586 285.253C531.892 270.186 523.051 256.332 509.84 254.311C496.628 252.289 484.049 262.865 481.743 277.932C479.437 293 488.278 306.854 501.49 308.875C514.701 310.897 527.281 300.321 529.586 285.253Z" fill="#FF5A52"/>
<path d="M529.29 285.209C531.57 270.305 522.842 256.605 509.794 254.608C496.746 252.612 484.32 263.075 482.04 277.979C479.759 292.883 488.487 306.583 501.535 308.58C514.583 310.577 527.009 300.113 529.29 285.209Z" fill="#FF5951"/>
<path d="M528.993 285.163C531.248 270.423 522.632 256.875 509.748 254.904C496.865 252.932 484.592 263.283 482.336 278.024C480.08 292.764 488.696 306.311 501.58 308.283C514.464 310.254 526.737 299.903 528.993 285.163Z" fill="#FF5851"/>
<path d="M528.698 285.103C530.929 270.527 522.425 257.133 509.705 255.186C496.985 253.24 484.865 263.478 482.634 278.054C480.404 292.631 488.907 306.025 501.628 307.972C514.348 309.918 526.468 299.68 528.698 285.103Z" fill="#FF5750"/>
<path d="M528.402 285.057C530.607 270.644 522.216 257.403 509.659 255.482C497.103 253.56 485.136 263.686 482.931 278.099C480.725 292.512 489.116 305.753 501.673 307.674C514.229 309.596 526.196 299.47 528.402 285.057Z" fill="#FF5650"/>
<path d="M528.203 284.928C530.383 270.679 522.06 257.584 509.613 255.68C497.166 253.775 485.308 263.782 483.128 278.03C480.947 292.279 489.27 305.374 501.717 307.279C514.165 309.184 526.023 299.177 528.203 284.928Z" fill="#FF554F"/>
<path d="M527.907 284.881C530.054 270.851 521.836 257.953 509.553 256.073C497.27 254.194 485.571 264.044 483.425 278.074C481.278 292.105 489.495 305.002 501.778 306.882C514.062 308.762 525.76 298.911 527.907 284.881Z" fill="#FF544F"/>
<path d="M527.61 284.837C529.732 270.97 521.627 258.226 509.508 256.371C497.388 254.516 485.843 264.254 483.721 278.121C481.599 291.987 489.704 304.732 501.823 306.587C513.943 308.441 525.488 298.703 527.61 284.837Z" fill="#FF534E"/>
<path d="M527.315 284.775C529.412 271.072 521.42 258.481 509.464 256.651C497.508 254.822 486.116 264.447 484.019 278.15C481.922 291.853 489.915 304.444 501.871 306.274C513.827 308.103 525.218 298.478 527.315 284.775Z" fill="#FF524E"/>
<path d="M527.117 284.745C529.189 271.206 521.264 258.761 509.418 256.948C497.571 255.136 486.288 264.642 484.216 278.181C482.144 291.72 490.068 304.165 501.915 305.978C513.762 307.79 525.045 298.284 527.117 284.745Z" fill="#FF514D"/>
</g>
<path d="M601.548 278.5C606.145 259.781 599.481 242.055 586.663 238.906C573.844 235.757 559.725 248.379 555.128 267.098C550.53 285.816 557.194 303.543 570.013 306.691C582.831 309.84 596.95 297.218 601.548 278.5Z" fill="#FF9E78"/>
<path d="M590.934 282.261C579.334 290.661 566.434 288.861 556.634 281.861C556.934 286.561 557.034 292.661 556.434 299.661H556.634L558.734 345.861C563.134 333.961 564.934 320.261 565.134 304.961C566.334 305.661 567.534 306.261 568.934 306.661C581.634 310.361 595.934 298.261 600.934 279.661C602.234 274.861 602.734 270.061 602.634 265.561C600.834 271.961 597.034 277.761 590.934 282.161V282.261Z" fill="url(#paint14_linear_2394_71820)"/>
<path d="M568.834 273.462L580.234 274.462C579.134 256.562 592.034 249.862 592.034 249.862C570.034 243.362 568.834 273.562 568.834 273.562V273.462Z" fill="url(#paint15_linear_2394_71820)"/>
<path d="M510.533 63.9611C502.833 50.0611 481.533 46.8611 481.533 46.8611C481.733 48.8611 482.333 50.8611 483.233 52.8611C447.233 31.9611 401.833 32.8611 401.833 32.8611C400.133 35.9611 399.533 40.6611 400.433 43.9611C372.033 44.6611 350.033 48.9611 350.033 48.9611C345.833 83.1611 356.533 102.561 367.633 113.461C371.633 117.461 377.533 124.061 393.333 129.961C393.333 129.961 410.233 138.361 435.933 137.361C458.933 136.461 491.033 122.461 491.033 122.461C513.933 120.561 550.133 189.861 556.633 246.961C558.133 260.061 568.633 244.261 568.633 244.261C568.633 244.261 568.933 229.861 566.833 209.461C566.833 209.261 582.533 113.661 557.433 82.7611C532.333 51.8611 539.233 68.3611 528.633 71.5611" fill="url(#paint16_linear_2394_71820)"/>
<path d="M356.334 97.7617C322.534 110.262 342.034 234.862 344.034 255.362C344.134 256.862 344.034 257.862 344.034 259.562C344.034 260.362 346.734 259.962 346.534 259.162C346.234 257.962 346.334 255.862 346.434 255.162C348.934 216.862 374.234 132.062 393.234 129.962C393.234 129.962 374.334 120.062 356.334 97.7617Z" fill="#59352C"/>
<g opacity="0.4">
<path d="M404.009 331.991C426.691 326.88 440.069 300.505 433.889 273.081C427.709 245.658 404.311 227.57 381.629 232.682C358.946 237.794 345.569 264.169 351.749 291.592C357.929 319.016 381.327 337.103 404.009 331.991Z" fill="#FF9E78"/>
<path d="M403.921 331.601C426.442 326.526 439.728 300.355 433.596 273.147C427.465 245.939 404.237 227.997 381.717 233.072C359.196 238.147 345.91 264.318 352.042 291.526C358.173 318.734 381.401 336.676 403.921 331.601Z" fill="#FF9D77"/>
<path d="M403.854 331.308C426.213 326.27 439.398 300.259 433.303 273.213C427.207 246.166 404.141 228.326 381.782 233.365C359.422 238.403 346.238 264.414 352.333 291.46C358.428 318.507 381.495 336.347 403.854 331.308Z" fill="#FF9C77"/>
<path d="M403.789 331.015C426.04 326 439.167 300.141 433.108 273.256C427.049 246.371 404.099 228.642 381.848 233.657C359.597 238.671 346.47 264.531 352.529 291.416C358.588 318.3 381.537 336.03 403.789 331.015Z" fill="#FF9B76"/>
<path d="M403.724 330.722C425.813 325.744 438.839 300.045 432.816 273.322C426.794 246.599 404.005 228.971 381.915 233.949C359.825 238.927 346.8 264.626 352.822 291.349C358.845 318.073 381.634 335.7 403.724 330.722Z" fill="#FF9A76"/>
<path d="M403.636 330.332C425.564 325.39 438.498 299.896 432.524 273.388C426.55 246.88 403.931 229.398 382.003 234.339C360.075 239.281 347.142 264.776 353.115 291.283C359.089 317.791 381.708 335.274 403.636 330.332Z" fill="#FF9975"/>
<path d="M403.569 330.041C425.389 325.123 438.265 299.779 432.327 273.433C426.39 247.087 403.888 229.716 382.068 234.633C360.247 239.551 347.372 264.895 353.309 291.241C359.246 317.587 381.748 334.958 403.569 330.041Z" fill="#FF9875"/>
<path d="M403.504 329.748C425.162 324.867 437.936 299.683 432.036 273.499C426.135 247.315 403.793 230.045 382.134 234.926C360.476 239.807 347.702 264.99 353.603 291.175C359.503 317.359 381.845 334.629 403.504 329.748Z" fill="#FF9774"/>
<path d="M403.438 329.455C424.935 324.61 437.608 299.588 431.744 273.565C425.879 247.542 403.698 230.374 382.201 235.218C360.704 240.063 348.031 265.086 353.896 291.109C359.76 317.131 381.941 334.3 403.438 329.455Z" fill="#FF9674"/>
<path d="M403.349 329.065C424.684 324.257 437.265 299.438 431.449 273.631C425.633 247.824 403.623 230.8 382.287 235.609C360.952 240.417 348.371 265.235 354.187 291.043C360.003 316.85 382.013 333.873 403.349 329.065Z" fill="#FF9573"/>
<path d="M403.283 328.771C424.511 323.988 437.034 299.32 431.255 273.674C425.475 248.029 403.582 231.117 382.354 235.901C361.126 240.684 348.603 265.352 354.383 290.998C360.162 316.644 382.056 333.555 403.283 328.771Z" fill="#FF9472"/>
<path d="M403.218 328.479C424.284 323.731 436.706 299.224 430.963 273.74C425.22 248.256 403.487 231.446 382.421 236.193C361.355 240.941 348.933 265.448 354.676 290.932C360.419 316.416 382.152 333.226 403.218 328.479Z" fill="#FF9372"/>
<path d="M403.151 328.186C424.055 323.475 436.376 299.128 430.669 273.806C424.962 248.483 403.39 231.775 382.485 236.486C361.581 241.197 349.261 265.543 354.968 290.866C360.674 316.188 382.247 332.897 403.151 328.186Z" fill="#FF9271"/>
<path d="M403.063 327.795C423.86 323.108 436.132 298.956 430.474 273.849C424.816 248.742 403.37 232.189 382.574 236.875C361.777 241.562 349.505 265.714 355.163 290.821C360.821 315.928 382.267 332.482 403.063 327.795Z" fill="#FF9171"/>
<path d="M402.998 327.504C423.633 322.854 435.804 298.862 430.182 273.917C424.561 248.972 403.275 232.519 382.64 237.17C362.005 241.82 349.835 265.812 355.456 290.757C361.078 315.702 382.363 332.155 402.998 327.504Z" fill="#FF9070"/>
<path d="M402.931 327.211C423.404 322.598 435.474 298.766 429.888 273.983C424.303 249.199 403.178 232.848 382.705 237.462C362.232 242.076 350.162 265.907 355.748 290.691C361.333 315.475 382.458 331.825 402.931 327.211Z" fill="#FF8F70"/>
<path d="M402.866 326.918C423.231 322.329 435.243 298.648 429.694 274.026C424.145 249.404 403.137 233.165 382.772 237.754C362.406 242.344 350.395 266.024 355.943 290.646C361.492 315.268 382.5 331.508 402.866 326.918Z" fill="#FF8E6F"/>
<path d="M402.778 326.528C422.982 321.975 434.902 298.498 429.401 274.092C423.901 249.685 403.064 233.591 382.86 238.144C362.656 242.698 350.736 266.174 356.236 290.58C361.737 314.987 382.574 331.081 402.778 326.528Z" fill="#FF8D6F"/>
<path d="M402.713 326.235C422.755 321.718 434.573 298.403 429.11 274.158C423.646 249.913 402.969 233.92 382.927 238.437C362.884 242.954 351.066 266.27 356.53 290.514C361.994 314.759 382.67 330.752 402.713 326.235Z" fill="#FF8C6E"/>
<path d="M402.646 325.942C422.58 321.449 434.341 298.284 428.913 274.201C423.486 250.118 402.926 234.237 382.991 238.729C363.057 243.221 351.296 266.387 356.724 290.47C362.151 314.553 382.711 330.434 402.646 325.942Z" fill="#FF8B6E"/>
<path d="M402.58 325.649C422.353 321.193 434.012 298.188 428.621 274.267C423.23 250.345 402.831 234.565 383.058 239.021C363.285 243.478 351.626 266.482 357.017 290.404C362.408 314.325 382.807 330.105 402.58 325.649Z" fill="#FF8A6D"/>
<path d="M402.493 325.259C422.104 320.839 433.671 298.039 428.329 274.333C422.986 250.627 402.758 234.992 383.146 239.412C363.535 243.831 351.968 266.632 357.31 290.338C362.652 314.044 382.881 329.678 402.493 325.259Z" fill="#FF896C"/>
<path d="M402.426 324.968C421.875 320.585 433.341 297.945 428.035 274.401C422.729 250.856 402.661 235.323 383.211 239.706C363.761 244.089 352.295 266.729 357.601 290.273C362.907 313.818 382.976 329.351 402.426 324.968Z" fill="#FF886C"/>
<path d="M402.36 324.675C421.702 320.316 433.11 297.827 427.841 274.444C422.571 251.061 402.619 235.639 383.278 239.998C363.936 244.357 352.528 266.846 357.797 290.229C363.067 313.612 383.018 329.033 402.36 324.675Z" fill="#FF876B"/>
<path d="M402.273 324.284C421.453 319.962 432.769 297.677 427.548 274.51C422.327 251.343 402.546 236.066 383.366 240.388C364.185 244.711 352.869 266.996 358.09 290.163C363.311 313.33 383.092 328.607 402.273 324.284Z" fill="#FF866B"/>
<path d="M402.205 323.992C421.224 319.705 432.439 297.581 427.254 274.576C422.07 251.57 402.449 236.395 383.43 240.681C364.412 244.967 353.197 267.091 358.382 290.097C363.566 313.102 383.187 328.278 402.205 323.992Z" fill="#FF856A"/>
<path d="M402.14 323.698C421.051 319.436 432.208 297.463 427.06 274.619C421.912 251.775 402.408 236.711 383.497 240.973C364.586 245.235 353.429 267.208 358.577 290.052C363.725 312.896 383.229 327.96 402.14 323.698Z" fill="#FF846A"/>
<path d="M402.075 323.405C420.824 319.18 431.88 297.367 426.768 274.685C421.656 252.002 402.313 237.04 383.564 241.265C364.815 245.491 353.759 267.304 358.871 289.986C363.982 312.668 383.326 327.631 402.075 323.405Z" fill="#FF8369"/>
<path d="M401.987 323.015C420.575 318.826 431.539 297.217 426.476 274.751C421.412 252.284 402.24 237.467 383.652 241.656C365.064 245.844 354.101 267.453 359.164 289.92C364.227 312.387 383.4 327.204 401.987 323.015Z" fill="#FF8269"/>
<path d="M401.92 322.724C420.4 318.559 431.306 297.101 426.279 274.796C421.252 252.491 402.197 237.785 383.717 241.95C365.237 246.114 354.331 267.572 359.357 289.877C364.384 312.183 383.44 326.888 401.92 322.724Z" fill="#FF8168"/>
<path d="M401.855 322.431C420.173 318.303 430.978 297.005 425.987 274.862C420.997 252.718 402.102 238.114 383.783 242.242C365.465 246.37 354.661 267.668 359.651 289.811C364.641 311.955 383.536 326.559 401.855 322.431Z" fill="#FF8067"/>
<path d="M401.788 322.138C419.944 318.046 430.647 296.909 425.693 274.928C420.74 252.946 402.005 238.443 383.848 242.535C365.692 246.626 354.989 267.763 359.942 289.745C364.896 311.727 383.631 326.23 401.788 322.138Z" fill="#FF7F67"/>
<path d="M401.7 321.748C419.695 317.693 430.306 296.76 425.401 274.993C420.496 253.227 401.931 238.869 383.936 242.925C365.941 246.98 355.33 267.913 360.235 289.679C365.141 311.446 383.705 325.803 401.7 321.748Z" fill="#FF7E66"/>
<path d="M401.635 321.455C419.522 317.424 430.075 296.642 425.207 275.037C420.338 253.432 401.89 239.186 384.003 243.217C366.116 247.248 355.562 268.03 360.431 289.635C365.3 311.239 383.747 325.486 401.635 321.455Z" fill="#FF7D66"/>
<path d="M401.569 321.162C419.295 317.167 429.747 296.546 424.915 275.103C420.082 253.659 401.795 239.515 384.07 243.509C366.344 247.504 355.892 268.125 360.724 289.568C365.557 311.012 383.844 325.156 401.569 321.162Z" fill="#FF7C65"/>
<path d="M401.502 320.869C419.066 316.911 429.417 296.45 424.621 275.168C419.825 253.887 401.698 239.844 384.134 243.802C366.57 247.76 356.22 268.221 361.016 289.502C365.812 310.784 383.938 324.827 401.502 320.869Z" fill="#FF7B65"/>
<path d="M401.415 320.48C418.871 316.546 429.173 296.28 424.426 275.214C419.678 254.148 401.679 240.259 384.223 244.193C366.766 248.127 356.464 268.394 361.211 289.46C365.959 310.526 383.958 324.414 401.415 320.48Z" fill="#FF7A64"/>
<path d="M401.349 320.187C418.644 316.29 428.845 296.184 424.134 275.28C419.423 254.375 401.584 240.588 384.289 244.486C366.995 248.383 356.794 268.489 361.505 289.394C366.216 310.298 384.055 324.085 401.349 320.187Z" fill="#FF7964"/>
<path d="M401.282 319.895C418.415 316.034 428.515 296.088 423.84 275.345C419.166 254.603 401.487 240.917 384.354 244.778C367.221 248.64 357.122 268.585 361.796 289.328C366.471 310.07 384.149 323.756 401.282 319.895Z" fill="#FF7863"/>
<path d="M401.217 319.601C418.242 315.765 428.284 295.97 423.646 275.389C419.008 254.808 401.446 241.234 384.421 245.07C367.395 248.907 357.354 268.702 361.992 289.283C366.63 309.864 384.192 323.438 401.217 319.601Z" fill="#FF7762"/>
<path d="M401.129 319.211C417.993 315.411 427.943 295.82 423.353 275.455C418.764 255.089 401.372 241.66 384.509 245.461C367.645 249.261 357.695 268.851 362.285 289.217C366.874 309.583 384.266 323.011 401.129 319.211Z" fill="#FF7762"/>
<path d="M401.062 318.918C417.764 315.154 427.613 295.724 423.059 275.52C418.506 255.316 401.276 241.989 384.574 245.753C367.872 249.517 358.023 268.947 362.576 289.151C367.129 309.355 384.36 322.682 401.062 318.918Z" fill="#FF7661"/>
<path d="M400.997 318.625C417.537 314.898 427.284 295.629 422.768 275.586C418.251 255.544 401.181 242.318 384.64 246.046C368.1 249.773 358.353 269.042 362.87 289.085C367.386 309.127 384.457 322.353 400.997 318.625Z" fill="#FF7561"/>
<path d="M400.932 318.334C417.364 314.631 427.053 295.512 422.573 275.632C418.093 255.751 401.14 242.636 384.707 246.34C368.274 250.043 358.585 269.161 363.065 289.042C367.546 308.923 384.499 322.037 400.932 318.334Z" fill="#FF7460"/>
<path d="M400.844 317.944C417.115 314.277 426.712 295.363 422.281 275.697C417.849 256.032 401.066 243.063 384.795 246.73C368.524 250.397 358.927 269.311 363.358 288.976C367.79 308.641 384.573 321.611 400.844 317.944Z" fill="#FF7360"/>
<path d="M400.777 317.651C416.886 314.021 426.382 295.267 421.987 275.763C417.591 256.26 400.969 243.392 384.86 247.022C368.751 250.653 359.255 269.406 363.65 288.91C368.045 308.414 384.667 321.281 400.777 317.651Z" fill="#FF725F"/>
<path d="M400.711 317.358C416.713 313.752 426.151 295.149 421.792 275.807C417.433 256.465 400.928 243.708 384.927 247.314C368.925 250.92 359.487 269.524 363.846 288.865C368.205 308.207 384.71 320.964 400.711 317.358Z" fill="#FF715F"/>
<path d="M400.624 316.967C416.464 313.398 425.81 294.999 421.5 275.872C417.19 256.746 400.855 244.135 385.015 247.704C369.175 251.274 359.828 269.673 364.139 288.799C368.449 307.926 384.784 320.537 400.624 316.967Z" fill="#FF705E"/>
<path d="M400.557 316.675C416.235 313.141 425.48 294.903 421.206 275.938C416.932 256.974 400.758 244.464 385.079 247.997C369.401 251.53 360.156 269.769 364.43 288.733C368.704 307.698 384.878 320.208 400.557 316.675Z" fill="#FF6F5E"/>
<path d="M400.491 316.381C416.062 312.872 425.249 294.785 421.012 275.982C416.774 257.178 400.717 244.78 385.146 248.289C369.576 251.798 360.388 269.886 364.626 288.689C368.863 307.492 384.921 319.89 400.491 316.381Z" fill="#FF6E5D"/>
<path d="M400.426 316.089C415.835 312.616 424.921 294.689 420.72 276.047C416.519 257.406 400.622 245.109 385.213 248.582C369.804 252.054 360.718 269.981 364.919 288.623C369.12 307.264 385.017 319.561 400.426 316.089Z" fill="#FF6D5C"/>
<path d="M400.338 315.7C415.586 312.264 424.58 294.541 420.427 276.115C416.275 257.689 400.548 245.538 385.301 248.974C370.054 252.41 361.06 270.133 365.212 288.559C369.365 306.985 385.091 319.136 400.338 315.7Z" fill="#FF6C5C"/>
<path d="M400.271 315.407C415.411 311.995 424.347 294.423 420.231 276.159C416.115 257.894 400.505 245.854 385.366 249.266C370.226 252.678 361.29 270.25 365.406 288.514C369.522 306.778 385.132 318.819 400.271 315.407Z" fill="#FF6B5B"/>
<path d="M400.206 315.114C415.184 311.739 424.019 294.327 419.939 276.224C415.859 258.122 400.41 246.183 385.432 249.558C370.454 252.934 361.62 270.345 365.699 288.448C369.779 306.551 385.228 318.49 400.206 315.114Z" fill="#FF6A5B"/>
<path d="M400.139 314.821C414.955 311.482 423.688 294.231 419.645 276.29C415.602 258.349 400.313 246.512 385.497 249.851C370.681 253.19 361.948 270.441 365.991 288.382C370.034 306.323 385.323 318.16 400.139 314.821Z" fill="#FF695A"/>
<path d="M400.051 314.431C414.706 311.128 423.347 294.082 419.353 276.356C415.358 258.631 400.24 246.938 385.585 250.241C370.931 253.543 362.289 270.59 366.284 288.316C370.278 306.041 385.397 317.734 400.051 314.431Z" fill="#FF685A"/>
<path d="M399.986 314.138C414.533 310.859 423.117 293.964 419.158 276.4C415.2 258.836 400.199 247.255 385.652 250.533C371.105 253.811 362.521 270.707 366.479 288.271C370.438 305.835 385.439 317.416 399.986 314.138Z" fill="#FF6759"/>
<path d="M399.921 313.845C414.306 310.603 422.788 293.868 418.866 276.465C414.945 259.063 400.104 247.584 385.719 250.825C371.333 254.067 362.851 270.803 366.773 288.205C370.695 305.607 385.535 317.087 399.921 313.845Z" fill="#FF6659"/>
<path d="M399.854 313.554C414.077 310.349 422.458 293.774 418.573 276.533C414.687 259.292 400.007 247.914 385.783 251.12C371.56 254.325 363.179 270.9 367.064 288.141C370.95 305.382 385.63 316.76 399.854 313.554Z" fill="#FF6558"/>
<path d="M399.766 313.163C413.882 309.982 422.214 293.602 418.378 276.577C414.541 259.551 399.987 248.328 385.872 251.51C371.756 254.691 363.423 271.071 367.26 288.096C371.096 305.122 385.65 316.344 399.766 313.163Z" fill="#FF6457"/>
<path d="M399.701 312.871C413.655 309.726 421.886 293.506 418.086 276.642C414.285 259.779 399.892 248.657 385.938 251.802C371.984 254.947 363.753 271.167 367.553 288.03C371.353 304.894 385.746 316.015 399.701 312.871Z" fill="#FF6357"/>
<path d="M399.633 312.578C413.426 309.469 421.556 293.41 417.792 276.708C414.028 260.006 399.796 248.986 386.003 252.095C372.21 255.203 364.081 271.262 367.845 287.964C371.608 304.666 385.841 315.686 399.633 312.578Z" fill="#FF6256"/>
<path d="M399.568 312.284C413.253 309.2 421.325 293.292 417.597 276.751C413.87 260.211 399.754 249.303 386.07 252.387C372.385 255.471 364.313 271.379 368.04 287.92C371.768 304.46 385.883 315.368 399.568 312.284Z" fill="#FF6156"/>
<path d="M399.48 311.894C413.004 308.847 420.984 293.142 417.305 276.817C413.626 260.493 399.681 249.729 386.158 252.777C372.635 255.824 364.654 271.529 368.333 287.854C372.012 304.178 385.957 314.942 399.48 311.894Z" fill="#FF6055"/>
<path d="M399.413 311.601C412.775 308.59 420.654 293.046 417.011 276.883C413.369 260.72 399.584 250.058 386.223 253.069C372.861 256.08 364.982 271.624 368.625 287.788C372.267 303.951 386.052 314.613 399.413 311.601Z" fill="#FF5F55"/>
<path d="M399.348 311.309C412.548 308.334 420.325 292.951 416.719 276.949C413.113 260.947 399.489 250.387 386.289 253.362C373.089 256.337 365.312 271.72 368.918 287.721C372.524 303.723 386.148 314.283 399.348 311.309Z" fill="#FF5E54"/>
<path d="M399.283 311.017C412.375 308.067 420.095 292.834 416.525 276.994C412.955 261.154 399.448 250.705 386.356 253.656C373.264 256.606 365.544 271.839 369.114 287.679C372.684 303.519 386.191 313.968 399.283 311.017Z" fill="#FF5D54"/>
<path d="M399.195 310.627C412.126 307.713 419.754 292.685 416.232 277.06C412.711 261.436 399.375 251.132 386.444 254.046C373.514 256.96 365.886 271.988 369.407 287.613C372.928 303.237 386.265 313.541 399.195 310.627Z" fill="#FF5C53"/>
<path d="M399.128 310.334C411.897 307.457 419.423 292.589 415.939 277.126C412.454 261.663 399.278 251.461 386.509 254.338C373.74 257.216 366.214 272.084 369.698 287.547C373.183 303.009 386.359 313.212 399.128 310.334Z" fill="#FF5B53"/>
<path d="M399.063 310.041C411.724 307.188 419.192 292.47 415.744 277.169C412.296 261.868 399.237 251.777 386.575 254.63C373.914 257.484 366.446 272.201 369.894 287.502C373.342 302.803 386.402 312.894 399.063 310.041Z" fill="#FF5A52"/>
<path d="M398.975 309.651C411.475 306.834 418.851 292.321 415.452 277.235C412.052 262.15 399.163 252.204 386.664 255.021C374.164 257.838 366.787 272.35 370.187 287.436C373.587 302.522 386.476 312.467 398.975 309.651Z" fill="#FF5951"/>
<path d="M398.908 309.358C411.246 306.577 418.521 292.225 415.158 277.301C411.795 262.377 399.066 252.533 386.728 255.313C374.391 258.094 367.115 272.446 370.478 287.37C373.842 302.294 386.57 312.138 398.908 309.358Z" fill="#FF5851"/>
<path d="M398.843 309.066C411.073 306.31 418.29 292.109 414.963 277.346C411.637 262.584 399.025 252.851 386.795 255.607C374.565 258.363 367.347 272.565 370.674 287.327C374.001 302.09 386.612 311.823 398.843 309.066Z" fill="#FF5750"/>
<path d="M398.777 308.774C410.846 306.054 417.962 292.013 414.672 277.412C411.381 262.811 398.93 253.18 386.862 255.9C374.793 258.619 367.677 272.66 370.968 287.261C374.258 301.862 386.709 311.493 398.777 308.774Z" fill="#FF5650"/>
<path d="M398.688 308.383C410.595 305.7 417.619 291.863 414.377 277.478C411.135 263.093 398.855 253.607 386.948 256.29C375.041 258.973 368.017 272.81 371.259 287.195C374.5 301.58 386.781 311.067 398.688 308.383Z" fill="#FF554F"/>
<path d="M398.623 308.091C410.368 305.444 417.291 291.767 414.085 277.544C410.88 263.32 398.76 253.935 387.015 256.582C375.269 259.229 368.347 272.906 371.552 287.129C374.757 301.353 386.877 310.737 398.623 308.091Z" fill="#FF544F"/>
<path d="M398.557 307.797C410.195 305.175 417.06 291.649 413.891 277.587C410.722 263.525 398.719 254.252 387.081 256.874C375.444 259.497 368.579 273.023 371.748 287.085C374.917 301.147 386.92 310.42 398.557 307.797Z" fill="#FF534E"/>
<path d="M398.49 307.504C409.966 304.918 416.73 291.553 413.597 277.653C410.464 263.753 398.622 254.581 387.146 257.167C375.67 259.753 368.907 273.118 372.039 287.018C375.172 300.919 387.014 310.091 398.49 307.504Z" fill="#FF524E"/>
<path d="M398.402 307.114C409.717 304.564 416.389 291.404 413.305 277.719C410.221 264.034 398.549 255.007 387.234 257.557C375.92 260.107 369.248 273.268 372.332 286.952C375.416 300.637 387.088 309.664 398.402 307.114Z" fill="#FF514D"/>
</g>
<path opacity="0.1" d="M554.833 79.2616C550.033 76.4616 547.133 72.0616 542.833 70.8616C539.133 71.7616 535.333 72.8616 531.533 74.0616C519.933 77.4616 507.633 79.9616 495.533 79.0616C481.433 78.0616 468.733 72.4616 455.933 66.9616C449.433 64.1616 443.033 61.2616 436.433 58.9616C422.233 53.8616 405.533 48.9616 390.333 50.3616C382.833 51.0616 375.533 53.7616 368.733 57.0616C362.433 60.0616 357.433 64.2616 353.733 68.4616C352.933 69.3616 351.233 70.7616 349.533 72.0616C350.033 77.6616 351.033 82.6616 352.333 87.1616C353.033 86.6616 353.633 86.2616 353.833 86.0616C356.233 84.0616 359.333 81.9616 362.833 80.1616C366.433 78.4616 370.533 76.8616 375.133 76.2616C393.233 73.7616 410.533 80.0616 427.333 85.8616C434.233 88.2616 441.233 91.0616 448.633 93.6616C456.033 96.2616 463.733 98.7616 471.733 100.662C485.233 103.962 501.433 104.162 514.633 99.6616C516.433 99.0616 518.233 98.5616 519.933 97.8616C526.733 95.2616 532.633 92.0616 537.733 89.0616C542.833 86.0616 547.133 83.3616 551.033 81.2616C552.333 80.5616 553.633 79.8616 554.833 79.2616Z" fill="#FFBC80"/>
<path d="M462.235 174.861C462.235 174.861 450.335 221.561 475.235 246.561L531.135 238.461C531.135 238.461 530.635 217.061 525.735 202.861C521.735 191.361 462.335 174.861 462.335 174.861H462.235Z" fill="url(#paint17_linear_2394_71820)"/>
<path d="M368.335 211.46C365.735 222.56 363.635 250.66 363.635 250.66L416.235 253.76C438.435 225.26 420.535 178.16 420.535 178.16C420.535 178.16 370.835 200.36 368.235 211.46H368.335Z" fill="url(#paint18_linear_2394_71820)"/>
<path d="M503.834 223.16C480.134 223.16 475.234 246.46 475.234 246.46C475.234 246.46 482.034 251.06 505.234 248.46C532.734 245.36 531.134 238.36 531.134 238.36C531.134 238.36 527.534 223.26 503.834 223.16Z" fill="white"/>
<path d="M363.635 250.661C363.635 250.661 364.535 256.061 385.435 257.261C410.235 258.661 416.335 253.761 416.335 253.761C416.335 253.761 412.135 240.261 401.835 234.161C391.535 228.061 375.235 229.561 363.635 250.661Z" fill="white"/>
<path d="M385.435 257.261C393.935 257.761 400.135 257.461 404.735 256.961C404.735 256.961 404.735 256.761 404.735 256.661C406.935 247.561 404.035 238.961 398.235 237.661C392.535 236.261 386.035 242.561 383.835 251.761C383.435 253.661 383.235 255.461 383.135 257.161C383.835 257.161 384.535 257.161 385.235 257.261H385.435Z" fill="url(#paint19_linear_2394_71820)"/>
<path d="M505.234 248.561C508.334 248.261 510.934 247.861 513.334 247.361C514.934 237.761 512.034 228.961 506.534 227.461C500.734 225.861 494.434 232.761 492.334 242.961C491.934 244.861 491.834 247.161 491.834 249.361C495.534 249.361 500.034 249.161 505.334 248.561H505.234Z" fill="url(#paint20_linear_2394_71820)"/>
<path d="M390.035 225.061C372.835 225.061 361.635 241.561 363.635 250.661C363.635 250.661 370.535 234.861 388.935 234.461C410.535 233.961 416.235 253.761 416.235 253.761C419.135 245.661 413.835 224.961 390.035 225.061Z" fill="#603F37"/>
<path d="M368.334 219.66C387.234 200.16 414.634 204.76 421.634 192.96C425.134 187.16 420.634 178.16 420.634 178.16C361.034 189.96 368.234 219.66 368.234 219.66H368.334Z" fill="url(#paint21_linear_2394_71820)"/>
<path d="M462.234 174.861C462.234 174.861 459.534 187.561 463.634 191.561C476.534 203.761 506.334 191.361 526.234 206.561C526.234 206.561 528.834 183.061 462.234 174.861Z" fill="url(#paint22_linear_2394_71820)"/>
<path d="M500.734 215.962C474.234 217.762 471.234 240.462 475.234 246.562C475.234 246.562 481.634 227.762 502.634 225.762C525.434 223.562 531.134 238.462 531.134 238.462C532.834 229.662 526.934 214.262 500.834 215.962H500.734Z" fill="#603F37"/>
<path d="M400.833 250.161C400.933 253.161 398.733 255.961 395.833 256.361C392.933 256.761 390.533 254.661 390.433 251.661C390.333 248.661 392.533 245.861 395.433 245.461C398.333 245.061 400.733 247.161 400.833 250.161Z" fill="#1E1D1D"/>
<path d="M508.534 241.561C508.634 244.561 506.434 247.361 503.534 247.761C500.634 248.161 498.234 246.061 498.134 243.061C498.034 240.061 500.234 237.261 503.134 236.861C506.034 236.461 508.434 238.561 508.534 241.561Z" fill="#1E1D1D"/>
<path opacity="0.8" d="M391.634 245.262C389.434 246.662 387.934 249.062 388.434 250.662C388.934 252.262 391.134 252.462 393.334 251.162C395.534 249.762 397.034 247.362 396.534 245.762C396.034 244.162 393.834 243.962 391.634 245.262Z" fill="white"/>
<path opacity="0.8" d="M498.534 235.761C496.134 237.461 494.734 240.461 495.334 242.261C495.934 244.161 498.434 244.161 500.834 242.461C503.234 240.761 504.634 237.761 504.034 235.961C503.434 234.061 500.934 234.061 498.534 235.761Z" fill="white"/>
<path opacity="0.1" d="M516.334 105.261C503.634 116.661 489.134 123.961 472.934 129.261C472.734 129.261 472.534 129.361 472.434 129.461C483.234 125.861 491.134 122.461 491.134 122.461C493.934 122.261 496.934 123.061 499.934 124.761C507.134 120.661 513.834 115.661 519.934 110.061C522.734 107.461 519.234 102.661 516.334 105.261Z" fill="black"/>
<path d="M399.635 320.761C399.635 320.761 407.335 363.261 456.335 355.661C508.835 347.461 502.535 305.861 502.535 305.861L399.635 320.861V320.761Z" fill="#FB755C"/>
<path d="M402.335 321.261C401.635 322.361 408.135 352.461 454.535 345.161C501.535 337.761 501.735 308.961 501.035 307.961C498.935 305.061 404.835 317.061 402.335 321.161V321.261Z" fill="url(#paint23_linear_2394_71820)"/>
<path d="M410.334 319.361C410.334 319.361 411.434 326.661 417.034 331.061C429.334 341.061 481.834 333.161 489.534 321.161C494.634 313.261 493.534 307.561 493.534 307.561L410.334 319.361Z" fill="#F7F0F0"/>
<path opacity="0.3" d="M493.534 307.561L410.334 319.361C410.334 319.361 411.434 326.061 416.334 330.561C418.634 324.361 432.334 331.561 452.334 328.661C473.834 325.661 479.934 319.161 484.534 319.261C487.434 319.361 487.634 320.961 487.334 323.461C488.234 322.761 488.934 321.961 489.434 321.161C494.534 313.261 493.434 307.561 493.434 307.561H493.534Z" fill="#C1BAB0"/>
<path d="M433.834 260.762C433.834 260.762 412.934 258.562 409.534 276.862C405.134 300.062 451.434 309.862 461.934 285.162C472.434 260.362 436.334 218.762 436.334 218.762C436.334 218.762 445.934 241.062 433.834 260.762Z" fill="#FF9E78"/>
<path d="M409.533 283.261C413.733 301.661 452.433 307.461 461.933 285.161C462.533 283.761 462.933 282.361 463.233 280.961C445.733 286.261 427.033 286.661 409.533 283.261Z" fill="url(#paint24_linear_2394_71820)"/>
<path opacity="0.2" d="M445.433 242.061L440.333 242.261C440.333 242.261 438.933 258.861 434.233 261.561C433.433 261.561 432.633 261.561 431.833 261.561C422.933 261.961 415.833 265.461 416.033 269.261C416.233 273.161 423.533 275.661 432.433 275.261C440.833 274.861 447.933 272.861 448.633 268.261C448.633 268.261 451.233 250.761 445.533 241.961L445.433 242.061Z" fill="white"/>
<path opacity="0.4" d="M397.133 261.762C392.233 262.262 387.433 261.562 382.633 261.762C380.033 261.862 379.533 265.762 381.833 266.762C386.933 268.962 393.133 268.262 398.433 266.962C401.433 266.262 400.033 261.462 397.133 261.762Z" fill="#ED6954"/>
<path opacity="0.4" d="M513.634 251.161C508.734 252.161 504.034 253.261 499.034 253.661C496.034 253.861 495.734 259.061 498.834 259.161C504.134 259.361 510.034 258.86 514.834 256.46C517.434 255.16 516.734 250.461 513.534 251.161H513.634Z" fill="#ED6954"/>
<path d="M557.333 82.6612C545.033 69.4612 539.133 68.2612 528.533 71.4612L557.333 82.6612Z" fill="url(#paint25_linear_2394_71820)"/>
<path d="M560.044 84.7059C562.267 78.2868 532.339 62.0955 493.198 48.5417C454.057 34.9878 420.525 29.2041 418.302 35.6232C416.079 42.0424 446.007 58.2336 485.149 71.7874C524.29 85.3412 557.822 91.1251 560.044 84.7059Z" fill="#0C4266"/>
<path d="M560.334 85.5611C558.134 91.9611 524.634 86.1611 485.434 72.5611C446.334 58.9611 416.134 41.661 418.434 35.261C420.734 28.861 420.534 33.5611 422.934 34.0611C425.334 34.5611 453.434 50.861 485.334 61.861C519.534 73.761 554.934 75.0611 559.734 82.6611C564.534 90.2611 560.634 84.661 560.334 85.461V85.5611Z" fill="#092E4C"/>
<defs>
<linearGradient id="paint0_linear_2394_71820" x1="120.234" y1="246.161" x2="1823.83" y2="1397.56" gradientUnits="userSpaceOnUse">
<stop stop-color="white"/>
<stop offset="1" stop-color="#A5B7C6"/>
</linearGradient>
<linearGradient id="paint1_linear_2394_71820" x1="511.648" y1="389.397" x2="525.374" y2="418.966" gradientUnits="userSpaceOnUse">
<stop stop-color="#DB7D67"/>
<stop offset="1" stop-color="#FF9E78"/>
</linearGradient>
<linearGradient id="paint2_linear_2394_71820" x1="501.834" y1="401.461" x2="501.834" y2="584.161" gradientUnits="userSpaceOnUse">
<stop stop-color="#DEEFFF"/>
<stop offset="1" stop-color="#CADBEF"/>
</linearGradient>
<linearGradient id="paint3_linear_2394_71820" x1="562.434" y1="479.76" x2="534.934" y2="436.06" gradientUnits="userSpaceOnUse">
<stop stop-color="#B3CBE2"/>
<stop offset="1" stop-color="#CADBEF"/>
</linearGradient>
<linearGradient id="paint4_linear_2394_71820" x1="365.234" y1="530.361" x2="671.534" y2="650.761" gradientUnits="userSpaceOnUse">
<stop stop-color="#B3CBE2"/>
<stop offset="1" stop-color="#CADBEF"/>
</linearGradient>
<linearGradient id="paint5_linear_2394_71820" x1="668.133" y1="666.761" x2="579.833" y2="517.261" gradientUnits="userSpaceOnUse">
<stop stop-color="#B3CBE2"/>
<stop offset="1" stop-color="#CADBEF"/>
</linearGradient>
<linearGradient id="paint6_linear_2394_71820" x1="371.933" y1="709.062" x2="326.733" y2="736.562" gradientUnits="userSpaceOnUse">
<stop stop-color="#DEEFFF"/>
<stop offset="1" stop-color="#CADBEF"/>
</linearGradient>
<linearGradient id="paint7_linear_2394_71820" x1="133.133" y1="466.262" x2="164.533" y2="473.362" gradientUnits="userSpaceOnUse">
<stop stop-color="#F28C70"/>
<stop offset="1" stop-color="#FF9E78"/>
</linearGradient>
<linearGradient id="paint8_linear_2394_71820" x1="72.2344" y1="404.062" x2="71.8344" y2="422.662" gradientUnits="userSpaceOnUse">
<stop stop-color="#FFB9A4"/>
<stop offset="1" stop-color="#FF9E78"/>
</linearGradient>
<linearGradient id="paint9_linear_2394_71820" x1="170.434" y1="411.362" x2="160.334" y2="448.963" gradientUnits="userSpaceOnUse">
<stop stop-color="#FFB9A4"/>
<stop offset="1" stop-color="#FF9E78"/>
</linearGradient>
<linearGradient id="paint10_linear_2394_71820" x1="187.234" y1="662.662" x2="262.534" y2="631.162" gradientUnits="userSpaceOnUse">
<stop stop-color="#F28C70"/>
<stop offset="1" stop-color="#FF9E78"/>
</linearGradient>
<linearGradient id="paint11_linear_2394_71820" x1="331.334" y1="610.862" x2="276.234" y2="637.462" gradientUnits="userSpaceOnUse">
<stop stop-color="#FFB9A4"/>
<stop offset="1" stop-color="#FF9E78"/>
</linearGradient>
<linearGradient id="paint12_linear_2394_71820" x1="321.453" y1="293.889" x2="370.694" y2="289.927" gradientUnits="userSpaceOnUse">
<stop stop-color="#F28C70"/>
<stop offset="1" stop-color="#FF9E78"/>
</linearGradient>
<linearGradient id="paint13_linear_2394_71820" x1="439.878" y1="124.848" x2="442.965" y2="163.224" gradientUnits="userSpaceOnUse">
<stop stop-color="#C6664F"/>
<stop offset="1" stop-color="#FF9E78"/>
</linearGradient>
<linearGradient id="paint14_linear_2394_71820" x1="555.687" y1="307.346" x2="605.725" y2="303.32" gradientUnits="userSpaceOnUse">
<stop stop-color="#F28C70"/>
<stop offset="1" stop-color="#FF9E78"/>
</linearGradient>
<linearGradient id="paint15_linear_2394_71820" x1="568.031" y1="262.513" x2="592.951" y2="260.508" gradientUnits="userSpaceOnUse">
<stop stop-color="#F28C70"/>
<stop offset="1" stop-color="#FF9E78"/>
</linearGradient>
<linearGradient id="paint16_linear_2394_71820" x1="458.067" y1="40.5495" x2="461.791" y2="135.779" gradientUnits="userSpaceOnUse">
<stop stop-color="#75483B"/>
<stop offset="0.4" stop-color="#704438"/>
<stop offset="0.7" stop-color="#623C2F"/>
<stop offset="1" stop-color="#563428"/>
</linearGradient>
<linearGradient id="paint17_linear_2394_71820" x1="489.712" y1="134.482" x2="496.214" y2="236.489" gradientUnits="userSpaceOnUse">
<stop stop-color="#C6664F"/>
<stop offset="1" stop-color="#FF9E78"/>
</linearGradient>
<linearGradient id="paint18_linear_2394_71820" x1="389.698" y1="140.822" x2="396.296" y2="244.025" gradientUnits="userSpaceOnUse">
<stop stop-color="#C6664F"/>
<stop offset="1" stop-color="#FF9E78"/>
</linearGradient>
<linearGradient id="paint19_linear_2394_71820" x1="392.144" y1="260.882" x2="400.46" y2="233.806" gradientUnits="userSpaceOnUse">
<stop stop-color="#704A3E"/>
<stop offset="1"/>
</linearGradient>
<linearGradient id="paint20_linear_2394_71820" x1="501.824" y1="247.568" x2="506.676" y2="230.73" gradientUnits="userSpaceOnUse">
<stop stop-color="#704A3E"/>
<stop offset="1"/>
</linearGradient>
<linearGradient id="paint21_linear_2394_71820" x1="411.52" y1="187.26" x2="412.323" y2="219.762" gradientUnits="userSpaceOnUse">
<stop stop-color="#75483B"/>
<stop offset="0.4" stop-color="#704438"/>
<stop offset="0.7" stop-color="#623C2F"/>
<stop offset="1" stop-color="#563428"/>
</linearGradient>
<linearGradient id="paint22_linear_2394_71820" x1="507.777" y1="185.821" x2="508.533" y2="215.522" gradientUnits="userSpaceOnUse">
<stop stop-color="#75483B"/>
<stop offset="0.4" stop-color="#704438"/>
<stop offset="0.7" stop-color="#623C2F"/>
<stop offset="1" stop-color="#563428"/>
</linearGradient>
<linearGradient id="paint23_linear_2394_71820" x1="451.92" y1="359.153" x2="451.855" y2="324.377" gradientUnits="userSpaceOnUse">
<stop stop-color="#7C302A"/>
<stop offset="0.2" stop-color="#772E28"/>
<stop offset="0.4" stop-color="#692A26"/>
<stop offset="0.7" stop-color="#522421"/>
<stop offset="1" stop-color="#2D1A19"/>
</linearGradient>
<linearGradient id="paint24_linear_2394_71820" x1="437.463" y1="295.59" x2="436.083" y2="278.446" gradientUnits="userSpaceOnUse">
<stop stop-color="#F28C70"/>
<stop offset="1" stop-color="#FF9E78"/>
</linearGradient>
<linearGradient id="paint25_linear_2394_71820" x1="542.815" y1="70.536" x2="543.073" y2="76.2302" gradientUnits="userSpaceOnUse">
<stop stop-color="#75483B"/>
<stop offset="0.4" stop-color="#704438"/>
<stop offset="0.7" stop-color="#623C2F"/>
<stop offset="1" stop-color="#563428"/>
</linearGradient>
</defs>
</svg>
