<svg width="250" height="270" viewBox="0 0 250 270" fill="none" xmlns="http://www.w3.org/2000/svg">
<path d="M144.567 107.148C141.75 106.689 138.687 106.414 135.35 106.23L134.676 86.116C134.523 79.9625 127.663 75.4315 119.212 76.0132C111.127 76.5949 104.482 82.0749 104.635 88.2285L105.248 108.342C101.604 109.077 98.2966 109.904 95.2344 110.975L96.4593 129.344L145.822 126.681L144.536 107.148H144.567Z" fill="url(#paint0_linear_4514_9634)"/>
<path d="M224.064 176.554C224.768 159.501 189.308 125.366 180.244 116.181C172.221 108.099 152.347 107.548 143.895 106.446C141.2 99.5882 135.168 100.568 135.168 100.568C134.249 111.926 120.99 115.998 120.99 115.998C108.496 112.232 105.189 104.578 105.189 104.578C100.35 104.885 97.6555 108.711 96.7674 110.242C83.6305 113.273 71.5959 118.631 64.0016 127.907C54.1413 140 45.1077 177.84 43.8828 195.412C43.8828 201.903 66.1758 215.159 73.9845 216.23C73.9845 216.23 73.4945 229.67 75.3931 241.886C75.7606 244.243 78.8228 246.814 79.2515 247.549C83.5999 254.927 174.425 252.325 176.202 246.508C176.6 245.161 181.009 240.875 181.04 238.793C181.285 225.905 182.479 209.403 180.427 183.197C188.512 190.759 203.578 201.29 214.663 195.106C221.614 191.249 223.697 184.82 224.033 176.554H224.064Z" fill="url(#paint1_linear_4514_9634)"/>
<path d="M143.923 106.447C142.484 110.09 138.503 121.234 136.39 122.551C134.369 123.836 126.009 117.928 122.61 115.417C121.661 115.815 121.048 115.999 121.048 115.999C120.528 115.846 120.038 115.662 119.548 115.509C116.302 117.897 109.014 122.979 106.135 122.949C102.889 122.949 98.357 113.121 96.8259 110.213C96.3666 110.335 95.1417 110.641 94.6211 110.764C96.2135 114.162 101.634 125.428 104.236 126.929C107.268 128.704 120.987 117.377 120.987 117.377C120.987 117.377 133.358 126.775 136.88 126.163C139.881 125.612 144.903 110.917 146.158 106.723C145.607 106.631 144.474 106.539 143.954 106.478L143.923 106.447Z" fill="url(#paint2_linear_4514_9634)"/>
<path d="M41.8605 191.922C41.5849 192.382 40.0232 217.669 41.0337 218.496C41.1868 218.618 43.0854 218.833 43.0854 218.833C49.4854 217.363 64.7353 219.139 68.8081 220.486C69.4511 220.7 69.8799 220.272 69.9411 220.119C70.4923 218.618 70.7679 193.943 70.7679 192.106C70.7679 190.269 42.6567 190.637 41.8299 191.953L41.8605 191.922Z" fill="#CADBEF"/>
<path d="M125 248.868L121.876 116.184L120.039 116.275C120.039 116.275 121.723 225.172 122.336 248.868H125Z" fill="url(#paint3_linear_4514_9634)"/>
<path d="M214.693 195.108C221.644 191.251 223.727 184.822 224.064 176.556C224.217 172.974 222.747 168.596 220.266 163.881C216.377 172.698 210.467 185.801 206.793 187.455C201.158 189.965 174.639 171.933 173.874 170.218C173.078 168.504 170.322 145.451 170.322 145.451H167.382C167.382 145.451 173.108 233.744 171.638 234.816C170.199 235.887 125.919 243.939 124.113 244.061C122.306 244.184 83.1094 237.51 80.9352 234.387C78.7611 231.264 83.1094 149.676 83.1094 149.676H81.3027L77.9649 190.179C67.3696 187.669 49.6393 189.016 49.5781 189.016C49.5781 189.751 49.5781 190.547 49.5781 191.22C53.3446 190.792 71.1055 191.588 72.6366 192.23C74.1677 192.873 73.5246 209.497 73.5246 209.497L73.0347 212.712C61.6126 210.232 44.2498 211.089 40.6976 211.303C40.6057 215.1 40.6976 218.773 41.0345 219.049C41.1876 219.171 67.7677 220.274 73.0041 221.559C73.2491 230.56 74.6577 236.897 75.4232 241.888C75.7907 244.245 79.251 248.164 79.7103 248.898C79.7103 248.898 102.401 250.092 124.358 249.847C149.253 249.572 175.558 247.123 175.558 247.123C175.956 245.776 181.07 240.877 181.101 238.826C181.346 225.937 182.54 209.436 180.488 183.23C188.572 190.792 203.639 201.323 214.724 195.139L214.693 195.108Z" fill="url(#paint4_linear_4514_9634)"/>
<path d="M180.52 174.625C180.52 174.625 184.745 177.84 185.235 177.717C185.725 177.625 211.448 165.594 218.124 162.9L215.245 157.603C215.245 157.603 184.684 147.807 180.52 174.625Z" fill="url(#paint5_linear_4514_9634)"/>
<path d="M43.2384 191.496C42.4422 191.619 41.9217 191.772 41.8298 191.925C41.7379 192.047 41.5542 194.343 41.3398 197.527C48.7504 197.925 72.452 199.058 72.7889 197.65C73.187 195.966 72.942 192.353 72.942 192.353C61.9486 190.272 43.2078 191.435 43.2078 191.496H43.2384Z" fill="url(#paint6_linear_4514_9634)"/>
<path d="M250 196.453H0V268.979H250V196.453Z" fill="white"/>
<path d="M156.359 196.392C149.653 199.913 143.865 202.821 141.875 204.046C138.445 206.036 126.533 213.108 122.276 218.22C117.285 224.221 119.214 228.078 119.214 228.078C119.214 228.078 115.938 235.548 115.019 240.783C114.1 245.988 112.171 266.285 114.223 268.551C116.275 270.816 119.429 270.265 120.225 268C121.021 265.734 122.583 250.335 122.828 248.896C122.828 248.896 123.073 253.825 126.809 253.488C130.544 253.182 131.524 249.815 131.524 249.815C131.524 249.815 133.515 251.07 135.934 250.427C138.353 249.815 139.854 247.427 139.854 247.427C139.854 247.427 141.599 249.478 146.07 247.672C150.541 245.865 153.266 227.16 153.909 226.333C155.073 224.864 159.023 222.874 159.85 222.476C159.911 222.476 159.972 222.414 160.003 222.384C163.004 220.516 196.26 205.852 206.855 196.361H156.267L156.359 196.392Z" fill="url(#paint7_linear_4514_9634)"/>
<path d="M138.933 197.924C138.933 197.924 123.377 206.619 118.386 212.62C113.394 218.62 115.324 222.478 115.324 222.478C115.324 222.478 112.047 229.948 111.128 235.183C110.21 240.387 108.281 260.685 110.332 262.95C112.384 265.216 115.538 264.665 116.334 262.369C117.13 260.103 118.692 244.704 118.937 243.265C118.937 243.265 119.182 248.194 122.918 247.857C126.654 247.551 127.634 244.183 127.634 244.183C127.634 244.183 129.624 245.439 132.043 244.796C134.463 244.183 135.963 241.795 135.963 241.795C135.963 241.795 137.708 243.847 142.179 242.04C146.65 240.234 149.376 221.528 150.019 220.702C151.335 219.049 156.143 216.783 156.143 216.783L138.872 197.863L138.933 197.924Z" fill="#FF9E78"/>
<path d="M137.984 198.444C142.639 195.628 167.841 183.596 177.181 176.402C186.521 169.207 196.687 158.217 211.906 163.421C227.126 168.656 220.389 184.637 216.5 189.505C209.12 198.781 159.328 214.854 156.174 216.813C153.02 218.773 137.984 198.444 137.984 198.444Z" fill="#FF9E78"/>
<path d="M216.53 189.506C220.389 184.638 227.156 168.658 211.937 163.422C210.375 162.902 208.875 162.535 207.405 162.32C224.798 168.382 219.348 183.169 212.886 189.782C206.425 196.364 156.664 212.375 150.754 218.988C150.356 219.417 150.172 220.274 149.988 221.009C150.019 220.886 150.05 220.794 150.08 220.764C159.236 214.457 207.65 200.742 216.53 189.537V189.506Z" fill="url(#paint8_linear_4514_9634)"/>
<path d="M119.489 213.997C119.887 213.354 118.815 213.048 118.325 212.711C113.426 218.65 115.355 222.477 115.355 222.477C115.355 222.477 118.57 215.466 119.489 213.997Z" fill="url(#paint9_linear_4514_9634)"/>
<path d="M142.242 242.071C142.303 242.071 142.364 242.009 142.426 241.979C142.426 241.979 142.487 241.948 142.517 241.918C142.548 241.918 142.579 241.887 142.609 241.856C142.64 241.856 142.701 241.795 142.732 241.764C142.732 241.764 142.762 241.764 142.793 241.734C142.854 241.703 142.885 241.642 142.946 241.611C146.56 238.519 148.795 224.528 149.775 221.375C148.856 224.038 144.293 238.244 141.905 239.04C138.567 240.172 137.22 237.723 136.24 237.846C135.26 237.968 134.617 240.479 132.198 240.999C129.779 241.52 128.462 238.305 127.298 238.581C126.134 238.825 125.859 240.968 122.98 241.06C120.133 241.152 119.03 239.285 118.755 239.438C118.724 239.438 118.693 239.499 118.663 239.591C118.663 239.713 118.632 239.866 118.632 240.05C118.356 243.142 116.58 259.368 115.355 261.94C114.529 263.685 111.099 264.389 110.333 261.786C109.721 259.827 110.823 237.172 110.885 236.805C109.935 243.693 108.619 260.837 110.119 263.195C111.558 265.491 115.57 264.634 116.366 262.368C117.162 260.103 118.724 244.703 118.969 243.265C118.969 243.265 119.122 246.265 120.959 247.428C120.99 247.428 121.051 247.489 121.082 247.52C121.143 247.52 121.174 247.581 121.235 247.612C121.541 247.765 121.909 247.857 122.276 247.887C122.276 247.887 122.276 247.887 122.307 247.887C122.399 247.887 122.46 247.887 122.552 247.887C122.644 247.887 122.766 247.887 122.858 247.887C125.093 247.704 126.349 246.418 126.992 245.408C127.053 245.316 127.084 245.255 127.145 245.163C127.206 245.04 127.298 244.918 127.329 244.795C127.512 244.428 127.574 244.183 127.574 244.183C127.574 244.183 128.217 244.581 129.197 244.795C129.319 244.795 129.411 244.857 129.534 244.857C129.901 244.918 130.268 244.948 130.697 244.948C131.095 244.948 131.524 244.887 131.983 244.765C134.403 244.152 135.903 241.764 135.903 241.764C135.903 241.764 136.515 242.499 137.955 242.713C138.016 242.713 138.108 242.713 138.2 242.713C138.353 242.713 138.537 242.713 138.72 242.713C139.608 242.713 140.741 242.53 142.15 241.979L142.242 242.071Z" fill="url(#paint10_linear_4514_9634)"/>
<path d="M113.488 232.398C113.488 232.398 139.027 236.592 142.272 233.255C145.518 229.918 148.764 216.417 148.764 216.417C148.764 216.417 212.765 190.517 216.378 182.098C220.022 173.679 215.827 164.372 204.038 163.361C196.168 162.688 180.305 176.648 175.345 179.802C170.384 182.955 131.34 203.038 125.89 208.12C120.439 213.172 112.691 229.55 113.457 232.398H113.488Z" fill="url(#paint11_linear_4514_9634)"/>
<path d="M88.6896 80.721C92.2732 79.7206 93.9948 74.672 92.5349 69.4444C91.075 64.2169 86.9864 60.79 83.4028 61.7903C79.8192 62.7906 78.0976 67.8393 79.5575 73.0669C81.0174 78.2944 85.106 81.7213 88.6896 80.721Z" fill="url(#paint12_linear_4514_9634)"/>
<path d="M141.872 30.0653C139.882 17.8194 105.37 12.0026 95.1731 28.8101C91.9271 36.6168 88.2218 51.1589 86.4457 65.609C86.4457 65.4559 86.4457 65.3641 86.4457 65.3641C86.4457 65.3641 76.6772 102.99 110.913 104.949C143.862 106.847 149.221 90.5906 147.813 68.1194C147.874 55.4755 144.444 39.464 141.872 30.0653Z" fill="url(#paint13_linear_4514_9634)"/>
<g opacity="0.4">
<path d="M143.303 75.2537C144.916 67.7314 140.889 60.4899 134.307 59.0793C127.725 57.6687 121.082 62.6231 119.469 70.1454C117.856 77.6676 121.884 84.9091 128.466 86.3198C135.047 87.7304 141.69 82.7759 143.303 75.2537Z" fill="#FF9E78"/>
<path d="M143.214 75.2321C144.82 67.7429 140.827 60.5368 134.295 59.1368C127.763 57.7368 121.166 62.6731 119.56 70.1623C117.954 77.6515 121.947 84.8576 128.479 86.2575C135.011 87.6575 141.608 82.7212 143.214 75.2321Z" fill="#FF9D77"/>
<path d="M143.153 75.22C144.749 67.7804 140.774 60.6203 134.275 59.2274C127.776 57.8345 121.214 62.7363 119.619 70.1759C118.024 77.6155 121.999 84.7756 128.498 86.1685C134.996 87.5614 141.558 82.6596 143.153 75.22Z" fill="#FF9C77"/>
<path d="M143.064 75.199C144.648 67.8091 140.705 60.6978 134.256 59.3155C127.807 57.9332 121.294 62.8035 119.709 70.1935C118.124 77.5834 122.068 84.6948 128.517 86.077C134.966 87.4593 141.479 82.589 143.064 75.199Z" fill="#FF9B76"/>
<path d="M143.003 75.187C144.577 67.8466 140.652 60.7813 134.235 59.4061C127.819 58.0309 121.342 62.8667 119.768 70.2071C118.194 77.5475 122.119 84.6128 128.535 85.988C134.952 87.3632 141.429 82.5274 143.003 75.187Z" fill="#FF9A76"/>
<path d="M142.913 75.17C144.477 67.8792 140.583 60.8626 134.217 59.4981C127.85 58.1336 121.422 62.9377 119.858 70.2285C118.295 77.5193 122.188 84.5359 128.555 85.9004C134.922 87.2649 141.35 82.4607 142.913 75.17Z" fill="#FF9975"/>
<path d="M142.854 75.156C144.407 67.9148 140.532 60.9442 134.198 59.5868C127.865 58.2293 121.472 62.999 119.919 70.2402C118.366 77.4814 122.242 84.452 128.575 85.8094C134.909 87.1669 141.302 82.3972 142.854 75.156Z" fill="#FF9875"/>
<path d="M142.765 75.1369C144.307 67.9454 140.463 61.0236 134.179 59.6768C127.895 58.33 121.551 63.0681 120.009 70.2597C118.467 77.4513 122.311 84.3731 128.595 85.7199C134.879 87.0667 141.223 82.3285 142.765 75.1369Z" fill="#FF9774"/>
<path d="M142.706 75.123C144.237 67.981 140.412 61.1052 134.161 59.7654C127.91 58.4257 121.601 63.1294 120.07 70.2714C118.538 77.4134 122.364 84.2892 128.615 85.6289C134.866 86.9686 141.174 82.265 142.706 75.123Z" fill="#FF9674"/>
<path d="M142.614 75.1039C144.135 68.0115 140.341 61.1846 134.14 59.8555C127.939 58.5264 121.679 63.1985 120.158 70.2909C118.637 77.3833 122.431 84.2103 128.633 85.5393C134.834 86.8684 141.094 82.1963 142.614 75.1039Z" fill="#FF9573"/>
<path d="M142.554 75.0919C144.064 68.0491 140.288 61.2681 134.12 59.9461C127.952 58.6241 121.727 63.2617 120.217 70.3045C118.707 77.3473 122.483 84.1283 128.651 85.4503C134.819 86.7723 141.043 82.1347 142.554 75.0919Z" fill="#FF9472"/>
<path d="M142.464 75.0709C143.964 68.0777 140.219 61.3455 134.101 60.0342C127.982 58.7228 121.807 63.3288 120.307 70.3221C118.807 77.3153 122.552 84.0474 128.67 85.3588C134.789 86.6702 140.964 82.0642 142.464 75.0709Z" fill="#FF9372"/>
<path d="M142.375 75.0539C143.863 68.1103 140.151 61.4269 134.082 60.1262C128.013 58.8254 121.886 63.3999 120.397 70.3435C118.908 77.2871 122.621 83.9705 128.69 85.2712C134.759 86.5719 140.886 81.9975 142.375 75.0539Z" fill="#FF9271"/>
<path d="M142.314 75.0412C143.796 68.1307 140.104 61.4799 134.069 60.1862C128.033 58.8926 121.938 63.4459 120.457 70.3565C118.975 77.267 122.666 83.9178 128.702 85.2115C134.738 86.5051 140.832 81.9518 142.314 75.0412Z" fill="#FF9171"/>
<path d="M142.227 75.0222C143.698 68.1612 140.038 61.5592 134.051 60.2762C128.065 58.9932 122.02 63.515 120.549 70.376C119.077 77.2369 122.738 83.8389 128.724 85.1219C134.71 86.4049 140.755 81.8831 142.227 75.0222Z" fill="#FF9070"/>
<path d="M142.166 75.0082C143.626 68.1968 139.984 61.6408 134.031 60.3649C128.078 59.089 122.068 63.5763 120.608 70.3877C119.147 77.199 122.789 83.755 128.742 85.031C134.695 86.3069 140.705 81.8195 142.166 75.0082Z" fill="#FF8F70"/>
<path d="M142.078 74.9911C143.528 68.2294 139.918 61.7222 134.014 60.4569C128.111 59.1916 122.15 63.6473 120.7 70.4091C119.25 77.1709 122.86 83.6781 128.763 84.9434C134.667 86.2087 140.628 81.7529 142.078 74.9911Z" fill="#FF8E6F"/>
<path d="M142.013 74.9771C143.453 68.265 139.86 61.8037 133.99 60.5455C128.12 59.2873 122.194 63.7086 120.755 70.4208C119.315 77.1329 122.907 83.5942 128.778 84.8524C134.648 86.1106 140.574 81.6893 142.013 74.9771Z" fill="#FF8D6F"/>
<path d="M141.926 74.9562C143.354 68.2936 139.794 61.8812 133.973 60.6336C128.152 59.3861 122.275 63.7758 120.847 70.4383C119.418 77.1009 122.978 83.5133 128.799 84.7609C134.62 86.0085 140.497 81.6187 141.926 74.9562Z" fill="#FF8C6E"/>
<path d="M141.865 74.9441C143.283 68.3312 139.741 61.9647 133.953 60.7242C128.165 59.4837 122.324 63.839 120.905 70.452C119.487 77.0649 123.03 83.4314 128.818 84.6719C134.605 85.9124 140.447 81.5571 141.865 74.9441Z" fill="#FF8B6E"/>
<path d="M141.777 74.9271C143.185 68.3637 139.674 62.0461 133.936 60.8162C128.198 59.5864 122.405 63.91 120.998 70.4734C119.59 77.0368 123.101 83.3544 128.839 84.5843C134.577 85.8141 140.37 81.4904 141.777 74.9271Z" fill="#FF8A6D"/>
<path d="M141.686 74.9061C143.083 68.3923 139.603 62.1235 133.915 60.9043C128.226 59.6851 122.482 63.9772 121.086 70.4909C119.689 77.0047 123.168 83.2735 128.857 84.4927C134.545 85.712 140.289 81.4199 141.686 74.9061Z" fill="#FF896C"/>
<path d="M141.627 74.8941C143.013 68.4299 139.552 62.207 133.896 60.9949C128.241 59.7828 122.533 64.0404 121.147 70.5046C119.76 76.9687 123.221 83.1916 128.877 84.4037C134.532 85.6159 140.241 81.3582 141.627 74.8941Z" fill="#FF886C"/>
<path d="M141.535 74.8731C142.911 68.4585 139.481 62.2845 133.876 61.083C128.27 59.8815 122.61 64.1075 121.235 70.5221C119.859 76.9367 123.289 83.1107 128.894 84.3122C134.5 85.5137 140.16 81.2877 141.535 74.8731Z" fill="#FF876B"/>
<path d="M141.476 74.8611C142.841 68.4961 139.43 62.368 133.857 61.1736C128.284 59.9792 122.66 64.1708 121.296 70.5357C119.931 76.9007 123.342 83.0288 128.915 84.2232C134.487 85.4176 140.112 81.2261 141.476 74.8611Z" fill="#FF866B"/>
<path d="M141.387 74.8421C142.741 68.5267 139.361 62.4474 133.838 61.2636C128.315 60.0799 122.74 64.2398 121.386 70.5552C120.031 76.8706 123.411 82.9499 128.934 84.1336C134.457 85.3174 140.033 81.1574 141.387 74.8421Z" fill="#FF856A"/>
<path d="M141.328 74.8294C142.676 68.5471 139.317 62.5004 133.827 61.3237C128.337 60.147 122.794 64.2859 121.447 70.5682C120.1 76.8505 123.458 82.8973 128.949 84.0739C134.439 85.2506 139.981 81.1117 141.328 74.8294Z" fill="#FF846A"/>
<path d="M141.237 74.8084C142.573 68.5757 139.247 62.5778 133.806 61.4117C128.366 60.2457 122.872 64.353 121.535 70.5858C120.199 76.8185 123.526 82.8164 128.966 83.9824C134.407 85.1485 139.9 81.0411 141.237 74.8084Z" fill="#FF8369"/>
<path d="M141.178 74.7964C142.504 68.6133 139.195 62.6613 133.788 61.5023C128.38 60.3434 122.922 64.4163 121.596 70.5994C120.27 76.7825 123.579 82.7344 128.986 83.8934C134.394 85.0524 139.852 80.9795 141.178 74.7964Z" fill="#FF8269"/>
<path d="M141.088 74.7793C142.404 68.6458 139.127 62.7427 133.769 61.5944C128.411 60.446 123.001 64.4873 121.686 70.6208C120.371 76.7544 123.648 82.6575 129.006 83.8058C134.364 84.9541 139.773 80.9128 141.088 74.7793Z" fill="#FF8168"/>
<path d="M141.028 74.7653C142.332 68.6814 139.073 62.8243 133.748 61.683C128.424 60.5418 123.05 64.5486 121.745 70.6325C120.44 76.7164 123.699 82.5736 129.024 83.7148C134.349 84.8561 139.723 80.8493 141.028 74.7653Z" fill="#FF8067"/>
<path d="M140.936 74.7444C142.23 68.71 139.003 62.9017 133.728 61.7711C128.452 60.6405 123.127 64.6157 121.833 70.6501C120.539 76.6844 123.767 82.4927 129.042 83.6233C134.317 84.7539 139.642 80.7787 140.936 74.7444Z" fill="#FF7F67"/>
<path d="M140.847 74.7273C142.13 68.7426 138.934 62.9831 133.709 61.8631C128.483 60.7431 123.207 64.6868 121.923 70.6715C120.64 76.6562 123.836 82.4157 129.061 83.5357C134.287 84.6557 139.563 80.712 140.847 74.7273Z" fill="#FF7E66"/>
<path d="M140.79 74.7133C142.062 68.7782 138.885 63.0646 133.692 61.9517C128.5 60.8388 123.259 64.748 121.986 70.6832C120.713 76.6183 123.891 82.3319 129.083 83.4448C134.276 84.5576 139.517 80.6484 140.79 74.7133Z" fill="#FF7D66"/>
<path d="M140.698 74.6943C141.96 68.8088 138.814 63.144 133.671 62.0418C128.528 60.9395 123.336 64.8171 122.074 70.7027C120.812 76.5882 123.958 82.2529 129.101 83.3552C134.244 84.4574 139.436 80.5798 140.698 74.6943Z" fill="#FF7C65"/>
<path d="M140.639 74.6803C141.891 68.8444 138.763 63.2256 133.653 62.1304C128.543 61.0353 123.386 64.8784 122.135 70.7144C120.884 76.5503 124.011 82.1691 129.121 83.2642C134.231 84.3594 139.388 80.5163 140.639 74.6803Z" fill="#FF7B65"/>
<path d="M140.548 74.6633C141.788 68.8769 138.692 63.307 133.632 62.2224C128.572 61.1379 123.464 64.9495 122.223 70.7358C120.982 76.5221 124.079 82.0921 129.139 83.1766C134.199 84.2612 139.307 80.4496 140.548 74.6633Z" fill="#FF7A64"/>
<path d="M140.489 74.6493C141.719 68.9125 138.641 63.3885 133.614 62.3111C128.587 61.2336 123.514 65.0107 122.284 70.7475C121.054 76.4842 124.132 82.0082 129.159 83.0857C134.186 84.1631 139.259 80.386 140.489 74.6493Z" fill="#FF7964"/>
<path d="M140.4 74.6296C141.623 68.9259 138.579 63.4374 133.602 62.3705C128.624 61.3037 123.598 65.0626 122.375 70.7663C121.152 76.47 124.195 81.9586 129.173 83.0254C134.15 84.0922 139.177 80.3333 140.4 74.6296Z" fill="#FF7863"/>
<path d="M140.339 74.6176C141.551 68.9635 138.526 63.5209 133.581 62.4611C128.637 61.4014 123.646 65.1259 122.434 70.78C121.221 76.434 124.247 81.8767 129.191 82.9364C134.135 83.9961 139.126 80.2716 140.339 74.6176Z" fill="#FF7762"/>
<path d="M140.249 74.5986C141.451 68.9941 138.457 63.6003 133.563 62.5512C128.668 61.5021 123.725 65.195 122.524 70.7994C121.322 76.4039 124.316 81.7977 129.21 82.8468C134.105 83.8959 139.048 80.203 140.249 74.5986Z" fill="#FF7762"/>
<path d="M140.16 74.5776C141.351 69.0227 138.389 63.6777 133.544 62.6393C128.698 61.6008 123.805 65.2621 122.614 70.817C121.423 76.3719 124.385 81.7168 129.23 82.7553C134.075 83.7938 138.969 80.1325 140.16 74.5776Z" fill="#FF7661"/>
<path d="M140.101 74.5656C141.281 69.0603 138.337 63.7613 133.525 62.7299C128.713 61.6985 123.855 65.3253 122.675 70.8306C121.494 76.3359 124.438 81.6349 129.25 82.6663C134.062 83.6977 138.92 80.0708 140.101 74.5656Z" fill="#FF7561"/>
<path d="M140.009 74.5465C141.179 69.0908 138.267 63.8407 133.504 62.8199C128.742 61.7992 123.933 65.3944 122.763 70.8501C121.593 76.3058 124.505 81.556 129.268 82.5767C134.03 83.5975 138.839 80.0022 140.009 74.5465Z" fill="#FF7460"/>
<path d="M139.95 74.5365C141.11 69.1304 138.215 63.9261 133.486 62.9125C128.757 61.8988 123.983 65.4596 122.824 70.8657C121.664 76.2718 124.559 81.476 129.288 82.4897C134.017 83.5033 138.791 79.9425 139.95 74.5365Z" fill="#FF7360"/>
<path d="M139.859 74.5155C141.008 69.159 138.145 64.0036 133.465 63.0006C128.785 61.9975 124.06 65.5267 122.912 70.8832C121.763 76.2397 124.626 81.3951 129.306 82.3982C133.985 83.4012 138.71 79.872 139.859 74.5155Z" fill="#FF725F"/>
<path d="M139.8 74.5015C140.938 69.1946 138.094 64.0851 133.447 63.0892C128.8 62.0933 124.111 65.588 122.973 70.8949C121.835 76.2018 124.679 81.3113 129.326 82.3072C133.973 83.3031 138.662 79.8084 139.8 74.5015Z" fill="#FF715F"/>
<path d="M139.71 74.4825C140.838 69.2252 138.025 64.1646 133.428 63.1793C128.831 62.194 124.19 65.6571 123.063 70.9144C121.935 76.1717 124.748 81.2323 129.345 82.2176C133.942 83.2029 138.583 79.7398 139.71 74.4825Z" fill="#FF705E"/>
<path d="M139.651 74.4704C140.768 69.2627 137.974 64.2481 133.409 63.2698C128.845 62.2916 124.24 65.7203 123.124 70.928C122.007 76.1357 124.801 81.1504 129.366 82.1286C133.93 83.1068 138.535 79.6782 139.651 74.4704Z" fill="#FF6F5E"/>
<path d="M139.56 74.4495C140.666 69.2914 137.903 64.3255 133.389 63.3579C128.874 62.3904 124.318 65.7875 123.212 70.9456C122.106 76.1037 124.869 81.0695 129.383 82.0371C133.898 83.0047 138.454 79.6076 139.56 74.4495Z" fill="#FF6E5D"/>
<path d="M139.47 74.4305C140.566 69.322 137.834 64.4049 133.37 63.448C128.905 62.491 124.397 65.8566 123.302 70.9651C122.206 76.0736 124.938 80.9906 129.403 81.9475C133.868 82.9045 138.375 79.539 139.47 74.4305Z" fill="#FF6D5C"/>
<path d="M139.41 74.4158C140.498 69.3404 137.788 64.4559 133.356 63.506C128.925 62.5562 124.45 65.9006 123.361 70.9761C122.273 76.0515 124.983 80.936 129.415 81.8859C133.847 82.8357 138.322 79.4913 139.41 74.4158Z" fill="#FF6C5C"/>
<path d="M139.321 74.4007C140.398 69.3749 137.72 64.5392 133.337 63.6C128.955 62.6608 124.529 65.9737 123.451 70.9995C122.374 76.0254 125.052 80.861 129.435 81.8002C133.817 82.7394 138.243 79.4266 139.321 74.4007Z" fill="#FF6B5B"/>
<path d="M139.262 74.3867C140.329 69.4105 137.668 64.6208 133.319 63.6886C128.97 62.7565 124.579 66.0349 123.512 71.0112C122.445 75.9874 125.106 80.7771 129.455 81.7093C133.804 82.6414 138.195 79.363 139.262 74.3867Z" fill="#FF6A5B"/>
<path d="M139.172 74.3658C140.229 69.4391 137.6 64.6983 133.3 63.7767C129.001 62.8552 124.659 66.1021 123.602 71.0287C122.546 75.9554 125.175 80.6962 129.474 81.6177C133.774 82.5392 138.116 79.2924 139.172 74.3658Z" fill="#FF695A"/>
<path d="M139.113 74.3537C140.159 69.4767 137.548 64.7818 133.282 63.8673C129.015 62.9529 124.709 66.1653 123.663 71.0423C122.617 75.9194 125.228 80.6143 129.495 81.5287C133.761 82.4432 138.067 79.2308 139.113 74.3537Z" fill="#FF685A"/>
<path d="M139.022 74.3347C140.057 69.5073 137.478 64.8612 133.261 63.9574C129.044 63.0536 124.786 66.2344 123.751 71.0618C122.716 75.8893 125.295 80.5354 129.512 81.4392C133.729 82.343 137.987 79.1622 139.022 74.3347Z" fill="#FF6759"/>
<path d="M138.961 74.3227C139.985 69.5448 137.424 64.9447 133.241 64.048C129.057 63.1513 124.835 66.2976 123.81 71.0755C122.786 75.8533 125.347 80.4535 129.53 81.3502C133.714 82.2469 137.936 79.1006 138.961 74.3227Z" fill="#FF6659"/>
<path d="M138.871 74.3017C139.885 69.5734 137.356 65.0221 133.222 64.1361C129.087 63.25 124.914 66.3647 123.9 71.093C122.886 75.8213 125.416 80.3726 129.55 81.2587C133.684 82.1447 137.857 79.03 138.871 74.3017Z" fill="#FF6558"/>
<path d="M138.812 74.2897C139.816 69.611 137.304 65.1057 133.203 64.2267C129.102 63.3477 124.964 66.428 123.961 71.1066C122.958 75.7853 125.469 80.2907 129.57 81.1696C133.671 82.0486 137.809 78.9684 138.812 74.2897Z" fill="#FF6457"/>
<path d="M138.723 74.2726C139.715 69.6435 137.236 65.187 133.184 64.3187C129.133 63.4503 125.044 66.499 124.051 71.1281C123.059 75.7572 125.538 80.2137 129.59 81.082C133.641 81.9504 137.73 78.9017 138.723 74.2726Z" fill="#FF6357"/>
<path d="M138.633 74.2516C139.615 69.6722 137.167 65.2645 133.165 64.4068C129.164 63.549 125.123 66.5661 124.141 71.1456C123.159 75.7251 125.607 80.1328 129.609 80.9905C133.611 81.8482 137.651 78.8311 138.633 74.2516Z" fill="#FF6256"/>
<path d="M138.572 74.2396C139.544 69.7097 137.114 65.348 133.145 64.4974C129.176 63.6467 125.172 66.6294 124.2 71.1593C123.229 75.6891 125.659 80.0509 129.627 80.9015C133.596 81.7521 137.601 78.7695 138.572 74.2396Z" fill="#FF6156"/>
<path d="M138.481 74.218C139.446 69.7212 137.05 65.3949 133.131 64.5549C129.212 63.7149 125.253 66.6793 124.289 71.1762C123.325 75.673 125.72 79.9993 129.639 80.8393C133.558 81.6793 137.517 78.7148 138.481 74.218Z" fill="#FF6055"/>
<path d="M138.422 74.206C139.376 69.7588 136.999 65.4784 133.113 64.6455C129.227 63.8126 125.303 66.7426 124.35 71.1898C123.396 75.637 125.773 79.9174 129.659 80.7503C133.545 81.5832 137.469 78.6532 138.422 74.206Z" fill="#FF5F55"/>
<path d="M138.333 74.187C139.276 69.7893 136.93 65.5578 133.094 64.7355C129.257 63.9133 125.383 66.8117 124.44 71.2093C123.497 75.6069 125.842 79.8384 129.679 80.6607C133.515 81.483 137.39 78.5846 138.333 74.187Z" fill="#FF5E54"/>
<path d="M138.272 74.1749C139.204 69.8269 136.877 65.6413 133.074 64.8261C129.27 64.011 125.431 66.8749 124.499 71.2229C123.566 75.5709 125.894 79.7565 129.697 80.5717C133.501 81.3869 137.34 78.5229 138.272 74.1749Z" fill="#FF5D54"/>
<path d="M138.184 74.154C139.106 69.8555 136.81 65.7188 133.057 64.9142C129.303 64.1097 125.513 66.942 124.591 71.2404C123.669 75.5389 125.965 79.6756 129.719 80.4802C133.472 81.2847 137.263 78.4524 138.184 74.154Z" fill="#FF5C53"/>
<path d="M138.124 74.1439C139.035 69.895 136.757 65.8042 133.036 65.0068C129.316 64.2093 125.561 67.0072 124.65 71.256C123.739 75.5049 126.016 79.5957 129.737 80.3931C133.458 81.1906 137.212 78.3927 138.124 74.1439Z" fill="#FF5B53"/>
<path d="M138.032 74.1229C138.933 69.9237 136.686 65.8817 133.015 65.0949C129.344 64.308 125.638 67.0743 124.738 71.2736C123.837 75.4728 126.083 79.5148 129.755 80.3016C133.426 81.0884 137.132 78.3221 138.032 74.1229Z" fill="#FF5A52"/>
<path d="M137.943 74.1039C138.832 69.9543 136.618 65.9611 132.996 65.1849C129.375 64.4087 125.718 67.1434 124.828 71.2931C123.938 75.4427 126.153 79.4359 129.774 80.2121C133.396 80.9882 137.053 78.2535 137.943 74.1039Z" fill="#FF5951"/>
<path d="M137.884 74.0919C138.763 69.9918 136.566 66.0446 132.978 65.2755C129.39 64.5064 125.768 67.2067 124.889 71.3067C124.01 75.4067 126.206 79.3539 129.794 80.123C133.383 80.8921 137.004 78.1919 137.884 74.0919Z" fill="#FF5851"/>
<path d="M137.794 74.0728C138.663 70.0224 136.498 66.124 132.959 65.3655C129.42 64.6071 125.847 67.2757 124.979 71.3262C124.11 75.3766 126.275 79.275 129.814 80.0335C133.353 80.7919 136.925 78.1233 137.794 74.0728Z" fill="#FF5750"/>
<path d="M137.735 74.0569C138.593 70.056 136.447 66.2036 132.941 65.4522C129.435 64.7008 125.898 67.3351 125.04 71.3359C124.182 75.3368 126.328 79.1892 129.834 79.9406C133.34 80.6919 136.877 78.0577 137.735 74.0569Z" fill="#FF5650"/>
<path d="M137.646 74.0398C138.493 70.0886 136.378 66.285 132.922 65.5442C129.466 64.8035 125.977 67.4061 125.13 71.3574C124.283 75.3086 126.397 79.1122 129.854 79.853C133.31 80.5937 136.798 77.9911 137.646 74.0398Z" fill="#FF554F"/>
<path d="M137.583 74.0258C138.419 70.1242 136.323 66.3665 132.9 65.6329C129.477 64.8992 126.023 67.4674 125.187 71.369C124.35 75.2707 126.447 79.0283 129.87 79.762C133.293 80.4957 136.746 77.9275 137.583 74.0258Z" fill="#FF544F"/>
<path d="M137.494 74.0101C138.323 70.1415 136.261 66.4193 132.888 65.6963C129.514 64.9732 126.107 67.5232 125.277 71.3918C124.448 75.2604 126.51 78.9826 129.884 79.7056C133.257 80.4287 136.664 77.8787 137.494 74.0101Z" fill="#FF534E"/>
<path d="M137.433 73.9961C138.252 70.1771 136.208 66.5008 132.867 65.7849C129.527 65.069 126.155 67.5845 125.336 71.4035C124.517 75.2225 126.561 78.8987 129.902 79.6147C133.242 80.3306 136.614 77.8151 137.433 73.9961Z" fill="#FF524E"/>
<path d="M137.345 73.9751C138.154 70.2058 136.141 66.5783 132.85 65.873C129.56 65.1677 126.237 67.6516 125.428 71.421C124.62 75.1904 126.633 78.8179 129.923 79.5232C133.214 80.2285 136.537 77.7445 137.345 73.9751Z" fill="#FF514D"/>
</g>
<path d="M158.571 73.4199C160.185 68.238 158.614 63.1404 155.062 62.0343C151.509 60.9281 147.321 64.2322 145.706 69.4141C144.092 74.5961 145.663 79.6936 149.215 80.7998C152.768 81.9059 156.956 78.6019 158.571 73.4199Z" fill="#FF9E78"/>
<path d="M155.437 74.1208C152.038 76.2944 148.425 75.5597 145.822 73.4472C145.822 74.7637 145.761 76.4781 145.455 78.4374H145.516L145.332 91.4487C146.771 88.1729 147.506 84.3461 147.812 80.0906C148.149 80.305 148.486 80.4886 148.854 80.6417C152.345 81.8969 156.57 78.7436 158.285 73.6003C158.714 72.2839 158.959 70.9368 158.99 69.6816C158.377 71.4573 157.213 73.0186 155.407 74.1514L155.437 74.1208Z" fill="url(#paint14_linear_4514_9634)"/>
<path d="M149.373 71.3017L152.558 71.7609C152.558 66.7095 156.294 65.0563 156.294 65.0563C150.23 62.852 149.373 71.3017 149.373 71.3017Z" fill="url(#paint15_linear_4514_9634)"/>
<path d="M129.072 7.90008C119.304 1.44037 106.565 0.919922 106.565 0.919922C106.044 1.74652 105.799 3.06295 105.983 4.01201C97.9905 3.73648 91.7436 4.56307 91.7436 4.56307C89.9981 14.0843 92.6623 19.748 95.5714 22.9625C96.6431 24.1565 98.1743 26.1158 102.492 28.0446C102.492 28.0446 107.085 30.6774 114.343 30.8305C120.835 30.9836 130.083 27.5854 130.083 27.5854C136.544 27.4323 145.547 47.5155 146.404 63.6495C146.588 67.3539 149.803 63.0984 149.803 63.0984C149.803 63.0984 150.14 59.0573 149.865 53.3017C149.865 53.2711 154.917 27.2792 149.375 17.5437" fill="url(#paint16_linear_4514_9634)"/>
<path d="M92.664 18.3418C82.9567 21.2808 86.3252 56.5796 86.5395 62.3964C86.5395 62.825 86.5395 63.1005 86.4783 63.5598C86.4783 63.7741 87.2438 63.7128 87.1826 63.4985C87.0907 63.1618 87.1826 62.5801 87.2132 62.3658C88.5606 51.6506 97.1348 28.2916 102.494 28.0161C102.494 28.0161 97.3492 24.924 92.664 18.3418Z" fill="#59352C"/>
<g opacity="0.4">
<path d="M101.939 85.0411C108.4 83.9949 112.614 76.8281 111.351 69.0336C110.088 61.2392 103.827 55.7686 97.3663 56.8147C90.9055 57.8609 86.6916 65.0277 87.9544 72.8222C89.2171 80.6166 95.4783 86.0872 101.939 85.0411Z" fill="#FF9E78"/>
<path d="M101.93 84.9817C108.341 83.9437 112.519 76.8105 111.261 69.0494C110.004 61.2883 103.788 55.8382 97.3772 56.8763C90.9665 57.9143 86.7888 65.0475 88.0461 72.8086C89.3035 80.5697 95.5197 86.0198 101.93 84.9817Z" fill="#FF9D77"/>
<path d="M101.917 84.8883C108.294 83.8557 112.451 76.7675 111.202 69.0565C109.953 61.3455 103.77 55.9315 97.3929 56.9642C91.0156 57.9969 86.8584 65.085 88.1076 72.7961C89.3568 80.5071 95.5394 85.921 101.917 84.8883Z" fill="#FF9C77"/>
<path d="M101.9 84.7978C108.227 83.7733 112.351 76.7323 111.11 69.0714C109.868 61.4104 103.733 56.0305 97.4058 57.0551C91.0785 58.0796 86.9553 65.1206 88.1964 72.7816C89.4376 80.4425 95.5729 85.8224 101.9 84.7978Z" fill="#FF9B76"/>
<path d="M101.885 84.7084C108.178 83.6892 112.281 76.6932 111.048 69.0823C109.815 61.4714 103.713 56.1277 97.4195 57.1469C91.1256 58.166 87.023 65.162 88.256 72.7729C89.489 80.3838 95.5907 85.7275 101.885 84.7084Z" fill="#FF9A76"/>
<path d="M101.87 84.6179C108.114 83.6068 112.182 76.658 110.958 69.0972C109.733 61.5364 103.678 56.2267 97.4343 57.2377C91.1905 58.2488 87.1219 65.1976 88.3468 72.7584C89.5716 80.3192 95.6262 85.6289 101.87 84.6179Z" fill="#FF9975"/>
<path d="M101.856 84.5264C108.067 83.5208 112.115 76.6169 110.898 69.1062C109.681 61.5954 103.66 56.322 97.45 57.3276C91.2396 58.3332 87.1915 65.2371 88.4082 72.7478C89.625 80.2586 95.6459 85.532 101.856 84.5264Z" fill="#FF9875"/>
<path d="M101.842 84.436C108.002 83.4384 112.016 76.5817 110.808 69.1211C109.599 61.6604 103.625 56.4209 97.4648 57.4185C91.3045 58.416 87.2904 65.2727 88.499 72.7334C89.7077 80.194 95.6814 85.4335 101.842 84.436Z" fill="#FF9774"/>
<path d="M101.828 84.3484C107.955 83.3563 111.949 76.5446 110.748 69.134C109.548 61.7234 103.607 56.5201 97.4805 57.5122C91.3536 58.5043 87.36 65.3161 88.5605 72.7267C89.7611 80.1373 95.7012 85.3405 101.828 84.3484Z" fill="#FF9674"/>
<path d="M101.814 84.256C107.89 83.272 111.85 76.5074 110.658 69.1469C109.465 61.7864 103.572 56.6171 97.4953 57.6011C91.4185 58.5851 87.4589 65.3497 88.6513 72.7102C89.8437 80.0708 95.7367 85.24 101.814 84.256Z" fill="#FF9573"/>
<path d="M101.798 84.1645C107.841 83.1859 111.78 76.4663 110.596 69.1559C109.412 61.8454 103.553 56.7124 97.5091 57.691C91.4656 58.6696 87.5265 65.3892 88.7108 72.6996C89.8951 80.0101 95.7544 85.1431 101.798 84.1645Z" fill="#FF9472"/>
<path d="M101.781 84.0741C107.775 83.1036 111.68 76.4311 110.504 69.1707C109.327 61.9104 103.515 56.8114 97.5219 57.7819C91.5285 58.7523 87.6234 65.4248 88.7996 72.6852C89.9759 79.9455 95.788 85.0445 101.781 84.0741Z" fill="#FF9372"/>
<path d="M101.768 83.9826C107.728 83.0175 111.612 76.3901 110.444 69.1798C109.276 61.9694 103.498 56.9067 97.5376 57.8717C91.5776 58.8368 87.693 65.4643 88.8611 72.6746C90.0292 79.8849 95.8077 84.9477 101.768 83.9826Z" fill="#FF9271"/>
<path d="M101.753 83.8921C107.663 82.9352 111.514 76.3549 110.354 69.1946C109.194 62.0344 103.462 57.0056 97.5524 57.9626C91.6425 58.9195 87.7919 65.4998 88.9519 72.6601C90.1119 79.8203 95.8432 84.8491 101.753 83.8921Z" fill="#FF9171"/>
<path d="M101.739 83.8026C107.616 82.8511 111.446 76.3158 110.294 69.2056C109.142 62.0954 103.445 57.1028 97.5681 58.0544C91.6916 59.006 87.8615 65.5413 89.0134 72.6515C90.1653 79.7616 95.8629 84.7542 101.739 83.8026Z" fill="#FF9070"/>
<path d="M101.725 83.7121C107.551 82.7687 111.347 76.2805 110.204 69.2204C109.06 62.1603 103.409 57.2018 97.5829 58.1453C91.7565 59.0887 87.9604 65.5769 89.1042 72.637C90.2479 79.6971 95.8984 84.6556 101.725 83.7121Z" fill="#FF8F70"/>
<path d="M101.709 83.6226C107.502 82.6846 111.278 76.2414 110.142 69.2314C109.007 62.2214 103.39 57.299 97.5967 58.2371C91.8036 59.1751 88.0281 65.6183 89.1637 72.6283C90.2994 79.6384 95.9162 84.5607 101.709 83.6226Z" fill="#FF8E6F"/>
<path d="M101.696 83.5292C107.455 82.5966 111.21 76.1984 110.083 69.2384C108.955 62.2785 103.372 57.3924 97.6124 58.325C91.8527 59.2576 88.0976 65.6558 89.2252 72.6158C90.3527 79.5758 95.9359 84.4619 101.696 83.5292Z" fill="#FF8D6F"/>
<path d="M101.679 83.4407C107.389 82.5162 111.11 76.1652 109.99 69.2553C108.871 62.3454 103.335 57.4933 97.6252 58.4178C91.9156 59.3423 88.1946 65.6934 89.314 72.6033C90.4335 79.5131 95.9695 84.3652 101.679 83.4407Z" fill="#FF8C6E"/>
<path d="M101.665 83.3493C107.342 82.4301 111.042 76.1241 109.931 69.2643C108.819 62.4045 103.317 57.5886 97.6409 58.5077C91.9647 59.4268 88.2642 65.7329 89.3755 72.5927C90.4868 79.4525 95.9892 84.2684 101.665 83.3493Z" fill="#FF8B6E"/>
<path d="M101.649 83.2588C107.275 82.3478 110.941 76.0889 109.838 69.2791C108.735 62.4694 103.28 57.6875 97.6537 58.5985C92.0277 59.5095 88.3611 65.7684 89.4643 72.5782C90.5675 79.3879 96.0227 84.1698 101.649 83.2588Z" fill="#FF8A6D"/>
<path d="M101.635 83.1673C107.228 82.2617 110.874 76.0478 109.779 69.2881C108.684 62.5285 103.262 57.7828 97.6695 58.6884C92.0768 59.594 88.4307 65.8079 89.5258 72.5676C90.6209 79.3273 96.0424 84.0729 101.635 83.1673Z" fill="#FF896C"/>
<path d="M101.621 83.0769C107.163 82.1794 110.775 76.0126 109.688 69.303C108.601 62.5934 103.227 57.8818 97.6842 58.7792C92.1416 59.6767 88.5296 65.8435 89.6166 72.5531C90.7036 79.2627 96.0779 83.9744 101.621 83.0769Z" fill="#FF886C"/>
<path d="M101.607 82.9873C107.116 82.0953 110.708 75.9735 109.629 69.314C108.55 62.6544 103.209 57.979 97.7 58.8711C92.1907 59.7632 88.5992 65.8849 89.6781 72.5445C90.757 79.204 96.0977 83.8794 101.607 82.9873Z" fill="#FF876B"/>
<path d="M101.59 82.8949C107.05 82.011 110.607 75.9363 109.536 69.3269C108.465 62.7174 103.172 58.076 97.7128 58.96C92.2536 59.8439 88.6962 65.9186 89.7669 72.528C90.8377 79.1375 96.1312 83.7789 101.59 82.8949Z" fill="#FF866B"/>
<path d="M101.577 82.8054C107.002 81.9269 110.539 75.8972 109.477 69.3378C108.414 62.7784 103.154 58.1732 97.7285 59.0518C92.3027 59.9304 88.7657 65.96 89.8284 72.5194C90.891 79.0788 96.1509 83.684 101.577 82.8054Z" fill="#FF856A"/>
<path d="M101.56 82.713C106.936 81.8426 110.439 75.8601 109.384 69.3508C108.33 62.8414 103.117 58.2702 97.7413 59.1407C92.3657 60.0112 88.8627 65.9936 89.9172 72.503C90.9718 79.0123 96.1845 83.5835 101.56 82.713Z" fill="#FF846A"/>
<path d="M101.546 82.6235C106.889 81.7585 110.371 75.8209 109.325 69.3617C108.278 62.9025 103.099 58.3675 97.757 59.2325C92.4148 60.0976 88.9323 66.0351 89.9787 72.4943C91.0251 78.9536 96.2042 83.4886 101.546 82.6235Z" fill="#FF8369"/>
<path d="M101.532 82.535C106.824 81.678 110.273 75.7877 109.234 69.3785C108.196 62.9694 103.064 58.4684 97.7718 59.3253C92.4796 60.1823 89.0312 66.0726 90.0695 72.4818C91.1078 78.891 96.2397 83.3919 101.532 82.535Z" fill="#FF8269"/>
<path d="M101.516 82.4416C106.775 81.59 110.203 75.7447 109.173 69.3856C108.143 63.0265 103.044 58.5617 97.7856 59.4132C92.5268 60.2648 89.0988 66.1102 90.129 72.4693C91.1592 78.8284 96.2575 83.2931 101.516 82.4416Z" fill="#FF8168"/>
<path d="M101.504 82.3531C106.712 81.5096 110.106 75.7114 109.084 69.4024C108.062 63.0934 103.011 58.6626 97.8023 59.506C92.5936 60.3495 89.1997 66.1477 90.2218 72.4567C91.2438 78.7657 96.2949 83.1965 101.504 82.3531Z" fill="#FF8067"/>
<path d="M101.488 82.2596C106.663 81.4216 110.037 75.6684 109.023 69.4094C108.009 63.1505 102.991 58.7559 97.8161 59.594C92.6408 60.432 89.2673 66.1852 90.2813 72.4442C91.2953 78.7031 96.3127 83.0977 101.488 82.2596Z" fill="#FF7F67"/>
<path d="M101.473 82.1692C106.599 81.3393 109.938 75.6332 108.932 69.4243C107.926 63.2154 102.956 58.8549 97.8309 59.6848C92.7056 60.5147 89.3662 66.2208 90.3721 72.4297C91.3779 78.6386 96.3482 82.9991 101.473 82.1692Z" fill="#FF7E66"/>
<path d="M101.46 82.0777C106.552 81.2532 109.871 75.5921 108.873 69.4333C107.875 63.2745 102.938 58.9502 97.8466 59.7747C92.7547 60.5992 89.4358 66.2603 90.4335 72.4191C91.4313 78.5779 96.3679 82.9022 101.46 82.0777Z" fill="#FF7D66"/>
<path d="M101.443 81.9873C106.485 81.1709 109.77 75.5569 108.78 69.4482C107.791 63.3395 102.901 59.0492 97.8594 59.8655C92.8176 60.6819 89.5327 66.2959 90.5224 72.4046C91.512 78.5134 96.4015 82.8036 101.443 81.9873Z" fill="#FF7C65"/>
<path d="M101.43 81.8997C106.438 81.0887 109.702 75.5198 108.721 69.4611C107.739 63.4024 102.884 59.1483 97.8751 59.9593C92.8667 60.7703 89.6023 66.3393 90.5839 72.3979C91.5654 78.4566 96.4212 82.7107 101.43 81.8997Z" fill="#FF7B65"/>
<path d="M101.415 81.8073C106.373 81.0044 109.604 75.4826 108.63 69.474C107.657 63.4654 102.848 59.2453 97.8899 60.0482C92.9316 60.8511 89.7012 66.3729 90.6746 72.3815C91.6481 78.3901 96.4567 82.6102 101.415 81.8073Z" fill="#FF7A64"/>
<path d="M101.399 81.7178C106.324 80.9203 109.534 75.4435 108.569 69.485C107.604 63.5264 102.829 59.3426 97.9037 60.14C92.9788 60.9375 89.7689 66.4143 90.7342 72.3729C91.6995 78.3314 96.4745 82.5152 101.399 81.7178Z" fill="#FF7964"/>
<path d="M101.385 81.6273C106.26 80.8379 109.435 75.4083 108.478 69.4998C107.521 63.5914 102.793 59.4415 97.9185 60.2309C93.0436 61.0203 89.8678 66.4499 90.825 72.3584C91.7821 78.2668 96.5099 82.4167 101.385 81.6273Z" fill="#FF7863"/>
<path d="M101.369 81.5339C106.211 80.7499 109.366 75.3653 108.417 69.5069C107.468 63.6485 102.774 59.5349 97.9322 60.3188C93.0908 61.1028 89.9354 66.4875 90.8845 72.3458C91.8336 78.2042 96.5277 82.3178 101.369 81.5339Z" fill="#FF7762"/>
<path d="M101.356 81.4444C106.164 80.6658 109.298 75.3261 108.357 69.5178C107.417 63.7095 102.756 59.6321 97.948 60.4106C93.1399 61.1892 90.005 66.5289 90.946 72.3372C91.8869 78.1455 96.5475 82.2229 101.356 81.4444Z" fill="#FF7762"/>
<path d="M101.341 81.352C106.099 80.5815 109.2 75.289 108.267 69.5308C107.334 63.7725 102.721 59.7291 97.9627 60.4995C93.2048 61.27 90.1039 66.5625 91.0367 72.3207C91.9696 78.079 96.5829 82.1224 101.341 81.352Z" fill="#FF7661"/>
<path d="M101.327 81.2625C106.052 80.4974 109.132 75.2499 108.207 69.5417C107.283 63.8335 102.703 59.8263 97.9785 60.5914C93.2539 61.3564 90.1735 66.604 91.0982 72.3121C92.023 78.0203 96.6027 82.0275 101.327 81.2625Z" fill="#FF7561"/>
<path d="M101.313 81.1739C105.987 80.417 109.034 75.2166 108.117 69.5585C107.2 63.9004 102.668 59.9272 97.9932 60.6842C93.3187 61.4411 90.2724 66.6415 91.189 72.2996C92.1057 77.9577 96.6382 81.9309 101.313 81.1739Z" fill="#FF7460"/>
<path d="M101.299 81.0825C105.94 80.331 108.966 75.1756 108.057 69.5675C107.149 63.9595 102.65 60.0225 98.0089 60.774C93.3678 61.5255 90.342 66.681 91.2505 72.289C92.159 77.897 96.6579 81.834 101.299 81.0825Z" fill="#FF7360"/>
<path d="M101.282 80.992C105.873 80.2486 108.865 75.1404 107.965 69.5824C107.064 64.0244 102.613 60.1215 98.0218 60.8649C93.4307 61.6083 90.4389 66.7165 91.3393 72.2745C92.2397 77.8325 96.6914 81.7354 101.282 80.992Z" fill="#FF725F"/>
<path d="M101.267 80.9006C105.824 80.1626 108.796 75.0993 107.904 69.5914C107.011 64.0835 102.593 60.2168 98.0355 60.9548C93.4779 61.6928 90.5066 66.756 91.3989 72.2639C92.2912 77.7718 96.7092 81.6386 101.267 80.9006Z" fill="#FF715F"/>
<path d="M101.254 80.8101C105.762 80.0802 108.699 75.0641 107.815 69.6063C106.931 64.1485 102.56 60.3157 98.0523 61.0456C93.5447 61.7755 90.6074 66.7916 91.4916 72.2494C92.3758 77.7072 96.7467 81.54 101.254 80.8101Z" fill="#FF705E"/>
<path d="M101.241 80.7186C105.715 79.9941 108.632 75.023 107.755 69.6153C106.879 64.2075 102.542 60.411 98.068 61.1355C93.5938 61.86 90.677 66.8311 91.5531 72.2388C92.4292 77.6466 96.7664 81.4431 101.241 80.7186Z" fill="#FF6F5E"/>
<path d="M101.224 80.6282C105.648 79.9118 108.531 74.9878 107.663 69.6302C106.795 64.2725 102.505 60.51 98.0808 61.2263C93.6567 61.9427 90.7739 66.8667 91.6419 72.2244C92.5099 77.582 96.7999 81.3445 101.224 80.6282Z" fill="#FF6E5D"/>
<path d="M101.21 80.5386C105.601 79.8277 108.463 74.9487 107.603 69.6411C106.744 64.3335 102.487 60.6072 98.0965 61.3182C93.7058 62.0291 90.8435 66.9081 91.7034 72.2157C92.5632 77.5233 96.8197 81.2496 101.21 80.5386Z" fill="#FF6D5C"/>
<path d="M101.196 80.4482C105.536 79.7453 108.365 74.9135 107.513 69.656C106.661 64.3985 102.452 60.7062 98.1113 61.409C93.7707 62.1119 90.9424 66.9437 91.7942 72.2012C92.6459 77.4588 96.8551 81.151 101.196 80.4482Z" fill="#FF6C5C"/>
<path d="M101.18 80.3587C105.487 79.6612 108.295 74.8744 107.452 69.6669C106.608 64.4595 102.432 60.8034 98.1251 61.5008C93.8179 62.1983 91.0101 66.9851 91.8537 72.1926C92.6973 77.4001 96.8729 81.0561 101.18 80.3587Z" fill="#FF6B5B"/>
<path d="M101.167 80.2663C105.425 79.5769 108.198 74.8372 107.363 69.6799C106.527 64.5225 102.399 60.9004 98.1418 61.5897C93.8847 62.2791 91.1109 67.0188 91.9464 72.1762C92.782 77.3335 96.9104 80.9556 101.167 80.2663Z" fill="#FF6A5B"/>
<path d="M101.152 80.1748C105.376 79.4909 108.129 74.7962 107.302 69.6889C106.474 64.5815 102.379 60.9957 98.1556 61.6796C93.9318 62.3635 91.1786 67.0583 92.006 72.1656C92.8334 77.2729 96.9281 80.8587 101.152 80.1748Z" fill="#FF695A"/>
<path d="M101.137 80.0843C105.311 79.4085 108.03 74.7609 107.211 69.7037C106.392 64.6465 102.344 61.0946 98.1704 61.7705C93.9967 62.4463 91.2775 67.0938 92.0967 72.1511C92.916 77.2083 96.9636 80.7601 101.137 80.0843Z" fill="#FF685A"/>
<path d="M101.122 79.9948C105.262 79.3244 107.961 74.7218 107.15 69.7147C106.338 64.7075 102.324 61.1919 98.1841 61.8623C94.0439 62.5327 91.3451 67.1353 92.1563 72.1424C92.9675 77.1496 96.9814 80.6652 101.122 79.9948Z" fill="#FF6759"/>
<path d="M101.107 79.9044C105.197 79.2421 107.862 74.6866 107.059 69.7295C106.256 64.7725 102.289 61.2908 98.1989 61.9531C94.1087 62.6154 91.444 67.1709 92.2471 72.128C93.0501 77.0851 97.0169 80.5667 101.107 79.9044Z" fill="#FF6659"/>
<path d="M101.093 79.8129C105.15 79.156 107.794 74.6456 107 69.7385C106.205 64.8315 102.271 61.3861 98.2146 62.043C94.1578 62.6999 91.5136 67.2104 92.3085 72.1174C93.1035 77.0244 97.0366 80.4698 101.093 79.8129Z" fill="#FF6558"/>
<path d="M101.077 79.7244C105.084 79.0756 107.694 74.6123 106.907 69.7554C106.12 64.8984 102.234 61.487 98.2275 62.1358C94.2207 62.7846 91.6105 67.2479 92.3974 72.1048C93.1842 76.9618 97.0702 80.3732 101.077 79.7244Z" fill="#FF6457"/>
<path d="M101.061 79.6329C105.035 78.9895 107.624 74.5712 106.846 69.7644C106.067 64.9575 102.215 61.5823 98.2412 62.2257C94.2679 62.8691 91.6782 67.2874 92.4569 72.0942C93.2356 76.9011 97.0879 80.2763 101.061 79.6329Z" fill="#FF6357"/>
<path d="M101.049 79.5405C104.972 78.9052 107.528 74.5341 106.757 69.7773C105.986 65.0205 102.181 61.6793 98.258 62.3146C94.3347 62.9499 91.779 67.321 92.5496 72.0778C93.3203 76.8346 97.1254 80.1758 101.049 79.5405Z" fill="#FF6256"/>
<path d="M101.035 79.4491C104.925 78.8192 107.46 74.493 106.698 69.7863C105.935 65.0795 102.164 61.7746 98.2737 62.4045C94.3838 63.0343 91.8486 67.3605 92.6111 72.0672C93.3736 76.774 97.1451 80.0789 101.035 79.4491Z" fill="#FF6156"/>
<path d="M101.019 79.3595C104.876 78.7351 107.391 74.4539 106.636 69.7972C105.882 65.1406 102.144 61.8718 98.2874 62.4963C94.431 63.1207 91.9163 67.4019 92.6707 72.0586C93.4251 76.7153 97.1629 79.984 101.019 79.3595Z" fill="#FF6055"/>
<path d="M101.005 79.2671C104.811 78.6508 107.292 74.4168 106.546 69.8102C105.799 65.2036 102.109 61.9688 98.3022 62.5852C94.4958 63.2015 92.0151 67.4356 92.7614 72.0422C93.5077 76.6487 97.1984 79.8835 101.005 79.2671Z" fill="#FF5F55"/>
<path d="M100.989 79.1796C104.762 78.5686 107.222 74.3796 106.484 69.823C105.746 65.2665 102.089 62.068 98.316 62.6789C94.543 63.2899 92.0828 67.4789 92.821 72.0355C93.5591 76.592 97.2162 79.7905 100.989 79.1796Z" fill="#FF5E54"/>
<path d="M100.973 79.0871C104.696 78.4843 107.122 74.3424 106.392 69.836C105.662 65.3295 102.052 62.165 98.3288 62.7679C94.6059 63.3707 92.1797 67.5126 92.9098 72.019C93.6399 76.5255 97.2497 79.69 100.973 79.0871Z" fill="#FF5D54"/>
<path d="M100.959 78.9976C104.648 78.4002 107.054 74.3033 106.332 69.8469C105.61 65.3906 102.034 62.2622 98.3445 62.8597C94.655 63.4571 92.2493 67.554 92.9713 72.0104C93.6932 76.4668 97.2694 79.5951 100.959 78.9976Z" fill="#FF5C53"/>
<path d="M100.944 78.9052C104.584 78.3159 106.955 74.2662 106.242 69.8599C105.528 65.4536 101.999 62.3593 98.3593 62.9486C94.7199 63.5379 92.3482 67.5876 93.0621 71.994C93.7759 76.4003 97.3049 79.4945 100.944 78.9052Z" fill="#FF5B53"/>
<path d="M100.931 78.8157C104.537 78.2318 106.888 74.227 106.182 69.8708C105.476 65.5146 101.981 62.4565 98.375 63.0404C94.769 63.6243 92.4178 67.6291 93.1235 71.9853C93.8293 76.3416 97.3247 79.3996 100.931 78.8157Z" fill="#FF5A52"/>
<path d="M100.916 78.7252C104.472 78.1494 106.789 74.1918 106.092 69.8857C105.394 65.5795 101.946 62.5555 98.3898 63.1313C94.8339 63.7071 92.5167 67.6647 93.2143 71.9708C93.9119 76.277 97.3601 79.301 100.916 78.7252Z" fill="#FF5951"/>
<path d="M100.902 78.6338C104.425 78.0634 106.722 74.1508 106.032 69.8947C105.343 65.6386 101.928 62.6507 98.4055 63.2211C94.883 63.7915 92.5863 67.7041 93.2758 71.9602C93.9653 76.2163 97.3799 79.2042 100.902 78.6338Z" fill="#FF5851"/>
<path d="M100.886 78.5433C104.358 77.981 106.621 74.1156 105.94 69.9095C105.258 65.7035 101.891 62.7497 98.4184 63.312C94.9459 63.8743 92.6832 67.7397 93.3646 71.9458C94.046 76.1518 97.4134 79.1056 100.886 78.5433Z" fill="#FF5750"/>
<path d="M100.87 78.4519C104.309 77.895 106.552 74.0745 105.878 69.9185C105.205 65.7626 101.871 62.845 98.4321 63.4018C94.993 63.9587 92.7509 67.7792 93.4242 71.9352C94.0974 76.0911 97.4312 79.0087 100.87 78.4519Z" fill="#FF5650"/>
<path d="M100.856 78.3614C104.245 77.8126 106.453 74.0393 105.788 69.9334C105.122 65.8276 101.836 62.9439 98.4469 63.4927C95.0579 64.0415 92.8498 67.8148 93.5149 71.9207C94.1801 76.0266 97.4667 78.9102 100.856 78.3614Z" fill="#FF554F"/>
<path d="M100.84 78.2719C104.196 77.7285 106.383 74.0002 105.726 69.9444C105.069 65.8886 101.816 63.0412 98.4607 63.5845C95.105 64.1279 92.9174 67.8562 93.5745 71.912C94.2315 75.9678 97.4845 78.8152 100.84 78.2719Z" fill="#FF544F"/>
<path d="M100.827 78.1795C104.133 77.6442 106.287 73.963 105.638 69.9573C104.989 65.9516 101.783 63.1382 98.4774 63.6734C95.1719 64.2087 93.0183 67.8899 93.6672 71.8956C94.3162 75.9013 97.5219 78.7147 100.827 78.1795Z" fill="#FF534E"/>
<path d="M100.814 78.0919C104.086 77.5621 106.219 73.9259 105.578 69.9702C104.937 66.0145 101.765 63.2374 98.4931 63.7672C95.221 64.297 93.0879 67.9333 93.7287 71.8889C94.3695 75.8446 97.5416 78.6218 100.814 78.0919Z" fill="#FF524E"/>
<path d="M100.797 78.0014C104.019 77.4797 106.118 73.8907 105.486 69.9851C104.853 66.0795 101.728 63.3363 98.5059 63.8581C95.2839 64.3798 93.1848 67.9688 93.8175 71.8744C94.4502 75.78 97.5752 78.5232 100.797 78.0014Z" fill="#FF514D"/>
</g>
<path opacity="0.1" d="M148.118 17.1161C147.138 15.769 146.066 14.9424 144.903 14.5444C143.862 14.7281 143.402 14.3608 142.269 14.6363C138.962 15.4017 135.471 15.8915 132.072 15.4323C128.122 14.9118 124.662 13.1362 121.171 11.3605C119.394 10.4727 117.649 9.55424 115.812 8.75826C111.923 7.07445 107.299 5.42125 103.012 5.57432C100.868 5.63555 98.7857 6.27846 96.8259 7.10506C95.0192 7.83981 93.5187 8.94194 92.4163 10.0441C92.1713 10.289 91.6814 10.6258 91.1914 10.9931C91.222 12.5851 91.4058 13.9934 91.712 15.2792C91.9263 15.1567 92.1101 15.0343 92.1713 15.0037C92.8756 14.4832 93.7637 13.9628 94.8048 13.5035C95.846 13.0749 97.0096 12.7076 98.3264 12.6157C103.44 12.2177 108.187 14.2995 112.811 16.1976C114.709 16.9936 116.638 17.8814 118.66 18.7387C120.681 19.5959 122.794 20.4225 125.029 21.096C128.765 22.2287 133.297 22.5961 137.125 21.5246C137.645 21.3715 138.135 21.2491 138.625 21.1266C140.585 20.5143 142.3 19.7183 143.77 18.953C145.24 18.1876 146.526 17.5141 147.628 16.963C148.026 16.7793 147.781 17.2385 148.118 17.0855V17.1161Z" fill="#FFBC80"/>
<path d="M122.947 43.8125C122.947 43.8125 116.975 56.1196 123.528 63.559L139.36 62.2426C139.36 62.2426 139.85 57.283 139.33 53.8847C138.809 50.4865 122.947 43.8431 122.947 43.8431V43.8125Z" fill="url(#paint17_linear_4514_9634)"/>
<path d="M93.5799 54.6172C92.6612 57.6787 92.1406 62.822 92.1406 62.822L106.87 64.5976C113.607 56.9745 110.33 44.4531 110.33 44.4531C110.33 44.4531 94.4985 51.5557 93.5799 54.6172Z" fill="url(#paint18_linear_4514_9634)"/>
<path d="M132.438 57.4342C125.793 57.0056 123.527 63.5572 123.527 63.5572C123.527 63.5572 125.365 65.1185 131.918 64.7817C139.696 64.3838 139.359 62.2407 139.359 62.2407C139.359 62.2407 139.083 57.8628 132.438 57.4342Z" fill="white"/>
<path d="M92.1385 62.8242C92.1385 62.8242 91.4954 64.6917 98.5079 65.2734C106.072 65.8857 106.868 64.5999 106.868 64.5999C106.868 64.5999 99.3653 51.3743 92.1385 62.8242Z" fill="white"/>
<path d="M102.092 59.7617C100.5 59.2719 98.6011 60.9251 97.8049 63.4661C97.6212 64.0478 97.5293 64.6295 97.5293 65.1805C97.8355 65.2112 98.1417 65.2418 98.4786 65.2724C100.683 65.4561 102.306 65.4561 103.501 65.3948C103.501 65.3336 103.562 65.2724 103.562 65.2111C104.327 62.6701 103.654 60.2516 102.061 59.7617H102.092Z" fill="url(#paint19_linear_4514_9634)"/>
<path d="M131.918 64.7512C132.776 64.7206 133.511 64.6287 134.184 64.5675C134.858 61.8428 134.184 59.2405 132.623 58.6895C131.03 58.1384 129.132 59.9753 128.366 62.7918C128.213 63.3429 128.121 64.047 128.121 64.7206C129.162 64.8124 130.418 64.8124 131.918 64.7206V64.7512Z" fill="url(#paint20_linear_4514_9634)"/>
<path d="M99.4287 57.0069C93.978 56.9151 92.1406 62.8237 92.1406 62.8237C92.1406 62.8237 94.8354 59.7316 99.0613 59.6398C104.512 59.548 106.87 64.5994 106.87 64.5994C106.87 64.5994 106.809 57.16 99.4287 57.0375V57.0069Z" fill="#603F37"/>
<path d="M93.3965 55.2309C99.7965 49.9958 107.085 52.598 109.779 49.3528C111.096 47.7609 110.3 44.332 110.3 44.332C93.3659 46.5669 93.3965 55.2615 93.3965 55.2615V55.2309Z" fill="url(#paint21_linear_4514_9634)"/>
<path d="M122.948 43.8125C122.948 43.8125 121.386 47.425 122.243 48.619C124.969 52.354 135.044 50.4253 139.453 55.1706C139.453 55.1706 140.494 47.425 122.948 43.8125Z" fill="url(#paint22_linear_4514_9634)"/>
<path d="M131.367 56.3945C123.895 56.4558 123.527 63.4053 123.527 63.4053C123.527 63.4053 125.334 59.1805 131.826 59.3029C138.318 59.4254 139.39 62.242 139.39 62.242C139.39 62.242 138.777 56.3639 131.397 56.4252L131.367 56.3945Z" fill="#603F37"/>
<path d="M102.554 63.3121C102.554 64.1693 101.85 64.904 101.054 64.9959C100.257 65.0877 99.5837 64.4142 99.6143 63.557C99.6143 62.6998 100.319 61.965 101.115 61.8732C101.942 61.8119 102.585 62.4549 102.554 63.3121Z" fill="#1E1D1D"/>
<path d="M132.96 62.6988C132.96 63.556 132.256 64.2908 131.46 64.3826C130.633 64.4438 129.99 63.8009 130.021 62.9437C130.021 62.0865 130.725 61.3517 131.521 61.2599C132.348 61.1987 132.991 61.8416 132.96 62.6988Z" fill="#1E1D1D"/>
<path opacity="0.8" d="M99.4281 62.3646C98.6626 62.7932 98.1114 63.5892 98.2339 64.1708C98.3564 64.7525 99.0913 64.8444 99.8568 64.4158C100.622 63.9871 101.174 63.1912 101.051 62.6095C100.929 62.0278 100.194 61.936 99.4281 62.3646Z" fill="white"/>
<path opacity="0.8" d="M129.746 61.9362C128.98 62.3648 128.521 63.1608 128.674 63.6507C128.827 64.1711 129.562 64.2323 130.327 63.8037C131.093 63.3751 131.583 62.5791 131.399 62.0893C131.246 61.5689 130.511 61.5076 129.746 61.9362Z" fill="white"/>
<path opacity="0.1" d="M140.372 22.7477C141.046 21.9823 140.004 20.8189 139.3 21.5843C136.544 24.5233 133.329 26.3602 129.838 27.646C129.991 27.5848 130.083 27.5542 130.083 27.5542C130.94 27.5542 131.859 27.8603 132.778 28.5032C135.595 27.095 138.198 25.1968 140.372 22.7477Z" fill="black"/>
<path d="M104.085 83.7663C104.085 83.7663 103.166 97.6042 118.385 95.8285C133.605 94.0835 131.155 81.1641 131.155 81.1641L104.085 83.7357V83.7663Z" fill="#FB755C"/>
<path d="M105.247 83.6418C105.247 83.6418 104.267 94.8774 118.231 93.316C132.195 91.7547 130.051 81.4375 130.051 81.4375L105.247 83.6112V83.6418Z" fill="url(#paint23_linear_4514_9634)"/>
<path d="M105.89 83.4884C105.89 83.4884 105.737 85.6926 107.054 86.7029C108.83 88.05 126.346 86.8254 127.632 85.1416C128.642 83.8558 128.428 80.7637 128.428 80.7637L105.859 83.519L105.89 83.4884Z" fill="#F7F0F0"/>
<path opacity="0.4" d="M128.428 80.7637L105.859 83.519C105.859 83.519 105.706 85.7233 107.023 86.7335C107.145 86.8254 107.359 86.9172 107.635 86.9785C107.849 84.4374 111.157 84.2231 113.453 84.2231C115.505 84.2231 117.465 84.0394 119.486 83.7945C121.109 83.5802 122.946 82.9985 124.569 83.1516C125.641 83.2435 126.59 84.1619 126.253 85.3253C126.192 85.5396 126.1 85.7232 125.978 85.8763C126.805 85.662 127.386 85.4171 127.601 85.1416C128.611 83.8558 128.397 80.7637 128.397 80.7637H128.428Z" fill="#AD9E99"/>
<path d="M111.678 66.8322C111.678 66.8322 105.86 65.8832 104.574 70.9346C102.92 77.3943 115.782 80.915 119.15 74.1491C122.518 67.3833 113.087 55.0762 113.087 55.0762C113.087 55.0762 115.414 61.5053 111.678 66.8322Z" fill="#FF9E78"/>
<path d="M104.482 72.7422C105.34 77.9773 116.119 80.2734 119.15 74.1505C119.334 73.7831 119.487 73.3851 119.579 72.9871C114.557 74.1811 109.321 73.9668 104.482 72.7422Z" fill="url(#paint24_linear_4514_9634)"/>
<path opacity="0.2" d="M115.261 61.7826H113.821C113.821 61.7826 113.148 66.4054 111.77 67.0789C111.555 67.0789 111.31 67.0789 111.096 67.0483C108.585 67.0177 106.533 67.8749 106.533 68.9464C106.533 70.0485 108.554 70.8752 111.035 70.9058C113.393 70.9364 115.444 70.4771 115.689 69.1913C115.689 69.1913 116.7 64.3236 115.261 61.752V61.7826Z" fill="white"/>
<path d="M150.23 19.2532C149.403 21.1513 139.297 18.5491 127.692 13.4364C116.086 8.32373 107.022 3.02738 108.032 1.1905C109.563 -1.56483 119.117 1.43542 130.723 6.54808C142.329 11.6607 151.056 17.3551 150.23 19.2532Z" fill="#0C4266"/>
<path d="M150.291 19.4981C149.465 21.3962 139.359 18.794 127.753 13.6813C116.148 8.56867 107.175 3.08863 108.002 1.19052C108.829 -0.707595 108.89 0.180231 109.625 0.394534C110.36 0.608837 118.506 6.27257 127.968 10.4362C138.134 14.9059 148.883 16.1917 150.138 18.6409C151.394 21.0901 150.353 19.2838 150.261 19.5287L150.291 19.4981Z" fill="#092E4C"/>
<defs>
<linearGradient id="paint0_linear_4514_9634" x1="119.862" y1="103.888" x2="120.357" y2="113.028" gradientUnits="userSpaceOnUse">
<stop stop-color="#DB7D67"/>
<stop offset="1" stop-color="#FF9E78"/>
</linearGradient>
<linearGradient id="paint1_linear_4514_9634" x1="130.22" y1="113.324" x2="132.721" y2="159.515" gradientUnits="userSpaceOnUse">
<stop stop-color="#DEEFFF"/>
<stop offset="1" stop-color="#CADBEF"/>
</linearGradient>
<linearGradient id="paint2_linear_4514_9634" x1="121.009" y1="118.852" x2="121.45" y2="126.983" gradientUnits="userSpaceOnUse">
<stop stop-color="#B3CBE2"/>
<stop offset="1" stop-color="#CADBEF"/>
</linearGradient>
<linearGradient id="paint3_linear_4514_9634" x1="123.02" y1="197.263" x2="126.198" y2="255.957" gradientUnits="userSpaceOnUse">
<stop stop-color="#B3CBE2"/>
<stop offset="1" stop-color="#CADBEF"/>
</linearGradient>
<linearGradient id="paint4_linear_4514_9634" x1="132.35" y1="202.456" x2="132.136" y2="246.449" gradientUnits="userSpaceOnUse">
<stop stop-color="#B3CBE2"/>
<stop offset="1" stop-color="#CADBEF"/>
</linearGradient>
<linearGradient id="paint5_linear_4514_9634" x1="180.795" y1="156.838" x2="213.282" y2="175.03" gradientUnits="userSpaceOnUse">
<stop stop-color="#DEEFFF"/>
<stop offset="1" stop-color="#CADBEF"/>
</linearGradient>
<linearGradient id="paint6_linear_4514_9634" x1="57.3247" y1="190.7" x2="57.2022" y2="197.466" gradientUnits="userSpaceOnUse">
<stop stop-color="#DEEFFF"/>
<stop offset="1" stop-color="#CADBEF"/>
</linearGradient>
<linearGradient id="paint7_linear_4514_9634" x1="124.512" y1="265.183" x2="270.562" y2="53.9693" gradientUnits="userSpaceOnUse">
<stop stop-color="white"/>
<stop offset="1" stop-color="#A5B7C6"/>
</linearGradient>
<linearGradient id="paint8_linear_4514_9634" x1="149.958" y1="191.649" x2="221.399" y2="191.649" gradientUnits="userSpaceOnUse">
<stop stop-color="#F28C70"/>
<stop offset="1" stop-color="#FF9E78"/>
</linearGradient>
<linearGradient id="paint9_linear_4514_9634" x1="114.957" y1="217.579" x2="119.581" y2="217.579" gradientUnits="userSpaceOnUse">
<stop stop-color="#F28C70"/>
<stop offset="1" stop-color="#FF9E78"/>
</linearGradient>
<linearGradient id="paint10_linear_4514_9634" x1="109.445" y1="242.958" x2="149.805" y2="242.958" gradientUnits="userSpaceOnUse">
<stop stop-color="#F28C70"/>
<stop offset="1" stop-color="#FF9E78"/>
</linearGradient>
<linearGradient id="paint11_linear_4514_9634" x1="150.081" y1="175.546" x2="168.295" y2="207.42" gradientUnits="userSpaceOnUse">
<stop stop-color="#FFB9A4"/>
<stop offset="1" stop-color="#FF9E78"/>
</linearGradient>
<linearGradient id="paint12_linear_4514_9634" x1="79.1251" y1="71.4" x2="93.0246" y2="71.1088" gradientUnits="userSpaceOnUse">
<stop stop-color="#F28C70"/>
<stop offset="1" stop-color="#FF9E78"/>
</linearGradient>
<linearGradient id="paint13_linear_4514_9634" x1="115.51" y1="27.5669" x2="115.718" y2="38.4025" gradientUnits="userSpaceOnUse">
<stop stop-color="#C6664F"/>
<stop offset="1" stop-color="#FF9E78"/>
</linearGradient>
<linearGradient id="paint14_linear_4514_9634" x1="144.925" y1="80.8337" x2="159.039" y2="80.5626" gradientUnits="userSpaceOnUse">
<stop stop-color="#F28C70"/>
<stop offset="1" stop-color="#FF9E78"/>
</linearGradient>
<linearGradient id="paint15_linear_4514_9634" x1="149.157" y1="68.4405" x2="156.199" y2="68.3053" gradientUnits="userSpaceOnUse">
<stop stop-color="#F28C70"/>
<stop offset="1" stop-color="#FF9E78"/>
</linearGradient>
<linearGradient id="paint16_linear_4514_9634" x1="121.91" y1="4.00344" x2="121.305" y2="30.8158" gradientUnits="userSpaceOnUse">
<stop stop-color="#75483B"/>
<stop offset="0.4" stop-color="#704438"/>
<stop offset="0.7" stop-color="#623C2F"/>
<stop offset="1" stop-color="#563428"/>
</linearGradient>
<linearGradient id="paint17_linear_4514_9634" x1="129.781" y1="32.3158" x2="129.857" y2="60.1789" gradientUnits="userSpaceOnUse">
<stop stop-color="#C6664F"/>
<stop offset="1" stop-color="#FF9E78"/>
</linearGradient>
<linearGradient id="paint18_linear_4514_9634" x1="101.395" y1="32.6135" x2="101.467" y2="60.2929" gradientUnits="userSpaceOnUse">
<stop stop-color="#C6664F"/>
<stop offset="1" stop-color="#FF9E78"/>
</linearGradient>
<linearGradient id="paint19_linear_4514_9634" x1="99.9563" y1="66.2187" x2="102.749" y2="58.5449" gradientUnits="userSpaceOnUse">
<stop stop-color="#704A3E"/>
<stop offset="1"/>
</linearGradient>
<linearGradient id="paint20_linear_4514_9634" x1="130.995" y1="64.2562" x2="132.645" y2="59.5603" gradientUnits="userSpaceOnUse">
<stop stop-color="#704A3E"/>
<stop offset="1"/>
</linearGradient>
<linearGradient id="paint21_linear_4514_9634" x1="102.156" y1="44.8755" x2="101.737" y2="54.0239" gradientUnits="userSpaceOnUse">
<stop stop-color="#75483B"/>
<stop offset="0.4" stop-color="#704438"/>
<stop offset="0.7" stop-color="#623C2F"/>
<stop offset="1" stop-color="#563428"/>
</linearGradient>
<linearGradient id="paint22_linear_4514_9634" x1="130.864" y1="46.1846" x2="130.444" y2="55.3942" gradientUnits="userSpaceOnUse">
<stop stop-color="#75483B"/>
<stop offset="0.4" stop-color="#704438"/>
<stop offset="0.7" stop-color="#623C2F"/>
<stop offset="1" stop-color="#563428"/>
</linearGradient>
<linearGradient id="paint23_linear_4514_9634" x1="118.407" y1="92.7654" x2="118.063" y2="88.8311" gradientUnits="userSpaceOnUse">
<stop stop-color="#7C302A"/>
<stop offset="0.2" stop-color="#772E28"/>
<stop offset="0.4" stop-color="#692A26"/>
<stop offset="0.7" stop-color="#522421"/>
<stop offset="1" stop-color="#2D1A19"/>
</linearGradient>
<linearGradient id="paint24_linear_4514_9634" x1="111.924" y1="76.8732" x2="111.832" y2="72.0676" gradientUnits="userSpaceOnUse">
<stop stop-color="#F28C70"/>
<stop offset="1" stop-color="#FF9E78"/>
</linearGradient>
</defs>
</svg>
