<svg width="877" height="1525" viewBox="0 0 877 1525" fill="none" xmlns="http://www.w3.org/2000/svg">
<path d="M848.678 1472.92C848.678 1472.92 684.678 1500.32 482.378 1500.32C280.078 1500.32 116.078 1472.92 116.078 1472.92C116.078 1472.92 280.078 1445.52 482.378 1445.52C684.678 1445.52 848.678 1472.92 848.678 1472.92Z" fill="url(#paint0_linear_2394_71819)"/>
<path d="M645.978 1401.72C645.978 1401.72 623.078 1441.22 622.478 1450.22C621.978 1459.32 656.678 1487.42 674.178 1489.42C691.678 1491.42 738.878 1463.12 739.978 1458.12C741.078 1453.22 724.078 1409.22 723.778 1408.82C723.478 1408.42 645.878 1401.62 645.878 1401.62L645.978 1401.72Z" fill="#2C2C2D"/>
<path d="M745.278 360.524C737.578 357.724 729.278 355.224 719.978 352.924L729.078 296.324C731.878 279.024 715.578 262.824 691.578 259.924C668.578 257.224 646.878 269.024 644.078 286.324L634.978 342.824C624.378 342.924 614.578 343.824 605.478 345.124L599.078 397.424L738.478 416.124L745.278 360.524Z" fill="url(#paint1_linear_2394_71819)"/>
<path d="M374.777 1360.73C373.577 1361.13 281.377 1395.73 277.177 1409.83C276.977 1410.43 274.577 1410.63 274.177 1410.93L272.777 1416.53C313.177 1437.23 405.577 1431.03 405.577 1431.03C405.577 1431.03 404.977 1434.63 405.777 1434.83C422.877 1438.93 453.477 1438.73 455.877 1437.33C456.377 1437.03 458.077 1432.33 458.877 1428.03C458.877 1427.63 458.077 1426.53 458.077 1426.53C462.877 1409.83 470.277 1377.43 470.577 1376.73C476.877 1362.53 387.277 1336.53 374.777 1360.83V1360.73Z" fill="#2C2C2D"/>
<path d="M405.878 1423.82C381.778 1423.72 354.478 1423.52 332.178 1421.02C298.378 1417.22 282.578 1411.82 277.178 1409.52C277.178 1409.62 277.178 1409.72 277.078 1409.82C276.878 1410.42 274.478 1410.62 274.078 1410.92V1411.12C276.678 1412.42 289.778 1418.22 323.678 1422.62C326.178 1422.92 328.878 1423.32 331.678 1423.62C354.078 1426.12 381.478 1426.32 405.578 1426.42C428.978 1426.52 449.178 1426.72 458.578 1428.92C458.578 1428.62 458.678 1428.32 458.778 1428.02C458.778 1427.62 457.978 1426.52 457.978 1426.52C457.978 1426.42 457.978 1426.22 458.078 1426.12C447.878 1424.12 428.278 1424.02 405.878 1423.92V1423.82Z" fill="#3D3D3D"/>
<path d="M380.678 1407.52C355.678 1386.32 329.078 1384.62 308.978 1388.42C298.278 1393.62 288.878 1398.82 283.078 1403.22C289.178 1405.62 300.378 1408.82 320.878 1412.02C361.578 1418.42 386.778 1412.72 380.678 1407.52Z" fill="url(#paint2_linear_2394_71819)"/>
<path d="M777.978 756.224L787.478 766.524L784.978 785.324L785.178 813.024C785.178 813.024 750.078 1399.82 741.578 1416.32C740.278 1418.82 634.678 1414.32 627.678 1405.32C625.178 1402.02 634.978 881.224 634.978 881.224L613.878 879.524C613.878 879.524 486.678 1387.62 481.178 1396.42C476.078 1404.52 360.578 1361.72 360.578 1361.72L494.678 784.824L498.678 756.724L500.378 743.624L508.478 735.924L778.078 756.424L777.978 756.224Z" fill="#333844"/>
<path d="M723.479 331.523C723.479 331.523 694.779 369.623 673.579 366.423C652.379 363.223 638.579 320.523 638.579 320.523C638.579 320.523 620.579 324.223 616.079 339.723C616.079 339.723 519.079 355.423 489.379 399.023C473.379 422.423 464.179 476.123 458.179 524.623C457.979 526.523 450.079 528.423 449.879 530.323C445.279 569.723 444.079 602.723 446.179 606.223C450.979 614.123 500.679 637.923 500.679 637.923C500.679 637.923 493.179 704.223 493.879 712.023C494.579 719.823 506.879 740.923 506.879 740.923C506.879 740.923 588.679 755.723 640.979 760.223C691.579 764.623 772.479 764.423 777.779 761.623C783.079 758.823 796.479 742.423 796.479 742.423L817.779 564.723C817.779 564.723 871.779 453.523 845.279 412.823C830.279 389.923 741.379 357.123 741.379 357.123C741.379 357.123 743.979 341.023 723.479 331.423V331.523Z" fill="url(#paint3_linear_2394_71819)"/>
<path d="M720.878 467.225C720.878 467.225 633.478 537.425 628.678 535.725C623.878 534.025 511.678 516.525 511.678 516.525C511.678 516.525 455.078 563.725 454.778 565.525C454.678 566.125 454.378 585.825 454.178 612.825C469.478 622.925 500.778 637.925 500.778 637.925C500.778 637.925 493.278 704.225 493.978 712.025C494.578 719.825 506.978 740.925 506.978 740.925C506.978 740.925 588.778 755.725 641.078 760.225C691.678 764.625 772.578 764.425 777.878 761.625C783.178 758.825 796.578 742.425 796.578 742.425L817.878 564.725L826.678 497.525L720.978 467.325L720.878 467.225ZM768.178 730.725C767.378 734.825 645.078 741.125 639.678 741.125C634.278 741.125 517.478 712.525 515.478 708.425C513.578 704.325 519.478 670.725 520.478 668.525C520.478 668.525 590.378 676.525 592.078 676.525C593.778 676.525 675.378 709.625 688.078 706.325C700.778 703.025 774.878 659.925 774.878 659.925C774.878 659.925 769.078 726.625 768.278 730.825L768.178 730.725Z" fill="url(#paint4_linear_2394_71819)"/>
<path d="M607.008 243.537C617.457 242.087 624.204 228.494 622.078 213.177C619.953 197.86 609.76 186.618 599.311 188.068C588.863 189.518 582.116 203.11 584.241 218.428C586.366 233.745 596.56 244.987 607.008 243.537Z" fill="url(#paint5_linear_2394_71819)"/>
<path d="M776.379 122.025C775.479 86.725 680.379 57.225 645.179 100.725C633.079 121.425 617.079 161.125 606.579 201.225C606.579 200.825 606.679 200.525 606.679 200.525C606.679 200.525 564.779 302.925 660.579 321.425C752.679 339.225 774.079 295.525 778.579 231.625C783.579 196.025 779.979 149.525 776.279 122.025H776.379Z" fill="url(#paint6_linear_2394_71819)"/>
<g opacity="0.4">
<path d="M763.003 250.169C770.43 229.54 761.833 207.554 743.802 201.062C725.771 194.57 705.133 206.031 697.706 226.661C690.279 247.29 698.875 269.276 716.906 275.768C734.938 282.26 755.576 270.799 763.003 250.169Z" fill="#FF9C78"/>
<path d="M762.256 249.866C769.496 229.756 761.127 208.327 743.563 202.004C725.999 195.681 705.892 206.857 698.652 226.967C691.412 247.077 699.781 268.505 717.345 274.828C734.908 281.152 755.016 269.975 762.256 249.866Z" fill="#FF9B79"/>
<path d="M761.348 249.331C768.401 229.741 760.26 208.871 743.164 202.716C726.068 196.561 706.491 207.452 699.438 227.042C692.385 246.633 700.527 267.503 717.623 273.658C734.719 279.813 754.295 268.922 761.348 249.331Z" fill="#FE9A7A"/>
<path d="M760.602 249.027C767.468 229.957 759.512 209.629 742.831 203.623C726.151 197.618 707.063 208.21 700.197 227.28C693.331 246.351 701.288 266.679 717.968 272.684C734.648 278.689 753.736 268.098 760.602 249.027Z" fill="#FE997B"/>
<path d="M759.855 248.722C766.533 230.171 758.805 210.4 742.592 204.564C726.38 198.727 707.822 209.033 701.144 227.584C694.465 246.135 702.194 265.906 718.406 271.742C734.619 277.579 753.176 267.273 759.855 248.722Z" fill="#FD997C"/>
<path d="M758.914 248.283C765.406 230.252 757.905 211.039 742.16 205.371C726.415 199.702 708.388 209.724 701.897 227.756C695.405 245.787 702.906 265 718.651 270.668C734.396 276.337 752.422 266.315 758.914 248.283Z" fill="#FD987D"/>
<path d="M758.168 247.979C764.472 230.467 757.156 211.797 741.827 206.279C726.498 200.76 708.96 210.482 702.656 227.993C696.351 245.505 703.667 264.175 718.996 269.694C734.325 275.213 751.863 265.491 758.168 247.979Z" fill="#FD977E"/>
<path d="M757.421 247.574C763.538 230.582 756.45 212.47 741.588 207.119C726.727 201.769 709.72 211.206 703.602 228.198C697.485 245.19 704.573 263.302 719.435 268.653C734.296 274.003 751.303 264.566 757.421 247.574Z" fill="#FC967F"/>
<path d="M756.48 247.235C762.41 230.763 755.549 213.208 741.156 208.026C726.762 202.844 710.286 211.997 704.355 228.469C698.425 244.941 705.286 262.496 719.68 267.678C734.073 272.86 750.55 263.707 756.48 247.235Z" fill="#FC9580"/>
<path d="M755.733 246.931C761.477 230.978 754.801 213.966 740.823 208.934C726.845 203.901 710.857 212.754 705.114 228.707C699.371 244.66 706.046 261.671 720.025 266.704C734.003 271.736 749.99 262.884 755.733 246.931Z" fill="#FB9481"/>
<path d="M754.987 246.525C760.562 231.04 754.129 214.544 740.618 209.68C727.108 204.816 711.636 213.426 706.061 228.911C700.486 244.396 706.919 260.892 720.43 265.756C733.94 270.62 749.412 262.01 754.987 246.525Z" fill="#FB9482"/>
<path d="M754.046 246.187C759.434 231.221 753.229 215.283 740.186 210.587C727.143 205.891 712.202 214.216 706.814 229.182C701.426 244.147 707.632 260.086 720.675 264.782C733.718 269.477 748.659 261.152 754.046 246.187Z" fill="#FB9382"/>
<path d="M753.394 245.916C758.595 231.47 752.574 216.074 739.947 211.528C727.32 206.982 712.868 215.007 707.667 229.453C702.466 243.899 708.486 259.295 721.113 263.841C733.741 268.387 748.193 260.361 753.394 245.916Z" fill="#FA9283"/>
<path d="M752.553 245.477C757.567 231.551 751.774 216.713 739.614 212.335C727.455 207.957 713.533 215.698 708.52 229.624C703.506 243.55 709.299 258.389 721.458 262.766C733.617 267.144 747.539 259.403 752.553 245.477Z" fill="#FA9184"/>
<path d="M751.61 245.138C756.437 231.732 750.872 217.451 739.18 213.242C727.488 209.033 714.097 216.489 709.271 229.895C704.444 243.302 710.009 257.582 721.701 261.792C733.393 266.001 746.784 258.545 751.61 245.138Z" fill="#F99085"/>
<path d="M750.958 244.867C755.597 231.98 750.217 218.243 738.941 214.183C727.665 210.123 714.763 217.279 710.123 230.166C705.484 243.053 710.864 256.791 722.14 260.851C733.416 264.91 746.318 257.754 750.958 244.867Z" fill="#F98F86"/>
<path d="M750.052 244.335C754.505 231.968 749.352 218.788 738.544 214.897C727.735 211.005 715.364 217.876 710.912 230.244C706.459 242.611 711.612 255.791 722.42 259.682C733.228 263.574 745.6 256.703 750.052 244.335Z" fill="#F98E87"/>
<path d="M749.211 243.996C753.477 232.149 748.552 219.526 738.211 215.804C727.87 212.081 716.03 218.667 711.764 230.515C707.499 242.362 712.424 254.985 722.765 258.708C733.105 262.431 744.946 255.844 749.211 243.996Z" fill="#F88E88"/>
<path d="M748.559 243.725C752.637 232.397 747.897 220.318 737.972 216.744C728.047 213.171 716.695 219.458 712.617 230.786C708.539 242.114 713.278 254.194 723.203 257.767C733.128 261.34 744.48 255.053 748.559 243.725Z" fill="#F88D89"/>
<path d="M747.616 243.285C751.507 232.477 746.995 220.955 737.538 217.55C728.08 214.145 717.259 220.147 713.368 230.955C709.477 241.763 713.989 253.286 723.446 256.69C732.904 260.095 743.725 254.094 747.616 243.285Z" fill="#F78C8A"/>
<path d="M746.777 242.948C750.481 232.66 746.197 221.695 737.207 218.459C728.217 215.222 717.927 220.939 714.223 231.228C710.518 241.517 714.803 252.481 723.793 255.718C732.783 258.954 743.073 253.237 746.777 242.948Z" fill="#F78B8B"/>
</g>
<path d="M801.879 214.924C792.479 210.024 779.379 217.324 772.579 231.124C765.779 245.024 767.879 260.224 777.179 265.024C786.579 269.924 799.679 262.624 806.479 248.824C813.279 234.924 811.179 219.724 801.879 214.924Z" fill="#FF9C78"/>
<path d="M797.979 249.323C787.579 254.123 777.678 250.723 771.178 243.723C770.678 247.523 769.879 252.223 768.279 257.623H768.479L762.979 294.223C768.279 285.523 771.879 275.023 774.279 263.123C775.079 263.823 775.979 264.523 776.979 265.023C786.379 269.923 799.479 262.623 806.279 248.823C808.079 245.223 809.179 241.623 809.779 238.023C807.379 242.723 803.479 246.723 797.979 249.323Z" fill="url(#paint7_linear_2394_71819)"/>
<path d="M781.979 239.125L790.779 241.625C792.679 227.425 803.878 224.124 803.878 224.124C787.578 215.624 781.979 239.125 781.979 239.125Z" fill="url(#paint8_linear_2394_71819)"/>
<path d="M802.278 89.4242C797.778 78.2242 790.278 75.3242 781.378 76.1242C786.078 73.8242 785.278 69.5242 785.278 69.5242C780.278 68.1242 776.778 71.1242 776.778 71.1242C783.378 65.6242 774.578 63.3242 774.578 63.3242C760.178 67.3242 768.378 67.5242 768.378 67.5242C764.478 55.4242 748.278 49.6242 748.278 49.6242C748.178 51.2242 748.278 52.9242 748.678 54.6242C723.578 32.6242 687.878 26.3242 687.878 26.3242C686.078 28.4242 684.878 32.1242 685.078 34.8242C662.678 30.9242 644.778 30.9242 644.778 30.9242C636.178 57.1242 641.578 74.0242 648.578 84.2242C651.078 87.9242 654.678 94.1242 666.178 101.124C666.178 101.124 678.178 110.324 698.578 113.524C716.778 116.424 744.178 110.424 744.178 110.424C762.478 112.524 780.178 172.524 776.378 218.324C775.478 228.824 786.678 215.924 786.678 215.924C786.678 215.924 788.678 206.824 790.178 190.424C790.178 190.324 814.278 119.024 802.378 89.4242H802.278Z" fill="url(#paint9_linear_2394_71819)"/>
<path d="M642.078 70.125C613.578 74.725 609.678 175.525 608.078 192.025C607.978 193.225 607.778 194.025 607.478 195.325C607.378 195.925 609.578 196.025 609.478 195.425C609.478 194.425 609.878 192.825 609.978 192.225C617.878 162.525 650.878 99.925 666.078 101.125C666.078 101.125 652.778 90.425 642.078 70.125Z" fill="#59352C"/>
<g opacity="0.4">
<path d="M642.847 261.982C661.452 261.495 676.058 242.884 675.47 220.414C674.881 197.944 659.321 180.123 640.716 180.61C622.11 181.097 607.504 199.708 608.093 222.178C608.681 244.649 624.241 262.469 642.847 261.982Z" fill="#FF9C78"/>
<path d="M642.831 261.384C661.161 260.904 675.55 242.567 674.97 220.428C674.39 198.289 659.061 180.731 640.732 181.211C622.402 181.691 608.013 200.027 608.593 222.166C609.172 244.305 624.501 261.863 642.831 261.384Z" fill="#FF9B78"/>
<path d="M642.815 260.783C660.869 260.31 675.041 242.248 674.47 220.441C673.899 198.633 658.801 181.337 640.747 181.81C622.694 182.283 608.522 200.345 609.093 222.152C609.664 243.96 624.762 261.256 642.815 260.783Z" fill="#FF9A78"/>
<path d="M642.799 260.183C660.522 259.719 674.433 241.933 673.87 220.456C673.308 198.98 658.485 181.946 640.763 182.41C623.041 182.874 609.13 200.66 609.692 222.137C610.254 243.613 625.077 260.647 642.799 260.183Z" fill="#FE9978"/>
<path d="M642.784 259.584C660.23 259.128 673.924 241.616 673.37 220.47C672.817 199.325 658.225 182.554 640.779 183.011C623.332 183.468 609.638 200.98 610.192 222.125C610.746 243.27 625.338 260.041 642.784 259.584Z" fill="#FE9878"/>
<path d="M642.765 258.884C659.935 258.434 673.414 241.241 672.87 220.482C672.326 199.724 657.967 183.26 640.796 183.709C623.626 184.159 610.148 201.352 610.691 222.111C611.235 242.869 625.595 259.333 642.765 258.884Z" fill="#FE9779"/>
<path d="M642.749 258.285C659.643 257.843 672.905 240.924 672.37 220.497C671.835 200.069 657.706 183.868 640.812 184.31C623.918 184.753 610.656 201.671 611.191 222.099C611.726 242.526 625.855 258.727 642.749 258.285Z" fill="#FE9679"/>
<path d="M642.734 257.684C659.352 257.249 672.397 240.605 671.871 220.509C671.344 200.413 657.446 184.474 640.828 184.909C624.21 185.344 611.165 201.989 611.691 222.085C612.217 242.181 626.116 258.12 642.734 257.684Z" fill="#FD9579"/>
<path d="M642.718 257.084C659.06 256.656 671.888 240.286 671.371 220.521C670.853 200.756 657.186 185.08 640.844 185.508C624.502 185.936 611.673 202.306 612.191 222.071C612.709 241.836 626.376 257.512 642.718 257.084Z" fill="#FD9479"/>
<path d="M642.702 256.485C658.768 256.065 671.38 239.969 670.871 220.536C670.362 201.102 656.926 185.689 640.86 186.109C624.794 186.53 612.182 202.625 612.691 222.059C613.2 241.493 626.636 256.906 642.702 256.485Z" fill="#FD9379"/>
<path d="M642.687 255.885C658.477 255.471 670.872 239.65 670.371 220.548C669.871 201.445 656.665 186.295 640.875 186.708C625.085 187.122 612.691 202.943 613.191 222.045C613.691 241.148 626.897 256.298 642.687 255.885Z" fill="#FD9279"/>
<path d="M642.668 255.186C658.182 254.779 670.361 239.278 669.871 220.562C669.381 201.846 656.407 187.003 640.893 187.409C625.379 187.815 613.2 203.317 613.69 222.033C614.18 240.749 627.154 255.592 642.668 255.186Z" fill="#FC9179"/>
<path d="M642.652 254.585C657.89 254.186 669.853 238.959 669.371 220.574C668.89 202.189 656.147 187.609 640.909 188.008C625.671 188.407 613.709 203.634 614.19 222.019C614.671 240.404 627.414 254.984 642.652 254.585Z" fill="#FC9079"/>
<path d="M642.636 253.985C657.543 253.595 669.244 238.643 668.771 220.59C668.298 202.536 655.831 188.217 640.924 188.608C626.018 188.998 614.317 203.95 614.79 222.003C615.262 240.057 627.73 254.376 642.636 253.985Z" fill="#FC8F7A"/>
<path d="M642.621 253.387C657.251 253.004 668.735 238.326 668.271 220.604C667.807 202.882 655.571 188.826 640.94 189.209C626.31 189.592 614.825 204.269 615.289 221.991C615.754 239.714 627.99 253.77 642.621 253.387Z" fill="#FC8E7A"/>
<path d="M642.605 252.786C656.96 252.41 668.227 238.007 667.772 220.616C667.316 203.225 655.31 189.432 640.956 189.808C626.601 190.184 615.334 204.586 615.789 221.977C616.245 239.368 628.251 253.162 642.605 252.786Z" fill="#FB8D7A"/>
<path d="M642.588 252.085C656.667 251.717 667.718 237.633 667.273 220.628C666.828 203.624 655.054 190.138 640.976 190.506C626.897 190.875 615.845 204.959 616.291 221.963C616.736 238.968 628.51 252.454 642.588 252.085Z" fill="#FB8C7A"/>
<path d="M642.573 251.487C656.375 251.125 667.21 237.316 666.773 220.643C666.337 203.969 654.794 190.746 640.991 191.107C627.189 191.469 616.354 205.278 616.791 221.951C617.227 238.625 628.77 251.848 642.573 251.487Z" fill="#FB8C7A"/>
<path d="M642.557 250.886C656.083 250.532 666.702 236.997 666.274 220.655C665.846 204.313 654.534 191.352 641.007 191.706C627.481 192.061 616.863 205.595 617.29 221.938C617.718 238.28 629.031 251.24 642.557 250.886Z" fill="#FB8B7A"/>
<path d="M642.541 250.287C655.792 249.94 666.193 236.68 665.774 220.669C665.355 204.658 654.273 191.96 641.023 192.307C627.773 192.654 617.371 205.915 617.79 221.926C618.21 237.936 629.291 250.634 642.541 250.287Z" fill="#FA8A7A"/>
<path d="M642.524 249.687C655.498 249.347 665.683 236.361 665.272 220.681C664.862 205.002 654.011 192.567 641.037 192.906C628.063 193.246 617.878 206.232 618.288 221.912C618.699 237.591 629.549 250.027 642.524 249.687Z" fill="#FA897A"/>
<path d="M642.508 249.086C655.206 248.754 665.174 236.042 664.773 220.694C664.371 205.346 653.751 193.173 641.053 193.505C628.354 193.838 618.386 206.55 618.788 221.898C619.19 237.246 629.81 249.419 642.508 249.086Z" fill="#FA887B"/>
<path d="M642.491 248.387C654.913 248.062 664.666 235.669 664.274 220.708C663.882 205.746 653.495 193.881 641.072 194.206C628.65 194.531 618.898 206.924 619.289 221.886C619.681 236.847 630.069 248.713 642.491 248.387Z" fill="#FA877B"/>
<path d="M642.475 247.787C654.566 247.471 664.057 235.354 663.674 220.723C663.291 206.093 653.179 194.489 641.088 194.806C628.997 195.122 619.506 207.239 619.889 221.87C620.272 236.5 630.384 248.104 642.475 247.787Z" fill="#F9867B"/>
<path d="M642.46 247.187C654.274 246.878 663.549 235.035 663.174 220.736C662.8 206.436 652.918 195.095 641.104 195.405C629.289 195.714 620.014 207.557 620.389 221.856C620.763 236.155 630.645 247.496 642.46 247.187Z" fill="#F9857B"/>
<path d="M642.444 246.588C653.983 246.286 663.04 234.718 662.675 220.75C662.309 206.782 652.658 195.703 641.119 196.006C629.581 196.308 620.523 207.876 620.889 221.844C621.255 235.812 630.905 246.89 642.444 246.588Z" fill="#F9847B"/>
<path d="M642.428 245.988C653.691 245.693 662.532 234.399 662.175 220.762C661.818 207.125 652.398 196.31 641.135 196.605C629.872 196.9 621.032 208.193 621.389 221.83C621.746 235.467 631.166 246.283 642.428 245.988Z" fill="#F9837B"/>
<path d="M642.413 245.389C653.399 245.101 662.023 234.082 661.675 220.776C661.327 207.471 652.138 196.918 641.151 197.206C630.164 197.493 621.54 208.513 621.889 221.818C622.237 235.124 631.426 245.677 642.413 245.389Z" fill="#F8827B"/>
<path d="M642.394 244.688C653.104 244.408 661.513 233.707 661.175 220.788C660.836 207.869 651.879 197.624 641.169 197.904C630.458 198.185 622.05 208.885 622.388 221.804C622.726 234.723 631.683 244.969 642.394 244.688Z" fill="#F8817B"/>
<path d="M642.378 244.09C652.813 243.816 661.005 233.39 660.675 220.803C660.345 208.215 651.619 198.232 641.185 198.505C630.75 198.778 622.558 209.204 622.888 221.792C623.217 234.38 631.944 244.363 642.378 244.09Z" fill="#F8807C"/>
<path d="M642.363 243.489C652.521 243.223 660.496 233.072 660.175 220.815C659.854 208.558 651.359 198.838 641.2 199.104C631.042 199.37 623.067 209.522 623.388 221.778C623.709 234.035 632.204 243.755 642.363 243.489Z" fill="#F87F7C"/>
<path d="M642.347 242.888C652.229 242.63 659.988 232.753 659.675 220.827C659.363 208.902 651.099 199.445 641.216 199.703C631.334 199.962 623.575 209.839 623.888 221.764C624.2 233.69 632.464 243.147 642.347 242.888Z" fill="#F77E7C"/>
<path d="M642.331 242.29C651.938 242.038 659.479 232.436 659.176 220.842C658.872 209.248 650.838 200.053 641.232 200.304C631.625 200.556 624.084 210.159 624.388 221.753C624.691 233.347 632.725 242.541 642.331 242.29Z" fill="#F77D7C"/>
<path d="M642.315 241.69C651.591 241.447 658.871 232.12 658.576 220.857C658.281 209.594 650.523 200.661 641.247 200.904C631.972 201.147 624.692 210.474 624.987 221.737C625.282 233 633.04 241.933 642.315 241.69Z" fill="#F77C7C"/>
</g>
<path opacity="0.1" d="M800.778 86.3241C798.578 82.1241 795.778 79.4241 792.678 77.8241C789.678 78.0241 786.478 78.2241 783.278 78.5241C773.678 79.4241 763.678 79.4241 754.278 76.9241C743.378 73.9241 734.278 67.6241 725.078 61.3241C720.478 58.1241 715.778 54.9241 710.978 52.0241C700.578 45.8241 688.278 39.4241 676.078 38.1241C670.078 37.5241 663.878 38.5241 658.078 40.0241C652.678 41.4241 648.078 43.9241 644.478 46.6241C643.778 47.2241 642.178 48.0241 640.678 48.8241C640.178 53.3241 640.178 57.4241 640.478 61.1241C641.078 60.8241 641.678 60.6241 641.878 60.5241C644.078 59.3241 646.778 58.1241 649.878 57.3241C652.978 56.5241 656.378 55.9241 660.178 56.1241C674.778 57.0241 687.378 64.6241 699.678 71.7241C704.678 74.6241 709.778 77.9241 715.178 81.1241C720.578 84.3241 726.178 87.4241 732.178 90.2241C742.278 94.8241 754.978 97.6241 766.078 96.0241C767.578 95.8241 769.078 95.7241 770.478 95.4241C776.278 94.4241 781.378 92.8241 785.778 91.2241C790.278 89.6241 794.078 88.1241 797.478 87.1241C798.678 86.7241 799.778 86.4241 800.778 86.1241V86.3241Z" fill="#FFBA80"/>
<path d="M710.678 152.324C710.678 152.324 696.778 181.924 712.378 205.324L757.478 207.624C760.478 200.524 758.778 191.724 757.178 179.924C755.778 170.224 710.678 152.324 710.678 152.324Z" fill="url(#paint10_linear_2394_71819)"/>
<path d="M633.878 163.923C628.878 172.223 624.178 191.423 624.178 191.423L665.078 202.023C686.978 183.123 679.778 146.523 679.778 146.523C679.778 146.523 638.678 156.123 633.978 163.923H633.878Z" fill="url(#paint11_linear_2394_71819)"/>
<path d="M738.479 191.525C719.879 187.825 712.379 205.425 712.379 205.425C712.379 205.425 717.079 209.125 735.679 210.725C757.679 212.525 757.479 207.725 757.479 207.725C757.479 207.725 756.979 195.325 738.379 191.525H738.479Z" fill="white"/>
<path d="M624.178 191.425C624.178 191.425 624.278 195.125 640.578 199.325C659.878 204.325 665.078 202.025 665.078 202.025C665.078 202.025 663.878 190.725 656.778 184.425C649.678 178.125 636.578 176.725 624.278 191.425H624.178Z" fill="white"/>
<path d="M640.579 199.224C647.179 200.924 652.079 201.724 655.779 202.124C658.779 195.424 657.779 188.424 653.479 186.524C649.179 184.524 643.179 188.524 639.979 195.324C639.479 196.424 639.079 197.624 638.779 198.724C639.379 198.924 639.879 199.024 640.479 199.224H640.579Z" fill="url(#paint12_linear_2394_71819)"/>
<path d="M735.778 210.625C738.278 210.825 740.578 210.925 742.578 211.025C744.978 204.025 743.878 197.225 739.978 195.225C735.678 193.125 729.578 197.525 726.378 205.125C725.878 206.325 725.478 207.825 725.178 209.325C728.078 209.825 731.578 210.325 735.778 210.625Z" fill="url(#paint13_linear_2394_71819)"/>
<path d="M649.978 178.124C636.478 175.524 624.078 183.924 624.178 191.324C624.178 191.324 631.878 182.824 646.378 185.324C663.378 188.324 665.078 201.924 665.078 201.924C668.578 196.024 668.778 181.724 649.978 178.124Z" fill="#603F37"/>
<path d="M631.279 169.525C649.079 156.025 671.279 165.425 678.579 157.225C682.179 153.225 679.479 145.925 679.479 145.925C638.479 142.525 631.279 169.525 631.279 169.525Z" fill="url(#paint14_linear_2394_71819)"/>
<path d="M711.079 150.125C711.079 150.125 708.179 157.225 710.879 160.925C719.179 172.525 742.879 166.725 757.679 183.425C757.679 183.425 755.179 150.425 711.079 150.225V150.125Z" fill="url(#paint15_linear_2394_71819)"/>
<path d="M737.078 186.925C715.978 184.225 710.178 200.025 712.378 205.425C712.378 205.425 720.478 193.725 737.278 195.425C755.578 197.225 757.478 207.725 757.478 207.725C760.178 201.025 757.878 189.625 737.078 187.025V186.925Z" fill="#603F37"/>
<path d="M653.379 196.724C652.979 199.124 650.779 201.024 648.479 200.824C646.179 200.624 644.579 198.624 644.979 196.224C645.379 193.824 647.579 191.924 649.879 192.124C652.179 192.224 653.779 194.324 653.379 196.724Z" fill="#1E1D1D"/>
<path d="M739.379 206.624C738.979 209.024 736.779 210.524 734.479 210.424C732.179 210.324 730.579 208.624 730.979 206.224C731.379 203.824 733.579 201.924 735.879 202.124C738.179 202.224 739.779 204.324 739.379 206.724V206.624Z" fill="#1E1D1D"/>
<path opacity="0.8" d="M646.979 191.424C644.979 192.124 643.479 193.824 643.579 195.124C643.679 196.424 645.379 196.924 647.379 196.224C649.379 195.524 650.879 193.824 650.779 192.524C650.679 191.224 648.979 190.724 646.979 191.424Z" fill="white"/>
<path opacity="0.8" d="M732.379 200.524C730.179 201.524 728.679 203.624 728.879 205.124C729.079 206.724 730.979 207.124 733.179 206.124C735.379 205.124 736.879 203.024 736.679 201.524C736.479 199.924 734.579 199.524 732.379 200.524Z" fill="white"/>
<path opacity="0.1" d="M766.579 100.724C754.879 107.724 742.279 111.224 728.779 112.824C728.579 112.824 728.479 112.824 728.379 112.924C737.379 111.824 744.079 110.324 744.079 110.324C746.279 110.524 748.479 111.724 750.679 113.524C756.979 111.424 762.979 108.524 768.679 105.024C771.279 103.424 769.279 99.0239 766.579 100.724Z" fill="black"/>
<path d="M641.578 251.924C641.578 251.924 641.478 293.424 681.178 295.024C723.678 296.724 724.778 256.124 724.778 256.124L641.678 251.924H641.578Z" fill="#F9755C"/>
<path d="M643.679 252.724C642.979 253.524 643.779 284.124 681.379 285.524C719.479 287.024 723.679 258.424 723.279 257.524C722.079 254.924 646.279 249.824 643.679 252.624V252.724Z" fill="url(#paint16_linear_2394_71819)"/>
<path d="M650.178 252.523C650.178 252.523 649.978 258.423 653.578 262.723C661.678 272.423 704.078 274.423 712.078 266.223C717.278 260.823 717.378 256.123 717.378 256.123L650.178 252.523Z" fill="#F5EEEE"/>
<path opacity="0.3" d="M717.378 256.123L650.178 252.523C650.178 252.523 649.978 257.923 653.178 262.223C655.978 257.723 665.578 265.423 681.778 266.323C699.178 267.223 704.978 263.123 708.478 263.923C710.678 264.423 710.678 265.723 710.078 267.623C710.878 267.123 711.578 266.723 712.078 266.123C717.278 260.723 717.378 256.023 717.378 256.023V256.123Z" fill="#BFB8AE"/>
<path d="M677.678 210.123C677.678 210.123 661.678 205.223 656.078 219.023C648.978 236.623 683.879 251.423 695.979 233.623C708.079 215.823 686.178 177.523 686.178 177.523C686.178 177.523 690.278 196.523 677.678 210.123Z" fill="#FF9C78"/>
<path d="M655.178 224.125C655.578 239.225 685.078 249.825 695.978 233.725C696.678 232.725 697.178 231.725 697.678 230.625C683.078 232.025 668.378 229.525 655.178 224.125Z" fill="url(#paint17_linear_2394_71819)"/>
<path opacity="0.2" d="M689.779 197.225L685.779 196.625C685.779 196.625 682.179 209.425 677.979 210.825C677.379 210.725 676.679 210.525 676.079 210.525C668.979 209.425 662.879 211.125 662.479 214.125C661.979 217.225 667.379 220.325 674.479 221.425C681.079 222.425 687.079 221.925 688.279 218.425C688.279 218.425 692.979 205.125 689.879 197.325L689.779 197.225Z" fill="white"/>
<path opacity="0.4" d="M648.678 205.224C644.778 204.824 641.178 203.524 637.278 202.924C635.178 202.624 634.278 205.524 635.878 206.724C639.578 209.324 644.478 209.624 648.878 209.424C651.378 209.324 650.978 205.424 648.678 205.124V205.224Z" fill="#EB6954"/>
<path opacity="0.4" d="M741.879 215.025C737.879 215.025 734.079 215.225 730.079 214.725C727.679 214.425 726.679 218.425 729.079 219.025C733.279 220.025 737.879 220.525 742.079 219.425C744.279 218.825 744.579 215.025 741.879 215.025Z" fill="#EB6954"/>
<path d="M741.378 357.224C732.978 369.924 707.578 396.424 700.078 395.524C694.678 394.824 687.478 378.524 682.278 365.724C679.278 366.524 676.378 366.824 673.578 366.424C672.378 366.224 671.278 365.924 670.178 365.524C666.878 368.124 662.278 371.824 657.378 375.324C640.078 387.724 636.678 386.624 636.478 386.624C632.778 384.824 623.678 360.024 616.978 337.324C616.678 338.124 616.378 338.924 616.078 339.824C616.078 339.824 614.878 340.024 612.678 340.424C614.078 345.124 616.678 353.524 619.678 362.024C628.978 388.824 632.878 390.524 634.478 391.224C637.178 392.424 642.578 392.224 660.078 379.524C664.778 376.124 670.178 371.824 673.978 368.824C666.378 432.024 635.778 688.924 634.378 759.524C636.078 759.724 637.778 759.824 639.378 760.024C640.578 690.924 670.978 435.524 678.878 370.424C683.378 381.224 691.178 399.324 699.578 400.424C699.878 400.424 700.078 400.424 700.378 400.424C712.378 400.424 739.078 369.824 746.378 358.824C743.678 357.824 741.978 357.324 741.578 357.124L741.378 357.224Z" fill="url(#paint18_linear_2394_71819)"/>
<path d="M598.979 872.023L597.379 878.223C621.079 881.423 651.879 883.823 651.879 883.823L652.379 877.323L598.979 872.023Z" fill="#292D35"/>
<path d="M777.677 403.625C770.277 411.525 620.377 570.025 619.877 577.625C619.377 585.225 612.277 651.925 612.277 651.925C612.277 651.925 625.677 663.325 643.477 667.325C661.277 671.425 704.577 663.225 714.777 656.625C721.277 652.425 822.477 547.025 822.477 547.025C822.477 547.025 849.577 460.125 849.477 454.125C848.977 437.325 777.777 403.725 777.777 403.725L777.677 403.625Z" fill="url(#paint19_linear_2394_71819)"/>
<path d="M633.479 556.223C633.479 556.223 648.779 537.023 652.979 535.723C657.179 534.523 694.178 535.523 716.078 552.123C748.178 576.523 742.979 616.523 741.279 618.723C739.479 621.023 717.779 651.523 716.779 651.523C715.779 651.523 633.479 556.123 633.479 556.123V556.223Z" fill="url(#paint20_linear_2394_71819)"/>
<path d="M484.578 826.325L482.678 834.225C490.878 830.025 501.878 824.225 508.578 819.225C507.778 817.825 506.978 816.525 506.178 815.125C502.578 817.225 492.278 822.425 484.578 826.425V826.325Z" fill="#292D35"/>
<path d="M639.979 775.924C565.079 768.424 518.879 760.524 498.679 756.624C496.179 756.324 491.879 783.224 494.679 784.724C516.279 788.924 562.479 796.724 637.279 804.124C702.679 810.624 758.079 812.324 785.279 813.024C787.579 813.424 787.479 785.524 784.879 785.224C759.579 784.624 707.779 782.624 640.079 775.924H639.979Z" fill="#1C1D1E"/>
<path d="M569.879 807.724L552.879 805.124L560.779 758.324L577.779 760.824L569.879 807.724Z" fill="#333844"/>
<path d="M704.779 618.824C705.179 592.424 689.379 575.424 667.679 563.124C643.579 549.524 539.879 542.024 502.079 517.924C502.079 517.924 480.779 541.224 483.179 551.824C495.379 605.824 635.879 677.324 679.479 659.124C693.679 653.224 704.579 634.624 704.779 618.824Z" fill="url(#paint21_linear_2394_71819)"/>
<path d="M711.379 821.824L694.379 819.224L702.379 772.324L719.279 774.924L711.379 821.824Z" fill="#333844"/>
<path d="M759.678 842.924C758.378 845.324 758.778 844.524 757.578 847.024C763.878 853.624 774.678 861.924 782.378 867.724C782.478 865.224 782.678 862.724 782.778 860.424L759.778 842.924H759.678Z" fill="#292D35"/>
<path d="M664.179 778.224C664.179 778.224 612.479 772.524 612.379 773.524C612.379 773.524 609.279 800.324 609.679 800.824C610.079 801.324 661.679 806.424 661.679 806.424C661.679 806.424 661.279 810.824 660.279 811.224C656.879 812.824 603.579 806.924 602.279 805.424C600.979 803.924 605.379 769.024 606.679 767.224C607.979 765.424 662.579 771.424 663.479 772.324C664.379 773.224 664.079 778.124 664.079 778.124L664.179 778.224Z" fill="url(#paint22_linear_2394_71819)"/>
<path d="M606.678 782.424C606.678 782.424 605.378 788.524 605.778 789.024C606.178 789.524 618.678 790.324 619.078 790.124C619.478 789.924 620.078 784.824 619.778 784.024C619.578 783.424 607.178 782.124 606.678 782.524V782.424Z" fill="url(#paint23_linear_2394_71819)"/>
<path d="M329.178 73.7246C369.178 73.7246 426.878 257.925 426.878 257.925C426.878 257.925 609.378 263.325 624.378 297.725C638.878 331.025 489.078 442.825 489.078 442.825C489.078 442.825 534.678 630.325 502.678 648.125C472.378 664.925 319.578 542.325 319.578 542.325C319.578 542.325 163.878 662.425 132.278 640.525C100.578 618.625 162.378 438.525 162.378 438.525C162.378 438.525 9.77815 321.725 25.0782 285.325C41.8782 245.425 225.378 248.725 225.378 248.725C225.378 248.725 288.978 73.7246 329.278 73.7246H329.178Z" fill="url(#paint24_linear_2394_71819)"/>
<path d="M153.578 435.223C153.578 435.223 149.978 433.323 145.178 442.823C142.478 448.123 140.778 454.623 141.378 460.623C139.078 461.923 133.178 467.123 128.878 471.023C124.178 475.423 123.578 481.823 126.278 487.523C120.778 489.523 117.578 496.423 119.578 501.923C119.978 502.923 120.478 503.823 120.378 504.923C120.178 506.823 118.178 507.823 116.878 509.223C115.178 511.123 114.878 514.023 115.178 516.623C115.578 519.223 116.478 521.723 116.778 524.323C116.778 524.923 116.878 525.423 116.578 525.923C116.278 526.523 115.678 526.823 115.178 527.123C112.278 529.123 111.178 532.923 111.378 536.423C111.778 547.823 122.378 554.523 132.378 557.223C134.978 557.923 137.678 558.023 140.278 558.723C146.378 560.223 153.778 560.223 159.878 559.023C162.978 558.423 166.478 557.523 168.078 554.623C169.078 552.823 169.078 550.323 168.078 548.623C171.478 546.923 175.378 544.623 176.278 540.623C176.578 539.423 176.478 538.123 176.278 536.923C175.978 533.823 175.078 530.323 172.478 529.223C175.478 528.623 178.278 526.723 180.678 524.523C182.278 523.023 183.978 521.323 184.678 519.123C185.478 516.823 185.178 514.323 184.678 511.923C184.178 509.123 183.078 505.823 180.478 505.223C183.878 502.223 184.478 496.623 182.778 492.523C180.078 486.023 151.078 475.523 151.078 475.523C151.078 475.523 152.778 468.823 153.478 465.523C153.478 465.523 159.078 449.623 162.178 438.623C162.178 438.623 156.178 435.523 153.478 435.423L153.578 435.223Z" fill="#FF9C78"/>
<path d="M156.578 435.923C155.478 435.523 154.378 435.223 153.678 435.223C153.678 435.223 150.078 433.323 145.278 442.823C142.578 448.123 140.878 454.623 141.478 460.623C139.178 461.923 133.278 467.123 128.978 471.023C124.278 475.423 123.678 481.823 126.378 487.523C120.878 489.523 117.678 496.423 119.678 501.923C120.078 502.923 120.578 503.823 120.478 504.923C120.278 506.823 118.278 507.823 116.978 509.223C115.278 511.123 114.978 514.023 115.278 516.623C115.678 519.223 116.578 521.723 116.878 524.323C116.878 524.923 116.978 525.423 116.678 525.923C116.378 526.523 115.778 526.823 115.278 527.123C112.378 529.123 111.278 532.923 111.478 536.423C111.878 547.823 122.478 554.523 132.478 557.223C133.278 557.423 133.978 557.623 134.778 557.723C147.278 536.423 148.178 465.623 148.678 464.223C149.078 463.023 154.178 444.423 156.478 436.023L156.578 435.923Z" fill="url(#paint25_linear_2394_71819)"/>
<path d="M152.378 470.923C152.778 469.123 153.278 467.123 153.578 465.723C153.578 465.623 153.578 465.423 153.578 465.323C149.178 463.323 145.078 460.823 141.278 457.523C141.278 458.623 141.278 459.623 141.278 460.723C140.678 461.123 139.778 461.723 138.678 462.523C142.378 465.623 147.378 468.723 152.178 471.023L152.378 470.923Z" fill="url(#paint26_linear_2394_71819)"/>
<path d="M180.579 505.223C181.579 504.323 182.379 503.223 182.879 501.923C182.879 501.923 182.879 501.923 182.879 501.823C161.779 499.723 138.479 497.823 124.679 481.723C124.779 483.723 125.379 485.723 126.279 487.623C125.279 488.023 124.379 488.523 123.479 489.123C137.179 504.223 162.779 507.523 183.579 508.223C182.879 506.823 181.979 505.623 180.479 505.323L180.579 505.223Z" fill="url(#paint27_linear_2394_71819)"/>
<path d="M118.879 507.423C135.179 519.623 154.379 528.223 174.479 530.923C173.979 530.123 173.279 529.523 172.479 529.123C174.579 528.723 176.579 527.623 178.479 526.223C157.079 522.523 137.379 515.223 119.779 502.123C120.179 503.023 120.579 503.923 120.479 504.923C120.379 505.923 119.679 506.723 118.979 507.423H118.879Z" fill="url(#paint28_linear_2394_71819)"/>
<path d="M115.479 527.023C128.379 540.123 149.479 547.423 168.679 549.823C168.579 549.423 168.379 548.923 168.179 548.523C169.979 547.623 171.979 546.523 173.479 545.123C153.079 542.023 131.079 536.023 116.479 521.623C116.679 522.523 116.879 523.323 116.979 524.223C116.979 524.823 117.079 525.323 116.779 525.823C116.479 526.323 115.979 526.623 115.479 526.923V527.023Z" fill="url(#paint29_linear_2394_71819)"/>
<path d="M490.578 439.124C493.878 437.124 498.478 435.924 503.078 438.324C506.878 440.324 509.578 444.324 510.278 448.024C511.578 454.824 507.778 458.824 504.578 463.324C503.578 464.724 504.278 465.824 505.778 467.424C509.078 470.824 509.378 475.324 509.078 479.124C509.078 479.524 509.078 480.024 509.278 480.524C509.578 481.124 510.278 481.624 510.878 482.024C514.678 484.424 517.679 488.224 518.979 492.124C520.279 496.024 519.878 499.924 517.878 502.624C517.178 503.524 516.279 504.524 516.479 505.824C516.679 506.924 517.578 508.024 518.278 509.024C519.978 511.424 520.779 514.124 520.479 516.524C520.079 520.124 517.378 522.724 517.078 526.324C516.778 530.724 519.978 535.624 519.878 540.024C519.878 545.724 510.479 555.124 509.979 554.524C509.079 553.324 507.478 547.624 507.178 547.624C504.878 547.624 484.578 544.424 476.378 540.824C473.478 539.524 468.778 536.324 467.178 533.324C466.178 531.424 466.378 527.624 467.378 526.324C464.178 523.924 460.378 521.424 460.878 517.224C461.278 514.624 463.678 511.624 464.478 511.424C462.978 511.624 455.978 508.024 453.978 501.424C453.278 499.224 454.978 490.824 458.478 491.124C453.078 488.524 453.178 480.024 454.778 476.724C456.378 473.524 459.878 471.924 463.078 470.224C468.278 467.524 474.078 465.524 479.778 463.624C482.278 462.824 486.178 462.924 486.978 460.224C487.678 458.024 485.678 455.124 485.078 452.724C484.678 450.924 484.578 449.124 484.878 447.424C485.378 443.724 487.478 440.824 490.478 438.924L490.578 439.124Z" fill="#FF9C78"/>
<path d="M506.778 449.724C508.378 447.124 508.678 444.924 508.378 443.124C507.078 441.124 505.378 439.324 503.178 438.224C498.578 435.824 493.878 437.124 490.678 439.024C487.678 440.824 485.578 443.824 485.078 447.524C484.878 449.124 484.878 451.024 485.278 452.824C485.878 455.224 487.878 458.124 487.178 460.324C486.378 463.024 482.378 462.924 479.978 463.724C474.178 465.624 468.478 467.524 463.278 470.324C460.178 471.924 456.578 473.624 454.978 476.824C453.378 480.024 453.278 488.524 458.678 491.224C455.178 490.924 453.478 499.324 454.178 501.524C456.178 508.124 463.278 511.824 464.678 511.524C463.878 511.724 461.478 514.724 461.078 517.324C460.478 521.524 464.278 524.024 467.578 526.424C466.578 527.724 466.378 531.524 467.378 533.424C468.878 536.424 473.678 539.624 476.578 540.924C482.478 543.524 494.778 545.924 501.978 547.024C516.678 530.424 496.078 461.324 496.078 461.324C496.078 461.324 501.378 458.824 506.878 449.824L506.778 449.724Z" fill="url(#paint30_linear_2394_71819)"/>
<path d="M458.678 508.325C461.178 510.425 463.678 511.525 464.578 511.425C464.178 511.525 463.278 512.425 462.478 513.725C474.278 511.425 485.778 508.725 498.178 507.525C504.278 506.925 510.478 506.625 516.678 506.525C516.578 506.225 516.478 506.025 516.378 505.725C516.178 504.425 517.078 503.525 517.778 502.525C518.278 501.825 518.678 501.025 518.978 500.125C511.078 500.125 503.378 500.525 495.778 501.225C483.078 502.425 470.078 504.325 458.678 508.225V508.325Z" fill="url(#paint31_linear_2394_71819)"/>
<path d="M464.578 524.125C465.478 524.925 466.478 525.625 467.478 526.325C466.978 527.025 466.678 528.425 466.678 529.825C476.078 529.525 485.378 528.725 494.978 529.125C502.678 529.425 510.378 530.625 518.178 532.225C517.578 530.225 516.978 528.225 517.078 526.325C498.978 522.125 481.578 522.825 464.578 524.225V524.125Z" fill="url(#paint32_linear_2394_71819)"/>
<path d="M508.677 551.224C511.077 549.824 513.777 548.524 515.377 546.324C516.477 544.824 513.977 541.524 511.877 542.024C508.477 542.724 505.977 545.324 503.277 547.124C505.277 547.424 506.777 547.624 507.277 547.624C507.477 547.624 508.177 549.424 508.677 551.224Z" fill="url(#paint33_linear_2394_71819)"/>
<path d="M455.878 492.824C473.478 488.424 491.878 482.424 511.578 482.524C511.278 482.324 511.078 482.124 510.778 481.924C510.178 481.524 509.478 481.124 509.178 480.424C508.978 479.924 508.978 479.524 508.978 479.024C508.978 478.124 509.078 477.224 508.978 476.324C502.678 476.424 496.578 477.224 490.778 478.224C478.478 480.124 465.878 482.524 454.578 486.624C455.278 488.524 456.478 490.224 458.478 491.224C457.378 491.224 456.478 491.824 455.778 492.924L455.878 492.824Z" fill="url(#paint34_linear_2394_71819)"/>
<path d="M486.679 456.825C487.179 458.025 487.479 459.325 487.079 460.325C486.579 462.025 484.779 462.625 482.979 463.025C490.179 463.025 497.079 463.925 504.479 465.725C503.979 464.925 503.979 464.125 504.479 463.225C505.179 462.225 505.879 461.325 506.579 460.325C499.979 458.025 492.979 456.825 486.479 456.725L486.679 456.825Z" fill="url(#paint35_linear_2394_71819)"/>
<path d="M734.578 632.125C738.078 627.425 741.978 622.125 746.078 616.425C746.578 613.925 746.978 611.125 747.178 608.325C748.278 593.525 745.079 571.925 723.279 552.625C701.579 533.325 675.578 529.625 658.178 529.725C656.378 531.825 654.679 533.925 652.979 535.925C668.979 535.025 696.778 537.025 719.378 557.125C735.278 571.225 742.679 588.225 741.279 607.625C740.379 619.925 736.078 629.425 734.678 632.125H734.578Z" fill="url(#paint36_linear_2394_71819)"/>
<path d="M704.778 617.124C704.478 591.724 688.878 575.224 667.778 563.224C650.978 553.724 595.577 547.224 550.677 535.924C548.477 544.924 540.777 580.424 551.177 593.424C563.077 608.424 665.577 648.224 685.877 641.724C696.477 638.324 702.278 628.024 704.778 617.124Z" fill="url(#paint37_linear_2394_71819)"/>
<path d="M674.678 1480.72C675.678 1480.72 676.778 1480.82 677.778 1480.82C700.378 1480.82 728.578 1459.22 738.678 1450.82C738.378 1449.82 738.078 1448.82 737.778 1447.62C728.478 1455.32 697.278 1479.82 674.878 1477.62C651.778 1475.42 629.978 1449.02 624.878 1442.22C624.378 1443.42 623.978 1444.52 623.578 1445.52C630.478 1454.22 651.478 1478.32 674.578 1480.52L674.678 1480.72Z" fill="#3D3D3D"/>
<path d="M636.178 1430.42C636.178 1430.42 629.578 1437.92 630.578 1439.92C631.578 1441.92 658.778 1470.22 675.978 1470.92C693.178 1471.62 729.278 1446.52 728.578 1442.42C727.878 1438.32 688.178 1428.62 681.178 1427.72C674.178 1426.82 636.178 1430.42 636.178 1430.42Z" fill="url(#paint38_linear_2394_71819)"/>
<path d="M487.478 852.424C487.478 852.424 439.178 1051.22 439.178 1055.42C439.178 1059.62 468.678 1085.42 471.878 1085.42C475.078 1085.42 536.278 1075.52 540.478 1070.82C544.678 1066.12 600.578 885.624 598.378 883.824C596.178 882.124 487.478 852.324 487.478 852.324V852.424Z" fill="url(#paint39_linear_2394_71819)"/>
<path d="M642.578 889.125C642.578 889.125 637.478 1068.52 638.878 1072.42C640.278 1076.32 699.778 1115.83 703.878 1111.63C706.178 1109.23 760.578 1075.92 760.978 1072.42C761.478 1068.92 772.278 893.325 770.078 892.425C767.878 891.525 642.478 889.125 642.478 889.125H642.578Z" fill="url(#paint40_linear_2394_71819)"/>
<path d="M796.538 83.3231C799.235 78.3145 780.528 63.0046 754.756 49.1275C728.983 35.2505 705.904 28.0611 703.207 33.0698C700.51 38.0784 719.217 53.3883 744.99 67.2653C770.762 81.1424 793.841 88.3317 796.538 83.3231Z" fill="#0C4266"/>
<path d="M796.976 84.3232C794.276 89.3232 771.176 82.1232 745.376 68.2232C719.576 54.3232 700.976 38.0232 703.676 33.0232C706.376 28.0232 705.476 31.8232 707.176 32.4232C708.876 33.0232 726.176 48.3232 747.176 59.6232C769.676 71.8232 794.876 75.5232 796.976 81.9232C799.076 88.3232 797.276 83.6232 796.976 84.2232V84.3232Z" fill="#092E4C"/>
<defs>
<linearGradient id="paint0_linear_2394_71819" x1="482.378" y1="1511.32" x2="482.378" y2="1429.22" gradientUnits="userSpaceOnUse">
<stop stop-color="white"/>
<stop offset="1" stop-color="#A3B5C4"/>
</linearGradient>
<linearGradient id="paint1_linear_2394_71819" x1="678.359" y1="338.993" x2="674.894" y2="364.963" gradientUnits="userSpaceOnUse">
<stop stop-color="#D97D67"/>
<stop offset="1" stop-color="#FF9C78"/>
</linearGradient>
<linearGradient id="paint2_linear_2394_71819" x1="586.627" y1="1335.94" x2="583.629" y2="1363.68" gradientUnits="userSpaceOnUse">
<stop stop-color="#5B5B60"/>
<stop offset="1" stop-color="#2C2C2D"/>
</linearGradient>
<linearGradient id="paint3_linear_2394_71819" x1="522.142" y1="384.438" x2="498.05" y2="727.625" gradientUnits="userSpaceOnUse">
<stop stop-color="#DCEDFF"/>
<stop offset="1" stop-color="#C8D9ED"/>
</linearGradient>
<linearGradient id="paint4_linear_2394_71819" x1="655.878" y1="439.625" x2="609.278" y2="769.325" gradientUnits="userSpaceOnUse">
<stop stop-color="#B1C9E0"/>
<stop offset="1" stop-color="#C8D9ED"/>
</linearGradient>
<linearGradient id="paint5_linear_2394_71819" x1="583.56" y1="213.951" x2="622.905" y2="218.434" gradientUnits="userSpaceOnUse">
<stop stop-color="#F08A70"/>
<stop offset="1" stop-color="#FF9C78"/>
</linearGradient>
<linearGradient id="paint6_linear_2394_71819" x1="703.504" y1="107.296" x2="700.017" y2="137.898" gradientUnits="userSpaceOnUse">
<stop stop-color="#C4664F"/>
<stop offset="1" stop-color="#FF9C78"/>
</linearGradient>
<linearGradient id="paint7_linear_2394_71819" x1="766.679" y1="266.57" x2="806.521" y2="271.109" gradientUnits="userSpaceOnUse">
<stop stop-color="#F08A70"/>
<stop offset="1" stop-color="#FF9C78"/>
</linearGradient>
<linearGradient id="paint8_linear_2394_71819" x1="783.16" y1="233.222" x2="803.131" y2="235.498" gradientUnits="userSpaceOnUse">
<stop stop-color="#F08A70"/>
<stop offset="1" stop-color="#FF9C78"/>
</linearGradient>
<linearGradient id="paint9_linear_2394_71819" x1="730.393" y1="44.356" x2="718.65" y2="119.546" gradientUnits="userSpaceOnUse">
<stop stop-color="#75483B"/>
<stop offset="0.4" stop-color="#704438"/>
<stop offset="0.7" stop-color="#623C2F"/>
<stop offset="1" stop-color="#563428"/>
</linearGradient>
<linearGradient id="paint10_linear_2394_71819" x1="740.056" y1="130.985" x2="730.498" y2="204.274" gradientUnits="userSpaceOnUse">
<stop stop-color="#C4664F"/>
<stop offset="1" stop-color="#FF9C78"/>
</linearGradient>
<linearGradient id="paint11_linear_2394_71819" x1="661.125" y1="117.06" x2="650.969" y2="194.709" gradientUnits="userSpaceOnUse">
<stop stop-color="#C4664F"/>
<stop offset="1" stop-color="#FF9C78"/>
</linearGradient>
<linearGradient id="paint12_linear_2394_71819" x1="646.093" y1="202.611" x2="655.796" y2="183.333" gradientUnits="userSpaceOnUse">
<stop stop-color="#704A3E"/>
<stop offset="1"/>
</linearGradient>
<linearGradient id="paint13_linear_2394_71819" x1="734.1" y1="209.101" x2="739.913" y2="197.05" gradientUnits="userSpaceOnUse">
<stop stop-color="#704A3E"/>
<stop offset="1"/>
</linearGradient>
<linearGradient id="paint14_linear_2394_71819" x1="592.208" y1="156.126" x2="587.892" y2="181.167" gradientUnits="userSpaceOnUse">
<stop stop-color="#75483B"/>
<stop offset="0.4" stop-color="#704438"/>
<stop offset="0.7" stop-color="#623C2F"/>
<stop offset="1" stop-color="#563428"/>
</linearGradient>
<linearGradient id="paint15_linear_2394_71819" x1="667.696" y1="169.328" x2="663.694" y2="192.191" gradientUnits="userSpaceOnUse">
<stop stop-color="#75483B"/>
<stop offset="0.4" stop-color="#704438"/>
<stop offset="0.7" stop-color="#623C2F"/>
<stop offset="1" stop-color="#563428"/>
</linearGradient>
<linearGradient id="paint16_linear_2394_71819" x1="682.06" y1="284.416" x2="682.538" y2="277.125" gradientUnits="userSpaceOnUse">
<stop stop-color="#7C302A"/>
<stop offset="0.2" stop-color="#772E28"/>
<stop offset="0.4" stop-color="#692A26"/>
<stop offset="0.7" stop-color="#522421"/>
<stop offset="1" stop-color="#2D1A19"/>
</linearGradient>
<linearGradient id="paint17_linear_2394_71819" x1="675.378" y1="241.072" x2="676.929" y2="227.46" gradientUnits="userSpaceOnUse">
<stop stop-color="#F08A70"/>
<stop offset="1" stop-color="#FF9C78"/>
</linearGradient>
<linearGradient id="paint18_linear_2394_71819" x1="612.678" y1="548.624" x2="746.278" y2="548.624" gradientUnits="userSpaceOnUse">
<stop stop-color="#B1C9E0"/>
<stop offset="1" stop-color="#C8D9ED"/>
</linearGradient>
<linearGradient id="paint19_linear_2394_71819" x1="769.777" y1="420.125" x2="677.077" y2="691.125" gradientUnits="userSpaceOnUse">
<stop stop-color="#DCEDFF"/>
<stop offset="1" stop-color="#C8D9ED"/>
</linearGradient>
<linearGradient id="paint20_linear_2394_71819" x1="700.379" y1="549.623" x2="669.679" y2="639.423" gradientUnits="userSpaceOnUse">
<stop stop-color="#DCEDFF"/>
<stop offset="1" stop-color="#C8D9ED"/>
</linearGradient>
<linearGradient id="paint21_linear_2394_71819" x1="496.279" y1="553.924" x2="538.179" y2="569.424" gradientUnits="userSpaceOnUse">
<stop stop-color="#D97D67"/>
<stop offset="1" stop-color="#FF9C78"/>
</linearGradient>
<linearGradient id="paint22_linear_2394_71819" x1="585.809" y1="784.5" x2="617.551" y2="787.668" gradientUnits="userSpaceOnUse">
<stop stop-color="#5F6163"/>
<stop offset="1" stop-color="#444749"/>
</linearGradient>
<linearGradient id="paint23_linear_2394_71819" x1="603.41" y1="785.352" x2="617.341" y2="786.743" gradientUnits="userSpaceOnUse">
<stop stop-color="#5F6163"/>
<stop offset="1" stop-color="#444749"/>
</linearGradient>
<linearGradient id="paint24_linear_2394_71819" x1="345.878" y1="105.625" x2="298.478" y2="532.325" gradientUnits="userSpaceOnUse">
<stop stop-color="#FFE699"/>
<stop offset="1" stop-color="#F9C726"/>
</linearGradient>
<linearGradient id="paint25_linear_2394_71819" x1="119.478" y1="491.123" x2="149.378" y2="497.523" gradientUnits="userSpaceOnUse">
<stop stop-color="#FFB7A2"/>
<stop offset="1" stop-color="#FF9C78"/>
</linearGradient>
<linearGradient id="paint26_linear_2394_71819" x1="164.178" y1="473.123" x2="105.278" y2="442.823" gradientUnits="userSpaceOnUse">
<stop stop-color="#D97D67"/>
<stop offset="1" stop-color="#FF9C78"/>
</linearGradient>
<linearGradient id="paint27_linear_2394_71819" x1="152.179" y1="496.323" x2="93.3785" y2="466.023" gradientUnits="userSpaceOnUse">
<stop stop-color="#D97D67"/>
<stop offset="1" stop-color="#FF9C78"/>
</linearGradient>
<linearGradient id="paint28_linear_2394_71819" x1="142.679" y1="514.723" x2="83.8789" y2="484.423" gradientUnits="userSpaceOnUse">
<stop stop-color="#D97D67"/>
<stop offset="1" stop-color="#FF9C78"/>
</linearGradient>
<linearGradient id="paint29_linear_2394_71819" x1="133.679" y1="532.223" x2="74.8785" y2="501.923" gradientUnits="userSpaceOnUse">
<stop stop-color="#D97D67"/>
<stop offset="1" stop-color="#FF9C78"/>
</linearGradient>
<linearGradient id="paint30_linear_2394_71819" x1="454.678" y1="499.324" x2="506.678" y2="490.724" gradientUnits="userSpaceOnUse">
<stop stop-color="#FFB7A2"/>
<stop offset="1" stop-color="#FF9C78"/>
</linearGradient>
<linearGradient id="paint31_linear_2394_71819" x1="170.337" y1="391.962" x2="231.84" y2="392.541" gradientUnits="userSpaceOnUse">
<stop stop-color="#D97D67"/>
<stop offset="1" stop-color="#FF9C78"/>
</linearGradient>
<linearGradient id="paint32_linear_2394_71819" x1="170.198" y1="411.008" x2="231.714" y2="411.459" gradientUnits="userSpaceOnUse">
<stop stop-color="#D97D67"/>
<stop offset="1" stop-color="#FF9C78"/>
</linearGradient>
<linearGradient id="paint33_linear_2394_71819" x1="170.101" y1="427.738" x2="231.616" y2="428.189" gradientUnits="userSpaceOnUse">
<stop stop-color="#D97D67"/>
<stop offset="1" stop-color="#FF9C78"/>
</linearGradient>
<linearGradient id="paint34_linear_2394_71819" x1="170.587" y1="371.641" x2="231.981" y2="372.193" gradientUnits="userSpaceOnUse">
<stop stop-color="#D97D67"/>
<stop offset="1" stop-color="#FF9C78"/>
</linearGradient>
<linearGradient id="paint35_linear_2394_71819" x1="170.667" y1="348.949" x2="232.182" y2="349.4" gradientUnits="userSpaceOnUse">
<stop stop-color="#D97D67"/>
<stop offset="1" stop-color="#FF9C78"/>
</linearGradient>
<linearGradient id="paint36_linear_2394_71819" x1="706.478" y1="530.425" x2="672.878" y2="748.525" gradientUnits="userSpaceOnUse">
<stop stop-color="#B1C9E0"/>
<stop offset="1" stop-color="#C8D9ED"/>
</linearGradient>
<linearGradient id="paint37_linear_2394_71819" x1="640.977" y1="546.824" x2="622.577" y2="589.524" gradientUnits="userSpaceOnUse">
<stop stop-color="#FFB7A2"/>
<stop offset="1" stop-color="#FF9C78"/>
</linearGradient>
<linearGradient id="paint38_linear_2394_71819" x1="681.078" y1="1403.72" x2="678.278" y2="1469.92" gradientUnits="userSpaceOnUse">
<stop stop-color="#5B5B60"/>
<stop offset="1" stop-color="#2C2C2D"/>
</linearGradient>
<linearGradient id="paint39_linear_2394_71819" x1="494.478" y1="1104.52" x2="529.378" y2="911.624" gradientUnits="userSpaceOnUse">
<stop stop-color="#3D434F"/>
<stop offset="1" stop-color="#333844"/>
</linearGradient>
<linearGradient id="paint40_linear_2394_71819" x1="672.178" y1="1144.43" x2="708.078" y2="945.525" gradientUnits="userSpaceOnUse">
<stop stop-color="#3D434F"/>
<stop offset="1" stop-color="#333844"/>
</linearGradient>
</defs>
</svg>
