<svg width="940" height="1600" viewBox="0 0 940 1600" fill="none" xmlns="http://www.w3.org/2000/svg">
<path d="M657 922.802C675.6 919.302 694.3 916.702 713.2 915.402C731.2 914.202 752.1 912.202 770.1 912.502C746.1 603.202 611.2 601.402 581.4 591.602L598.6 723.002C615.8 758.902 647.5 849.402 657.1 922.802H657Z" fill="#667EB5"/>
<path d="M444.1 1406.1C446.4 1343.2 448.7 1278.5 450.8 1214.9L279.1 1209.8C275.1 1271.1 274.2 1344.2 274.7 1406.1H444.2H444.1Z" fill="#303940"/>
<path d="M651.4 1406.1C648.3 1343.7 647 1289.5 645.1 1213L479.6 1218.1C480.8 1277.1 482.5 1341.3 484.3 1406H651.4V1406.1Z" fill="#303940"/>
<path d="M282.499 1152.5C278.599 1218.7 281.699 1274.3 281.699 1274.3C281.699 1274.3 379.099 1284.9 491.299 1283.9C564.199 1283.2 626.499 1289.2 631.199 1256.7C635.599 1226.5 638.999 1190.3 641.699 1152.5H282.499Z" fill="#303940"/>
<path d="M568.799 665.701L567.999 590.201C506.399 572.101 422.399 572.301 363.199 597.101L363.899 665.801H568.799V665.701Z" fill="#FF8668"/>
<path d="M532.5 582.8C525.2 581.3 520.3 574.8 520.1 566.701L515.6 502.1C514.2 483.2 492.3 473.3 464.6 472.3C436.8 471.3 417.6 484.7 418.7 504.4L416 569.8C415.7 575.8 409.9 583.001 404 584.201C389 587.201 376.3 591.601 363.1 596.901L359 662L560 666L595.8 596.6C586.9 593.8 542.1 585 532.5 583V582.8Z" fill="#FF8668"/>
<path d="M468 587.502C486.4 587.802 509.2 584.402 523.5 577.702C523.2 576.602 523.1 575.402 523 574.202L523.3 563.102C477.1 578.602 438.6 575.902 415.8 568.702L407.9 572.302C411.5 576.502 412.2 579.502 411.2 581.302C423 586.102 450.4 587.202 467.9 587.402L468 587.502Z" fill="#FD7258"/>
<path d="M282.5 928.201C263.9 924.701 245.2 922.101 226.3 920.801C208.3 919.601 187.4 917.601 169.4 917.901C193.4 608.601 323.7 608.001 353.5 598.301L341 728.401C323.8 764.301 292.1 854.801 282.5 928.201Z" fill="#667EB5"/>
<path d="M543.7 1153.4L500.1 1226L531.6 1229.4L573.8 1153.4H543.7Z" fill="#393E3F"/>
<path d="M525.2 597.102C518.5 611.102 503.4 630.902 468.7 631.302C430 631.802 412.5 613.202 407 599.902L322 618.102L323.7 1206.8C356.4 1214.1 404.3 1221.4 462.6 1220.6C525.3 1219.8 571.8 1211.1 600.5 1203.6L594.5 613.802L525.2 597.102Z" fill="#DDE5EA"/>
<path d="M420.4 630.2C420.4 630.2 417.1 594.5 416.3 561.4C401.6 564.1 382.7 588.8 382.7 588.8C355.3 597 318.8 609.5 306.3 621.7C272.2 655.2 275 738.1 273 857.6C270.8 985.8 270.7 981 256.6 1228.4C256.6 1228.4 335.4 1241.2 424.4 1246C418.2 1072.5 421.5 812.8 420.5 630.1L420.4 630.2Z" fill="#667EB5"/>
<path d="M510.9 649.202C512 626.702 519.5 592.702 519.6 559.602C534.3 562.302 551.3 583.402 551.3 583.402C583.2 591.202 612.2 600.102 624.9 612.302C659.7 645.802 649.9 721.602 654.4 841.002C657.2 916.002 663.5 968.902 668.4 1035C671.9 1081.8 672 1156.1 673.4 1227.8C673.4 1227.8 594.4 1239.4 505.4 1244.3C508.8 1076.2 503 803.702 510.8 649.102L510.9 649.202Z" fill="#667EB5"/>
<path d="M271.8 919.102C273.8 874.702 284.4 663.102 310.8 610.602C307.3 611.902 301.9 613.902 298.6 616.202C274.1 681.002 266.4 874.002 264.5 917.302C266.7 917.702 269.5 918.702 271.7 919.102H271.8Z" fill="#6D88BE"/>
<path d="M402.899 643.4C397.899 642.6 390.899 644.8 383.999 646.9C379.599 648.3 374.599 649.8 371.999 649.8C368.899 644.3 370.199 611.3 382.499 588.9C379.599 589.8 376.599 590.7 373.599 591.7C363.599 614.4 361.899 644.1 365.899 652.6C367.199 655.4 369.099 656.2 370.399 656.4C374.199 656.9 379.599 655.2 385.899 653.3C391.499 651.6 397.699 649.6 401.199 650C405.099 653.9 413.099 682.5 420.499 712.7C420.499 703.7 420.499 694.8 420.499 686C409.199 644.9 405.499 643.8 402.699 643.4H402.899Z" fill="#6D88BE"/>
<path d="M400.901 647.501L394.201 647.301C394.201 652.401 387.301 1135.1 392.001 1243.9C394.201 1244.1 396.501 1244.2 398.701 1244.4C393.901 1137.9 400.801 652.601 400.901 647.501Z" fill="#6D88BE"/>
<path d="M282.8 726.402L281.5 719.802C284.5 719.202 355.3 705.702 394.3 708.002L394 714.702C355.8 712.402 283.6 726.202 282.9 726.402H282.8Z" fill="#6D88BE"/>
<path d="M657.3 863.701C657.7 885.701 657.5 902.801 658.3 921.401L665.9 919.001C665.2 900.401 664.5 885.501 664.1 863.601C662.3 774.701 660.3 662.601 635.3 608.901C631.7 606.701 628.3 605.501 625 604.301C653.7 652.101 655.6 770.101 657.4 863.701H657.3Z" fill="#6D88BE"/>
<path d="M560.6 585.8C557.9 585.1 555.1 584.1 551.3 583.5C564.4 606.2 568.7 643.8 565.9 649.8C563.3 649.8 558.4 648.2 554 646.9C547.1 644.8 540 642.6 535 643.4C532.2 643.9 528.1 644.6 515.4 686.9C514.3 690.7 510.1 704.9 509 708.6C508.8 716.5 509 714.2 508.6 722.5C517.4 688.9 532.1 654.1 536.5 649.9C540 649.6 546.3 651.5 552 653.2C558.3 655.1 563.8 656.8 567.6 656.3C568.9 656.1 570.7 655.4 571.9 652.7C575.8 644.1 571.9 609.4 560.5 585.8H560.6Z" fill="#6D88BE"/>
<path d="M540.1 1242.2C539.6 1134.1 539.1 655.1 538.9 650H532.2C532.3 655.2 531.5 1136 532 1242.8C534.3 1242.6 537.8 1242.4 540.1 1242.2Z" fill="#6D88BE"/>
<path d="M656.801 726.301C656.001 726.201 575.501 712.201 537.301 714.501L536.801 707.801C575.801 705.501 654.501 719.101 657.801 719.701L656.701 726.301H656.801Z" fill="#6D88BE"/>
<path d="M331.4 896.002C331.2 896.002 331 896.002 330.8 896.002C318.4 895.502 286.3 878.602 282.3 871.702C279.1 866.202 282.4 811.802 284.7 780.102L284.9 776.802L384 776.602V780.302C383.5 806.702 382.3 868.602 381.3 872.002C380.2 875.302 366.2 882.802 360.2 885.802C351 890.402 338.6 895.902 331.4 896.002ZM288.2 868.502C291 872.702 320.2 888.902 330.9 889.402C340.5 889.802 370.2 873.402 374.9 869.402C375.6 862.602 376.6 816.702 377.2 783.402L291.2 783.602C288.5 822.202 286.6 863.302 288.2 868.502Z" fill="#6D88BE"/>
<path d="M573.7 885.701C567.9 882.701 554.1 875.301 553 872.001C552 868.701 550.9 806.901 550.6 780.501V776.801L646.8 776.901V780.201C649.1 811.801 652.2 866.001 649.1 871.601C645.2 878.401 614.1 895.301 602 895.901C601.8 895.901 601.7 895.901 601.5 895.901C594.5 895.901 582.6 890.401 573.7 885.801V885.701ZM640.8 783.501H557.3C557.7 816.601 558.6 862.401 559.3 869.201C563.8 873.101 592.6 889.501 602 889.101C612.5 888.701 640.8 872.401 643.5 868.201C645.1 863.101 643.3 822.001 640.8 783.501Z" fill="#6D88BE"/>
<path d="M415.3 726.3C415.3 730.1 412.3 733.1 408.5 733.1C404.7 733.1 401.6 730 401.6 726.3C401.6 722.5 404.6 719.5 408.4 719.5C412.2 719.5 415.3 722.6 415.3 726.3Z" fill="#AEB5C2"/>
<path d="M415.1 840.2C415.1 844 412.1 847 408.3 847C404.5 847 401.4 843.9 401.4 840.2C401.4 836.4 404.4 833.4 408.2 833.4C412 833.4 415.1 836.5 415.1 840.2Z" fill="#AEB5C2"/>
<path d="M415.001 955.402C415.001 959.202 412.001 962.202 408.201 962.202C404.401 962.202 401.301 959.102 401.301 955.402C401.301 951.602 404.301 948.602 408.101 948.602C411.901 948.602 415.001 951.702 415.001 955.402Z" fill="#AEB5C2"/>
<path d="M414.8 1070.5C414.8 1074.3 411.8 1077.3 408 1077.3C404.2 1077.3 401.1 1074.2 401.1 1070.5C401.1 1066.8 404.1 1063.7 407.9 1063.7C411.7 1063.7 414.8 1066.8 414.8 1070.5Z" fill="#AEB5C2"/>
<path d="M414.6 1185.7C414.6 1189.5 411.6 1192.5 407.8 1192.5C404 1192.5 400.9 1189.4 400.9 1185.7C400.9 1181.9 403.9 1178.9 407.7 1178.9C411.5 1178.9 414.6 1182 414.6 1185.7Z" fill="#AEB5C2"/>
<path d="M360.169 468.293C373.503 465.41 380.896 447.276 376.683 427.789C372.469 408.301 358.245 394.841 344.912 397.724C331.578 400.606 324.185 418.741 328.398 438.228C332.612 457.715 346.836 471.176 360.169 468.293Z" fill="#FF8668"/>
<path d="M566 297.701C561.4 252.501 436.2 223.701 395.3 283.101C381.7 310.901 365.1 363.501 355.5 416.001C355.5 415.401 355.5 415.101 355.5 415.101C355.5 415.101 311.7 550.801 436.6 565.301C556.8 579.201 580 521.001 579.5 438.401C582.4 392.101 573.3 332.801 565.9 297.801L566 297.701Z" fill="#FF9977"/>
<g opacity="0.4">
<path d="M442.71 448.363C444.696 421.318 426.168 397.916 401.327 396.091C376.486 394.267 354.738 414.712 352.752 441.756C350.766 468.801 369.294 492.203 394.135 494.028C418.976 495.852 440.724 475.407 442.71 448.363Z" fill="#FF9977"/>
<path d="M441.912 448.305C443.861 421.756 425.661 398.782 401.261 396.99C376.86 395.198 355.499 415.268 353.55 441.816C351.6 468.365 369.8 491.339 394.201 493.131C418.601 494.923 439.962 474.854 441.912 448.305Z" fill="#FF9978"/>
<path d="M441.015 448.239C442.929 422.186 425.101 399.643 401.196 397.887C377.291 396.132 356.362 415.829 354.449 441.882C352.535 467.935 370.363 490.478 394.268 492.233C418.173 493.989 439.102 474.292 441.015 448.239Z" fill="#FF9879"/>
<path d="M440.217 448.179C442.094 422.622 424.594 400.507 401.13 398.784C377.666 397.061 357.123 416.382 355.246 441.939C353.369 467.497 370.869 489.612 394.333 491.335C417.797 493.058 438.34 473.737 440.217 448.179Z" fill="#FE987A"/>
<path d="M439.219 448.115C441.06 423.054 423.932 401.37 400.964 399.683C377.995 397.996 357.884 416.945 356.043 442.007C354.203 467.068 371.331 488.752 394.299 490.439C417.267 492.125 437.379 473.176 439.219 448.115Z" fill="#FE987B"/>
<path d="M438.421 448.056C440.225 423.49 423.425 402.234 400.897 400.58C378.369 398.926 358.645 417.499 356.841 442.065C355.037 466.63 371.837 487.886 394.364 489.54C416.892 491.195 436.617 472.621 438.421 448.056Z" fill="#FE987C"/>
<path d="M437.623 447.996C439.39 423.926 422.918 403.099 400.831 401.477C378.744 399.855 359.406 418.052 357.638 442.122C355.87 466.192 372.343 487.02 394.43 488.642C416.517 490.264 435.855 472.066 437.623 447.996Z" fill="#FE977D"/>
<path d="M436.725 447.932C438.452 424.413 422.349 404.061 400.757 402.476C379.166 400.89 360.263 418.671 358.535 442.19C356.808 465.709 372.912 486.061 394.503 487.646C416.094 489.232 434.998 471.451 436.725 447.932Z" fill="#FD977E"/>
<path d="M435.929 447.872C437.619 424.849 421.844 404.926 400.693 403.372C379.542 401.819 361.026 419.224 359.335 442.248C357.644 465.271 373.42 485.195 394.57 486.748C415.721 488.301 434.238 470.896 435.929 447.872Z" fill="#FD977F"/>
<path d="M435.13 447.813C436.785 425.285 421.337 405.79 400.627 404.269C379.916 402.748 361.786 419.778 360.132 442.306C358.478 464.833 373.926 484.329 394.636 485.849C415.346 487.37 433.476 470.341 435.13 447.813Z" fill="#FD9680"/>
<path d="M434.232 447.749C435.85 425.717 420.775 406.653 400.56 405.168C380.346 403.684 362.647 420.341 361.029 442.373C359.411 464.405 374.487 483.469 394.701 484.953C414.915 486.438 432.614 469.781 434.232 447.749Z" fill="#FD9681"/>
<path d="M433.436 447.689C435.017 426.153 420.269 407.517 400.496 406.065C380.722 404.613 363.41 420.894 361.828 442.431C360.247 463.967 374.995 482.603 394.768 484.055C414.542 485.507 431.854 469.226 433.436 447.689Z" fill="#FD9682"/>
<path d="M432.637 447.632C434.182 426.591 419.762 408.383 400.429 406.964C381.096 405.544 364.171 421.45 362.626 442.49C361.081 463.531 375.501 481.739 394.834 483.159C414.167 484.578 431.092 468.672 432.637 447.632Z" fill="#FC9583"/>
<path d="M431.739 447.566C433.248 427.021 419.2 409.244 400.363 407.861C381.525 406.478 365.032 422.011 363.523 442.556C362.014 463.101 376.062 480.877 394.899 482.261C413.737 483.644 430.23 468.11 431.739 447.566Z" fill="#FC9584"/>
<path d="M430.941 447.506C432.413 427.457 418.693 410.109 400.296 408.758C381.9 407.407 365.792 422.565 364.32 442.614C362.848 462.663 376.568 480.011 394.965 481.362C413.361 482.713 429.468 467.555 430.941 447.506Z" fill="#FC9584"/>
<path d="M430.144 447.449C431.58 427.895 418.188 410.975 400.232 409.656C382.276 408.338 366.555 423.12 365.119 442.673C363.684 462.227 377.076 479.147 395.032 480.466C412.988 481.784 428.708 467.002 430.144 447.449Z" fill="#FC9585"/>
<path d="M429.246 447.382C430.646 428.325 417.626 411.836 400.165 410.554C382.705 409.271 367.416 423.681 366.016 442.739C364.617 461.797 377.637 478.286 395.097 479.568C412.558 480.85 427.847 466.44 429.246 447.382Z" fill="#FB9486"/>
<path d="M428.448 447.323C429.811 428.761 417.119 412.7 400.099 411.45C383.079 410.2 368.177 424.235 366.814 442.797C365.451 461.359 378.143 477.419 395.163 478.669C412.182 479.919 427.085 465.885 428.448 447.323Z" fill="#FB9487"/>
<path d="M427.65 447.265C428.973 429.254 416.605 413.666 400.026 412.449C383.447 411.231 368.934 424.845 367.612 442.857C366.289 460.868 378.657 476.456 395.236 477.673C411.815 478.891 426.327 465.277 427.65 447.265Z" fill="#FB9488"/>
<path d="M426.752 447.199C428.038 429.684 416.043 414.527 399.959 413.346C383.876 412.165 369.795 425.407 368.509 442.922C367.222 460.438 379.218 475.594 395.301 476.775C411.385 477.956 425.466 464.715 426.752 447.199Z" fill="#FB9389"/>
<path d="M425.955 447.14C427.205 430.12 415.538 415.392 399.895 414.243C384.252 413.094 370.558 425.96 369.308 442.98C368.058 460 379.726 474.728 395.369 475.877C411.011 477.026 424.706 464.16 425.955 447.14Z" fill="#FB938A"/>
<path d="M425.157 447.082C426.371 430.558 415.031 416.258 399.828 415.141C384.626 414.025 371.319 426.516 370.105 443.04C368.892 459.564 380.232 473.864 395.434 474.98C410.636 476.097 423.944 463.606 425.157 447.082Z" fill="#FA938B"/>
<path d="M424.259 446.916C425.436 430.888 414.468 417.019 399.762 415.939C385.055 414.859 372.179 426.977 371.002 443.005C369.825 459.034 380.793 472.903 395.499 473.983C410.206 475.063 423.082 462.945 424.259 446.916Z" fill="#FA928C"/>
<path d="M423.463 446.857C424.603 431.324 413.963 417.883 399.697 416.836C385.432 415.788 372.942 427.531 371.802 443.063C370.661 458.596 381.301 472.037 395.567 473.084C409.833 474.132 422.322 462.39 423.463 446.857Z" fill="#FA928D"/>
<path d="M422.564 446.791C423.669 431.754 413.401 418.744 399.631 417.733C385.861 416.722 373.803 428.092 372.699 443.129C371.594 458.166 381.862 471.175 395.632 472.186C409.402 473.198 421.46 461.828 422.564 446.791Z" fill="#FA928E"/>
<path d="M399.599 418.702C386.299 417.702 374.599 428.702 373.499 443.202C372.399 457.702 382.399 470.302 395.699 471.302C408.999 472.302 420.699 461.302 421.799 446.802C422.899 432.302 412.899 419.702 399.599 418.702Z" fill="#F9928F"/>
<path d="M399.6 419.602C386.7 418.702 375.4 429.302 374.4 443.302C373.4 457.302 383 469.502 395.9 470.402C408.8 471.302 420.1 460.702 421.1 446.702C422.1 432.702 412.5 420.502 399.6 419.602Z" fill="#F99190"/>
<path d="M399.499 420.501C387.099 419.601 376.199 429.801 375.199 443.301C374.199 456.801 383.499 468.501 395.899 469.401C408.299 470.301 419.199 460.101 420.199 446.601C421.199 433.101 411.899 421.401 399.499 420.501Z" fill="#F99191"/>
</g>
<g opacity="0.4">
<path d="M547.431 494.793C569.698 479.316 575.203 448.719 559.727 426.452C544.251 404.185 513.654 398.68 491.387 414.156C469.12 429.632 463.614 460.229 479.09 482.496C494.567 504.763 525.164 510.269 547.431 494.793Z" fill="#FF9977"/>
<path d="M547.232 493.027C569.128 477.695 574.45 447.515 559.118 425.619C543.785 403.722 513.606 398.401 491.709 413.733C469.813 429.065 464.492 459.245 479.824 481.141C495.156 503.038 525.335 508.359 547.232 493.027Z" fill="#FF9978"/>
<path d="M546.926 492.61C568.48 477.462 573.672 447.71 558.524 426.157C543.376 404.603 513.624 399.411 492.071 414.559C470.517 429.706 465.325 459.459 480.473 481.012C495.621 502.565 525.373 507.758 546.926 492.61Z" fill="#FF9979"/>
<path d="M546.575 492.274C567.831 477.28 572.907 447.893 557.912 426.637C542.918 405.381 513.531 400.305 492.275 415.299C471.019 430.294 465.943 459.681 480.937 480.937C495.932 502.193 525.319 507.269 546.575 492.274Z" fill="#FF997A"/>
<path d="M546.162 492.058C567.076 477.25 572.026 448.291 557.218 427.376C542.41 406.462 513.451 401.512 492.537 416.32C471.622 431.128 466.672 460.087 481.481 481.002C496.289 501.916 525.248 506.866 546.162 492.058Z" fill="#FF997B"/>
<path d="M546.029 490.698C566.577 476.042 571.353 447.503 556.696 426.955C542.04 406.407 513.501 401.631 492.953 416.288C472.405 430.945 467.63 459.483 482.286 480.031C496.943 500.579 525.482 505.355 546.029 490.698Z" fill="#FF997C"/>
<path d="M545.604 490.784C565.812 476.317 570.465 448.207 555.998 427.999C541.53 407.791 513.42 403.138 493.213 417.605C473.005 432.073 468.351 460.182 482.819 480.39C497.286 500.598 525.396 505.252 545.604 490.784Z" fill="#FE997D"/>
<path d="M545.351 489.728C565.195 475.416 569.679 447.728 555.368 427.884C541.056 408.04 513.368 403.556 493.524 417.868C473.68 432.179 469.196 459.868 483.507 479.711C497.819 499.555 525.507 504.04 545.351 489.728Z" fill="#FE997E"/>
<path d="M545.144 488.854C564.67 474.668 568.998 447.339 554.812 427.814C540.626 408.288 513.298 403.96 493.772 418.146C474.247 432.332 469.918 459.661 484.104 479.186C498.29 498.712 525.619 503.04 545.144 488.854Z" fill="#FE997F"/>
<path d="M544.866 488.2C564.03 474.174 568.196 447.268 554.17 428.104C540.144 408.941 513.238 404.775 494.074 418.801C474.91 432.827 470.745 459.733 484.771 478.897C498.797 498.06 525.703 502.226 544.866 488.2Z" fill="#FE9980"/>
<path d="M544.576 487.748C563.38 473.885 567.385 447.403 553.522 428.6C539.659 409.796 513.177 405.791 494.373 419.654C475.57 433.517 471.565 459.999 485.428 478.803C499.291 497.607 525.773 501.611 544.576 487.748Z" fill="#FE9981"/>
<path d="M544.173 487.499C562.618 473.801 566.466 447.744 552.767 429.299C539.069 410.854 513.012 407.007 494.567 420.705C476.122 434.403 472.275 460.46 485.973 478.905C499.671 497.35 525.728 501.198 544.173 487.499Z" fill="#FE9982"/>
<path d="M544.005 486.408C562.069 472.845 565.718 447.207 552.155 429.144C538.592 411.08 512.954 407.431 494.891 420.994C476.827 434.556 473.178 460.194 486.741 478.258C500.303 496.322 525.941 499.97 544.005 486.408Z" fill="#FE9983"/>
<path d="M543.71 485.617C561.395 472.194 564.849 446.976 551.426 429.292C538.003 411.607 512.785 408.153 495.101 421.576C477.416 434.999 473.962 460.217 487.385 477.901C500.808 495.586 526.026 499.04 543.71 485.617Z" fill="#FE9984"/>
<path d="M543.553 485.311C560.904 471.997 564.176 447.138 550.862 429.787C537.549 412.436 512.69 409.163 495.339 422.477C477.988 435.791 474.715 460.65 488.029 478.001C501.343 495.352 526.202 498.625 543.553 485.311Z" fill="#FE9985"/>
<path d="M543.331 484.181C560.283 470.983 563.327 446.542 550.13 429.59C536.933 412.637 512.492 409.593 495.539 422.79C478.587 435.987 475.542 460.428 488.739 477.381C501.937 494.333 526.378 497.378 543.331 484.181Z" fill="#FE9986"/>
<path d="M543.068 483.654C559.625 470.579 562.446 446.557 549.371 430C536.295 413.444 512.273 410.622 495.717 423.697C479.16 436.773 476.338 460.795 489.414 477.352C502.489 493.908 526.511 496.73 543.068 483.654Z" fill="#FE9987"/>
<path d="M542.862 483.832C559.026 470.883 561.631 447.282 548.682 431.119C535.733 414.956 512.133 412.35 495.969 425.299C479.806 438.249 477.201 461.849 490.15 478.012C503.099 494.175 526.699 496.781 542.862 483.832Z" fill="#FE9988"/>
<path d="M542.696 482.324C558.423 469.451 560.737 446.266 547.865 430.538C534.992 414.811 511.806 412.496 496.079 425.369C480.351 438.242 478.037 461.427 490.91 477.155C503.783 492.883 526.968 495.197 542.696 482.324Z" fill="#FE9A89"/>
<path d="M542.605 481.996C557.943 469.172 559.98 446.342 547.156 431.004C534.331 415.667 511.502 413.629 496.164 426.453C480.826 439.278 478.789 462.108 491.613 477.445C504.437 492.783 527.267 494.82 542.605 481.996Z" fill="#FD9A89"/>
<path d="M542.578 480.408C557.442 467.623 559.127 445.209 546.342 430.345C533.557 415.481 511.143 413.796 496.279 426.581C481.415 439.366 479.73 461.78 492.515 476.644C505.3 491.508 527.714 493.194 542.578 480.408Z" fill="#FD9A8A"/>
<path d="M542.496 480.525C556.891 467.79 558.236 445.797 545.501 431.402C532.766 417.008 510.773 415.663 496.378 428.398C481.984 441.133 480.638 463.126 493.374 477.521C506.109 491.915 528.102 493.26 542.496 480.525Z" fill="#FD9A8B"/>
<path d="M543.511 478.069C556.828 464.752 556.828 443.162 543.511 429.845C530.194 416.528 508.603 416.528 495.286 429.845C481.969 443.162 481.969 464.752 495.286 478.069C508.603 491.386 530.194 491.386 543.511 478.069Z" fill="#FD9A8C"/>
<path d="M543.014 477.574C556.058 464.531 556.058 443.383 543.014 430.34C529.971 417.296 508.823 417.296 495.779 430.34C482.736 443.383 482.736 464.531 495.779 477.574C508.823 490.618 529.971 490.618 543.014 477.574Z" fill="#FD9A8D"/>
<path d="M542.52 477.079C555.29 464.309 555.29 443.605 542.52 430.835C529.749 418.065 509.045 418.064 496.275 430.835C483.505 443.605 483.505 464.309 496.275 477.079C509.045 489.85 529.749 489.85 542.52 477.079Z" fill="#FD9A8E"/>
<path d="M542.096 476.655C554.632 464.119 554.632 443.795 542.096 431.259C529.561 418.723 509.236 418.723 496.7 431.259C484.164 443.795 484.164 464.119 496.7 476.655C509.236 489.191 529.561 489.191 542.096 476.655Z" fill="#FD9A8F"/>
<path d="M543.542 473.934C554.619 460.591 552.783 440.795 539.44 429.718C526.097 418.64 506.301 420.477 495.223 433.819C484.146 447.162 485.982 466.958 499.325 478.036C512.668 489.113 532.464 487.277 543.542 473.934Z" fill="#FD9A90"/>
<path d="M544.162 471.715C554.152 458.016 551.144 438.811 537.445 428.822C523.745 418.832 504.541 421.839 494.551 435.538C484.561 449.238 487.569 468.442 501.268 478.432C514.968 488.422 534.172 485.415 544.162 471.715Z" fill="#FD9A91"/>
<path d="M544.896 469.043C553.504 454.886 549.005 436.432 534.848 427.824C520.691 419.216 502.236 423.715 493.629 437.872C485.021 452.029 489.52 470.484 503.677 479.091C517.834 487.699 536.288 483.2 544.896 469.043Z" fill="#FD9A92"/>
<path d="M545.727 465.816C552.565 451.15 546.22 433.717 531.555 426.879C516.889 420.04 499.456 426.385 492.617 441.051C485.778 455.716 492.123 473.149 506.789 479.988C521.455 486.827 538.888 480.482 545.727 465.816Z" fill="#FD9A93"/>
<path d="M546.725 462.411C551.422 447.33 543.004 431.297 527.923 426.6C512.843 421.902 496.809 430.32 492.112 445.401C487.415 460.482 495.833 476.515 510.914 481.212C525.994 485.909 542.028 477.491 546.725 462.411Z" fill="#FD9A94"/>
<path d="M546.753 457.825C549.146 442.547 538.7 428.223 523.422 425.83C508.145 423.438 493.82 433.884 491.428 449.161C489.035 464.439 499.481 478.764 514.759 481.156C530.036 483.549 544.361 473.103 546.753 457.825Z" fill="#FC9A95"/>
<path d="M546.959 454.754C547.301 439.681 535.359 427.184 520.286 426.842C505.212 426.5 492.715 438.442 492.373 453.516C492.031 468.589 503.973 481.086 519.047 481.428C534.12 481.77 546.617 469.828 546.959 454.754Z" fill="#FC9A96"/>
<path d="M521.354 480.88C535.991 479.625 546.839 466.742 545.584 452.105C544.329 437.468 531.447 426.62 516.809 427.874C502.172 429.129 491.324 442.012 492.579 456.649C493.834 471.286 506.717 482.135 521.354 480.88Z" fill="#FC9A97"/>
<path d="M524.033 479.028C538.133 476.617 547.609 463.234 545.199 449.134C542.789 435.034 529.405 425.558 515.305 427.968C501.205 430.378 491.729 443.762 494.139 457.862C496.549 471.961 509.933 481.438 524.033 479.028Z" fill="#FC9A98"/>
<path d="M525.303 478.335C538.853 475.157 547.261 461.597 544.083 448.047C540.904 434.497 527.344 426.089 513.794 429.267C500.244 432.445 491.836 446.006 495.014 459.556C498.192 473.106 511.753 481.514 525.303 478.335Z" fill="#FC9A99"/>
<path d="M525.889 477.997C538.962 474.297 546.561 460.701 542.861 447.628C539.162 434.555 525.566 426.956 512.493 430.655C499.42 434.355 491.821 447.951 495.52 461.024C499.22 474.097 512.816 481.696 525.889 477.997Z" fill="#FC9A9A"/>
</g>
<path d="M617.531 459.408C624.546 440.745 619.881 421.725 607.112 416.925C594.342 412.126 578.304 423.364 571.289 442.027C564.275 460.689 568.939 479.709 581.709 484.509C594.478 489.308 610.516 478.07 617.531 459.408Z" fill="#FF9977"/>
<path d="M606.499 462.202C593.599 469.402 580.499 466.002 571.399 457.602C571.199 462.502 570.499 468.702 568.999 475.802H569.199L565.699 523.402C571.699 511.702 575.199 497.902 577.199 482.302C578.299 483.202 579.499 483.902 580.899 484.502C593.399 489.902 609.599 479.202 616.999 460.802C618.899 456.002 619.999 451.202 620.499 446.602C617.799 452.902 613.299 458.402 606.499 462.202Z" fill="#FF8668"/>
<path d="M584.6 450.302L596.2 452.702C597.2 434.202 611.3 428.902 611.3 428.902C589.5 419.502 584.6 450.302 584.6 450.302Z" fill="#FF8668"/>
<path d="M550.5 228.501C544.3 213.301 522.901 207.401 522.901 207.401C522.901 209.501 523.301 211.601 523.901 213.701C489.501 187.901 443 183.301 443 183.301C440.9 186.201 439.7 191.001 440.2 194.501C411.1 191.701 388 193.501 388 193.501C379.6 228.001 388.1 249.301 398.1 261.701C401.7 266.201 406.9 273.801 422.4 281.701C422.4 281.701 439.3 297.301 465.8 299.401C489.5 301.301 523.5 286.001 523.5 286.001C547.2 286.901 575.6 360.301 575.201 419.601C575.201 433.201 588 420.201 588 420.201C588 420.201 590.101 405.501 590.401 384.301C590.401 384.101 614.501 290.101 596.201 253.301C589.301 239.301 579.3 236.301 568 238.301" fill="url(#paint0_linear_2394_71813)"/>
<path d="M388.301 244.102C352.201 252.802 356.901 382.902 356.401 404.102C356.401 405.702 356.201 406.702 355.901 408.402C355.801 409.202 358.701 409.102 358.501 408.402C358.301 407.102 358.701 405.002 358.901 404.202C366.101 365.202 402.401 281.502 422.101 281.602C422.101 281.602 403.901 269.102 388.301 244.102Z" fill="#59352C"/>
<path opacity="0.1" d="M594 249.5C590.7 244.3 586.9 241.1 582.8 239.4C578.9 239.9 574.9 240.6 570.8 241.3C558.5 243.3 545.6 244.4 533.3 242C519 239.2 506.7 232 494.2 224.7C487.9 221 481.7 217.3 475.2 214.1C461.3 207.1 444.8 200.1 429 199.7C421.2 199.5 413.4 201.4 406.1 203.9C399.3 206.2 393.6 209.9 389.3 213.7C388.4 214.5 386.5 215.7 384.6 216.9C384.4 222.7 384.8 228 385.6 232.8C386.4 232.4 387.1 232 387.3 231.9C390 230.1 393.4 228.4 397.3 227C401.2 225.7 405.5 224.6 410.4 224.5C429.2 224.2 446.2 232.7 462.7 240.7C469.5 244 476.3 247.7 483.6 251.3C490.8 254.9 498.4 258.4 506.4 261.3C519.8 266.3 536.4 268.5 550.5 265.5C552.4 265.1 554.3 264.8 556.1 264.3C563.4 262.4 569.8 259.9 575.4 257.4C581 254.9 585.8 252.7 590 251C591.5 250.4 592.8 249.9 594.1 249.4L594 249.5Z" fill="#FFBC80"/>
<path opacity="0.5" d="M493.001 351.4C493.001 351.4 468.901 394.2 491.301 422.8L549.501 421.3C549.501 421.3 552.201 404.5 550.901 392C549.701 379.5 492.901 351.4 492.901 351.4H493.001Z" fill="#FF8568"/>
<path d="M415.399 485.2C415.399 485.2 413.8 490.8 417.1 495.5C419.8 499.4 428.899 510.8 459.299 510.4C487.899 510 500.999 498.1 503.899 492.5C506.399 487.6 504.6 482 504.6 482L415.299 485.2H415.399Z" fill="#FB755C"/>
<path opacity="0.5" d="M384.4 380.601C379.6 392.801 376.5 413.401 376.5 413.401L430.1 423.001C456.3 396.601 447.1 348.201 447.1 348.201C447.1 348.201 388.8 369.601 384.5 380.501L384.4 380.601Z" fill="#FF8568"/>
<path d="M525.101 401.401C500.901 398.401 491.301 422.701 491.301 422.701C491.301 422.701 495.601 429.101 521.201 429.401C550.201 429.701 549.501 421.201 549.501 421.201C549.501 421.201 549.301 404.401 525.101 401.401Z" fill="white"/>
<path d="M376.499 413.401C376.499 413.401 373.499 422.301 399.899 424.401C427.699 426.601 429.999 423.101 429.999 423.101C429.999 423.101 405.299 373.101 376.399 413.501L376.499 413.401Z" fill="white"/>
<path d="M395.801 423.901C397.101 424.101 398.501 424.201 400.001 424.301C407.801 424.901 413.601 425.101 417.901 425.001C417.901 424.901 418.001 424.701 418.101 424.601C421.501 415.501 419.501 406.401 413.801 404.301C408.101 402.201 400.701 407.901 397.401 417.001C396.501 419.401 396.101 421.701 395.901 424.001L395.801 423.901Z" fill="url(#paint1_linear_2394_71813)"/>
<path d="M525.701 407.001C520.001 404.701 512.601 411.001 509.201 421.101C508.501 423.301 508.001 426.001 507.801 428.601C511.401 429.101 515.801 429.401 521.201 429.501C524.501 429.501 527.401 429.501 530.001 429.301C533.301 419.301 531.401 409.301 525.701 407.101V407.001Z" fill="url(#paint2_linear_2394_71813)"/>
<path d="M403.2 395.001C383.2 393.501 376.5 413.301 376.5 413.301C376.5 413.301 385.2 404.301 400.7 404.301C420.1 404.301 430.1 423.001 430.1 423.001C430.1 423.001 430.2 397.101 403.2 395.001Z" fill="#603F37"/>
<path d="M383.5 385.001C410 369.701 432.5 376.901 444.4 366.701C449 362.801 447 348.201 447 348.201C384.6 352.801 383.5 384.901 383.5 384.901V385.001Z" fill="url(#paint3_linear_2394_71813)"/>
<path d="M493.301 350.5C493.301 350.5 486.001 366.2 489.001 370.8C498.201 385.1 531.601 378.4 550.901 395.5C550.901 395.5 556.701 367.5 493.301 350.5Z" fill="url(#paint4_linear_2394_71813)"/>
<path d="M521.901 399.601C494.601 397.401 491.301 422.301 491.301 422.301C491.301 422.301 498.401 408.101 522.001 410.701C545.701 413.301 549.501 421.401 549.501 421.401C549.501 421.401 549.401 401.901 521.901 399.701V399.601Z" fill="#603F37"/>
<path d="M447.2 432.301C447.2 432.301 426.1 427.501 420.3 445.901C412.9 469.201 459.2 484.901 473 460.801C486.8 436.701 454.9 389.701 454.9 389.701C454.9 389.701 462 413.801 447.2 432.401V432.301Z" fill="#FF9877"/>
<path d="M419.6 452.401C421.6 471.801 460.6 482.501 473 460.701C473.8 459.401 474.4 458.001 474.8 456.501C456.2 459.701 437 457.901 419.5 452.301L419.6 452.401Z" fill="#FF8568"/>
<path opacity="0.2" d="M461.4 414.502L456.1 414.102C456.1 414.102 452.7 431.002 447.5 433.102C446.7 433.002 445.9 432.902 445 432.802C435.8 432.102 428.1 434.802 427.8 438.802C427.5 442.802 434.7 446.302 443.9 447.002C452.5 447.602 460.1 446.402 461.3 441.802C461.3 441.802 466.1 424.202 461.3 414.502H461.4Z" fill="white"/>
<path d="M414.001 418.201C413.501 421.501 410.701 424.101 407.801 423.901C404.901 423.701 402.901 420.901 403.401 417.601C403.901 414.301 406.701 411.701 409.601 411.901C412.501 412.101 414.501 414.901 414.001 418.201Z" fill="#231B1B"/>
<path d="M525.3 422.5C524.8 425.8 522 428.4 519.1 428.2C516.2 428 514.2 425.2 514.7 421.9C515.2 418.6 518 416 520.9 416.2C523.8 416.4 525.8 419.2 525.3 422.5Z" fill="#231B1B"/>
<path opacity="0.8" d="M403.301 412.901C399.901 414.201 397.501 416.901 397.901 418.901C398.301 420.901 401.401 421.502 404.801 420.202C408.201 418.902 410.601 416.202 410.201 414.202C409.801 412.202 406.701 411.601 403.301 412.901Z" fill="white"/>
<path opacity="0.8" d="M514.1 418.1C510.9 419.5 508.7 422.3 509.2 424.2C509.8 426.2 512.8 426.6 516.1 425.2C519.3 423.8 521.5 421 521 419.1C520.4 417.1 517.4 416.7 514.1 418.1Z" fill="white"/>
<path d="M290.4 876.402C290.4 876.402 289.1 866.702 272.6 863.802C256.1 860.902 181.5 877.202 172.4 886.902C156.6 903.702 155.6 987.702 166 1000.3C176.4 1012.9 236.1 1022.3 247.7 1021.4C259.3 1020.4 301.6 998.001 304.5 994.102C307.4 990.201 311.3 934.902 311.3 934.902L290.3 876.302L290.4 876.402Z" fill="#8C9EC4"/>
<path d="M630.801 941.401C630.801 941.401 631.101 953.101 634.701 958.801C638.301 964.501 675.501 994.601 685.101 995.701C694.701 996.701 761.901 993.101 767.701 984.001C773.401 974.901 779.701 902.701 776.801 895.801C773.901 888.901 737.101 856.701 730.601 855.701C724.101 854.701 673.201 859.101 671.701 860.601C670.101 862.201 630.901 941.401 630.901 941.401H630.801Z" fill="#8C9EC4"/>
<path opacity="0.2" d="M707.1 857.702C708.8 854.602 652.8 834.202 644.1 829.502C636.7 825.402 617.1 803.702 613.8 799.202L606.7 776.502C612 767.602 613.3 748.402 599.8 747.002C599.8 747.002 609.1 743.502 612.9 736.902C614.8 733.502 618.6 719.202 604.2 715.602C604.2 715.602 604.2 715.102 604.8 714.802C609.6 711.702 614.5 691.602 590.3 693.302C590.3 693.302 587.6 676.002 565.4 681.302C551.9 684.602 542.1 689.302 532.8 693.702C515.7 684.002 499.8 676.602 497.5 675.702C492 673.602 489.1 678.502 487.9 685.702C486.5 680.702 484.3 676.602 481.2 674.502C471.2 667.802 445.9 689.902 439.1 695.802C410.5 689.002 413.5 708.602 413.5 708.602C385.9 703.502 388 722.202 392.4 728.802C392.4 728.802 391.2 729.202 389.5 729.802C381.1 732.802 376.6 752.502 396.1 767.902C396.1 767.902 377.3 772.702 388.2 793.202L381.7 807.002C368.9 815.902 291.6 866.102 269.2 874.002C265.1 882.902 384 850.402 383.2 851.902C363.5 865.902 325.9 900.702 300.5 911.602C296.3 913.402 291.6 915.002 286.6 916.602C284 914.002 279.8 911.402 272.8 910.102C272.6 910.102 272.4 910.102 272.2 910.102C271.6 941.102 270.9 964.602 269.6 993.502C270.5 993.802 271.4 994.302 272.2 994.902C276.6 998.302 276.5 1004.5 273.7 1008.9C272.3 1011 270.6 1012.8 268.6 1014.3C267.8 1030.5 266.8 1048.9 265.6 1071C282.1 1063.4 302.6 1051.2 304.7 1048.4C305.2 1047.6 305.8 1045 306.4 1041.1C363.7 1002.7 428.2 930.602 438.3 919.102C438.3 919.102 470 912.702 493.5 902.902C518.2 911.702 558.4 919.402 572.3 926.002C584.3 941.302 608.3 971.902 631.2 996.002C631.6 1000.1 632.5 1006.9 634.9 1010.9C637.3 1015 654.9 1030.7 669 1040.9C668.9 1038.9 668.7 1037 668.6 1035.1C667.3 1017.2 665.8 1000.3 664.4 983.602C663.3 982.902 662.3 982.102 661.3 981.302C659 979.302 657.2 976.702 656.1 973.802C654.9 970.702 655.1 967.402 654.3 964.202C653 958.902 658.1 955.802 662.1 956.802C661.4 948.202 660.6 939.602 660 930.902C655.7 939.902 604 845.302 625.7 866.802C633.8 874.802 644.9 881.702 657 887.802C657 886.202 656.8 884.702 656.7 883.102C651.8 880.802 647.9 878.802 645.5 877.402C640.1 874.302 626.2 861.202 618.3 851.002C616.8 848.502 615 845.702 613.4 843.302C613.1 843.302 612.8 842.302 612.5 841.902C612.5 841.902 714 875.202 707.4 857.802L707.1 857.702Z" fill="#29354F"/>
<path d="M767.6 896.601C767.6 896.601 749.1 870.201 727.3 864.701C705.5 859.201 656.9 839.101 645.3 832.801C638.4 829.101 617.1 809.501 613.2 800.601C612.1 798.201 562 868.101 564.6 869.701C567.1 871.401 644.3 970.401 674.1 976.701C703.9 983.001 746.3 971.701 755.1 963.701C763.9 955.701 769.8 902.901 767.7 896.601H767.6Z" fill="#FF9977"/>
<path d="M439.6 870.801C439.6 870.801 323.4 997.101 257.7 1008.9C192 1020.7 178.5 979.101 174.1 962.301C169.7 945.501 178.4 891.601 190.2 887.101C202 882.601 267.3 878.601 300.4 865.101C333.5 851.601 387.4 800.001 395.3 803.401C403.2 806.801 439.6 870.801 439.6 870.801Z" fill="#FF9977"/>
<path d="M594.299 776.6C594.299 776.6 603.699 766.9 603.099 759C602.499 751 597.799 746.8 595.699 746.6C595.699 746.6 606.199 741.9 609.199 734.6C612.199 727.3 605.199 716.5 595.499 717.2C595.499 717.2 603.899 715.2 605.899 709.1C607.899 703 601.799 690.2 583.699 696.6C583.699 696.6 589.399 685.6 576.299 682.2C563.199 678.8 481.999 720.3 481.999 720.3L474.299 713.9C474.299 713.9 483.399 702.4 484.499 691.3C485.599 680.2 479.199 669.5 467.499 678.1C455.799 686.6 438.399 700.3 435.699 703.1C432.999 705.9 386.399 802.6 382.999 808.8C380.799 812.7 438.099 872.2 438.099 872.2C438.099 872.2 490.499 862.2 510.499 848.2C530.399 834.2 590.799 780.7 594.299 776.5V776.6Z" fill="#FF9977"/>
<path d="M595.6 717.302C595.6 717.302 604 715.302 606 709.202C608 703.102 601.9 690.302 583.8 696.702C583.8 696.702 589.5 685.702 576.4 682.302C563.3 678.902 482.1 720.402 482.1 720.402L474.4 714.002C474.4 714.002 483.5 702.502 484.6 691.402C485.7 680.302 479.3 669.602 467.6 678.202C455.9 686.702 438.5 700.402 435.8 703.202C433.1 706.002 386.5 802.702 383.1 808.902C363.4 822.102 325.8 854.902 300.4 865.202C267.3 878.702 202 882.702 190.2 887.202C178.4 891.702 169.6 945.502 174.1 962.402C178.6 979.202 192.1 1020.8 257.7 1009C319.2 998.002 425.1 886.402 438.2 872.402C438.2 872.402 490.6 862.402 510.6 848.402C530.5 834.402 590.9 780.902 594.4 776.702C594.4 776.702 603.8 767.002 603.2 759.102C602.6 751.102 597.9 746.902 595.8 746.702C595.8 746.702 606.3 742.002 609.3 734.702C612.3 727.402 605.3 716.602 595.6 717.302ZM392.6 870.802C377.1 887.202 279.2 961.702 241.1 970.402C203.1 979.102 177.4 954.502 178.6 933.902C179.9 913.302 201.1 887.402 240 884.602C294.2 880.802 337.1 849.802 357.1 833.302C373.5 819.802 408.1 854.402 392.6 870.802ZM473.8 705.502C472 705.902 447.4 696.302 447.4 696.302C454.1 694.002 469.1 674.502 478.3 678.102C486.1 681.102 475.5 705.102 473.8 705.502ZM537.9 695.702C537.9 695.702 565.6 682.502 574.4 683.702C583.2 684.902 582.8 691.402 581.9 694.502C581 697.602 560.5 706.702 559.4 707.002C558.3 707.402 537.9 695.702 537.9 695.702ZM579.9 721.802C579.4 721.502 563.9 709.502 563.3 709.302C563.3 709.302 582.5 697.302 592.2 696.902C601.9 696.502 606.7 707.102 601.8 711.602C596.9 716.102 580.3 722.102 579.8 721.802H579.9ZM607.3 732.302C606.7 740.202 593.1 744.402 593.1 744.402C591.8 738.302 582.5 723.402 582.3 723.202C582.3 723.202 587.5 719.902 594.2 719.202C600.9 718.502 607.9 724.402 607.4 732.302H607.3Z" fill="url(#paint5_linear_2394_71813)"/>
<path d="M612.2 799.302C612.2 799.302 589.9 736.302 577.9 723.802C565.9 711.302 502.6 680.502 498.4 677.902C494.2 675.302 486.2 682.802 489 693.002C491.8 703.202 524 727.102 524 728.802C524 730.502 460.7 701.002 439.6 696.802C418.4 692.602 412.6 703.402 415.6 710.702C415.6 710.702 410.2 707.602 401.7 709.302C393.2 710.902 387.8 722.002 396.1 729.802C396.1 729.802 380.1 731.902 385.5 747.902C390.9 763.902 450.9 799.402 450.9 799.402C450.9 799.402 407.4 772.802 398.9 771.602C390.4 770.402 380.8 780.802 391.8 794.402C402.9 808.002 458.4 839.602 479.8 851.302C501.2 863.102 566.8 872.902 576 880.902C585.2 888.902 621.6 813.402 621.6 813.402C621.6 813.402 616 804.402 612.2 799.202V799.302Z" fill="#FF9977"/>
<path d="M767.6 896.601C767.6 896.601 749.1 870.201 727.3 864.701C705.5 859.201 656.9 839.101 645.3 832.801C639.9 829.901 626 817.501 618.1 807.901C616.6 805.501 614.8 802.701 613.2 800.401V800.301C612.9 800.301 612.6 799.501 612.3 799.101C612.3 799.101 590 736.101 578 723.701C566 711.201 502.7 680.501 498.5 677.901C494.3 675.301 486.3 682.901 489.1 693.001C491.9 703.101 524.1 727.101 524.1 728.801C524.1 730.501 460.8 701.001 439.7 696.801C418.5 692.601 412.7 703.401 415.7 710.701C415.7 710.701 410.3 707.601 401.8 709.301C393.3 710.901 387.9 722.001 396.2 729.801C396.2 729.801 380.2 731.901 385.6 747.901C390.2 761.401 400.3 770.901 400.3 770.901C388.4 769.801 380.9 780.801 391.9 794.501C403 808.101 458.5 839.701 479.9 851.401C499.4 862.101 555.3 871.201 572.3 878.801C593 903.601 649.6 971.601 674.1 976.801C703.9 983.101 746.3 971.801 755.1 963.801C763.9 955.801 769.8 903.001 767.7 896.701L767.6 896.601ZM501.3 851.201C496.2 851.601 440.8 822.801 426.4 813.601C412 804.501 390.2 791.301 388.7 785.801C387.1 780.201 391.9 770.701 401.5 773.601C411.1 776.501 464 810.801 464.8 810.801C465.6 810.801 468.7 805.801 467.5 805.801C467.2 805.801 404.1 767.301 394.6 756.901C385.2 746.501 385.2 734.101 393.5 732.501C401.8 730.901 476.7 784.001 477.6 784.301C478.5 784.601 481.2 781.601 480.6 780.101C480 778.601 401.5 730.801 397.2 727.901C392.9 725.001 392.9 713.201 401 711.201C409.1 709.101 498.9 756.401 499.5 755.801C500.2 755.301 502.3 751.901 501.8 751.001C501.3 750.101 419.4 712.101 418.3 710.901C418.3 710.901 414.5 703.401 421.9 699.701C429.3 695.901 445.1 699.401 461.4 705.601C477.7 711.801 520.2 733.301 559.7 739.901L561.2 731.501C561.2 731.501 525 724.501 512.6 715.101C500.2 705.701 490.9 695.401 490.7 687.901C490.5 680.401 496 678.201 508 684.701C520 691.201 569.2 716.501 576.6 726.401C584 736.301 506.5 850.901 501.4 851.301L501.3 851.201ZM751.6 941.001C742 962.901 695.6 941.601 661.9 921.301C628.1 901.001 593.9 860.101 585.1 845.301C576.3 830.501 603.8 802.601 625.5 822.801C655.9 851.201 727.3 864.701 741.8 876.501C756.7 888.701 761.2 919.001 751.6 940.901V941.001Z" fill="url(#paint6_linear_2394_71813)"/>
<path opacity="0.1" d="M463.301 1271.2C360.801 1271.7 448.001 1292.3 448.201 1292.3C448.201 1289.4 448.401 1286.5 448.501 1283.6C459.101 1283.8 470.001 1283.8 481.101 1283.8C481.101 1287.1 481.301 1290.5 481.301 1293.9C481.501 1293.9 565.801 1270.6 463.301 1271.2Z" fill="black"/>
<path d="M594.034 253.274C597.44 245.662 569.548 225.779 531.738 208.866C493.927 191.952 460.514 184.412 457.109 192.025C453.704 199.637 481.595 219.52 519.406 236.433C557.217 253.347 590.629 260.887 594.034 253.274Z" fill="#0C4266"/>
<path d="M594.401 254.5C591.001 262.1 557.601 254.5 519.801 237.6C482.001 220.7 454.101 199.4 457.501 191.9C460.901 184.4 460.001 189.9 462.401 190.6C464.801 191.3 490.801 211.2 521.501 225C554.601 239.8 590.601 242.1 594.201 251.2C594.701 252.5 594.801 253.6 594.401 254.6V254.5Z" fill="#092E4C"/>
<defs>
<linearGradient id="paint0_linear_2394_71813" x1="498.616" y1="197.653" x2="490.862" y2="295.047" gradientUnits="userSpaceOnUse">
<stop stop-color="#75483B"/>
<stop offset="0.4" stop-color="#704438"/>
<stop offset="0.7" stop-color="#623C2F"/>
<stop offset="1" stop-color="#563428"/>
</linearGradient>
<linearGradient id="paint1_linear_2394_71813" x1="404.599" y1="427.784" x2="416.492" y2="399.52" gradientUnits="userSpaceOnUse">
<stop stop-color="#704A3E"/>
<stop offset="1"/>
</linearGradient>
<linearGradient id="paint2_linear_2394_71813" x1="517.696" y1="430.027" x2="528.967" y2="399.738" gradientUnits="userSpaceOnUse">
<stop stop-color="#704A3E"/>
<stop offset="1"/>
</linearGradient>
<linearGradient id="paint3_linear_2394_71813" x1="417.755" y1="348.436" x2="414.382" y2="382.079" gradientUnits="userSpaceOnUse">
<stop stop-color="#75483B"/>
<stop offset="0.4" stop-color="#704438"/>
<stop offset="0.7" stop-color="#623C2F"/>
<stop offset="1" stop-color="#563428"/>
</linearGradient>
<linearGradient id="paint4_linear_2394_71813" x1="521.753" y1="360.484" x2="518.28" y2="394.12" gradientUnits="userSpaceOnUse">
<stop stop-color="#75483B"/>
<stop offset="0.4" stop-color="#704438"/>
<stop offset="0.7" stop-color="#623C2F"/>
<stop offset="1" stop-color="#563428"/>
</linearGradient>
<linearGradient id="paint5_linear_2394_71813" x1="443.8" y1="796.102" x2="384.4" y2="839.302" gradientUnits="userSpaceOnUse">
<stop stop-color="#FD8268"/>
<stop offset="1" stop-color="#FD9677"/>
</linearGradient>
<linearGradient id="paint6_linear_2394_71813" x1="234" y1="634.501" x2="613.9" y2="842.701" gradientUnits="userSpaceOnUse">
<stop stop-color="#FD8268"/>
<stop offset="1" stop-color="#FD9677"/>
</linearGradient>
</defs>
</svg>
