<svg width="640" height="1224" viewBox="0 0 640 1224" fill="none" xmlns="http://www.w3.org/2000/svg">
<path d="M499.853 737.586C517.653 734.186 535.453 731.786 553.553 730.486C570.753 729.286 590.753 727.386 607.953 727.686C585.053 432.086 456.053 430.286 427.553 420.986L443.953 546.586C460.453 580.886 490.753 667.386 499.853 737.586Z" fill="#667EB5"/>
<path d="M296.351 1199.48C298.551 1139.28 300.751 1077.58 302.751 1016.78L138.551 1011.88C134.751 1070.48 133.851 1140.28 134.351 1199.48H296.351Z" fill="#303940"/>
<path d="M494.552 1199.49C491.652 1139.89 490.252 1088.09 488.552 1014.99L330.352 1019.89C331.452 1076.29 333.052 1137.69 334.852 1199.49H494.552Z" fill="#303940"/>
<path d="M141.952 957.086C138.152 1020.39 141.152 1073.49 141.152 1073.49C141.152 1073.49 234.252 1083.59 341.552 1082.59C411.252 1081.99 470.752 1087.59 475.252 1056.59C479.452 1027.79 482.752 993.186 485.252 956.986H141.852L141.952 957.086Z" fill="#303940"/>
<path d="M415.652 491.885L414.952 419.685C356.052 402.385 275.752 402.585 219.152 426.285L219.852 491.885H415.652Z" fill="#FF8668"/>
<path d="M380.953 412.585C374.053 411.185 369.253 404.885 369.153 397.185L364.853 335.385C363.553 317.285 342.653 307.885 316.053 306.885C289.553 305.885 271.153 318.685 272.153 337.585L269.553 400.085C269.353 405.885 263.753 412.685 258.053 413.785C243.753 416.685 231.553 420.885 218.953 425.985L215.053 488.185L407.153 491.985L441.353 425.685C432.853 423.085 390.053 414.585 380.853 412.685L380.953 412.585Z" fill="#FF8668"/>
<path d="M319.251 417.086C336.851 417.386 358.651 414.086 372.351 407.686C372.051 406.586 371.951 405.486 371.951 404.286L372.251 393.686C328.051 408.486 291.251 405.986 269.551 399.086L261.951 402.486C265.351 406.486 266.051 409.386 265.051 411.086C276.351 415.686 302.551 416.686 319.251 416.986V417.086Z" fill="#FD7258"/>
<path d="M141.852 742.685C124.052 739.285 106.252 736.885 88.152 735.585C70.952 734.385 50.952 732.485 33.752 732.785C56.652 437.185 181.252 436.585 209.752 427.285L197.752 551.685C181.252 585.985 150.952 672.485 141.852 742.685Z" fill="#667EB5"/>
<path d="M391.651 957.986L349.951 1027.39L380.051 1030.69L420.351 957.986H391.651Z" fill="#393E3F"/>
<path d="M373.952 426.285C367.552 439.685 353.152 458.585 319.952 458.985C282.952 459.385 266.152 441.685 260.952 428.985L179.652 446.385L181.252 1009.09C212.552 1016.09 258.252 1022.99 314.052 1022.29C373.952 1021.49 418.352 1013.19 445.852 1005.99L440.152 442.285L373.952 426.385V426.285Z" fill="#DDE5EA"/>
<path d="M273.752 457.886C273.752 457.886 270.552 423.786 269.852 392.086C255.852 394.686 237.752 418.186 237.752 418.186C211.552 426.086 176.652 437.986 164.752 449.686C132.152 481.686 134.852 560.986 132.852 675.186C130.752 797.786 130.652 793.186 117.152 1029.59C117.152 1029.59 192.452 1041.89 277.552 1046.49C271.652 880.686 274.852 632.486 273.752 457.886Z" fill="#667EB5"/>
<path d="M360.252 476.086C361.352 454.586 368.552 422.086 368.652 390.486C382.752 392.986 398.952 413.286 398.952 413.286C429.452 420.786 457.152 429.286 469.352 440.886C502.552 472.886 493.252 545.286 497.552 659.486C500.252 731.186 506.252 781.686 510.952 844.886C514.252 889.686 514.352 960.586 515.752 1029.19C515.752 1029.19 440.252 1040.29 355.152 1044.99C358.352 884.286 352.852 623.786 360.352 476.086H360.252Z" fill="#667EB5"/>
<path d="M131.752 733.986C133.652 691.586 143.752 489.286 169.052 439.186C165.652 440.386 160.552 442.286 157.452 444.586C133.952 506.586 126.652 691.085 124.852 732.385C126.952 732.785 129.652 733.686 131.752 734.086V733.986Z" fill="#6D88BE"/>
<path d="M256.952 470.485C252.252 469.685 245.452 471.785 238.852 473.785C234.652 475.085 229.852 476.585 227.452 476.585C224.452 471.285 225.752 439.785 237.452 418.385C234.652 419.185 231.852 420.085 228.952 421.085C219.452 442.785 217.752 471.185 221.652 479.285C222.952 481.985 224.752 482.785 225.952 482.885C229.552 483.385 234.752 481.785 240.752 479.885C246.052 478.285 252.052 476.385 255.452 476.685C259.252 480.485 266.852 507.685 273.952 536.685C273.952 528.085 273.952 519.585 273.952 511.185C263.152 471.885 259.552 470.885 256.952 470.485Z" fill="#6D88BE"/>
<path d="M255.051 474.385L248.651 474.186C248.651 479.086 242.051 940.486 246.551 1044.39C248.651 1044.59 250.851 1044.69 252.951 1044.89C248.351 943.086 254.951 479.186 255.051 474.286V474.385Z" fill="#6D88BE"/>
<path d="M142.251 549.885L140.951 543.585C143.851 542.985 211.451 530.085 248.751 532.285L248.451 538.685C211.951 536.485 142.951 549.685 142.251 549.785V549.885Z" fill="#6D88BE"/>
<path d="M500.252 680.986C500.652 701.986 500.452 718.286 501.152 736.086L508.352 733.786C507.652 716.086 507.052 701.786 506.652 680.886C504.952 595.886 503.052 488.786 479.052 437.486C475.552 435.386 472.352 434.186 469.252 433.086C496.652 478.786 498.452 591.586 500.252 680.986Z" fill="#6D88BE"/>
<path d="M407.752 415.485C405.152 414.785 402.552 413.885 398.952 413.285C411.452 434.985 415.652 470.885 412.952 476.685C410.452 476.685 405.752 475.185 401.552 473.885C394.952 471.885 388.152 469.785 383.452 470.585C380.852 470.985 376.852 471.685 364.752 512.085C363.652 515.785 359.652 529.285 358.652 532.785C358.452 540.285 358.652 538.085 358.352 546.085C366.752 513.985 380.752 480.685 385.052 476.785C388.352 476.485 394.452 478.285 399.852 479.985C405.852 481.885 411.152 483.485 414.752 482.985C415.952 482.785 417.752 482.085 418.852 479.485C422.552 471.285 418.852 438.085 407.952 415.485H407.752Z" fill="#6D88BE"/>
<path d="M388.151 1042.79C387.651 939.485 387.151 481.585 387.051 476.785H380.651C380.751 481.785 379.951 941.285 380.451 1043.39C382.651 1043.29 386.051 1042.99 388.151 1042.79Z" fill="#6D88BE"/>
<path d="M499.753 549.786C498.953 549.686 422.053 536.286 385.553 538.486L385.053 532.086C422.253 529.886 497.553 542.886 500.753 543.486L499.653 549.786H499.753Z" fill="#6D88BE"/>
<path d="M188.651 711.986C188.451 711.986 188.251 711.986 188.151 711.986C176.251 711.486 145.651 695.286 141.751 688.786C138.651 683.486 141.851 631.586 144.051 601.286L144.251 598.186L238.951 597.986V601.586C238.451 626.786 237.351 685.986 236.351 689.186C235.351 692.386 221.851 699.486 216.151 702.386C207.351 706.786 195.551 712.086 188.651 712.086V711.986ZM147.351 685.686C150.051 689.686 177.851 705.186 188.151 705.586C197.351 705.986 225.751 690.286 230.251 686.486C230.951 679.986 231.851 636.086 232.451 604.286L150.251 604.486C147.651 641.386 145.851 680.686 147.351 685.586V685.686Z" fill="#6D88BE"/>
<path d="M420.252 702.086C414.652 699.186 401.452 692.086 400.552 688.986C399.552 685.786 398.452 626.786 398.252 601.586V597.986L490.252 598.086V601.186C492.452 631.386 495.452 683.286 492.452 688.486C488.752 694.986 458.952 711.186 447.452 711.686C447.252 711.686 447.152 711.686 446.952 711.686C440.252 711.686 428.952 706.486 420.352 701.986L420.252 702.086ZM484.452 604.486H404.652C405.052 636.086 405.952 679.886 406.552 686.386C410.852 690.186 438.452 705.786 447.352 705.386C457.352 704.986 484.452 689.386 487.052 685.486C488.552 680.586 486.852 641.386 484.452 604.486Z" fill="#6D88BE"/>
<path d="M268.852 549.785C268.852 553.385 265.952 556.285 262.352 556.285C258.752 556.285 255.752 553.385 255.752 549.785C255.752 546.185 258.652 543.285 262.252 543.285C265.852 543.285 268.852 546.185 268.852 549.785Z" fill="#AEB5C2"/>
<path d="M268.752 658.586C268.752 662.186 265.852 665.086 262.252 665.086C258.652 665.086 255.652 662.186 255.652 658.586C255.652 654.986 258.552 652.086 262.152 652.086C265.752 652.086 268.752 654.986 268.752 658.586Z" fill="#AEB5C2"/>
<path d="M268.551 768.686C268.551 772.286 265.651 775.186 262.051 775.186C258.451 775.186 255.451 772.286 255.451 768.686C255.451 765.086 258.351 762.186 261.951 762.186C265.551 762.186 268.551 765.086 268.551 768.686Z" fill="#AEB5C2"/>
<path d="M268.352 878.785C268.352 882.385 265.452 885.285 261.852 885.285C258.252 885.285 255.252 882.385 255.252 878.785C255.252 875.185 258.152 872.285 261.752 872.285C265.352 872.285 268.352 875.185 268.352 878.785Z" fill="#AEB5C2"/>
<path d="M268.252 988.885C268.252 992.485 265.352 995.385 261.752 995.385C258.152 995.385 255.152 992.485 255.152 988.885C255.152 985.285 258.052 982.385 261.652 982.385C265.252 982.385 268.252 985.285 268.252 988.885Z" fill="#AEB5C2"/>
<path d="M216.166 303.253C228.906 300.499 235.969 283.169 231.942 264.545C227.916 245.922 214.324 233.057 201.585 235.812C188.845 238.566 181.782 255.896 185.808 274.52C189.835 293.143 203.426 306.008 216.166 303.253Z" fill="#FF8668"/>
<path d="M412.851 140.085C408.451 96.8854 288.851 69.3854 249.751 126.085C236.751 152.685 220.851 202.885 211.751 253.085C211.751 252.585 211.751 252.185 211.751 252.185C211.751 252.185 169.851 381.885 289.251 395.785C404.151 409.085 426.251 353.385 425.851 274.485C428.651 230.285 419.851 173.485 412.851 140.085Z" fill="#FF9977"/>
<g opacity="0.4">
<path d="M295.028 284.029C296.925 258.197 279.219 235.842 255.479 234.099C231.739 232.355 210.957 251.884 209.06 277.716C207.163 303.549 224.87 325.903 248.609 327.647C272.349 329.39 293.131 309.862 295.028 284.029Z" fill="#FF9977"/>
<path d="M294.23 283.97C296.091 258.633 278.712 236.706 255.413 234.995C232.114 233.284 211.718 252.437 209.857 277.774C207.997 303.111 225.376 325.037 248.675 326.748C271.974 328.459 292.369 309.307 294.23 283.97Z" fill="#FF9978"/>
<path d="M293.334 283.904C295.158 259.062 278.151 237.567 255.348 235.893C232.545 234.218 212.58 252.998 210.756 277.839C208.932 302.681 225.939 324.176 248.742 325.85C271.545 327.525 291.51 308.745 293.334 283.904Z" fill="#FE9879"/>
<path d="M292.535 283.846C294.323 259.501 277.644 238.434 255.282 236.791C232.919 235.149 213.341 253.554 211.554 277.899C209.766 302.245 226.445 323.312 248.807 324.954C271.17 326.596 290.748 308.192 292.535 283.846Z" fill="#FE987A"/>
<path d="M291.737 283.787C293.489 259.937 277.137 239.298 255.215 237.688C233.293 236.078 214.102 254.107 212.351 277.957C210.599 301.807 226.951 322.446 248.873 324.056C270.795 325.665 289.986 307.636 291.737 283.787Z" fill="#FD987B"/>
<path d="M290.939 283.729C292.654 260.375 276.63 240.164 255.149 238.587C233.668 237.009 214.863 254.663 213.148 278.017C211.433 301.371 227.457 321.582 248.938 323.159C270.419 324.737 289.224 307.083 290.939 283.729Z" fill="#FD977C"/>
<path d="M290.043 283.663C291.721 260.805 276.07 241.025 255.084 239.484C234.099 237.943 215.726 255.224 214.047 278.082C212.369 300.94 228.02 320.72 249.005 322.261C269.991 323.802 288.364 306.521 290.043 283.663Z" fill="#FC977D"/>
<path d="M289.244 283.603C290.886 261.241 275.563 241.889 255.018 240.381C234.473 238.872 216.487 255.777 214.845 278.14C213.202 300.502 228.526 319.854 249.071 321.363C269.616 322.871 287.602 305.966 289.244 283.603Z" fill="#FC977E"/>
<path d="M288.446 283.546C290.052 261.679 275.056 242.756 254.951 241.279C234.847 239.803 217.248 256.333 215.642 278.2C214.036 300.066 229.032 318.99 249.136 320.466C269.241 321.943 286.84 305.413 288.446 283.546Z" fill="#FC967F"/>
<path d="M287.548 283.48C289.117 262.109 274.493 243.617 254.885 242.177C235.276 240.737 218.108 256.894 216.539 278.265C214.97 299.636 229.593 318.128 249.202 319.568C268.81 321.008 285.978 304.851 287.548 283.48Z" fill="#FB9680"/>
<path d="M286.751 283.42C288.284 262.545 273.988 244.481 254.821 243.073C235.653 241.666 218.871 257.447 217.338 278.323C215.805 299.198 230.101 317.262 249.269 318.67C268.437 320.077 285.218 304.296 286.751 283.42Z" fill="#FB9681"/>
<path d="M285.953 283.363C287.45 262.983 273.481 245.347 254.754 243.972C236.027 242.597 219.632 258.003 218.136 278.383C216.639 298.762 230.607 316.398 249.334 317.773C268.062 319.149 284.456 303.742 285.953 283.363Z" fill="#FA9582"/>
<path d="M285.155 283.303C286.615 263.419 272.974 246.212 254.688 244.869C236.401 243.526 220.393 258.556 218.933 278.44C217.473 298.324 231.113 315.532 249.4 316.875C267.687 318.218 283.694 303.187 285.155 283.303Z" fill="#FA9583"/>
<path d="M284.256 283.237C285.68 263.849 272.412 247.072 254.621 245.766C236.83 244.459 221.254 259.118 219.83 278.506C218.406 297.894 231.674 314.67 249.465 315.977C267.256 317.283 282.833 302.625 284.256 283.237Z" fill="#FA9584"/>
<path d="M283.46 283.18C284.847 264.287 271.907 247.939 254.557 246.665C237.206 245.391 222.017 259.673 220.629 278.566C219.242 297.458 232.182 313.806 249.533 315.08C266.883 316.355 282.073 302.072 283.46 283.18Z" fill="#F99484"/>
<path d="M282.662 283.12C284.013 264.723 271.4 248.803 254.49 247.561C237.581 246.32 222.778 260.227 221.427 278.623C220.076 297.02 232.688 312.94 249.598 314.182C266.508 315.424 281.311 301.517 282.662 283.12Z" fill="#F99485"/>
<path d="M281.764 283.054C283.078 265.153 270.838 249.664 254.424 248.459C238.01 247.253 223.638 260.788 222.324 278.689C221.009 296.59 233.249 312.079 249.663 313.284C266.077 314.489 280.449 300.955 281.764 283.054Z" fill="#F89386"/>
<path d="M280.967 282.996C282.245 265.591 270.333 250.53 254.359 249.357C238.386 248.184 224.401 261.343 223.123 278.749C221.845 296.154 233.757 311.215 249.731 312.388C265.704 313.561 279.689 300.402 280.967 282.996Z" fill="#F89387"/>
<path d="M280.169 282.937C281.411 266.027 269.826 251.395 254.293 250.254C238.76 249.113 225.162 261.897 223.92 278.806C222.679 295.716 234.264 310.349 249.796 311.489C265.329 312.63 278.927 299.847 280.169 282.937Z" fill="#F79388"/>
<path d="M279.271 282.871C280.476 266.457 269.263 252.256 254.226 251.151C239.19 250.047 226.023 262.458 224.817 278.872C223.612 295.286 234.825 309.487 249.861 310.591C264.898 311.695 278.065 299.285 279.271 282.871Z" fill="#F79289"/>
<path d="M278.472 282.813C279.641 266.895 268.756 253.122 254.16 252.05C239.564 250.978 226.784 263.013 225.615 278.932C224.446 294.85 235.331 308.623 249.927 309.695C264.523 310.767 277.303 298.731 278.472 282.813Z" fill="#F7928A"/>
<path d="M277.676 282.754C278.808 267.331 268.251 253.986 254.096 252.947C239.94 251.907 227.547 263.567 226.414 278.989C225.281 294.412 235.839 307.757 249.994 308.796C264.15 309.836 276.543 298.176 277.676 282.754Z" fill="#F6928B"/>
<path d="M276.878 282.696C277.974 267.769 267.744 254.853 254.029 253.845C240.314 252.838 228.307 264.122 227.211 279.049C226.115 293.976 236.345 306.893 250.06 307.9C263.775 308.907 275.781 297.623 276.878 282.696Z" fill="#F6918C"/>
<path d="M275.979 282.63C277.039 268.199 267.182 255.713 253.963 254.743C240.743 253.772 229.168 264.683 228.108 279.114C227.049 293.545 236.906 306.031 250.125 307.002C263.344 307.973 274.92 297.061 275.979 282.63Z" fill="#F5918D"/>
<path d="M275.181 282.571C276.204 268.635 266.675 256.578 253.896 255.639C241.118 254.701 229.929 265.237 228.906 279.172C227.882 293.108 237.412 305.165 250.19 306.103C262.969 307.042 274.158 296.506 275.181 282.571Z" fill="#F5918E"/>
<path d="M274.385 282.513C275.372 269.073 266.17 257.444 253.832 256.538C241.494 255.632 230.692 265.792 229.705 279.232C228.718 292.671 237.92 304.301 250.258 305.207C262.596 306.113 273.398 295.953 274.385 282.513Z" fill="#F4908F"/>
<path d="M253.752 257.487C241.852 256.587 231.452 266.387 230.552 279.287C229.652 292.187 238.452 303.387 250.352 304.287C262.252 305.187 272.652 295.387 273.552 282.487C274.452 269.587 265.652 258.387 253.752 257.487Z" fill="#F49090"/>
</g>
<g opacity="0.4">
<path d="M394.943 328.238C416.264 313.53 421.625 284.323 406.916 263.002C392.208 241.681 363 236.32 341.679 251.028C320.358 265.737 314.998 294.944 329.706 316.265C344.414 337.586 373.622 342.947 394.943 328.238Z" fill="#FF9977"/>
<path d="M394.873 327.152C415.941 312.564 421.194 283.658 406.606 262.59C392.018 241.522 363.112 236.269 342.044 250.857C320.976 265.445 315.723 294.351 330.311 315.419C344.899 336.487 373.805 341.74 394.873 327.152Z" fill="#FF9978"/>
<path d="M394.431 327.259C415.227 312.859 420.412 284.327 406.012 263.532C391.613 242.736 363.081 237.551 342.285 251.95C321.489 266.35 316.304 294.882 330.704 315.678C345.104 336.473 373.635 341.659 394.431 327.259Z" fill="#FF9979"/>
<path d="M394.199 326.09C414.697 311.843 419.765 283.676 405.518 263.178C391.272 242.679 363.105 237.611 342.606 251.858C322.108 266.105 317.04 294.272 331.286 314.77C345.533 335.269 373.7 340.337 394.199 326.09Z" fill="#FE997A"/>
<path d="M393.913 326.378C414.185 312.289 419.196 284.434 405.107 264.162C391.018 243.89 363.163 238.878 342.891 252.968C322.619 267.057 317.607 294.912 331.696 315.184C345.786 335.456 373.641 340.468 393.913 326.378Z" fill="#FE9A7B"/>
<path d="M393.677 325.313C413.652 311.378 418.549 283.888 404.614 263.912C390.679 243.937 363.189 239.04 343.214 252.975C323.238 266.91 318.342 294.4 332.277 314.376C346.212 334.351 373.701 339.248 393.677 325.313Z" fill="#FE9A7C"/>
<path d="M393.233 325.621C412.936 311.876 417.766 284.76 404.021 265.056C390.275 245.353 363.16 240.522 343.456 254.268C323.752 268.013 318.922 295.129 332.668 314.833C346.413 334.536 373.529 339.367 393.233 325.621Z" fill="#FE9A7D"/>
<path d="M392.991 324.655C412.399 311.066 417.116 284.315 403.526 264.907C389.937 245.499 363.187 240.782 343.778 254.372C324.37 267.962 319.653 294.712 333.243 314.12C346.833 333.528 373.583 338.245 392.991 324.655Z" fill="#FE9A7E"/>
<path d="M392.803 323.872C411.962 310.407 416.578 283.961 403.113 264.802C389.648 245.644 363.202 241.028 344.043 254.493C324.885 267.958 320.269 294.404 333.734 313.563C347.199 332.721 373.645 337.337 392.803 323.872Z" fill="#FD9A7F"/>
<path d="M392.359 324.282C411.246 311.008 415.797 284.936 402.522 266.048C389.248 247.161 363.176 242.61 344.288 255.885C325.401 269.159 320.851 295.231 334.125 314.119C347.399 333.006 373.472 337.556 392.359 324.282Z" fill="#FD9A80"/>
<path d="M392.108 323.517C410.701 310.401 415.141 284.695 402.025 266.102C388.909 247.509 363.203 243.068 344.61 256.185C326.016 269.301 321.576 295.007 334.692 313.6C347.809 332.193 373.514 336.634 392.108 323.517Z" fill="#FD9A81"/>
<path d="M391.854 322.856C410.154 309.899 414.485 284.56 401.528 266.26C388.571 247.96 363.232 243.629 344.932 256.586C326.632 269.543 322.301 294.882 335.258 313.182C348.215 331.482 373.554 335.813 391.854 322.856Z" fill="#FD9B82"/>
<path d="M391.553 322.376C409.605 309.547 413.84 284.513 401.011 266.461C388.182 248.408 363.147 244.174 345.095 257.003C327.042 269.832 322.808 294.867 335.637 312.919C348.466 330.971 373.501 335.206 391.553 322.376Z" fill="#FD9B83"/>
<path d="M391.291 321.815C409.051 309.147 413.179 284.48 400.511 266.72C387.843 248.959 363.176 244.832 345.415 257.5C327.655 270.168 323.527 294.835 336.196 312.595C348.864 330.355 373.531 334.483 391.291 321.815Z" fill="#FC9B84"/>
<path d="M391.026 321.456C408.495 308.95 412.518 284.651 400.011 267.182C387.505 249.714 363.206 245.691 345.737 258.197C328.268 270.703 324.246 295.003 336.752 312.471C349.258 329.94 373.558 333.963 391.026 321.456Z" fill="#FC9B85"/>
<path d="M390.892 320.007C408.093 307.601 411.98 283.601 399.574 266.4C387.169 249.199 363.168 245.312 345.967 257.717C328.766 270.123 324.879 294.124 337.285 311.325C349.69 328.525 373.691 332.413 390.892 320.007Z" fill="#FC9B86"/>
<path d="M390.516 319.949C407.426 307.708 411.212 284.076 398.97 267.165C386.729 250.254 363.097 246.469 346.186 258.71C329.275 270.951 325.49 294.584 337.731 311.495C349.973 328.405 373.605 332.191 390.516 319.949Z" fill="#FC9B87"/>
<path d="M390.235 320.093C406.856 308.017 410.541 284.753 398.465 268.132C386.389 251.511 363.125 247.826 346.504 259.902C329.882 271.978 326.198 295.242 338.274 311.863C350.35 328.484 373.614 332.169 390.235 320.093Z" fill="#FC9B88"/>
<path d="M390.017 319.065C406.329 307.126 409.874 284.225 397.936 267.914C385.997 251.602 363.096 248.057 346.785 259.995C330.473 271.933 326.928 294.834 338.866 311.146C350.804 327.458 373.705 331.003 390.017 319.065Z" fill="#FB9C89"/>
<path d="M389.845 318.421C405.892 306.59 409.31 283.99 397.479 267.942C385.648 251.895 363.048 248.477 347 260.308C330.952 272.139 327.535 294.74 339.366 310.787C351.197 326.835 373.797 330.253 389.845 318.421Z" fill="#FB9C8A"/>
<path d="M389.502 317.897C405.242 306.207 408.526 283.971 396.836 268.231C385.146 252.49 362.91 249.207 347.17 260.897C331.43 272.586 328.146 294.822 339.836 310.563C351.526 326.303 373.762 329.586 389.502 317.897Z" fill="#FB9C8B"/>
<path d="M389.248 317.774C404.681 306.228 407.833 284.357 396.287 268.923C384.741 253.489 362.87 250.337 347.436 261.883C332.002 273.429 328.85 295.301 340.396 310.735C351.942 326.168 373.814 329.32 389.248 317.774Z" fill="#FB9C8B"/>
<path d="M389.022 316.782C404.131 305.355 407.116 283.844 395.689 268.735C384.263 253.626 362.751 250.641 347.642 262.068C332.533 273.495 329.548 295.006 340.975 310.115C352.402 325.224 373.913 328.209 389.022 316.782Z" fill="#FB9C8C"/>
<path d="M388.935 316.37C403.765 305.032 406.595 283.819 395.257 268.99C383.919 254.16 362.706 251.33 347.877 262.668C333.047 274.006 330.217 295.219 341.555 310.048C352.893 324.878 374.106 327.708 388.935 316.37Z" fill="#FB9C8D"/>
<path d="M388.786 315.212C403.274 303.973 405.908 283.118 394.67 268.63C383.432 254.142 362.577 251.507 348.089 262.745C333.6 273.983 330.966 294.839 342.204 309.327C353.442 323.815 374.297 326.45 388.786 315.212Z" fill="#FA9D8E"/>
<path d="M388.595 314.851C402.744 303.717 405.188 283.221 394.054 269.072C382.92 254.923 362.424 252.479 348.275 263.613C334.126 274.747 331.682 295.243 342.816 309.392C353.95 323.541 374.446 325.985 388.595 314.851Z" fill="#FA9D8F"/>
<path d="M388.431 314.201C402.266 303.117 404.497 282.915 393.412 269.079C382.328 255.243 362.126 253.013 348.29 264.098C334.454 275.182 332.224 295.384 343.309 309.22C354.393 323.056 374.595 325.286 388.431 314.201Z" fill="#FA9D90"/>
<path d="M388.33 313.502C401.792 302.483 403.773 282.637 392.754 269.174C381.735 255.712 361.889 253.731 348.427 264.75C334.964 275.769 332.983 295.615 344.002 309.077C355.021 322.54 374.867 324.521 388.33 313.502Z" fill="#FA9D91"/>
<path d="M388.213 313.333C401.286 302.363 402.992 282.873 392.022 269.8C381.053 256.727 361.562 255.022 348.489 265.991C335.416 276.961 333.711 296.451 344.681 309.524C355.65 322.597 375.14 324.302 388.213 313.333Z" fill="#FA9D92"/>
<path d="M388.185 312.921C400.834 301.965 402.205 282.829 391.249 270.18C380.292 257.532 361.156 256.16 348.508 267.116C335.859 278.073 334.488 297.209 345.444 309.857C356.401 322.506 375.536 323.878 388.185 312.921Z" fill="#F99D93"/>
<path d="M389.491 310.546C401.128 298.909 401.128 280.04 389.491 268.403C377.853 256.765 358.985 256.765 347.347 268.403C335.71 280.04 335.71 298.909 347.347 310.546C358.985 322.184 377.853 322.184 389.491 310.546Z" fill="#F99D94"/>
<path d="M389.066 310.122C400.469 298.719 400.469 280.23 389.066 268.827C377.662 257.424 359.174 257.424 347.771 268.827C336.367 280.23 336.367 298.719 347.771 310.122C359.174 321.525 377.662 321.525 389.066 310.122Z" fill="#F99E95"/>
<path d="M388.642 309.698C399.811 298.529 399.811 280.42 388.642 269.251C377.473 258.082 359.365 258.082 348.196 269.251C337.027 280.42 337.027 298.529 348.196 309.698C359.365 320.867 377.473 320.867 388.642 309.698Z" fill="#F99E96"/>
<path d="M388.217 309.274C399.152 298.339 399.152 280.61 388.217 269.676C377.283 258.741 359.554 258.741 348.619 269.676C337.685 280.61 337.685 298.339 348.619 309.274C359.554 320.208 377.283 320.208 388.217 309.274Z" fill="#F99E97"/>
<path d="M390.895 305.919C399.693 293.539 396.789 276.371 384.409 267.573C372.029 258.775 354.861 261.679 346.063 274.059C337.265 286.439 340.169 303.607 352.549 312.405C364.929 321.203 382.097 318.299 390.895 305.919Z" fill="#F89E98"/>
<path d="M392.522 301.906C399.244 288.657 393.952 272.468 380.703 265.746C367.454 259.025 351.265 264.316 344.544 277.565C337.822 290.814 343.113 307.004 356.362 313.725C369.611 320.447 385.801 315.155 392.522 301.906Z" fill="#F89E99"/>
<path d="M393.636 295.675C397.224 281.6 388.722 267.282 374.647 263.694C360.572 260.106 346.254 268.608 342.666 282.683C339.078 296.758 347.58 311.076 361.655 314.664C375.73 318.252 390.049 309.75 393.636 295.675Z" fill="#F89E9A"/>
<path d="M394.343 289.934C394.566 275.686 383.198 263.955 368.951 263.732C354.704 263.508 342.973 274.876 342.749 289.123C342.525 303.37 353.893 315.101 368.141 315.325C382.388 315.549 394.119 304.181 394.343 289.934Z" fill="#F89E9B"/>
<path d="M372.422 314.101C386.169 311.924 395.547 299.015 393.37 285.269C391.193 271.523 378.284 262.144 364.538 264.322C350.792 266.499 341.413 279.407 343.591 293.153C345.768 306.9 358.676 316.278 372.422 314.101Z" fill="#F89F9C"/>
<path d="M374.657 313.482C387.774 309.942 395.539 296.44 392 283.322C388.46 270.205 374.958 262.441 361.84 265.98C348.723 269.52 340.959 283.022 344.498 296.139C348.038 309.256 361.54 317.021 374.657 313.482Z" fill="#F79F9D"/>
<path d="M376.21 312.052C388.743 307.736 395.405 294.078 391.089 281.546C386.774 269.013 373.116 262.351 360.583 266.667C348.05 270.982 341.389 284.64 345.704 297.173C350.02 309.706 363.678 316.367 376.21 312.052Z" fill="#F79F9E"/>
<path d="M370.05 265.986C357.15 265.086 345.85 274.786 344.95 287.686C344.05 300.586 353.75 311.886 366.65 312.786C379.55 313.686 390.85 303.986 391.75 291.086C392.65 278.186 382.95 266.886 370.05 265.986Z" fill="#F79F9F"/>
</g>
<path d="M462.045 294.647C468.749 276.811 464.293 258.635 452.093 254.049C439.892 249.463 424.567 260.204 417.863 278.04C411.159 295.875 415.615 314.052 427.816 318.637C440.016 323.223 455.341 312.482 462.045 294.647Z" fill="#FF9977"/>
<path d="M451.752 297.086C439.452 303.986 426.952 300.686 418.252 292.686C418.052 297.386 417.452 303.286 415.952 310.086H416.152L412.852 355.586C418.552 344.386 421.952 331.186 423.852 316.286C424.952 317.086 426.052 317.786 427.352 318.386C439.352 323.486 454.752 313.386 461.852 295.686C463.652 291.086 464.652 286.586 465.052 282.186C462.452 288.186 458.252 293.486 451.752 297.086Z" fill="#FF8668"/>
<path d="M430.652 285.885L441.752 288.185C442.752 270.485 456.152 265.485 456.152 265.485C435.352 256.485 430.652 285.985 430.652 285.985V285.885Z" fill="#FF8668"/>
<path d="M398.052 73.8856C392.152 59.3856 371.652 53.6855 371.652 53.6855C371.652 55.6855 371.952 57.7856 372.552 59.7856C339.752 35.0856 295.152 30.6855 295.152 30.6855C293.152 33.4855 292.052 38.0856 292.452 41.3856C264.552 38.7856 242.552 40.3856 242.552 40.3856C234.452 73.3856 242.652 93.6855 252.252 105.586C255.752 109.886 260.652 117.186 275.452 124.786C275.452 124.786 291.552 139.686 316.952 141.686C339.652 143.486 372.052 128.886 372.052 128.886C394.752 129.686 421.852 199.886 421.452 256.586C421.452 269.586 433.752 257.186 433.752 257.186C433.752 257.186 435.752 243.186 436.052 222.886C436.052 222.686 459.052 132.886 441.652 97.6855C435.052 84.2855 425.552 81.4856 414.752 83.2856" fill="url(#paint0_linear_2394_71814)"/>
<path d="M243.052 88.8848C208.552 97.1848 213.052 221.485 212.552 241.885C212.552 243.385 212.352 244.285 212.052 245.985C211.952 246.685 214.652 246.685 214.552 245.985C214.352 244.785 214.752 242.785 214.852 241.985C221.752 204.685 256.452 124.685 275.352 124.885C275.352 124.885 257.952 112.985 242.952 88.9848L243.052 88.8848Z" fill="#59352C"/>
<path opacity="0.1" d="M439.652 94.0859C436.552 89.1859 432.952 86.0859 428.852 84.4859C425.152 84.9859 421.352 85.5859 417.352 86.2859C405.652 88.2859 393.252 89.2859 381.552 86.9859C367.852 84.2859 356.152 77.3859 344.252 70.4859C338.252 66.9859 332.252 63.4859 326.052 60.2859C312.752 53.5859 296.952 46.8859 281.852 46.4859C274.352 46.2859 266.952 48.0859 259.952 50.4859C253.452 52.6859 247.952 56.1859 243.952 59.8859C243.052 60.6859 241.252 61.7859 239.452 62.9859C239.252 68.4859 239.652 73.5859 240.352 78.1859C241.052 77.7859 241.752 77.4859 241.952 77.2859C244.552 75.5859 247.752 73.8859 251.452 72.5859C255.152 71.2859 259.352 70.2859 263.952 70.1859C281.952 69.8859 298.152 78.0859 313.952 85.6859C320.452 88.7859 326.952 92.3859 333.952 95.7859C340.852 99.2859 348.152 102.586 355.752 105.386C368.552 110.186 384.452 112.286 397.952 109.386C399.752 108.986 401.552 108.686 403.352 108.286C410.352 106.486 416.452 104.086 421.852 101.786C427.152 99.3859 431.752 97.2859 435.752 95.6859C437.152 95.0859 438.452 94.5859 439.752 94.1859L439.652 94.0859Z" fill="#FFBC80"/>
<path opacity="0.5" d="M368.652 236.585C389.052 237.285 396.352 247.885 397.752 249.885C398.852 245.885 399.252 237.585 398.552 230.185C397.352 218.185 343.152 191.385 343.152 191.385C343.152 191.385 324.952 222.885 336.352 249.085C338.952 243.585 352.552 236.085 368.652 236.585Z" fill="#FF8568"/>
<path d="M268.953 319.285C268.953 319.285 267.453 324.685 270.553 329.185C273.153 332.985 281.853 343.785 310.853 343.385C338.253 342.985 350.753 331.685 353.553 326.285C355.953 321.585 354.253 316.285 354.253 316.285L268.953 319.385V319.285Z" fill="#FB755C"/>
<path opacity="0.5" d="M299.251 188.385C299.251 188.385 243.551 208.785 239.451 219.285C236.251 227.285 234.951 234.885 234.451 238.885C234.651 238.685 246.151 227.885 272.651 232.385C289.651 235.285 291.351 244.785 292.151 246.885C307.751 226.285 299.351 188.485 299.351 188.485L299.251 188.385Z" fill="#FF8568"/>
<path d="M254.652 260.785C232.252 257.185 234.052 240.885 234.052 240.885C234.052 240.885 242.152 247.885 256.852 250.385C276.152 253.685 290.352 248.885 290.352 248.885C290.352 248.885 280.252 264.885 254.652 260.785Z" fill="#603F37"/>
<path d="M364.252 268.785C341.552 266.885 337.352 250.285 337.352 250.285C337.352 250.285 348.852 256.685 363.552 258.085C383.052 259.985 397.352 252.785 397.352 252.785C397.352 252.785 390.052 270.985 364.252 268.785Z" fill="#603F37"/>
<path d="M238.451 223.485C263.851 208.885 285.251 215.685 296.651 205.985C301.051 202.285 299.151 188.385 299.151 188.385C239.451 192.785 238.451 223.485 238.451 223.485Z" fill="url(#paint1_linear_2394_71814)"/>
<path d="M343.451 190.586C343.451 190.586 336.451 205.586 339.251 209.986C348.051 223.686 380.051 217.286 398.451 233.586C398.451 233.586 404.051 206.886 343.451 190.586Z" fill="url(#paint2_linear_2394_71814)"/>
<path d="M299.352 268.685C299.352 268.685 279.152 264.085 273.652 281.685C266.552 303.885 310.852 318.885 324.052 295.885C337.252 272.885 306.752 227.885 306.752 227.885C306.752 227.885 313.552 250.885 299.352 268.685Z" fill="#FF9877"/>
<path d="M272.951 287.986C274.851 306.486 312.151 316.686 324.051 295.986C324.751 294.686 325.351 293.386 325.851 291.986C308.051 295.086 289.751 293.386 273.051 287.986H272.951Z" fill="#FF8568"/>
<path opacity="0.2" d="M312.951 251.685L307.951 251.285C307.951 251.285 304.651 267.385 299.651 269.485C298.851 269.485 298.051 269.285 297.251 269.185C288.451 268.585 281.151 271.085 280.851 274.885C280.551 278.685 287.451 282.085 296.251 282.685C304.451 283.285 311.751 282.085 312.851 277.685C312.851 277.685 317.451 260.885 312.851 251.585L312.951 251.685Z" fill="white"/>
<path d="M149.452 693.185C149.452 693.185 148.252 683.885 132.452 681.185C116.752 678.385 45.3519 693.985 36.6519 703.285C21.5519 719.385 20.5519 799.685 30.5519 811.685C40.5519 823.685 97.5519 832.785 108.652 831.785C119.752 830.785 160.152 809.385 162.952 805.685C165.752 801.985 169.452 749.085 169.452 749.085L149.352 693.085L149.452 693.185Z" fill="#8C9EC4"/>
<path d="M474.852 755.285C474.852 755.285 475.052 766.485 478.552 771.885C482.052 777.285 517.552 806.185 526.752 807.085C535.952 808.085 600.152 804.585 605.652 795.885C611.152 787.185 617.052 718.185 614.352 711.585C611.652 704.985 576.352 674.185 570.152 673.285C563.952 672.285 515.252 676.485 513.852 677.985C512.452 679.485 474.852 755.185 474.852 755.185V755.285Z" fill="#8C9EC4"/>
<path opacity="0.2" d="M547.753 675.385C549.353 672.385 495.853 652.885 487.553 648.385C480.453 644.485 461.753 623.785 458.553 619.485L451.753 597.785C456.853 589.285 458.053 570.885 445.153 569.585C445.153 569.585 454.053 566.285 457.653 559.985C459.553 556.785 463.153 543.085 449.353 539.685C449.353 539.685 449.353 539.185 449.953 538.885C454.553 535.985 459.253 516.685 436.153 518.385C436.153 518.385 433.553 501.785 412.353 506.985C399.453 510.085 390.153 514.585 381.153 518.785C364.853 509.585 349.653 502.485 347.453 501.585C342.153 499.585 339.453 504.185 338.253 511.185C336.853 506.385 334.853 502.485 331.853 500.485C322.253 494.085 298.153 515.185 291.553 520.785C264.253 514.285 267.053 532.985 267.053 532.985C240.653 528.085 242.653 545.985 246.853 552.285C246.853 552.285 245.653 552.685 244.153 553.285C236.153 556.185 231.753 574.985 250.453 589.685C250.453 589.685 232.453 594.285 242.853 613.885L236.553 627.085C224.353 635.585 150.453 683.585 128.953 691.185C125.053 699.685 238.653 668.585 237.953 669.985C219.153 683.385 183.153 716.585 158.853 727.085C154.853 728.785 150.353 730.385 145.553 731.785C143.053 729.385 139.053 726.885 132.353 725.585C132.153 725.585 131.953 725.585 131.753 725.585C131.153 757.185 130.453 780.585 129.053 810.985C130.653 811.885 131.953 813.485 132.453 815.185C132.853 816.685 132.953 818.385 132.453 819.885C131.753 822.085 130.253 823.685 128.453 824.985C127.653 840.485 126.753 858.185 125.553 879.485C141.253 872.185 160.953 860.585 162.853 857.885C163.353 857.185 163.953 854.585 164.453 850.885C219.253 814.185 280.953 745.285 290.553 734.285C290.553 734.285 320.853 728.185 343.353 718.785C366.953 727.185 405.353 734.585 418.653 740.885C430.053 755.485 453.053 784.785 474.953 807.785C475.253 811.685 476.153 818.185 478.453 821.985C480.753 825.885 497.553 840.885 511.053 850.685C510.953 848.785 510.753 846.885 510.653 845.085C509.353 827.985 508.053 811.885 506.653 795.885C504.753 794.785 503.253 793.285 502.353 791.185C501.053 788.185 501.753 785.385 502.753 782.385C503.253 780.985 504.053 779.785 505.253 779.085C504.253 767.885 503.353 756.785 502.453 745.385C498.353 753.985 448.853 663.585 469.653 684.085C477.453 691.785 487.953 698.385 499.553 704.085C499.553 702.585 499.353 701.085 499.253 699.585C494.553 697.385 490.753 695.485 488.553 694.185C483.453 691.285 470.053 678.685 462.553 668.985C461.053 666.585 459.353 663.885 457.853 661.585C457.553 661.585 457.253 660.585 456.953 660.185C456.953 660.185 553.953 692.085 547.653 675.385H547.753Z" fill="#29354F"/>
<path d="M605.552 712.585C605.552 712.585 587.952 687.285 567.052 682.085C546.152 676.885 499.752 657.585 488.652 651.585C482.052 647.985 461.752 629.385 457.952 620.785C456.952 618.485 409.052 685.285 411.452 686.885C413.852 688.485 487.652 783.185 516.152 789.185C544.652 795.185 585.152 784.385 593.552 776.785C601.952 769.185 607.552 718.585 605.552 712.585Z" fill="#FF9977"/>
<path d="M292.052 687.886C292.052 687.886 180.952 808.586 118.252 819.886C55.4519 831.186 42.5519 791.486 38.3519 775.386C34.0519 759.286 42.4519 707.786 53.7519 703.586C65.0519 699.286 127.452 695.486 159.052 682.586C190.752 669.686 242.252 620.386 249.752 623.586C257.252 626.786 292.152 687.986 292.152 687.986L292.052 687.886Z" fill="#FF9977"/>
<path d="M439.952 597.785C439.952 597.785 448.952 588.585 448.352 580.885C447.852 573.285 443.352 569.185 441.252 569.085C441.252 569.085 451.352 564.585 454.152 557.685C457.052 550.785 450.352 540.385 441.052 541.085C441.052 541.085 449.052 539.185 450.952 533.285C452.852 527.485 447.052 515.185 429.752 521.285C429.752 521.285 435.152 510.785 422.652 507.585C410.152 504.285 332.452 543.985 332.452 543.985L325.152 537.885C325.152 537.885 333.852 526.885 334.952 516.285C336.052 505.685 329.852 495.485 318.652 503.685C307.452 511.885 290.852 524.885 288.252 527.585C285.652 530.285 241.152 622.685 237.852 628.585C235.752 632.285 290.552 689.185 290.552 689.185C290.552 689.185 340.652 679.685 359.752 666.285C378.752 652.885 436.552 601.785 439.852 597.785H439.952Z" fill="#FF9977"/>
<path d="M441.252 541.085C441.252 541.085 449.252 539.185 451.152 533.285C453.052 527.485 447.252 515.185 429.952 521.285C429.952 521.285 435.352 510.785 422.852 507.585C410.352 504.285 332.652 543.985 332.652 543.985L325.352 537.885C325.352 537.885 334.052 526.885 335.152 516.285C336.252 505.685 330.052 495.485 318.852 503.685C307.652 511.885 291.052 524.885 288.452 527.585C285.852 530.285 241.352 622.685 238.052 628.585C219.252 641.185 183.252 672.485 158.952 682.385C127.252 695.285 64.8523 699.085 53.6523 703.385C42.3523 707.685 33.9523 759.085 38.2523 775.185C42.5523 791.285 55.4523 830.985 118.152 819.685C176.952 809.085 278.152 702.485 290.752 689.085C290.752 689.085 340.852 679.585 359.952 666.185C378.952 652.785 436.752 601.685 440.052 597.685C440.052 597.685 449.052 588.485 448.452 580.785C447.952 573.185 443.452 569.085 441.352 568.985C441.352 568.985 451.452 564.485 454.252 557.585C457.152 550.685 450.452 540.285 441.152 540.985L441.252 541.085ZM247.152 687.885C232.352 703.485 138.752 774.785 102.352 783.085C66.0523 791.385 41.4523 767.885 42.6523 748.185C43.8523 728.485 64.1523 703.685 101.352 701.085C153.152 697.385 194.152 667.785 213.252 652.085C228.952 639.185 261.952 672.285 247.152 687.885ZM324.752 529.885C323.052 530.285 299.552 521.085 299.552 521.085C305.952 518.885 320.252 500.285 329.152 503.685C336.652 506.585 326.452 529.485 324.852 529.885H324.752ZM386.052 520.585C386.052 520.585 412.552 507.885 420.952 509.085C429.352 510.285 429.052 516.485 428.152 519.485C427.252 522.485 407.752 531.085 406.652 531.485C405.552 531.785 386.152 520.685 386.152 520.685L386.052 520.585ZM426.152 545.485C425.652 545.185 410.852 533.785 410.352 533.585C410.352 533.585 428.652 522.185 437.952 521.785C447.252 521.385 451.852 531.485 447.152 535.785C442.452 540.085 426.652 545.785 426.152 545.485ZM452.452 555.485C451.952 563.085 438.852 567.085 438.852 567.085C437.552 561.285 428.652 547.085 428.552 546.885C428.552 546.885 433.552 543.685 439.852 542.985C446.252 542.285 452.952 547.885 452.452 555.485Z" fill="url(#paint3_linear_2394_71814)"/>
<path d="M457.052 619.586C457.052 619.586 435.652 559.386 424.252 547.386C412.752 535.486 352.352 505.986 348.252 503.586C344.252 501.086 336.552 508.286 339.252 517.986C341.952 527.686 372.752 550.586 372.752 552.186C372.752 553.786 312.252 525.686 292.052 521.586C271.852 517.586 266.152 527.886 269.152 534.886C269.152 534.886 263.952 531.986 255.852 533.586C247.752 535.186 242.552 545.686 250.452 553.186C250.452 553.186 235.152 555.186 240.352 570.486C245.552 585.786 302.852 619.686 302.852 619.686C302.852 619.686 261.252 594.286 253.152 593.186C245.052 592.086 235.852 601.986 246.452 614.986C257.052 627.986 310.052 658.186 330.552 669.386C351.052 680.586 413.752 690.086 422.452 697.686C431.252 705.286 466.052 633.186 466.052 633.186C466.052 633.186 460.652 624.586 457.052 619.686V619.586Z" fill="#FF9977"/>
<path d="M605.552 712.586C605.552 712.586 587.952 687.286 567.052 682.086C546.152 676.886 499.752 657.586 488.652 651.586C483.552 648.786 470.152 636.986 462.652 627.786C461.152 625.486 459.452 622.786 457.952 620.686V620.586C457.652 620.586 457.352 619.886 457.052 619.486C457.052 619.486 435.652 559.286 424.252 547.386C412.752 535.486 352.352 506.086 348.252 503.586C344.252 501.086 336.552 508.286 339.252 517.986C341.952 527.686 372.752 550.586 372.752 552.186C372.752 553.786 312.252 525.686 292.052 521.586C271.852 517.586 266.152 527.886 269.152 534.886C269.152 534.886 263.952 531.986 255.852 533.586C247.752 535.186 242.552 545.686 250.452 553.186C250.452 553.186 235.152 555.186 240.352 570.486C244.752 583.386 254.452 592.486 254.452 592.486C243.052 591.486 235.852 601.986 246.452 614.986C257.052 627.986 310.052 658.186 330.552 669.386C349.152 679.586 402.652 688.286 418.852 695.586C438.652 719.286 492.752 784.286 516.152 789.286C544.652 795.286 585.152 784.486 593.552 776.886C601.952 769.286 607.552 718.686 605.552 712.686V712.586ZM351.052 669.086C346.152 669.486 293.252 641.886 279.452 633.186C265.652 624.486 244.852 611.886 243.352 606.586C241.852 601.286 246.352 592.186 255.552 594.986C264.652 597.786 315.352 630.586 316.052 630.586C316.752 630.586 319.752 625.786 318.652 625.786C318.352 625.786 258.052 588.986 248.952 579.086C239.952 569.186 239.952 557.286 247.852 555.786C255.752 554.286 327.352 604.986 328.252 605.286C329.152 605.586 331.652 602.686 331.152 601.286C330.652 599.886 255.552 554.086 251.452 551.386C247.352 548.586 247.352 537.386 255.052 535.386C262.752 533.386 348.552 578.586 349.252 578.086C349.852 577.586 351.952 574.386 351.452 573.486C351.052 572.586 272.652 536.286 271.652 535.186C271.652 535.186 268.052 528.086 275.052 524.486C282.052 520.886 297.152 524.186 312.752 530.086C328.352 536.086 368.952 556.586 406.652 562.886L408.052 554.786C408.052 554.786 373.452 548.086 361.652 539.086C349.852 530.086 340.952 520.186 340.752 513.086C340.552 505.986 345.852 503.786 357.252 510.086C368.652 516.386 415.752 540.486 422.852 549.886C429.852 559.286 355.852 668.886 351.052 669.286V669.086ZM590.352 754.986C581.252 775.986 536.852 755.586 504.552 736.186C472.252 716.786 439.552 677.686 431.152 663.586C422.752 649.486 449.052 622.786 469.752 642.086C498.852 669.186 567.052 682.086 580.852 693.386C595.152 705.086 599.352 733.986 590.252 754.986H590.352Z" fill="url(#paint4_linear_2394_71814)"/>
<path opacity="0.1" d="M314.751 1070.59C216.751 1071.09 300.151 1090.69 300.251 1090.79C300.251 1087.99 300.451 1085.29 300.551 1082.49C310.751 1082.69 321.151 1082.69 331.651 1082.69C331.651 1085.89 331.851 1089.09 331.851 1092.29C332.051 1092.29 412.651 1070.09 314.651 1070.59H314.751Z" fill="black"/>
<path d="M441.612 99.0342C445.018 91.4216 417.126 71.5391 379.316 54.6255C341.505 37.7119 308.093 30.172 304.687 37.7846C301.282 45.3972 329.173 65.2795 366.984 82.1931C404.795 99.1067 438.207 106.647 441.612 99.0342Z" fill="#0C4266"/>
<path d="M441.954 100.285C438.554 107.885 405.154 100.285 367.354 83.3847C329.554 66.4847 301.654 45.1847 305.054 37.6847C308.454 30.1847 307.554 35.6847 309.954 36.3847C312.354 37.0847 338.354 56.9847 369.054 70.7847C402.154 85.5847 438.154 87.8847 441.754 96.9847C442.254 98.2847 442.354 99.3847 441.954 100.385V100.285Z" fill="#092E4C"/>
<defs>
<linearGradient id="paint0_linear_2394_71814" x1="348.523" y1="44.4848" x2="341.191" y2="137.498" gradientUnits="userSpaceOnUse">
<stop stop-color="#75483B"/>
<stop offset="0.4" stop-color="#704438"/>
<stop offset="0.7" stop-color="#623C2F"/>
<stop offset="1" stop-color="#563428"/>
</linearGradient>
<linearGradient id="paint1_linear_2394_71814" x1="271.258" y1="188.612" x2="268.003" y2="220.66" gradientUnits="userSpaceOnUse">
<stop stop-color="#75483B"/>
<stop offset="0.4" stop-color="#704438"/>
<stop offset="0.7" stop-color="#623C2F"/>
<stop offset="1" stop-color="#563428"/>
</linearGradient>
<linearGradient id="paint2_linear_2394_71814" x1="370.682" y1="200.126" x2="367.319" y2="232.266" gradientUnits="userSpaceOnUse">
<stop stop-color="#75483B"/>
<stop offset="0.4" stop-color="#704438"/>
<stop offset="0.7" stop-color="#623C2F"/>
<stop offset="1" stop-color="#563428"/>
</linearGradient>
<linearGradient id="paint3_linear_2394_71814" x1="296.152" y1="616.485" x2="239.352" y2="657.785" gradientUnits="userSpaceOnUse">
<stop stop-color="#FD8268"/>
<stop offset="1" stop-color="#FD9677"/>
</linearGradient>
<linearGradient id="paint4_linear_2394_71814" x1="95.6515" y1="461.986" x2="458.752" y2="660.986" gradientUnits="userSpaceOnUse">
<stop stop-color="#FD8268"/>
<stop offset="1" stop-color="#FD9677"/>
</linearGradient>
</defs>
</svg>
