<svg width="940" height="1600" viewBox="0 0 940 1600" fill="none" xmlns="http://www.w3.org/2000/svg">
<path d="M773.498 1539.6C773.498 1539.6 631.498 1567 456.198 1567C280.898 1567 138.898 1539.6 138.898 1539.6C138.898 1539.6 280.898 1512.2 456.198 1512.2C631.498 1512.2 773.498 1539.6 773.498 1539.6Z" fill="url(#paint0_linear_2394_71806)"/>
<path d="M393.099 410.899C401.099 409.199 409.399 402.999 418.899 401.899L421.599 344.199C421.099 326.699 434.799 313.099 458.799 313.499C481.799 313.899 502.299 328.499 502.699 345.999L504.399 403.199C514.899 404.799 524.499 406.799 533.399 409.299L532.799 461.899H392.199L393.099 410.899Z" fill="url(#paint1_linear_2394_71806)"/>
<path d="M310.998 1475.5C309.898 1476 230.098 1519.6 229.198 1533.3C229.198 1533.9 226.898 1534.3 226.598 1534.7V1540.1C269.198 1554.5 355.298 1537.5 355.298 1537.5C355.298 1537.5 355.498 1540.9 356.398 1541C373.498 1542.7 402.398 1538.8 404.398 1537.2C404.798 1536.9 405.398 1532.2 405.198 1528.1C405.198 1527.7 404.098 1526.8 404.098 1526.8C404.998 1510.6 404.998 1479.4 405.098 1478.7C407.898 1464.7 317.498 1451.3 310.998 1475.5Z" fill="#2C2C2D"/>
<path d="M602.298 1475.5C603.398 1476 683.198 1519.6 684.098 1533.3C684.098 1533.9 686.398 1534.3 686.698 1534.7V1540.1C644.098 1554.5 557.998 1537.5 557.998 1537.5C557.998 1537.5 557.798 1540.9 556.898 1541C539.798 1542.7 510.898 1538.8 508.898 1537.2C508.498 1536.9 507.898 1532.2 508.098 1528.1C508.098 1527.7 509.198 1526.8 509.198 1526.8C508.298 1510.6 508.298 1479.4 508.198 1478.7C505.398 1464.7 595.798 1451.3 602.298 1475.5Z" fill="#2C2C2D"/>
<path d="M411.398 1498.9C439.898 1183.6 452.698 932.499 455.098 862.199L311.498 846.299C301.598 956.799 310.298 1241.8 293.498 1485.3C293.498 1485.3 307.098 1477.5 334.398 1479C360.398 1480.4 390.098 1496.5 404.798 1501C404.798 1501 410.698 1499.2 411.398 1499V1498.9Z" fill="#333844"/>
<path d="M502.898 1498.8C474.398 1183.5 460.798 932.499 458.498 862.199L602.098 846.299C611.998 956.799 603.198 1241.8 619.998 1485.3C619.998 1485.3 606.098 1479.3 579.198 1478.9C563.998 1478.7 523.298 1496.4 508.598 1500.9L502.998 1498.8H502.898Z" fill="#333844"/>
<path d="M312.798 815.099C308.598 895.199 307.398 932.799 307.398 932.799C307.398 932.799 390.898 939.699 481.398 938.899C540.198 938.399 590.398 942.799 594.298 918.899C597.798 897.299 601.498 871.499 603.598 816.599L598.298 811.299C583.598 812.799 533.198 818.299 454.698 817.299C368.398 816.199 330.098 810.599 319.198 809.699C317.598 809.599 312.798 813.299 312.698 814.999L312.798 815.099Z" fill="#333844"/>
<path d="M429.998 932L428.998 938.4C452.898 939.2 483.798 938.6 483.798 938.6V932.1C483.698 932.1 429.998 932.1 429.998 932.1V932Z" fill="#292D35"/>
<path d="M307.998 911.7C314.798 907.3 328.098 897.9 336.298 890.4C335.398 889.1 334.498 887.8 333.498 886.5C328.798 890 313.298 900.7 308.198 904.2C308.198 906.6 307.998 909.1 307.998 911.6V911.7Z" fill="#292D35"/>
<path d="M454.799 834.798C379.499 834.798 332.799 831.398 312.299 829.498C309.799 829.498 308.199 856.598 311.099 857.898C332.999 859.898 379.699 863.098 454.899 863.098C530.099 863.098 575.999 859.298 602.999 857.298C605.399 857.498 605.499 829.398 602.899 829.398C577.699 831.298 522.899 834.698 454.899 834.698L454.799 834.798Z" fill="#1C1D1E"/>
<path d="M388.198 872.9L370.998 872L374.298 824.6L391.398 825.5L388.198 872.9Z" fill="#333844"/>
<path d="M530.399 872.9L513.299 872L516.499 824.6L533.599 825.5L530.399 872.9Z" fill="#333844"/>
<path d="M576.198 886C575.098 888.5 575.498 887.7 574.498 890.3C582.698 897.4 597.698 906.3 605.498 911.2C605.498 907.8 605.298 906.9 605.298 903.9L576.198 886.1V886Z" fill="#292D35"/>
<path d="M598.398 938.699C598.398 938.699 606.398 1166.8 601.498 1171.7C596.698 1176.6 571.198 1196.9 564.498 1196.2C553.698 1195.1 502.498 1171.9 499.698 1164.4C496.998 1156.9 485.698 941.899 489.698 941.999C493.698 942.099 598.198 938.799 598.198 938.799L598.398 938.699Z" fill="url(#paint2_linear_2394_71806)"/>
<path d="M493.398 1389.2C493.198 1389.2 494.098 1408.5 494.098 1409.6C494.298 1414.8 493.198 1420.6 493.998 1425.6C494.798 1431 498.598 1435.6 498.198 1441.3C497.898 1444.8 495.898 1447.9 494.298 1451.1C492.698 1454.3 491.498 1458 492.798 1461.3C493.898 1464 496.698 1465.9 497.698 1468.7C498.998 1472.4 496.898 1475.9 496.698 1479.5C496.398 1483.5 497.598 1487.9 497.798 1492.1C497.898 1494.1 497.298 1507.1 499.398 1508.3C501.398 1509.4 506.398 1511.9 508.598 1511.4C525.698 1507.8 552.098 1486 573.698 1481C598.298 1475.2 619.798 1485.5 619.798 1485.5C617.598 1484.9 620.198 1469.8 620.798 1468.3C621.798 1466 623.198 1463.8 623.498 1461.4C624.198 1454.6 615.598 1449 617.098 1442.3C617.898 1438.9 621.198 1436.2 621.198 1432.7C621.198 1429.8 619.098 1427.4 617.598 1424.9C614.898 1420 615.998 1414.9 615.698 1409.6C615.398 1404.2 615.098 1398.9 614.798 1393.5C614.798 1392.7 613.898 1378.4 613.998 1378.4L493.198 1389.2H493.398Z" fill="#333844"/>
<path d="M420.598 1388.3C420.798 1388.3 419.598 1409.4 419.598 1410.5C419.398 1415.7 419.598 1420.6 418.998 1425.6C418.198 1431 416.198 1434.3 416.698 1440C416.998 1443.5 417.098 1447.9 418.698 1451.1C420.298 1454.3 421.498 1458 420.198 1461.3C419.098 1464 416.298 1465.9 415.298 1468.7C413.998 1472.4 416.098 1475.9 416.298 1479.5C416.598 1483.5 415.398 1487.9 415.198 1492.1C415.098 1494.1 415.698 1507.1 413.598 1508.3C411.598 1509.4 407.198 1510.9 404.898 1510.9C373.998 1510.9 359.598 1487.7 339.798 1482.6C315.298 1476.3 293.098 1485.5 293.098 1485.5C295.298 1484.9 292.698 1469.8 292.098 1468.3C291.098 1466 289.698 1463.8 289.398 1461.4C288.698 1454.6 297.298 1449 295.798 1442.3C294.998 1438.9 291.698 1436.2 291.698 1432.7C291.698 1429.8 293.798 1427.4 295.298 1424.9C297.998 1420 296.898 1414.9 297.198 1409.6C297.498 1404.2 297.798 1398.9 298.098 1393.5C298.098 1392.7 299.598 1377.2 299.498 1377.2L420.798 1388.3H420.598Z" fill="#333844"/>
<path d="M354.199 1530.6C331.399 1533.4 305.499 1536.6 283.799 1536.9C250.899 1537.5 234.799 1534.3 229.299 1532.9C229.299 1533 229.299 1533.1 229.299 1533.2C229.299 1533.8 226.999 1534.2 226.699 1534.6V1534.8C229.499 1535.7 243.099 1539.5 276.199 1539.5C309.299 1539.5 281.299 1539.5 283.999 1539.5C305.799 1539.1 331.699 1535.9 354.599 1533.1C376.699 1530.4 395.899 1528 405.399 1528.9C405.399 1528.6 405.399 1528.3 405.399 1528C405.399 1527.6 404.299 1526.7 404.299 1526.7C404.299 1526.6 404.299 1526.4 404.299 1526.3C394.199 1525.7 375.599 1528 354.399 1530.6H354.199Z" fill="#3D3D3D"/>
<path d="M665.998 655.8L581.298 583.4L569.198 493H563.998L572.398 591.2L502.098 568.8L350.298 613.2L361.298 496H356.098L336.998 623.5L324.498 691.1C324.498 691.1 280.098 692.6 263.498 680.2C251.098 670.9 250.198 639.4 250.598 624.2C247.098 632 243.298 640.8 242.998 642.7C238.098 669.5 245.798 696.1 254.198 703.7C263.498 712 307.098 713.4 317.198 712.3C312.598 779.8 311.598 760.8 315.098 795.7C315.798 802.4 320.498 812.7 321.598 814.9C321.598 814.9 407.498 819.6 455.098 819.6C502.698 819.6 596.998 814.6 596.998 814.6C598.198 812.5 609.198 802.5 609.898 795.7C613.398 760.7 611.898 756.3 607.298 688.9C619.398 690.2 660.898 694.3 675.398 678.4C679.698 673.7 683.298 658.4 684.498 643.8C677.398 657.9 665.998 655.8 665.998 655.8ZM463.898 792.5C459.498 792.5 347.698 785.9 345.098 782.8C342.498 779.7 347.098 734 347.098 734C356.298 728.4 435.098 656.5 437.498 654.5C439.898 652.5 482.898 642.3 482.898 642.3C482.898 642.3 534.898 657.3 539.198 656.1C543.498 655 575.398 700.8 575.398 700.8C575.398 700.8 579.498 774.8 579.998 778.8C580.398 782.8 468.298 792.5 463.898 792.5Z" fill="url(#paint3_linear_2394_71806)"/>
<path d="M559.198 1530.6C581.998 1533.4 607.898 1536.6 629.498 1536.9C662.398 1537.5 678.498 1534.3 684.098 1532.9C684.098 1533 684.098 1533.1 684.098 1533.2C684.098 1533.8 686.398 1534.2 686.698 1534.6C683.898 1535.7 670.198 1539.5 637.198 1539.5C604.198 1539.5 632.098 1539.5 629.398 1539.5C607.598 1539.1 581.698 1535.9 558.798 1533.1C536.698 1530.4 517.498 1528 508.098 1528.9C508.098 1528.6 508.098 1528.3 508.098 1528C508.098 1527.6 509.198 1526.7 509.198 1526.7C509.198 1526.6 509.198 1526.4 509.198 1526.3C519.298 1525.7 537.798 1528 559.098 1530.6H559.198Z" fill="#3D3D3D"/>
<path d="M326.698 1518.6C298.398 1501.8 272.898 1503.5 254.698 1509.5C245.698 1515.6 237.898 1521.6 233.398 1526.5C239.698 1528 250.998 1529.6 271.098 1530.1C310.998 1531.1 333.598 1522.8 326.698 1518.7V1518.6Z" fill="url(#paint4_linear_2394_71806)"/>
<path d="M679.998 1526.5C675.398 1521.6 667.298 1515.4 658.098 1509.1C639.998 1503.4 614.898 1502.1 587.098 1518.6C580.198 1522.7 602.898 1531 642.698 1530C662.298 1529.5 673.598 1527.9 679.898 1526.5H679.998Z" fill="url(#paint5_linear_2394_71806)"/>
<path d="M316.499 938.699C316.499 938.699 306.699 1168.7 311.599 1173.6C316.399 1178.5 342.999 1199.2 349.699 1198.6C360.499 1197.5 412.699 1167.6 415.399 1160.1C418.099 1152.6 429.099 941.799 424.999 941.999C420.999 942.099 316.499 938.799 316.499 938.799V938.699Z" fill="url(#paint6_linear_2394_71806)"/>
<path d="M479.199 834.699C479.199 834.699 427.199 834.199 427.199 835.199C427.199 835.199 426.699 862.199 427.199 862.599C427.699 862.999 479.499 862.999 479.499 862.999C479.499 862.999 479.499 867.399 478.599 867.999C475.399 869.899 421.799 869.399 420.299 867.999C418.799 866.599 419.799 831.499 420.899 829.499C421.999 827.499 476.899 828.199 477.999 828.999C478.999 829.799 479.099 834.699 479.099 834.699H479.199Z" fill="url(#paint7_linear_2394_71806)"/>
<path d="M422.298 844.5C422.298 844.5 421.598 850.7 422.098 851.1C422.498 851.5 435.098 851.1 435.398 850.9C435.698 850.7 435.898 845.6 435.498 844.7C435.298 844.1 422.798 844 422.298 844.5Z" fill="url(#paint8_linear_2394_71806)"/>
<path d="M382.104 318.088C392.382 315.716 397.895 301.577 394.416 286.51C390.937 271.442 379.785 261.151 369.507 263.524C359.229 265.897 353.716 280.035 357.195 295.103C360.674 310.17 371.826 320.461 382.104 318.088Z" fill="url(#paint9_linear_2394_71806)"/>
<path d="M539.899 183.6C535.799 148.6 438.499 127.6 407.399 174.1C397.199 195.8 384.799 236.8 377.999 277.6C377.999 277.2 377.999 276.9 377.999 276.9C377.999 276.9 345.399 382.6 442.499 392.5C535.899 402 553.199 356.6 551.999 292.5C553.799 256.6 545.999 210.6 539.999 183.6H539.899Z" fill="url(#paint10_linear_2394_71806)"/>
<g opacity="0.6">
<path d="M530.069 329.873C542.977 313.819 541.229 290.985 526.164 278.873C511.099 266.76 488.423 269.956 475.515 286.011C462.607 302.065 464.355 324.899 479.419 337.011C494.484 349.123 517.16 345.928 530.069 329.873Z" fill="#FF9E78"/>
<path d="M529.913 329.747C542.717 313.821 540.954 291.149 525.976 279.105C510.997 267.062 488.475 270.21 475.671 286.135C462.866 302.061 464.629 324.733 479.607 336.777C494.586 348.82 517.108 345.672 529.913 329.747Z" fill="#FF9D77"/>
<path d="M529.757 329.623C542.492 313.783 540.743 291.236 525.851 279.263C510.958 267.289 488.562 270.422 475.827 286.262C463.091 302.101 464.84 324.648 479.733 336.622C494.625 348.596 517.022 345.462 529.757 329.623Z" fill="#FF9C77"/>
<path d="M529.601 329.497C542.232 313.786 540.469 291.4 525.663 279.496C510.856 267.591 488.614 270.676 475.982 286.386C463.351 302.096 465.114 324.483 479.921 336.387C494.727 348.292 516.969 345.207 529.601 329.497Z" fill="#FF9B76"/>
<path d="M529.367 329.31C541.929 313.686 540.215 291.453 525.538 279.653C510.86 267.852 488.779 270.951 476.216 286.575C463.654 302.199 465.369 324.432 480.046 336.232C494.723 348.033 516.805 344.934 529.367 329.31Z" fill="#FF9A76"/>
<path d="M529.211 329.184C541.704 313.646 540.003 291.539 525.412 279.808C510.821 268.076 488.865 271.162 476.372 286.7C463.879 302.238 465.58 324.344 480.172 336.076C494.763 347.807 516.719 344.722 529.211 329.184Z" fill="#FF9975"/>
<path d="M529.056 329.057C541.445 313.649 539.729 291.703 525.224 280.041C510.719 268.378 488.917 271.415 476.528 286.824C464.139 302.233 465.854 324.179 480.359 335.841C494.864 347.504 516.666 344.466 529.056 329.057Z" fill="#FF9875"/>
<path d="M528.9 328.933C541.22 313.611 539.518 291.791 525.099 280.198C510.68 268.605 489.004 271.628 476.684 286.951C464.364 302.274 466.066 324.093 480.485 335.687C494.904 347.28 516.58 344.256 528.9 328.933Z" fill="#FF9774"/>
<path d="M528.666 328.744C540.882 313.551 539.201 291.92 524.911 280.43C510.621 268.941 489.134 271.944 476.918 287.138C464.702 302.332 466.383 323.962 480.673 335.452C494.963 346.941 516.45 343.938 528.666 328.744Z" fill="#FF9674"/>
<path d="M528.51 328.62C540.657 313.513 538.99 292.008 524.786 280.588C510.582 269.167 489.221 272.157 477.074 287.264C464.927 302.372 466.594 323.877 480.798 335.297C495.002 346.717 516.363 343.728 528.51 328.62Z" fill="#FF9573"/>
<path d="M528.354 328.494C540.432 313.473 538.778 292.094 524.661 280.743C510.543 269.392 489.307 272.367 477.23 287.389C465.152 302.411 466.806 323.79 480.924 335.14C495.041 346.491 516.277 343.516 528.354 328.494Z" fill="#FF9472"/>
<path d="M528.198 328.37C540.172 313.478 538.504 292.259 524.472 280.978C510.441 269.696 489.359 272.623 477.386 287.515C465.412 302.408 467.08 323.626 481.111 334.908C495.143 346.189 516.225 343.262 528.198 328.37Z" fill="#FF9372"/>
<path d="M527.965 328.181C539.869 313.375 538.25 292.31 524.347 281.133C510.445 269.955 489.524 272.896 477.62 287.702C465.715 302.509 467.335 323.573 481.237 334.751C495.14 345.929 516.06 342.987 527.965 328.181Z" fill="#FF9271"/>
<path d="M527.809 328.055C539.61 313.378 537.976 292.474 524.159 281.365C510.343 270.257 489.576 273.15 477.775 287.827C465.975 302.504 467.609 323.408 481.425 334.516C495.241 345.625 516.008 342.732 527.809 328.055Z" fill="#FF9171"/>
<path d="M527.653 327.931C539.385 313.34 537.764 292.562 524.034 281.523C510.304 270.483 489.663 273.362 477.931 287.953C466.2 302.545 467.82 323.322 481.55 334.362C495.281 345.401 515.922 342.522 527.653 327.931Z" fill="#FF9070"/>
<path d="M527.497 327.805C539.16 313.3 537.553 292.648 523.909 281.678C510.265 270.708 489.75 273.573 478.087 288.078C466.425 302.583 468.032 323.235 481.676 334.205C495.32 345.175 515.835 342.31 527.497 327.805Z" fill="#FF8F70"/>
<path d="M527.264 327.618C538.822 313.242 537.236 292.779 523.721 281.912C510.206 271.046 489.88 273.891 478.321 288.267C466.763 302.643 468.349 323.106 481.864 333.972C495.379 344.839 515.705 341.994 527.264 327.618Z" fill="#FF8E6F"/>
<path d="M527.108 327.492C538.597 313.202 537.025 292.865 523.596 282.068C510.167 271.27 489.966 274.102 478.477 288.392C466.988 302.681 468.56 323.018 481.989 333.816C495.418 344.613 515.618 341.782 527.108 327.492Z" fill="#FF8D6F"/>
<path d="M526.952 327.366C538.372 313.162 536.813 292.951 523.47 282.223C510.127 271.495 490.053 274.312 478.633 288.516C467.213 302.72 468.772 322.931 482.115 333.659C495.457 344.387 515.532 341.569 526.952 327.366Z" fill="#FF8C6E"/>
<path d="M526.796 327.241C538.112 313.167 536.539 293.116 523.282 282.458C510.025 271.799 490.105 274.568 478.789 288.643C467.472 302.717 469.046 322.768 482.302 333.426C495.559 344.085 515.48 341.316 526.796 327.241Z" fill="#FF8B6E"/>
<path d="M526.562 327.053C537.81 313.064 536.285 293.168 523.157 282.613C510.03 272.058 490.27 274.841 479.023 288.83C467.776 302.818 469.3 322.715 482.428 333.27C495.556 343.825 515.315 341.041 526.562 327.053Z" fill="#FF8A6D"/>
<path d="M526.406 326.928C537.55 313.069 536.011 293.333 522.969 282.848C509.928 272.362 490.322 275.097 479.179 288.956C468.035 302.816 469.574 322.551 482.616 333.037C495.658 343.523 515.263 340.788 526.406 326.928Z" fill="#FF896C"/>
<path d="M526.251 326.802C537.325 313.029 535.799 293.419 522.844 283.003C509.888 272.586 490.409 275.307 479.335 289.081C468.26 302.854 469.786 322.464 482.741 332.88C495.697 343.297 515.177 340.576 526.251 326.802Z" fill="#FF886C"/>
<path d="M526.095 326.678C537.1 312.991 535.588 293.507 522.719 283.16C509.849 272.813 490.495 275.52 479.49 289.207C468.486 302.895 469.997 322.378 482.867 332.726C495.736 343.073 515.09 340.365 526.095 326.678Z" fill="#FF876B"/>
<path d="M525.859 326.489C536.76 312.931 535.269 293.636 522.529 283.393C509.788 273.149 490.623 275.836 479.722 289.394C468.821 302.952 470.312 322.247 483.053 332.491C495.793 342.734 514.958 340.047 525.859 326.489Z" fill="#FF866B"/>
<path d="M525.703 326.363C536.535 312.891 535.058 293.722 522.404 283.548C509.749 273.373 490.71 276.047 479.878 289.519C469.047 302.991 470.524 322.16 483.178 332.334C495.832 342.509 514.872 339.835 525.703 326.363Z" fill="#FF856A"/>
<path d="M525.547 326.239C536.275 312.896 534.784 293.888 522.215 283.783C509.647 273.678 490.762 276.302 480.034 289.645C469.306 302.988 470.798 321.996 483.366 332.102C495.934 342.207 514.819 339.582 525.547 326.239Z" fill="#FF846A"/>
<path d="M525.392 326.113C536.05 312.856 534.572 293.974 522.09 283.938C509.608 273.902 490.849 276.513 480.19 289.77C469.531 303.027 471.009 321.909 483.491 331.945C495.974 341.981 514.733 339.37 525.392 326.113Z" fill="#FF8369"/>
<path d="M525.158 325.926C535.748 312.755 534.318 294.027 521.965 284.095C509.612 274.163 491.014 276.788 480.424 289.959C469.835 303.13 471.264 321.858 483.617 331.79C495.97 341.722 514.569 339.097 525.158 325.926Z" fill="#FF8269"/>
<path d="M525.002 325.8C535.488 312.758 534.044 294.19 521.777 284.328C509.51 274.465 491.066 277.042 480.58 290.083C470.094 303.125 471.538 321.693 483.805 331.555C496.072 341.418 514.516 338.841 525.002 325.8Z" fill="#FF8168"/>
<path d="M524.846 325.676C535.263 312.72 533.833 294.278 521.652 284.485C509.471 274.691 491.152 277.254 480.736 290.21C470.319 303.165 471.749 321.607 483.93 331.401C496.111 341.194 514.43 338.631 524.846 325.676Z" fill="#FF8067"/>
<path d="M524.69 325.549C535.003 312.723 533.558 294.442 521.464 284.718C509.369 274.993 491.204 277.508 480.892 290.334C470.579 303.161 472.023 321.442 484.118 331.166C496.213 340.891 514.378 338.376 524.69 325.549Z" fill="#FF7F67"/>
<path d="M524.457 325.361C534.7 312.62 533.304 294.493 521.339 284.873C509.373 275.252 491.369 277.781 481.126 290.521C470.882 303.262 472.278 321.389 484.244 331.009C496.209 340.63 514.213 338.101 524.457 325.361Z" fill="#FF7E66"/>
<path d="M524.301 325.237C534.475 312.582 533.093 294.581 521.213 285.03C509.334 275.478 491.456 277.994 481.282 290.648C471.107 303.302 472.49 321.303 484.369 330.855C496.249 340.406 514.127 337.891 524.301 325.237Z" fill="#FF7D66"/>
<path d="M524.145 325.11C534.215 312.585 532.819 294.745 521.025 285.263C509.232 275.78 491.508 278.247 481.437 290.772C471.367 303.298 472.764 321.138 484.557 330.62C496.35 340.102 514.075 337.635 524.145 325.11Z" fill="#FF7C65"/>
<path d="M523.989 324.986C533.99 312.547 532.607 294.833 520.9 285.42C509.193 276.007 491.594 278.46 481.593 290.899C471.592 303.338 472.975 321.053 484.682 330.466C496.39 339.878 513.988 337.425 523.989 324.986Z" fill="#FF7B65"/>
<path d="M523.756 324.797C533.688 312.444 532.353 294.884 520.775 285.575C509.197 276.266 491.759 278.733 481.827 291.086C471.895 303.439 473.23 321 484.808 330.309C496.386 339.618 513.824 337.15 523.756 324.797Z" fill="#FF7A64"/>
<path d="M523.6 324.671C533.428 312.447 532.079 295.048 520.587 285.808C509.095 276.568 491.811 278.987 481.983 291.211C472.155 303.434 473.504 320.834 484.996 330.074C496.488 339.314 513.771 336.895 523.6 324.671Z" fill="#FF7964"/>
<path d="M523.444 324.547C533.203 312.409 531.868 295.135 520.462 285.965C509.056 276.794 491.898 279.199 482.139 291.337C472.38 303.475 473.715 320.749 485.121 329.919C496.527 339.09 513.685 336.685 523.444 324.547Z" fill="#FF7863"/>
<path d="M523.288 324.421C532.943 312.412 531.594 295.299 520.274 286.198C508.954 277.096 491.95 279.453 482.295 291.462C472.64 303.47 473.989 320.583 485.309 329.685C496.629 338.786 513.633 336.43 523.288 324.421Z" fill="#FF7762"/>
<path d="M523.054 324.234C532.64 312.311 531.339 295.352 520.149 286.355C508.958 277.357 492.115 279.728 482.529 291.651C472.943 303.573 474.244 320.532 485.435 329.53C496.625 338.528 513.468 336.157 523.054 324.234Z" fill="#FF7762"/>
<path d="M522.899 324.108C532.415 312.272 531.128 295.438 520.023 286.51C508.918 277.581 492.201 279.939 482.685 291.775C473.168 303.612 474.455 320.445 485.56 329.373C496.665 338.302 513.382 335.944 522.899 324.108Z" fill="#FF7661"/>
<path d="M522.743 323.984C532.156 312.276 530.854 295.604 519.835 286.745C508.817 277.885 492.253 280.194 482.84 291.902C473.428 303.609 474.729 320.281 485.748 329.141C496.767 338 513.33 335.691 522.743 323.984Z" fill="#FF7561"/>
<path d="M522.587 323.858C531.931 312.236 530.642 295.69 519.71 286.9C508.777 278.11 492.34 280.405 482.996 292.026C473.653 303.647 474.941 320.194 485.873 328.984C496.806 337.774 513.243 335.479 522.587 323.858Z" fill="#FF7460"/>
<path d="M522.353 323.669C531.593 312.177 530.325 295.819 519.522 287.133C508.719 278.446 492.47 280.721 483.23 292.213C473.99 303.705 475.258 320.063 486.061 328.749C496.865 337.435 513.113 335.161 522.353 323.669Z" fill="#FF7360"/>
<path d="M522.197 323.545C531.368 312.139 530.114 295.907 519.397 287.29C508.679 278.673 492.557 280.934 483.386 292.34C474.216 303.746 475.469 319.978 486.187 328.595C496.904 337.212 513.027 334.951 522.197 323.545Z" fill="#FF725F"/>
<path d="M522.041 323.419C531.143 312.099 529.903 295.993 519.272 287.445C508.64 278.897 492.644 281.144 483.542 292.464C474.441 303.784 475.681 319.89 486.312 328.438C496.943 336.986 512.94 334.739 522.041 323.419Z" fill="#FF715F"/>
<path d="M521.886 323.294C530.883 312.103 529.629 296.158 519.083 287.68C508.538 279.201 492.696 281.4 483.698 292.591C474.7 303.782 475.955 319.727 486.5 328.205C497.045 336.684 512.888 334.485 521.886 323.294Z" fill="#FF705E"/>
<path d="M521.652 323.105C530.58 312.001 529.374 296.21 518.958 287.835C508.542 279.46 492.86 281.673 483.932 292.778C475.004 303.883 476.21 319.674 486.626 328.049C497.042 336.423 512.724 334.21 521.652 323.105Z" fill="#FF6F5E"/>
<path d="M521.496 322.979C530.355 311.961 529.163 296.295 518.833 287.99C508.503 279.684 492.947 281.884 484.088 292.902C475.229 303.921 476.421 319.586 486.751 327.892C497.081 336.198 512.637 333.998 521.496 322.979Z" fill="#FF6E5D"/>
<path d="M521.34 322.855C530.096 311.966 528.889 296.461 518.645 288.225C508.401 279.988 492.999 282.139 484.244 293.029C475.488 303.918 476.695 319.423 486.939 327.659C497.183 335.896 512.585 333.745 521.34 322.855Z" fill="#FF6D5C"/>
<path d="M521.184 322.729C529.871 311.926 528.678 296.547 518.52 288.38C508.362 280.213 493.086 282.35 484.4 293.153C475.713 303.957 476.906 319.336 487.064 327.503C497.222 335.67 512.498 333.533 521.184 322.729Z" fill="#FF6C5C"/>
<path d="M521.028 322.605C529.611 311.931 528.403 296.713 518.332 288.615C508.26 280.517 493.138 282.606 484.555 293.28C475.973 303.954 477.18 319.172 487.252 327.27C497.324 335.368 512.446 333.279 521.028 322.605Z" fill="#FF6B5B"/>
<path d="M520.795 322.416C529.308 311.828 528.149 296.764 518.207 288.77C508.264 280.776 493.303 282.879 484.789 293.467C476.276 304.055 477.435 319.119 487.378 327.113C497.32 335.107 512.282 333.004 520.795 322.416Z" fill="#FF6A5B"/>
<path d="M520.639 322.292C529.083 311.79 527.938 296.852 518.081 288.927C508.225 281.002 493.389 283.091 484.945 293.594C476.501 304.096 477.647 319.034 487.503 326.959C497.36 334.883 512.195 332.794 520.639 322.292Z" fill="#FF695A"/>
<path d="M520.483 322.166C528.823 311.793 527.664 297.015 517.893 289.16C508.123 281.304 493.441 283.345 485.101 293.718C476.761 304.091 477.921 318.868 487.691 326.724C497.461 334.58 512.143 332.539 520.483 322.166Z" fill="#FF685A"/>
<path d="M520.327 322.04C528.598 311.753 527.452 297.101 517.768 289.315C508.084 281.529 493.528 283.556 485.257 293.843C476.986 304.13 478.132 318.781 487.816 326.567C497.501 334.354 512.056 332.327 520.327 322.04Z" fill="#FF6759"/>
<path d="M520.094 321.853C528.261 311.695 527.135 297.232 517.58 289.55C508.025 281.867 493.658 283.874 485.491 294.031C477.324 304.189 478.449 318.652 488.004 326.334C497.56 334.017 511.926 332.011 520.094 321.853Z" fill="#FF6659"/>
<path d="M519.938 321.727C528.036 311.655 526.924 297.318 517.455 289.705C507.986 282.091 493.745 284.084 485.647 294.156C477.549 304.228 478.661 318.564 488.13 326.178C497.599 333.791 511.84 331.798 519.938 321.727Z" fill="#FF6558"/>
<path d="M519.782 321.603C527.811 311.617 526.713 297.406 517.33 289.862C507.947 282.318 493.832 284.297 485.803 294.283C477.774 304.268 478.872 318.479 488.255 326.023C497.638 333.567 511.753 331.588 519.782 321.603Z" fill="#FF6457"/>
<path d="M519.626 321.476C527.551 311.62 526.439 297.57 517.142 290.095C507.845 282.62 493.883 284.551 485.959 294.407C478.034 304.264 479.146 318.314 488.443 325.789C497.74 333.264 511.701 331.333 519.626 321.476Z" fill="#FF6357"/>
<path d="M519.392 321.289C527.248 311.519 526.184 297.623 517.016 290.252C507.849 282.881 494.048 284.826 486.193 294.596C478.337 304.367 479.401 318.263 488.569 325.634C497.737 333.005 511.537 331.06 519.392 321.289Z" fill="#FF6256"/>
<path d="M519.236 321.163C526.988 311.522 525.91 297.787 516.828 290.485C507.747 283.183 494.1 285.079 486.348 294.721C478.597 304.362 479.675 318.097 488.757 325.399C497.838 332.701 511.485 330.805 519.236 321.163Z" fill="#FF6156"/>
<path d="M519.081 321.037C526.763 311.482 525.699 297.873 516.703 290.64C507.707 283.407 494.187 285.29 486.504 294.845C478.822 304.4 479.886 318.01 488.882 325.242C497.878 332.475 511.398 330.592 519.081 321.037Z" fill="#FF6055"/>
<path d="M518.925 320.913C526.538 311.444 525.487 297.961 516.578 290.797C507.668 283.634 494.274 285.503 486.66 294.972C479.047 304.441 480.098 317.924 489.007 325.088C497.917 332.251 511.311 330.382 518.925 320.913Z" fill="#FF5F55"/>
<path d="M518.691 320.724C526.201 311.384 525.17 298.089 516.39 291.03C507.609 283.97 494.404 285.819 486.894 295.159C479.385 304.499 480.415 317.793 489.195 324.853C497.976 331.913 511.182 330.064 518.691 320.724Z" fill="#FF5E54"/>
<path d="M518.533 320.6C525.974 311.346 524.957 298.177 516.263 291.187C507.568 284.196 494.489 286.031 487.048 295.285C479.608 304.539 480.624 317.708 489.319 324.698C498.013 331.689 511.093 329.854 518.533 320.6Z" fill="#FF5D54"/>
<path d="M518.378 320.474C525.749 311.306 524.746 298.263 516.137 291.342C507.529 284.421 494.575 286.242 487.204 295.41C479.833 304.578 480.836 317.621 489.444 324.542C498.053 331.463 511.006 329.642 518.378 320.474Z" fill="#FF5C53"/>
<path d="M518.224 320.348C525.491 311.309 524.474 298.427 515.951 291.575C507.429 284.723 494.629 286.496 487.362 295.534C480.094 304.573 481.112 317.455 489.634 324.307C498.156 331.159 510.956 329.387 518.224 320.348Z" fill="#FF5B53"/>
<path d="M517.988 320.161C525.186 311.208 524.217 298.48 515.824 291.732C507.431 284.984 494.792 286.771 487.594 295.723C480.396 304.676 481.365 317.404 489.758 324.152C498.151 330.901 510.79 329.114 517.988 320.161Z" fill="#FF5A52"/>
<path d="M517.832 320.035C524.926 311.211 523.943 298.644 515.636 291.965C507.329 285.286 494.844 287.024 487.75 295.848C480.655 304.671 481.638 317.239 489.946 323.918C498.253 330.597 510.738 328.858 517.832 320.035Z" fill="#FF5951"/>
<path d="M517.676 319.911C524.701 311.173 523.732 298.732 515.511 292.122C507.29 285.512 494.931 287.237 487.906 295.974C480.881 304.712 481.85 317.153 490.071 323.763C498.292 330.373 510.651 328.648 517.676 319.911Z" fill="#FF5851"/>
<path d="M517.52 319.785C524.476 311.133 523.521 298.818 515.386 292.277C507.251 285.736 495.017 287.448 488.062 296.099C481.106 304.75 482.061 317.066 490.196 323.606C498.331 330.147 510.565 328.436 517.52 319.785Z" fill="#FF5750"/>
<path d="M517.287 319.598C524.139 311.075 523.204 298.949 515.198 292.512C507.192 286.075 495.147 287.766 488.295 296.288C481.443 304.81 482.379 316.937 490.384 323.374C498.39 329.81 510.435 328.12 517.287 319.598Z" fill="#FF5650"/>
<path d="M517.131 319.472C523.914 311.035 522.992 299.035 515.073 292.667C507.153 286.299 495.234 287.976 488.451 296.412C481.668 304.849 482.59 316.849 490.51 323.217C498.429 329.585 510.348 327.908 517.131 319.472Z" fill="#FF554F"/>
<path d="M516.975 319.345C523.654 311.038 522.718 299.198 514.885 292.9C507.051 286.602 495.286 288.23 488.607 296.537C481.928 304.844 482.864 316.684 490.698 322.982C498.531 329.281 510.296 327.652 516.975 319.345Z" fill="#FF544F"/>
<path d="M516.819 319.221C523.429 311 522.507 299.286 514.759 293.057C507.012 286.828 495.373 288.443 488.763 296.663C482.153 304.884 483.076 316.599 490.823 322.828C498.571 329.057 510.209 327.442 516.819 319.221Z" fill="#FF534E"/>
<path d="M516.586 319.032C523.126 310.898 522.253 299.337 514.634 293.212C507.016 287.087 495.538 288.716 488.997 296.851C482.457 304.985 483.33 316.546 490.949 322.671C498.567 328.796 510.045 327.167 516.586 319.032Z" fill="#FF524E"/>
<path d="M516.43 318.908C522.866 310.902 521.978 299.503 514.446 293.447C506.914 287.391 495.59 288.971 489.153 296.977C482.716 304.983 483.604 316.382 491.136 322.438C498.669 328.494 509.993 326.914 516.43 318.908Z" fill="#FF514D"/>
</g>
<path d="M573.599 275.998C563.799 271.998 551.399 280.398 545.899 294.798C540.399 309.198 543.799 324.198 553.499 328.198C563.299 332.198 575.699 323.798 581.199 309.398C586.699 294.998 583.299 279.998 573.599 275.998Z" fill="#FF9E78"/>
<path d="M572.8 310.598C562.9 316.298 552.7 313.798 545.6 307.398C545.5 311.198 545 315.998 544 321.498H544.2L542 358.498C546.5 349.398 549.1 338.598 550.5 326.498C551.4 327.198 552.3 327.698 553.4 328.198C563.2 332.198 575.6 323.798 581.1 309.398C582.5 305.698 583.4 301.898 583.6 298.398C581.6 303.298 578.1 307.698 572.9 310.698L572.8 310.598Z" fill="url(#paint11_linear_2394_71806)"/>
<path d="M556 301.799L565 303.499C565.6 289.199 576.5 284.899 576.5 284.899C559.5 277.799 556 301.799 556 301.799Z" fill="url(#paint12_linear_2394_71806)"/>
<path d="M506.3 118.899C479.4 99.2992 443.2 96.1992 443.2 96.1992C441.6 98.4992 440.7 102.199 441.2 104.899C418.6 103.099 400.7 104.699 400.7 104.699C394.5 131.499 401.4 147.999 409.3 157.499C412.2 160.999 416.3 166.799 428.4 172.799C428.4 172.799 441.7 184.699 462.2 186.099C480.6 187.299 506.8 175.099 506.8 175.099C525.2 175.499 548.2 233.699 548.5 279.699C548.5 290.199 558.3 278.499 558.3 278.499C558.3 278.499 559.8 267.099 559.8 250.599C559.8 250.499 578.2 178.899 563.6 150.499" fill="url(#paint13_linear_2394_71806)"/>
<path d="M401.5 144C373.6 151.1 378.6 251.9 378.5 268.4C378.5 269.6 378.3 270.4 378.1 271.7C378.1 272.3 380.2 272.2 380.1 271.7C379.9 270.7 380.2 269.1 380.3 268.5C385.5 238.2 412.8 172.9 428.1 172.8C428.1 172.8 413.9 163.4 401.4 144.1L401.5 144Z" fill="#59352C"/>
<g opacity="0.6">
<path d="M434.027 335.803C451.658 327.356 458.62 305.205 449.575 286.328C440.531 267.451 418.906 258.997 401.274 267.444C383.643 275.892 376.681 298.043 385.726 316.92C394.77 335.796 416.395 344.251 434.027 335.803Z" fill="#FF9E78"/>
<path d="M433.898 335.532C451.43 327.132 458.368 305.141 449.396 286.414C440.423 267.687 418.937 259.314 401.405 267.714C383.873 276.114 376.934 298.105 385.907 316.833C394.879 335.56 416.366 343.932 433.898 335.532Z" fill="#FF9D77"/>
<path d="M433.81 335.352C451.192 327.024 458.048 305.171 449.124 286.544C440.199 267.916 418.872 259.566 401.49 267.895C384.107 276.223 377.251 298.075 386.176 316.703C395.101 335.331 416.427 343.68 433.81 335.352Z" fill="#FF9C77"/>
<path d="M433.681 335.081C450.964 326.8 457.797 305.108 448.944 286.629C440.09 268.151 418.903 259.884 401.62 268.165C384.337 276.445 377.503 298.138 386.357 316.616C395.21 335.095 416.398 343.361 433.681 335.081Z" fill="#FF9B76"/>
<path d="M433.595 334.902C450.778 326.669 457.57 305.096 448.764 286.718C439.959 268.339 418.89 260.114 401.707 268.347C384.524 276.58 377.732 298.153 386.538 316.532C395.343 334.91 416.412 343.135 433.595 334.902Z" fill="#FF9A76"/>
<path d="M433.464 334.631C450.548 326.446 457.316 305.033 448.582 286.803C439.848 268.574 418.919 260.432 401.835 268.617C384.751 276.802 377.983 298.215 386.717 316.445C395.451 334.674 416.38 342.816 433.464 334.631Z" fill="#FF9975"/>
<path d="M433.378 334.451C450.312 326.337 456.999 305.063 448.312 286.933C439.626 268.803 418.856 260.684 401.922 268.797C384.988 276.911 378.301 298.185 386.988 316.315C395.674 334.445 416.444 342.564 433.378 334.451Z" fill="#FF9875"/>
<path d="M433.292 334.27C450.127 326.204 456.771 305.049 448.133 287.019C439.494 268.989 418.844 260.912 402.009 268.978C385.175 277.043 378.53 298.198 387.169 316.228C395.807 334.258 416.458 342.336 433.292 334.27Z" fill="#FF9774"/>
<path d="M433.163 333.999C449.898 325.981 456.52 304.986 447.953 287.105C439.386 269.225 418.875 261.229 402.139 269.248C385.404 277.266 378.783 298.261 387.35 316.141C395.917 334.022 416.428 342.017 433.163 333.999Z" fill="#FF9674"/>
<path d="M433.076 333.819C449.711 325.848 456.291 304.972 447.771 287.191C439.252 269.41 418.86 261.457 402.225 269.428C385.589 277.398 379.01 298.274 387.529 316.055C396.048 333.836 416.44 341.789 433.076 333.819Z" fill="#FF9573"/>
<path d="M432.946 333.548C449.432 325.649 455.949 304.952 447.501 287.321C439.053 269.689 418.841 261.799 402.355 269.698C385.869 277.597 379.352 298.293 387.8 315.925C396.247 333.556 416.46 341.446 432.946 333.548Z" fill="#FF9472"/>
<path d="M432.861 333.369C449.247 325.518 455.721 304.941 447.321 287.409C438.922 269.877 418.828 262.029 402.442 269.88C386.055 277.731 379.581 298.308 387.981 315.84C396.381 333.372 416.474 341.22 432.861 333.369Z" fill="#FF9372"/>
<path d="M432.73 333.098C449.016 325.295 455.468 304.877 447.14 287.495C438.811 270.112 418.857 262.347 402.57 270.15C386.283 277.953 379.832 298.371 388.16 315.753C396.488 333.136 416.443 340.901 432.73 333.098Z" fill="#FF9271"/>
<path d="M432.644 332.918C448.781 325.186 455.15 304.907 446.87 287.624C438.589 270.342 418.794 262.599 402.657 270.331C386.519 278.062 380.15 298.341 388.431 315.624C396.711 332.907 416.506 340.649 432.644 332.918Z" fill="#FF9171"/>
<path d="M432.558 332.737C448.596 325.053 454.923 304.894 446.69 287.711C438.457 270.527 418.782 262.827 402.744 270.511C386.706 278.195 380.379 298.354 388.612 315.537C396.845 332.72 416.52 340.421 432.558 332.737Z" fill="#FF9070"/>
<path d="M432.427 332.466C448.365 324.83 454.67 304.831 446.508 287.797C438.347 270.763 418.81 263.144 402.872 270.781C386.934 278.417 380.63 298.416 388.791 315.45C396.952 332.484 416.489 340.102 432.427 332.466Z" fill="#FF8F70"/>
<path d="M432.341 332.285C448.18 324.697 454.442 304.817 446.329 287.883C438.215 270.948 418.798 263.372 402.96 270.961C387.121 278.549 380.859 298.429 388.972 315.363C397.086 332.298 416.503 339.874 432.341 332.285Z" fill="#FF8E6F"/>
<path d="M432.212 332.015C447.901 324.498 454.1 304.797 446.058 288.012C438.016 271.227 418.779 263.714 403.089 271.231C387.4 278.748 381.201 298.449 389.243 315.234C397.285 332.018 416.523 339.532 432.212 332.015Z" fill="#FF8D6F"/>
<path d="M432.126 331.836C447.716 324.367 453.873 304.786 445.879 288.1C437.885 271.415 418.766 263.944 403.177 271.413C387.587 278.882 381.43 298.464 389.424 315.149C397.418 331.834 416.537 339.305 432.126 331.836Z" fill="#FF8C6E"/>
<path d="M432.039 331.655C447.529 324.234 453.644 304.772 445.697 288.187C437.751 271.601 418.752 264.172 403.262 271.593C387.772 279.015 381.657 298.477 389.603 315.062C397.55 331.648 416.549 339.077 432.039 331.655Z" fill="#FF8B6E"/>
<path d="M431.91 331.384C447.3 324.011 453.392 304.709 445.517 288.272C437.643 271.836 418.782 264.49 403.392 271.863C388.002 279.237 381.909 298.539 389.784 314.975C397.659 331.412 416.519 338.758 431.91 331.384Z" fill="#FF8A6D"/>
<path d="M431.824 331.204C447.065 323.902 453.075 304.739 445.247 288.402C437.42 272.065 418.72 264.742 403.479 272.044C388.238 279.346 382.228 298.509 390.055 314.846C397.882 331.182 416.583 338.506 431.824 331.204Z" fill="#FF896C"/>
<path d="M431.693 330.933C446.834 323.678 452.821 304.675 445.066 288.488C437.31 272.301 418.748 265.059 403.607 272.314C388.466 279.568 382.479 298.572 390.234 314.759C397.99 330.946 416.551 338.187 431.693 330.933Z" fill="#FF886C"/>
<path d="M431.607 330.752C446.649 323.546 452.594 304.662 444.886 288.574C437.178 272.487 418.736 265.287 403.694 272.494C388.653 279.701 382.707 298.585 390.415 314.672C398.123 330.76 416.565 337.959 431.607 330.752Z" fill="#FF876B"/>
<path d="M431.478 330.483C446.42 323.324 452.343 304.6 444.706 288.662C437.07 272.724 418.767 265.607 403.825 272.766C388.882 279.925 382.96 298.649 390.596 314.587C398.233 330.525 416.536 337.642 431.478 330.483Z" fill="#FF866B"/>
<path d="M431.39 330.303C446.183 323.215 452.023 304.63 444.434 288.792C436.846 272.953 418.702 265.859 403.909 272.946C389.117 280.034 383.277 298.619 390.865 314.458C398.454 330.296 416.597 337.39 431.39 330.303Z" fill="#FF856A"/>
<path d="M431.304 330.122C445.997 323.083 451.795 304.617 444.255 288.878C436.714 273.139 418.69 266.087 403.997 273.127C389.304 280.166 383.506 298.632 391.046 314.371C398.587 330.11 416.611 337.162 431.304 330.122Z" fill="#FF846A"/>
<path d="M431.175 329.851C445.769 322.859 451.544 304.553 444.075 288.964C436.606 273.374 418.72 266.405 404.127 273.397C389.533 280.389 383.758 298.694 391.227 314.284C398.697 329.874 416.582 336.843 431.175 329.851Z" fill="#FF8369"/>
<path d="M431.087 329.671C445.531 322.751 451.224 304.583 443.803 289.093C436.381 273.604 418.656 266.657 404.212 273.577C389.768 280.497 384.075 298.664 391.496 314.154C398.918 329.644 416.643 336.591 431.087 329.671Z" fill="#FF8269"/>
<path d="M430.958 329.4C445.303 322.527 450.973 304.52 443.623 289.179C436.273 273.839 418.686 266.974 404.342 273.847C389.998 280.72 384.327 298.727 391.677 314.067C399.027 329.408 416.614 336.272 430.958 329.4Z" fill="#FF8168"/>
<path d="M430.873 329.219C445.118 322.394 450.746 304.506 443.443 289.266C436.141 274.025 418.674 267.202 404.429 274.027C390.184 280.852 384.556 298.74 391.859 313.981C399.161 329.222 416.628 336.044 430.873 329.219Z" fill="#FF8067"/>
<path d="M430.742 328.95C444.887 322.173 450.492 304.445 443.262 289.353C436.031 274.262 418.702 267.522 404.557 274.299C390.412 281.076 384.807 298.804 392.038 313.896C399.268 328.987 416.597 335.727 430.742 328.95Z" fill="#FF7F67"/>
<path d="M430.656 328.77C444.652 322.064 450.174 304.475 442.992 289.483C435.809 274.491 418.64 267.774 404.644 274.479C390.649 281.185 385.126 298.774 392.309 313.766C399.491 328.758 416.66 335.475 430.656 328.77Z" fill="#FF7E66"/>
<path d="M430.57 328.589C444.466 321.931 449.947 304.461 442.812 289.569C435.677 274.677 418.628 268.002 404.731 274.66C390.835 281.318 385.355 298.787 392.49 313.68C399.625 328.572 416.674 335.247 430.57 328.589Z" fill="#FF7D66"/>
<path d="M430.441 328.318C444.238 321.708 449.696 304.398 442.632 289.655C435.569 274.912 418.658 268.319 404.862 274.93C391.065 281.54 385.607 298.85 392.671 313.593C399.734 328.336 416.645 334.928 430.441 328.318Z" fill="#FF7C65"/>
<path d="M430.354 328.138C444.05 321.575 449.466 304.385 442.451 289.741C435.435 275.098 418.644 268.547 404.947 275.11C391.25 281.672 385.834 298.863 392.85 313.506C399.866 328.149 416.657 334.7 430.354 328.138Z" fill="#FF7B65"/>
<path d="M430.224 327.867C443.772 321.376 449.125 304.364 442.18 289.871C435.236 275.377 418.624 268.889 405.077 275.38C391.529 281.871 386.176 298.882 393.121 313.376C400.065 327.87 416.677 334.358 430.224 327.867Z" fill="#FF7A64"/>
<path d="M430.138 327.686C443.586 321.243 448.897 304.351 442.001 289.957C435.104 275.563 418.612 269.117 405.164 275.56C391.716 282.003 386.405 298.895 393.302 313.29C400.198 327.684 416.691 334.129 430.138 327.686Z" fill="#FF7964"/>
<path d="M430.007 327.417C443.356 321.022 448.644 304.289 441.819 290.045C434.994 275.8 418.64 269.437 405.292 275.832C391.944 282.228 386.656 298.96 393.481 313.205C400.306 327.449 416.659 333.812 430.007 327.417Z" fill="#FF7863"/>
<path d="M429.921 327.237C443.12 320.913 448.326 304.32 441.549 290.174C434.772 276.029 418.578 269.689 405.379 276.013C392.18 282.336 386.974 298.93 393.752 313.075C400.529 327.22 416.723 333.561 429.921 327.237Z" fill="#FF7762"/>
<path d="M429.836 327.056C442.935 320.78 448.099 304.306 441.369 290.261C434.64 276.215 418.565 269.917 405.466 276.193C392.367 282.469 387.203 298.943 393.933 312.988C400.662 327.034 416.737 333.332 429.836 327.056Z" fill="#FF7762"/>
<path d="M429.705 326.785C442.704 320.557 447.845 304.243 441.187 290.346C434.53 276.45 418.594 270.234 405.594 276.463C392.595 282.691 387.454 299.005 394.112 312.901C400.77 326.797 416.705 333.013 429.705 326.785Z" fill="#FF7661"/>
<path d="M429.619 326.604C442.519 320.424 447.618 304.229 441.008 290.433C434.398 276.636 418.582 270.462 405.682 276.643C392.782 282.824 387.683 299.018 394.293 312.815C400.903 326.611 416.719 332.785 429.619 326.604Z" fill="#FF7561"/>
<path d="M429.49 326.334C442.24 320.225 447.276 304.209 440.738 290.562C434.199 276.915 418.562 270.804 405.812 276.913C393.061 283.022 388.025 299.038 394.564 312.685C401.102 326.332 416.739 332.443 429.49 326.334Z" fill="#FF7460"/>
<path d="M429.404 326.153C442.055 320.092 447.049 304.196 440.558 290.648C434.067 277.101 418.55 271.032 405.899 277.093C393.248 283.155 388.254 299.051 394.745 312.598C401.236 326.146 416.753 332.214 429.404 326.153Z" fill="#FF7360"/>
<path d="M429.273 325.884C441.825 319.87 446.796 304.134 440.376 290.736C433.957 277.338 418.578 271.352 406.027 277.365C393.476 283.379 388.505 299.115 394.924 312.513C401.343 325.911 416.722 331.898 429.273 325.884Z" fill="#FF725F"/>
<path d="M429.188 325.703C441.639 319.738 446.568 304.121 440.197 290.822C433.825 277.524 418.566 271.58 406.114 277.546C393.662 283.511 388.734 299.128 395.105 312.427C401.477 325.725 416.736 331.669 429.188 325.703Z" fill="#FF715F"/>
<path d="M429.102 325.523C441.404 319.629 446.25 304.151 439.927 290.952C433.603 277.753 418.503 271.832 406.201 277.726C393.899 283.62 389.052 299.098 395.376 312.297C401.7 325.496 416.799 331.417 429.102 325.523Z" fill="#FF705E"/>
<path d="M428.971 325.252C441.173 319.405 445.997 304.087 439.745 291.038C433.493 277.988 418.532 272.149 406.329 277.996C394.127 283.842 389.303 299.161 395.555 312.21C401.807 325.259 416.768 331.098 428.971 325.252Z" fill="#FF6F5E"/>
<path d="M428.885 325.071C440.988 319.273 445.77 304.074 439.565 291.124C433.361 278.174 418.52 272.377 406.416 278.176C394.313 283.975 389.532 299.174 395.736 312.123C401.941 325.073 416.782 330.87 428.885 325.071Z" fill="#FF6E5D"/>
<path d="M428.756 324.8C440.759 319.049 445.518 304.01 439.385 291.21C433.253 278.41 418.55 272.695 406.547 278.446C394.543 284.197 389.784 299.236 395.917 312.036C402.05 324.837 416.752 330.551 428.756 324.8Z" fill="#FF6D5C"/>
<path d="M428.668 324.62C440.522 318.94 445.199 304.04 439.113 291.34C433.028 278.639 418.486 272.947 406.632 278.627C394.778 284.306 390.101 299.206 396.186 311.907C402.271 324.608 416.814 330.299 428.668 324.62Z" fill="#FF6C5C"/>
<path d="M428.539 324.351C440.293 318.719 444.947 303.979 438.934 291.427C432.92 278.876 418.516 273.267 406.762 278.898C395.007 284.53 390.353 299.271 396.367 311.822C402.381 324.373 416.784 329.983 428.539 324.351Z" fill="#FF6B5B"/>
<path d="M428.453 324.17C440.108 318.586 444.72 303.965 438.754 291.514C432.788 279.062 418.504 273.495 406.849 279.079C395.194 284.663 390.582 299.284 396.548 311.735C402.514 324.187 416.798 329.754 428.453 324.17Z" fill="#FF6A5B"/>
<path d="M428.365 323.99C439.871 318.477 444.4 303.995 438.482 291.643C432.564 279.291 418.439 273.747 406.934 279.259C395.429 284.772 390.899 299.254 396.817 311.606C402.735 323.958 416.86 329.502 428.365 323.99Z" fill="#FF695A"/>
<path d="M428.236 323.719C439.642 318.254 444.149 303.932 438.302 291.729C432.456 279.527 418.47 274.064 407.064 279.529C395.658 284.994 391.152 299.316 396.998 311.519C402.845 323.721 416.831 329.184 428.236 323.719Z" fill="#FF685A"/>
<path d="M428.151 323.538C439.457 318.121 443.921 303.918 438.123 291.815C432.324 279.712 418.457 274.292 407.151 279.709C395.845 285.126 391.381 299.329 397.179 311.432C402.978 323.535 416.845 328.955 428.151 323.538Z" fill="#FF6759"/>
<path d="M428.02 323.267C439.226 317.898 443.668 303.855 437.941 291.901C432.214 279.948 418.486 274.61 407.28 279.979C396.073 285.349 391.631 299.392 397.358 311.345C403.086 323.299 416.813 328.636 428.02 323.267Z" fill="#FF6659"/>
<path d="M427.934 323.087C438.991 317.789 443.35 303.885 437.671 292.031C431.991 280.177 418.424 274.862 407.366 280.16C396.309 285.457 391.95 299.362 397.629 311.216C403.309 323.07 416.877 328.385 427.934 323.087Z" fill="#FF6558"/>
<path d="M427.805 322.818C438.762 317.568 443.099 303.823 437.491 292.119C431.883 280.414 418.454 275.182 407.497 280.432C396.539 285.682 392.202 299.426 397.81 311.131C403.418 322.835 416.847 328.068 427.805 322.818Z" fill="#FF6457"/>
<path d="M427.719 322.637C438.577 317.435 442.872 303.81 437.311 292.205C431.751 280.6 418.442 275.41 407.584 280.612C396.726 285.814 392.431 299.439 397.991 311.044C403.552 322.649 416.861 327.839 427.719 322.637Z" fill="#FF6357"/>
<path d="M427.631 322.457C438.39 317.302 442.642 303.797 437.13 292.291C431.617 280.786 418.427 275.637 407.669 280.792C396.911 285.946 392.658 299.452 398.171 310.957C403.683 322.463 416.873 327.611 427.631 322.457Z" fill="#FF6256"/>
<path d="M427.502 322.186C438.111 317.103 442.3 303.777 436.859 292.421C431.419 281.065 418.408 275.979 407.799 281.062C397.19 286.145 393.001 299.471 398.441 310.827C403.882 322.183 416.893 327.269 427.502 322.186Z" fill="#FF6156"/>
<path d="M427.416 322.005C437.926 316.97 442.073 303.763 436.68 292.507C431.287 281.25 418.395 276.207 407.886 281.242C397.377 286.278 393.229 299.484 398.623 310.741C404.016 321.997 416.907 327.04 427.416 322.005Z" fill="#FF6055"/>
<path d="M427.285 321.734C437.695 316.747 441.82 303.7 436.498 292.593C431.177 281.486 418.424 276.525 408.014 281.512C397.605 286.5 393.48 299.547 398.802 310.654C404.123 321.761 416.876 326.722 427.285 321.734Z" fill="#FF5F55"/>
<path d="M427.199 321.554C437.46 316.638 441.502 303.73 436.228 292.722C430.954 281.715 418.361 276.777 408.101 281.693C397.841 286.609 393.799 299.517 399.073 310.524C404.346 321.532 416.939 326.47 427.199 321.554Z" fill="#FF5E54"/>
<path d="M427.07 321.285C437.231 316.417 441.25 303.668 436.048 292.81C430.846 281.952 418.392 277.097 408.231 281.965C398.071 286.833 394.051 299.581 399.253 310.439C404.456 321.297 416.91 326.153 427.07 321.285Z" fill="#FF5D54"/>
<path d="M426.983 321.104C437.044 316.284 441.021 303.655 435.867 292.896C430.712 282.138 418.378 277.324 408.317 282.145C398.256 286.965 394.278 299.594 399.433 310.353C404.587 321.111 416.922 325.924 426.983 321.104Z" fill="#FF5C53"/>
<path d="M426.897 320.924C436.858 316.151 440.794 303.641 435.687 292.983C430.58 282.324 418.365 277.552 408.404 282.325C398.442 287.098 394.507 299.607 399.614 310.266C404.721 320.925 416.936 325.696 426.897 320.924Z" fill="#FF5B53"/>
<path d="M426.768 320.653C436.58 315.952 440.452 303.621 435.417 293.112C430.382 282.603 418.346 277.894 408.534 282.595C398.722 287.296 394.849 299.627 399.885 310.136C404.92 320.645 416.956 325.354 426.768 320.653Z" fill="#FF5A52"/>
<path d="M426.682 320.472C436.394 315.819 440.225 303.608 435.237 293.198C430.25 282.788 418.333 278.122 408.621 282.775C398.909 287.429 395.078 299.64 400.066 310.049C405.053 320.459 416.97 325.125 426.682 320.472Z" fill="#FF5951"/>
<path d="M426.551 320.201C436.164 315.595 439.971 303.544 435.055 293.284C430.14 283.024 418.362 278.44 408.749 283.046C399.136 287.651 395.329 299.702 400.245 309.963C405.161 320.223 416.938 324.807 426.551 320.201Z" fill="#FF5851"/>
<path d="M426.465 319.921C435.979 315.363 439.744 303.431 434.876 293.271C430.008 283.11 418.349 278.568 408.836 283.126C399.323 287.684 395.558 299.616 400.426 309.776C405.294 319.937 416.952 324.479 426.465 319.921Z" fill="#FF5750"/>
<path d="M426.336 319.65C435.7 315.164 439.402 303.411 434.606 293.4C429.809 283.389 418.33 278.91 408.966 283.396C399.603 287.883 395.9 299.635 400.697 309.646C405.493 319.658 416.972 324.136 426.336 319.65Z" fill="#FF5650"/>
<path d="M426.248 319.469C435.513 315.031 439.173 303.398 434.424 293.486C429.675 283.575 418.316 279.138 409.051 283.576C399.787 288.015 396.127 299.648 400.876 309.56C405.625 319.471 416.984 323.908 426.248 319.469Z" fill="#FF554F"/>
<path d="M426.163 319.291C435.327 314.9 438.946 303.386 434.244 293.574C429.543 283.762 418.303 279.368 409.139 283.759C399.974 288.149 396.356 299.663 401.057 309.475C405.758 319.287 416.998 323.682 426.163 319.291Z" fill="#FF544F"/>
<path d="M426.034 319.02C435.099 314.677 438.694 303.323 434.065 293.66C429.435 283.998 418.334 279.685 409.269 284.029C400.204 288.372 396.608 299.726 401.238 309.388C405.867 319.051 416.969 323.363 426.034 319.02Z" fill="#FF534E"/>
<path d="M425.946 318.839C434.861 314.568 438.374 303.353 433.793 293.79C429.211 284.227 418.269 279.937 409.354 284.209C400.438 288.481 396.925 299.696 401.507 309.259C406.089 318.821 417.03 323.111 425.946 318.839Z" fill="#FF524E"/>
<path d="M425.817 318.568C434.633 314.344 438.123 303.289 433.613 293.876C429.103 284.462 418.3 280.255 409.484 284.479C400.668 288.703 397.178 299.758 401.688 309.172C406.198 318.585 417.001 322.792 425.817 318.568Z" fill="#FF514D"/>
</g>
<path opacity="0.1" d="M558.099 147.999C555.499 143.999 552.499 141.599 549.299 140.299C546.299 140.699 543.199 141.299 539.999 141.899C530.499 143.599 520.499 144.599 510.899 142.899C499.799 140.899 490.099 135.399 480.399 129.899C475.499 127.099 470.599 124.299 465.499 121.899C454.599 116.599 441.799 111.399 429.499 111.199C423.399 111.199 417.399 112.699 411.699 114.699C406.399 116.499 402.099 119.499 398.799 122.499C398.099 123.099 396.599 124.099 395.199 124.999C395.199 129.499 395.499 133.599 396.099 137.299C396.699 136.999 397.199 136.699 397.399 136.599C399.499 135.199 402.099 133.799 405.099 132.699C408.099 131.599 411.499 130.699 415.199 130.599C429.799 130.199 442.999 136.599 455.899 142.599C461.199 145.099 466.499 147.899 472.199 150.599C477.899 153.299 483.799 155.899 489.999 158.099C500.399 161.799 513.299 163.399 524.299 160.899C525.799 160.599 527.199 160.299 528.699 159.899C534.399 158.399 539.299 156.299 543.599 154.399C547.899 152.399 551.599 150.599 554.799 149.299C555.899 148.799 556.999 148.399 557.999 148.099L558.099 147.999Z" fill="#FFBC80"/>
<path d="M485 279.299C488.3 277.799 491.2 275.799 494.8 274.799C499.1 273.599 503.6 272.899 508.1 272.699C514.5 272.399 524 272.499 528.4 277.999C528.7 276.599 531.6 263.999 530.5 254.799C529.4 245.099 485.2 223.199 485.2 223.199C485.2 223.199 465.8 259.099 483.1 281.099C483.4 280.399 484 279.699 484.9 279.299H485Z" fill="url(#paint14_linear_2394_71806)"/>
<path d="M395.699 273.9C402.999 270.8 409.899 269.7 417.799 270.9C421.499 271.4 425.199 272.3 428.499 274.1C431.499 275.7 432.299 278.3 434.799 280.3C435.399 280.8 435.799 281.5 435.899 282.2C455.899 261.4 448.299 223 448.299 223C448.299 223 402.399 243.6 399.399 252.2C396.599 260.1 394.599 273 394.299 275.1C394.599 274.7 395.099 274.3 395.799 274L395.699 273.9Z" fill="url(#paint15_linear_2394_71806)"/>
<path d="M421.499 330.898C421.499 330.898 416.499 350.598 458.299 351.198C498.799 351.698 494.099 332.198 494.099 332.198L421.499 330.998V330.898Z" fill="#FB755C"/>
<path d="M417.999 265.998C395.799 263.098 394.199 275.298 394.199 275.298C394.199 275.298 402.299 272.898 414.199 274.598C431.299 277.098 435.799 282.198 435.799 282.198C435.799 282.198 440.999 268.998 417.899 265.998H417.999Z" fill="#603F37"/>
<path d="M399.299 252.2C419.699 240 437.499 245.8 446.699 237.8C450.199 234.8 448.199 223 448.199 223C399.799 227.2 399.299 252.2 399.299 252.2Z" fill="url(#paint16_linear_2394_71806)"/>
<path d="M485.199 223.299C485.199 223.299 478.999 234.799 481.299 238.299C488.599 249.299 515.499 244.499 530.599 257.599C530.599 257.599 534.499 235.799 485.099 223.299H485.199Z" fill="url(#paint17_linear_2394_71806)"/>
<path d="M505.899 267.999C483.399 269.199 483.299 281.399 483.299 281.399C483.299 281.399 488.499 278.899 507.399 277.999C525.899 277.099 528.299 278.199 528.299 278.199C528.299 278.199 529.199 266.799 505.899 267.999Z" fill="#603F37"/>
<path opacity="0.1" d="M467.7 366.799C461.2 367.899 456.2 367.599 452.9 367.099C449.7 366.599 447.1 369.199 447.7 372.399C448.4 375.799 451.4 379.099 461.1 378.699C470.5 378.299 473.2 375.099 473.5 371.999C473.8 368.899 470.8 366.199 467.7 366.799Z" fill="black"/>
<path d="M449.198 289.3C449.198 289.3 432.798 285.8 428.498 300.1C422.998 318.2 459.098 329.9 469.498 311.1C479.898 292.3 454.698 256.1 454.698 256.1C454.698 256.1 460.498 274.7 449.198 289.3Z" fill="#FF9E78"/>
<path d="M428 305.199C429.8 320.199 460.1 328.099 469.5 311.099C470.1 310.099 470.5 308.999 470.9 307.799C456.5 310.499 441.6 309.299 428 305.199Z" fill="url(#paint18_linear_2394_71806)"/>
<path opacity="0.2" d="M459.998 275.3L455.898 275.1C455.898 275.1 453.398 288.2 449.398 290C448.798 290 448.098 289.9 447.498 289.8C440.398 289.4 434.398 291.5 434.298 294.6C434.098 297.7 439.798 300.4 446.898 300.8C453.598 301.2 459.498 300.2 460.398 296.6C460.398 296.6 463.898 282.9 460.098 275.4L459.998 275.3Z" fill="white"/>
<path opacity="0.1" d="M513.7 177.598C521.5 173.998 528.8 169.598 535.1 163.698C537.3 161.698 534.1 158.498 531.9 160.498C524.5 166.998 515.8 171.098 507 174.998C509.2 174.998 511.5 175.998 513.8 177.698L513.7 177.598Z" fill="black"/>
<path opacity="0.6" d="M421.699 280.6C416.499 280.6 411.399 280.2 406.399 278.9C403.699 278.2 402.699 282.1 405.299 283C410.799 285 416.499 285.7 422.299 284.8C424.699 284.4 424.099 280.5 421.699 280.5V280.6Z" fill="#ED6954"/>
<path opacity="0.6" d="M514.299 283.1C509.099 283.5 503.899 283.7 498.699 283.6C496.399 283.6 495.799 287.3 498.099 287.7C503.599 288.7 509.399 288.7 514.899 287.5C517.299 287 516.799 283 514.299 283.2V283.1Z" fill="#ED6954"/>
<path d="M684.798 629.3C684.798 628.6 684.798 627.9 684.698 627.2C684.298 624.2 670.498 604.9 666.998 599.9C666.998 599.9 649.098 592.9 642.198 593.6C635.298 594.3 606.598 618.8 606.598 618.8L674.898 642.3C674.898 642.3 681.598 633.9 684.898 629.4L684.798 629.3Z" fill="url(#paint19_linear_2394_71806)"/>
<path d="M248.299 629.2C249.199 638.8 251.799 666.2 253.199 667.5C254.899 669.1 330.299 652 330.299 652L328.699 608.2C328.699 608.2 309.199 600.2 302.299 599.9C295.399 599.6 255.699 612.9 255.699 612.9C254.399 615.7 251.199 622.599 248.399 629.099L248.299 629.2Z" fill="url(#paint20_linear_2394_71806)"/>
<path d="M677.497 623.799C677.497 623.799 664.197 604.799 648.497 600.799C632.797 596.899 597.797 582.399 589.397 577.799C584.397 575.099 569.097 560.999 566.297 554.599C565.497 552.899 529.397 603.199 531.297 604.399C533.097 605.599 588.697 676.899 610.197 681.499C631.697 685.999 662.197 677.899 668.497 672.099C674.797 666.399 679.097 628.299 677.597 623.699L677.497 623.799Z" fill="#FF9E78"/>
<path d="M441.198 605.199C441.198 605.199 357.498 696.199 310.198 704.699C262.898 713.199 253.198 683.299 249.898 671.099C246.698 658.999 252.998 620.199 261.498 616.899C269.998 613.699 316.998 610.799 340.898 601.099C364.798 591.399 403.598 554.199 409.298 556.599C414.998 558.999 441.198 605.099 441.198 605.099V605.199Z" fill="#FF9E78"/>
<path d="M552.698 537.399C552.698 537.399 559.498 530.399 559.098 524.699C558.698 518.999 555.298 515.899 553.798 515.799C553.798 515.799 561.398 512.399 563.498 507.199C565.698 501.999 560.598 494.199 553.698 494.699C553.698 494.699 559.698 493.299 561.198 488.899C562.598 484.499 558.198 475.299 545.198 479.899C545.198 479.899 549.298 471.999 539.898 469.499C530.498 466.999 471.898 496.999 471.898 496.999L466.398 492.399C466.398 492.399 472.998 484.099 473.798 476.099C474.598 468.099 469.998 460.399 461.498 466.599C453.098 472.799 440.598 482.599 438.598 484.599C436.598 486.599 403.098 556.299 400.598 560.699C398.998 563.499 440.298 606.399 440.298 606.399C440.298 606.399 478.098 599.199 492.398 589.099C506.798 578.999 550.298 540.499 552.698 537.499V537.399Z" fill="#FF9E78"/>
<path d="M553.598 494.599C553.598 494.599 559.598 493.199 561.098 488.799C562.498 484.399 558.098 475.199 545.098 479.799C545.098 479.799 549.198 471.899 539.798 469.399C530.398 466.899 471.798 496.899 471.798 496.899L466.298 492.299C466.298 492.299 472.898 483.999 473.698 475.999C474.498 467.999 469.898 460.299 461.398 466.499C452.998 472.699 440.498 482.499 438.498 484.499C436.498 486.499 402.998 556.199 400.498 560.599C386.298 570.099 359.198 593.699 340.898 601.199C316.998 610.899 269.998 613.799 261.498 616.999C252.998 620.199 246.698 658.999 249.898 671.199C253.098 683.299 262.798 713.299 310.198 704.799C354.498 696.799 430.798 616.499 440.298 606.399C440.298 606.399 478.098 599.199 492.398 589.099C506.798 578.999 550.298 540.499 552.698 537.499C552.698 537.499 559.498 530.499 559.098 524.799C558.698 519.099 555.298 515.999 553.798 515.899C553.798 515.899 561.398 512.499 563.498 507.299C565.698 502.099 560.598 494.299 553.698 494.799L553.598 494.599ZM407.298 605.199C396.098 616.999 325.598 670.699 298.198 676.999C270.798 683.299 252.298 665.499 253.198 650.699C254.098 635.899 269.398 617.199 297.398 615.199C336.398 612.399 367.298 590.099 381.698 578.299C393.498 568.599 418.398 593.499 407.298 605.299V605.199ZM465.898 486.099C464.598 486.399 446.898 479.499 446.898 479.499C451.698 477.799 462.498 463.799 469.198 466.399C474.798 468.499 467.198 485.899 465.898 486.199V486.099ZM511.998 479.099C511.998 479.099 531.898 469.599 538.298 470.399C544.598 471.299 544.398 475.999 543.698 478.199C542.998 480.399 528.298 486.999 527.498 487.199C526.698 487.499 511.998 478.999 511.998 478.999V479.099ZM542.298 497.899C541.898 497.699 530.798 489.099 530.398 488.899C530.398 488.899 544.198 480.299 551.198 479.999C558.198 479.699 561.698 487.299 558.098 490.599C554.598 493.799 542.598 498.199 542.298 497.899ZM562.098 505.499C561.698 511.199 551.798 514.199 551.798 514.199C550.798 509.799 544.098 499.099 543.998 498.899C543.998 498.899 547.798 496.499 552.598 495.999C557.398 495.499 562.498 499.699 562.098 505.399V505.499Z" fill="url(#paint21_linear_2394_71806)"/>
<path d="M565.598 553.7C565.598 553.7 549.498 508.3 540.898 499.3C532.298 490.3 486.698 468.1 483.598 466.3C480.498 464.5 474.798 469.9 476.798 477.1C478.798 484.4 501.998 501.7 501.998 502.9C501.998 504.1 456.398 482.9 441.198 479.9C425.998 476.8 421.698 484.6 423.898 489.9C423.898 489.9 419.998 487.7 413.898 488.9C407.798 490.1 403.898 498 409.798 503.6C409.798 503.6 398.298 505.1 402.198 516.6C406.098 528.1 449.298 553.7 449.298 553.7C449.298 553.7 417.998 534.6 411.898 533.7C405.798 532.8 398.898 540.3 406.798 550.1C414.698 559.9 454.798 582.6 470.198 591.1C485.598 599.6 532.898 606.7 539.498 612.4C546.098 618.1 572.298 563.8 572.298 563.8C572.298 563.8 568.298 557.3 565.598 553.6V553.7Z" fill="#FF9E78"/>
<path d="M677.498 623.8C677.498 623.8 664.198 604.8 648.498 600.8C632.798 596.9 597.798 582.4 589.398 577.8C585.498 575.7 575.498 566.8 569.798 559.9C568.698 558.2 567.398 556.2 566.298 554.5C566.098 554.5 565.898 554 565.598 553.7C565.598 553.7 549.498 508.3 540.898 499.3C532.298 490.3 486.698 468.1 483.598 466.3C480.498 464.5 474.798 469.9 476.798 477.2C478.798 484.5 501.998 501.8 501.998 503C501.998 504.2 456.398 483 441.198 480C425.998 476.9 421.698 484.7 423.898 490C423.898 490 419.998 487.8 413.898 489C407.798 490.2 403.898 498.2 409.798 503.7C409.798 503.7 398.298 505.2 402.198 516.7C405.498 526.4 412.798 533.3 412.798 533.3C404.198 532.5 398.798 540.5 406.798 550.3C414.798 560.1 454.798 582.8 470.198 591.3C484.198 599 524.498 605.6 536.698 611C551.598 628.9 592.398 677.9 610.098 681.6C631.598 686.1 662.098 678 668.398 672.2C674.698 666.5 678.998 628.4 677.498 623.8ZM665.998 655.8C659.098 671.6 625.698 656.3 601.398 641.6C577.098 627 548.498 614.8 542.198 604.2C542.198 604.2 489.498 592.3 488.198 592.4C484.498 592.7 442.098 570.6 431.698 564C421.298 557.4 405.598 548 404.498 543.9C403.398 539.9 406.798 533 413.698 535.1C420.598 537.2 458.798 561.9 459.298 561.9C459.798 561.9 462.098 558.3 461.298 558.3C461.098 558.3 415.598 530.6 408.798 523.1C401.998 515.6 401.998 506.7 407.998 505.5C413.998 504.4 467.898 542.6 468.598 542.8C469.298 543 471.198 540.8 470.798 539.8C470.398 538.7 413.798 504.3 410.698 502.2C407.598 500.1 407.598 491.6 413.398 490.2C419.198 488.7 483.898 522.8 484.398 522.4C484.898 522 486.398 519.6 486.098 518.9C485.798 518.2 426.698 490.9 425.898 490C425.898 490 423.198 484.6 428.498 481.9C433.798 479.2 445.198 481.7 456.898 486.2C468.598 490.7 499.198 506.2 527.698 510.9L528.798 504.8C528.798 504.8 502.698 499.7 493.798 493C484.898 486.2 478.198 478.8 477.998 473.4C477.898 468 481.798 466.4 490.398 471.1C498.998 475.8 534.498 494 539.798 501.1C541.098 502.8 555.998 536.9 562.098 554.6C565.998 559.7 570.698 566.5 575.198 570.7C597.098 591.1 648.498 600.9 658.998 609.4C669.698 618.2 672.998 640 666.098 655.8H665.998Z" fill="url(#paint22_linear_2394_71806)"/>
<path d="M677.498 623.8C677.498 623.8 664.198 604.8 648.498 600.8C632.798 596.9 597.798 582.4 589.398 577.8C585.498 575.7 575.498 566.8 569.798 559.9C568.698 558.2 567.398 556.2 566.298 554.5C566.098 554.5 565.898 554 565.598 553.7C565.598 553.7 549.498 508.3 540.898 499.3C532.298 490.3 486.698 468.1 483.598 466.3C480.498 464.5 474.798 469.9 476.798 477.2C478.798 484.5 501.998 501.8 501.998 503C501.998 504.2 456.398 483 441.198 480C425.998 476.9 421.698 484.7 423.898 490C423.898 490 419.998 487.8 413.898 489C407.798 490.2 403.898 498.2 409.798 503.7C409.798 503.7 398.298 505.2 402.198 516.7C405.498 526.4 412.798 533.3 412.798 533.3C404.198 532.5 398.798 540.5 406.798 550.3C414.798 560.1 454.798 582.8 470.198 591.3C484.198 599 524.498 605.6 536.698 611C551.598 628.9 592.398 677.9 610.098 681.6C631.598 686.1 662.098 678 668.398 672.2C674.698 666.5 678.998 628.4 677.498 623.8ZM665.998 655.8C659.098 671.6 625.698 656.3 601.398 641.6C577.098 627 548.498 614.8 542.198 604.2C542.198 604.2 489.498 592.3 488.198 592.4C484.498 592.7 442.098 570.6 431.698 564C421.298 557.4 405.598 548 404.498 543.9C403.398 539.9 406.798 533 413.698 535.1C420.598 537.2 458.798 561.9 459.298 561.9C459.798 561.9 462.098 558.3 461.298 558.3C461.098 558.3 415.598 530.6 408.798 523.1C401.998 515.6 401.998 506.7 407.998 505.5C413.998 504.4 467.898 542.6 468.598 542.8C469.298 543 471.198 540.8 470.798 539.8C470.398 538.7 413.798 504.3 410.698 502.2C407.598 500.1 407.598 491.6 413.398 490.2C419.198 488.7 483.898 522.8 484.398 522.4C484.898 522 486.398 519.6 486.098 518.9C485.798 518.2 426.698 490.9 425.898 490C425.898 490 423.198 484.6 428.498 481.9C433.798 479.2 445.198 481.7 456.898 486.2C468.598 490.7 499.198 506.2 527.698 510.9L528.798 504.8C528.798 504.8 502.698 499.7 493.798 493C484.898 486.2 478.198 478.8 477.998 473.4C477.898 468 481.798 466.4 490.398 471.1C498.998 475.8 534.498 494 539.798 501.1C541.098 502.8 555.998 536.9 562.098 554.6C565.998 559.7 570.698 566.5 575.198 570.7C597.098 591.1 648.498 600.9 658.998 609.4C669.698 618.2 672.998 640 666.098 655.8H665.998Z" fill="url(#paint23_linear_2394_71806)"/>
<path d="M451.798 575.3C451.798 575.3 414.398 558 406.698 546.9C400.398 538 410.098 533.2 414.498 535.2C418.798 537.2 459.298 562 459.298 562L451.798 575.3Z" fill="url(#paint24_linear_2394_71806)"/>
<path d="M461.298 558.399C461.298 558.399 420.998 534.499 411.698 525.799C402.398 517.099 401.098 507.099 407.998 505.599C414.898 504.099 468.598 542.899 468.598 542.899L461.298 558.399Z" fill="url(#paint25_linear_2394_71806)"/>
<path d="M470.699 539.899C470.699 539.899 411.299 503.099 409.499 501.099C407.699 499.099 406.599 489.099 417.799 490.399C428.999 491.699 483.499 522.099 483.499 522.099L470.599 539.899H470.699Z" fill="url(#paint26_linear_2394_71806)"/>
<path d="M485.997 518.899L425.797 489.999C425.797 489.999 422.097 482.599 430.897 481.099C439.697 479.599 499.497 503.499 499.497 503.499L485.997 518.899Z" fill="url(#paint27_linear_2394_71806)"/>
<path d="M528.697 504.798C528.697 504.798 498.897 499.899 487.297 487.599C475.697 475.199 475.997 469.698 482.197 468.298C488.397 466.898 532.597 495.099 532.997 495.399C533.397 495.699 528.697 504.798 528.697 504.798Z" fill="url(#paint28_linear_2394_71806)"/>
<path d="M504.599 507.898C504.599 507.898 466.199 582.698 469.799 584.498C473.499 586.298 541.999 605.498 541.999 605.498C541.999 605.498 613.199 668.298 652.699 665.398C675.199 663.698 671.199 620.298 660.399 610.698C649.599 601.198 602.899 592.398 579.599 574.398C556.299 556.398 551.799 528.298 550.399 524.798C547.199 517.198 504.699 507.898 504.699 507.898H504.599Z" fill="url(#paint29_linear_2394_71806)"/>
<path d="M305.498 674.698C334.898 669.198 410.498 607.298 413.298 598.498C416.198 589.298 398.198 568.698 389.398 570.998C387.398 571.498 377.398 577.798 375.098 579.498C363.398 588.198 350.898 597.098 340.898 601.098C326.398 606.998 303.398 610.398 285.598 612.798C278.798 615.398 263.698 618.898 263.698 618.898C261.298 621.398 255.198 625.898 253.498 648.098C251.798 670.298 276.098 679.998 305.498 674.598V674.698Z" fill="url(#paint30_linear_2394_71806)"/>
<path d="M511.998 479.099L527.098 487.299C527.098 487.299 542.598 481.099 543.298 478.899C543.998 476.699 545.198 470.899 537.398 470.499C529.598 470.099 511.998 479.199 511.998 479.199V479.099Z" fill="url(#paint31_linear_2394_71806)"/>
<path d="M530.299 488.899C530.299 488.899 546.399 477.199 554.799 480.199C564.099 483.499 559.999 492.399 551.399 494.999C543.399 497.399 542.299 497.899 542.299 497.899L530.399 488.899H530.299Z" fill="url(#paint32_linear_2394_71806)"/>
<path d="M543.998 498.899C543.998 498.899 550.998 511.299 551.798 514.199C551.798 514.199 564.998 511.699 561.298 501.399C557.598 491.099 543.998 498.999 543.998 498.999V498.899Z" fill="url(#paint33_linear_2394_71806)"/>
<path d="M608.658 650.514C623.084 647.943 637.51 646.128 652.179 645.144C666.119 644.237 682.328 642.8 696.268 643.027C677.709 419.461 573.16 418.1 550.062 411.066L563.354 506.059C576.726 532 601.283 597.421 608.658 650.514Z" fill="#667EB5"/>
<path d="M318.512 654.37C304.086 651.799 289.66 649.984 274.991 649.001C261.051 648.093 244.842 646.656 230.902 646.883C249.462 423.318 350.444 422.864 373.542 415.83L363.816 509.915C350.444 535.857 325.887 601.277 318.512 654.37Z" fill="#667EB5"/>
<path d="M506.619 415.074C501.432 425.209 489.762 439.503 462.855 439.806C432.868 440.108 419.253 426.721 415.038 417.116L349.148 430.276L350.445 855.852C375.812 861.146 412.85 866.365 458.073 865.835C506.619 865.23 542.603 858.953 564.891 853.507L560.271 427.175L506.619 415.15V415.074Z" fill="#DDE5EA"/>
<path d="M425.415 438.974C425.415 438.974 422.821 413.184 422.254 389.209C410.908 391.175 396.239 408.949 396.239 408.949C375.005 414.924 346.72 423.924 337.076 432.772C310.655 456.974 312.843 516.95 311.222 603.32C309.52 696.044 309.439 692.565 298.498 871.357C298.498 871.357 359.525 880.659 428.495 884.138C423.713 758.742 426.306 571.026 425.415 438.974Z" fill="#667EB5"/>
<path d="M495.52 452.74C496.412 436.479 502.247 411.899 502.328 388C513.755 389.891 526.885 405.244 526.885 405.244C551.603 410.916 574.053 417.345 583.94 426.118C610.847 450.32 603.31 505.077 606.795 591.447C608.983 645.675 613.846 683.869 617.655 731.667C620.33 765.55 620.411 819.172 621.545 871.055C621.545 871.055 560.356 879.45 491.387 883.005C493.98 761.466 489.523 564.447 495.601 452.74H495.52Z" fill="#667EB5"/>
<path d="M310.325 647.792C311.864 615.725 320.05 462.723 340.554 424.832C337.799 425.74 333.666 427.177 331.153 428.916C312.108 475.807 306.191 615.347 304.732 646.582C306.434 646.885 308.623 647.565 310.325 647.868V647.792Z" fill="#6D88BE"/>
<path d="M411.801 448.503C407.992 447.898 402.481 449.487 397.132 450.999C393.728 451.982 389.838 453.117 387.892 453.117C385.461 449.108 386.515 425.285 395.997 409.1C393.728 409.705 391.458 410.385 389.108 411.142C381.409 427.554 380.031 449.033 383.192 455.159C384.245 457.201 385.704 457.806 386.677 457.882C389.594 458.26 393.809 457.05 398.671 455.613C402.967 454.403 407.83 452.966 410.585 453.193C413.665 456.067 419.824 476.638 425.578 498.571C425.578 492.067 425.578 485.638 425.578 479.285C416.826 449.562 413.908 448.806 411.801 448.503Z" fill="#6D88BE"/>
<path d="M410.254 451.454L405.067 451.303C405.067 455.009 399.718 803.97 403.365 882.551C405.067 882.702 406.85 882.778 408.552 882.929C404.824 805.937 410.173 455.084 410.254 451.378V451.454Z" fill="#6D88BE"/>
<path d="M318.841 508.555L317.787 503.79C320.137 503.336 374.924 493.58 405.154 495.243L404.911 500.084C375.329 498.42 319.408 508.403 318.841 508.479V508.555Z" fill="#6D88BE"/>
<path d="M608.981 607.708C609.306 623.591 609.143 635.918 609.711 649.381L615.546 647.641C614.979 634.255 614.492 623.439 614.168 607.632C612.791 543.346 611.251 462.345 591.8 423.547C588.963 421.958 586.37 421.051 583.857 420.219C606.064 454.782 607.523 540.094 608.981 607.708Z" fill="#6D88BE"/>
<path d="M534.009 406.906C531.902 406.377 529.795 405.696 526.877 405.242C537.008 421.654 540.412 448.806 538.223 453.192C536.197 453.192 532.388 452.058 528.984 451.075C523.635 449.562 518.124 447.974 514.315 448.579C512.208 448.881 508.966 449.411 499.16 479.966C498.268 482.764 495.026 492.974 494.216 495.621C494.054 501.294 494.216 499.63 493.973 505.68C500.78 481.403 512.127 456.218 515.612 453.268C518.286 453.041 523.23 454.402 527.606 455.688C532.469 457.125 536.765 458.335 539.682 457.957C540.655 457.806 542.113 457.276 543.005 455.31C546.004 449.108 543.005 423.999 534.171 406.906H534.009Z" fill="#6D88BE"/>
<path d="M518.127 881.341C517.722 803.214 517.316 456.9 517.235 453.27H512.048C512.129 457.051 511.481 804.576 511.886 881.795C513.669 881.719 516.425 881.492 518.127 881.341Z" fill="#6D88BE"/>
<path d="M544.14 623.665C539.602 621.472 528.904 616.102 528.175 613.758C527.364 611.338 526.473 566.715 526.311 547.656V544.934L600.872 545.009V547.354C602.655 570.194 605.086 609.447 602.655 613.38C599.656 618.296 575.505 630.548 566.185 630.926C566.023 630.926 565.942 630.926 565.78 630.926C560.35 630.926 551.191 626.993 544.222 623.59L544.14 623.665ZM596.172 549.85H531.497C531.822 573.749 532.551 606.875 533.037 611.791C536.522 614.665 558.891 626.464 566.104 626.161C574.208 625.859 596.171 614.06 598.279 611.111C599.494 607.405 598.117 577.757 596.172 549.85Z" fill="#6D88BE"/>
<path d="M421.195 674.035C421.195 676.758 418.845 678.951 415.927 678.951C413.009 678.951 410.578 676.758 410.578 674.035C410.578 671.312 412.928 669.119 415.846 669.119C418.764 669.119 421.195 671.312 421.195 674.035Z" fill="#AEB5C2"/>
<path d="M421.031 757.307C421.031 760.029 418.681 762.223 415.763 762.223C412.845 762.223 410.414 760.029 410.414 757.307C410.414 754.584 412.764 752.391 415.682 752.391C418.6 752.391 421.031 754.584 421.031 757.307Z" fill="#AEB5C2"/>
<path d="M324.673 616.934C324.673 616.934 323.7 609.9 310.895 607.858C298.171 605.74 240.305 617.539 233.254 624.572C221.016 636.749 220.205 697.481 228.31 706.557C236.415 715.632 282.61 722.515 291.606 721.758C300.602 721.002 333.345 704.817 335.614 702.019C337.883 699.22 340.882 659.211 340.882 659.211L324.592 616.858L324.673 616.934Z" fill="#8C9EC4"/>
<path d="M588.396 663.9C588.396 663.9 588.559 672.371 591.395 676.455C594.232 680.539 623.003 702.396 630.459 703.077C637.915 703.833 689.946 701.186 694.404 694.606C698.861 688.026 703.643 635.841 701.455 630.849C699.266 625.858 670.657 602.563 665.633 601.883C660.608 601.126 621.139 604.303 620.004 605.437C618.869 606.572 588.396 663.824 588.396 663.824V663.9Z" fill="#8C9EC4"/>
<path opacity="0.2" d="M647.481 603.472C648.778 601.204 605.419 586.455 598.692 583.052C592.938 580.102 577.782 564.447 575.189 561.195L569.678 544.783C573.811 538.354 574.784 524.438 564.329 523.455C564.329 523.455 571.542 520.959 574.46 516.194C575.999 513.774 578.917 503.413 567.733 500.841C567.733 500.841 567.733 500.463 568.219 500.236C571.947 498.043 575.756 483.446 557.035 484.732C557.035 484.732 554.928 472.177 537.746 476.11C527.291 478.454 519.754 481.858 512.46 485.034C499.25 478.076 486.931 472.706 485.148 472.026C480.852 470.513 478.664 473.992 477.692 479.286C476.557 475.656 474.936 472.706 472.505 471.194C464.724 466.353 445.193 482.312 439.844 486.547C417.718 481.631 419.988 495.774 419.988 495.774C398.592 492.068 400.212 505.606 403.616 510.371C403.616 510.371 402.644 510.673 401.428 511.127C394.945 513.32 391.379 527.539 406.534 538.657C406.534 538.657 391.946 542.136 400.375 556.959L395.269 566.943C385.381 573.371 325.489 609.674 308.064 615.422C304.903 621.851 396.971 598.33 396.403 599.388C381.167 609.523 351.991 634.632 332.297 642.574C329.055 643.859 325.408 645.07 321.518 646.128C319.491 644.313 316.25 642.422 310.82 641.439C310.658 641.439 310.495 641.439 310.333 641.439C309.847 665.339 309.28 683.036 308.145 706.028C309.442 706.709 310.495 707.919 310.901 709.205C311.225 710.339 311.306 711.625 310.901 712.759C310.333 714.423 309.118 715.633 307.659 716.616C307.011 728.339 306.281 741.726 305.309 757.835C318.033 752.314 333.999 743.541 335.538 741.499C335.944 740.97 336.43 739.003 336.835 736.205C381.248 708.448 431.253 656.339 439.033 648.019C439.033 648.019 463.59 643.406 481.825 636.296C500.952 642.649 532.073 648.246 542.852 653.011C552.091 664.053 570.732 686.213 588.48 703.608C588.724 706.558 589.453 711.474 591.317 714.348C593.181 717.297 606.797 728.642 617.738 736.054C617.657 734.617 617.495 733.18 617.414 731.818C616.36 718.885 615.306 706.709 614.172 694.608C612.632 693.776 611.416 692.641 610.687 691.053C609.633 688.784 610.201 686.667 611.011 684.398C611.416 683.339 612.065 682.431 613.037 681.902C612.227 673.431 611.497 665.036 610.768 656.414C607.445 662.918 567.328 594.548 584.185 610.052C590.507 615.876 599.016 620.868 608.418 625.179C608.418 624.044 608.255 622.91 608.174 621.775C604.365 620.111 601.286 618.674 599.503 617.691C595.369 615.498 584.509 605.968 578.431 598.632C577.215 596.817 575.837 594.775 574.622 593.035C574.379 593.035 574.135 592.279 573.892 591.977C573.892 591.977 652.506 616.103 647.4 603.472H647.481Z" fill="#29354F"/>
<path d="M694.321 631.606C694.321 631.606 680.057 612.471 663.118 608.539C646.18 604.606 608.575 590.009 599.579 585.471C594.23 582.748 577.778 568.681 574.698 562.177C573.888 560.437 535.067 610.959 537.012 612.169C538.957 613.379 598.768 685.002 621.866 689.539C644.964 694.077 677.788 685.909 684.595 680.161C691.403 674.413 695.942 636.144 694.321 631.606Z" fill="#FF9977"/>
<path d="M440.241 612.927C440.241 612.927 350.199 704.214 299.384 712.76C248.488 721.306 238.033 691.281 234.629 679.104C231.144 666.928 237.952 627.978 247.11 624.801C256.268 621.549 306.84 618.675 332.451 608.919C358.142 599.162 399.88 561.876 405.959 564.296C412.037 566.716 440.322 613.003 440.322 613.003L440.241 612.927Z" fill="#FF9977"/>
<path d="M560.11 544.782C560.11 544.782 567.404 537.824 566.917 532C566.512 526.252 562.865 523.151 561.163 523.075C561.163 523.075 569.349 519.672 571.618 514.454C573.968 509.235 568.538 501.369 561.001 501.899C561.001 501.899 567.485 500.462 569.025 496C570.564 491.613 565.864 482.31 551.843 486.924C551.843 486.924 556.219 478.983 546.089 476.562C535.958 474.067 472.986 504.092 472.986 504.092L467.07 499.479C467.07 499.479 474.121 491.159 475.012 483.142C475.904 475.125 470.879 467.411 461.802 473.613C452.725 479.815 439.271 489.647 437.164 491.689C435.057 493.731 398.992 563.614 396.317 568.076C394.615 570.874 439.028 613.908 439.028 613.908C439.028 613.908 479.632 606.723 495.111 596.589C510.51 586.454 557.354 547.807 560.029 544.782H560.11Z" fill="#FF9977"/>
<path d="M561.163 501.899C561.163 501.899 567.647 500.462 569.186 496C570.726 491.613 566.026 482.31 552.005 486.924C552.005 486.924 556.381 478.983 546.251 476.562C536.12 474.067 473.148 504.092 473.148 504.092L467.232 499.479C467.232 499.479 474.283 491.159 475.174 483.142C476.066 475.125 471.041 467.411 461.964 473.613C452.887 479.815 439.433 489.647 437.326 491.689C435.219 493.731 399.154 563.614 396.479 568.076C381.243 577.605 352.066 601.278 332.372 608.765C306.681 618.522 256.109 621.396 247.032 624.648C237.874 627.9 231.066 666.774 234.551 678.951C238.036 691.128 248.491 721.153 299.306 712.607C346.961 704.59 428.978 623.967 439.19 613.833C439.19 613.833 479.794 606.648 495.273 596.513C510.672 586.379 557.516 547.731 560.19 544.706C560.19 544.706 567.484 537.748 566.998 531.924C566.593 526.176 562.946 523.076 561.244 523C561.244 523 569.43 519.596 571.699 514.378C574.049 509.159 568.619 501.294 561.082 501.823L561.163 501.899ZM403.854 612.925C391.86 624.724 316.001 678.648 286.501 684.926C257.081 691.203 237.144 673.43 238.117 658.531C239.089 643.631 255.542 624.875 285.69 622.908C327.672 620.11 360.9 597.723 376.38 585.849C389.104 576.093 415.849 601.127 403.854 612.925ZM466.745 493.428C465.368 493.731 446.322 486.773 446.322 486.773C451.509 485.109 463.098 471.041 470.311 473.613C476.39 475.806 468.123 493.126 466.826 493.428H466.745ZM516.426 486.394C516.426 486.394 537.903 476.789 544.711 477.697C551.519 478.604 551.275 483.294 550.546 485.563C549.817 487.831 534.013 494.336 533.121 494.638C532.23 494.865 516.507 486.47 516.507 486.47L516.426 486.394ZM548.925 505.227C548.52 505 536.525 496.378 536.12 496.226C536.12 496.226 550.951 487.605 558.488 487.302C566.026 486.999 569.754 494.638 565.945 497.89C562.135 501.142 549.33 505.453 548.925 505.227ZM570.24 512.79C569.835 518.538 559.218 521.563 559.218 521.563C558.164 517.176 550.951 506.437 550.87 506.285C550.87 506.285 554.922 503.865 560.028 503.336C565.215 502.806 570.645 507.042 570.24 512.79Z" fill="url(#paint34_linear_2394_71806)"/>
<path d="M573.967 561.27C573.967 561.27 556.624 515.74 547.385 506.665C538.064 497.665 489.113 475.353 485.79 473.538C482.548 471.647 476.308 477.093 478.496 484.429C480.684 491.765 505.646 509.085 505.646 510.295C505.646 511.505 456.614 490.253 440.243 487.152C423.872 484.127 419.252 491.917 421.684 497.211C421.684 497.211 417.469 495.017 410.905 496.228C404.34 497.438 400.126 505.379 406.528 511.051C406.528 511.051 394.128 512.564 398.343 524.135C402.557 535.707 448.996 561.346 448.996 561.346C448.996 561.346 415.281 542.136 408.716 541.304C402.152 540.472 394.695 547.959 403.286 557.791C411.877 567.623 454.831 590.464 471.445 598.934C488.06 607.405 538.875 614.59 545.926 620.338C553.058 626.086 581.261 571.556 581.261 571.556C581.261 571.556 576.885 565.052 573.967 561.346V561.27Z" fill="#FF9977"/>
<path d="M694.319 631.607C694.319 631.607 680.056 612.472 663.117 608.54C646.179 604.607 608.574 590.01 599.578 585.472C595.444 583.354 584.584 574.43 578.506 567.472C577.29 565.732 575.913 563.69 574.697 562.102V562.027C574.454 562.027 574.211 561.497 573.967 561.195C573.967 561.195 556.624 515.665 547.385 506.665C538.064 497.665 489.113 475.429 485.79 473.538C482.548 471.647 476.308 477.093 478.496 484.429C480.684 491.765 505.646 509.085 505.646 510.295C505.646 511.505 456.614 490.253 440.243 487.152C423.872 484.127 419.252 491.917 421.684 497.211C421.684 497.211 417.469 495.017 410.905 496.228C404.34 497.438 400.126 505.379 406.528 511.051C406.528 511.051 394.128 512.564 398.343 524.135C401.908 533.892 409.77 540.774 409.77 540.774C400.531 540.018 394.695 547.959 403.286 557.791C411.877 567.623 454.831 590.464 471.445 598.934C486.52 606.649 529.879 613.229 543.008 618.75C559.055 636.674 602.9 685.835 621.865 689.616C644.963 694.154 677.786 685.986 684.594 680.238C691.402 674.49 695.94 636.221 694.319 631.683V631.607ZM488.06 598.708C484.088 599.01 441.215 578.136 430.031 571.556C418.847 564.976 401.99 555.447 400.774 551.438C399.558 547.43 403.205 540.547 410.661 542.665C418.036 544.783 459.126 569.59 459.694 569.59C460.261 569.59 462.692 565.959 461.801 565.959C461.558 565.959 412.688 538.127 405.312 530.64C398.018 523.152 398.018 514.152 404.421 513.018C410.823 511.883 468.852 550.228 469.581 550.455C470.311 550.682 472.337 548.489 471.932 547.43C471.526 546.371 410.661 511.732 407.339 509.69C404.016 507.572 404.016 499.101 410.256 497.589C416.497 496.076 486.033 530.261 486.601 529.883C487.087 529.505 488.789 527.085 488.384 526.404C488.06 525.724 424.52 498.27 423.71 497.438C423.71 497.438 420.792 492.068 426.465 489.345C432.138 486.622 444.376 489.118 457.019 493.58C469.662 498.118 502.567 513.623 533.121 518.387L534.255 512.261C534.255 512.261 506.214 507.194 496.65 500.387C487.087 493.58 479.874 486.093 479.712 480.723C479.55 475.353 483.845 473.689 493.084 478.454C502.323 483.219 540.496 501.446 546.25 508.555C551.923 515.665 491.95 598.556 488.06 598.859V598.708ZM682.001 663.675C674.625 679.557 638.641 664.128 612.464 649.456C586.286 634.784 559.784 605.212 552.977 594.548C546.169 583.884 567.484 563.69 584.26 578.287C607.844 598.783 663.117 608.54 674.301 617.086C685.891 625.935 689.295 647.792 681.92 663.675H682.001Z" fill="url(#paint35_linear_2394_71806)"/>
<path d="M565.382 156.503C568.404 149.748 544.044 132.278 510.972 117.485C477.9 102.691 448.64 96.1746 445.618 102.93C442.596 109.686 466.957 127.155 500.028 141.949C533.1 156.742 562.36 163.259 565.382 156.503Z" fill="#0C4266"/>
<path d="M565.3 157.101C562.3 163.901 533 157.301 499.9 142.601C466.8 127.801 442.4 109.201 445.4 102.401C446 101.101 447.6 100.601 449.7 101.201C451.8 101.801 474.5 119.301 501.5 131.401C530.5 144.301 562.1 146.101 565.2 154.201C565.6 155.401 565.7 156.401 565.3 157.201V157.101Z" fill="#092E4C"/>
<defs>
<linearGradient id="paint0_linear_2394_71806" x1="456.198" y1="1578" x2="456.198" y2="1495.9" gradientUnits="userSpaceOnUse">
<stop stop-color="white"/>
<stop offset="1" stop-color="#A5B7C6"/>
</linearGradient>
<linearGradient id="paint1_linear_2394_71806" x1="462.799" y1="406.999" x2="462.799" y2="430.799" gradientUnits="userSpaceOnUse">
<stop stop-color="#DB7D67"/>
<stop offset="1" stop-color="#FF9E78"/>
</linearGradient>
<linearGradient id="paint2_linear_2394_71806" x1="555.398" y1="1124.7" x2="540.098" y2="950.499" gradientUnits="userSpaceOnUse">
<stop stop-color="#3D434F"/>
<stop offset="1" stop-color="#333844"/>
</linearGradient>
<linearGradient id="paint3_linear_2394_71806" x1="462.898" y1="575.2" x2="462.898" y2="800.1" gradientUnits="userSpaceOnUse">
<stop stop-color="#B3CBE2"/>
<stop offset="1" stop-color="#CADBEF"/>
</linearGradient>
<linearGradient id="paint4_linear_2394_71806" x1="280.198" y1="1496.6" x2="280.698" y2="1523.7" gradientUnits="userSpaceOnUse">
<stop stop-color="#5B5B60"/>
<stop offset="1" stop-color="#2C2C2D"/>
</linearGradient>
<linearGradient id="paint5_linear_2394_71806" x1="632.498" y1="1496.6" x2="632.998" y2="1523.8" gradientUnits="userSpaceOnUse">
<stop stop-color="#5B5B60"/>
<stop offset="1" stop-color="#2C2C2D"/>
</linearGradient>
<linearGradient id="paint6_linear_2394_71806" x1="359.399" y1="1126.5" x2="374.799" y2="950.599" gradientUnits="userSpaceOnUse">
<stop stop-color="#3D434F"/>
<stop offset="1" stop-color="#333844"/>
</linearGradient>
<linearGradient id="paint7_linear_2394_71806" x1="402.399" y1="848.699" x2="434.199" y2="848.699" gradientUnits="userSpaceOnUse">
<stop stop-color="#5F6163"/>
<stop offset="1" stop-color="#444749"/>
</linearGradient>
<linearGradient id="paint8_linear_2394_71806" x1="419.898" y1="847.8" x2="433.998" y2="847.8" gradientUnits="userSpaceOnUse">
<stop stop-color="#5F6163"/>
<stop offset="1" stop-color="#444749"/>
</linearGradient>
<linearGradient id="paint9_linear_2394_71806" x1="355.993" y1="290.261" x2="395.581" y2="291.228" gradientUnits="userSpaceOnUse">
<stop stop-color="#F28C70"/>
<stop offset="1" stop-color="#FF9E78"/>
</linearGradient>
<linearGradient id="paint10_linear_2394_71806" x1="465.809" y1="172.775" x2="465.057" y2="203.565" gradientUnits="userSpaceOnUse">
<stop stop-color="#C6664F"/>
<stop offset="1" stop-color="#FF9E78"/>
</linearGradient>
<linearGradient id="paint11_linear_2394_71806" x1="542.745" y1="327.799" x2="582.833" y2="328.779" gradientUnits="userSpaceOnUse">
<stop stop-color="#F28C70"/>
<stop offset="1" stop-color="#FF9E78"/>
</linearGradient>
<linearGradient id="paint12_linear_2394_71806" x1="556.297" y1="293.12" x2="576.391" y2="293.611" gradientUnits="userSpaceOnUse">
<stop stop-color="#F28C70"/>
<stop offset="1" stop-color="#FF9E78"/>
</linearGradient>
<linearGradient id="paint13_linear_2394_71806" x1="486.892" y1="106.733" x2="481.868" y2="182.869" gradientUnits="userSpaceOnUse">
<stop stop-color="#75483B"/>
<stop offset="0.4" stop-color="#704438"/>
<stop offset="0.7" stop-color="#623C2F"/>
<stop offset="1" stop-color="#563428"/>
</linearGradient>
<linearGradient id="paint14_linear_2394_71806" x1="506.206" y1="189.766" x2="502.901" y2="271.809" gradientUnits="userSpaceOnUse">
<stop stop-color="#C6664F"/>
<stop offset="1" stop-color="#FF9E78"/>
</linearGradient>
<linearGradient id="paint15_linear_2394_71806" x1="424.473" y1="198.272" x2="421.168" y2="280.316" gradientUnits="userSpaceOnUse">
<stop stop-color="#C6664F"/>
<stop offset="1" stop-color="#FF9E78"/>
</linearGradient>
<linearGradient id="paint16_linear_2394_71806" x1="425.757" y1="223.514" x2="423.405" y2="249.621" gradientUnits="userSpaceOnUse">
<stop stop-color="#75483B"/>
<stop offset="0.4" stop-color="#704438"/>
<stop offset="0.7" stop-color="#623C2F"/>
<stop offset="1" stop-color="#563428"/>
</linearGradient>
<linearGradient id="paint17_linear_2394_71806" x1="507.177" y1="230.654" x2="504.924" y2="256.767" gradientUnits="userSpaceOnUse">
<stop stop-color="#75483B"/>
<stop offset="0.4" stop-color="#704438"/>
<stop offset="0.7" stop-color="#623C2F"/>
<stop offset="1" stop-color="#563428"/>
</linearGradient>
<linearGradient id="paint18_linear_2394_71806" x1="449.296" y1="316.413" x2="449.704" y2="299.718" gradientUnits="userSpaceOnUse">
<stop stop-color="#F28C70"/>
<stop offset="1" stop-color="#FF9E78"/>
</linearGradient>
<linearGradient id="paint19_linear_2394_71806" x1="653.298" y1="602.2" x2="645.698" y2="624" gradientUnits="userSpaceOnUse">
<stop stop-color="#DEEFFF"/>
<stop offset="1" stop-color="#CADBEF"/>
</linearGradient>
<linearGradient id="paint20_linear_2394_71806" x1="285.599" y1="612.5" x2="291.199" y2="640" gradientUnits="userSpaceOnUse">
<stop stop-color="#DEEFFF"/>
<stop offset="1" stop-color="#CADBEF"/>
</linearGradient>
<linearGradient id="paint21_linear_2394_71806" x1="502.798" y1="607.799" x2="346.298" y2="572.599" gradientUnits="userSpaceOnUse">
<stop stop-color="#DB7D67"/>
<stop offset="1" stop-color="#FF9E78"/>
</linearGradient>
<linearGradient id="paint22_linear_2394_71806" x1="471.098" y1="598.9" x2="616.898" y2="558.3" gradientUnits="userSpaceOnUse">
<stop stop-color="#F28C70"/>
<stop offset="1" stop-color="#FF9E78"/>
</linearGradient>
<linearGradient id="paint23_linear_2394_71806" x1="471.098" y1="598.9" x2="616.898" y2="558.3" gradientUnits="userSpaceOnUse">
<stop stop-color="#F28C70"/>
<stop offset="1" stop-color="#FF9E78"/>
</linearGradient>
<linearGradient id="paint24_linear_2394_71806" x1="391.398" y1="528" x2="448.898" y2="566.2" gradientUnits="userSpaceOnUse">
<stop stop-color="#FFB9A4"/>
<stop offset="1" stop-color="#FF9E78"/>
</linearGradient>
<linearGradient id="paint25_linear_2394_71806" x1="373.998" y1="491.099" x2="457.699" y2="545.999" gradientUnits="userSpaceOnUse">
<stop stop-color="#FFB9A4"/>
<stop offset="1" stop-color="#FF9E78"/>
</linearGradient>
<linearGradient id="paint26_linear_2394_71806" x1="401.299" y1="487.299" x2="475.599" y2="530.099" gradientUnits="userSpaceOnUse">
<stop stop-color="#FFB9A4"/>
<stop offset="1" stop-color="#FF9E78"/>
</linearGradient>
<linearGradient id="paint27_linear_2394_71806" x1="405.697" y1="460.499" x2="476.997" y2="505.899" gradientUnits="userSpaceOnUse">
<stop stop-color="#FFB9A4"/>
<stop offset="1" stop-color="#FF9E78"/>
</linearGradient>
<linearGradient id="paint28_linear_2394_71806" x1="505.897" y1="445.898" x2="505.397" y2="492.098" gradientUnits="userSpaceOnUse">
<stop stop-color="#FFB9A4"/>
<stop offset="1" stop-color="#FF9E78"/>
</linearGradient>
<linearGradient id="paint29_linear_2394_71806" x1="657.699" y1="476.698" x2="566.299" y2="609.698" gradientUnits="userSpaceOnUse">
<stop stop-color="#FFB7A1"/>
<stop offset="1" stop-color="#FF9E78"/>
</linearGradient>
<linearGradient id="paint30_linear_2394_71806" x1="305.498" y1="563.398" x2="339.898" y2="638.398" gradientUnits="userSpaceOnUse">
<stop stop-color="#FFB7A1"/>
<stop offset="1" stop-color="#FF9E78"/>
</linearGradient>
<linearGradient id="paint31_linear_2394_71806" x1="526.998" y1="459.599" x2="528.098" y2="480.299" gradientUnits="userSpaceOnUse">
<stop stop-color="#FFB7A1"/>
<stop offset="1" stop-color="#FF9E78"/>
</linearGradient>
<linearGradient id="paint32_linear_2394_71806" x1="546.699" y1="473.799" x2="544.999" y2="489.799" gradientUnits="userSpaceOnUse">
<stop stop-color="#FFB7A1"/>
<stop offset="1" stop-color="#FF9E78"/>
</linearGradient>
<linearGradient id="paint33_linear_2394_71806" x1="553.198" y1="490.499" x2="552.898" y2="509.599" gradientUnits="userSpaceOnUse">
<stop stop-color="#FFB7A1"/>
<stop offset="1" stop-color="#FF9E78"/>
</linearGradient>
<linearGradient id="paint34_linear_2394_71806" x1="443.566" y1="558.925" x2="399.779" y2="593.043" gradientUnits="userSpaceOnUse">
<stop stop-color="#FD8268"/>
<stop offset="1" stop-color="#FD9677"/>
</linearGradient>
<linearGradient id="paint35_linear_2394_71806" x1="281.07" y1="442.076" x2="565.599" y2="609.177" gradientUnits="userSpaceOnUse">
<stop stop-color="#FD8268"/>
<stop offset="1" stop-color="#FD9677"/>
</linearGradient>
</defs>
</svg>
