<svg width="940" height="1600" viewBox="0 0 940 1600" fill="none" xmlns="http://www.w3.org/2000/svg">
<path d="M773.5 1539.6C773.5 1539.6 631.5 1567 456.2 1567C280.9 1567 138.9 1539.6 138.9 1539.6C138.9 1539.6 280.9 1512.2 456.2 1512.2C631.5 1512.2 773.5 1539.6 773.5 1539.6Z" fill="url(#paint0_linear_2394_71806)"/>
<path d="M393.101 410.899C401.101 409.199 409.401 402.999 418.901 401.899L421.601 344.199C421.101 326.699 434.801 313.099 458.801 313.499C481.801 313.899 502.301 328.499 502.701 345.999L504.401 403.199C514.901 404.799 524.501 406.799 533.401 409.299L532.801 461.899H392.201L393.101 410.899Z" fill="url(#paint1_linear_2394_71806)"/>
<path d="M684.701 627.2C684.301 623.8 666.101 598.7 666.101 598.7C659.401 549.3 653.801 495.8 628.701 463C609.601 438 569.501 409.7 528.901 407.4C526.101 403.2 517.901 392.7 504.101 392.6C504.101 392.6 496.001 414.2 462.401 426.9C428.701 414.2 419.301 392.6 419.301 392.6C405.501 392.7 398.701 403.2 396.001 407.4C355.401 409.7 315.301 438 296.201 463C271.101 495.9 262.801 562.3 256.101 611.7C256.101 611.7 243.301 639.2 242.901 642.6C238.001 669.4 245.701 696.1 254.101 703.6C263.401 711.9 307.001 713.3 317.101 712.2C312.501 779.7 311.501 760.7 315.001 795.7C315.701 802.4 324.401 810.4 325.501 812.6C330.801 822.8 393.601 827.5 457.601 827.8C459.601 827.8 460.301 827.8 461.601 827.8C462.901 827.8 464.601 827.8 465.601 827.8C530.601 827.5 593.201 822.8 598.501 812.5C599.601 810.3 608.901 802.3 609.601 795.6C613.101 760.6 611.701 756.2 607.101 688.8C619.201 690.1 660.701 694.2 675.301 678.3C681.301 671.7 686.001 644 684.701 627.2Z" fill="url(#paint2_linear_2394_71806)"/>
<path d="M311 1475.5C309.9 1476 230.1 1519.6 229.2 1533.3C229.2 1533.9 226.9 1534.3 226.6 1534.7V1540.1C269.2 1554.5 355.3 1537.5 355.3 1537.5C355.3 1537.5 355.5 1540.9 356.4 1541C373.5 1542.7 402.4 1538.8 404.4 1537.2C404.8 1536.9 405.4 1532.2 405.2 1528.1C405.2 1527.7 404.1 1526.8 404.1 1526.8C405 1510.6 405 1479.4 405.1 1478.7C407.9 1464.7 317.5 1451.3 311 1475.5Z" fill="#2C2C2D"/>
<path d="M602.3 1475.5C603.4 1476 683.2 1519.6 684.1 1533.3C684.1 1533.9 686.4 1534.3 686.7 1534.7V1540.1C644.1 1554.5 558 1537.5 558 1537.5C558 1537.5 557.8 1540.9 556.9 1541C539.8 1542.7 510.9 1538.8 508.9 1537.2C508.5 1536.9 507.9 1532.2 508.1 1528.1C508.1 1527.7 509.2 1526.8 509.2 1526.8C508.3 1510.6 508.3 1479.4 508.2 1478.7C505.4 1464.7 595.8 1451.3 602.3 1475.5Z" fill="#2C2C2D"/>
<path d="M411.4 1498.9C439.9 1183.6 452.7 932.499 455.1 862.199L311.5 846.299C301.6 956.799 310.3 1241.8 293.5 1485.3C293.5 1485.3 307.1 1477.5 334.4 1479C360.4 1480.4 390.1 1496.5 404.8 1501C404.8 1501 410.7 1499.2 411.4 1499V1498.9Z" fill="#333844"/>
<path d="M502.9 1498.8C474.4 1183.5 460.8 932.499 458.5 862.199L602.1 846.299C612 956.799 603.2 1241.8 620 1485.3C620 1485.3 606.1 1479.3 579.2 1478.9C564 1478.7 523.3 1496.4 508.6 1500.9L503 1498.8H502.9Z" fill="#333844"/>
<path d="M312.8 815.099C308.6 895.199 307.4 932.799 307.4 932.799C307.4 932.799 390.9 939.699 481.4 938.899C540.2 938.399 590.4 942.799 594.3 918.899C597.8 897.299 601.5 871.499 603.6 816.599L598.3 811.299C583.6 812.799 533.2 818.299 454.7 817.299C368.4 816.199 330.1 810.599 319.2 809.699C317.6 809.599 312.8 813.299 312.7 814.999L312.8 815.099Z" fill="#333844"/>
<path d="M430 932L429 938.4C452.9 939.2 483.8 938.6 483.8 938.6V932.1C483.7 932.1 430 932.1 430 932.1V932Z" fill="#292D35"/>
<path d="M308 911.7C314.8 907.3 328.1 897.9 336.3 890.4C335.4 889.1 334.5 887.8 333.5 886.5C328.8 890 313.3 900.7 308.2 904.2C308.2 906.6 308 909.1 308 911.6V911.7Z" fill="#292D35"/>
<path d="M454.801 834.798C379.501 834.798 332.801 831.398 312.301 829.498C309.801 829.498 308.201 856.598 311.101 857.898C333.001 859.898 379.701 863.098 454.901 863.098C530.101 863.098 576.001 859.298 603.001 857.298C605.401 857.498 605.501 829.398 602.901 829.398C577.701 831.298 522.901 834.698 454.901 834.698L454.801 834.798Z" fill="#1C1D1E"/>
<path d="M388.2 872.9L371 872L374.3 824.6L391.4 825.5L388.2 872.9Z" fill="#333844"/>
<path d="M530.401 872.9L513.301 872L516.501 824.6L533.601 825.5L530.401 872.9Z" fill="#333844"/>
<path d="M576.2 886C575.1 888.5 575.5 887.7 574.5 890.3C582.7 897.4 597.7 906.3 605.5 911.2C605.5 907.8 605.3 906.9 605.3 903.9L576.2 886.1V886Z" fill="#292D35"/>
<path d="M598.4 938.699C598.4 938.699 606.4 1166.8 601.5 1171.7C596.7 1176.6 571.2 1196.9 564.5 1196.2C553.7 1195.1 502.5 1171.9 499.7 1164.4C497 1156.9 485.7 941.899 489.7 941.999C493.7 942.099 598.2 938.799 598.2 938.799L598.4 938.699Z" fill="url(#paint3_linear_2394_71806)"/>
<path d="M493.4 1389.2C493.2 1389.2 494.1 1408.5 494.1 1409.6C494.3 1414.8 493.2 1420.6 494 1425.6C494.8 1431 498.6 1435.6 498.2 1441.3C497.9 1444.8 495.9 1447.9 494.3 1451.1C492.7 1454.3 491.5 1458 492.8 1461.3C493.9 1464 496.7 1465.9 497.7 1468.7C499 1472.4 496.9 1475.9 496.7 1479.5C496.4 1483.5 497.6 1487.9 497.8 1492.1C497.9 1494.1 497.3 1507.1 499.4 1508.3C501.4 1509.4 506.4 1511.9 508.6 1511.4C525.7 1507.8 552.1 1486 573.7 1481C598.3 1475.2 619.8 1485.5 619.8 1485.5C617.6 1484.9 620.2 1469.8 620.8 1468.3C621.8 1466 623.2 1463.8 623.5 1461.4C624.2 1454.6 615.6 1449 617.1 1442.3C617.9 1438.9 621.2 1436.2 621.2 1432.7C621.2 1429.8 619.1 1427.4 617.6 1424.9C614.9 1420 616 1414.9 615.7 1409.6C615.4 1404.2 615.1 1398.9 614.8 1393.5C614.8 1392.7 613.9 1378.4 614 1378.4L493.2 1389.2H493.4Z" fill="#333844"/>
<path d="M420.6 1388.3C420.8 1388.3 419.6 1409.4 419.6 1410.5C419.4 1415.7 419.6 1420.6 419 1425.6C418.2 1431 416.2 1434.3 416.7 1440C417 1443.5 417.1 1447.9 418.7 1451.1C420.3 1454.3 421.5 1458 420.2 1461.3C419.1 1464 416.3 1465.9 415.3 1468.7C414 1472.4 416.1 1475.9 416.3 1479.5C416.6 1483.5 415.4 1487.9 415.2 1492.1C415.1 1494.1 415.7 1507.1 413.6 1508.3C411.6 1509.4 407.2 1510.9 404.9 1510.9C374 1510.9 359.6 1487.7 339.8 1482.6C315.3 1476.3 293.1 1485.5 293.1 1485.5C295.3 1484.9 292.7 1469.8 292.1 1468.3C291.1 1466 289.7 1463.8 289.4 1461.4C288.7 1454.6 297.3 1449 295.8 1442.3C295 1438.9 291.7 1436.2 291.7 1432.7C291.7 1429.8 293.8 1427.4 295.3 1424.9C298 1420 296.9 1414.9 297.2 1409.6C297.5 1404.2 297.8 1398.9 298.1 1393.5C298.1 1392.7 299.6 1377.2 299.5 1377.2L420.8 1388.3H420.6Z" fill="#333844"/>
<path d="M354.201 1530.6C331.401 1533.4 305.501 1536.6 283.801 1536.9C250.901 1537.5 234.801 1534.3 229.301 1532.9C229.301 1533 229.301 1533.1 229.301 1533.2C229.301 1533.8 227.001 1534.2 226.701 1534.6V1534.8C229.501 1535.7 243.101 1539.5 276.201 1539.5C309.301 1539.5 281.301 1539.5 284.001 1539.5C305.801 1539.1 331.701 1535.9 354.601 1533.1C376.701 1530.4 395.901 1528 405.401 1528.9C405.401 1528.6 405.401 1528.3 405.401 1528C405.401 1527.6 404.301 1526.7 404.301 1526.7C404.301 1526.6 404.301 1526.4 404.301 1526.3C394.201 1525.7 375.601 1528 354.401 1530.6H354.201Z" fill="#3D3D3D"/>
<path d="M666 655.8L581.3 583.4L569.2 493H564L572.4 591.2L502.1 568.8L350.3 613.2L361.3 496H356.1L337 623.5L324.5 691.1C324.5 691.1 280.1 692.6 263.5 680.2C251.1 670.9 250.2 639.4 250.6 624.2C247.1 632 243.3 640.8 243 642.7C238.1 669.5 245.8 696.1 254.2 703.7C263.5 712 307.1 713.4 317.2 712.3C312.6 779.8 311.6 760.8 315.1 795.7C315.8 802.4 320.5 812.7 321.6 814.9C321.6 814.9 407.5 819.6 455.1 819.6C502.7 819.6 597 814.6 597 814.6C598.2 812.5 609.2 802.5 609.9 795.7C613.4 760.7 611.9 756.3 607.3 688.9C619.4 690.2 660.9 694.3 675.4 678.4C679.7 673.7 683.3 658.4 684.5 643.8C677.4 657.9 666 655.8 666 655.8ZM463.9 792.5C459.5 792.5 347.7 785.9 345.1 782.8C342.5 779.7 347.1 734 347.1 734C356.3 728.4 435.1 656.5 437.5 654.5C439.9 652.5 482.9 642.3 482.9 642.3C482.9 642.3 534.9 657.3 539.2 656.1C543.5 655 575.4 700.8 575.4 700.8C575.4 700.8 579.5 774.8 580 778.8C580.4 782.8 468.3 792.5 463.9 792.5Z" fill="url(#paint4_linear_2394_71806)"/>
<path d="M559.2 1530.6C582 1533.4 607.9 1536.6 629.5 1536.9C662.4 1537.5 678.5 1534.3 684.1 1532.9C684.1 1533 684.1 1533.1 684.1 1533.2C684.1 1533.8 686.4 1534.2 686.7 1534.6C683.9 1535.7 670.2 1539.5 637.2 1539.5C604.2 1539.5 632.1 1539.5 629.4 1539.5C607.6 1539.1 581.7 1535.9 558.8 1533.1C536.7 1530.4 517.5 1528 508.1 1528.9C508.1 1528.6 508.1 1528.3 508.1 1528C508.1 1527.6 509.2 1526.7 509.2 1526.7C509.2 1526.6 509.2 1526.4 509.2 1526.3C519.3 1525.7 537.8 1528 559.1 1530.6H559.2Z" fill="#3D3D3D"/>
<path d="M326.7 1518.6C298.4 1501.8 272.9 1503.5 254.7 1509.5C245.7 1515.6 237.9 1521.6 233.4 1526.5C239.7 1528 251 1529.6 271.1 1530.1C311 1531.1 333.6 1522.8 326.7 1518.7V1518.6Z" fill="url(#paint5_linear_2394_71806)"/>
<path d="M680 1526.5C675.4 1521.6 667.3 1515.4 658.1 1509.1C640 1503.4 614.9 1502.1 587.1 1518.6C580.2 1522.7 602.9 1531 642.7 1530C662.3 1529.5 673.6 1527.9 679.9 1526.5H680Z" fill="url(#paint6_linear_2394_71806)"/>
<path d="M316.501 938.699C316.501 938.699 306.701 1168.7 311.601 1173.6C316.401 1178.5 343.001 1199.2 349.701 1198.6C360.501 1197.5 412.701 1167.6 415.401 1160.1C418.101 1152.6 429.101 941.799 425.001 941.999C421.001 942.099 316.501 938.799 316.501 938.799V938.699Z" fill="url(#paint7_linear_2394_71806)"/>
<path d="M396.001 407.398C400.701 417.498 412.201 444.998 418.401 448.498C424.301 451.798 448.101 432.598 457.401 424.898C460.201 425.898 462.401 426.998 462.401 426.998C463.801 426.498 463.801 426.498 465.101 425.898C474.701 432.198 496.101 445.498 504.301 444.998C513.501 444.398 524.901 415.898 528.801 407.398C530.401 407.498 532.201 407.598 533.801 407.798C529.801 417.698 515.401 451.998 508.301 456.698C499.901 462.198 461.301 431.498 461.301 431.498C461.301 431.498 427.201 461.798 417.201 460.498C408.601 459.398 394.101 419.598 389.801 407.898C391.401 407.598 394.401 407.798 395.901 407.498L396.001 407.398Z" fill="url(#paint8_linear_2394_71806)"/>
<path d="M456.6 819.5L458.7 428.1H464C464 428.1 460.9 752.1 462.9 819.5H456.7H456.6Z" fill="url(#paint9_linear_2394_71806)"/>
<path d="M479.201 834.699C479.201 834.699 427.201 834.199 427.201 835.199C427.201 835.199 426.701 862.199 427.201 862.599C427.701 862.999 479.501 862.999 479.501 862.999C479.501 862.999 479.501 867.399 478.601 867.999C475.401 869.899 421.801 869.399 420.301 867.999C418.801 866.599 419.801 831.499 420.901 829.499C422.001 827.499 476.901 828.199 478.001 828.999C479.001 829.799 479.101 834.699 479.101 834.699H479.201Z" fill="url(#paint10_linear_2394_71806)"/>
<path d="M422.3 844.5C422.3 844.5 421.6 850.7 422.1 851.1C422.5 851.5 435.1 851.1 435.4 850.9C435.7 850.7 435.9 845.6 435.5 844.7C435.3 844.1 422.8 844 422.3 844.5Z" fill="url(#paint11_linear_2394_71806)"/>
<path d="M382.106 318.088C392.384 315.716 397.897 301.577 394.418 286.51C390.939 271.442 379.787 261.151 369.509 263.524C359.231 265.897 353.718 280.035 357.197 295.103C360.676 310.17 371.828 320.461 382.106 318.088Z" fill="url(#paint12_linear_2394_71806)"/>
<path d="M539.901 183.6C535.801 148.6 438.501 127.6 407.401 174.1C397.201 195.8 384.801 236.8 378.001 277.6C378.001 277.2 378.001 276.9 378.001 276.9C378.001 276.9 345.401 382.6 442.501 392.5C535.901 402 553.201 356.6 552.001 292.5C553.801 256.6 546.001 210.6 540.001 183.6H539.901Z" fill="url(#paint13_linear_2394_71806)"/>
<g opacity="0.6">
<path d="M530.071 329.873C542.979 313.819 541.231 290.985 526.166 278.873C511.101 266.76 488.425 269.956 475.517 286.011C462.609 302.065 464.357 324.899 479.421 337.011C494.486 349.123 517.162 345.928 530.071 329.873Z" fill="#FF9E78"/>
<path d="M529.915 329.747C542.719 313.821 540.956 291.149 525.978 279.105C510.999 267.062 488.477 270.21 475.673 286.135C462.868 302.061 464.631 324.733 479.609 336.777C494.588 348.82 517.11 345.672 529.915 329.747Z" fill="#FF9D77"/>
<path d="M529.759 329.623C542.494 313.783 540.745 291.236 525.853 279.263C510.96 267.289 488.564 270.422 475.829 286.262C463.093 302.101 464.842 324.648 479.735 336.622C494.627 348.596 517.024 345.462 529.759 329.623Z" fill="#FF9C77"/>
<path d="M529.603 329.497C542.234 313.786 540.471 291.4 525.665 279.496C510.858 267.591 488.616 270.676 475.984 286.386C463.353 302.096 465.116 324.483 479.923 336.387C494.729 348.292 516.971 345.207 529.603 329.497Z" fill="#FF9B76"/>
<path d="M529.369 329.31C541.931 313.686 540.217 291.453 525.54 279.653C510.862 267.852 488.78 270.951 476.218 286.575C463.656 302.199 465.371 324.432 480.048 336.232C494.725 348.033 516.807 344.934 529.369 329.31Z" fill="#FF9A76"/>
<path d="M529.213 329.184C541.706 313.646 540.005 291.539 525.414 279.808C510.823 268.076 488.867 271.162 476.374 286.7C463.881 302.238 465.582 324.344 480.173 336.076C494.765 347.807 516.72 344.722 529.213 329.184Z" fill="#FF9975"/>
<path d="M529.057 329.057C541.447 313.649 539.731 291.703 525.226 280.041C510.721 268.378 488.919 271.415 476.53 286.824C464.141 302.233 465.856 324.179 480.361 335.841C494.866 347.504 516.668 344.466 529.057 329.057Z" fill="#FF9875"/>
<path d="M528.902 328.933C541.221 313.611 539.52 291.791 525.101 280.198C510.682 268.605 489.006 271.628 476.686 286.951C464.366 302.274 466.068 324.093 480.487 335.687C494.906 347.28 516.582 344.256 528.902 328.933Z" fill="#FF9774"/>
<path d="M528.668 328.744C540.884 313.551 539.203 291.92 524.913 280.43C510.623 268.941 489.136 271.944 476.92 287.138C464.704 302.332 466.385 323.962 480.675 335.452C494.965 346.941 516.452 343.938 528.668 328.744Z" fill="#FF9674"/>
<path d="M528.512 328.62C540.659 313.513 538.992 292.008 524.788 280.588C510.584 269.167 489.223 272.157 477.076 287.264C464.929 302.372 466.596 323.877 480.8 335.297C495.004 346.717 516.365 343.728 528.512 328.62Z" fill="#FF9573"/>
<path d="M528.356 328.494C540.434 313.473 538.78 292.094 524.663 280.743C510.545 269.392 489.309 272.367 477.232 287.389C465.154 302.411 466.808 323.79 480.926 335.14C495.043 346.491 516.279 343.516 528.356 328.494Z" fill="#FF9472"/>
<path d="M528.2 328.37C540.174 313.478 538.506 292.259 524.474 280.978C510.443 269.696 489.361 272.623 477.388 287.515C465.414 302.408 467.082 323.626 481.113 334.908C495.145 346.189 516.227 343.262 528.2 328.37Z" fill="#FF9372"/>
<path d="M527.967 328.181C539.871 313.375 538.252 292.31 524.349 281.133C510.447 269.955 489.526 272.896 477.622 287.702C465.717 302.509 467.337 323.573 481.239 334.751C495.141 345.929 516.062 342.987 527.967 328.181Z" fill="#FF9271"/>
<path d="M527.811 328.055C539.612 313.378 537.978 292.474 524.161 281.365C510.345 270.257 489.578 273.15 477.777 287.827C465.977 302.504 467.611 323.408 481.427 334.516C495.243 345.625 516.01 342.732 527.811 328.055Z" fill="#FF9171"/>
<path d="M527.655 327.931C539.387 313.34 537.766 292.562 524.036 281.523C510.306 270.483 489.665 273.362 477.933 287.953C466.202 302.545 467.822 323.322 481.552 334.362C495.283 345.401 515.923 342.522 527.655 327.931Z" fill="#FF9070"/>
<path d="M527.499 327.805C539.162 313.3 537.555 292.648 523.911 281.678C510.267 270.708 489.752 273.573 478.089 288.078C466.427 302.583 468.033 323.235 481.678 334.205C495.322 345.175 515.837 342.31 527.499 327.805Z" fill="#FF8F70"/>
<path d="M527.266 327.618C538.824 313.242 537.238 292.779 523.723 281.912C510.208 271.046 489.882 273.891 478.323 288.267C466.765 302.643 468.351 323.106 481.866 333.972C495.381 344.839 515.707 341.994 527.266 327.618Z" fill="#FF8E6F"/>
<path d="M527.11 327.492C538.599 313.202 537.027 292.865 523.598 282.068C510.169 271.27 489.968 274.102 478.479 288.392C466.99 302.681 468.562 323.018 481.991 333.816C495.42 344.613 515.62 341.782 527.11 327.492Z" fill="#FF8D6F"/>
<path d="M526.954 327.366C538.374 313.162 536.815 292.951 523.472 282.223C510.129 271.495 490.055 274.312 478.635 288.516C467.215 302.72 468.774 322.931 482.117 333.659C495.459 344.387 515.534 341.569 526.954 327.366Z" fill="#FF8C6E"/>
<path d="M526.798 327.241C538.114 313.167 536.541 293.116 523.284 282.458C510.027 271.799 490.107 274.568 478.791 288.643C467.474 302.717 469.048 322.768 482.304 333.426C495.561 344.085 515.482 341.316 526.798 327.241Z" fill="#FF8B6E"/>
<path d="M526.564 327.053C537.811 313.064 536.287 293.168 523.159 282.613C510.032 272.058 490.272 274.841 479.025 288.83C467.778 302.818 469.302 322.715 482.43 333.27C495.558 343.825 515.317 341.041 526.564 327.053Z" fill="#FF8A6D"/>
<path d="M526.408 326.928C537.552 313.069 536.013 293.333 522.971 282.848C509.929 272.362 490.324 275.097 479.181 288.956C468.037 302.816 469.576 322.551 482.618 333.037C495.659 343.523 515.265 340.788 526.408 326.928Z" fill="#FF896C"/>
<path d="M526.253 326.802C537.327 313.029 535.801 293.419 522.846 283.003C509.89 272.586 490.411 275.307 479.336 289.081C468.262 302.854 469.788 322.464 482.743 332.88C495.699 343.297 515.179 340.576 526.253 326.802Z" fill="#FF886C"/>
<path d="M526.097 326.678C537.102 312.991 535.59 293.507 522.721 283.16C509.851 272.813 490.497 275.52 479.492 289.207C468.488 302.895 469.999 322.378 482.869 332.726C495.738 343.073 515.092 340.365 526.097 326.678Z" fill="#FF876B"/>
<path d="M525.861 326.489C536.762 312.931 535.271 293.636 522.531 283.393C509.79 273.149 490.625 275.836 479.724 289.394C468.823 302.952 470.314 322.247 483.055 332.491C495.795 342.734 514.96 340.047 525.861 326.489Z" fill="#FF866B"/>
<path d="M525.705 326.363C536.537 312.891 535.06 293.722 522.405 283.548C509.751 273.373 490.712 276.047 479.88 289.519C469.048 302.991 470.526 322.16 483.18 332.334C495.834 342.509 514.874 339.835 525.705 326.363Z" fill="#FF856A"/>
<path d="M525.549 326.239C536.277 312.896 534.786 293.888 522.217 283.783C509.649 273.678 490.764 276.302 480.036 289.645C469.308 302.988 470.8 321.996 483.368 332.102C495.936 342.207 514.821 339.582 525.549 326.239Z" fill="#FF846A"/>
<path d="M525.394 326.113C536.052 312.856 534.574 293.974 522.092 283.938C509.61 273.902 490.851 276.513 480.192 289.77C469.533 303.027 471.011 321.909 483.493 331.945C495.975 341.981 514.735 339.37 525.394 326.113Z" fill="#FF8369"/>
<path d="M525.16 325.926C535.75 312.755 534.32 294.027 521.967 284.095C509.614 274.163 491.016 276.788 480.426 289.959C469.836 303.13 471.266 321.858 483.619 331.79C495.972 341.722 514.57 339.097 525.16 325.926Z" fill="#FF8269"/>
<path d="M525.004 325.8C535.49 312.758 534.046 294.19 521.779 284.328C509.512 274.465 491.068 277.042 480.582 290.083C470.096 303.125 471.54 321.693 483.807 331.555C496.074 341.418 514.518 338.841 525.004 325.8Z" fill="#FF8168"/>
<path d="M524.848 325.676C535.265 312.72 533.835 294.278 521.654 284.485C509.473 274.691 491.154 277.254 480.738 290.21C470.321 303.165 471.751 321.607 483.932 331.401C496.113 341.194 514.432 338.631 524.848 325.676Z" fill="#FF8067"/>
<path d="M524.692 325.549C535.005 312.723 533.56 294.442 521.466 284.718C509.371 274.993 491.206 277.508 480.893 290.334C470.581 303.161 472.025 321.442 484.12 331.166C496.215 340.891 514.38 338.376 524.692 325.549Z" fill="#FF7F67"/>
<path d="M524.459 325.361C534.702 312.62 533.306 294.493 521.341 284.873C509.375 275.252 491.371 277.781 481.128 290.521C470.884 303.262 472.28 321.389 484.246 331.009C496.211 340.63 514.215 338.101 524.459 325.361Z" fill="#FF7E66"/>
<path d="M524.303 325.237C534.477 312.582 533.095 294.581 521.215 285.03C509.336 275.478 491.458 277.994 481.283 290.648C471.109 303.302 472.492 321.303 484.371 330.855C496.251 340.406 514.129 337.891 524.303 325.237Z" fill="#FF7D66"/>
<path d="M524.147 325.11C534.217 312.585 532.821 294.745 521.027 285.263C509.234 275.78 491.51 278.247 481.439 290.772C471.369 303.298 472.766 321.138 484.559 330.62C496.352 340.102 514.076 337.635 524.147 325.11Z" fill="#FF7C65"/>
<path d="M523.991 324.986C533.992 312.547 532.609 294.833 520.902 285.42C509.195 276.007 491.596 278.46 481.595 290.899C471.594 303.338 472.977 321.053 484.684 330.466C496.392 339.878 513.99 337.425 523.991 324.986Z" fill="#FF7B65"/>
<path d="M523.758 324.797C533.69 312.444 532.355 294.884 520.777 285.575C509.199 276.266 491.761 278.733 481.829 291.086C471.897 303.439 473.232 321 484.81 330.309C496.388 339.618 513.826 337.15 523.758 324.797Z" fill="#FF7A64"/>
<path d="M523.602 324.671C533.43 312.447 532.081 295.048 520.589 285.808C509.097 276.568 491.813 278.987 481.985 291.211C472.157 303.434 473.506 320.834 484.998 330.074C496.49 339.314 513.773 336.895 523.602 324.671Z" fill="#FF7964"/>
<path d="M523.446 324.547C533.205 312.409 531.87 295.135 520.464 285.965C509.058 276.794 491.9 279.199 482.141 291.337C472.382 303.475 473.717 320.749 485.123 329.919C496.529 339.09 513.687 336.685 523.446 324.547Z" fill="#FF7863"/>
<path d="M523.29 324.421C532.945 312.412 531.595 295.299 520.276 286.198C508.956 277.096 491.952 279.453 482.297 291.462C472.642 303.47 473.991 320.583 485.311 329.685C496.631 338.786 513.635 336.43 523.29 324.421Z" fill="#FF7762"/>
<path d="M523.056 324.234C532.642 312.311 531.341 295.352 520.15 286.355C508.96 277.357 492.117 279.728 482.531 291.651C472.945 303.573 474.246 320.532 485.437 329.53C496.627 338.528 513.47 336.157 523.056 324.234Z" fill="#FF7762"/>
<path d="M522.901 324.108C532.417 312.272 531.13 295.438 520.025 286.51C508.92 277.581 492.203 279.939 482.687 291.775C473.17 303.612 474.457 320.445 485.562 329.373C496.667 338.302 513.384 335.944 522.901 324.108Z" fill="#FF7661"/>
<path d="M522.745 323.984C532.157 312.276 530.856 295.604 519.837 286.745C508.818 277.885 492.255 280.194 482.842 291.902C473.43 303.609 474.731 320.281 485.75 329.141C496.769 338 513.332 335.691 522.745 323.984Z" fill="#FF7561"/>
<path d="M522.589 323.858C531.932 312.236 530.644 295.69 519.712 286.9C508.779 278.11 492.342 280.405 482.998 292.026C473.655 303.647 474.943 320.194 485.875 328.984C496.808 337.774 513.245 335.479 522.589 323.858Z" fill="#FF7460"/>
<path d="M522.355 323.669C531.595 312.177 530.327 295.819 519.524 287.133C508.721 278.446 492.472 280.721 483.232 292.213C473.992 303.705 475.26 320.063 486.063 328.749C496.867 337.435 513.115 335.161 522.355 323.669Z" fill="#FF7360"/>
<path d="M522.199 323.545C531.37 312.139 530.116 295.907 519.399 287.29C508.681 278.673 492.559 280.934 483.388 292.34C474.218 303.746 475.471 319.978 486.189 328.595C496.906 337.212 513.029 334.951 522.199 323.545Z" fill="#FF725F"/>
<path d="M522.043 323.419C531.145 312.099 529.905 295.993 519.273 287.445C508.642 278.897 492.646 281.144 483.544 292.464C474.443 303.784 475.683 319.89 486.314 328.438C496.945 336.986 512.942 334.739 522.043 323.419Z" fill="#FF715F"/>
<path d="M521.887 323.294C530.885 312.103 529.631 296.158 519.085 287.68C508.54 279.201 492.698 281.4 483.7 292.591C474.702 303.782 475.957 319.727 486.502 328.205C497.047 336.684 512.89 334.485 521.887 323.294Z" fill="#FF705E"/>
<path d="M521.654 323.105C530.582 312.001 529.376 296.21 518.96 287.835C508.544 279.46 492.862 281.673 483.934 292.778C475.006 303.883 476.211 319.674 486.628 328.049C497.044 336.423 512.725 334.21 521.654 323.105Z" fill="#FF6F5E"/>
<path d="M521.498 322.979C530.357 311.961 529.165 296.295 518.835 287.99C508.505 279.684 492.949 281.884 484.09 292.902C475.231 303.921 476.423 319.586 486.753 327.892C497.083 336.198 512.639 333.998 521.498 322.979Z" fill="#FF6E5D"/>
<path d="M521.342 322.855C530.098 311.966 528.891 296.461 518.647 288.225C508.403 279.988 493.001 282.139 484.246 293.029C475.49 303.918 476.697 319.423 486.941 327.659C497.185 335.896 512.587 333.745 521.342 322.855Z" fill="#FF6D5C"/>
<path d="M521.186 322.729C529.873 311.926 528.68 296.547 518.522 288.38C508.364 280.213 493.088 282.35 484.402 293.153C475.715 303.957 476.908 319.336 487.066 327.503C497.224 335.67 512.5 333.533 521.186 322.729Z" fill="#FF6C5C"/>
<path d="M521.03 322.605C529.613 311.931 528.405 296.713 518.334 288.615C508.262 280.517 493.14 282.606 484.557 293.28C475.975 303.954 477.182 319.172 487.254 327.27C497.326 335.368 512.448 333.279 521.03 322.605Z" fill="#FF6B5B"/>
<path d="M520.797 322.416C529.31 311.828 528.151 296.764 518.209 288.77C508.266 280.776 493.305 282.879 484.791 293.467C476.278 304.055 477.437 319.119 487.38 327.113C497.322 335.107 512.284 333.004 520.797 322.416Z" fill="#FF6A5B"/>
<path d="M520.641 322.292C529.085 311.79 527.94 296.852 518.083 288.927C508.227 281.002 493.391 283.091 484.947 293.594C476.503 304.096 477.649 319.034 487.505 326.959C497.362 334.883 512.197 332.794 520.641 322.292Z" fill="#FF695A"/>
<path d="M520.485 322.166C528.825 311.793 527.666 297.015 517.895 289.16C508.125 281.304 493.443 283.345 485.103 293.718C476.763 304.091 477.922 318.868 487.693 326.724C497.463 334.58 512.145 332.539 520.485 322.166Z" fill="#FF685A"/>
<path d="M520.329 322.04C528.6 311.753 527.454 297.101 517.77 289.315C508.086 281.529 493.53 283.556 485.259 293.843C476.988 304.13 478.134 318.781 487.818 326.567C497.503 334.354 512.058 332.327 520.329 322.04Z" fill="#FF6759"/>
<path d="M520.096 321.853C528.263 311.695 527.137 297.232 517.582 289.55C508.027 281.867 493.66 283.874 485.493 294.031C477.326 304.189 478.451 318.652 488.006 326.334C497.562 334.017 511.928 332.011 520.096 321.853Z" fill="#FF6659"/>
<path d="M519.94 321.727C528.038 311.655 526.926 297.318 517.457 289.705C507.988 282.091 493.747 284.084 485.649 294.156C477.551 304.228 478.663 318.564 488.132 326.178C497.601 333.791 511.842 331.798 519.94 321.727Z" fill="#FF6558"/>
<path d="M519.784 321.603C527.813 311.617 526.715 297.406 517.332 289.862C507.948 282.318 493.833 284.297 485.805 294.283C477.776 304.268 478.874 318.479 488.257 326.023C497.64 333.567 511.755 331.588 519.784 321.603Z" fill="#FF6457"/>
<path d="M519.628 321.476C527.553 311.62 526.44 297.57 517.143 290.095C507.847 282.62 493.885 284.551 485.961 294.407C478.036 304.264 479.148 318.314 488.445 325.789C497.742 333.264 511.703 331.333 519.628 321.476Z" fill="#FF6357"/>
<path d="M519.394 321.289C527.25 311.519 526.186 297.623 517.018 290.252C507.851 282.881 494.05 284.826 486.195 294.596C478.339 304.367 479.403 318.263 488.571 325.634C497.738 333.005 511.539 331.06 519.394 321.289Z" fill="#FF6256"/>
<path d="M519.238 321.163C526.99 311.522 525.912 297.787 516.83 290.485C507.749 283.183 494.102 285.079 486.35 294.721C478.599 304.362 479.677 318.097 488.758 325.399C497.84 332.701 511.487 330.805 519.238 321.163Z" fill="#FF6156"/>
<path d="M519.083 321.037C526.765 311.482 525.701 297.873 516.705 290.64C507.709 283.407 494.189 285.29 486.506 294.845C478.824 304.4 479.888 318.01 488.884 325.242C497.88 332.475 511.4 330.592 519.083 321.037Z" fill="#FF6055"/>
<path d="M518.927 320.913C526.54 311.444 525.489 297.961 516.58 290.797C507.67 283.634 494.276 285.503 486.662 294.972C479.049 304.441 480.1 317.924 489.009 325.088C497.919 332.251 511.313 330.382 518.927 320.913Z" fill="#FF5F55"/>
<path d="M518.693 320.724C526.203 311.384 525.172 298.089 516.392 291.03C507.611 283.97 494.406 285.819 486.896 295.159C479.387 304.499 480.417 317.793 489.197 324.853C497.978 331.913 511.184 330.064 518.693 320.724Z" fill="#FF5E54"/>
<path d="M518.535 320.6C525.976 311.346 524.959 298.177 516.265 291.187C507.57 284.196 494.49 286.031 487.05 295.285C479.61 304.539 480.626 317.708 489.321 324.698C498.015 331.689 511.095 329.854 518.535 320.6Z" fill="#FF5D54"/>
<path d="M518.38 320.474C525.751 311.306 524.748 298.263 516.139 291.342C507.531 284.421 494.577 286.242 487.206 295.41C479.835 304.578 480.838 317.621 489.446 324.542C498.054 331.463 511.008 329.642 518.38 320.474Z" fill="#FF5C53"/>
<path d="M518.224 320.348C525.491 311.309 524.474 298.427 515.951 291.575C507.429 284.723 494.629 286.496 487.362 295.534C480.094 304.573 481.112 317.455 489.634 324.307C498.156 331.159 510.956 329.387 518.224 320.348Z" fill="#FF5B53"/>
<path d="M517.99 320.161C525.188 311.208 524.219 298.48 515.826 291.732C507.433 284.984 494.794 286.771 487.596 295.723C480.398 304.676 481.366 317.404 489.76 324.152C498.153 330.901 510.792 329.114 517.99 320.161Z" fill="#FF5A52"/>
<path d="M517.834 320.035C524.928 311.211 523.945 298.644 515.638 291.965C507.331 285.286 494.846 287.024 487.752 295.848C480.657 304.671 481.64 317.239 489.947 323.918C498.255 330.597 510.74 328.858 517.834 320.035Z" fill="#FF5951"/>
<path d="M517.678 319.911C524.703 311.173 523.734 298.732 515.513 292.122C507.292 285.512 494.933 287.237 487.908 295.974C480.882 304.712 481.852 317.153 490.073 323.763C498.294 330.373 510.653 328.648 517.678 319.911Z" fill="#FF5851"/>
<path d="M517.522 319.785C524.478 311.133 523.523 298.818 515.388 292.277C507.253 285.736 495.019 287.448 488.063 296.099C481.108 304.75 482.063 317.066 490.198 323.606C498.333 330.147 510.567 328.436 517.522 319.785Z" fill="#FF5750"/>
<path d="M517.289 319.598C524.141 311.075 523.206 298.949 515.2 292.512C507.194 286.075 495.149 287.766 488.297 296.288C481.445 304.81 482.381 316.937 490.386 323.374C498.392 329.81 510.437 328.12 517.289 319.598Z" fill="#FF5650"/>
<path d="M517.133 319.472C523.916 311.035 522.994 299.035 515.075 292.667C507.155 286.299 495.236 287.976 488.453 296.412C481.67 304.849 482.592 316.849 490.512 323.217C498.431 329.585 510.35 327.908 517.133 319.472Z" fill="#FF554F"/>
<path d="M516.977 319.345C523.656 311.038 522.72 299.198 514.886 292.9C507.053 286.602 495.288 288.23 488.609 296.537C481.93 304.844 482.866 316.684 490.7 322.982C498.533 329.281 510.298 327.652 516.977 319.345Z" fill="#FF544F"/>
<path d="M516.821 319.221C523.431 311 522.509 299.286 514.761 293.057C507.014 286.828 495.375 288.443 488.765 296.663C482.155 304.884 483.077 316.599 490.825 322.828C498.572 329.057 510.211 327.442 516.821 319.221Z" fill="#FF534E"/>
<path d="M516.588 319.032C523.128 310.898 522.255 299.337 514.636 293.212C507.018 287.087 495.54 288.716 488.999 296.851C482.458 304.985 483.332 316.546 490.951 322.671C498.569 328.796 510.047 327.167 516.588 319.032Z" fill="#FF524E"/>
<path d="M516.432 318.908C522.868 310.902 521.98 299.503 514.448 293.447C506.916 287.391 495.592 288.971 489.155 296.977C482.718 304.983 483.606 316.382 491.138 322.438C498.671 328.494 509.995 326.914 516.432 318.908Z" fill="#FF514D"/>
</g>
<path d="M573.601 275.998C563.801 271.998 551.401 280.398 545.901 294.798C540.401 309.198 543.801 324.198 553.501 328.198C563.301 332.198 575.701 323.798 581.201 309.398C586.701 294.998 583.301 279.998 573.601 275.998Z" fill="#FF9E78"/>
<path d="M572.802 310.598C562.902 316.298 552.702 313.798 545.602 307.398C545.502 311.198 545.002 315.998 544.002 321.498H544.202L542.002 358.498C546.502 349.398 549.102 338.598 550.502 326.498C551.402 327.198 552.302 327.698 553.402 328.198C563.202 332.198 575.602 323.798 581.102 309.398C582.502 305.698 583.402 301.898 583.602 298.398C581.602 303.298 578.102 307.698 572.902 310.698L572.802 310.598Z" fill="url(#paint14_linear_2394_71806)"/>
<path d="M556.002 301.799L565.002 303.499C565.602 289.199 576.502 284.899 576.502 284.899C559.502 277.799 556.002 301.799 556.002 301.799Z" fill="url(#paint15_linear_2394_71806)"/>
<path d="M506.302 118.899C479.402 99.2992 443.202 96.1992 443.202 96.1992C441.602 98.4992 440.702 102.199 441.202 104.899C418.602 103.099 400.702 104.699 400.702 104.699C394.502 131.499 401.402 147.999 409.302 157.499C412.202 160.999 416.302 166.799 428.402 172.799C428.402 172.799 441.702 184.699 462.202 186.099C480.602 187.299 506.802 175.099 506.802 175.099C525.202 175.499 548.202 233.699 548.502 279.699C548.502 290.199 558.302 278.499 558.302 278.499C558.302 278.499 559.802 267.099 559.802 250.599C559.802 250.499 578.202 178.899 563.602 150.499" fill="url(#paint16_linear_2394_71806)"/>
<path d="M401.502 144C373.602 151.1 378.602 251.9 378.502 268.4C378.502 269.6 378.302 270.4 378.102 271.7C378.102 272.3 380.202 272.2 380.102 271.7C379.902 270.7 380.202 269.1 380.302 268.5C385.502 238.2 412.802 172.9 428.102 172.8C428.102 172.8 413.902 163.4 401.402 144.1L401.502 144Z" fill="#59352C"/>
<g opacity="0.6">
<path d="M434.029 335.803C451.66 327.356 458.622 305.205 449.577 286.328C440.533 267.451 418.908 258.997 401.276 267.444C383.645 275.892 376.683 298.043 385.728 316.92C394.772 335.796 416.397 344.251 434.029 335.803Z" fill="#FF9E78"/>
<path d="M433.899 335.532C451.431 327.132 458.37 305.141 449.398 286.414C440.425 267.687 418.939 259.314 401.407 267.714C383.875 276.114 376.936 298.105 385.909 316.833C394.881 335.56 416.367 343.932 433.899 335.532Z" fill="#FF9D77"/>
<path d="M433.812 335.352C451.194 327.024 458.05 305.171 449.125 286.544C440.201 267.916 418.874 259.566 401.492 267.895C384.109 276.223 377.253 298.075 386.178 316.703C395.103 335.331 416.429 343.68 433.812 335.352Z" fill="#FF9C77"/>
<path d="M433.682 335.081C450.965 326.8 457.799 305.108 448.946 286.629C440.092 268.151 418.905 259.884 401.622 268.165C384.339 276.445 377.505 298.138 386.359 316.616C395.212 335.095 416.4 343.361 433.682 335.081Z" fill="#FF9B76"/>
<path d="M433.597 334.902C450.78 326.669 457.572 305.096 448.766 286.718C439.961 268.339 418.892 260.114 401.709 268.347C384.526 276.58 377.734 298.153 386.54 316.532C395.345 334.91 416.413 343.135 433.597 334.902Z" fill="#FF9A76"/>
<path d="M433.468 334.631C450.552 326.446 457.32 305.033 448.586 286.803C439.852 268.574 418.923 260.432 401.839 268.617C384.755 276.802 377.987 298.215 386.721 316.445C395.455 334.674 416.384 342.816 433.468 334.631Z" fill="#FF9975"/>
<path d="M433.38 334.451C450.314 326.337 457.001 305.063 448.314 286.933C439.628 268.803 418.858 260.684 401.924 268.797C384.99 276.911 378.303 298.185 386.99 316.315C395.676 334.445 416.446 342.564 433.38 334.451Z" fill="#FF9875"/>
<path d="M433.294 334.27C450.129 326.204 456.773 305.049 448.135 287.019C439.496 268.989 418.846 260.912 402.011 268.978C385.177 277.043 378.532 298.198 387.171 316.228C395.809 334.258 416.46 342.336 433.294 334.27Z" fill="#FF9774"/>
<path d="M433.165 333.999C449.9 325.981 456.522 304.986 447.955 287.105C439.388 269.225 418.877 261.229 402.141 269.248C385.406 277.266 378.785 298.261 387.352 316.141C395.919 334.022 416.43 342.017 433.165 333.999Z" fill="#FF9674"/>
<path d="M433.078 333.819C449.713 325.848 456.293 304.972 447.773 287.191C439.254 269.41 418.862 261.457 402.227 269.428C385.591 277.398 379.012 298.274 387.531 316.055C396.05 333.836 416.442 341.789 433.078 333.819Z" fill="#FF9573"/>
<path d="M432.948 333.548C449.434 325.649 455.951 304.952 447.503 287.321C439.055 269.689 418.843 261.799 402.357 269.698C385.87 277.597 379.354 298.293 387.802 315.925C396.249 333.556 416.462 341.446 432.948 333.548Z" fill="#FF9472"/>
<path d="M432.863 333.369C449.249 325.518 455.723 304.941 447.323 287.409C438.923 269.877 418.83 262.029 402.444 269.88C386.057 277.731 379.583 298.308 387.983 315.84C396.383 333.372 416.476 341.22 432.863 333.369Z" fill="#FF9372"/>
<path d="M432.732 333.098C449.018 325.295 455.47 304.877 447.142 287.495C438.813 270.112 418.859 262.347 402.572 270.15C386.285 277.953 379.833 298.371 388.162 315.753C396.49 333.136 416.445 340.901 432.732 333.098Z" fill="#FF9271"/>
<path d="M432.646 332.918C448.783 325.186 455.152 304.907 446.872 287.624C438.591 270.342 418.796 262.599 402.659 270.331C386.521 278.062 380.152 298.341 388.433 315.624C396.713 332.907 416.508 340.649 432.646 332.918Z" fill="#FF9171"/>
<path d="M432.56 332.737C448.598 325.053 454.925 304.894 446.692 287.711C438.459 270.527 418.784 262.827 402.746 270.511C386.708 278.195 380.381 298.354 388.614 315.537C396.847 332.72 416.522 340.421 432.56 332.737Z" fill="#FF9070"/>
<path d="M432.429 332.466C448.367 324.83 454.672 304.831 446.51 287.797C438.349 270.763 418.812 263.144 402.874 270.781C386.936 278.417 380.632 298.416 388.793 315.45C396.954 332.484 416.491 340.102 432.429 332.466Z" fill="#FF8F70"/>
<path d="M432.343 332.285C448.182 324.697 454.444 304.817 446.331 287.883C438.217 270.948 418.8 263.372 402.961 270.961C387.123 278.549 380.861 298.429 388.974 315.363C397.088 332.298 416.505 339.874 432.343 332.285Z" fill="#FF8E6F"/>
<path d="M432.214 332.015C447.903 324.498 454.102 304.797 446.06 288.012C438.018 271.227 418.78 263.714 403.091 271.231C387.402 278.748 381.203 298.449 389.245 315.234C397.287 332.018 416.525 339.532 432.214 332.015Z" fill="#FF8D6F"/>
<path d="M432.128 331.836C447.718 324.367 453.875 304.786 445.881 288.1C437.887 271.415 418.768 263.944 403.179 271.413C387.589 278.882 381.432 298.464 389.426 315.149C397.42 331.834 416.539 339.305 432.128 331.836Z" fill="#FF8C6E"/>
<path d="M432.041 331.655C447.531 324.234 453.646 304.772 445.699 288.187C437.753 271.601 418.754 264.172 403.264 271.593C387.774 279.015 381.659 298.477 389.605 315.062C397.552 331.648 416.551 339.077 432.041 331.655Z" fill="#FF8B6E"/>
<path d="M431.912 331.384C447.302 324.011 453.394 304.709 445.519 288.272C437.644 271.836 418.784 264.49 403.394 271.863C388.004 279.237 381.911 298.539 389.786 314.975C397.661 331.412 416.521 338.758 431.912 331.384Z" fill="#FF8A6D"/>
<path d="M431.826 331.204C447.067 323.902 453.077 304.739 445.249 288.402C437.422 272.065 418.722 264.742 403.481 272.044C388.24 279.346 382.23 298.509 390.057 314.846C397.884 331.182 416.585 338.506 431.826 331.204Z" fill="#FF896C"/>
<path d="M431.695 330.933C446.836 323.678 452.823 304.675 445.068 288.488C437.312 272.301 418.75 265.059 403.609 272.314C388.468 279.568 382.481 298.572 390.236 314.759C397.992 330.946 416.553 338.187 431.695 330.933Z" fill="#FF886C"/>
<path d="M431.609 330.752C446.651 323.546 452.596 304.662 444.888 288.574C437.18 272.487 418.738 265.287 403.696 272.494C388.655 279.701 382.709 298.585 390.417 314.672C398.125 330.76 416.567 337.959 431.609 330.752Z" fill="#FF876B"/>
<path d="M431.48 330.483C446.422 323.324 452.344 304.6 444.708 288.662C437.072 272.724 418.769 265.607 403.826 272.766C388.884 279.925 382.962 298.649 390.598 314.587C398.235 330.525 416.538 337.642 431.48 330.483Z" fill="#FF866B"/>
<path d="M431.392 330.303C446.185 323.215 452.025 304.63 444.436 288.792C436.848 272.953 418.704 265.859 403.911 272.946C389.119 280.034 383.279 298.619 390.867 314.458C398.456 330.296 416.599 337.39 431.392 330.303Z" fill="#FF856A"/>
<path d="M431.306 330.122C445.999 323.083 451.797 304.617 444.257 288.878C436.716 273.139 418.692 266.087 403.999 273.127C389.306 280.166 383.508 298.632 391.048 314.371C398.589 330.11 416.613 337.162 431.306 330.122Z" fill="#FF846A"/>
<path d="M431.177 329.851C445.771 322.859 451.546 304.553 444.077 288.964C436.607 273.374 418.722 266.405 404.129 273.397C389.535 280.389 383.76 298.694 391.229 314.284C398.699 329.874 416.584 336.843 431.177 329.851Z" fill="#FF8369"/>
<path d="M431.089 329.671C445.533 322.751 451.226 304.583 443.805 289.093C436.383 273.604 418.658 266.657 404.214 273.577C389.77 280.497 384.077 298.664 391.498 314.154C398.92 329.644 416.645 336.591 431.089 329.671Z" fill="#FF8269"/>
<path d="M430.96 329.4C445.305 322.527 450.975 304.52 443.625 289.179C436.275 273.839 418.688 266.974 404.344 273.847C390 280.72 384.329 298.727 391.679 314.067C399.029 329.408 416.616 336.272 430.96 329.4Z" fill="#FF8168"/>
<path d="M430.875 329.219C445.119 322.394 450.748 304.506 443.445 289.266C436.143 274.025 418.676 267.202 404.431 274.027C390.186 280.852 384.558 298.74 391.86 313.981C399.163 329.222 416.63 336.044 430.875 329.219Z" fill="#FF8067"/>
<path d="M430.746 328.95C444.891 322.173 450.496 304.445 443.265 289.353C436.035 274.262 418.706 267.522 404.561 274.299C390.416 281.076 384.811 298.804 392.041 313.896C399.272 328.987 416.601 335.727 430.746 328.95Z" fill="#FF7F67"/>
<path d="M430.658 328.77C444.653 322.064 450.176 304.475 442.993 289.483C435.811 274.491 418.642 267.774 404.646 274.479C390.65 281.185 385.128 298.774 392.31 313.766C399.493 328.758 416.662 335.475 430.658 328.77Z" fill="#FF7E66"/>
<path d="M430.572 328.589C444.468 321.931 449.949 304.461 442.814 289.569C435.679 274.677 418.629 268.002 404.733 274.66C390.837 281.318 385.356 298.787 392.492 313.68C399.627 328.572 416.676 335.247 430.572 328.589Z" fill="#FF7D66"/>
<path d="M430.443 328.318C444.24 321.708 449.698 304.398 442.634 289.655C435.57 274.912 418.66 268.319 404.864 274.93C391.067 281.54 385.609 298.85 392.673 313.593C399.736 328.336 416.647 334.928 430.443 328.318Z" fill="#FF7C65"/>
<path d="M430.355 328.138C444.052 321.575 449.468 304.385 442.453 289.741C435.437 275.098 418.646 268.547 404.949 275.11C391.252 281.672 385.836 298.863 392.852 313.506C399.868 328.149 416.659 334.7 430.355 328.138Z" fill="#FF7B65"/>
<path d="M430.226 327.867C443.774 321.376 449.126 304.364 442.182 289.871C435.238 275.377 418.626 268.889 405.079 275.38C391.531 281.871 386.178 298.882 393.123 313.376C400.067 327.87 416.679 334.358 430.226 327.867Z" fill="#FF7A64"/>
<path d="M430.14 327.686C443.588 321.243 448.899 304.351 442.003 289.957C435.106 275.563 418.614 269.117 405.166 275.56C391.718 282.003 386.407 298.895 393.304 313.29C400.2 327.684 416.693 334.129 430.14 327.686Z" fill="#FF7964"/>
<path d="M430.009 327.417C443.358 321.022 448.646 304.289 441.821 290.045C434.996 275.8 418.642 269.437 405.294 275.832C391.946 282.228 386.658 298.96 393.483 313.205C400.308 327.449 416.661 333.812 430.009 327.417Z" fill="#FF7863"/>
<path d="M429.923 327.237C443.122 320.913 448.328 304.32 441.551 290.174C434.774 276.029 418.58 269.689 405.381 276.013C392.182 282.336 386.976 298.93 393.754 313.075C400.531 327.22 416.725 333.561 429.923 327.237Z" fill="#FF7762"/>
<path d="M429.838 327.056C442.937 320.78 448.101 304.306 441.371 290.261C434.642 276.215 418.567 269.917 405.468 276.193C392.369 282.469 387.205 298.943 393.935 312.988C400.664 327.034 416.739 333.332 429.838 327.056Z" fill="#FF7762"/>
<path d="M429.707 326.785C442.706 320.557 447.847 304.243 441.189 290.346C434.532 276.45 418.596 270.234 405.596 276.463C392.597 282.691 387.456 299.005 394.114 312.901C400.772 326.797 416.707 333.013 429.707 326.785Z" fill="#FF7661"/>
<path d="M429.621 326.604C442.521 320.424 447.62 304.229 441.01 290.433C434.4 276.636 418.584 270.462 405.684 276.643C392.784 282.824 387.685 299.018 394.295 312.815C400.905 326.611 416.721 332.785 429.621 326.604Z" fill="#FF7561"/>
<path d="M429.492 326.334C442.242 320.225 447.278 304.209 440.74 290.562C434.201 276.915 418.564 270.804 405.813 276.913C393.063 283.022 388.027 299.038 394.566 312.685C401.104 326.332 416.741 332.443 429.492 326.334Z" fill="#FF7460"/>
<path d="M429.406 326.153C442.057 320.092 447.051 304.196 440.56 290.648C434.069 277.101 418.552 271.032 405.901 277.093C393.25 283.155 388.256 299.051 394.747 312.598C401.238 326.146 416.755 332.214 429.406 326.153Z" fill="#FF7360"/>
<path d="M429.275 325.884C441.826 319.87 446.797 304.134 440.378 290.736C433.959 277.338 418.58 271.352 406.029 277.365C393.478 283.379 388.507 299.115 394.926 312.513C401.345 325.911 416.724 331.898 429.275 325.884Z" fill="#FF725F"/>
<path d="M429.19 325.703C441.641 319.738 446.57 304.121 440.199 290.822C433.827 277.524 418.568 271.58 406.116 277.546C393.664 283.511 388.735 299.128 395.107 312.427C401.479 325.725 416.738 331.669 429.19 325.703Z" fill="#FF715F"/>
<path d="M429.104 325.523C441.406 319.629 446.252 304.151 439.929 290.952C433.605 277.753 418.505 271.832 406.203 277.726C393.901 283.62 389.054 299.098 395.378 312.297C401.702 325.496 416.801 331.417 429.104 325.523Z" fill="#FF705E"/>
<path d="M428.973 325.252C441.175 319.405 445.999 304.087 439.747 291.038C433.495 277.988 418.534 272.149 406.331 277.996C394.129 283.842 389.305 299.161 395.557 312.21C401.809 325.259 416.77 331.098 428.973 325.252Z" fill="#FF6F5E"/>
<path d="M428.887 325.071C440.99 319.273 445.772 304.074 439.567 291.124C433.363 278.174 418.522 272.377 406.418 278.176C394.315 283.975 389.534 299.174 395.738 312.123C401.943 325.073 416.784 330.87 428.887 325.071Z" fill="#FF6E5D"/>
<path d="M428.758 324.8C440.761 319.049 445.52 304.01 439.387 291.21C433.254 278.41 418.552 272.695 406.549 278.446C394.545 284.197 389.786 299.236 395.919 312.036C402.052 324.837 416.754 330.551 428.758 324.8Z" fill="#FF6D5C"/>
<path d="M428.67 324.62C440.524 318.94 445.201 304.04 439.115 291.34C433.03 278.639 418.488 272.947 406.634 278.627C394.78 284.306 390.103 299.206 396.188 311.907C402.273 324.608 416.816 330.299 428.67 324.62Z" fill="#FF6C5C"/>
<path d="M428.541 324.351C440.295 318.719 444.949 303.979 438.936 291.427C432.922 278.876 418.518 273.267 406.764 278.898C395.009 284.53 390.355 299.271 396.369 311.822C402.383 324.373 416.786 329.983 428.541 324.351Z" fill="#FF6B5B"/>
<path d="M428.455 324.17C440.11 318.586 444.722 303.965 438.756 291.514C432.79 279.062 418.506 273.495 406.851 279.079C395.196 284.663 390.584 299.284 396.55 311.735C402.516 324.187 416.8 329.754 428.455 324.17Z" fill="#FF6A5B"/>
<path d="M428.367 323.99C439.873 318.477 444.402 303.995 438.484 291.643C432.566 279.291 418.441 273.747 406.936 279.259C395.43 284.772 390.901 299.254 396.819 311.606C402.737 323.958 416.862 329.502 428.367 323.99Z" fill="#FF695A"/>
<path d="M428.238 323.719C439.644 318.254 444.151 303.932 438.304 291.729C432.458 279.527 418.472 274.064 407.066 279.529C395.66 284.994 391.154 299.316 397 311.519C402.847 323.721 416.832 329.184 428.238 323.719Z" fill="#FF685A"/>
<path d="M428.153 323.538C439.459 318.121 443.923 303.918 438.125 291.815C432.326 279.712 418.459 274.292 407.153 279.709C395.847 285.126 391.383 299.329 397.181 311.432C402.98 323.535 416.846 328.955 428.153 323.538Z" fill="#FF6759"/>
<path d="M428.022 323.267C439.228 317.898 443.67 303.855 437.943 291.901C432.216 279.948 418.488 274.61 407.281 279.979C396.075 285.349 391.633 299.392 397.36 311.345C403.088 323.299 416.815 328.636 428.022 323.267Z" fill="#FF6659"/>
<path d="M427.936 323.087C438.993 317.789 443.352 303.885 437.673 292.031C431.993 280.177 418.425 274.862 407.368 280.16C396.311 285.457 391.952 299.362 397.631 311.216C403.311 323.07 416.879 328.385 427.936 323.087Z" fill="#FF6558"/>
<path d="M427.807 322.818C438.764 317.568 443.101 303.823 437.493 292.119C431.885 280.414 418.456 275.182 407.499 280.432C396.541 285.682 392.204 299.426 397.812 311.131C403.42 322.835 416.849 328.068 427.807 322.818Z" fill="#FF6457"/>
<path d="M427.721 322.637C438.579 317.435 442.873 303.81 437.313 292.205C431.753 280.6 418.444 275.41 407.586 280.612C396.728 285.814 392.433 299.439 397.993 311.044C403.554 322.649 416.863 327.839 427.721 322.637Z" fill="#FF6357"/>
<path d="M427.633 322.457C438.392 317.302 442.644 303.797 437.132 292.291C431.619 280.786 418.429 275.637 407.671 280.792C396.913 285.946 392.66 299.452 398.173 310.957C403.685 322.463 416.875 327.611 427.633 322.457Z" fill="#FF6256"/>
<path d="M427.504 322.186C438.113 317.103 442.302 303.777 436.861 292.421C431.421 281.065 418.41 275.979 407.801 281.062C397.192 286.145 393.002 299.471 398.443 310.827C403.884 322.183 416.895 327.269 427.504 322.186Z" fill="#FF6156"/>
<path d="M427.418 322.005C437.928 316.97 442.075 303.763 436.682 292.507C431.289 281.25 418.397 276.207 407.888 281.242C397.379 286.278 393.231 299.484 398.625 310.741C404.018 321.997 416.909 327.04 427.418 322.005Z" fill="#FF6055"/>
<path d="M427.287 321.734C437.697 316.747 441.822 303.7 436.5 292.593C431.179 281.486 418.426 276.525 408.016 281.512C397.607 286.5 393.482 299.547 398.803 310.654C404.125 321.761 416.878 326.722 427.287 321.734Z" fill="#FF5F55"/>
<path d="M427.201 321.554C437.462 316.638 441.504 303.73 436.23 292.722C430.956 281.715 418.363 276.777 408.103 281.693C397.843 286.609 393.801 299.517 399.074 310.524C404.348 321.532 416.941 326.47 427.201 321.554Z" fill="#FF5E54"/>
<path d="M427.072 321.285C437.233 316.417 441.252 303.668 436.05 292.81C430.848 281.952 418.394 277.097 408.233 281.965C398.073 286.833 394.053 299.581 399.255 310.439C404.458 321.297 416.912 326.153 427.072 321.285Z" fill="#FF5D54"/>
<path d="M426.985 321.104C437.046 316.284 441.023 303.655 435.869 292.896C430.714 282.138 418.38 277.324 408.319 282.145C398.258 286.965 394.28 299.594 399.435 310.353C404.589 321.111 416.924 325.924 426.985 321.104Z" fill="#FF5C53"/>
<path d="M426.899 320.924C436.86 316.151 440.796 303.641 435.689 292.983C430.582 282.324 418.367 277.552 408.406 282.325C398.444 287.098 394.509 299.607 399.616 310.266C404.723 320.925 416.938 325.696 426.899 320.924Z" fill="#FF5B53"/>
<path d="M426.77 320.653C436.582 315.952 440.454 303.621 435.419 293.112C430.384 282.603 418.348 277.894 408.536 282.595C398.724 287.296 394.851 299.627 399.887 310.136C404.922 320.645 416.958 325.354 426.77 320.653Z" fill="#FF5A52"/>
<path d="M426.684 320.472C436.396 315.819 440.227 303.608 435.239 293.198C430.252 282.788 418.335 278.122 408.623 282.775C398.911 287.429 395.08 299.64 400.068 310.049C405.055 320.459 416.972 325.125 426.684 320.472Z" fill="#FF5951"/>
<path d="M426.553 320.201C436.166 315.595 439.973 303.544 435.057 293.284C430.142 283.024 418.364 278.44 408.751 283.046C399.138 287.651 395.331 299.702 400.247 309.963C405.163 320.223 416.94 324.807 426.553 320.201Z" fill="#FF5851"/>
<path d="M426.467 319.921C435.98 315.363 439.746 303.431 434.878 293.271C430.01 283.11 418.351 278.568 408.838 283.126C399.325 287.684 395.56 299.616 400.428 309.776C405.296 319.937 416.954 324.479 426.467 319.921Z" fill="#FF5750"/>
<path d="M426.338 319.65C435.702 315.164 439.404 303.411 434.608 293.4C429.811 283.389 418.332 278.91 408.968 283.396C399.604 287.883 395.902 299.635 400.699 309.646C405.495 319.658 416.974 324.136 426.338 319.65Z" fill="#FF5650"/>
<path d="M426.25 319.469C435.514 315.031 439.175 303.398 434.426 293.486C429.677 283.575 418.317 279.138 409.053 283.576C399.789 288.015 396.129 299.648 400.878 309.56C405.627 319.471 416.986 323.908 426.25 319.469Z" fill="#FF554F"/>
<path d="M426.165 319.291C435.329 314.9 438.947 303.386 434.246 293.574C429.545 283.762 418.305 279.368 409.141 283.759C399.976 288.149 396.358 299.663 401.059 309.475C405.76 319.287 417 323.682 426.165 319.291Z" fill="#FF544F"/>
<path d="M426.036 319.02C435.101 314.677 438.696 303.323 434.067 293.66C429.437 283.998 418.336 279.685 409.271 284.029C400.206 288.372 396.61 299.726 401.24 309.388C405.869 319.051 416.971 323.363 426.036 319.02Z" fill="#FF534E"/>
<path d="M425.948 318.839C434.863 314.568 438.376 303.353 433.795 293.79C429.213 284.227 418.271 279.937 409.356 284.209C400.44 288.481 396.927 299.696 401.509 309.259C406.091 318.821 417.032 323.111 425.948 318.839Z" fill="#FF524E"/>
<path d="M425.819 318.568C434.635 314.344 438.125 303.289 433.615 293.876C429.105 284.462 418.302 280.255 409.486 284.479C400.67 288.703 397.18 299.758 401.69 309.172C406.2 318.585 417.003 322.792 425.819 318.568Z" fill="#FF514D"/>
</g>
<path opacity="0.1" d="M558.101 147.999C555.501 143.999 552.501 141.599 549.301 140.299C546.301 140.699 543.201 141.299 540.001 141.899C530.501 143.599 520.501 144.599 510.901 142.899C499.801 140.899 490.101 135.399 480.401 129.899C475.501 127.099 470.601 124.299 465.501 121.899C454.601 116.599 441.801 111.399 429.501 111.199C423.401 111.199 417.401 112.699 411.701 114.699C406.401 116.499 402.101 119.499 398.801 122.499C398.101 123.099 396.601 124.099 395.201 124.999C395.201 129.499 395.501 133.599 396.101 137.299C396.701 136.999 397.201 136.699 397.401 136.599C399.501 135.199 402.101 133.799 405.101 132.699C408.101 131.599 411.501 130.699 415.201 130.599C429.801 130.199 443.001 136.599 455.901 142.599C461.201 145.099 466.501 147.899 472.201 150.599C477.901 153.299 483.801 155.899 490.001 158.099C500.401 161.799 513.301 163.399 524.301 160.899C525.801 160.599 527.201 160.299 528.701 159.899C534.401 158.399 539.301 156.299 543.601 154.399C547.901 152.399 551.601 150.599 554.801 149.299C555.901 148.799 557.001 148.399 558.001 148.099L558.101 147.999Z" fill="#FFBC80"/>
<path d="M485.002 279.299C488.302 277.799 491.202 275.799 494.802 274.799C499.102 273.599 503.602 272.899 508.102 272.699C514.502 272.399 524.002 272.499 528.402 277.999C528.702 276.599 531.602 263.999 530.502 254.799C529.402 245.099 485.202 223.199 485.202 223.199C485.202 223.199 465.802 259.099 483.102 281.099C483.402 280.399 484.002 279.699 484.902 279.299H485.002Z" fill="url(#paint17_linear_2394_71806)"/>
<path d="M395.701 273.9C403.001 270.8 409.901 269.7 417.801 270.9C421.501 271.4 425.201 272.3 428.501 274.1C431.501 275.7 432.301 278.3 434.801 280.3C435.401 280.8 435.801 281.5 435.901 282.2C455.901 261.4 448.301 223 448.301 223C448.301 223 402.401 243.6 399.401 252.2C396.601 260.1 394.601 273 394.301 275.1C394.601 274.7 395.101 274.3 395.801 274L395.701 273.9Z" fill="url(#paint18_linear_2394_71806)"/>
<path d="M421.501 330.898C421.501 330.898 416.501 350.598 458.301 351.198C498.801 351.698 494.101 332.198 494.101 332.198L421.501 330.998V330.898Z" fill="#FB755C"/>
<path d="M418.001 265.998C395.801 263.098 394.201 275.298 394.201 275.298C394.201 275.298 402.301 272.898 414.201 274.598C431.301 277.098 435.801 282.198 435.801 282.198C435.801 282.198 441.001 268.998 417.901 265.998H418.001Z" fill="#603F37"/>
<path d="M399.301 252.2C419.701 240 437.501 245.8 446.701 237.8C450.201 234.8 448.201 223 448.201 223C399.801 227.2 399.301 252.2 399.301 252.2Z" fill="url(#paint19_linear_2394_71806)"/>
<path d="M485.201 223.299C485.201 223.299 479.001 234.799 481.301 238.299C488.601 249.299 515.501 244.499 530.601 257.599C530.601 257.599 534.501 235.799 485.101 223.299H485.201Z" fill="url(#paint20_linear_2394_71806)"/>
<path d="M505.901 267.999C483.401 269.199 483.301 281.399 483.301 281.399C483.301 281.399 488.501 278.899 507.401 277.999C525.901 277.099 528.301 278.199 528.301 278.199C528.301 278.199 529.201 266.799 505.901 267.999Z" fill="#603F37"/>
<path opacity="0.1" d="M467.702 366.799C461.202 367.899 456.202 367.599 452.902 367.099C449.702 366.599 447.102 369.199 447.702 372.399C448.402 375.799 451.402 379.099 461.102 378.699C470.502 378.299 473.202 375.099 473.502 371.999C473.802 368.899 470.802 366.199 467.702 366.799Z" fill="black"/>
<path d="M449.2 289.3C449.2 289.3 432.8 285.8 428.5 300.1C423 318.2 459.1 329.9 469.5 311.1C479.9 292.3 454.7 256.1 454.7 256.1C454.7 256.1 460.5 274.7 449.2 289.3Z" fill="#FF9E78"/>
<path d="M428.002 305.199C429.802 320.199 460.102 328.099 469.502 311.099C470.102 310.099 470.502 308.999 470.902 307.799C456.502 310.499 441.602 309.299 428.002 305.199Z" fill="url(#paint21_linear_2394_71806)"/>
<path opacity="0.2" d="M460.002 275.3L455.902 275.1C455.902 275.1 453.402 288.2 449.402 290C448.802 290 448.102 289.9 447.502 289.8C440.402 289.4 434.402 291.5 434.302 294.6C434.102 297.7 439.802 300.4 446.902 300.8C453.602 301.2 459.502 300.2 460.402 296.6C460.402 296.6 463.902 282.9 460.102 275.4L460.002 275.3Z" fill="white"/>
<path opacity="0.1" d="M513.702 177.598C521.502 173.998 528.802 169.598 535.102 163.698C537.302 161.698 534.102 158.498 531.902 160.498C524.502 166.998 515.802 171.098 507.002 174.998C509.202 174.998 511.502 175.998 513.802 177.698L513.702 177.598Z" fill="black"/>
<path opacity="0.6" d="M421.701 280.6C416.501 280.6 411.401 280.2 406.401 278.9C403.701 278.2 402.701 282.1 405.301 283C410.801 285 416.501 285.7 422.301 284.8C424.701 284.4 424.101 280.5 421.701 280.5V280.6Z" fill="#ED6954"/>
<path opacity="0.6" d="M514.3 283.1C509.1 283.5 503.901 283.7 498.701 283.6C496.401 283.6 495.801 287.3 498.101 287.7C503.601 288.7 509.401 288.7 514.901 287.5C517.301 287 516.8 283 514.3 283.2V283.1Z" fill="#ED6954"/>
<path d="M684.8 629.3C684.8 628.6 684.8 627.9 684.7 627.2C684.3 624.2 670.5 604.9 667 599.9C667 599.9 649.1 592.9 642.2 593.6C635.3 594.3 606.6 618.8 606.6 618.8L674.9 642.3C674.9 642.3 681.6 633.9 684.9 629.4L684.8 629.3Z" fill="url(#paint22_linear_2394_71806)"/>
<path d="M248.301 629.2C249.201 638.8 251.801 666.2 253.201 667.5C254.901 669.1 330.301 652 330.301 652L328.701 608.2C328.701 608.2 309.201 600.2 302.301 599.9C295.401 599.6 255.701 612.9 255.701 612.9C254.401 615.7 251.201 622.599 248.401 629.099L248.301 629.2Z" fill="url(#paint23_linear_2394_71806)"/>
<path d="M677.499 623.799C677.499 623.799 664.199 604.799 648.499 600.799C632.799 596.899 597.799 582.399 589.399 577.799C584.399 575.099 569.099 560.999 566.299 554.599C565.499 552.899 529.399 603.199 531.299 604.399C533.099 605.599 588.699 676.899 610.199 681.499C631.699 685.999 662.199 677.899 668.499 672.099C674.799 666.399 679.099 628.299 677.599 623.699L677.499 623.799Z" fill="#FF9E78"/>
<path d="M441.2 605.199C441.2 605.199 357.5 696.199 310.2 704.699C262.9 713.199 253.2 683.299 249.9 671.099C246.7 658.999 253 620.199 261.5 616.899C270 613.699 317 610.799 340.9 601.099C364.8 591.399 403.6 554.199 409.3 556.599C415 558.999 441.2 605.099 441.2 605.099V605.199Z" fill="#FF9E78"/>
<path d="M552.7 537.399C552.7 537.399 559.5 530.399 559.1 524.699C558.7 518.999 555.3 515.899 553.8 515.799C553.8 515.799 561.4 512.399 563.5 507.199C565.7 501.999 560.6 494.199 553.7 494.699C553.7 494.699 559.7 493.299 561.2 488.899C562.6 484.499 558.2 475.299 545.2 479.899C545.2 479.899 549.3 471.999 539.9 469.499C530.5 466.999 471.9 496.999 471.9 496.999L466.4 492.399C466.4 492.399 473 484.099 473.8 476.099C474.6 468.099 470 460.399 461.5 466.599C453.1 472.799 440.6 482.599 438.6 484.599C436.6 486.599 403.1 556.299 400.6 560.699C399 563.499 440.3 606.399 440.3 606.399C440.3 606.399 478.1 599.199 492.4 589.099C506.8 578.999 550.3 540.499 552.7 537.499V537.399Z" fill="#FF9E78"/>
<path d="M553.6 494.599C553.6 494.599 559.6 493.199 561.1 488.799C562.5 484.399 558.1 475.199 545.1 479.799C545.1 479.799 549.2 471.899 539.8 469.399C530.4 466.899 471.8 496.899 471.8 496.899L466.3 492.299C466.3 492.299 472.9 483.999 473.7 475.999C474.5 467.999 469.9 460.299 461.4 466.499C453 472.699 440.5 482.499 438.5 484.499C436.5 486.499 403 556.199 400.5 560.599C386.3 570.099 359.2 593.699 340.9 601.199C317 610.899 270 613.799 261.5 616.999C253 620.199 246.7 658.999 249.9 671.199C253.1 683.299 262.8 713.299 310.2 704.799C354.5 696.799 430.8 616.499 440.3 606.399C440.3 606.399 478.1 599.199 492.4 589.099C506.8 578.999 550.3 540.499 552.7 537.499C552.7 537.499 559.5 530.499 559.1 524.799C558.7 519.099 555.3 515.999 553.8 515.899C553.8 515.899 561.4 512.499 563.5 507.299C565.7 502.099 560.6 494.299 553.7 494.799L553.6 494.599ZM407.3 605.199C396.1 616.999 325.6 670.699 298.2 676.999C270.8 683.299 252.3 665.499 253.2 650.699C254.1 635.899 269.4 617.199 297.4 615.199C336.4 612.399 367.3 590.099 381.7 578.299C393.5 568.599 418.4 593.499 407.3 605.299V605.199ZM465.9 486.099C464.6 486.399 446.9 479.499 446.9 479.499C451.7 477.799 462.5 463.799 469.2 466.399C474.8 468.499 467.2 485.899 465.9 486.199V486.099ZM512 479.099C512 479.099 531.9 469.599 538.3 470.399C544.6 471.299 544.4 475.999 543.7 478.199C543 480.399 528.3 486.999 527.5 487.199C526.7 487.499 512 478.999 512 478.999V479.099ZM542.3 497.899C541.9 497.699 530.8 489.099 530.4 488.899C530.4 488.899 544.2 480.299 551.2 479.999C558.2 479.699 561.7 487.299 558.1 490.599C554.6 493.799 542.6 498.199 542.3 497.899ZM562.1 505.499C561.7 511.199 551.8 514.199 551.8 514.199C550.8 509.799 544.1 499.099 544 498.899C544 498.899 547.8 496.499 552.6 495.999C557.4 495.499 562.5 499.699 562.1 505.399V505.499Z" fill="url(#paint24_linear_2394_71806)"/>
<path d="M565.6 553.7C565.6 553.7 549.5 508.3 540.9 499.3C532.3 490.3 486.7 468.1 483.6 466.3C480.5 464.5 474.8 469.9 476.8 477.1C478.8 484.4 502 501.7 502 502.9C502 504.1 456.4 482.9 441.2 479.9C426 476.8 421.7 484.6 423.9 489.9C423.9 489.9 420 487.7 413.9 488.9C407.8 490.1 403.9 498 409.8 503.6C409.8 503.6 398.3 505.1 402.2 516.6C406.1 528.1 449.3 553.7 449.3 553.7C449.3 553.7 418 534.6 411.9 533.7C405.8 532.8 398.9 540.3 406.8 550.1C414.7 559.9 454.8 582.6 470.2 591.1C485.6 599.6 532.9 606.7 539.5 612.4C546.1 618.1 572.3 563.8 572.3 563.8C572.3 563.8 568.3 557.3 565.6 553.6V553.7Z" fill="#FF9E78"/>
<path d="M677.5 623.8C677.5 623.8 664.2 604.8 648.5 600.8C632.8 596.9 597.8 582.4 589.4 577.8C585.5 575.7 575.5 566.8 569.8 559.9C568.7 558.2 567.4 556.2 566.3 554.5C566.1 554.5 565.9 554 565.6 553.7C565.6 553.7 549.5 508.3 540.9 499.3C532.3 490.3 486.7 468.1 483.6 466.3C480.5 464.5 474.8 469.9 476.8 477.2C478.8 484.5 502 501.8 502 503C502 504.2 456.4 483 441.2 480C426 476.9 421.7 484.7 423.9 490C423.9 490 420 487.8 413.9 489C407.8 490.2 403.9 498.2 409.8 503.7C409.8 503.7 398.3 505.2 402.2 516.7C405.5 526.4 412.8 533.3 412.8 533.3C404.2 532.5 398.8 540.5 406.8 550.3C414.8 560.1 454.8 582.8 470.2 591.3C484.2 599 524.5 605.6 536.7 611C551.6 628.9 592.4 677.9 610.1 681.6C631.6 686.1 662.1 678 668.4 672.2C674.7 666.5 679 628.4 677.5 623.8ZM666 655.8C659.1 671.6 625.7 656.3 601.4 641.6C577.1 627 548.5 614.8 542.2 604.2C542.2 604.2 489.5 592.3 488.2 592.4C484.5 592.7 442.1 570.6 431.7 564C421.3 557.4 405.6 548 404.5 543.9C403.4 539.9 406.8 533 413.7 535.1C420.6 537.2 458.8 561.9 459.3 561.9C459.8 561.9 462.1 558.3 461.3 558.3C461.1 558.3 415.6 530.6 408.8 523.1C402 515.6 402 506.7 408 505.5C414 504.4 467.9 542.6 468.6 542.8C469.3 543 471.2 540.8 470.8 539.8C470.4 538.7 413.8 504.3 410.7 502.2C407.6 500.1 407.6 491.6 413.4 490.2C419.2 488.7 483.9 522.8 484.4 522.4C484.9 522 486.4 519.6 486.1 518.9C485.8 518.2 426.7 490.9 425.9 490C425.9 490 423.2 484.6 428.5 481.9C433.8 479.2 445.2 481.7 456.9 486.2C468.6 490.7 499.2 506.2 527.7 510.9L528.8 504.8C528.8 504.8 502.7 499.7 493.8 493C484.9 486.2 478.2 478.8 478 473.4C477.9 468 481.8 466.4 490.4 471.1C499 475.8 534.5 494 539.8 501.1C541.1 502.8 556 536.9 562.1 554.6C566 559.7 570.7 566.5 575.2 570.7C597.1 591.1 648.5 600.9 659 609.4C669.7 618.2 673 640 666.1 655.8H666Z" fill="url(#paint25_linear_2394_71806)"/>
<path d="M677.5 623.8C677.5 623.8 664.2 604.8 648.5 600.8C632.8 596.9 597.8 582.4 589.4 577.8C585.5 575.7 575.5 566.8 569.8 559.9C568.7 558.2 567.4 556.2 566.3 554.5C566.1 554.5 565.9 554 565.6 553.7C565.6 553.7 549.5 508.3 540.9 499.3C532.3 490.3 486.7 468.1 483.6 466.3C480.5 464.5 474.8 469.9 476.8 477.2C478.8 484.5 502 501.8 502 503C502 504.2 456.4 483 441.2 480C426 476.9 421.7 484.7 423.9 490C423.9 490 420 487.8 413.9 489C407.8 490.2 403.9 498.2 409.8 503.7C409.8 503.7 398.3 505.2 402.2 516.7C405.5 526.4 412.8 533.3 412.8 533.3C404.2 532.5 398.8 540.5 406.8 550.3C414.8 560.1 454.8 582.8 470.2 591.3C484.2 599 524.5 605.6 536.7 611C551.6 628.9 592.4 677.9 610.1 681.6C631.6 686.1 662.1 678 668.4 672.2C674.7 666.5 679 628.4 677.5 623.8ZM666 655.8C659.1 671.6 625.7 656.3 601.4 641.6C577.1 627 548.5 614.8 542.2 604.2C542.2 604.2 489.5 592.3 488.2 592.4C484.5 592.7 442.1 570.6 431.7 564C421.3 557.4 405.6 548 404.5 543.9C403.4 539.9 406.8 533 413.7 535.1C420.6 537.2 458.8 561.9 459.3 561.9C459.8 561.9 462.1 558.3 461.3 558.3C461.1 558.3 415.6 530.6 408.8 523.1C402 515.6 402 506.7 408 505.5C414 504.4 467.9 542.6 468.6 542.8C469.3 543 471.2 540.8 470.8 539.8C470.4 538.7 413.8 504.3 410.7 502.2C407.6 500.1 407.6 491.6 413.4 490.2C419.2 488.7 483.9 522.8 484.4 522.4C484.9 522 486.4 519.6 486.1 518.9C485.8 518.2 426.7 490.9 425.9 490C425.9 490 423.2 484.6 428.5 481.9C433.8 479.2 445.2 481.7 456.9 486.2C468.6 490.7 499.2 506.2 527.7 510.9L528.8 504.8C528.8 504.8 502.7 499.7 493.8 493C484.9 486.2 478.2 478.8 478 473.4C477.9 468 481.8 466.4 490.4 471.1C499 475.8 534.5 494 539.8 501.1C541.1 502.8 556 536.9 562.1 554.6C566 559.7 570.7 566.5 575.2 570.7C597.1 591.1 648.5 600.9 659 609.4C669.7 618.2 673 640 666.1 655.8H666Z" fill="url(#paint26_linear_2394_71806)"/>
<path d="M451.8 575.3C451.8 575.3 414.4 558 406.7 546.9C400.4 538 410.1 533.2 414.5 535.2C418.8 537.2 459.3 562 459.3 562L451.8 575.3Z" fill="url(#paint27_linear_2394_71806)"/>
<path d="M461.3 558.399C461.3 558.399 421 534.499 411.7 525.799C402.4 517.099 401.1 507.099 408 505.599C414.9 504.099 468.6 542.899 468.6 542.899L461.3 558.399Z" fill="url(#paint28_linear_2394_71806)"/>
<path d="M470.701 539.899C470.701 539.899 411.301 503.099 409.501 501.099C407.701 499.099 406.601 489.099 417.801 490.399C429.001 491.699 483.501 522.099 483.501 522.099L470.601 539.899H470.701Z" fill="url(#paint29_linear_2394_71806)"/>
<path d="M485.999 518.899L425.799 489.999C425.799 489.999 422.099 482.599 430.899 481.099C439.699 479.599 499.499 503.499 499.499 503.499L485.999 518.899Z" fill="url(#paint30_linear_2394_71806)"/>
<path d="M528.699 504.798C528.699 504.798 498.899 499.899 487.299 487.599C475.699 475.199 475.999 469.698 482.199 468.298C488.399 466.898 532.599 495.099 532.999 495.399C533.399 495.699 528.699 504.798 528.699 504.798Z" fill="url(#paint31_linear_2394_71806)"/>
<path d="M504.601 507.898C504.601 507.898 466.201 582.698 469.801 584.498C473.501 586.298 542.001 605.498 542.001 605.498C542.001 605.498 613.201 668.298 652.701 665.398C675.201 663.698 671.201 620.298 660.401 610.698C649.601 601.198 602.901 592.398 579.601 574.398C556.301 556.398 551.801 528.298 550.401 524.798C547.201 517.198 504.701 507.898 504.701 507.898H504.601Z" fill="url(#paint32_linear_2394_71806)"/>
<path d="M305.5 674.698C334.9 669.198 410.5 607.298 413.3 598.498C416.2 589.298 398.2 568.698 389.4 570.998C387.4 571.498 377.4 577.798 375.1 579.498C363.4 588.198 350.9 597.098 340.9 601.098C326.4 606.998 303.4 610.398 285.6 612.798C278.8 615.398 263.7 618.898 263.7 618.898C261.3 621.398 255.2 625.898 253.5 648.098C251.8 670.298 276.1 679.998 305.5 674.598V674.698Z" fill="url(#paint33_linear_2394_71806)"/>
<path d="M512 479.099L527.1 487.299C527.1 487.299 542.6 481.099 543.3 478.899C544 476.699 545.2 470.899 537.4 470.499C529.6 470.099 512 479.199 512 479.199V479.099Z" fill="url(#paint34_linear_2394_71806)"/>
<path d="M530.301 488.899C530.301 488.899 546.401 477.199 554.801 480.199C564.101 483.499 560.001 492.399 551.401 494.999C543.401 497.399 542.301 497.899 542.301 497.899L530.401 488.899H530.301Z" fill="url(#paint35_linear_2394_71806)"/>
<path d="M544 498.899C544 498.899 551 511.299 551.8 514.199C551.8 514.199 565 511.699 561.3 501.399C557.6 491.099 544 498.999 544 498.999V498.899Z" fill="url(#paint36_linear_2394_71806)"/>
<path d="M565.382 156.503C568.404 149.748 544.044 132.278 510.972 117.485C477.9 102.691 448.64 96.1746 445.618 102.93C442.596 109.686 466.957 127.155 500.028 141.949C533.1 156.742 562.36 163.259 565.382 156.503Z" fill="#0C4266"/>
<path d="M565.3 157.101C562.3 163.901 533 157.301 499.9 142.601C466.8 127.801 442.4 109.201 445.4 102.401C446 101.101 447.6 100.601 449.7 101.201C451.8 101.801 474.5 119.301 501.5 131.401C530.5 144.301 562.1 146.101 565.2 154.201C565.6 155.401 565.7 156.401 565.3 157.201V157.101Z" fill="#092E4C"/>
<defs>
<linearGradient id="paint0_linear_2394_71806" x1="456.2" y1="1578" x2="456.2" y2="1495.9" gradientUnits="userSpaceOnUse">
<stop stop-color="white"/>
<stop offset="1" stop-color="#A5B7C6"/>
</linearGradient>
<linearGradient id="paint1_linear_2394_71806" x1="462.801" y1="406.999" x2="462.801" y2="430.799" gradientUnits="userSpaceOnUse">
<stop stop-color="#DB7D67"/>
<stop offset="1" stop-color="#FF9E78"/>
</linearGradient>
<linearGradient id="paint2_linear_2394_71806" x1="463.201" y1="422.6" x2="463.201" y2="557.9" gradientUnits="userSpaceOnUse">
<stop stop-color="#DEEFFF"/>
<stop offset="1" stop-color="#CADBEF"/>
</linearGradient>
<linearGradient id="paint3_linear_2394_71806" x1="555.4" y1="1124.7" x2="540.1" y2="950.499" gradientUnits="userSpaceOnUse">
<stop stop-color="#3D434F"/>
<stop offset="1" stop-color="#333844"/>
</linearGradient>
<linearGradient id="paint4_linear_2394_71806" x1="462.9" y1="575.2" x2="462.9" y2="800.1" gradientUnits="userSpaceOnUse">
<stop stop-color="#B3CBE2"/>
<stop offset="1" stop-color="#CADBEF"/>
</linearGradient>
<linearGradient id="paint5_linear_2394_71806" x1="280.2" y1="1496.6" x2="280.7" y2="1523.7" gradientUnits="userSpaceOnUse">
<stop stop-color="#5B5B60"/>
<stop offset="1" stop-color="#2C2C2D"/>
</linearGradient>
<linearGradient id="paint6_linear_2394_71806" x1="632.5" y1="1496.6" x2="633" y2="1523.8" gradientUnits="userSpaceOnUse">
<stop stop-color="#5B5B60"/>
<stop offset="1" stop-color="#2C2C2D"/>
</linearGradient>
<linearGradient id="paint7_linear_2394_71806" x1="359.401" y1="1126.5" x2="374.801" y2="950.599" gradientUnits="userSpaceOnUse">
<stop stop-color="#3D434F"/>
<stop offset="1" stop-color="#333844"/>
</linearGradient>
<linearGradient id="paint8_linear_2394_71806" x1="462.001" y1="438.298" x2="462.001" y2="460.698" gradientUnits="userSpaceOnUse">
<stop stop-color="#B3CBE2"/>
<stop offset="1" stop-color="#CADBEF"/>
</linearGradient>
<linearGradient id="paint9_linear_2394_71806" x1="460.3" y1="667.4" x2="460.3" y2="840.9" gradientUnits="userSpaceOnUse">
<stop stop-color="#B3CBE2"/>
<stop offset="1" stop-color="#CADBEF"/>
</linearGradient>
<linearGradient id="paint10_linear_2394_71806" x1="402.401" y1="848.699" x2="434.201" y2="848.699" gradientUnits="userSpaceOnUse">
<stop stop-color="#5F6163"/>
<stop offset="1" stop-color="#444749"/>
</linearGradient>
<linearGradient id="paint11_linear_2394_71806" x1="419.9" y1="847.8" x2="434" y2="847.8" gradientUnits="userSpaceOnUse">
<stop stop-color="#5F6163"/>
<stop offset="1" stop-color="#444749"/>
</linearGradient>
<linearGradient id="paint12_linear_2394_71806" x1="355.995" y1="290.261" x2="395.583" y2="291.228" gradientUnits="userSpaceOnUse">
<stop stop-color="#F28C70"/>
<stop offset="1" stop-color="#FF9E78"/>
</linearGradient>
<linearGradient id="paint13_linear_2394_71806" x1="465.811" y1="172.775" x2="465.059" y2="203.565" gradientUnits="userSpaceOnUse">
<stop stop-color="#C6664F"/>
<stop offset="1" stop-color="#FF9E78"/>
</linearGradient>
<linearGradient id="paint14_linear_2394_71806" x1="542.747" y1="327.799" x2="582.835" y2="328.779" gradientUnits="userSpaceOnUse">
<stop stop-color="#F28C70"/>
<stop offset="1" stop-color="#FF9E78"/>
</linearGradient>
<linearGradient id="paint15_linear_2394_71806" x1="556.298" y1="293.12" x2="576.392" y2="293.611" gradientUnits="userSpaceOnUse">
<stop stop-color="#F28C70"/>
<stop offset="1" stop-color="#FF9E78"/>
</linearGradient>
<linearGradient id="paint16_linear_2394_71806" x1="486.894" y1="106.733" x2="481.87" y2="182.869" gradientUnits="userSpaceOnUse">
<stop stop-color="#75483B"/>
<stop offset="0.4" stop-color="#704438"/>
<stop offset="0.7" stop-color="#623C2F"/>
<stop offset="1" stop-color="#563428"/>
</linearGradient>
<linearGradient id="paint17_linear_2394_71806" x1="506.208" y1="189.766" x2="502.903" y2="271.809" gradientUnits="userSpaceOnUse">
<stop stop-color="#C6664F"/>
<stop offset="1" stop-color="#FF9E78"/>
</linearGradient>
<linearGradient id="paint18_linear_2394_71806" x1="424.475" y1="198.272" x2="421.17" y2="280.316" gradientUnits="userSpaceOnUse">
<stop stop-color="#C6664F"/>
<stop offset="1" stop-color="#FF9E78"/>
</linearGradient>
<linearGradient id="paint19_linear_2394_71806" x1="425.759" y1="223.514" x2="423.407" y2="249.621" gradientUnits="userSpaceOnUse">
<stop stop-color="#75483B"/>
<stop offset="0.4" stop-color="#704438"/>
<stop offset="0.7" stop-color="#623C2F"/>
<stop offset="1" stop-color="#563428"/>
</linearGradient>
<linearGradient id="paint20_linear_2394_71806" x1="507.179" y1="230.654" x2="504.926" y2="256.767" gradientUnits="userSpaceOnUse">
<stop stop-color="#75483B"/>
<stop offset="0.4" stop-color="#704438"/>
<stop offset="0.7" stop-color="#623C2F"/>
<stop offset="1" stop-color="#563428"/>
</linearGradient>
<linearGradient id="paint21_linear_2394_71806" x1="449.297" y1="316.413" x2="449.705" y2="299.718" gradientUnits="userSpaceOnUse">
<stop stop-color="#F28C70"/>
<stop offset="1" stop-color="#FF9E78"/>
</linearGradient>
<linearGradient id="paint22_linear_2394_71806" x1="653.3" y1="602.2" x2="645.7" y2="624" gradientUnits="userSpaceOnUse">
<stop stop-color="#DEEFFF"/>
<stop offset="1" stop-color="#CADBEF"/>
</linearGradient>
<linearGradient id="paint23_linear_2394_71806" x1="285.601" y1="612.5" x2="291.201" y2="640" gradientUnits="userSpaceOnUse">
<stop stop-color="#DEEFFF"/>
<stop offset="1" stop-color="#CADBEF"/>
</linearGradient>
<linearGradient id="paint24_linear_2394_71806" x1="502.8" y1="607.799" x2="346.3" y2="572.599" gradientUnits="userSpaceOnUse">
<stop stop-color="#DB7D67"/>
<stop offset="1" stop-color="#FF9E78"/>
</linearGradient>
<linearGradient id="paint25_linear_2394_71806" x1="471.1" y1="598.9" x2="616.9" y2="558.3" gradientUnits="userSpaceOnUse">
<stop stop-color="#F28C70"/>
<stop offset="1" stop-color="#FF9E78"/>
</linearGradient>
<linearGradient id="paint26_linear_2394_71806" x1="471.1" y1="598.9" x2="616.9" y2="558.3" gradientUnits="userSpaceOnUse">
<stop stop-color="#F28C70"/>
<stop offset="1" stop-color="#FF9E78"/>
</linearGradient>
<linearGradient id="paint27_linear_2394_71806" x1="391.4" y1="528" x2="448.9" y2="566.2" gradientUnits="userSpaceOnUse">
<stop stop-color="#FFB9A4"/>
<stop offset="1" stop-color="#FF9E78"/>
</linearGradient>
<linearGradient id="paint28_linear_2394_71806" x1="374" y1="491.099" x2="457.7" y2="545.999" gradientUnits="userSpaceOnUse">
<stop stop-color="#FFB9A4"/>
<stop offset="1" stop-color="#FF9E78"/>
</linearGradient>
<linearGradient id="paint29_linear_2394_71806" x1="401.301" y1="487.299" x2="475.601" y2="530.099" gradientUnits="userSpaceOnUse">
<stop stop-color="#FFB9A4"/>
<stop offset="1" stop-color="#FF9E78"/>
</linearGradient>
<linearGradient id="paint30_linear_2394_71806" x1="405.699" y1="460.499" x2="476.999" y2="505.899" gradientUnits="userSpaceOnUse">
<stop stop-color="#FFB9A4"/>
<stop offset="1" stop-color="#FF9E78"/>
</linearGradient>
<linearGradient id="paint31_linear_2394_71806" x1="505.899" y1="445.898" x2="505.399" y2="492.098" gradientUnits="userSpaceOnUse">
<stop stop-color="#FFB9A4"/>
<stop offset="1" stop-color="#FF9E78"/>
</linearGradient>
<linearGradient id="paint32_linear_2394_71806" x1="657.701" y1="476.698" x2="566.301" y2="609.698" gradientUnits="userSpaceOnUse">
<stop stop-color="#FFB7A1"/>
<stop offset="1" stop-color="#FF9E78"/>
</linearGradient>
<linearGradient id="paint33_linear_2394_71806" x1="305.5" y1="563.398" x2="339.9" y2="638.398" gradientUnits="userSpaceOnUse">
<stop stop-color="#FFB7A1"/>
<stop offset="1" stop-color="#FF9E78"/>
</linearGradient>
<linearGradient id="paint34_linear_2394_71806" x1="527" y1="459.599" x2="528.1" y2="480.299" gradientUnits="userSpaceOnUse">
<stop stop-color="#FFB7A1"/>
<stop offset="1" stop-color="#FF9E78"/>
</linearGradient>
<linearGradient id="paint35_linear_2394_71806" x1="546.701" y1="473.799" x2="545.001" y2="489.799" gradientUnits="userSpaceOnUse">
<stop stop-color="#FFB7A1"/>
<stop offset="1" stop-color="#FF9E78"/>
</linearGradient>
<linearGradient id="paint36_linear_2394_71806" x1="553.2" y1="490.499" x2="552.9" y2="509.599" gradientUnits="userSpaceOnUse">
<stop stop-color="#FFB7A1"/>
<stop offset="1" stop-color="#FF9E78"/>
</linearGradient>
</defs>
</svg>
