<svg width="940" height="1600" viewBox="0 0 940 1600" fill="none" xmlns="http://www.w3.org/2000/svg">
<path d="M773.2 1536.9C773.2 1536.9 631.2 1564.3 455.9 1564.3C280.6 1564.3 138.6 1536.9 138.6 1536.9C138.6 1536.9 280.6 1509.5 455.9 1509.5C631.2 1509.5 773.2 1536.9 773.2 1536.9Z" fill="url(#paint0_linear_2395_72714)"/>
<path d="M309.8 1472.7C308.7 1473.2 228.9 1516.8 228 1530.5C228 1531.1 225.7 1531.5 225.4 1531.9V1537.3C268 1551.7 354.1 1534.7 354.1 1534.7C354.1 1534.7 354.3 1538.1 355.2 1538.2C372.3 1539.9 401.2 1536 403.2 1534.4C403.6 1534.1 404.2 1529.4 404 1525.3C404 1524.9 402.9 1524 402.9 1524C403.8 1507.8 403.8 1476.6 403.9 1475.9C406.7 1461.9 316.3 1448.5 309.8 1472.7Z" fill="#2C2C2D"/>
<path d="M598.099 1472.7C599.199 1473.2 678.999 1516.8 679.899 1530.5C679.899 1531.1 682.199 1531.5 682.499 1531.9V1537.3C639.899 1551.7 553.799 1534.7 553.799 1534.7C553.799 1534.7 553.599 1538.1 552.699 1538.2C535.599 1539.9 506.699 1536 504.699 1534.4C504.299 1534.1 503.699 1529.4 503.899 1525.3C503.899 1524.9 504.999 1524 504.999 1524C504.099 1507.8 504.099 1476.6 503.999 1475.9C501.199 1461.9 591.599 1448.5 598.099 1472.7Z" fill="#2C2C2D"/>
<path d="M410.199 1496.2C438.699 1180.9 499.499 929.8 501.899 859.5L358.299 843.6C348.399 954.1 309.099 1239.1 292.299 1482.6C292.299 1482.6 305.899 1474.8 333.199 1476.3C359.199 1477.7 388.899 1493.8 403.599 1498.3C403.599 1498.3 409.499 1496.5 410.199 1496.3V1496.2Z" fill="#333844"/>
<path d="M498.7 1496.1C489 1178.8 507.599 929.8 505.299 859.5L648.9 843.6C658.8 954.1 616.299 1247.4 615.799 1482.6C615.799 1482.6 601.799 1475 575 1476.2C540.8 1477.7 519.099 1493.7 504.399 1498.2L498.799 1496.1H498.7Z" fill="#333844"/>
<path d="M359.599 812.4C355.399 892.5 354.199 930.1 354.199 930.1C354.199 930.1 437.699 937 528.199 936.2C586.999 935.7 637.199 940.1 641.099 916.2C644.599 894.6 647.699 869.5 649.799 814.7L643.299 807.9C628.599 809.4 580.099 815.7 501.599 814.7C415.299 813.6 376.999 808 366.099 807.1C364.499 807 359.699 810.7 359.599 812.4Z" fill="#333844"/>
<path d="M476.799 929.299L475.799 935.699C499.699 936.499 530.599 935.899 530.599 935.899V929.399C530.499 929.399 476.799 929.399 476.799 929.399V929.299Z" fill="#292D35"/>
<path d="M352.199 909.499C358.999 905.099 374.899 895.199 383.099 887.699C382.199 886.399 381.299 885.099 380.299 883.799C375.599 887.299 357.999 898.199 352.899 901.699L352.199 909.399V909.499Z" fill="#292D35"/>
<path d="M501.5 832.099C426.2 832.099 379.5 828.699 359 826.799C356.5 826.799 354.9 853.899 357.8 855.199C379.7 857.199 426.4 860.399 501.6 860.399C576.8 860.399 622.7 856.599 649.7 854.599C652.1 854.799 651.2 826.699 648.6 826.699C623.4 828.599 569.6 831.999 501.5 831.999V832.099Z" fill="#1C1D1E"/>
<path d="M434.899 870.198L417.799 869.298L421.099 821.898L438.199 822.798L434.899 870.198Z" fill="#333844"/>
<path d="M577.2 870.198L560 869.298L563.3 821.898L580.4 822.798L577.2 870.198Z" fill="#333844"/>
<path d="M650.099 899.999L622.899 883.299C621.799 885.799 622.199 884.999 621.199 887.599C628.899 894.199 641.799 902.499 649.899 907.499C649.899 905.099 650.099 902.399 650.099 899.999Z" fill="#292D35"/>
<path d="M638.9 940C638.9 940 624.8 1166.4 619.6 1171.3C614.4 1176.2 587.4 1196.3 580.7 1195.6C569.9 1194.5 519.9 1171.4 517.6 1164C515.4 1156.5 520 950.3 519.7 944.6C519.5 940.5 638.8 940.1 638.8 940.1L638.9 940Z" fill="url(#paint1_linear_2395_72714)"/>
<path d="M496.199 1375.1C495.999 1375.1 495.399 1422.9 494.999 1428.6C494.699 1432.1 492.699 1435.2 491.099 1438.4C489.499 1441.6 488.299 1445.3 489.599 1448.6C490.699 1451.3 493.499 1453.2 494.499 1456C495.799 1459.7 493.699 1463.2 493.499 1466.8C493.199 1470.8 494.399 1475.2 494.599 1479.4C494.699 1481.4 494.099 1494.4 496.199 1495.6C498.199 1496.7 504.299 1498.4 504.299 1498.4C521.399 1494.8 550.599 1482.5 572.199 1477.4C596.799 1471.6 615.699 1482.8 615.699 1482.8C615.699 1479.2 621.099 1470.5 621.499 1469C623.699 1460.4 614.399 1459.6 616.699 1455.1C624.299 1440.5 614.799 1436.8 616.299 1430.1C617.099 1426.7 621.199 1423.4 621.199 1419.9C621.199 1417 619.299 1411.8 618.599 1409C616.699 1401.8 618.699 1366.9 618.699 1366.9C611.299 1367.4 496.199 1375.3 496.199 1375.3V1375.1Z" fill="#333844"/>
<path d="M423.399 1370.7C423.399 1370.7 416.699 1436.2 418.299 1439.4C419.899 1442.6 421.099 1446.3 419.799 1449.6C418.699 1452.3 415.899 1454.2 414.899 1457C413.599 1460.7 415.699 1464.2 415.899 1467.8C416.199 1471.8 414.999 1476.2 414.799 1480.4C414.699 1482.4 413.199 1496.6 413.199 1496.6L403.599 1499.2C372.699 1499.2 359.799 1482.9 339.899 1477.9C315.399 1471.6 292.299 1482.8 292.299 1482.8C292.699 1476.6 292.399 1458.2 291.799 1456.7C290.799 1454.4 289.399 1452.2 289.099 1449.8C288.399 1443 296.999 1437.4 295.499 1430.7C294.699 1427.3 291.399 1424.6 291.399 1421.1C291.399 1418.2 293.499 1415.8 294.999 1413.3C297.699 1408.4 302.099 1361.3 302.099 1361.3C309.099 1363.1 423.499 1370.9 423.499 1370.9L423.399 1370.7Z" fill="#333844"/>
<path d="M352.9 1527.9C330.1 1530.7 304.2 1533.9 282.5 1534.2C249.6 1534.8 233.5 1531.6 228 1530.2C228 1530.3 228 1530.4 228 1530.5C228 1531.1 225.7 1531.5 225.4 1531.9V1532.1C228.2 1533 241.8 1536.8 274.9 1536.8C308 1536.8 280 1536.8 282.7 1536.8C304.5 1536.4 330.4 1533.2 353.3 1530.4C375.4 1527.7 394.6 1525.3 404.1 1526.2C404.1 1525.9 404.1 1525.6 404.1 1525.3C404.1 1524.9 403 1524 403 1524C403 1523.9 403 1523.7 403 1523.6C392.9 1523 374.3 1525.3 353.1 1527.9H352.9Z" fill="#3D3D3D"/>
<path d="M554.899 1527.9C577.699 1530.7 603.599 1533.9 625.199 1534.2C658.099 1534.8 674.199 1531.6 679.799 1530.2C679.799 1530.3 679.799 1530.4 679.799 1530.5C679.799 1531.1 682.099 1531.5 682.399 1531.9C679.599 1533 665.899 1536.8 632.899 1536.8C599.899 1536.8 627.799 1536.8 625.099 1536.8C603.299 1536.4 577.399 1533.2 554.499 1530.4C532.399 1527.7 513.199 1525.3 503.799 1526.2C503.799 1525.9 503.799 1525.6 503.799 1525.3C503.799 1524.9 504.899 1524 504.899 1524C504.899 1523.9 504.899 1523.7 504.899 1523.6C514.999 1523 533.499 1525.3 554.799 1527.9H554.899Z" fill="#3D3D3D"/>
<path d="M325.499 1515.8C297.199 1499 271.699 1500.7 253.499 1506.7C244.499 1512.8 236.699 1518.8 232.199 1523.7C238.499 1525.2 249.799 1526.8 269.899 1527.3C309.799 1528.3 332.399 1520 325.499 1515.9V1515.8Z" fill="url(#paint2_linear_2395_72714)"/>
<path d="M675.799 1523.8C671.199 1518.9 663.099 1512.7 653.899 1506.4C635.799 1500.7 610.699 1499.4 582.899 1515.9C575.999 1520 598.699 1528.3 638.499 1527.3C658.099 1526.8 669.399 1525.2 675.699 1523.8H675.799Z" fill="url(#paint3_linear_2395_72714)"/>
<path d="M360.9 936.199C360.9 936.199 328.9 1147.2 333.6 1152C338.3 1156.8 367.8 1183.3 375 1183C386.5 1182.4 438.2 1156.4 441.7 1149.4C445.2 1142.4 479.4 943.499 475.2 943.399C470.9 943.399 360.9 936.199 360.9 936.199Z" fill="url(#paint4_linear_2395_72714)"/>
<path d="M529.9 831.898C529.9 831.898 477.9 831.398 477.9 832.398C477.9 832.398 477.4 859.398 477.9 859.798C478.4 860.298 530.2 860.198 530.2 860.198C530.2 860.198 530.2 864.598 529.3 865.198C526.1 867.098 472.5 866.598 471 865.198C469.5 863.798 470.5 828.698 471.6 826.698C472.7 824.798 527.6 825.398 528.7 826.198C529.7 826.998 529.8 831.898 529.8 831.898H529.9Z" fill="url(#paint5_linear_2395_72714)"/>
<path d="M473.099 841.799C473.099 841.799 472.399 847.999 472.899 848.399C473.299 848.799 485.899 848.399 486.199 848.199C486.499 847.999 486.699 842.899 486.299 841.999C486.099 841.399 473.599 841.299 473.099 841.799Z" fill="url(#paint6_linear_2395_72714)"/>
<path d="M570.6 411.299C562.6 409.599 554 408.199 544.6 407.199L545.7 349.899C546.2 332.399 527.3 318.399 503.3 318.799C480.3 319.199 460.6 333.799 460.1 351.299L458.8 408.499C448.3 410.099 438.9 412.199 430 414.699L430.8 467.299H571.4L570.7 411.399L570.6 411.299Z" fill="url(#paint7_linear_2395_72714)"/>
<path d="M703.5 617.198C703.299 614.898 689.4 604.098 689.4 601.698C689 538.198 691.6 469.698 674.9 450.798C653.4 426.598 593.4 415.298 569.499 410.898L569.299 409.998C562.699 390.098 545.099 390.998 545.099 390.998C540.699 423.198 502.499 432.698 502.499 432.698C467.599 420.098 459.299 397.798 459.299 397.798C445.499 397.898 437.299 408.398 434.499 412.598C393.899 414.898 357.499 431.598 342.999 447.698C313.299 480.698 327.1 642.098 333.1 685.398C333.8 688.898 343.9 696.598 356.6 703.998C353.7 739.998 351.799 771.898 353.499 788.898C354.199 795.598 363.299 803.598 364.399 805.798C365.099 807.198 366.999 808.598 369.799 809.798H641.599C642.199 809.198 642.599 808.698 642.599 808.098C642.599 805.098 653.699 796.698 654.099 790.798C656.799 754.198 657.7 787.198 655.9 712.498C678.2 708.298 691.1 694.998 697.5 687.398C702.4 681.698 706.099 645.098 703.299 617.298L703.5 617.198Z" fill="url(#paint8_linear_2395_72714)"/>
<path d="M704.399 631.899L698.299 660.199L672.799 668.399L601.999 623.099L617.499 497.299H610.099L591.899 625.099L604.799 634.899C604.799 634.899 459.599 649.399 458.099 649.299C456.599 649.099 416.699 593.199 416.699 593.199C416.699 593.199 405.799 497.299 404.299 497.299C402.799 497.299 398.099 500.099 398.099 500.099L404.299 580.999L394.899 603.199L449.099 671.099C449.099 671.099 413.499 699.799 411.099 700.999C408.699 702.199 357.699 692.099 349.999 685.599C344.499 680.999 334.899 664.499 329.799 655.299C330.999 667.699 332.199 677.999 333.199 685.099C333.899 688.599 343.999 696.299 356.699 703.699C353.799 739.699 351.899 771.599 353.599 788.599C354.299 795.299 365.699 807.599 366.799 809.799C366.799 809.799 437.099 817.999 503.699 818.199C573.299 818.399 641.499 811.399 641.499 811.399C641.499 808.399 653.799 796.299 654.299 790.499C656.999 753.899 657.899 786.899 656.099 712.199C678.399 707.999 691.299 694.699 697.699 687.099C701.699 682.299 704.999 656.299 704.399 631.799V631.899ZM618.499 775.799C618.499 776.899 514.999 791.299 506.199 792.299C497.399 793.299 374.899 771.899 374.199 769.799C373.499 767.699 378.099 726.499 378.099 726.499C413.699 728.299 501.399 709.999 501.399 709.999L621.399 727.599C621.399 727.599 618.699 774.799 618.699 775.799H618.499Z" fill="url(#paint9_linear_2395_72714)"/>
<path d="M569.699 410.998C564.999 421.098 551.099 450.198 544.899 453.698C538.999 456.998 516.199 438.998 506.899 431.298C504.099 432.298 502.399 432.698 502.399 432.698C500.999 432.198 499.599 431.598 498.199 431.098C488.599 437.398 467.199 450.698 458.999 450.198C449.799 449.598 438.399 421.098 434.499 412.598C432.899 412.698 430.299 412.898 428.699 412.998C432.699 422.898 445.799 456.498 452.899 461.098C461.299 466.598 501.999 436.498 501.999 436.498C501.999 436.498 536.099 466.798 546.099 465.498C554.699 464.398 569.999 423.498 574.199 411.798C572.599 411.498 571.099 411.198 569.699 410.898V410.998Z" fill="url(#paint10_linear_2395_72714)"/>
<path d="M506.9 812.699L504.8 433.299H499.5C499.5 433.299 502.6 745.299 500.6 812.699H506.8H506.9Z" fill="url(#paint11_linear_2395_72714)"/>
<path d="M337.2 662.399C337.5 663.199 351.9 683.299 352.7 683.899C353.5 684.399 413.2 639.399 413.2 639.399C413.2 639.399 424.2 614.399 424.2 612.899C424.2 611.399 407.8 596.999 393.9 600.399C380 603.799 341.5 627.999 339.7 629.899C337.9 631.799 337.1 662.499 337.1 662.499L337.2 662.399Z" fill="url(#paint12_linear_2395_72714)"/>
<path d="M703.499 617.198C703.299 614.898 689.999 604.598 689.399 601.898C680.799 598.998 661.399 593.798 655.199 593.598C647.599 593.398 609.499 604.898 607.599 605.898C605.599 606.898 602.199 620.398 602.199 620.398L675.399 666.098C675.399 666.098 696.299 660.898 698.799 657.898C700.199 656.198 702.499 643.898 704.399 632.698C704.299 627.398 703.999 622.198 703.499 617.298V617.198Z" fill="url(#paint13_linear_2395_72714)"/>
<path d="M413.099 617.499L404.299 684.699L467.499 677.599C467.499 677.599 607.199 710.299 636.499 707.299C665.799 704.299 685.599 665.399 685.899 654.899C686.299 643.899 658.399 617.599 642.999 613.599C627.599 609.599 464.199 622.799 464.199 622.799L413.099 617.499Z" fill="url(#paint14_linear_2395_72714)"/>
<path d="M684.699 654.3C684.699 654.7 669.899 696.5 631.999 698C594.099 699.5 470.299 662.5 470.299 662.5L448.699 666.1L432.799 669C432.799 669 433.699 675.3 434.699 681.4L467.599 677.7C467.599 677.7 607.299 710.4 636.599 707.4C665.899 704.4 685.699 665.5 685.999 655C685.999 653 685.199 650.4 683.499 647.5C683.999 650.1 684.699 654.1 684.699 654.4V654.3Z" fill="url(#paint15_linear_2395_72714)"/>
<path d="M413.299 268.8C403.099 271.7 398.099 286.2 401.999 301.1C405.899 316 417.299 325.8 427.399 322.9C437.499 320 442.599 305.5 438.699 290.6C434.799 275.7 423.399 265.9 413.299 268.8Z" fill="url(#paint16_linear_2395_72714)"/>
<path d="M583.699 186.4C579.399 151.4 481.899 131.1 451.099 177.8C440.999 199.6 428.999 240.6 422.399 281.5C422.399 281.1 422.399 280.8 422.399 280.8C422.399 280.8 390.599 386.8 487.699 396C581.099 404.9 598.199 359.3 596.499 295.3C597.999 259.4 589.999 213.5 583.699 186.4Z" fill="url(#paint17_linear_2395_72714)"/>
<g opacity="0.4">
<path d="M583.009 320.447C588.424 299.201 577.76 278.14 559.19 273.406C540.619 268.673 521.175 282.059 515.759 303.305C510.343 324.552 521.007 345.613 539.578 350.346C558.148 355.08 577.593 341.694 583.009 320.447Z" fill="#FF9E78"/>
<path d="M582.718 320.373C588.093 299.287 577.526 278.39 559.116 273.697C540.706 269.004 521.425 282.294 516.05 303.379C510.675 324.465 521.243 345.363 539.652 350.055C558.062 354.748 577.344 341.459 582.718 320.373Z" fill="#FF9D77"/>
<path d="M582.524 320.323C587.871 299.345 577.369 278.556 559.066 273.891C540.763 269.225 521.59 282.45 516.243 303.429C510.895 324.407 521.398 345.196 539.701 349.861C558.004 354.527 577.176 341.302 582.524 320.323Z" fill="#FF9C77"/>
<path d="M582.329 320.275C587.636 299.457 577.187 278.82 558.991 274.182C540.795 269.544 521.743 282.661 516.436 303.479C511.13 324.297 521.579 344.934 539.775 349.572C557.971 354.21 577.023 341.093 582.329 320.275Z" fill="#FF9B76"/>
<path d="M582.137 320.226C587.416 299.514 577.032 278.987 558.943 274.376C540.854 269.765 521.91 282.817 516.631 303.528C511.352 324.24 521.736 344.767 539.825 349.378C557.914 353.989 576.857 340.937 582.137 320.226Z" fill="#FF9A76"/>
<path d="M581.942 320.175C587.181 299.625 576.85 279.249 558.868 274.666C540.886 270.082 522.063 283.026 516.825 303.577C511.586 324.128 521.917 344.503 539.899 349.086C557.881 353.67 576.704 340.726 581.942 320.175Z" fill="#FF9975"/>
<path d="M581.652 320.101C586.85 299.711 576.616 279.499 558.795 274.956C540.973 270.414 522.313 283.261 517.116 303.651C511.918 324.041 522.152 344.253 539.973 348.795C557.795 353.338 576.455 340.491 581.652 320.101Z" fill="#FF9875"/>
<path d="M581.457 320.051C586.627 299.768 576.458 279.665 558.744 275.15C541.03 270.635 522.479 283.417 517.309 303.7C512.138 323.983 522.307 344.086 540.022 348.601C557.736 353.117 576.287 340.334 581.457 320.051Z" fill="#FF9774"/>
<path d="M581.265 320.003C586.394 299.881 576.279 279.93 558.672 275.442C541.065 270.954 522.633 283.628 517.504 303.751C512.375 323.873 522.49 343.824 540.097 348.312C557.705 352.8 576.136 340.126 581.265 320.003Z" fill="#FF9674"/>
<path d="M581.07 319.954C586.172 299.938 576.121 280.096 558.621 275.636C541.121 271.175 522.799 283.784 517.697 303.8C512.595 323.815 522.646 343.657 540.146 348.118C557.646 352.579 575.969 339.969 581.07 319.954Z" fill="#FF9573"/>
<path d="M580.78 319.879C585.841 300.024 575.887 280.346 558.548 275.926C541.208 271.506 523.049 284.019 517.988 303.874C512.927 323.729 522.881 343.407 540.22 347.827C557.56 352.247 575.719 339.734 580.78 319.879Z" fill="#FF9472"/>
<path d="M580.585 319.83C585.619 300.082 575.73 280.512 558.497 276.12C541.265 271.727 523.214 284.175 518.181 303.923C513.147 323.671 523.036 343.241 540.269 347.633C557.501 352.026 575.552 339.578 580.585 319.83Z" fill="#FF9372"/>
<path d="M580.393 319.781C585.386 300.194 575.55 280.777 558.425 276.411C541.299 272.046 523.369 284.386 518.376 303.973C513.383 323.561 523.219 342.978 540.344 347.343C557.47 351.709 575.4 339.369 580.393 319.781Z" fill="#FF9271"/>
<path d="M580.198 319.732C585.164 300.252 575.393 280.943 558.374 276.605C541.356 272.267 523.534 284.542 518.569 304.023C513.603 323.503 523.374 342.812 540.393 347.149C557.411 351.487 575.233 339.212 580.198 319.732Z" fill="#FF9171"/>
<path d="M580.004 319.682C584.929 300.362 575.211 281.206 558.3 276.895C541.388 272.584 523.687 284.752 518.762 304.071C513.838 323.391 523.555 342.547 540.467 346.858C557.378 351.169 575.08 339.001 580.004 319.682Z" fill="#FF9070"/>
<path d="M579.713 319.608C584.61 300.395 575.001 281.359 558.25 277.089C541.499 272.82 523.95 284.933 519.053 304.146C514.156 323.359 523.765 342.395 540.516 346.665C557.267 350.934 574.816 338.821 579.713 319.608Z" fill="#FF8F70"/>
<path d="M579.521 319.558C584.377 300.506 574.822 281.622 558.178 277.379C541.534 273.137 524.105 285.142 519.248 304.194C514.392 323.247 523.948 342.131 540.591 346.373C557.235 350.616 574.665 338.61 579.521 319.558Z" fill="#FF8E6F"/>
<path d="M579.327 319.509C584.142 300.618 574.64 281.886 558.103 277.671C541.567 273.456 524.257 285.353 519.442 304.245C514.626 323.136 524.128 341.868 540.665 346.083C557.202 350.299 574.511 338.401 579.327 319.509Z" fill="#FF8D6F"/>
<path d="M579.132 319.46C583.92 300.675 574.483 282.053 558.053 277.865C541.623 273.677 524.423 285.51 519.635 304.294C514.846 323.079 524.284 341.702 540.714 345.89C557.143 350.077 574.344 338.244 579.132 319.46Z" fill="#FF8C6E"/>
<path d="M578.842 319.386C583.589 300.762 574.249 282.302 557.979 278.155C541.71 274.008 524.673 285.744 519.926 304.368C515.178 322.992 524.519 341.452 540.788 345.599C557.057 349.746 574.095 338.01 578.842 319.386Z" fill="#FF8B6E"/>
<path d="M578.649 319.336C583.369 300.819 574.093 282.468 557.931 278.349C541.769 274.229 524.84 285.9 520.12 304.417C515.4 322.934 524.676 341.285 540.839 345.405C557.001 349.524 573.929 337.853 578.649 319.336Z" fill="#FF8A6D"/>
<path d="M578.455 319.286C583.134 300.929 573.912 282.731 557.856 278.639C541.801 274.546 524.993 286.109 520.314 304.466C515.635 322.822 524.857 341.021 540.912 345.113C556.967 349.206 573.776 337.642 578.455 319.286Z" fill="#FF896C"/>
<path d="M578.26 319.238C582.912 300.989 573.754 282.899 557.806 278.834C541.858 274.769 525.158 286.268 520.507 304.517C515.855 322.766 525.012 340.856 540.961 344.921C556.909 348.986 573.608 337.488 578.26 319.238Z" fill="#FF886C"/>
<path d="M578.066 319.188C582.677 301.099 573.573 283.162 557.732 279.124C541.89 275.086 525.311 286.477 520.7 304.566C516.089 322.654 525.193 340.592 541.034 344.63C556.876 348.667 573.455 337.277 578.066 319.188Z" fill="#FF876B"/>
<path d="M577.777 319.114C582.36 301.133 573.364 283.315 557.684 279.318C542.003 275.321 525.576 286.658 520.993 304.64C516.409 322.622 525.405 340.439 541.086 344.436C556.766 348.433 573.193 337.096 577.777 319.114Z" fill="#FF866B"/>
<path d="M577.583 319.064C582.125 301.243 573.183 283.578 557.609 279.608C542.036 275.639 525.729 286.868 521.186 304.689C516.643 322.51 525.586 340.175 541.159 344.145C556.733 348.114 573.04 336.885 577.583 319.064Z" fill="#FF856A"/>
<path d="M577.388 319.015C581.903 301.3 573.025 283.744 557.559 279.802C542.093 275.86 525.894 287.024 521.379 304.738C516.864 322.452 525.741 340.008 541.208 343.951C556.674 347.893 572.873 336.729 577.388 319.015Z" fill="#FF846A"/>
<path d="M577.194 318.966C581.668 301.413 572.844 284.009 557.485 280.094C542.125 276.179 526.047 287.235 521.572 304.789C517.098 322.342 525.922 339.746 541.281 343.661C556.641 347.576 572.719 336.52 577.194 318.966Z" fill="#FF8369"/>
<path d="M576.905 318.891C581.352 301.444 572.636 284.16 557.437 280.286C542.238 276.412 526.312 287.415 521.865 304.861C517.418 322.308 526.134 339.592 541.333 343.466C556.531 347.34 572.458 336.337 576.905 318.891Z" fill="#FF8269"/>
<path d="M576.711 318.842C581.117 301.556 572.454 284.425 557.362 280.578C542.271 276.731 526.464 287.626 522.058 304.912C517.652 322.198 526.314 339.329 541.406 343.176C556.498 347.023 572.304 336.129 576.711 318.842Z" fill="#FF8168"/>
<path d="M576.517 318.792C580.882 301.667 572.273 284.687 557.288 280.868C542.303 277.048 526.617 287.835 522.252 304.96C517.886 322.086 526.495 339.065 541.48 342.885C556.465 346.704 572.151 335.918 576.517 318.792Z" fill="#FF8067"/>
<path d="M576.322 318.743C580.66 301.724 572.115 284.854 557.238 281.061C542.36 277.269 526.782 287.991 522.444 305.01C518.106 322.028 526.651 338.898 541.528 342.691C556.406 346.483 571.984 335.761 576.322 318.743Z" fill="#FF7F67"/>
<path d="M576.13 318.694C580.427 301.836 571.936 285.118 557.165 281.353C542.394 277.588 526.937 288.202 522.64 305.06C518.343 321.918 526.833 338.636 541.604 342.401C556.375 346.166 571.832 335.552 576.13 318.694Z" fill="#FF7E66"/>
<path d="M575.839 318.619C580.108 301.868 571.726 285.27 557.115 281.546C542.505 277.821 527.2 288.382 522.93 305.133C518.661 321.884 527.043 338.482 541.653 342.206C556.264 345.93 571.569 335.37 575.839 318.619Z" fill="#FF7D66"/>
<path d="M575.644 318.57C579.873 301.98 571.544 285.534 557.041 281.837C542.538 278.141 527.353 288.593 523.124 305.183C518.895 321.773 527.224 338.22 541.727 341.916C556.23 345.613 571.416 335.161 575.644 318.57Z" fill="#FF7C65"/>
<path d="M575.45 318.521C579.651 302.038 571.387 285.701 556.991 282.031C542.594 278.361 527.518 288.749 523.317 305.232C519.115 321.716 527.379 338.053 541.776 341.722C556.172 345.392 571.248 335.004 575.45 318.521Z" fill="#FF7B65"/>
<path d="M575.257 318.471C579.418 302.148 571.207 285.963 556.918 282.321C542.629 278.679 527.673 288.958 523.512 305.281C519.351 321.604 527.562 337.789 541.851 341.431C556.14 345.073 571.097 334.793 575.257 318.471Z" fill="#FF7A64"/>
<path d="M574.966 318.397C579.1 302.181 570.997 286.117 556.869 282.515C542.74 278.914 527.936 289.14 523.802 305.356C519.669 321.571 527.772 337.636 541.9 341.238C556.029 344.839 570.833 334.613 574.966 318.397Z" fill="#FF7964"/>
<path d="M574.772 318.349C578.865 302.294 570.816 286.381 556.794 282.807C542.773 279.233 528.088 289.351 523.996 305.406C519.904 321.461 527.953 337.374 541.974 340.948C555.996 344.522 570.68 334.404 574.772 318.349Z" fill="#FF7863"/>
<path d="M574.578 318.299C578.643 302.351 570.658 286.547 556.744 283.001C542.829 279.454 528.254 289.507 524.189 305.455C520.124 321.403 528.108 337.207 542.023 340.754C555.937 344.301 570.512 334.247 574.578 318.299Z" fill="#FF7762"/>
<path d="M574.385 318.249C578.41 302.461 570.479 286.81 556.671 283.29C542.864 279.771 528.408 289.716 524.384 305.504C520.36 321.291 528.291 336.943 542.098 340.462C555.906 343.982 570.361 334.037 574.385 318.249Z" fill="#FF7762"/>
<path d="M574.191 318.201C578.175 302.574 570.297 287.074 556.597 283.582C542.896 280.09 528.561 289.927 524.578 305.554C520.594 321.181 528.472 336.681 542.172 340.173C555.872 343.665 570.208 333.828 574.191 318.201Z" fill="#FF7661"/>
<path d="M573.9 318.125C577.856 302.605 570.087 287.226 556.547 283.775C543.007 280.323 528.824 290.107 524.868 305.627C520.912 321.147 528.681 336.526 542.221 339.978C555.761 343.429 569.944 333.645 573.9 318.125Z" fill="#FF7561"/>
<path d="M573.706 318.077C577.621 302.717 569.906 287.49 556.473 284.066C543.04 280.643 528.977 290.318 525.062 305.678C521.146 321.037 528.862 336.264 542.295 339.688C555.728 343.112 569.791 333.436 573.706 318.077Z" fill="#FF7460"/>
<path d="M573.513 318.027C577.401 302.775 569.75 287.657 556.424 284.26C543.098 280.863 529.144 290.474 525.256 305.727C521.368 320.979 529.019 336.097 542.345 339.494C555.671 342.891 569.625 333.28 573.513 318.027Z" fill="#FF7360"/>
<path d="M573.319 317.977C577.166 302.885 569.569 287.919 556.35 284.55C543.131 281.181 529.297 290.683 525.45 305.775C521.603 320.867 529.2 335.833 542.419 339.202C555.638 342.572 569.472 333.069 573.319 317.977Z" fill="#FF725F"/>
<path d="M573.028 317.904C576.848 302.919 569.358 288.073 556.3 284.744C543.242 281.416 529.56 290.865 525.74 305.85C521.921 320.835 529.41 335.681 542.468 339.009C555.526 342.338 569.209 332.888 573.028 317.904Z" fill="#FF715F"/>
<path d="M572.834 317.853C576.613 303.029 569.177 288.335 556.226 285.034C543.275 281.733 529.712 291.074 525.934 305.898C522.155 320.723 529.591 335.416 542.542 338.718C555.493 342.019 569.055 332.678 572.834 317.853Z" fill="#FF705E"/>
<path d="M572.641 317.804C576.393 303.086 569.021 288.502 556.177 285.228C543.333 281.954 529.88 291.23 526.128 305.948C522.377 320.665 529.748 335.25 542.592 338.524C555.436 341.798 568.89 332.521 572.641 317.804Z" fill="#FF6F5E"/>
<path d="M572.447 317.755C576.157 303.199 568.84 288.766 556.103 285.52C543.366 282.273 530.032 291.442 526.322 305.998C522.611 320.555 529.929 334.987 542.666 338.234C555.403 341.481 568.737 332.312 572.447 317.755Z" fill="#FF6E5D"/>
<path d="M572.252 317.706C575.935 303.256 568.683 288.933 556.052 285.713C543.422 282.494 530.198 291.598 526.515 306.047C522.832 320.497 530.084 334.821 542.714 338.04C555.345 341.259 568.569 332.155 572.252 317.706Z" fill="#FF6D5C"/>
<path d="M571.962 317.632C575.604 303.342 568.448 289.182 555.979 286.004C543.509 282.825 530.448 291.832 526.806 306.121C523.164 320.411 530.319 334.571 542.789 337.749C555.259 340.928 568.32 331.921 571.962 317.632Z" fill="#FF6C5C"/>
<path d="M571.768 317.583C575.369 303.455 568.267 289.447 555.904 286.296C543.542 283.144 530.601 292.043 526.999 306.172C523.398 320.3 530.5 334.308 542.863 337.46C555.225 340.611 568.167 331.712 571.768 317.583Z" fill="#FF6B5B"/>
<path d="M571.575 317.534C575.149 303.512 568.111 289.613 555.856 286.489C543.6 283.365 530.768 292.2 527.194 306.221C523.62 320.243 530.658 334.142 542.913 337.266C555.169 340.39 568.001 331.555 571.575 317.534Z" fill="#FF6A5B"/>
<path d="M571.381 317.483C574.914 303.622 567.93 289.876 555.781 286.779C543.633 283.682 530.921 292.409 527.388 306.27C523.854 320.131 530.838 333.877 542.987 336.974C555.135 340.071 567.848 331.344 571.381 317.483Z" fill="#FF695A"/>
<path d="M571.09 317.41C574.596 303.656 567.72 290.029 555.732 286.973C543.744 283.918 531.184 292.59 527.678 306.344C524.172 320.098 531.048 333.725 543.036 336.781C555.024 339.836 567.584 331.164 571.09 317.41Z" fill="#FF685A"/>
<path d="M570.896 317.36C574.361 303.766 567.538 290.292 555.657 287.263C543.777 284.235 531.336 292.799 527.871 306.393C524.407 319.986 531.229 333.461 543.11 336.489C554.991 339.518 567.431 330.953 570.896 317.36Z" fill="#FF6759"/>
<path d="M570.703 317.31C574.14 303.824 567.383 290.458 555.609 287.457C543.835 284.456 531.504 292.956 528.066 306.442C524.629 319.928 531.386 333.294 543.16 336.295C554.934 339.296 567.265 330.796 570.703 317.31Z" fill="#FF6659"/>
<path d="M570.509 317.262C573.905 303.936 567.201 290.723 555.534 287.749C543.868 284.775 531.656 293.167 528.26 306.493C524.863 319.818 531.567 333.032 543.234 336.006C554.901 338.979 567.112 330.588 570.509 317.262Z" fill="#FF6558"/>
<path d="M570.314 317.212C573.683 303.993 567.044 290.889 555.484 287.942C543.924 284.996 531.822 293.323 528.452 306.542C525.083 319.761 531.723 332.865 543.282 335.812C554.842 338.758 566.945 330.431 570.314 317.212Z" fill="#FF6457"/>
<path d="M570.024 317.138C573.352 304.08 566.81 291.138 555.41 288.233C544.011 285.327 532.072 293.558 528.744 306.616C525.415 319.674 531.958 332.615 543.357 335.521C554.756 338.426 566.695 330.196 570.024 317.138Z" fill="#FF6357"/>
<path d="M569.831 317.088C573.132 304.137 566.654 291.305 555.362 288.427C544.07 285.548 532.24 293.714 528.938 306.665C525.637 319.616 532.115 332.449 543.407 335.327C554.699 338.205 566.53 330.04 569.831 317.088Z" fill="#FF6256"/>
<path d="M569.637 317.038C572.897 304.247 566.473 291.567 555.287 288.716C544.102 285.865 532.392 293.923 529.132 306.714C525.872 319.504 532.296 332.184 543.481 335.035C554.666 337.886 566.376 329.829 569.637 317.038Z" fill="#FF6156"/>
<path d="M569.442 316.989C572.675 304.305 566.315 291.734 555.237 288.91C544.159 286.086 532.558 294.079 529.325 306.763C526.092 319.446 532.451 332.018 543.529 334.841C554.607 337.665 566.209 329.672 569.442 316.989Z" fill="#FF6055"/>
<path d="M569.152 316.916C572.344 304.393 566.081 291.985 555.163 289.203C544.246 286.42 532.808 294.316 529.616 306.839C526.424 319.362 532.686 331.77 543.604 334.552C554.521 337.335 565.959 329.439 569.152 316.916Z" fill="#FF5F55"/>
<path d="M568.957 316.866C572.109 304.503 565.899 292.248 555.089 289.492C544.279 286.737 532.96 294.525 529.809 306.887C526.658 319.25 532.867 331.505 543.678 334.261C554.488 337.016 565.806 329.228 568.957 316.866Z" fill="#FF5E54"/>
<path d="M568.765 316.816C571.888 304.561 565.744 292.414 555.041 289.686C544.337 286.958 533.128 294.681 530.004 306.936C526.88 319.192 533.025 331.339 543.728 334.067C554.431 336.795 565.641 329.072 568.765 316.816Z" fill="#FF5D54"/>
<path d="M568.57 316.768C571.653 304.673 565.563 292.679 554.966 289.978C544.37 287.277 533.28 294.892 530.197 306.987C527.114 319.082 533.205 331.076 543.802 333.777C554.398 336.478 565.487 328.863 568.57 316.768Z" fill="#FF5C53"/>
<path d="M568.376 316.719C571.431 304.731 565.405 292.845 554.916 290.171C544.426 287.498 533.446 295.048 530.39 307.036C527.335 319.024 533.361 330.91 543.85 333.583C554.34 336.257 565.32 328.706 568.376 316.719Z" fill="#FF5B53"/>
<path d="M568.085 316.644C571.1 304.817 565.171 293.095 554.842 290.462C544.513 287.829 533.696 295.283 530.681 307.11C527.667 318.937 533.596 330.66 543.925 333.292C554.253 335.925 565.071 328.472 568.085 316.644Z" fill="#FF5A52"/>
<path d="M567.892 316.595C570.88 304.874 565.015 293.261 554.794 290.656C544.572 288.05 533.864 295.439 530.876 307.159C527.889 318.88 533.753 330.493 543.975 333.099C554.197 335.704 564.905 328.315 567.892 316.595Z" fill="#FF5951"/>
<path d="M567.698 316.544C570.645 304.985 564.834 293.524 554.719 290.945C544.604 288.367 534.016 295.648 531.07 307.208C528.123 318.768 533.934 330.229 544.049 332.807C554.164 335.385 564.752 328.104 567.698 316.544Z" fill="#FF5851"/>
<path d="M567.504 316.495C570.423 305.042 564.676 293.69 554.669 291.139C544.661 288.588 534.182 295.804 531.262 307.257C528.343 318.71 534.089 330.062 544.097 332.613C554.105 335.164 564.584 327.948 567.504 316.495Z" fill="#FF5750"/>
<path d="M567.213 316.421C570.092 305.128 564.442 293.94 554.595 291.43C544.748 288.92 534.432 296.039 531.553 307.331C528.675 318.623 534.325 329.812 544.172 332.322C554.019 334.832 564.335 327.713 567.213 316.421Z" fill="#FF5650"/>
<path d="M567.02 316.371C569.871 305.186 564.287 294.106 554.547 291.623C544.806 289.141 534.599 296.195 531.748 307.38C528.897 318.565 534.482 329.645 544.222 332.128C553.962 334.611 564.169 327.556 567.02 316.371Z" fill="#FF554F"/>
<path d="M566.826 316.323C569.636 305.298 564.105 294.371 554.472 291.915C544.839 289.46 534.752 296.406 531.942 307.431C529.132 318.455 534.663 329.383 544.296 331.839C553.929 334.294 564.016 327.347 566.826 316.323Z" fill="#FF544F"/>
<path d="M566.632 316.273C569.401 305.409 563.924 294.633 554.398 292.205C544.872 289.777 534.904 296.615 532.135 307.479C529.366 318.343 534.843 329.119 544.37 331.547C553.896 333.975 563.863 327.137 566.632 316.273Z" fill="#FF534E"/>
<path d="M566.439 316.223C569.181 305.466 563.768 294.799 554.349 292.399C544.93 289.998 535.072 296.772 532.33 307.529C529.588 318.286 535.001 328.952 544.42 331.353C553.839 333.754 563.697 326.98 566.439 316.223Z" fill="#FF524E"/>
<path d="M566.147 316.151C568.848 305.554 563.532 295.051 554.274 292.691C545.015 290.331 535.32 297.008 532.619 307.604C529.918 318.201 535.234 328.704 544.492 331.064C553.751 333.424 563.446 326.747 566.147 316.151Z" fill="#FF514D"/>
</g>
<path d="M618.1 278.5C608.3 274.5 595.9 283 590.5 297.5C585.1 312 588.6 326.9 598.4 330.8C608.2 334.8 620.6 326.3 626 311.8C631.4 297.3 627.9 282.4 618.1 278.5Z" fill="#FF9E78"/>
<path d="M617.499 313.1C607.599 318.9 597.399 316.5 590.199 310.1C590.199 313.9 589.699 318.7 588.599 324.2H588.799L586.799 361.2C591.199 352 593.799 341.3 595.099 329.1C595.999 329.8 596.899 330.3 597.999 330.7C607.799 334.7 620.199 326.2 625.599 311.7C626.999 308 627.799 304.2 628.099 300.6C626.099 305.5 622.699 309.9 617.499 312.9V313.1Z" fill="url(#paint18_linear_2395_72714)"/>
<path d="M600.6 304.399L609.6 306.099C610.1 291.799 620.9 287.399 620.9 287.399C603.9 280.499 600.5 304.399 600.5 304.399H600.6Z" fill="url(#paint19_linear_2395_72714)"/>
<path d="M549.6 121.999C522.5 102.499 486.3 99.6992 486.3 99.6992C484.7 101.999 483.9 105.699 484.3 108.399C461.7 106.699 443.8 108.399 443.8 108.399C437.8 135.299 444.8 151.599 452.8 161.099C455.7 164.599 459.8 170.399 472 176.299C472 176.299 485.3 188.099 505.9 189.299C524.3 190.399 550.4 177.999 550.4 177.999C568.8 178.299 592.2 236.299 592.9 282.299C593.1 292.799 602.7 281.099 602.7 281.099C602.7 281.099 604.1 269.699 604 253.199C604 253.099 625.9 188.199 608.5 161.499" fill="url(#paint20_linear_2395_72714)"/>
<path d="M444.999 147.799C417.099 155.099 422.899 255.899 422.799 272.399C422.799 273.599 422.699 274.399 422.499 275.699C422.499 276.299 424.699 276.199 424.499 275.699C424.299 274.699 424.599 273.099 424.699 272.499C429.699 242.199 456.499 176.599 471.799 176.399C471.799 176.399 457.499 167.099 444.899 147.899L444.999 147.799Z" fill="#59352C"/>
<g opacity="0.4">
<path d="M464.421 342.952C482.89 340.652 495.61 320.705 492.832 298.399C490.053 276.093 472.829 259.876 454.36 262.176C435.89 264.477 423.17 284.424 425.949 306.73C428.727 329.035 445.951 345.253 464.421 342.952Z" fill="#FF9E78"/>
<path d="M464.395 342.754C482.755 340.467 495.397 320.62 492.633 298.424C489.868 276.228 472.743 260.088 454.384 262.375C436.024 264.662 423.382 284.509 426.146 306.705C428.911 328.901 446.036 345.041 464.395 342.754Z" fill="#FF9D77"/>
<path d="M464.36 342.457C482.555 340.191 495.08 320.494 492.336 298.462C489.592 276.43 472.617 260.407 454.422 262.674C436.227 264.94 423.701 284.637 426.445 306.669C429.19 328.701 446.164 344.724 464.36 342.457Z" fill="#FF9C77"/>
<path d="M464.321 342.16C482.407 339.907 494.86 320.354 492.137 298.487C489.413 276.62 472.544 260.719 454.458 262.972C436.372 265.225 423.919 284.778 426.643 306.645C429.366 328.512 446.236 344.413 464.321 342.16Z" fill="#FF9B76"/>
<path d="M464.298 341.96C482.274 339.721 494.65 320.268 491.94 298.51C489.229 276.752 472.46 260.929 454.484 263.169C436.508 265.408 424.132 284.861 426.843 306.618C429.553 328.376 446.322 344.199 464.298 341.96Z" fill="#FF9A76"/>
<path d="M464.26 341.662C482.126 339.437 494.429 320.128 491.74 298.535C489.05 276.942 472.386 261.241 454.52 263.467C436.654 265.692 424.35 285.001 427.04 306.594C429.729 328.187 446.393 343.888 464.26 341.662Z" fill="#FF9975"/>
<path d="M464.235 341.464C481.991 339.252 494.217 320.044 491.541 298.56C488.865 277.076 472.301 261.454 454.544 263.665C436.787 265.877 424.562 285.086 427.238 306.569C429.914 328.053 446.478 343.676 464.235 341.464Z" fill="#FF9875"/>
<path d="M464.198 341.167C481.845 338.969 493.999 319.904 491.343 298.585C488.688 277.266 472.229 261.765 454.582 263.963C436.935 266.161 424.782 285.226 427.437 306.545C430.092 327.864 446.551 343.365 464.198 341.167Z" fill="#FF9774"/>
<path d="M464.162 340.87C481.699 338.685 493.78 319.765 491.145 298.61C488.511 277.456 472.157 262.077 454.62 264.262C437.082 266.446 425.001 285.366 427.636 306.521C430.271 327.676 446.624 343.054 464.162 340.87Z" fill="#FF9674"/>
<path d="M464.137 340.67C481.51 338.506 493.469 319.691 490.848 298.646C488.226 277.601 472.018 262.295 454.644 264.459C437.271 266.623 425.312 285.437 427.934 306.482C430.555 327.528 446.764 342.834 464.137 340.67Z" fill="#FF9573"/>
<path d="M464.099 340.373C481.362 338.222 493.249 319.552 490.648 298.671C488.047 277.791 471.944 262.607 454.68 264.757C437.417 266.907 425.53 285.578 428.131 306.458C430.732 327.339 446.835 342.523 464.099 340.373Z" fill="#FF9472"/>
<path d="M464.062 340.075C481.216 337.939 493.031 319.413 490.45 298.697C487.87 277.98 471.872 262.918 454.718 265.055C437.564 267.192 425.75 285.718 428.33 306.434C430.911 327.15 446.909 342.212 464.062 340.075Z" fill="#FF9372"/>
<path d="M464.037 339.877C481.082 337.754 492.818 319.328 490.251 298.721C487.685 278.115 471.787 263.131 454.742 265.254C437.698 267.377 425.962 285.803 428.528 306.409C431.095 327.016 446.993 342 464.037 339.877Z" fill="#FF9271"/>
<path d="M464.001 339.58C480.936 337.47 492.6 319.189 490.054 298.747C487.507 278.304 471.715 263.442 454.78 265.552C437.846 267.661 426.181 285.943 428.728 306.385C431.274 326.827 447.066 341.689 464.001 339.58Z" fill="#FF9171"/>
<path d="M463.976 339.381C480.801 337.286 492.387 319.104 489.855 298.771C487.322 278.439 471.63 263.655 454.804 265.75C437.979 267.846 426.393 286.028 428.925 306.36C431.458 326.693 447.151 341.477 463.976 339.381Z" fill="#FF9070"/>
<path d="M463.938 339.083C480.599 337.008 492.068 318.976 489.556 298.808C487.044 278.639 471.501 263.972 454.841 266.047C438.18 268.122 426.71 286.154 429.222 306.323C431.734 326.491 447.277 341.158 463.938 339.083Z" fill="#FF8F70"/>
<path d="M463.902 338.786C480.453 336.724 491.85 318.837 489.358 298.833C486.867 278.829 471.43 264.284 454.879 266.345C438.327 268.407 426.93 286.294 429.422 306.298C431.913 326.302 447.35 340.847 463.902 338.786Z" fill="#FF8E6F"/>
<path d="M463.876 338.587C480.318 336.539 491.637 318.752 489.159 298.858C486.682 278.963 471.344 264.496 454.903 266.544C438.461 268.592 427.142 286.379 429.62 306.274C432.098 326.168 447.435 340.635 463.876 338.587Z" fill="#FF8D6F"/>
<path d="M463.84 338.288C480.172 336.254 491.419 318.611 488.962 298.881C486.504 279.151 471.273 264.806 454.941 266.84C438.609 268.874 427.361 286.518 429.819 306.247C432.276 325.977 447.508 340.322 463.84 338.288Z" fill="#FF8C6E"/>
<path d="M463.815 338.09C480.037 336.069 491.207 318.526 488.763 298.906C486.319 279.285 471.187 265.018 454.965 267.039C438.743 269.059 427.573 286.603 430.017 306.223C432.461 325.843 447.592 340.11 463.815 338.09Z" fill="#FF8B6E"/>
<path d="M463.778 337.792C479.891 335.785 490.988 318.386 488.565 298.931C486.142 279.475 471.115 265.33 455.003 267.337C438.89 269.344 427.793 286.743 430.216 306.198C432.639 325.654 447.666 339.799 463.778 337.792Z" fill="#FF8A6D"/>
<path d="M463.741 337.496C479.689 335.509 490.669 318.26 488.267 298.969C485.864 279.678 470.987 265.649 455.039 267.636C439.091 269.622 428.11 286.871 430.513 306.163C432.916 325.454 447.792 339.482 463.741 337.496Z" fill="#FF896C"/>
<path d="M463.715 337.297C479.554 335.325 490.457 318.175 488.068 298.994C485.678 279.812 470.902 265.861 455.063 267.834C439.225 269.807 428.322 286.956 430.711 306.138C433.1 325.32 447.877 339.27 463.715 337.297Z" fill="#FF886C"/>
<path d="M463.679 336.998C479.408 335.039 490.239 318.034 487.87 299.017C485.501 280 470.83 266.171 455.101 268.13C439.372 270.09 428.541 287.094 430.91 306.112C433.279 325.129 447.95 338.957 463.679 336.998Z" fill="#FF876B"/>
<path d="M463.654 336.8C479.273 334.854 490.026 317.949 487.671 299.042C485.316 280.134 470.745 266.383 455.125 268.329C439.506 270.274 428.753 287.179 431.108 306.087C433.463 324.995 448.034 338.745 463.654 336.8Z" fill="#FF866B"/>
<path d="M463.617 336.503C479.127 334.571 489.808 317.81 487.473 299.067C485.139 280.324 470.673 266.695 455.163 268.627C439.653 270.559 428.973 287.319 431.307 306.063C433.642 324.806 448.108 338.434 463.617 336.503Z" fill="#FF856A"/>
<path d="M463.581 336.205C478.981 334.287 489.59 317.671 487.276 299.092C484.961 280.513 470.601 267.007 455.201 268.925C439.801 270.843 429.192 287.46 431.506 306.038C433.821 324.617 448.181 338.124 463.581 336.205Z" fill="#FF846A"/>
<path d="M463.556 336.007C478.846 334.102 489.377 317.586 487.077 299.117C484.776 280.648 470.516 267.219 455.225 269.124C439.935 271.028 429.404 287.545 431.704 306.014C434.005 324.483 448.265 337.912 463.556 336.007Z" fill="#FF8369"/>
<path d="M463.518 335.708C478.644 333.824 489.058 317.458 486.778 299.153C484.498 280.848 470.388 267.537 455.261 269.421C440.135 271.305 429.721 287.671 432.001 305.976C434.281 324.281 448.392 337.592 463.518 335.708Z" fill="#FF8269"/>
<path d="M463.493 335.51C478.509 333.64 488.845 317.373 486.579 299.178C484.313 280.983 470.302 267.749 455.286 269.619C440.269 271.49 429.933 287.756 432.199 305.951C434.466 324.147 448.476 337.38 463.493 335.51Z" fill="#FF8168"/>
<path d="M463.456 335.213C478.363 333.356 488.627 317.234 486.381 299.203C484.136 281.172 470.23 268.061 455.323 269.917C440.417 271.774 430.153 287.896 432.399 305.927C434.644 323.958 448.549 337.07 463.456 335.213Z" fill="#FF8067"/>
<path d="M463.42 334.916C478.217 333.072 488.409 317.095 486.184 299.228C483.958 281.362 470.159 268.372 455.361 270.215C440.564 272.059 430.372 288.036 432.598 305.903C434.823 323.769 448.623 336.759 463.42 334.916Z" fill="#FF7F67"/>
<path d="M463.395 334.717C478.083 332.888 488.196 317.01 485.985 299.253C483.773 281.496 470.073 268.585 455.386 270.414C440.698 272.243 430.584 288.121 432.796 305.878C435.007 323.635 448.707 336.547 463.395 334.717Z" fill="#FF7E66"/>
<path d="M463.359 334.418C477.937 332.602 487.978 316.869 485.787 299.276C483.596 281.684 470.002 268.894 455.423 270.71C440.845 272.526 430.804 288.26 432.995 305.852C435.186 323.444 448.78 336.234 463.359 334.418Z" fill="#FF7D66"/>
<path d="M463.321 334.121C477.734 332.326 487.659 316.742 485.489 299.314C483.318 281.887 469.873 269.214 455.46 271.009C441.046 272.804 431.121 288.388 433.292 305.816C435.463 323.244 448.907 335.917 463.321 334.121Z" fill="#FF7C65"/>
<path d="M463.295 333.923C477.6 332.141 487.447 316.658 485.289 299.339C483.132 282.021 469.788 269.426 455.484 271.208C441.18 272.989 431.333 288.473 433.49 305.791C435.647 323.11 448.991 335.705 463.295 333.923Z" fill="#FF7B65"/>
<path d="M463.259 333.626C477.454 331.858 487.228 316.518 485.092 299.364C482.955 282.211 469.716 269.738 455.522 271.506C441.327 273.274 431.552 288.613 433.689 305.767C435.826 322.921 449.065 335.394 463.259 333.626Z" fill="#FF7A64"/>
<path d="M463.234 333.427C477.319 331.673 487.016 316.434 484.893 299.389C482.77 282.345 469.631 269.95 455.546 271.704C441.461 273.459 431.764 288.698 433.887 305.742C436.01 322.787 449.149 335.182 463.234 333.427Z" fill="#FF7964"/>
<path d="M463.198 333.128C477.173 331.387 486.798 316.292 484.695 299.412C482.593 282.533 469.559 270.26 455.584 272.001C441.608 273.741 431.984 288.836 434.086 305.716C436.189 322.596 449.222 334.869 463.198 333.128Z" fill="#FF7863"/>
<path d="M463.159 332.831C477.025 331.104 486.578 316.153 484.496 299.438C482.413 282.722 469.485 270.572 455.62 272.299C441.754 274.026 432.201 288.976 434.284 305.692C436.366 322.407 449.294 334.558 463.159 332.831Z" fill="#FF7762"/>
<path d="M463.134 332.633C476.836 330.927 486.266 316.081 484.198 299.475C482.129 282.87 469.345 270.791 455.644 272.498C441.943 274.204 432.513 289.05 434.581 305.656C436.649 322.261 449.433 334.34 463.134 332.633Z" fill="#FF7762"/>
<path d="M463.098 332.336C476.69 330.643 486.048 315.942 484 299.501C481.952 283.059 469.274 271.103 455.682 272.796C442.09 274.489 432.732 289.19 434.78 305.631C436.828 322.073 449.507 334.029 463.098 332.336Z" fill="#FF7661"/>
<path d="M463.073 332.136C476.555 330.456 485.835 315.855 483.801 299.523C481.767 283.192 469.188 271.313 455.706 272.993C442.224 274.672 432.944 289.273 434.978 305.605C437.012 321.937 449.591 333.815 463.073 332.136Z" fill="#FF7561"/>
<path d="M463.037 331.838C476.409 330.173 485.617 315.716 483.603 299.549C481.59 283.381 469.117 271.625 455.744 273.291C442.372 274.956 433.164 289.413 435.177 305.58C437.191 321.748 449.664 333.504 463.037 331.838Z" fill="#FF7460"/>
<path d="M462.998 331.541C476.261 329.889 485.397 315.577 483.404 299.574C481.41 283.571 469.043 271.937 455.78 273.589C442.517 275.241 433.382 289.553 435.375 305.556C437.368 321.559 449.736 333.193 462.998 331.541Z" fill="#FF7360"/>
<path d="M462.975 331.343C476.128 329.704 485.186 315.492 483.207 299.599C481.227 283.705 468.959 272.149 455.806 273.787C442.653 275.426 433.595 289.638 435.575 305.532C437.554 321.425 449.822 332.981 462.975 331.343Z" fill="#FF725F"/>
<path d="M462.937 331.044C475.926 329.426 484.867 315.364 482.908 299.635C480.949 283.906 468.831 272.466 455.842 274.084C442.854 275.702 433.912 289.765 435.872 305.494C437.831 321.223 449.948 332.662 462.937 331.044Z" fill="#FF715F"/>
<path d="M462.912 330.846C475.791 329.242 484.655 315.279 482.709 299.66C480.764 284.04 468.746 272.679 455.867 274.283C442.988 275.887 434.124 289.85 436.07 305.469C438.015 321.088 450.033 332.45 462.912 330.846Z" fill="#FF705E"/>
<path d="M462.876 330.549C475.645 328.958 484.436 315.14 482.511 299.685C480.586 284.23 468.674 272.99 455.905 274.581C443.135 276.172 434.344 289.99 436.269 305.445C438.194 320.9 450.106 332.139 462.876 330.549Z" fill="#FF6F5E"/>
<path d="M462.839 330.251C475.499 328.674 484.218 315.001 482.314 299.71C480.409 284.419 468.602 273.302 455.942 274.879C443.282 276.456 434.563 290.13 436.468 305.42C438.373 320.711 450.179 331.828 462.839 330.251Z" fill="#FF6E5D"/>
<path d="M462.814 330.053C475.364 328.49 484.006 314.916 482.115 299.735C480.224 284.554 468.517 273.514 455.967 275.078C443.416 276.641 434.775 290.215 436.666 305.396C438.557 320.577 450.264 331.616 462.814 330.053Z" fill="#FF6D5C"/>
<path d="M462.776 329.756C475.217 328.206 483.786 314.777 481.915 299.76C480.045 284.743 468.443 273.826 456.003 275.376C443.562 276.925 434.993 290.355 436.863 305.372C438.734 320.388 450.335 331.305 462.776 329.756Z" fill="#FF6C5C"/>
<path d="M462.74 329.456C475.071 327.921 483.567 314.635 481.717 299.783C479.867 284.931 468.371 274.136 456.04 275.672C443.709 277.208 435.213 290.493 437.062 305.345C438.912 320.197 450.408 330.992 462.74 329.456Z" fill="#FF6B5B"/>
<path d="M462.715 329.259C474.881 327.743 483.256 314.564 481.42 299.821C479.583 285.079 468.232 274.356 456.065 275.871C443.898 277.387 435.524 290.566 437.36 305.309C439.196 320.051 450.548 330.774 462.715 329.259Z" fill="#FF6A5B"/>
<path d="M462.678 328.962C474.735 327.46 483.038 314.424 481.222 299.846C479.406 285.268 468.16 274.668 456.103 276.169C444.046 277.671 435.743 290.707 437.559 305.285C439.375 319.863 450.621 330.463 462.678 328.962Z" fill="#FF695A"/>
<path d="M462.653 328.763C474.601 327.275 482.825 314.34 481.023 299.871C479.221 285.403 468.074 274.88 456.127 276.368C444.18 277.856 435.955 290.792 437.757 305.26C439.559 319.729 450.706 330.251 462.653 328.763Z" fill="#FF685A"/>
<path d="M462.617 328.464C474.455 326.989 482.607 314.198 480.825 299.894C479.044 285.59 468.003 275.19 456.165 276.664C444.327 278.139 436.175 290.93 437.956 305.234C439.738 319.538 450.779 329.938 462.617 328.464Z" fill="#FF6759"/>
<path d="M462.579 328.167C474.307 326.706 482.387 314.059 480.626 299.919C478.864 285.78 467.929 275.502 456.201 276.962C444.473 278.423 436.393 291.07 438.154 305.21C439.915 319.349 450.85 329.627 462.579 328.167Z" fill="#FF6659"/>
<path d="M462.555 327.968C474.174 326.521 482.176 313.974 480.429 299.944C478.681 285.914 467.846 275.714 456.227 277.161C444.608 278.608 436.606 291.155 438.354 305.185C440.101 319.215 450.937 329.415 462.555 327.968Z" fill="#FF6558"/>
<path d="M462.517 327.672C473.972 326.245 481.857 313.848 480.13 299.982C478.403 286.117 467.717 276.033 456.263 277.46C444.809 278.886 436.923 291.283 438.651 305.149C440.378 319.015 451.063 329.098 462.517 327.672Z" fill="#FF6457"/>
<path d="M462.492 327.473C473.837 326.06 481.644 313.763 479.931 300.007C478.218 286.251 467.632 276.245 456.287 277.658C444.943 279.071 437.135 291.368 438.848 305.124C440.562 318.88 451.148 328.886 462.492 327.473Z" fill="#FF6357"/>
<path d="M462.456 327.174C473.691 325.775 481.426 313.622 479.733 300.03C478.04 286.439 467.56 276.555 456.325 277.954C445.09 279.354 437.355 291.506 439.048 305.098C440.741 318.69 451.221 328.573 462.456 327.174Z" fill="#FF6256"/>
<path d="M462.418 326.877C473.543 325.491 481.206 313.483 479.534 300.056C477.861 286.628 467.487 276.867 456.361 278.253C445.236 279.638 437.573 291.647 439.245 305.074C440.917 318.501 451.292 328.263 462.418 326.877Z" fill="#FF6156"/>
<path d="M462.394 326.678C473.41 325.306 480.995 313.398 479.337 300.08C477.678 286.763 467.403 277.079 456.387 278.451C445.371 279.823 437.786 291.732 439.445 305.049C441.104 318.367 451.379 328.051 462.394 326.678Z" fill="#FF6055"/>
<path d="M462.356 326.381C473.262 325.023 480.775 313.259 479.137 300.106C477.499 286.952 467.329 277.391 456.423 278.749C445.517 280.108 438.004 291.872 439.642 305.025C441.281 318.178 451.45 327.74 462.356 326.381Z" fill="#FF5F55"/>
<path d="M462.331 326.182C473.073 324.844 480.464 313.185 478.839 300.141C477.214 287.098 467.19 277.609 456.448 278.947C445.706 280.285 438.315 291.943 439.94 304.987C441.564 318.03 451.589 327.519 462.331 326.182Z" fill="#FF5E54"/>
<path d="M462.295 325.884C472.927 324.56 480.246 313.046 478.642 300.167C477.037 287.287 467.118 277.92 456.486 279.245C445.853 280.569 438.535 292.083 440.139 304.962C441.743 317.842 451.663 327.209 462.295 325.884Z" fill="#FF5D54"/>
<path d="M462.259 325.587C472.781 324.276 480.028 312.907 478.444 300.192C476.86 287.477 467.046 278.232 456.523 279.543C446.001 280.854 438.755 292.223 440.338 304.938C441.922 317.653 451.736 326.898 462.259 325.587Z" fill="#FF5C53"/>
<path d="M462.233 325.389C472.646 324.092 479.815 312.822 478.245 300.217C476.675 287.611 466.961 278.444 456.548 279.741C446.135 281.038 438.966 292.308 440.536 304.913C442.106 317.519 451.82 326.686 462.233 325.389Z" fill="#FF5B53"/>
<path d="M462.195 325.091C472.498 323.808 479.595 312.683 478.045 300.242C476.496 287.801 466.887 278.756 456.584 280.04C446.28 281.323 439.184 292.448 440.733 304.889C442.283 317.33 451.892 326.375 462.195 325.091Z" fill="#FF5A52"/>
<path d="M462.159 324.794C472.353 323.524 479.377 312.543 477.847 300.267C476.318 287.991 466.815 279.068 456.621 280.338C446.428 281.607 439.404 292.589 440.933 304.865C442.462 317.141 451.965 326.064 462.159 324.794Z" fill="#FF5951"/>
<path d="M462.134 324.594C472.218 323.338 479.164 312.457 477.649 300.29C476.133 288.123 466.73 279.278 456.646 280.534C446.562 281.79 439.615 292.672 441.131 304.838C442.646 317.005 452.049 325.85 462.134 324.594Z" fill="#FF5851"/>
<path d="M462.098 324.297C472.017 323.062 478.847 312.33 477.352 300.328C475.857 288.326 466.604 279.598 456.684 280.833C446.764 282.069 439.935 292.8 441.43 304.802C442.924 316.805 452.178 325.533 462.098 324.297Z" fill="#FF5750"/>
<path d="M462.072 324.099C471.882 322.877 478.634 312.246 477.153 300.353C475.672 288.46 466.518 279.81 456.708 281.032C446.898 282.254 440.146 292.885 441.627 304.778C443.109 316.67 452.262 325.321 462.072 324.099Z" fill="#FF5650"/>
<path d="M462.036 323.802C471.737 322.593 478.416 312.106 476.955 300.378C475.494 288.65 466.446 280.122 456.746 281.33C447.045 282.538 440.366 293.025 441.827 304.753C443.288 316.482 452.336 325.01 462.036 323.802Z" fill="#FF554F"/>
<path d="M461.998 323.502C471.589 322.308 478.196 311.965 476.756 300.401C475.315 288.837 466.373 280.431 456.782 281.626C447.191 282.821 440.584 293.163 442.024 304.727C443.464 316.291 452.407 324.697 461.998 323.502Z" fill="#FF544F"/>
<path d="M461.973 323.304C471.454 322.123 477.983 311.88 476.557 300.426C475.13 288.972 466.287 280.644 456.806 281.825C447.325 283.006 440.795 293.248 442.222 304.703C443.649 316.157 452.491 324.485 461.973 323.304Z" fill="#FF534E"/>
<path d="M461.936 323.007C471.308 321.84 477.765 311.741 476.359 300.451C474.953 289.161 466.216 280.955 456.844 282.123C447.472 283.29 441.015 293.389 442.421 304.678C443.827 315.968 452.565 324.174 461.936 323.007Z" fill="#FF524E"/>
<path d="M461.911 322.809C471.119 321.662 477.454 311.669 476.061 300.489C474.669 289.309 466.076 281.175 456.868 282.322C447.661 283.469 441.326 293.462 442.719 304.642C444.111 315.822 452.704 323.956 461.911 322.809Z" fill="#FF514D"/>
</g>
<path opacity="0.1" d="M597.6 154.599C595 150.699 592 148.199 588.7 146.999C585.7 147.399 589.6 141.999 586.4 142.599C576.9 144.399 566.9 145.399 557.3 143.799C546.1 141.899 536.5 136.499 526.7 130.999C521.8 128.299 516.9 125.499 511.8 123.099C500.9 117.899 488 112.699 475.7 112.699C469.6 112.699 463.6 114.299 458 116.299C452.8 118.199 448.4 121.199 445.1 124.199C444.4 124.799 442.9 125.799 441.5 126.799C441.5 131.299 441.8 135.399 442.5 139.099C443.1 138.799 443.6 138.499 443.8 138.299C445.9 136.899 448.5 135.499 451.5 134.299C454.5 133.199 457.9 132.299 461.6 132.099C476.2 131.499 489.5 137.899 502.4 143.899C507.7 146.299 513.1 149.099 518.8 151.799C524.5 154.499 530.4 157.099 536.6 159.199C547.1 162.799 560 164.299 570.9 161.799C572.4 161.499 573.8 161.199 575.2 160.799C580.8 159.199 585.8 157.199 590.1 155.199" fill="#FFBC80"/>
<path d="M516.599 239.1C516.599 239.1 509.899 262.8 527.799 284.6L572.899 282.5C572.899 282.5 576.499 264 571.799 249.6C568.799 240.3 516.599 239 516.599 239V239.1Z" fill="url(#paint21_linear_2395_72714)"/>
<path d="M444.5 248.399C440.9 256.699 438.6 279.099 438.6 279.099L480.3 285.699C500.2 264.799 495.7 243.999 495.7 243.999C495.7 243.999 448.2 239.999 444.5 248.299V248.399Z" fill="url(#paint22_linear_2395_72714)"/>
<path d="M553.799 268.2C534.899 266.3 527.799 284.2 527.799 284.2C527.799 284.2 532.599 285.4 551.299 285.2C573.399 284.9 572.999 282.6 572.999 282.6C572.999 282.6 572.699 270.2 553.799 268.2Z" fill="white"/>
<path d="M438.6 279.2C438.6 279.2 439.7 284.2 457.5 284.6C479.1 285.1 480.3 285.8 480.3 285.8C480.3 285.8 480.3 278.8 474.6 273.3C466.7 265.7 451.1 260.8 438.6 279.2Z" fill="white"/>
<path d="M551.299 268C548.199 270.1 545.699 273.9 544.999 278.4C544.599 280.9 544.999 283.3 545.699 285.2C547.399 285.2 549.199 285.2 551.299 285.2C555.399 285.2 558.799 285 561.499 284.8C562.699 283 563.599 280.8 563.899 278.5C564.399 275.3 563.799 272.3 562.499 270.3C562.199 270.3 561.799 270 561.499 269.9C561.299 269.9 561.199 269.8 560.999 269.7C560.799 269.7 560.499 269.5 560.299 269.5C560.099 269.5 559.999 269.4 559.799 269.4C559.499 269.4 559.199 269.2 558.799 269.1C558.799 269.1 558.599 269.1 558.499 269.1C558.099 269.1 557.599 268.9 557.199 268.8C557.099 268.8 556.899 268.8 556.799 268.8C556.499 268.8 556.099 268.7 555.699 268.6C555.599 268.6 555.399 268.6 555.299 268.6C554.799 268.6 554.299 268.5 553.799 268.4C553.299 268.4 552.899 268.4 552.499 268.4C552.099 268.4 551.699 268.4 551.399 268.4L551.299 268Z" fill="url(#paint23_linear_2395_72714)"/>
<path d="M473.2 285.099C474.4 283.199 475.3 280.699 475.7 278.399C475.9 277.299 476.2 276.299 476.2 275.299C476.2 275.199 476.2 274.999 476.2 274.899C475.8 274.399 475.3 273.799 474.8 273.299C472.1 270.699 468.5 268.399 464.4 267.299C464.4 267.299 464.3 267.299 464.2 267.299C463.9 267.499 463.7 267.599 463.4 267.799C462.3 268.599 461.4 269.499 460.5 270.499C458.7 272.699 457.5 275.399 457.1 278.199C456.8 280.299 457.1 282.699 457.7 284.499C465 284.699 469.9 284.899 473.3 284.999L473.2 285.099Z" fill="url(#paint24_linear_2395_72714)"/>
<path d="M463.3 264.399C448 261.799 437.4 272.899 438.6 279.199C438.6 279.199 447.4 270.799 460.1 272.299C476.1 274.199 480.3 285.799 480.3 285.799C483.4 279.899 482 267.499 463.3 264.399Z" fill="#603F37"/>
<path d="M558.199 278.7C558.399 276.3 556.599 274.4 554.299 274.5C551.999 274.6 549.999 276.7 549.799 279.1C549.699 280.9 550.599 282.3 551.999 283C552.899 283 553.699 283.2 554.499 283.2C556.499 282.8 558.099 280.9 558.299 278.7H558.199Z" fill="#1E1D1D"/>
<path d="M443.699 250.7C461.799 239.6 486.699 257.3 494.599 249.1C497.699 245.9 496.199 236.8 496.199 236.8C450.899 226 443.799 250.6 443.799 250.6L443.699 250.7Z" fill="url(#paint25_linear_2395_72714)"/>
<path d="M516.6 239.1C516.6 239.1 514.8 249.1 518 251.4C530.2 260.4 566.5 241.3 571.8 249.7C571.8 249.7 569.6 226.3 516.6 239.1Z" fill="url(#paint26_linear_2395_72714)"/>
<path d="M548.499 265.399C528.599 265.699 524.799 281.299 527.699 284.199C527.699 284.199 531.599 272.999 550.299 273.299C568.799 273.599 572.899 282.499 572.899 282.499C573.399 276.099 569.499 264.999 548.499 265.299V265.399Z" fill="#603F37"/>
<path d="M470.199 278.7C470.399 276.3 468.599 274.4 466.299 274.5C463.999 274.6 461.999 276.7 461.799 279.1C461.699 280.9 462.599 282.3 463.999 283C464.899 283 465.699 283.2 466.499 283.2C468.499 282.8 470.099 280.9 470.299 278.7H470.199Z" fill="#1E1D1D"/>
<path d="M496.9 332.7C479 330.5 464.6 341.9 464.6 341.9C464.6 341.9 465.8 350 472.6 350.4C480.1 350.8 490 345.6 496.1 345.4C507.7 345.1 511.2 354.8 517.7 353C524.2 351.2 527.8 342.2 527.8 342.2C527.8 342.2 514.8 334.9 496.9 332.7Z" fill="url(#paint27_linear_2395_72714)"/>
<path d="M467 341.399C467 341.399 467.2 344.399 473.9 345.799C480.5 347.299 486.5 339.799 498 341.399C509.5 342.899 513.1 350.799 519.6 348.999C526.1 347.199 528.7 341.199 528.7 341.199C528.7 341.199 515.9 331.399 498 329.199C480.1 326.999 467 341.399 467 341.399Z" fill="#FB755C"/>
<path opacity="0.8" d="M461.6 277.598C459.4 278.598 457.9 280.598 458.2 282.098C458.5 283.598 460.5 283.898 462.6 282.898C464.8 281.898 466.3 279.898 466 278.398C465.7 276.898 463.7 276.598 461.6 277.598Z" fill="white"/>
<path opacity="0.8" d="M549.6 277.598C547.4 278.598 545.9 280.598 546.2 282.098C546.5 283.598 548.5 283.898 550.6 282.898C552.8 281.898 554.3 279.898 554 278.398C553.7 276.898 551.7 276.598 549.6 277.598Z" fill="white"/>
<path d="M493.699 292.698C493.699 292.698 477.299 289.298 472.999 303.598C467.599 321.798 503.799 333.198 514.099 314.298C524.399 295.398 498.899 259.398 498.899 259.398C498.899 259.398 504.799 277.898 493.599 292.598L493.699 292.698Z" fill="#FF9E78"/>
<path d="M472.6 308.699C474.5 323.699 504.9 331.399 514.2 314.299C514.8 313.299 515.2 312.199 515.6 310.999C501.2 313.799 486.3 312.699 472.7 308.699H472.6Z" fill="url(#paint28_linear_2395_72714)"/>
<path opacity="0.2" d="M504.4 278.7L500.3 278.5C500.3 278.5 497.9 291.6 493.9 293.4C493.3 293.4 492.6 293.3 492 293.2C484.9 292.8 479 295 478.8 298.1C478.6 301.2 484.3 303.8 491.4 304.2C498.1 304.6 504 303.5 504.8 299.9C504.8 299.9 508.2 286.2 504.4 278.7Z" fill="white"/>
<path opacity="0.3" d="M464.799 290.1C459.999 289.9 455.299 289.6 450.799 288.1C448.199 287.2 445.899 291.2 448.599 292.2C453.499 294.1 458.899 295.2 464.299 294.6C466.699 294.3 467.399 290.3 464.799 290.2V290.1Z" fill="#CC5C50"/>
<path opacity="0.3" d="M559.499 288.699C554.099 289.399 548.899 290.099 543.399 289.799C540.499 289.599 540.599 293.999 543.399 294.299C548.899 294.799 554.699 294.699 559.999 293.099C562.299 292.399 561.899 288.399 559.399 288.799L559.499 288.699Z" fill="#CC5C50"/>
<path d="M444.199 446.898C444.799 437.698 442.599 418.598 444.899 410.098C447.199 401.598 452.399 363.898 450.999 358.998C449.599 354.098 458.399 349.098 464.599 357.398C470.799 365.798 467.599 395.498 468.899 395.898C470.199 396.298 504.399 369.398 515.399 367.398C526.399 365.398 551.499 375.298 553.399 377.498C555.299 379.698 555.899 384.998 550.299 387.598C544.699 390.198 532.599 385.698 529.499 386.498C526.499 387.398 514.099 394.098 510.999 402.198C510.999 402.198 529.199 404.298 535.399 410.198C541.599 416.098 536.699 424.798 536.699 424.798C536.699 424.798 544.199 430.198 542.899 436.798C541.599 443.298 539.199 446.498 539.199 446.498C539.199 446.498 545.299 453.498 542.399 461.298C539.499 469.098 523.299 483.898 519.599 483.398C515.999 482.898 513.599 481.698 513.599 481.698C513.599 481.698 505.699 491.898 500.099 495.498C494.499 499.098 487.499 503.498 486.899 503.298C486.199 503.098 438.699 475.598 438.699 475.598C438.699 475.598 443.699 454.098 444.099 446.798L444.199 446.898Z" fill="#FF9E78"/>
<path d="M443.399 453.399L488.599 495.499C488.599 495.499 464.599 638.199 449.899 678.499C435.199 718.799 355.999 679.899 355.199 670.999C354.399 662.199 439.099 487.899 443.399 453.299V453.399Z" fill="#FF9E78"/>
<path d="M548.499 385.699C543.799 386.499 532.299 384.399 527.499 383.899C519.199 383.099 509.099 393.899 509.099 393.899L495.999 392.199C495.599 393.999 495.199 395.799 494.899 397.599C494.699 398.699 494.399 399.899 494.299 401.099C494.199 402.799 495.699 403.099 496.999 403.599C498.799 404.199 500.299 405.399 501.399 406.899C504.499 411.499 502.199 418.399 505.599 422.799C507.599 425.299 511.099 426.499 512.699 429.299C514.599 432.599 513.099 436.999 514.499 440.499C515.199 442.199 516.499 443.599 517.399 445.299C519.199 448.499 518.399 451.299 518.399 454.699C518.399 455.999 518.099 456.899 517.499 457.999C516.099 460.699 513.999 462.999 511.999 465.199C506.199 471.499 499.799 477.199 493.299 482.799C488.499 486.899 483.699 490.899 478.699 494.699C478.399 494.899 477.999 495.399 477.699 495.399C477.099 495.499 453.799 637.899 441.199 650.899C434.699 657.499 405.999 681.599 391.199 677.099C380.699 673.899 370.799 645.299 370.299 643.099C369.199 638.799 443.199 472.499 445.599 462.099C447.899 451.699 450.299 430.999 450.999 427.699C450.999 427.699 466.899 400.999 472.899 393.499C470.599 395.099 469.199 395.999 468.899 395.899C467.599 395.499 470.899 365.799 464.599 357.399C458.299 348.999 449.599 354.099 450.999 358.999C452.399 363.899 447.199 401.599 444.899 410.099C442.599 418.599 444.899 437.699 444.199 446.899C444.099 448.999 443.599 452.199 442.899 455.699C434.299 496.899 354.499 661.499 355.299 670.099C355.699 674.399 373.699 706.899 390.899 709.499C414.499 712.999 442.399 698.399 449.999 677.599C462.499 643.299 481.699 535.099 487.199 503.399C488.699 502.899 494.999 498.899 500.099 495.599C505.699 491.999 513.599 481.799 513.599 481.799C513.599 481.799 515.999 483.099 519.599 483.499C523.199 483.999 539.399 469.199 542.399 461.399C545.399 453.599 539.199 446.599 539.199 446.599C539.199 446.599 541.699 443.399 542.899 436.899C544.199 430.399 536.699 424.899 536.699 424.899C536.699 424.899 541.499 416.199 535.399 410.299C529.299 404.399 510.999 402.299 510.999 402.299C514.199 394.199 526.499 387.499 529.499 386.599C532.499 385.699 544.699 390.199 550.299 387.699C555.099 385.499 555.299 381.199 553.999 378.599C553.999 380.599 553.699 384.899 548.499 385.799V385.699Z" fill="url(#paint29_linear_2395_72714)"/>
<path d="M468.798 395.898C468.398 395.798 468.398 392.998 468.498 388.898C462.298 395.998 454.698 405.298 453.498 406.798L457.598 410.098C461.098 405.798 465.598 400.398 469.698 395.598C469.298 395.798 468.998 395.998 468.898 395.898H468.798Z" fill="#E4856B"/>
<path d="M514.1 397.299C507.4 395.999 500.6 394.799 497.7 394.199C497.5 395.899 497.3 397.899 497.1 399.599C499.7 400.099 505.3 401.099 511.1 402.099C511.8 400.399 512.9 398.799 514.2 397.199L514.1 397.299Z" fill="#E4856B"/>
<path d="M512.799 402.5C515.199 402.9 517.599 403.4 519.799 403.8C516.999 403.2 514.399 402.7 512.799 402.5Z" fill="#F87F67"/>
<path d="M539.3 427.199C537.9 425.699 536.7 424.899 536.7 424.899C536.7 424.899 537.5 423.499 538 421.399C531.4 419.299 520.4 416.399 513.4 417.099L513.9 422.299C521 421.599 533.8 425.499 539.2 427.299L539.3 427.199Z" fill="#E4856B"/>
<path d="M539.199 446.599C539.199 446.599 540.499 444.899 541.699 441.499C535.999 439.099 526.799 436.999 517.699 435.199C517.699 436.999 518.399 439.199 518.299 440.999C529.599 443.299 536.499 445.499 539.499 446.999C539.299 446.699 539.199 446.599 539.199 446.599Z" fill="#E4856B"/>
<path d="M533.6 464.2L529.4 461.1L513.6 481.8C513.6 481.8 515.9 483 519.3 483.5L533.6 464.3V464.2Z" fill="#E4856B"/>
<path d="M515.299 367.398C507.499 368.798 487.999 382.798 476.799 390.698C477.499 393.098 479.099 396.398 482.399 396.398C487.599 396.398 518.799 379.098 521.399 378.898C523.999 378.698 545.599 384.998 549.499 382.598C552.199 380.898 552.999 378.698 552.799 376.998C548.699 374.098 525.699 365.498 515.299 367.398Z" fill="url(#paint30_linear_2395_72714)"/>
<path d="M452.099 354.999C453.199 355.199 455.399 357.399 455.499 361.499C455.499 364.799 448.799 393.899 453.599 394.399C457.599 394.899 464.899 391.299 468.699 385.199C468.699 375.699 468.499 362.599 464.699 357.499C460.299 351.599 454.699 352.399 452.199 354.999H452.099Z" fill="url(#paint31_linear_2395_72714)"/>
<path d="M513.699 431.899C512.799 427.199 507.999 424.899 505.699 422.799C503.399 420.699 503.899 411.699 500.699 405.999C497.499 400.299 472.999 395.199 471.499 395.199C469.999 395.199 450.699 429.199 450.699 429.199L444.299 445.699C444.299 446.099 444.299 446.499 444.299 446.899C444.099 449.799 443.199 455.099 442.199 460.299C434.099 492.099 395.599 575.999 372.699 627.999C371.499 633.599 370.599 638.699 370.799 641.199C371.199 648.099 375.399 673.399 391.299 677.199C407.199 680.999 433.199 660.499 443.699 647.299C454.199 634.099 477.799 495.599 477.799 495.599C477.799 495.599 513.199 467.299 516.899 461.399C520.599 455.499 520.599 449.499 517.599 445.399C514.599 441.299 514.699 436.699 513.799 432.099L513.699 431.899Z" fill="url(#paint32_linear_2395_72714)"/>
<path d="M643.1 613.599C631.6 610.599 537.2 617.199 490.4 620.699C488.2 628.199 484.6 646.999 499.5 656.599C518.4 668.799 647.8 686.199 655.7 681.899C662.8 677.999 678.7 651.699 681.1 643.699C672.5 631.599 654.4 616.599 643.1 613.599Z" fill="url(#paint33_linear_2395_72714)"/>
<path opacity="0.1" d="M571.7 167.6C573.6 165.5 570.6 162.7 568.5 164.6C561.9 170.9 554.8 175.4 547 179.6C549.1 178.7 550.4 178.1 550.4 178.1C552.5 178.1 554.6 178.9 556.7 180.3C562.3 176.8 567.3 172.4 571.6 167.7L571.7 167.6Z" fill="black"/>
<path d="M612.79 171.724C616.62 165.392 594.596 145.057 563.598 126.303C532.599 107.55 504.365 97.4801 500.534 103.812C496.703 110.144 518.727 130.48 549.726 149.233C580.724 167.987 608.959 178.056 612.79 171.724Z" fill="#0C4266"/>
<path d="M612.634 172.308C608.819 178.687 580.555 168.529 549.517 149.865C518.491 131.102 496.567 109.64 500.381 103.261C501.137 102.044 502.786 101.745 504.796 102.599C506.807 103.453 527.179 123.615 552.484 138.948C579.674 155.32 610.812 160.998 612.891 169.418C613.141 170.658 613.117 171.663 612.621 172.407L612.634 172.308Z" fill="#092E4C"/>
<defs>
<linearGradient id="paint0_linear_2395_72714" x1="456" y1="1575.3" x2="456" y2="1493.2" gradientUnits="userSpaceOnUse">
<stop stop-color="white"/>
<stop offset="1" stop-color="#A5B7C6"/>
</linearGradient>
<linearGradient id="paint1_linear_2395_72714" x1="719.4" y1="1139.5" x2="704.1" y2="965.4" gradientUnits="userSpaceOnUse">
<stop stop-color="#3D434F"/>
<stop offset="1" stop-color="#333844"/>
</linearGradient>
<linearGradient id="paint2_linear_2395_72714" x1="278.999" y1="1493.9" x2="279.499" y2="1521" gradientUnits="userSpaceOnUse">
<stop stop-color="#5B5B60"/>
<stop offset="1" stop-color="#2C2C2D"/>
</linearGradient>
<linearGradient id="paint3_linear_2395_72714" x1="628.299" y1="1493.9" x2="628.799" y2="1521.1" gradientUnits="userSpaceOnUse">
<stop stop-color="#5B5B60"/>
<stop offset="1" stop-color="#2C2C2D"/>
</linearGradient>
<linearGradient id="paint4_linear_2395_72714" x1="467.331" y1="1062.01" x2="484.504" y2="903.912" gradientUnits="userSpaceOnUse">
<stop stop-color="#3D434F"/>
<stop offset="1" stop-color="#333844"/>
</linearGradient>
<linearGradient id="paint5_linear_2395_72714" x1="453.1" y1="845.998" x2="485" y2="845.998" gradientUnits="userSpaceOnUse">
<stop stop-color="#5F6163"/>
<stop offset="1" stop-color="#444749"/>
</linearGradient>
<linearGradient id="paint6_linear_2395_72714" x1="470.699" y1="845.099" x2="484.699" y2="845.099" gradientUnits="userSpaceOnUse">
<stop stop-color="#5F6163"/>
<stop offset="1" stop-color="#444749"/>
</linearGradient>
<linearGradient id="paint7_linear_2395_72714" x1="500.6" y1="398.599" x2="500.6" y2="424.799" gradientUnits="userSpaceOnUse">
<stop stop-color="#DB7D67"/>
<stop offset="1" stop-color="#FF9E78"/>
</linearGradient>
<linearGradient id="paint8_linear_2395_72714" x1="514.5" y1="426.798" x2="514.5" y2="558.498" gradientUnits="userSpaceOnUse">
<stop stop-color="#DEEFFF"/>
<stop offset="1" stop-color="#CADBEF"/>
</linearGradient>
<linearGradient id="paint9_linear_2395_72714" x1="517.099" y1="573.199" x2="517.099" y2="838.499" gradientUnits="userSpaceOnUse">
<stop stop-color="#B3CBE2"/>
<stop offset="1" stop-color="#CADBEF"/>
</linearGradient>
<linearGradient id="paint10_linear_2395_72714" x1="501.499" y1="442.798" x2="501.499" y2="465.898" gradientUnits="userSpaceOnUse">
<stop stop-color="#B3CBE2"/>
<stop offset="1" stop-color="#CADBEF"/>
</linearGradient>
<linearGradient id="paint11_linear_2395_72714" x1="503.2" y1="665.299" x2="503.2" y2="833.499" gradientUnits="userSpaceOnUse">
<stop stop-color="#B3CBE2"/>
<stop offset="1" stop-color="#CADBEF"/>
</linearGradient>
<linearGradient id="paint12_linear_2395_72714" x1="362.2" y1="615.899" x2="381.3" y2="639.399" gradientUnits="userSpaceOnUse">
<stop stop-color="#DEEFFF"/>
<stop offset="1" stop-color="#CADBEF"/>
</linearGradient>
<linearGradient id="paint13_linear_2395_72714" x1="632.599" y1="593.498" x2="667.299" y2="636.398" gradientUnits="userSpaceOnUse">
<stop stop-color="#DEEFFF"/>
<stop offset="1" stop-color="#CADBEF"/>
</linearGradient>
<linearGradient id="paint14_linear_2395_72714" x1="437.099" y1="660.199" x2="511.199" y2="660.199" gradientUnits="userSpaceOnUse">
<stop stop-color="#C6664F"/>
<stop offset="1" stop-color="#FF9E78"/>
</linearGradient>
<linearGradient id="paint15_linear_2395_72714" x1="536.599" y1="721.7" x2="562.099" y2="656.4" gradientUnits="userSpaceOnUse">
<stop stop-color="#C6664F"/>
<stop offset="1" stop-color="#FF9E78"/>
</linearGradient>
<linearGradient id="paint16_linear_2395_72714" x1="400.686" y1="295.406" x2="440.28" y2="296.097" gradientUnits="userSpaceOnUse">
<stop stop-color="#F28C70"/>
<stop offset="1" stop-color="#FF9E78"/>
</linearGradient>
<linearGradient id="paint17_linear_2395_72714" x1="509.487" y1="175.986" x2="508.947" y2="206.882" gradientUnits="userSpaceOnUse">
<stop stop-color="#C6664F"/>
<stop offset="1" stop-color="#FF9E78"/>
</linearGradient>
<linearGradient id="paint18_linear_2395_72714" x1="587.601" y1="330.573" x2="627.694" y2="331.273" gradientUnits="userSpaceOnUse">
<stop stop-color="#F28C70"/>
<stop offset="1" stop-color="#FF9E78"/>
</linearGradient>
<linearGradient id="paint19_linear_2395_72714" x1="600.911" y1="295.8" x2="620.908" y2="296.149" gradientUnits="userSpaceOnUse">
<stop stop-color="#F28C70"/>
<stop offset="1" stop-color="#FF9E78"/>
</linearGradient>
<linearGradient id="paint20_linear_2395_72714" x1="531.409" y1="109.952" x2="527.016" y2="186.126" gradientUnits="userSpaceOnUse">
<stop stop-color="#75483B"/>
<stop offset="0.4" stop-color="#704438"/>
<stop offset="0.7" stop-color="#623C2F"/>
<stop offset="1" stop-color="#563428"/>
</linearGradient>
<linearGradient id="paint21_linear_2395_72714" x1="546.439" y1="213.437" x2="544.327" y2="277.11" gradientUnits="userSpaceOnUse">
<stop stop-color="#C6664F"/>
<stop offset="1" stop-color="#FF9E78"/>
</linearGradient>
<linearGradient id="paint22_linear_2395_72714" x1="469.057" y1="217.486" x2="467.138" y2="275.862" gradientUnits="userSpaceOnUse">
<stop stop-color="#C6664F"/>
<stop offset="1" stop-color="#FF9E78"/>
</linearGradient>
<linearGradient id="paint23_linear_2395_72714" x1="544.799" y1="276.6" x2="563.999" y2="276.6" gradientUnits="userSpaceOnUse">
<stop stop-color="#704A3E"/>
<stop offset="1"/>
</linearGradient>
<linearGradient id="paint24_linear_2395_72714" x1="456.9" y1="276.199" x2="476.1" y2="276.199" gradientUnits="userSpaceOnUse">
<stop stop-color="#704A3E"/>
<stop offset="1"/>
</linearGradient>
<linearGradient id="paint25_linear_2395_72714" x1="381.05" y1="219.328" x2="377.614" y2="237.615" gradientUnits="userSpaceOnUse">
<stop stop-color="#75483B"/>
<stop offset="0.4" stop-color="#704438"/>
<stop offset="0.7" stop-color="#623C2F"/>
<stop offset="1" stop-color="#563428"/>
</linearGradient>
<linearGradient id="paint26_linear_2395_72714" x1="538.238" y1="239.809" x2="540.005" y2="255.015" gradientUnits="userSpaceOnUse">
<stop stop-color="#75483B"/>
<stop offset="0.4" stop-color="#704438"/>
<stop offset="0.7" stop-color="#623C2F"/>
<stop offset="1" stop-color="#563428"/>
</linearGradient>
<linearGradient id="paint27_linear_2395_72714" x1="496.4" y1="336" x2="495.8" y2="349.8" gradientUnits="userSpaceOnUse">
<stop stop-color="#C6664F"/>
<stop offset="1" stop-color="#FF9E78"/>
</linearGradient>
<linearGradient id="paint28_linear_2395_72714" x1="494.057" y1="320.839" x2="494.296" y2="307.141" gradientUnits="userSpaceOnUse">
<stop stop-color="#F28C70"/>
<stop offset="1" stop-color="#FF9E78"/>
</linearGradient>
<linearGradient id="paint29_linear_2395_72714" x1="525.106" y1="543.949" x2="408.632" y2="529.355" gradientUnits="userSpaceOnUse">
<stop stop-color="#F28C70"/>
<stop offset="1" stop-color="#FF9E78"/>
</linearGradient>
<linearGradient id="paint30_linear_2395_72714" x1="517.954" y1="361.563" x2="515.745" y2="377.782" gradientUnits="userSpaceOnUse">
<stop stop-color="#FFB9A4"/>
<stop offset="1" stop-color="#FF9E78"/>
</linearGradient>
<linearGradient id="paint31_linear_2395_72714" x1="473.806" y1="359.436" x2="460.612" y2="370.471" gradientUnits="userSpaceOnUse">
<stop stop-color="#FFB9A4"/>
<stop offset="1" stop-color="#FF9E78"/>
</linearGradient>
<linearGradient id="paint32_linear_2395_72714" x1="339.37" y1="490.297" x2="455.563" y2="545.718" gradientUnits="userSpaceOnUse">
<stop stop-color="#FFB9A4"/>
<stop offset="1" stop-color="#FF9E78"/>
</linearGradient>
<linearGradient id="paint33_linear_2395_72714" x1="591.6" y1="596.499" x2="581.5" y2="656.299" gradientUnits="userSpaceOnUse">
<stop stop-color="#FFB9A4"/>
<stop offset="1" stop-color="#FF9E78"/>
</linearGradient>
</defs>
</svg>
