<svg width="940" height="1600" viewBox="0 0 940 1600" fill="none" xmlns="http://www.w3.org/2000/svg">
<path d="M773.202 1536.9C773.202 1536.9 631.202 1564.3 455.902 1564.3C280.602 1564.3 138.602 1536.9 138.602 1536.9C138.602 1536.9 280.602 1509.5 455.902 1509.5C631.202 1509.5 773.202 1536.9 773.202 1536.9Z" fill="url(#paint0_linear_2395_72714)"/>
<path d="M309.802 1472.7C308.702 1473.2 228.902 1516.8 228.002 1530.5C228.002 1531.1 225.702 1531.5 225.402 1531.9V1537.3C268.002 1551.7 354.102 1534.7 354.102 1534.7C354.102 1534.7 354.302 1538.1 355.202 1538.2C372.302 1539.9 401.202 1536 403.202 1534.4C403.602 1534.1 404.202 1529.4 404.002 1525.3C404.002 1524.9 402.902 1524 402.902 1524C403.802 1507.8 403.802 1476.6 403.902 1475.9C406.702 1461.9 316.302 1448.5 309.802 1472.7Z" fill="#2C2C2D"/>
<path d="M598.101 1472.7C599.201 1473.2 679.001 1516.8 679.901 1530.5C679.901 1531.1 682.201 1531.5 682.501 1531.9V1537.3C639.901 1551.7 553.801 1534.7 553.801 1534.7C553.801 1534.7 553.601 1538.1 552.701 1538.2C535.601 1539.9 506.701 1536 504.701 1534.4C504.301 1534.1 503.701 1529.4 503.901 1525.3C503.901 1524.9 505.001 1524 505.001 1524C504.101 1507.8 504.101 1476.6 504.001 1475.9C501.201 1461.9 591.601 1448.5 598.101 1472.7Z" fill="#2C2C2D"/>
<path d="M410.201 1496.2C438.701 1180.9 499.501 929.8 501.901 859.5L358.301 843.6C348.401 954.1 309.101 1239.1 292.301 1482.6C292.301 1482.6 305.901 1474.8 333.201 1476.3C359.201 1477.7 388.901 1493.8 403.601 1498.3C403.601 1498.3 409.501 1496.5 410.201 1496.3V1496.2Z" fill="#333844"/>
<path d="M498.701 1496.1C489.001 1178.8 507.601 929.8 505.301 859.5L648.901 843.6C658.801 954.1 616.301 1247.4 615.801 1482.6C615.801 1482.6 601.801 1475 575.001 1476.2C540.801 1477.7 519.101 1493.7 504.401 1498.2L498.801 1496.1H498.701Z" fill="#333844"/>
<path d="M359.601 812.4C355.401 892.5 354.201 930.1 354.201 930.1C354.201 930.1 437.701 937 528.201 936.2C587.001 935.7 637.201 940.1 641.101 916.2C644.601 894.6 647.701 869.5 649.801 814.7L643.301 807.9C628.601 809.4 580.101 815.7 501.601 814.7C415.301 813.6 377.001 808 366.101 807.1C364.501 807 359.701 810.7 359.601 812.4Z" fill="#333844"/>
<path d="M476.801 929.299L475.801 935.699C499.701 936.499 530.601 935.899 530.601 935.899V929.399C530.501 929.399 476.801 929.399 476.801 929.399V929.299Z" fill="#292D35"/>
<path d="M352.201 909.499C359.001 905.099 374.901 895.199 383.101 887.699C382.201 886.399 381.301 885.099 380.301 883.799C375.601 887.299 358.001 898.199 352.901 901.699L352.201 909.399V909.499Z" fill="#292D35"/>
<path d="M501.502 832.099C426.202 832.099 379.502 828.699 359.002 826.799C356.502 826.799 354.902 853.899 357.802 855.199C379.702 857.199 426.402 860.399 501.602 860.399C576.802 860.399 622.702 856.599 649.702 854.599C652.102 854.799 651.202 826.699 648.602 826.699C623.402 828.599 569.602 831.999 501.502 831.999V832.099Z" fill="#1C1D1E"/>
<path d="M434.901 870.198L417.801 869.298L421.101 821.898L438.201 822.798L434.901 870.198Z" fill="#333844"/>
<path d="M577.202 870.198L560.002 869.298L563.302 821.898L580.402 822.798L577.202 870.198Z" fill="#333844"/>
<path d="M650.101 899.999L622.901 883.299C621.801 885.799 622.201 884.999 621.201 887.599C628.901 894.199 641.801 902.499 649.901 907.499C649.901 905.099 650.101 902.399 650.101 899.999Z" fill="#292D35"/>
<path d="M638.902 940C638.902 940 624.802 1166.4 619.602 1171.3C614.402 1176.2 587.402 1196.3 580.702 1195.6C569.902 1194.5 519.902 1171.4 517.602 1164C515.402 1156.5 520.002 950.3 519.702 944.6C519.502 940.5 638.802 940.1 638.802 940.1L638.902 940Z" fill="url(#paint1_linear_2395_72714)"/>
<path d="M496.203 1375.1C496.003 1375.1 495.403 1422.9 495.003 1428.6C494.703 1432.1 492.703 1435.2 491.103 1438.4C489.503 1441.6 488.303 1445.3 489.603 1448.6C490.703 1451.3 493.503 1453.2 494.503 1456C495.803 1459.7 493.703 1463.2 493.503 1466.8C493.203 1470.8 494.403 1475.2 494.603 1479.4C494.703 1481.4 494.103 1494.4 496.203 1495.6C498.203 1496.7 504.303 1498.4 504.303 1498.4C521.403 1494.8 550.603 1482.5 572.203 1477.4C596.803 1471.6 615.703 1482.8 615.703 1482.8C615.703 1479.2 621.103 1470.5 621.503 1469C623.703 1460.4 614.403 1459.6 616.703 1455.1C624.303 1440.5 614.803 1436.8 616.303 1430.1C617.103 1426.7 621.203 1423.4 621.203 1419.9C621.203 1417 619.302 1411.8 618.602 1409C616.702 1401.8 618.703 1366.9 618.703 1366.9C611.303 1367.4 496.203 1375.3 496.203 1375.3V1375.1Z" fill="#333844"/>
<path d="M423.401 1370.7C423.401 1370.7 416.701 1436.2 418.301 1439.4C419.901 1442.6 421.101 1446.3 419.801 1449.6C418.701 1452.3 415.901 1454.2 414.901 1457C413.601 1460.7 415.701 1464.2 415.901 1467.8C416.201 1471.8 415.001 1476.2 414.801 1480.4C414.701 1482.4 413.201 1496.6 413.201 1496.6L403.601 1499.2C372.701 1499.2 359.801 1482.9 339.901 1477.9C315.401 1471.6 292.301 1482.8 292.301 1482.8C292.701 1476.6 292.401 1458.2 291.801 1456.7C290.801 1454.4 289.401 1452.2 289.101 1449.8C288.401 1443 297.001 1437.4 295.501 1430.7C294.701 1427.3 291.401 1424.6 291.401 1421.1C291.401 1418.2 293.501 1415.8 295.001 1413.3C297.701 1408.4 302.101 1361.3 302.101 1361.3C309.101 1363.1 423.501 1370.9 423.501 1370.9L423.401 1370.7Z" fill="#333844"/>
<path d="M352.902 1527.9C330.102 1530.7 304.202 1533.9 282.502 1534.2C249.602 1534.8 233.502 1531.6 228.002 1530.2C228.002 1530.3 228.002 1530.4 228.002 1530.5C228.002 1531.1 225.702 1531.5 225.402 1531.9V1532.1C228.202 1533 241.802 1536.8 274.902 1536.8C308.002 1536.8 280.002 1536.8 282.702 1536.8C304.502 1536.4 330.402 1533.2 353.302 1530.4C375.402 1527.7 394.602 1525.3 404.102 1526.2C404.102 1525.9 404.102 1525.6 404.102 1525.3C404.102 1524.9 403.002 1524 403.002 1524C403.002 1523.9 403.002 1523.7 403.002 1523.6C392.902 1523 374.302 1525.3 353.102 1527.9H352.902Z" fill="#3D3D3D"/>
<path d="M554.901 1527.9C577.701 1530.7 603.601 1533.9 625.201 1534.2C658.101 1534.8 674.201 1531.6 679.801 1530.2C679.801 1530.3 679.801 1530.4 679.801 1530.5C679.801 1531.1 682.101 1531.5 682.401 1531.9C679.601 1533 665.901 1536.8 632.901 1536.8C599.901 1536.8 627.801 1536.8 625.101 1536.8C603.301 1536.4 577.401 1533.2 554.501 1530.4C532.401 1527.7 513.201 1525.3 503.801 1526.2C503.801 1525.9 503.801 1525.6 503.801 1525.3C503.801 1524.9 504.901 1524 504.901 1524C504.901 1523.9 504.901 1523.7 504.901 1523.6C515.001 1523 533.501 1525.3 554.801 1527.9H554.901Z" fill="#3D3D3D"/>
<path d="M325.501 1515.8C297.201 1499 271.701 1500.7 253.501 1506.7C244.501 1512.8 236.701 1518.8 232.201 1523.7C238.501 1525.2 249.801 1526.8 269.901 1527.3C309.801 1528.3 332.401 1520 325.501 1515.9V1515.8Z" fill="url(#paint2_linear_2395_72714)"/>
<path d="M675.801 1523.8C671.201 1518.9 663.101 1512.7 653.901 1506.4C635.801 1500.7 610.701 1499.4 582.901 1515.9C576.001 1520 598.701 1528.3 638.501 1527.3C658.101 1526.8 669.401 1525.2 675.701 1523.8H675.801Z" fill="url(#paint3_linear_2395_72714)"/>
<path d="M360.902 936.199C360.902 936.199 328.902 1147.2 333.602 1152C338.302 1156.8 367.802 1183.3 375.002 1183C386.502 1182.4 438.202 1156.4 441.702 1149.4C445.202 1142.4 479.402 943.499 475.202 943.399C470.902 943.399 360.902 936.199 360.902 936.199Z" fill="url(#paint4_linear_2395_72714)"/>
<path d="M529.902 831.898C529.902 831.898 477.902 831.398 477.902 832.398C477.902 832.398 477.402 859.398 477.902 859.798C478.402 860.298 530.202 860.198 530.202 860.198C530.202 860.198 530.202 864.598 529.302 865.198C526.102 867.098 472.502 866.598 471.002 865.198C469.502 863.798 470.502 828.698 471.602 826.698C472.702 824.798 527.602 825.398 528.702 826.198C529.702 826.998 529.802 831.898 529.802 831.898H529.902Z" fill="url(#paint5_linear_2395_72714)"/>
<path d="M473.101 841.799C473.101 841.799 472.401 847.999 472.901 848.399C473.301 848.799 485.901 848.399 486.201 848.199C486.501 847.999 486.701 842.899 486.301 841.999C486.101 841.399 473.601 841.299 473.101 841.799Z" fill="url(#paint6_linear_2395_72714)"/>
<path d="M570.743 414.699C562.743 412.999 554.002 408.199 544.602 407.199L545.702 349.899C546.202 332.399 527.302 318.399 503.302 318.799C480.302 319.199 460.602 333.799 460.102 351.299L458.802 408.499C448.302 410.099 439.402 415 430.502 417.5L430.802 467.299H571.402L571.002 414.5L570.743 414.699Z" fill="url(#paint7_linear_2395_72714)"/>
<path d="M506.902 812.699L504.802 433.299H499.502C499.502 433.299 502.602 745.299 500.602 812.699H506.802H506.902Z" fill="url(#paint8_linear_2395_72714)"/>
<path d="M337.202 662.399C337.502 663.199 351.902 683.299 352.702 683.899C353.502 684.399 413.202 639.399 413.202 639.399C413.202 639.399 424.202 614.399 424.202 612.899C424.202 611.399 407.802 596.999 393.902 600.399C380.002 603.799 341.502 627.999 339.702 629.899C337.902 631.799 337.102 662.499 337.102 662.499L337.202 662.399Z" fill="url(#paint9_linear_2395_72714)"/>
<path d="M413.101 617.499L404.301 684.699L467.501 677.599C467.501 677.599 607.201 710.299 636.501 707.299C665.801 704.299 685.601 665.399 685.901 654.899C686.301 643.899 658.401 617.599 643.001 613.599C627.601 609.599 464.201 622.799 464.201 622.799L413.101 617.499Z" fill="url(#paint10_linear_2395_72714)"/>
<path d="M684.701 654.3C684.701 654.7 669.901 696.5 632.001 698C594.101 699.5 470.301 662.5 470.301 662.5L448.701 666.1L432.801 669C432.801 669 433.701 675.3 434.701 681.4L467.601 677.7C467.601 677.7 607.301 710.4 636.601 707.4C665.901 704.4 685.701 665.5 686.001 655C686.001 653 685.201 650.4 683.501 647.5C684.001 650.1 684.701 654.1 684.701 654.4V654.3Z" fill="url(#paint11_linear_2395_72714)"/>
<path d="M413.301 268.8C403.101 271.7 398.101 286.2 402.001 301.1C405.901 316 417.301 325.8 427.401 322.9C437.501 320 442.601 305.5 438.701 290.6C434.801 275.7 423.401 265.9 413.301 268.8Z" fill="url(#paint12_linear_2395_72714)"/>
<path d="M583.701 186.4C579.401 151.4 481.901 131.1 451.101 177.8C441.001 199.6 429.001 240.6 422.401 281.5C422.401 281.1 422.401 280.8 422.401 280.8C422.401 280.8 390.601 386.8 487.701 396C581.101 404.9 598.201 359.3 596.501 295.3C598.001 259.4 590.001 213.5 583.701 186.4Z" fill="url(#paint13_linear_2395_72714)"/>
<g opacity="0.4">
<path d="M583.011 320.447C588.426 299.201 577.762 278.14 559.192 273.406C540.621 268.673 521.177 282.059 515.761 303.305C510.345 324.552 521.009 345.613 539.58 350.346C558.15 355.08 577.595 341.694 583.011 320.447Z" fill="#FF9E78"/>
<path d="M582.72 320.373C588.095 299.287 577.528 278.39 559.118 273.697C540.708 269.004 521.427 282.294 516.052 303.379C510.677 324.465 521.245 345.363 539.654 350.055C558.064 354.748 577.346 341.459 582.72 320.373Z" fill="#FF9D77"/>
<path d="M582.526 320.323C587.873 299.345 577.37 278.556 559.068 273.891C540.765 269.225 521.592 282.45 516.245 303.429C510.897 324.407 521.4 345.196 539.703 349.861C558.006 354.527 577.178 341.302 582.526 320.323Z" fill="#FF9C77"/>
<path d="M582.331 320.275C587.638 299.457 577.189 278.82 558.993 274.182C540.797 269.544 521.745 282.661 516.438 303.479C511.132 324.297 521.581 344.934 539.777 349.572C557.972 354.21 577.025 341.093 582.331 320.275Z" fill="#FF9B76"/>
<path d="M582.139 320.226C587.418 299.514 577.033 278.987 558.945 274.376C540.856 269.765 521.912 282.817 516.633 303.528C511.354 324.24 521.738 344.767 539.827 349.378C557.916 353.989 576.859 340.937 582.139 320.226Z" fill="#FF9A76"/>
<path d="M581.944 320.175C587.183 299.625 576.852 279.249 558.87 274.666C540.888 270.082 522.065 283.026 516.827 303.577C511.588 324.128 521.919 344.503 539.901 349.086C557.883 353.67 576.706 340.726 581.944 320.175Z" fill="#FF9975"/>
<path d="M581.654 320.101C586.851 299.711 576.618 279.499 558.797 274.956C540.975 270.414 522.315 283.261 517.118 303.651C511.92 324.041 522.154 344.253 539.975 348.795C557.796 353.338 576.457 340.491 581.654 320.101Z" fill="#FF9875"/>
<path d="M581.459 320.051C586.629 299.768 576.46 279.665 558.746 275.15C541.032 270.635 522.481 283.417 517.31 303.7C512.14 323.983 522.309 344.086 540.024 348.601C557.738 353.117 576.289 340.334 581.459 320.051Z" fill="#FF9774"/>
<path d="M581.267 320.003C586.396 299.881 576.281 279.93 558.674 275.442C541.067 270.954 522.635 283.628 517.506 303.751C512.377 323.873 522.492 343.824 540.099 348.312C557.707 352.8 576.138 340.126 581.267 320.003Z" fill="#FF9674"/>
<path d="M581.072 319.954C586.174 299.938 576.123 280.096 558.623 275.636C541.123 271.175 522.801 283.784 517.699 303.8C512.597 323.815 522.648 343.657 540.148 348.118C557.648 352.579 575.97 339.969 581.072 319.954Z" fill="#FF9573"/>
<path d="M580.782 319.879C585.843 300.024 575.889 280.346 558.55 275.926C541.21 271.506 523.051 284.019 517.99 303.874C512.929 323.729 522.883 343.407 540.222 347.827C557.562 352.247 575.721 339.734 580.782 319.879Z" fill="#FF9472"/>
<path d="M580.587 319.83C585.621 300.082 575.732 280.512 558.499 276.12C541.267 271.727 523.216 284.175 518.183 303.923C513.149 323.671 523.038 343.241 540.271 347.633C557.503 352.026 575.554 339.578 580.587 319.83Z" fill="#FF9372"/>
<path d="M580.395 319.781C585.388 300.194 575.552 280.777 558.427 276.411C541.301 272.046 523.371 284.386 518.378 303.973C513.385 323.561 523.221 342.978 540.346 347.343C557.472 351.709 575.402 339.369 580.395 319.781Z" fill="#FF9271"/>
<path d="M580.2 319.732C585.166 300.252 575.395 280.943 558.376 276.605C541.358 272.267 523.536 284.542 518.571 304.023C513.605 323.503 523.376 342.812 540.395 347.149C557.413 351.487 575.235 339.212 580.2 319.732Z" fill="#FF9171"/>
<path d="M580.006 319.682C584.931 300.362 575.213 281.206 558.302 276.895C541.39 272.584 523.689 284.752 518.764 304.071C513.84 323.391 523.557 342.547 540.469 346.858C557.38 351.169 575.082 339.001 580.006 319.682Z" fill="#FF9070"/>
<path d="M579.715 319.608C584.612 300.395 575.003 281.359 558.252 277.089C541.501 272.82 523.952 284.933 519.055 304.146C514.158 323.359 523.767 342.395 540.518 346.665C557.269 350.934 574.818 338.821 579.715 319.608Z" fill="#FF8F70"/>
<path d="M579.523 319.558C584.379 300.506 574.824 281.622 558.18 277.379C541.536 273.137 524.107 285.142 519.25 304.194C514.394 323.247 523.95 342.131 540.593 346.373C557.237 350.616 574.667 338.61 579.523 319.558Z" fill="#FF8E6F"/>
<path d="M579.329 319.509C584.144 300.618 574.642 281.886 558.105 277.671C541.568 273.456 524.259 285.353 519.444 304.245C514.628 323.136 524.13 341.868 540.667 346.083C557.204 350.299 574.513 338.401 579.329 319.509Z" fill="#FF8D6F"/>
<path d="M579.134 319.46C583.922 300.675 574.485 282.053 558.055 277.865C541.625 273.677 524.425 285.51 519.636 304.294C514.848 323.079 524.286 341.702 540.716 345.89C557.145 350.077 574.346 338.244 579.134 319.46Z" fill="#FF8C6E"/>
<path d="M578.844 319.386C583.591 300.762 574.25 282.302 557.981 278.155C541.712 274.008 524.675 285.744 519.928 304.368C515.18 322.992 524.521 341.452 540.79 345.599C557.059 349.746 574.097 338.01 578.844 319.386Z" fill="#FF8B6E"/>
<path d="M578.651 319.336C583.371 300.819 574.095 282.468 557.933 278.349C541.771 274.229 524.842 285.9 520.122 304.417C515.402 322.934 524.678 341.285 540.84 345.405C557.003 349.524 573.931 337.853 578.651 319.336Z" fill="#FF8A6D"/>
<path d="M578.457 319.286C583.136 300.929 573.914 282.731 557.858 278.639C541.803 274.546 524.995 286.109 520.316 304.466C515.637 322.822 524.859 341.021 540.914 345.113C556.969 349.206 573.778 337.642 578.457 319.286Z" fill="#FF896C"/>
<path d="M578.262 319.238C582.914 300.989 573.756 282.899 557.808 278.834C541.86 274.769 525.16 286.268 520.509 304.517C515.857 322.766 525.014 340.856 540.963 344.921C556.911 348.986 573.61 337.488 578.262 319.238Z" fill="#FF886C"/>
<path d="M578.068 319.188C582.679 301.099 573.575 283.162 557.734 279.124C541.892 275.086 525.313 286.477 520.702 304.566C516.091 322.654 525.195 340.592 541.036 344.63C556.877 348.667 573.457 337.277 578.068 319.188Z" fill="#FF876B"/>
<path d="M577.779 319.114C582.362 301.133 573.366 283.315 557.686 279.318C542.005 275.321 525.578 286.658 520.994 304.64C516.411 322.622 525.407 340.439 541.087 344.436C556.768 348.433 573.195 337.096 577.779 319.114Z" fill="#FF866B"/>
<path d="M577.585 319.064C582.127 301.243 573.185 283.578 557.611 279.608C542.038 275.639 525.731 286.868 521.188 304.689C516.645 322.51 525.588 340.175 541.161 344.145C556.735 348.114 573.042 336.885 577.585 319.064Z" fill="#FF856A"/>
<path d="M577.39 319.015C581.905 301.3 573.027 283.744 557.561 279.802C542.094 275.86 525.896 287.024 521.381 304.738C516.865 322.452 525.743 340.008 541.21 343.951C556.676 347.893 572.875 336.729 577.39 319.015Z" fill="#FF846A"/>
<path d="M577.196 318.966C581.67 301.413 572.846 284.009 557.487 280.094C542.127 276.179 526.049 287.235 521.574 304.789C517.1 322.342 525.924 339.746 541.283 343.661C556.643 347.576 572.721 336.52 577.196 318.966Z" fill="#FF8369"/>
<path d="M576.907 318.891C581.354 301.444 572.638 284.16 557.439 280.286C542.24 276.412 526.314 287.415 521.867 304.861C517.42 322.308 526.136 339.592 541.334 343.466C556.533 347.34 572.46 336.337 576.907 318.891Z" fill="#FF8269"/>
<path d="M576.713 318.842C581.119 301.556 572.456 284.425 557.364 280.578C542.273 276.731 526.466 287.626 522.06 304.912C517.654 322.198 526.316 339.329 541.408 343.176C556.5 347.023 572.306 336.129 576.713 318.842Z" fill="#FF8168"/>
<path d="M576.518 318.792C580.884 301.667 572.275 284.687 557.29 280.868C542.305 277.048 526.619 287.835 522.254 304.96C517.888 322.086 526.497 339.065 541.482 342.885C556.467 346.704 572.153 335.918 576.518 318.792Z" fill="#FF8067"/>
<path d="M576.324 318.743C580.662 301.724 572.117 284.854 557.24 281.061C542.362 277.269 526.784 287.991 522.446 305.01C518.108 322.028 526.653 338.898 541.53 342.691C556.408 346.483 571.986 335.761 576.324 318.743Z" fill="#FF7F67"/>
<path d="M576.131 318.694C580.429 301.836 571.938 285.118 557.167 281.353C542.396 277.588 526.939 288.202 522.642 305.06C518.345 321.918 526.835 338.636 541.606 342.401C556.377 346.166 571.834 335.552 576.131 318.694Z" fill="#FF7E66"/>
<path d="M575.84 318.619C580.11 301.868 571.728 285.27 557.117 281.546C542.507 277.821 527.202 288.382 522.932 305.133C518.662 321.884 527.045 338.482 541.655 342.206C556.266 345.93 571.571 335.37 575.84 318.619Z" fill="#FF7D66"/>
<path d="M575.646 318.57C579.875 301.98 571.546 285.534 557.043 281.837C542.54 278.141 527.355 288.593 523.126 305.183C518.897 321.773 527.226 338.22 541.729 341.916C556.232 345.613 571.418 335.161 575.646 318.57Z" fill="#FF7C65"/>
<path d="M575.452 318.521C579.653 302.038 571.389 285.701 556.993 282.031C542.596 278.361 527.52 288.749 523.319 305.232C519.117 321.716 527.381 338.053 541.777 341.722C556.174 345.392 571.25 335.004 575.452 318.521Z" fill="#FF7B65"/>
<path d="M575.259 318.471C579.42 302.148 571.209 285.963 556.92 282.321C542.631 278.679 527.675 288.958 523.514 305.281C519.353 321.604 527.564 337.789 541.853 341.431C556.142 345.073 571.099 334.793 575.259 318.471Z" fill="#FF7A64"/>
<path d="M574.968 318.397C579.102 302.181 570.999 286.117 556.87 282.515C542.742 278.914 527.938 289.14 523.804 305.356C519.671 321.571 527.774 337.636 541.902 341.238C556.031 344.839 570.835 334.613 574.968 318.397Z" fill="#FF7964"/>
<path d="M574.774 318.349C578.867 302.294 570.818 286.381 556.796 282.807C542.775 279.233 528.09 289.351 523.998 305.406C519.905 321.461 527.955 337.374 541.976 340.948C555.998 344.522 570.682 334.404 574.774 318.349Z" fill="#FF7863"/>
<path d="M574.579 318.299C578.645 302.351 570.66 286.547 556.746 283.001C542.831 279.454 528.256 289.507 524.191 305.455C520.126 321.403 528.11 337.207 542.024 340.754C555.939 344.301 570.514 334.247 574.579 318.299Z" fill="#FF7762"/>
<path d="M574.387 318.249C578.411 302.461 570.481 286.81 556.673 283.29C542.866 279.771 528.41 289.716 524.386 305.504C520.362 321.291 528.293 336.943 542.1 340.462C555.908 343.982 570.363 334.037 574.387 318.249Z" fill="#FF7762"/>
<path d="M574.193 318.201C578.176 302.574 570.299 287.074 556.599 283.582C542.898 280.09 528.563 289.927 524.58 305.554C520.596 321.181 528.474 336.681 542.174 340.173C555.874 343.665 570.21 333.828 574.193 318.201Z" fill="#FF7661"/>
<path d="M573.902 318.125C577.858 302.605 570.089 287.226 556.549 283.775C543.009 280.323 528.826 290.107 524.87 305.627C520.914 321.147 528.683 336.526 542.223 339.978C555.763 343.429 569.946 333.645 573.902 318.125Z" fill="#FF7561"/>
<path d="M573.708 318.077C577.623 302.717 569.907 287.49 556.475 284.066C543.042 280.643 528.979 290.318 525.063 305.678C521.148 321.037 528.864 336.264 542.297 339.688C555.73 343.112 569.793 333.436 573.708 318.077Z" fill="#FF7460"/>
<path d="M573.515 318.027C577.403 302.775 569.752 287.657 556.426 284.26C543.1 280.863 529.146 290.474 525.258 305.727C521.37 320.979 529.021 336.097 542.347 339.494C555.673 342.891 569.627 333.28 573.515 318.027Z" fill="#FF7360"/>
<path d="M573.321 317.977C577.168 302.885 569.571 287.919 556.352 284.55C543.133 281.181 529.299 290.683 525.452 305.775C521.605 320.867 529.202 335.833 542.421 339.202C555.64 342.572 569.474 333.069 573.321 317.977Z" fill="#FF725F"/>
<path d="M573.03 317.904C576.85 302.919 569.36 288.073 556.302 284.744C543.244 281.416 529.562 290.865 525.742 305.85C521.923 320.835 529.412 335.681 542.47 339.009C555.528 342.338 569.211 332.888 573.03 317.904Z" fill="#FF715F"/>
<path d="M572.836 317.853C576.615 303.029 569.179 288.335 556.228 285.034C543.277 281.733 529.714 291.074 525.936 305.898C522.157 320.723 529.593 335.416 542.544 338.718C555.495 342.019 569.057 332.678 572.836 317.853Z" fill="#FF705E"/>
<path d="M572.643 317.804C576.395 303.086 569.023 288.502 556.179 285.228C543.335 281.954 529.882 291.23 526.13 305.948C522.379 320.665 529.75 335.25 542.594 338.524C555.438 341.798 568.892 332.521 572.643 317.804Z" fill="#FF6F5E"/>
<path d="M572.449 317.755C576.159 303.199 568.842 288.766 556.105 285.52C543.368 282.273 530.034 291.442 526.324 305.998C522.613 320.555 529.931 334.987 542.668 338.234C555.405 341.481 568.739 332.312 572.449 317.755Z" fill="#FF6E5D"/>
<path d="M572.254 317.706C575.937 303.256 568.684 288.933 556.054 285.713C543.424 282.494 530.2 291.598 526.517 306.047C522.833 320.497 530.086 334.821 542.716 338.04C555.347 341.259 568.571 332.155 572.254 317.706Z" fill="#FF6D5C"/>
<path d="M571.964 317.632C575.606 303.342 568.45 289.182 555.981 286.004C543.511 282.825 530.45 291.832 526.808 306.121C523.166 320.411 530.321 334.571 542.791 337.749C555.26 340.928 568.322 331.921 571.964 317.632Z" fill="#FF6C5C"/>
<path d="M571.77 317.583C575.371 303.455 568.269 289.447 555.906 286.296C543.544 283.144 530.603 292.043 527.001 306.172C523.4 320.3 530.502 334.308 542.865 337.46C555.227 340.611 568.168 331.712 571.77 317.583Z" fill="#FF6B5B"/>
<path d="M571.577 317.534C575.151 303.512 568.113 289.613 555.858 286.489C543.602 283.365 530.77 292.2 527.196 306.221C523.622 320.243 530.66 334.142 542.915 337.266C555.171 340.39 568.003 331.555 571.577 317.534Z" fill="#FF6A5B"/>
<path d="M571.383 317.483C574.916 303.622 567.932 289.876 555.783 286.779C543.635 283.682 530.923 292.409 527.389 306.27C523.856 320.131 530.84 333.877 542.989 336.974C555.137 340.071 567.85 331.344 571.383 317.483Z" fill="#FF695A"/>
<path d="M571.092 317.41C574.598 303.656 567.722 290.029 555.734 286.973C543.746 283.918 531.186 292.59 527.68 306.344C524.174 320.098 531.05 333.725 543.038 336.781C555.026 339.836 567.586 331.164 571.092 317.41Z" fill="#FF685A"/>
<path d="M570.898 317.36C574.363 303.766 567.54 290.292 555.659 287.263C543.778 284.235 531.338 292.799 527.873 306.393C524.408 319.986 531.231 333.461 543.112 336.489C554.993 339.518 567.433 330.953 570.898 317.36Z" fill="#FF6759"/>
<path d="M570.705 317.31C574.142 303.824 567.385 290.458 555.611 287.457C543.837 284.456 531.506 292.956 528.068 306.442C524.631 319.928 531.388 333.294 543.162 336.295C554.936 339.296 567.267 330.796 570.705 317.31Z" fill="#FF6659"/>
<path d="M570.511 317.262C573.907 303.936 567.203 290.723 555.536 287.749C543.87 284.775 531.658 293.167 528.262 306.493C524.865 319.818 531.569 333.032 543.236 336.006C554.903 338.979 567.114 330.588 570.511 317.262Z" fill="#FF6558"/>
<path d="M570.316 317.212C573.685 303.993 567.046 290.889 555.486 287.942C543.926 284.996 531.824 293.323 528.454 306.542C525.085 319.761 531.725 332.865 543.284 335.812C554.844 338.758 566.946 330.431 570.316 317.212Z" fill="#FF6457"/>
<path d="M570.026 317.138C573.354 304.08 566.811 291.138 555.412 288.233C544.013 285.327 532.074 293.558 528.746 306.616C525.417 319.674 531.96 332.615 543.359 335.521C554.758 338.426 566.697 330.196 570.026 317.138Z" fill="#FF6357"/>
<path d="M569.833 317.088C573.134 304.137 566.656 291.305 555.364 288.427C544.072 285.548 532.241 293.714 528.94 306.665C525.639 319.616 532.117 332.449 543.409 335.327C554.701 338.205 566.532 330.04 569.833 317.088Z" fill="#FF6256"/>
<path d="M569.639 317.038C572.899 304.247 566.475 291.567 555.289 288.716C544.104 285.865 532.394 293.923 529.134 306.714C525.873 319.504 532.298 332.184 543.483 335.035C554.668 337.886 566.378 329.829 569.639 317.038Z" fill="#FF6156"/>
<path d="M569.444 316.989C572.677 304.305 566.317 291.734 555.239 288.91C544.161 286.086 532.56 294.079 529.327 306.763C526.094 319.446 532.453 332.018 543.531 334.841C554.609 337.665 566.211 329.672 569.444 316.989Z" fill="#FF6055"/>
<path d="M569.154 316.916C572.346 304.393 566.083 291.985 555.165 289.203C544.248 286.42 532.81 294.316 529.618 306.839C526.426 319.362 532.688 331.77 543.606 334.552C554.523 337.335 565.961 329.439 569.154 316.916Z" fill="#FF5F55"/>
<path d="M568.959 316.866C572.111 304.503 565.901 292.248 555.091 289.492C544.28 286.737 532.962 294.525 529.811 306.887C526.66 319.25 532.869 331.505 543.68 334.261C554.49 337.016 565.808 329.228 568.959 316.866Z" fill="#FF5E54"/>
<path d="M568.767 316.816C571.89 304.561 565.746 292.414 555.042 289.686C544.339 286.958 533.13 294.681 530.006 306.936C526.882 319.192 533.026 331.339 543.73 334.067C554.433 336.795 565.643 329.072 568.767 316.816Z" fill="#FF5D54"/>
<path d="M568.572 316.768C571.655 304.673 565.564 292.679 554.968 289.978C544.372 287.277 533.282 294.892 530.199 306.987C527.116 319.082 533.207 331.076 543.804 333.777C554.4 336.478 565.489 328.863 568.572 316.768Z" fill="#FF5C53"/>
<path d="M568.378 316.719C571.433 304.731 565.407 292.845 554.918 290.171C544.428 287.498 533.448 295.048 530.392 307.036C527.336 319.024 533.363 330.91 543.852 333.583C554.341 336.257 565.322 328.706 568.378 316.719Z" fill="#FF5B53"/>
<path d="M568.087 316.644C571.102 304.817 565.173 293.095 554.844 290.462C544.515 287.829 533.698 295.283 530.683 307.11C527.669 318.937 533.598 330.66 543.927 333.292C554.255 335.925 565.073 328.472 568.087 316.644Z" fill="#FF5A52"/>
<path d="M567.894 316.595C570.882 304.874 565.017 293.261 554.796 290.656C544.574 288.05 533.865 295.439 530.878 307.159C527.891 318.88 533.755 330.493 543.977 333.099C554.199 335.704 564.907 328.315 567.894 316.595Z" fill="#FF5951"/>
<path d="M567.7 316.544C570.647 304.985 564.836 293.524 554.721 290.945C544.606 288.367 534.018 295.648 531.072 307.208C528.125 318.768 533.936 330.229 544.051 332.807C554.165 335.385 564.754 328.104 567.7 316.544Z" fill="#FF5851"/>
<path d="M567.506 316.495C570.425 305.042 564.678 293.69 554.671 291.139C544.663 288.588 534.184 295.804 531.264 307.257C528.345 318.71 534.091 330.062 544.099 332.613C554.107 335.164 564.586 327.948 567.506 316.495Z" fill="#FF5750"/>
<path d="M567.215 316.421C570.094 305.128 564.444 293.94 554.597 291.43C544.75 288.92 534.434 296.039 531.555 307.331C528.677 318.623 534.326 329.812 544.174 332.322C554.021 334.832 564.337 327.713 567.215 316.421Z" fill="#FF5650"/>
<path d="M567.022 316.371C569.873 305.186 564.289 294.106 554.549 291.623C544.808 289.141 534.601 296.195 531.75 307.38C528.899 318.565 534.484 329.645 544.224 332.128C553.964 334.611 564.171 327.556 567.022 316.371Z" fill="#FF554F"/>
<path d="M566.828 316.323C569.638 305.298 564.107 294.371 554.474 291.915C544.841 289.46 534.754 296.406 531.944 307.431C529.134 318.455 534.665 329.383 544.298 331.839C553.931 334.294 564.018 327.347 566.828 316.323Z" fill="#FF544F"/>
<path d="M566.634 316.273C569.403 305.409 563.926 294.633 554.4 292.205C544.874 289.777 534.906 296.615 532.137 307.479C529.368 318.343 534.845 329.119 544.372 331.547C553.898 333.975 563.865 327.137 566.634 316.273Z" fill="#FF534E"/>
<path d="M566.441 316.223C569.183 305.466 563.77 294.799 554.351 292.399C544.932 289.998 535.074 296.772 532.332 307.529C529.59 318.286 535.003 328.952 544.422 331.353C553.841 333.754 563.699 326.98 566.441 316.223Z" fill="#FF524E"/>
<path d="M566.149 316.151C568.85 305.554 563.534 295.051 554.276 292.691C545.017 290.331 535.322 297.008 532.621 307.604C529.92 318.201 535.236 328.704 544.494 331.064C553.753 333.424 563.448 326.747 566.149 316.151Z" fill="#FF514D"/>
</g>
<path d="M618.102 278.5C608.302 274.5 595.902 283 590.502 297.5C585.102 312 588.602 326.9 598.402 330.8C608.202 334.8 620.602 326.3 626.002 311.8C631.402 297.3 627.902 282.4 618.102 278.5Z" fill="#FF9E78"/>
<path d="M617.501 313.1C607.601 318.9 597.401 316.5 590.201 310.1C590.201 313.9 589.701 318.7 588.601 324.2H588.801L586.801 361.2C591.201 352 593.801 341.3 595.101 329.1C596.001 329.8 596.901 330.3 598.001 330.7C607.801 334.7 620.201 326.2 625.601 311.7C627.001 308 627.801 304.2 628.101 300.6C626.101 305.5 622.701 309.9 617.501 312.9V313.1Z" fill="url(#paint14_linear_2395_72714)"/>
<path d="M600.602 304.399L609.602 306.099C610.102 291.799 620.902 287.399 620.902 287.399C603.902 280.499 600.502 304.399 600.502 304.399H600.602Z" fill="url(#paint15_linear_2395_72714)"/>
<path d="M549.602 121.999C522.502 102.499 486.302 99.6992 486.302 99.6992C484.702 101.999 483.902 105.699 484.302 108.399C461.702 106.699 443.802 108.399 443.802 108.399C437.802 135.299 444.802 151.599 452.802 161.099C455.702 164.599 459.802 170.399 472.002 176.299C472.002 176.299 485.302 188.099 505.902 189.299C524.302 190.399 550.402 177.999 550.402 177.999C568.802 178.299 592.202 236.299 592.902 282.299C593.102 292.799 602.702 281.099 602.702 281.099C602.702 281.099 604.102 269.699 604.002 253.199C604.002 253.099 625.902 188.199 608.502 161.499" fill="url(#paint16_linear_2395_72714)"/>
<path d="M445.001 147.799C417.101 155.099 422.901 255.899 422.801 272.399C422.801 273.599 422.701 274.399 422.501 275.699C422.501 276.299 424.701 276.199 424.501 275.699C424.301 274.699 424.601 273.099 424.701 272.499C429.701 242.199 456.501 176.599 471.801 176.399C471.801 176.399 457.501 167.099 444.901 147.899L445.001 147.799Z" fill="#59352C"/>
<g opacity="0.4">
<path d="M464.423 342.952C482.892 340.652 495.612 320.705 492.834 298.399C490.055 276.093 472.831 259.876 454.362 262.176C435.892 264.477 423.172 284.424 425.951 306.73C428.729 329.035 445.953 345.253 464.423 342.952Z" fill="#FF9E78"/>
<path d="M464.397 342.754C482.757 340.467 495.399 320.62 492.635 298.424C489.87 276.228 472.745 260.088 454.386 262.375C436.026 264.662 423.384 284.509 426.148 306.705C428.913 328.901 446.038 345.041 464.397 342.754Z" fill="#FF9D77"/>
<path d="M464.362 342.457C482.557 340.191 495.082 320.494 492.338 298.462C489.594 276.43 472.619 260.407 454.424 262.674C436.229 264.94 423.703 284.637 426.447 306.669C429.191 328.701 446.166 344.724 464.362 342.457Z" fill="#FF9C77"/>
<path d="M464.323 342.16C482.409 339.907 494.862 320.354 492.138 298.487C489.415 276.62 472.545 260.719 454.46 262.972C436.374 265.225 423.921 284.778 426.645 306.645C429.368 328.512 446.238 344.413 464.323 342.16Z" fill="#FF9B76"/>
<path d="M464.3 341.96C482.276 339.721 494.652 320.268 491.941 298.51C489.231 276.752 472.462 260.929 454.486 263.169C436.51 265.408 424.134 284.861 426.844 306.618C429.555 328.376 446.324 344.199 464.3 341.96Z" fill="#FF9A76"/>
<path d="M464.262 341.662C482.128 339.437 494.431 320.128 491.742 298.535C489.052 276.942 472.388 261.241 454.522 263.467C436.655 265.692 424.352 285.001 427.042 306.594C429.731 328.187 446.395 343.888 464.262 341.662Z" fill="#FF9975"/>
<path d="M464.236 341.464C481.993 339.252 494.219 320.044 491.543 298.56C488.867 277.076 472.303 261.454 454.546 263.665C436.789 265.877 424.564 285.086 427.24 306.569C429.916 328.053 446.48 343.676 464.236 341.464Z" fill="#FF9875"/>
<path d="M464.2 341.167C481.847 338.969 494.001 319.904 491.345 298.585C488.69 277.266 472.231 261.765 454.584 263.963C436.937 266.161 424.784 285.226 427.439 306.545C430.094 327.864 446.553 343.365 464.2 341.167Z" fill="#FF9774"/>
<path d="M464.164 340.87C481.701 338.685 493.782 319.765 491.147 298.61C488.512 277.456 472.159 262.077 454.622 264.262C437.084 266.446 425.003 285.366 427.638 306.521C430.273 327.676 446.626 343.054 464.164 340.87Z" fill="#FF9674"/>
<path d="M464.139 340.67C481.512 338.506 493.471 319.691 490.85 298.646C488.228 277.601 472.02 262.295 454.646 264.459C437.273 266.623 425.314 285.437 427.936 306.482C430.557 327.528 446.766 342.834 464.139 340.67Z" fill="#FF9573"/>
<path d="M464.101 340.373C481.364 338.222 493.251 319.552 490.65 298.671C488.049 277.791 471.946 262.607 454.682 264.757C437.419 266.907 425.532 285.578 428.133 306.458C430.734 327.339 446.837 342.523 464.101 340.373Z" fill="#FF9472"/>
<path d="M464.064 340.075C481.218 337.939 493.033 319.413 490.452 298.697C487.872 277.98 471.874 262.918 454.72 265.055C437.566 267.192 425.752 285.718 428.332 306.434C430.913 327.15 446.91 342.212 464.064 340.075Z" fill="#FF9372"/>
<path d="M464.039 339.877C481.084 337.754 492.82 319.328 490.253 298.721C487.687 278.115 471.789 263.131 454.744 265.254C437.7 267.377 425.964 285.803 428.53 306.409C431.097 327.016 446.995 342 464.039 339.877Z" fill="#FF9271"/>
<path d="M464.003 339.58C480.938 337.47 492.602 319.189 490.056 298.747C487.509 278.304 471.717 263.442 454.782 265.552C437.847 267.661 426.183 285.943 428.729 306.385C431.276 326.827 447.068 341.689 464.003 339.58Z" fill="#FF9171"/>
<path d="M463.978 339.381C480.803 337.286 492.389 319.104 489.857 298.771C487.324 278.439 471.632 263.655 454.806 265.75C437.981 267.846 426.395 286.028 428.927 306.36C431.46 326.693 447.153 341.477 463.978 339.381Z" fill="#FF9070"/>
<path d="M463.94 339.083C480.6 337.008 492.07 318.976 489.558 298.808C487.046 278.639 471.503 263.972 454.843 266.047C438.182 268.122 426.712 286.154 429.224 306.323C431.736 326.491 447.279 341.158 463.94 339.083Z" fill="#FF8F70"/>
<path d="M463.903 338.786C480.455 336.724 491.852 318.837 489.36 298.833C486.869 278.829 471.432 264.284 454.881 266.345C438.329 268.407 426.932 286.294 429.424 306.298C431.915 326.302 447.352 340.847 463.903 338.786Z" fill="#FF8E6F"/>
<path d="M463.878 338.587C480.32 336.539 491.639 318.752 489.161 298.858C486.683 278.963 471.346 264.496 454.905 266.544C438.463 268.592 427.144 286.379 429.621 306.274C432.099 326.168 447.437 340.635 463.878 338.587Z" fill="#FF8D6F"/>
<path d="M463.842 338.288C480.174 336.254 491.421 318.611 488.964 298.881C486.506 279.151 471.274 264.806 454.943 266.84C438.611 268.874 427.363 286.518 429.821 306.247C432.278 325.977 447.51 340.322 463.842 338.288Z" fill="#FF8C6E"/>
<path d="M463.817 338.09C480.039 336.069 491.209 318.526 488.765 298.906C486.321 279.285 471.189 265.018 454.967 267.039C438.745 269.059 427.575 286.603 430.019 306.223C432.463 325.843 447.594 340.11 463.817 338.09Z" fill="#FF8B6E"/>
<path d="M463.78 337.792C479.893 335.785 490.99 318.386 488.567 298.931C486.144 279.475 471.117 265.33 455.005 267.337C438.892 269.344 427.795 286.743 430.218 306.198C432.641 325.654 447.668 339.799 463.78 337.792Z" fill="#FF8A6D"/>
<path d="M463.742 337.496C479.691 335.509 490.671 318.26 488.269 298.969C485.866 279.678 470.989 265.649 455.041 267.636C439.093 269.622 428.112 286.871 430.515 306.163C432.918 325.454 447.794 339.482 463.742 337.496Z" fill="#FF896C"/>
<path d="M463.717 337.297C479.556 335.325 490.459 318.175 488.07 298.994C485.68 279.812 470.904 265.861 455.065 267.834C439.226 269.807 428.324 286.956 430.713 306.138C433.102 325.32 447.879 339.27 463.717 337.297Z" fill="#FF886C"/>
<path d="M463.681 336.998C479.41 335.039 490.241 318.034 487.872 299.017C485.503 280 470.832 266.171 455.103 268.13C439.374 270.09 428.543 287.094 430.912 306.112C433.281 325.129 447.952 338.957 463.681 336.998Z" fill="#FF876B"/>
<path d="M463.656 336.8C479.275 334.854 490.028 317.949 487.673 299.042C485.318 280.134 470.747 266.383 455.127 268.329C439.508 270.274 428.755 287.179 431.11 306.087C433.465 324.995 448.036 338.745 463.656 336.8Z" fill="#FF866B"/>
<path d="M463.619 336.503C479.129 334.571 489.81 317.81 487.475 299.067C485.141 280.324 470.675 266.695 455.165 268.627C439.655 270.559 428.975 287.319 431.309 306.063C433.644 324.806 448.11 338.434 463.619 336.503Z" fill="#FF856A"/>
<path d="M463.583 336.205C478.983 334.287 489.592 317.671 487.277 299.092C484.963 280.513 470.603 267.007 455.203 268.925C439.803 270.843 429.194 287.46 431.508 306.038C433.823 324.617 448.183 338.124 463.583 336.205Z" fill="#FF846A"/>
<path d="M463.558 336.007C478.848 334.102 489.379 317.586 487.079 299.117C484.778 280.648 470.518 267.219 455.227 269.124C439.937 271.028 429.406 287.545 431.706 306.014C434.007 324.483 448.267 337.912 463.558 336.007Z" fill="#FF8369"/>
<path d="M463.52 335.708C478.646 333.824 489.06 317.458 486.78 299.153C484.5 280.848 470.39 267.537 455.263 269.421C440.137 271.305 429.723 287.671 432.003 305.976C434.283 324.281 448.394 337.592 463.52 335.708Z" fill="#FF8269"/>
<path d="M463.495 335.51C478.511 333.64 488.847 317.373 486.581 299.178C484.315 280.983 470.304 267.749 455.288 269.619C440.271 271.49 429.935 287.756 432.201 305.951C434.468 324.147 448.478 337.38 463.495 335.51Z" fill="#FF8168"/>
<path d="M463.458 335.213C478.365 333.356 488.629 317.234 486.383 299.203C484.137 281.172 470.232 268.061 455.325 269.917C440.418 271.774 430.155 287.896 432.4 305.927C434.646 323.958 448.551 337.07 463.458 335.213Z" fill="#FF8067"/>
<path d="M463.422 334.916C478.219 333.072 488.411 317.095 486.186 299.228C483.96 281.362 470.161 268.372 455.363 270.215C440.566 272.059 430.374 288.036 432.6 305.903C434.825 323.769 448.625 336.759 463.422 334.916Z" fill="#FF7F67"/>
<path d="M463.397 334.717C478.085 332.888 488.198 317.01 485.987 299.253C483.775 281.496 470.075 268.585 455.387 270.414C440.7 272.243 430.586 288.121 432.798 305.878C435.009 323.635 448.709 336.547 463.397 334.717Z" fill="#FF7E66"/>
<path d="M463.361 334.418C477.939 332.602 487.98 316.869 485.789 299.276C483.598 281.684 470.003 268.894 455.425 270.71C440.847 272.526 430.806 288.26 432.997 305.852C435.188 323.444 448.782 336.234 463.361 334.418Z" fill="#FF7D66"/>
<path d="M463.323 334.121C477.736 332.326 487.661 316.742 485.49 299.314C483.32 281.887 469.875 269.214 455.462 271.009C441.048 272.804 431.123 288.388 433.294 305.816C435.465 323.244 448.909 335.917 463.323 334.121Z" fill="#FF7C65"/>
<path d="M463.297 333.923C477.602 332.141 487.449 316.658 485.291 299.339C483.134 282.021 469.79 269.426 455.486 271.208C441.182 272.989 431.335 288.473 433.492 305.791C435.649 323.11 448.993 335.705 463.297 333.923Z" fill="#FF7B65"/>
<path d="M463.261 333.626C477.456 331.858 487.23 316.518 485.094 299.364C482.957 282.211 469.718 269.738 455.524 271.506C441.329 273.274 431.554 288.613 433.691 305.767C435.828 322.921 449.067 335.394 463.261 333.626Z" fill="#FF7A64"/>
<path d="M463.236 333.427C477.321 331.673 487.018 316.434 484.895 299.389C482.772 282.345 469.633 269.95 455.548 271.704C441.463 273.459 431.766 288.698 433.889 305.742C436.012 322.787 449.151 335.182 463.236 333.427Z" fill="#FF7964"/>
<path d="M463.2 333.128C477.175 331.387 486.8 316.292 484.697 299.412C482.595 282.533 469.561 270.26 455.586 272.001C441.61 273.741 431.986 288.836 434.088 305.716C436.191 322.596 449.224 334.869 463.2 333.128Z" fill="#FF7863"/>
<path d="M463.161 332.831C477.027 331.104 486.579 316.153 484.497 299.438C482.415 282.722 469.487 270.572 455.622 272.299C441.756 274.026 432.203 288.976 434.285 305.692C436.367 322.407 449.296 334.558 463.161 332.831Z" fill="#FF7762"/>
<path d="M463.136 332.633C476.838 330.927 486.268 316.081 484.2 299.475C482.131 282.87 469.347 270.791 455.646 272.498C441.945 274.204 432.515 289.05 434.583 305.656C436.651 322.261 449.435 334.34 463.136 332.633Z" fill="#FF7762"/>
<path d="M463.1 332.336C476.692 330.643 486.05 315.942 484.002 299.501C481.954 283.059 469.276 271.103 455.684 272.796C442.092 274.489 432.734 289.19 434.782 305.631C436.83 322.073 449.509 334.029 463.1 332.336Z" fill="#FF7661"/>
<path d="M463.075 332.136C476.557 330.456 485.837 315.855 483.803 299.523C481.769 283.192 469.19 271.313 455.708 272.993C442.226 274.672 432.946 289.273 434.98 305.605C437.014 321.937 449.593 333.815 463.075 332.136Z" fill="#FF7561"/>
<path d="M463.039 331.838C476.411 330.173 485.619 315.716 483.605 299.549C481.591 283.381 469.119 271.625 455.746 273.291C442.374 274.956 433.166 289.413 435.179 305.58C437.193 321.748 449.666 333.504 463.039 331.838Z" fill="#FF7460"/>
<path d="M463 331.541C476.263 329.889 485.399 315.577 483.406 299.574C481.412 283.571 469.045 271.937 455.782 273.589C442.519 275.241 433.383 289.553 435.377 305.556C437.37 321.559 449.738 333.193 463 331.541Z" fill="#FF7360"/>
<path d="M462.977 331.343C476.13 329.704 485.188 315.492 483.209 299.599C481.229 283.705 468.961 272.149 455.808 273.787C442.655 275.426 433.597 289.638 435.577 305.532C437.556 321.425 449.824 332.981 462.977 331.343Z" fill="#FF725F"/>
<path d="M462.939 331.044C475.928 329.426 484.869 315.364 482.91 299.635C480.951 283.906 468.833 272.466 455.844 274.084C442.856 275.702 433.914 289.765 435.874 305.494C437.833 321.223 449.95 332.662 462.939 331.044Z" fill="#FF715F"/>
<path d="M462.914 330.846C475.793 329.242 484.657 315.279 482.711 299.66C480.766 284.04 468.748 272.679 455.869 274.283C442.989 275.887 434.126 289.85 436.071 305.469C438.017 321.088 450.035 332.45 462.914 330.846Z" fill="#FF705E"/>
<path d="M462.878 330.549C475.647 328.958 484.438 315.14 482.513 299.685C480.588 284.23 468.676 272.99 455.907 274.581C443.137 276.172 434.346 289.99 436.271 305.445C438.196 320.9 450.108 332.139 462.878 330.549Z" fill="#FF6F5E"/>
<path d="M462.841 330.251C475.501 328.674 484.22 315.001 482.316 299.71C480.411 284.419 468.604 273.302 455.944 274.879C443.284 276.456 434.565 290.13 436.47 305.42C438.375 320.711 450.181 331.828 462.841 330.251Z" fill="#FF6E5D"/>
<path d="M462.816 330.053C475.366 328.49 484.008 314.916 482.117 299.735C480.226 284.554 468.519 273.514 455.969 275.078C443.418 276.641 434.777 290.215 436.668 305.396C438.559 320.577 450.266 331.616 462.816 330.053Z" fill="#FF6D5C"/>
<path d="M462.78 329.756C475.221 328.206 483.789 314.777 481.919 299.76C480.049 284.743 468.447 273.826 456.006 275.376C443.566 276.925 434.997 290.355 436.867 305.372C438.738 320.388 450.339 331.305 462.78 329.756Z" fill="#FF6C5C"/>
<path d="M462.742 329.456C475.073 327.921 483.569 314.635 481.719 299.783C479.869 284.931 468.373 274.136 456.042 275.672C443.711 277.208 435.215 290.493 437.064 305.345C438.914 320.197 450.41 330.992 462.742 329.456Z" fill="#FF6B5B"/>
<path d="M462.717 329.259C474.883 327.743 483.258 314.564 481.422 299.821C479.585 285.079 468.234 274.356 456.067 275.871C443.9 277.387 435.526 290.566 437.362 305.309C439.198 320.051 450.55 330.774 462.717 329.259Z" fill="#FF6A5B"/>
<path d="M462.68 328.962C474.737 327.46 483.04 314.424 481.224 299.846C479.408 285.268 468.162 274.668 456.105 276.169C444.048 277.671 435.745 290.707 437.561 305.285C439.377 319.863 450.623 330.463 462.68 328.962Z" fill="#FF695A"/>
<path d="M462.655 328.763C474.603 327.275 482.827 314.34 481.025 299.871C479.223 285.403 468.076 274.88 456.129 276.368C444.181 277.856 435.957 290.792 437.759 305.26C439.561 319.729 450.708 330.251 462.655 328.763Z" fill="#FF685A"/>
<path d="M462.619 328.464C474.457 326.989 482.609 314.198 480.827 299.894C479.045 285.59 468.005 275.19 456.167 276.664C444.329 278.139 436.177 290.93 437.958 305.234C439.74 319.538 450.781 329.938 462.619 328.464Z" fill="#FF6759"/>
<path d="M462.581 328.167C474.309 326.706 482.389 314.059 480.628 299.919C478.866 285.78 467.931 275.502 456.203 276.962C444.474 278.423 436.395 291.07 438.156 305.21C439.917 319.349 450.852 329.627 462.581 328.167Z" fill="#FF6659"/>
<path d="M462.557 327.968C474.176 326.521 482.178 313.974 480.43 299.944C478.683 285.914 467.848 275.714 456.229 277.161C444.61 278.608 436.608 291.155 438.356 305.185C440.103 319.215 450.939 329.415 462.557 327.968Z" fill="#FF6558"/>
<path d="M462.519 327.672C473.974 326.245 481.859 313.848 480.132 299.982C478.405 286.117 467.719 276.033 456.265 277.46C444.811 278.886 436.925 291.283 438.653 305.149C440.38 319.015 451.065 329.098 462.519 327.672Z" fill="#FF6457"/>
<path d="M462.494 327.473C473.839 326.06 481.646 313.763 479.933 300.007C478.22 286.251 467.634 276.245 456.289 277.658C444.945 279.071 437.137 291.368 438.85 305.124C440.564 318.88 451.149 328.886 462.494 327.473Z" fill="#FF6357"/>
<path d="M462.458 327.174C473.693 325.775 481.428 313.622 479.735 300.03C478.042 286.439 467.562 276.555 456.327 277.954C445.092 279.354 437.357 291.506 439.05 305.098C440.743 318.69 451.223 328.573 462.458 327.174Z" fill="#FF6256"/>
<path d="M462.42 326.877C473.545 325.491 481.208 313.483 479.536 300.056C477.863 286.628 467.489 276.867 456.363 278.253C445.238 279.638 437.575 291.647 439.247 305.074C440.919 318.501 451.294 328.263 462.42 326.877Z" fill="#FF6156"/>
<path d="M462.396 326.678C473.412 325.306 480.997 313.398 479.339 300.08C477.68 286.763 467.405 277.079 456.389 278.451C445.373 279.823 437.788 291.732 439.447 305.049C441.106 318.367 451.38 328.051 462.396 326.678Z" fill="#FF6055"/>
<path d="M462.358 326.381C473.264 325.023 480.777 313.259 479.139 300.106C477.501 286.952 467.331 277.391 456.425 278.749C445.519 280.108 438.006 291.872 439.644 305.025C441.282 318.178 451.452 327.74 462.358 326.381Z" fill="#FF5F55"/>
<path d="M462.333 326.182C473.075 324.844 480.466 313.185 478.841 300.141C477.216 287.098 467.191 277.609 456.45 278.947C445.708 280.285 438.317 291.943 439.942 304.987C441.566 318.03 451.591 327.519 462.333 326.182Z" fill="#FF5E54"/>
<path d="M462.297 325.884C472.929 324.56 480.248 313.046 478.643 300.167C477.039 287.287 467.12 277.92 456.488 279.245C445.855 280.569 438.537 292.083 440.141 304.962C441.745 317.842 451.665 327.209 462.297 325.884Z" fill="#FF5D54"/>
<path d="M462.261 325.587C472.783 324.276 480.029 312.907 478.446 300.192C476.862 287.477 467.048 278.232 456.525 279.543C446.003 280.854 438.757 292.223 440.34 304.938C441.924 317.653 451.738 326.898 462.261 325.587Z" fill="#FF5C53"/>
<path d="M462.235 325.389C472.648 324.092 479.817 312.822 478.247 300.217C476.677 287.611 466.963 278.444 456.55 279.741C446.137 281.038 438.968 292.308 440.538 304.913C442.108 317.519 451.822 326.686 462.235 325.389Z" fill="#FF5B53"/>
<path d="M462.197 325.091C472.5 323.808 479.597 312.683 478.047 300.242C476.498 287.801 466.889 278.756 456.586 280.04C446.282 281.323 439.186 292.448 440.735 304.889C442.285 317.33 451.894 326.375 462.197 325.091Z" fill="#FF5A52"/>
<path d="M462.161 324.794C472.354 323.524 479.379 312.543 477.849 300.267C476.32 287.991 466.817 279.068 456.623 280.338C446.43 281.607 439.406 292.589 440.935 304.865C442.464 317.141 451.967 326.064 462.161 324.794Z" fill="#FF5951"/>
<path d="M462.136 324.594C472.22 323.338 479.166 312.457 477.65 300.29C476.135 288.123 466.732 279.278 456.648 280.534C446.563 281.79 439.617 292.672 441.133 304.838C442.648 317.005 452.051 325.85 462.136 324.594Z" fill="#FF5851"/>
<path d="M462.1 324.297C472.019 323.062 478.849 312.33 477.354 300.328C475.859 288.326 466.606 279.598 456.686 280.833C446.766 282.069 439.937 292.8 441.431 304.802C442.926 316.805 452.18 325.533 462.1 324.297Z" fill="#FF5750"/>
<path d="M462.074 324.099C471.884 322.877 478.636 312.246 477.155 300.353C475.674 288.46 466.52 279.81 456.71 281.032C446.9 282.254 440.148 292.885 441.629 304.778C443.111 316.67 452.264 325.321 462.074 324.099Z" fill="#FF5650"/>
<path d="M462.038 323.802C471.739 322.593 478.418 312.106 476.957 300.378C475.496 288.65 466.448 280.122 456.748 281.33C447.047 282.538 440.368 293.025 441.829 304.753C443.289 316.482 452.338 325.01 462.038 323.802Z" fill="#FF554F"/>
<path d="M462 323.502C471.591 322.308 478.198 311.965 476.758 300.401C475.317 288.837 466.375 280.431 456.784 281.626C447.193 282.821 440.586 293.163 442.026 304.727C443.466 316.291 452.409 324.697 462 323.502Z" fill="#FF544F"/>
<path d="M461.975 323.304C471.456 322.123 477.985 311.88 476.559 300.426C475.132 288.972 466.289 280.644 456.808 281.825C447.327 283.006 440.797 293.248 442.224 304.703C443.651 316.157 452.493 324.485 461.975 323.304Z" fill="#FF534E"/>
<path d="M461.938 323.007C471.31 321.84 477.767 311.741 476.361 300.451C474.955 289.161 466.217 280.955 456.846 282.123C447.474 283.29 441.017 293.389 442.423 304.678C443.829 315.968 452.567 324.174 461.938 323.007Z" fill="#FF524E"/>
<path d="M461.913 322.809C471.121 321.662 477.456 311.669 476.063 300.489C474.67 289.309 466.078 281.175 456.87 282.322C447.663 283.469 441.328 293.462 442.721 304.642C444.113 315.822 452.706 323.956 461.913 322.809Z" fill="#FF514D"/>
</g>
<path opacity="0.1" d="M597.602 154.599C595.002 150.699 592.002 148.199 588.702 146.999C585.702 147.399 589.602 141.999 586.402 142.599C576.902 144.399 566.902 145.399 557.302 143.799C546.102 141.899 536.502 136.499 526.702 130.999C521.802 128.299 516.902 125.499 511.802 123.099C500.902 117.899 488.002 112.699 475.702 112.699C469.602 112.699 463.602 114.299 458.002 116.299C452.802 118.199 448.402 121.199 445.102 124.199C444.402 124.799 442.902 125.799 441.502 126.799C441.502 131.299 441.802 135.399 442.502 139.099C443.102 138.799 443.602 138.499 443.802 138.299C445.902 136.899 448.502 135.499 451.502 134.299C454.502 133.199 457.902 132.299 461.602 132.099C476.202 131.499 489.502 137.899 502.402 143.899C507.702 146.299 513.102 149.099 518.802 151.799C524.502 154.499 530.402 157.099 536.602 159.199C547.102 162.799 560.002 164.299 570.902 161.799C572.402 161.499 573.802 161.199 575.202 160.799C580.802 159.199 585.802 157.199 590.102 155.199" fill="#FFBC80"/>
<path d="M516.601 239.1C516.601 239.1 509.901 262.8 527.801 284.6L572.901 282.5C572.901 282.5 576.501 264 571.801 249.6C568.801 240.3 516.601 239 516.601 239V239.1Z" fill="url(#paint17_linear_2395_72714)"/>
<path d="M444.502 248.399C440.902 256.699 438.602 279.099 438.602 279.099L480.302 285.699C500.202 264.799 495.702 243.999 495.702 243.999C495.702 243.999 448.202 239.999 444.502 248.299V248.399Z" fill="url(#paint18_linear_2395_72714)"/>
<path d="M553.801 268.2C534.901 266.3 527.801 284.2 527.801 284.2C527.801 284.2 532.601 285.4 551.301 285.2C573.401 284.9 573.001 282.6 573.001 282.6C573.001 282.6 572.701 270.2 553.801 268.2Z" fill="white"/>
<path d="M438.602 279.2C438.602 279.2 439.702 284.2 457.502 284.6C479.102 285.1 480.302 285.8 480.302 285.8C480.302 285.8 480.302 278.8 474.602 273.3C466.702 265.7 451.102 260.8 438.602 279.2Z" fill="white"/>
<path d="M551.301 268C548.201 270.1 545.701 273.9 545.001 278.4C544.601 280.9 545.001 283.3 545.701 285.2C547.401 285.2 549.201 285.2 551.301 285.2C555.401 285.2 558.801 285 561.501 284.8C562.701 283 563.601 280.8 563.901 278.5C564.401 275.3 563.801 272.3 562.501 270.3C562.201 270.3 561.801 270 561.501 269.9C561.301 269.9 561.201 269.8 561.001 269.7C560.801 269.7 560.501 269.5 560.301 269.5C560.101 269.5 560.001 269.4 559.801 269.4C559.501 269.4 559.201 269.2 558.801 269.1C558.801 269.1 558.601 269.1 558.501 269.1C558.101 269.1 557.601 268.9 557.201 268.8C557.101 268.8 556.901 268.8 556.801 268.8C556.501 268.8 556.101 268.7 555.701 268.6C555.601 268.6 555.401 268.6 555.301 268.6C554.801 268.6 554.301 268.5 553.801 268.4C553.301 268.4 552.901 268.4 552.501 268.4C552.101 268.4 551.701 268.4 551.401 268.4L551.301 268Z" fill="url(#paint19_linear_2395_72714)"/>
<path d="M473.202 285.099C474.402 283.199 475.302 280.699 475.702 278.399C475.902 277.299 476.202 276.299 476.202 275.299C476.202 275.199 476.202 274.999 476.202 274.899C475.802 274.399 475.302 273.799 474.802 273.299C472.102 270.699 468.502 268.399 464.402 267.299C464.402 267.299 464.302 267.299 464.202 267.299C463.902 267.499 463.702 267.599 463.402 267.799C462.302 268.599 461.402 269.499 460.502 270.499C458.702 272.699 457.502 275.399 457.102 278.199C456.802 280.299 457.102 282.699 457.702 284.499C465.002 284.699 469.902 284.899 473.302 284.999L473.202 285.099Z" fill="url(#paint20_linear_2395_72714)"/>
<path d="M463.302 264.399C448.002 261.799 437.402 272.899 438.602 279.199C438.602 279.199 447.402 270.799 460.102 272.299C476.102 274.199 480.302 285.799 480.302 285.799C483.402 279.899 482.002 267.499 463.302 264.399Z" fill="#603F37"/>
<path d="M558.201 278.7C558.401 276.3 556.601 274.4 554.301 274.5C552.001 274.6 550.001 276.7 549.801 279.1C549.701 280.9 550.601 282.3 552.001 283C552.901 283 553.701 283.2 554.501 283.2C556.501 282.8 558.101 280.9 558.301 278.7H558.201Z" fill="#1E1D1D"/>
<path d="M443.701 250.7C461.801 239.6 486.701 257.3 494.601 249.1C497.701 245.9 496.201 236.8 496.201 236.8C450.901 226 443.801 250.6 443.801 250.6L443.701 250.7Z" fill="url(#paint21_linear_2395_72714)"/>
<path d="M516.602 239.1C516.602 239.1 514.802 249.1 518.002 251.4C530.202 260.4 566.502 241.3 571.802 249.7C571.802 249.7 569.602 226.3 516.602 239.1Z" fill="url(#paint22_linear_2395_72714)"/>
<path d="M548.501 265.399C528.601 265.699 524.801 281.299 527.701 284.199C527.701 284.199 531.601 272.999 550.301 273.299C568.801 273.599 572.901 282.499 572.901 282.499C573.401 276.099 569.501 264.999 548.501 265.299V265.399Z" fill="#603F37"/>
<path d="M470.201 278.7C470.401 276.3 468.601 274.4 466.301 274.5C464.001 274.6 462.001 276.7 461.801 279.1C461.701 280.9 462.601 282.3 464.001 283C464.901 283 465.701 283.2 466.501 283.2C468.501 282.8 470.101 280.9 470.301 278.7H470.201Z" fill="#1E1D1D"/>
<path d="M496.902 332.7C479.002 330.5 464.602 341.9 464.602 341.9C464.602 341.9 465.802 350 472.602 350.4C480.102 350.8 490.002 345.6 496.102 345.4C507.702 345.1 511.202 354.8 517.702 353C524.202 351.2 527.802 342.2 527.802 342.2C527.802 342.2 514.802 334.9 496.902 332.7Z" fill="url(#paint23_linear_2395_72714)"/>
<path d="M467.002 341.399C467.002 341.399 467.202 344.399 473.902 345.799C480.502 347.299 486.502 339.799 498.002 341.399C509.502 342.899 513.102 350.799 519.602 348.999C526.102 347.199 528.702 341.199 528.702 341.199C528.702 341.199 515.902 331.399 498.002 329.199C480.102 326.999 467.002 341.399 467.002 341.399Z" fill="#FB755C"/>
<path opacity="0.8" d="M461.602 277.598C459.402 278.598 457.902 280.598 458.202 282.098C458.502 283.598 460.502 283.898 462.602 282.898C464.802 281.898 466.302 279.898 466.002 278.398C465.702 276.898 463.702 276.598 461.602 277.598Z" fill="white"/>
<path opacity="0.8" d="M549.602 277.598C547.402 278.598 545.902 280.598 546.202 282.098C546.502 283.598 548.502 283.898 550.602 282.898C552.802 281.898 554.302 279.898 554.002 278.398C553.702 276.898 551.702 276.598 549.602 277.598Z" fill="white"/>
<path d="M493.701 292.698C493.701 292.698 477.301 289.298 473.001 303.598C467.601 321.798 503.801 333.198 514.101 314.298C524.401 295.398 498.901 259.398 498.901 259.398C498.901 259.398 504.801 277.898 493.601 292.598L493.701 292.698Z" fill="#FF9E78"/>
<path d="M472.602 308.699C474.502 323.699 504.902 331.399 514.202 314.299C514.802 313.299 515.202 312.199 515.602 310.999C501.202 313.799 486.302 312.699 472.702 308.699H472.602Z" fill="url(#paint24_linear_2395_72714)"/>
<path opacity="0.2" d="M504.402 278.7L500.302 278.5C500.302 278.5 497.902 291.6 493.902 293.4C493.302 293.4 492.602 293.3 492.002 293.2C484.902 292.8 479.002 295 478.802 298.1C478.602 301.2 484.302 303.8 491.402 304.2C498.102 304.6 504.002 303.5 504.802 299.9C504.802 299.9 508.202 286.2 504.402 278.7Z" fill="white"/>
<path opacity="0.3" d="M464.801 290.1C460.001 289.9 455.301 289.6 450.801 288.1C448.201 287.2 445.901 291.2 448.601 292.2C453.501 294.1 458.901 295.2 464.301 294.6C466.701 294.3 467.401 290.3 464.801 290.2V290.1Z" fill="#CC5C50"/>
<path opacity="0.3" d="M559.501 288.699C554.101 289.399 548.901 290.099 543.401 289.799C540.501 289.599 540.601 293.999 543.401 294.299C548.901 294.799 554.701 294.699 560.001 293.099C562.301 292.399 561.901 288.399 559.401 288.799L559.501 288.699Z" fill="#CC5C50"/>
<path d="M697.602 622.6L691.502 650.9L666.002 659.1L595.202 613.8L610.702 488H603.302L585.102 615.8L598.002 625.6C598.002 625.6 452.802 640.1 451.302 640C449.802 639.8 409.902 583.9 409.902 583.9C409.902 583.9 399.002 488 397.502 488C396.002 488 391.302 490.8 391.302 490.8L397.502 571.7L388.102 593.9L442.302 661.8C442.302 661.8 406.702 690.5 404.302 691.7C401.902 692.9 350.902 682.8 343.202 676.3C337.702 671.7 328.102 655.2 323.002 646C324.202 658.4 325.402 668.7 326.402 675.8C327.102 679.3 337.202 687 349.902 694.4C347.002 730.4 345.102 762.3 346.802 779.3C347.502 786 358.902 798.3 360.002 800.5C360.002 800.5 430.302 808.7 496.902 808.9C566.502 809.1 634.702 802.1 634.702 802.1C634.702 799.1 647.002 787 647.502 781.2C650.202 744.6 651.102 777.6 649.302 702.9C671.602 698.7 684.502 685.4 690.902 677.8C694.902 673 698.202 647 697.602 622.5V622.6ZM611.702 766.5C611.702 767.6 508.202 782 499.402 783C490.602 784 368.102 762.6 367.402 760.5C366.702 758.4 371.302 717.2 371.302 717.2C406.902 719 494.602 700.7 494.602 700.7L614.602 718.3C614.602 718.3 611.902 765.5 611.902 766.5H611.702Z" fill="url(#paint25_linear_2395_72714)"/>
<path d="M677.902 654.001C677.902 654.401 663.102 696.201 625.202 697.701C587.302 699.201 463.502 662.201 463.502 662.201L441.902 665.801L426.002 668.701C426.002 668.701 426.902 675.001 427.902 681.101L460.802 677.401C460.802 677.401 600.502 710.101 629.802 707.101C659.102 704.101 678.902 665.201 679.202 654.701C679.202 652.701 678.402 650.101 676.702 647.201C677.202 649.801 677.902 653.801 677.902 654.101V654.001Z" fill="url(#paint26_linear_2395_72714)"/>
<path d="M652.735 643.313C667.745 640.94 682.835 639.176 698.087 638.295C712.613 637.481 688.474 628.297 703 628.5C683.632 418.74 615.775 425.347 591.727 418.701L605.607 507.814C619.487 532.16 645.068 593.535 652.815 643.313H652.735Z" fill="#667EB5"/>
<path d="M386.001 639.989C370.991 637.616 384.254 645.382 369.002 644.5C354.476 643.686 321.028 610.297 306.502 610.5C325.87 400.74 383.765 429.822 407.813 423.244L397.726 511.475C383.846 535.821 393.748 590.211 386.001 639.989Z" fill="#667EB5"/>
<path d="M546.376 422.432C540.969 431.926 528.784 445.354 500.781 445.625C469.551 445.964 455.429 433.35 450.99 424.331L382.396 436.673L383.768 835.916C410.157 840.866 448.811 845.817 495.859 845.275C546.457 844.732 583.981 838.832 607.142 833.746L602.3 433.757L546.376 422.432Z" fill="#DDE5EA"/>
<path d="M461.805 444.879C461.805 444.879 459.142 420.668 458.497 398.221C446.634 400.052 431.382 416.803 431.382 416.803C409.271 422.364 379.816 430.841 369.728 439.115C342.21 461.834 344.47 518.054 342.856 599.096C341.08 686.039 341 682.783 329.621 850.564C329.621 850.564 393.212 859.245 465.033 862.5C460.03 744.837 462.693 568.714 461.886 444.811L461.805 444.879Z" fill="#667EB5"/>
<path d="M534.833 457.765C535.721 442.506 544.419 419.448 544.5 397C556.363 398.831 567.435 413.141 567.435 413.141C593.178 418.43 616.581 424.466 626.829 432.74C654.912 455.459 647.004 506.865 650.635 587.839C652.895 638.702 657.979 674.578 661.933 719.405C664.758 751.144 664.838 801.532 665.968 850.157C665.968 850.157 602.216 858.024 530.395 861.347C533.138 747.346 528.458 562.543 534.752 457.697L534.833 457.765Z" fill="#667EB5"/>
<path d="M341.885 640.805C343.499 610.694 352.053 467.192 373.358 431.588C370.533 432.47 366.175 433.826 363.512 435.386C343.741 479.332 337.527 610.22 335.994 639.585C337.77 639.856 340.029 640.534 341.804 640.805H341.885Z" fill="#6D88BE"/>
<path d="M447.679 453.83C443.644 453.287 437.995 454.779 432.427 456.203C428.877 457.153 424.842 458.17 422.743 458.17C420.242 454.44 421.291 432.06 431.217 416.869C428.877 417.479 426.456 418.09 424.035 418.768C415.965 434.163 414.593 454.304 417.821 460.069C418.87 461.968 420.403 462.51 421.452 462.646C424.519 462.985 428.877 461.832 433.961 460.544C438.48 459.391 443.483 458.034 446.307 458.306C449.455 460.951 455.911 480.346 461.882 500.827C461.882 494.724 461.882 488.688 461.882 482.72C452.763 454.847 449.777 454.101 447.518 453.83H447.679Z" fill="#6D88BE"/>
<path d="M446.066 456.61L440.659 456.475C440.659 459.933 435.091 787.289 438.884 861.075C440.659 861.21 442.515 861.278 444.29 861.414C440.417 789.188 445.985 460.069 446.066 456.61Z" fill="#6D88BE"/>
<path d="M350.76 510.12L349.711 505.644C352.132 505.237 409.266 496.082 440.739 497.642L440.497 502.185C409.67 500.626 351.406 509.984 350.841 510.12H350.76Z" fill="#6D88BE"/>
<path d="M653.063 603.97C653.386 618.47 653.224 629.741 653.87 642L660.002 640.418C659.437 628.159 658.872 618.338 658.55 603.904C657.097 545.31 655.484 471.425 635.312 436.032C632.408 434.582 629.665 433.791 627.002 433C650.158 464.505 651.691 542.278 653.144 603.97H653.063Z" fill="#6D88BE"/>
<path d="M574.942 414.767C572.763 414.292 570.503 413.614 567.437 413.207C578.008 428.602 581.478 454.101 579.219 458.17C577.121 458.17 573.166 457.085 569.616 456.203C564.047 454.779 558.318 453.287 554.283 453.83C552.023 454.169 548.715 454.644 538.466 483.33C537.578 485.908 534.189 495.538 533.301 498.047C533.14 503.404 533.301 501.845 532.979 507.474C540.08 484.687 551.943 461.086 555.493 458.238C558.318 458.035 563.402 459.323 568.002 460.476C573.086 461.764 577.524 462.917 580.591 462.578C581.64 462.443 583.092 461.968 584.061 460.137C587.208 454.305 584.061 430.772 574.861 414.767H574.942Z" fill="#6D88BE"/>
<path d="M558.399 859.923C557.995 786.612 557.592 461.765 557.431 458.307H552.024C552.104 461.833 551.459 787.9 551.862 860.33C553.718 860.194 556.543 860.058 558.399 859.923Z" fill="#6D88BE"/>
<path d="M652.575 510.052C651.929 509.984 586.967 500.49 556.14 502.049L555.736 497.506C587.209 495.946 650.718 505.169 653.382 505.576L652.494 510.052H652.575Z" fill="#6D88BE"/>
<path d="M389.981 625.138C389.82 625.138 389.659 625.138 389.497 625.138C379.491 624.799 353.586 613.338 350.358 608.659C347.776 604.929 350.439 568.036 352.295 546.538L352.457 544.3L432.429 544.164V546.673C432.025 564.577 431.057 606.556 430.25 608.862C429.362 611.1 418.065 616.186 413.223 618.221C405.798 621.341 395.792 625.071 389.981 625.138ZM355.12 606.488C357.379 609.337 380.943 620.323 389.578 620.662C397.325 620.934 421.292 609.812 425.085 607.099C425.65 602.487 426.457 571.359 426.941 548.776L357.541 548.911C355.362 575.089 353.829 602.962 355.12 606.488Z" fill="#6D88BE"/>
<path d="M585.514 618.152C580.834 616.118 569.698 611.099 568.81 608.861C568.003 606.623 567.115 564.712 566.873 546.808V544.299L644.505 544.367V546.605C646.361 568.035 648.863 604.792 646.361 608.59C643.214 613.202 618.117 624.663 608.352 625.07C608.191 625.07 608.11 625.07 607.949 625.07C602.3 625.07 592.697 621.34 585.514 618.22V618.152ZM639.663 548.843H572.28C572.603 571.29 573.329 602.351 573.894 606.962C577.525 609.607 600.766 620.729 608.352 620.458C616.825 620.187 639.663 609.132 641.842 606.284C643.133 602.825 641.681 574.952 639.663 548.843Z" fill="#6D88BE"/>
<path d="M457.444 665.422C457.444 667.999 455.023 670.034 451.957 670.034C448.89 670.034 446.389 667.931 446.389 665.422C446.389 662.845 448.81 660.811 451.876 660.811C454.943 660.811 457.444 662.913 457.444 665.422Z" fill="#AEB5C2"/>
<path d="M457.286 743.481C457.286 746.058 454.865 748.092 451.799 748.092C448.732 748.092 446.23 745.99 446.23 743.481C446.23 740.972 448.651 738.869 451.718 738.869C454.785 738.869 457.286 740.972 457.286 743.481Z" fill="#AEB5C2"/>
<path d="M457.122 821.606C457.122 824.183 454.701 826.217 451.635 826.217C448.568 826.217 446.066 824.115 446.066 821.606C446.066 819.029 448.487 816.994 451.554 816.994C454.62 816.994 457.122 819.096 457.122 821.606Z" fill="#AEB5C2"/>
<path d="M433.75 452.407L472.496 500.514C472.496 500.514 428.423 638.343 408.135 676.139C387.848 713.936 314.993 664.156 315.468 655.233C315.929 646.409 424.582 485.943 433.764 452.308L433.75 452.407Z" fill="#FF9E78"/>
<path d="M467.077 399.109C466.696 398.953 467.094 396.182 467.777 392.138C460.629 398.283 451.783 406.406 450.381 407.72L453.97 411.57C458.046 407.812 463.269 403.108 468.011 398.94C467.586 399.081 467.261 399.236 467.176 399.123L467.077 399.109Z" fill="#E4856B"/>
<path d="M511.718 406.946C505.271 404.705 498.711 402.549 495.926 401.542C495.486 403.197 495.003 405.148 494.563 406.802C497.066 407.667 502.466 409.454 508.065 411.27C509 409.687 510.316 408.26 511.831 406.861L511.718 406.946Z" fill="#E4856B"/>
<path d="M509.689 411.908C512.008 412.646 514.312 413.482 516.433 414.192C513.747 413.199 511.245 412.334 509.689 411.908Z" fill="#F87F67"/>
<path d="M532.404 440.13C531.232 438.446 530.158 437.483 530.158 437.483C530.158 437.483 531.149 436.211 531.943 434.204C525.709 431.186 515.234 426.749 508.206 426.445L507.96 431.663C515.087 431.981 527.202 437.664 532.291 440.215L532.404 440.13Z" fill="#E4856B"/>
<path d="M529.541 459.316C529.541 459.316 531.07 457.818 532.741 454.623C527.441 451.436 518.634 448.048 509.883 444.971C509.627 446.752 510.006 449.03 509.651 450.797C520.508 454.682 527.025 457.842 529.781 459.754C529.625 459.429 529.541 459.316 529.541 459.316Z" fill="#E4856B"/>
<path d="M521.494 475.939L517.778 472.273L499.192 490.513C499.192 490.513 501.297 492.028 504.591 493.007L521.479 476.038L521.494 475.939Z" fill="#E4856B"/>
<path d="M456.369 356.249C457.429 356.603 459.294 359.094 458.809 363.166C458.339 366.433 447.564 394.282 452.244 395.461C456.132 396.525 463.871 394.001 468.5 388.504C469.853 379.101 471.52 366.106 468.485 360.517C464.97 354.051 459.313 354.045 456.468 356.263L456.369 356.249Z" fill="url(#paint27_linear_2395_72714)"/>
<path d="M703.505 617.198C703.305 614.898 690.005 604.598 689.405 601.898C680.805 598.998 661.405 593.798 655.205 593.598C647.605 593.398 609.505 604.898 607.605 605.898C605.605 606.898 602.205 620.398 602.205 620.398L675.405 666.098C675.405 666.098 696.305 660.898 698.805 657.898C700.205 656.198 702.505 643.898 704.405 632.698C704.305 627.398 704.005 622.198 703.505 617.298V617.198Z" fill="#8C9EC4"/>
<path d="M413.099 617.499L398.002 685.5L467.499 677.599C467.499 677.599 607.199 710.299 636.499 707.299C665.799 704.299 685.599 665.399 685.899 654.899C686.299 643.899 658.399 617.599 642.999 613.599C627.599 609.599 464.199 622.799 464.199 622.799L413.099 617.499Z" fill="url(#paint28_linear_2395_72714)"/>
<path d="M684.699 654.3C684.699 654.7 669.899 696.5 631.999 698C594.099 699.5 470.299 662.5 470.299 662.5L448.699 666.1L432.799 669C432.799 669 433.699 675.3 434.699 681.4L467.599 677.7C467.599 677.7 607.299 710.4 636.599 707.4C665.899 704.4 685.699 665.5 685.999 655C685.999 653 685.199 650.4 683.499 647.5C683.999 650.1 684.699 654.1 684.699 654.4V654.3Z" fill="url(#paint29_linear_2395_72714)"/>
<path d="M309.426 658C309.726 658.8 316.502 664.5 324.926 679.5C325.726 680 385.426 635 385.426 635C385.426 635 396.426 610 396.426 608.5C396.426 607 380.026 592.6 366.126 596C352.226 599.4 276.824 598.982 311.926 625.5C310.126 627.4 309.326 658.1 309.326 658.1L309.426 658Z" fill="#8C9EC4"/>
<path d="M435.462 446.086C437.366 437.065 437.908 417.846 441.395 409.76C444.881 401.674 455.396 365.099 454.708 360.049C454.02 355 463.442 351.304 468.397 360.402C473.338 369.599 465.942 398.541 467.172 399.122C468.402 399.703 506.083 377.946 517.256 377.532C528.428 377.119 551.863 390.492 553.431 392.94C554.998 395.388 554.837 400.719 548.924 402.495C543.011 404.272 531.675 398.095 528.493 398.445C525.395 398.909 512.168 403.775 507.946 411.351C507.946 411.351 525.662 416.021 530.958 422.744C536.255 429.467 530.167 437.38 530.167 437.38C530.167 437.38 536.821 443.793 534.595 450.141C532.383 456.389 529.552 459.215 529.552 459.215C529.552 459.215 534.593 467.012 530.612 474.32C526.631 481.628 508.489 493.97 504.898 492.949C501.406 491.941 499.201 490.412 499.201 490.412C499.201 490.412 489.929 499.383 483.874 502.149C477.818 504.915 470.263 508.274 469.698 507.99C469.033 507.693 425.932 473.71 425.932 473.71C425.932 473.71 433.942 453.141 435.378 445.972L435.462 446.086Z" fill="#FF9E78"/>
<path d="M517.159 377.519C509.239 377.795 487.945 388.876 475.734 395.101C476.085 397.576 477.199 401.07 480.465 401.54C485.612 402.28 518.958 389.599 521.56 389.771C524.162 389.943 544.645 399.254 548.847 397.434C551.761 396.136 552.866 394.072 552.91 392.361C549.265 388.906 527.724 377.119 517.159 377.519Z" fill="url(#paint30_linear_2395_72714)"/>
<path d="M506.393 441.136C506.172 436.356 501.748 433.396 499.77 430.99C497.793 428.584 499.569 419.747 497.213 413.649C494.857 407.552 471.333 399.015 469.848 398.802C468.364 398.588 444.42 429.494 444.42 429.494L435.736 444.915C435.679 445.311 435.622 445.707 435.565 446.103C434.954 448.945 433.308 454.063 431.578 459.067C419.033 489.39 368.98 566.954 338.91 615.164C336.925 620.536 335.308 625.456 335.15 627.959C334.564 634.846 335.119 660.486 350.316 666.511C365.513 672.536 394.167 655.946 406.439 644.376C418.712 632.805 461.79 499.076 461.79 499.076C461.79 499.076 500.858 476.104 505.361 470.791C509.863 465.478 510.717 459.539 508.332 455.054C505.946 450.569 506.7 446.03 506.464 441.348L506.393 441.136Z" fill="url(#paint31_linear_2395_72714)"/>
<path d="M547.413 400.36C542.646 400.483 531.563 396.767 526.883 395.589C518.781 393.615 507.246 402.867 507.246 402.867L494.522 399.32C493.87 401.044 493.217 402.769 492.664 404.508C492.31 405.568 491.842 406.713 491.572 407.887C491.231 409.555 492.673 410.066 493.889 410.746C495.585 411.596 496.899 412.997 497.774 414.639C500.188 419.633 496.929 426.135 499.667 430.975C501.291 433.734 504.585 435.42 505.77 438.419C507.181 441.956 505.069 446.098 505.957 449.762C506.408 451.544 507.495 453.115 508.144 454.926C509.47 458.349 508.279 461.007 507.795 464.372C507.61 465.659 507.185 466.507 506.435 467.51C504.665 469.984 502.259 471.961 499.966 473.854C493.328 479.264 486.181 483.995 478.95 488.612C473.616 491.987 468.295 495.263 462.805 498.312C462.479 498.468 462.012 498.906 461.715 498.863C461.107 498.877 417.771 636.509 403.448 647.582C396.075 653.19 364.236 672.958 350.227 666.397C340.29 661.734 334.563 632.016 334.381 629.767C333.904 625.355 430.827 471.284 434.683 461.332C438.441 451.365 443.763 431.218 444.926 428.051C444.926 428.051 464.465 403.887 471.472 397.318C468.968 398.574 467.454 399.265 467.171 399.124C465.941 398.543 473.436 369.615 468.396 360.404C463.356 351.192 454.019 355.002 454.707 360.051C455.395 365.1 444.881 401.676 441.394 409.762C437.907 417.848 437.464 437.081 435.462 446.088C435.064 448.152 434.113 451.248 432.922 454.613C418.544 494.169 316.122 645.73 315.69 654.357C315.473 658.67 328.663 693.402 345.318 698.424C368.179 705.248 397.873 694.769 408.357 675.263C425.613 643.092 460.022 538.728 469.98 508.134C471.536 507.853 478.341 504.79 483.859 502.25C489.914 499.484 499.186 490.513 499.186 490.513C499.186 490.513 501.376 492.141 504.883 493.05C508.375 494.057 526.517 481.714 530.597 474.421C534.677 467.127 529.537 459.316 529.537 459.316C529.537 459.316 532.467 456.505 534.58 450.242C536.792 443.993 530.152 437.481 530.152 437.481C530.152 437.481 536.141 429.553 530.944 422.845C525.746 416.136 507.931 411.452 507.931 411.452C512.252 403.89 525.38 399.01 528.478 398.546C531.575 398.083 543.011 404.274 548.909 402.596C553.974 401.102 554.784 396.874 553.867 394.116C553.583 396.095 552.673 400.309 547.398 400.459L547.413 400.36Z" fill="url(#paint32_linear_2395_72714)"/>
<path d="M643.102 613.599C631.602 610.599 537.202 617.199 490.402 620.699C488.202 628.199 484.602 646.999 499.502 656.599C518.402 668.799 647.802 686.199 655.702 681.899C662.802 677.999 678.702 651.699 681.102 643.699C672.502 631.599 654.402 616.599 643.102 613.599Z" fill="url(#paint33_linear_2395_72714)"/>
<path opacity="0.1" d="M571.702 167.6C573.602 165.5 570.602 162.7 568.502 164.6C561.902 170.9 554.802 175.4 547.002 179.6C549.102 178.7 550.402 178.1 550.402 178.1C552.502 178.1 554.602 178.9 556.702 180.3C562.302 176.8 567.302 172.4 571.602 167.7L571.702 167.6Z" fill="black"/>
<path d="M643.1 613.599C631.6 610.599 537.2 617.199 490.4 620.699C488.2 628.199 484.6 646.999 499.5 656.599C518.4 668.799 647.8 686.199 655.7 681.899C662.8 677.999 678.7 651.699 681.1 643.699C672.5 631.599 654.4 616.599 643.1 613.599Z" fill="url(#paint34_linear_2395_72714)"/>
<path d="M612.79 171.724C616.62 165.392 594.596 145.057 563.598 126.303C532.599 107.55 504.365 97.4801 500.534 103.812C496.703 110.144 518.727 130.48 549.726 149.233C580.724 167.987 608.959 178.056 612.79 171.724Z" fill="#0C4266"/>
<path d="M612.634 172.308C608.819 178.687 580.555 168.529 549.517 149.865C518.491 131.102 496.567 109.64 500.381 103.261C501.137 102.044 502.786 101.745 504.796 102.599C506.807 103.453 527.179 123.615 552.484 138.948C579.674 155.32 610.812 160.998 612.891 169.418C613.141 170.658 613.117 171.663 612.621 172.407L612.634 172.308Z" fill="#092E4C"/>
<defs>
<linearGradient id="paint0_linear_2395_72714" x1="456.002" y1="1575.3" x2="456.002" y2="1493.2" gradientUnits="userSpaceOnUse">
<stop stop-color="white"/>
<stop offset="1" stop-color="#A5B7C6"/>
</linearGradient>
<linearGradient id="paint1_linear_2395_72714" x1="719.402" y1="1139.5" x2="704.102" y2="965.4" gradientUnits="userSpaceOnUse">
<stop stop-color="#3D434F"/>
<stop offset="1" stop-color="#333844"/>
</linearGradient>
<linearGradient id="paint2_linear_2395_72714" x1="279.001" y1="1493.9" x2="279.501" y2="1521" gradientUnits="userSpaceOnUse">
<stop stop-color="#5B5B60"/>
<stop offset="1" stop-color="#2C2C2D"/>
</linearGradient>
<linearGradient id="paint3_linear_2395_72714" x1="628.301" y1="1493.9" x2="628.801" y2="1521.1" gradientUnits="userSpaceOnUse">
<stop stop-color="#5B5B60"/>
<stop offset="1" stop-color="#2C2C2D"/>
</linearGradient>
<linearGradient id="paint4_linear_2395_72714" x1="467.333" y1="1062.01" x2="484.506" y2="903.912" gradientUnits="userSpaceOnUse">
<stop stop-color="#3D434F"/>
<stop offset="1" stop-color="#333844"/>
</linearGradient>
<linearGradient id="paint5_linear_2395_72714" x1="453.102" y1="845.998" x2="485.002" y2="845.998" gradientUnits="userSpaceOnUse">
<stop stop-color="#5F6163"/>
<stop offset="1" stop-color="#444749"/>
</linearGradient>
<linearGradient id="paint6_linear_2395_72714" x1="470.701" y1="845.099" x2="484.701" y2="845.099" gradientUnits="userSpaceOnUse">
<stop stop-color="#5F6163"/>
<stop offset="1" stop-color="#444749"/>
</linearGradient>
<linearGradient id="paint7_linear_2395_72714" x1="500.602" y1="398.599" x2="500.602" y2="424.799" gradientUnits="userSpaceOnUse">
<stop stop-color="#DB7D67"/>
<stop offset="1" stop-color="#FF9E78"/>
</linearGradient>
<linearGradient id="paint8_linear_2395_72714" x1="503.202" y1="665.299" x2="503.202" y2="833.499" gradientUnits="userSpaceOnUse">
<stop stop-color="#B3CBE2"/>
<stop offset="1" stop-color="#CADBEF"/>
</linearGradient>
<linearGradient id="paint9_linear_2395_72714" x1="362.202" y1="615.899" x2="381.302" y2="639.399" gradientUnits="userSpaceOnUse">
<stop stop-color="#DEEFFF"/>
<stop offset="1" stop-color="#CADBEF"/>
</linearGradient>
<linearGradient id="paint10_linear_2395_72714" x1="437.101" y1="660.199" x2="511.201" y2="660.199" gradientUnits="userSpaceOnUse">
<stop stop-color="#C6664F"/>
<stop offset="1" stop-color="#FF9E78"/>
</linearGradient>
<linearGradient id="paint11_linear_2395_72714" x1="536.601" y1="721.7" x2="562.101" y2="656.4" gradientUnits="userSpaceOnUse">
<stop stop-color="#C6664F"/>
<stop offset="1" stop-color="#FF9E78"/>
</linearGradient>
<linearGradient id="paint12_linear_2395_72714" x1="400.688" y1="295.406" x2="440.282" y2="296.097" gradientUnits="userSpaceOnUse">
<stop stop-color="#F28C70"/>
<stop offset="1" stop-color="#FF9E78"/>
</linearGradient>
<linearGradient id="paint13_linear_2395_72714" x1="509.489" y1="175.986" x2="508.949" y2="206.882" gradientUnits="userSpaceOnUse">
<stop stop-color="#C6664F"/>
<stop offset="1" stop-color="#FF9E78"/>
</linearGradient>
<linearGradient id="paint14_linear_2395_72714" x1="587.602" y1="330.573" x2="627.696" y2="331.273" gradientUnits="userSpaceOnUse">
<stop stop-color="#F28C70"/>
<stop offset="1" stop-color="#FF9E78"/>
</linearGradient>
<linearGradient id="paint15_linear_2395_72714" x1="600.913" y1="295.8" x2="620.91" y2="296.149" gradientUnits="userSpaceOnUse">
<stop stop-color="#F28C70"/>
<stop offset="1" stop-color="#FF9E78"/>
</linearGradient>
<linearGradient id="paint16_linear_2395_72714" x1="531.411" y1="109.952" x2="527.018" y2="186.126" gradientUnits="userSpaceOnUse">
<stop stop-color="#75483B"/>
<stop offset="0.4" stop-color="#704438"/>
<stop offset="0.7" stop-color="#623C2F"/>
<stop offset="1" stop-color="#563428"/>
</linearGradient>
<linearGradient id="paint17_linear_2395_72714" x1="546.441" y1="213.437" x2="544.329" y2="277.11" gradientUnits="userSpaceOnUse">
<stop stop-color="#C6664F"/>
<stop offset="1" stop-color="#FF9E78"/>
</linearGradient>
<linearGradient id="paint18_linear_2395_72714" x1="469.059" y1="217.486" x2="467.14" y2="275.862" gradientUnits="userSpaceOnUse">
<stop stop-color="#C6664F"/>
<stop offset="1" stop-color="#FF9E78"/>
</linearGradient>
<linearGradient id="paint19_linear_2395_72714" x1="544.801" y1="276.6" x2="564.001" y2="276.6" gradientUnits="userSpaceOnUse">
<stop stop-color="#704A3E"/>
<stop offset="1"/>
</linearGradient>
<linearGradient id="paint20_linear_2395_72714" x1="456.902" y1="276.199" x2="476.102" y2="276.199" gradientUnits="userSpaceOnUse">
<stop stop-color="#704A3E"/>
<stop offset="1"/>
</linearGradient>
<linearGradient id="paint21_linear_2395_72714" x1="381.052" y1="219.328" x2="377.616" y2="237.615" gradientUnits="userSpaceOnUse">
<stop stop-color="#75483B"/>
<stop offset="0.4" stop-color="#704438"/>
<stop offset="0.7" stop-color="#623C2F"/>
<stop offset="1" stop-color="#563428"/>
</linearGradient>
<linearGradient id="paint22_linear_2395_72714" x1="538.24" y1="239.809" x2="540.007" y2="255.015" gradientUnits="userSpaceOnUse">
<stop stop-color="#75483B"/>
<stop offset="0.4" stop-color="#704438"/>
<stop offset="0.7" stop-color="#623C2F"/>
<stop offset="1" stop-color="#563428"/>
</linearGradient>
<linearGradient id="paint23_linear_2395_72714" x1="496.402" y1="336" x2="495.802" y2="349.8" gradientUnits="userSpaceOnUse">
<stop stop-color="#C6664F"/>
<stop offset="1" stop-color="#FF9E78"/>
</linearGradient>
<linearGradient id="paint24_linear_2395_72714" x1="494.059" y1="320.839" x2="494.298" y2="307.141" gradientUnits="userSpaceOnUse">
<stop stop-color="#F28C70"/>
<stop offset="1" stop-color="#FF9E78"/>
</linearGradient>
<linearGradient id="paint25_linear_2395_72714" x1="510.302" y1="563.9" x2="510.302" y2="829.2" gradientUnits="userSpaceOnUse">
<stop stop-color="#B3CBE2"/>
<stop offset="1" stop-color="#CADBEF"/>
</linearGradient>
<linearGradient id="paint26_linear_2395_72714" x1="529.802" y1="721.401" x2="555.302" y2="656.101" gradientUnits="userSpaceOnUse">
<stop stop-color="#C6664F"/>
<stop offset="1" stop-color="#FF9E78"/>
</linearGradient>
<linearGradient id="paint27_linear_2395_72714" x1="477.223" y1="363.731" x2="462.592" y2="372.775" gradientUnits="userSpaceOnUse">
<stop stop-color="#FFB9A4"/>
<stop offset="1" stop-color="#FF9E78"/>
</linearGradient>
<linearGradient id="paint28_linear_2395_72714" x1="437.099" y1="660.199" x2="511.199" y2="660.199" gradientUnits="userSpaceOnUse">
<stop stop-color="#C6664F"/>
<stop offset="1" stop-color="#FF9E78"/>
</linearGradient>
<linearGradient id="paint29_linear_2395_72714" x1="536.599" y1="721.7" x2="562.099" y2="656.4" gradientUnits="userSpaceOnUse">
<stop stop-color="#C6664F"/>
<stop offset="1" stop-color="#FF9E78"/>
</linearGradient>
<linearGradient id="paint30_linear_2395_72714" x1="520.618" y1="372.122" x2="516.122" y2="387.861" gradientUnits="userSpaceOnUse">
<stop stop-color="#FFB9A4"/>
<stop offset="1" stop-color="#FF9E78"/>
</linearGradient>
<linearGradient id="paint31_linear_2395_72714" x1="325.525" y1="474.119" x2="432.644" y2="545.518" gradientUnits="userSpaceOnUse">
<stop stop-color="#FFB9A4"/>
<stop offset="1" stop-color="#FF9E78"/>
</linearGradient>
<linearGradient id="paint32_linear_2395_72714" x1="501.727" y1="553.668" x2="388.517" y2="522.64" gradientUnits="userSpaceOnUse">
<stop stop-color="#F28C70"/>
<stop offset="1" stop-color="#FF9E78"/>
</linearGradient>
<linearGradient id="paint33_linear_2395_72714" x1="591.602" y1="596.499" x2="581.502" y2="656.299" gradientUnits="userSpaceOnUse">
<stop stop-color="#FFB9A4"/>
<stop offset="1" stop-color="#FF9E78"/>
</linearGradient>
<linearGradient id="paint34_linear_2395_72714" x1="591.6" y1="596.499" x2="581.5" y2="656.299" gradientUnits="userSpaceOnUse">
<stop stop-color="#FFB9A4"/>
<stop offset="1" stop-color="#FF9E78"/>
</linearGradient>
</defs>
</svg>
