<svg width="940" height="1600" viewBox="0 0 940 1600" fill="none" xmlns="http://www.w3.org/2000/svg">
<path d="M697.8 910.839C697.8 910.839 690.5 913.239 687.8 918.639C687.8 918.639 675.8 919.839 671.8 926.339C667.9 932.839 678.2 935.139 678.2 935.139C678.2 935.139 673.7 939.539 676.6 944.039C679.5 948.639 693.4 945.639 693.4 945.639C693.4 945.639 683.6 949.139 683.8 954.839C684 960.439 691.2 960.339 691.9 960.239C692.6 960.139 714.6 956.239 716.9 954.539C719.2 952.839 735.4 932.139 735.3 931.639C735.2 931.139 723.8 905.139 721.9 903.839C720 902.539 697.8 910.839 697.8 910.839Z" fill="url(#paint0_linear_2394_71808)"/>
<path d="M408.502 428.5C416.702 427.6 422.099 421.999 431.799 421.999L433.699 370.199C433.299 353.199 452.599 341.499 476.599 344.299C500.599 346.999 521.299 363.199 521.599 380.299L524.099 432.099C534.899 434.699 543.699 441.499 552.799 444.799L551.799 495.699L407.299 481.499L408.402 428.6L408.502 428.5Z" fill="url(#paint1_linear_2394_71808)"/>
<path d="M770.498 1534.6C770.498 1534.6 628.498 1562 453.198 1562C277.898 1562 135.898 1534.6 135.898 1534.6C135.898 1534.6 277.898 1507.2 453.198 1507.2C628.498 1507.2 770.498 1534.6 770.498 1534.6Z" fill="url(#paint2_linear_2394_71808)"/>
<path d="M306.998 1470.5C305.898 1471 226.098 1514.6 225.198 1528.3C225.198 1528.9 222.898 1529.3 222.598 1529.7V1535.1C265.198 1549.5 351.298 1532.5 351.298 1532.5C351.298 1532.5 351.498 1535.9 352.398 1536C369.498 1537.7 398.398 1533.8 400.398 1532.2C400.798 1531.9 401.398 1527.2 401.198 1523.1C401.198 1522.7 400.098 1521.8 400.098 1521.8C400.998 1505.6 400.998 1474.4 401.098 1473.7C403.898 1459.7 313.498 1446.3 306.998 1470.5Z" fill="#2C2C2D"/>
<path d="M595.298 1470.5C596.398 1471 676.198 1514.6 677.098 1528.3C677.098 1528.9 679.398 1529.3 679.698 1529.7V1535.1C637.098 1549.5 550.998 1532.5 550.998 1532.5C550.998 1532.5 550.798 1535.9 549.898 1536C532.798 1537.7 503.898 1533.8 501.898 1532.2C501.498 1531.9 500.898 1527.2 501.098 1523.1C501.098 1522.7 502.198 1521.8 502.198 1521.8C501.298 1505.6 501.298 1474.4 501.198 1473.7C498.398 1459.7 588.798 1446.3 595.298 1470.5Z" fill="#2C2C2D"/>
<path d="M407.398 1493.9C435.898 1178.6 496.698 927.499 499.098 857.199L355.498 841.299C345.598 951.799 306.298 1236.8 289.498 1480.3C289.498 1480.3 303.098 1472.5 330.398 1474C356.398 1475.4 386.098 1491.5 400.798 1496C400.798 1496 406.698 1494.2 407.398 1494V1493.9Z" fill="#333844"/>
<path d="M495.899 1493.8C486.199 1176.5 504.799 927.499 502.499 857.199L646.099 841.299C655.999 951.799 613.499 1245.1 612.999 1480.3C612.999 1480.3 598.999 1472.7 572.199 1473.9C537.999 1475.4 516.299 1491.4 501.599 1495.9L495.999 1493.8H495.899Z" fill="#333844"/>
<path d="M356.798 810.099C352.598 890.199 351.398 927.799 351.398 927.799C351.398 927.799 434.898 934.699 525.398 933.899C584.198 933.399 634.398 937.799 638.298 913.899C641.798 892.299 644.898 867.199 646.998 812.399L641.998 807.499C627.298 808.999 577.298 813.399 498.798 812.399C412.498 811.299 374.198 805.699 363.298 804.799C361.698 804.699 356.898 808.399 356.798 810.099Z" fill="#333844"/>
<path d="M473.998 927L472.998 933.4C496.898 934.2 527.798 933.6 527.798 933.6V927.1C527.698 927.1 473.998 927.1 473.998 927.1V927Z" fill="#292D35"/>
<path d="M349.398 907.2C356.198 902.8 372.098 892.9 380.298 885.4C379.398 884.1 378.498 882.8 377.498 881.5C372.798 885 355.198 895.9 350.098 899.4L349.398 907.1V907.2Z" fill="#292D35"/>
<path d="M498.799 829.798C423.499 829.798 376.799 826.398 356.299 824.498C353.799 824.498 352.199 851.598 355.099 852.898C376.999 854.898 423.699 858.098 498.899 858.098C574.099 858.098 619.999 854.298 646.999 852.298C649.399 852.498 648.499 824.398 645.899 824.398C620.699 826.298 566.899 829.698 498.799 829.698V829.798Z" fill="#1C1D1E"/>
<path d="M432.198 867.9L414.998 867L418.298 819.6L435.398 820.5L432.198 867.9Z" fill="#333844"/>
<path d="M574.399 867.9L557.299 867L560.499 819.6L577.599 820.5L574.399 867.9Z" fill="#333844"/>
<path d="M647.398 897.7L620.198 881C619.098 883.5 619.498 882.7 618.498 885.3C626.198 891.9 639.098 900.2 647.198 905.2C647.198 902.8 647.398 900.1 647.398 897.7Z" fill="#292D35"/>
<path d="M636.099 937.699C636.099 937.699 621.999 1164.1 616.799 1169C611.599 1173.9 584.599 1194 577.899 1193.3C567.099 1192.2 517.099 1169.1 514.799 1161.7C512.599 1154.2 517.199 947.999 516.899 942.299C516.699 938.199 635.999 937.799 635.999 937.799L636.099 937.699Z" fill="url(#paint3_linear_2394_71808)"/>
<path d="M493.398 1372.8C493.198 1372.8 492.598 1420.6 492.198 1426.3C491.898 1429.8 489.898 1432.9 488.298 1436.1C486.698 1439.3 485.498 1443 486.798 1446.3C487.898 1449 490.698 1450.9 491.698 1453.7C492.998 1457.4 490.898 1460.9 490.698 1464.5C490.398 1468.5 491.598 1472.9 491.798 1477.1C491.898 1479.1 491.298 1492.1 493.398 1493.3C495.398 1494.4 501.498 1496.1 501.498 1496.1C518.598 1492.5 546.198 1471.1 567.798 1466C592.398 1460.2 612.898 1480.5 612.898 1480.5C612.898 1476.9 618.298 1468.2 618.698 1466.7C620.898 1458.1 611.598 1457.3 613.898 1452.8C621.498 1438.2 611.998 1434.5 613.498 1427.8C614.298 1424.4 618.398 1421.1 618.398 1417.6C618.398 1414.7 616.498 1409.5 615.798 1406.7C613.898 1399.5 615.898 1364.6 615.898 1364.6C608.498 1365.1 493.398 1373 493.398 1373V1372.8Z" fill="#333844"/>
<path d="M420.698 1368.4C420.698 1368.4 413.998 1433.9 415.598 1437.1C417.198 1440.3 418.398 1444 417.098 1447.3C415.998 1450 413.198 1451.9 412.198 1454.7C410.898 1458.4 412.998 1461.9 413.198 1465.5C413.498 1469.5 412.298 1473.9 412.098 1478.1C411.998 1480.1 412.598 1493.1 410.498 1494.3C408.498 1495.4 404.098 1496.9 401.798 1496.9C370.898 1496.9 356.498 1473.7 336.698 1468.6C312.198 1462.3 289.998 1471.5 289.998 1471.5C292.198 1470.9 289.598 1455.8 288.998 1454.3C287.998 1452 286.598 1449.8 286.298 1447.4C285.598 1440.6 294.198 1435 292.698 1428.3C291.898 1424.9 288.598 1422.2 288.598 1418.7C288.598 1415.8 290.698 1413.4 292.198 1410.9C294.898 1406 299.298 1358.9 299.298 1358.9C306.298 1360.7 420.698 1368.5 420.698 1368.5V1368.4Z" fill="#333844"/>
<path d="M350.199 1525.6C327.399 1528.4 301.499 1531.6 279.799 1531.9C246.899 1532.5 230.799 1529.3 225.299 1527.9C225.299 1528 225.299 1528.1 225.299 1528.2C225.299 1528.8 222.999 1529.2 222.699 1529.6V1529.8C225.499 1530.7 239.099 1534.5 272.199 1534.5C305.299 1534.5 277.299 1534.5 279.999 1534.5C301.799 1534.1 327.699 1530.9 350.599 1528.1C372.699 1525.4 391.899 1523 401.399 1523.9C401.399 1523.6 401.399 1523.3 401.399 1523C401.399 1522.6 400.299 1521.7 400.299 1521.7C400.299 1521.6 400.299 1521.4 400.299 1521.3C390.199 1520.7 371.599 1523 350.399 1525.6H350.199Z" fill="#3D3D3D"/>
<path d="M552.198 1525.6C574.998 1528.4 600.898 1531.6 622.498 1531.9C655.398 1532.5 671.498 1529.3 677.098 1527.9C677.098 1528 677.098 1528.1 677.098 1528.2C677.098 1528.8 679.398 1529.2 679.698 1529.6C676.898 1530.7 663.198 1534.5 630.198 1534.5C597.198 1534.5 625.098 1534.5 622.398 1534.5C600.598 1534.1 574.698 1530.9 551.798 1528.1C529.698 1525.4 510.498 1523 501.098 1523.9C501.098 1523.6 501.098 1523.3 501.098 1523C501.098 1522.6 502.198 1521.7 502.198 1521.7C502.198 1521.6 502.198 1521.4 502.198 1521.3C512.298 1520.7 530.798 1523 552.098 1525.6H552.198Z" fill="#3D3D3D"/>
<path d="M322.698 1513.6C294.398 1496.8 268.898 1498.5 250.698 1504.5C241.698 1510.6 233.898 1516.6 229.398 1521.5C235.698 1523 246.998 1524.6 267.098 1525.1C306.998 1526.1 329.598 1517.8 322.698 1513.7V1513.6Z" fill="url(#paint4_linear_2394_71808)"/>
<path d="M672.998 1521.5C668.398 1516.6 660.298 1510.4 651.098 1504.1C632.998 1498.4 607.898 1497.1 580.098 1513.6C573.198 1517.7 595.898 1526 635.698 1525C655.298 1524.5 666.598 1522.9 672.898 1521.5H672.998Z" fill="url(#paint5_linear_2394_71808)"/>
<path d="M358.098 933.898C358.098 933.898 326.097 1144.9 330.797 1149.7C335.497 1154.5 364.998 1181 372.198 1180.7C383.698 1180.1 435.397 1154.1 438.897 1147.1C442.397 1140.1 476.597 941.198 472.397 941.098C468.097 941.098 358.098 933.898 358.098 933.898Z" fill="url(#paint6_linear_2394_71808)"/>
<path d="M527.199 829.699C527.199 829.699 475.199 829.199 475.199 830.199C475.199 830.199 474.699 857.199 475.199 857.599C475.699 857.999 527.499 857.999 527.499 857.999C527.499 857.999 527.499 862.399 526.599 862.999C523.399 864.899 469.799 864.399 468.299 862.999C466.799 861.599 467.799 826.499 468.899 824.499C469.999 822.499 524.899 823.199 525.999 823.999C526.999 824.799 527.099 829.699 527.099 829.699H527.199Z" fill="url(#paint7_linear_2394_71808)"/>
<path d="M470.298 839.5C470.298 839.5 469.598 845.7 470.098 846.1C470.498 846.5 483.098 846.1 483.398 845.9C483.698 845.7 483.898 840.6 483.498 839.7C483.298 839.1 470.798 839 470.298 839.5Z" fill="url(#paint8_linear_2394_71808)"/>
<path d="M695.798 657.099C694.798 663.199 692.598 675.199 691.098 676.599C689.198 678.399 636.398 686.499 634.898 684.999C633.298 683.399 625.898 627.099 625.898 627.099C640.298 620.599 676.298 620.999 684.498 621.199L682.098 620.299C682.098 620.299 681.398 617.399 680.198 612.499C643.698 605.099 618.998 616.599 618.998 616.599L599.998 512.299L594.498 513.999C594.498 513.999 628.598 779.699 625.998 781.599C623.398 783.499 515.198 792.299 507.298 791.899C499.498 791.499 382.198 779.199 380.398 775.399C378.698 771.599 360.998 507.5 360.998 507.5H346.498L332.998 560.5L308.398 650.499C308.398 650.499 272.898 684.199 246.498 673.799C222.398 664.299 229.998 590.099 231.598 576.799C222.998 592.499 217.498 605.699 217.998 613.099C218.298 618.499 225.198 675.399 228.598 679.299C232.898 684.299 254.798 705.199 265.898 702.899C319.498 679.5 352.498 553.5 352.498 553.5C352.498 553.5 370.998 800.5 363.298 810.699C366.998 819.199 636.698 817.599 640.298 811.499C643.998 805.399 652.498 707 652.498 707C652.498 707 688.798 694.299 695.998 686.699C698.698 683.899 697.898 670.799 696.198 657.299L695.798 657.099Z" fill="url(#paint9_linear_2394_71808)"/>
<path d="M517.599 471.2C528.299 471.2 544.599 452 549.899 437.1C547.299 436.3 545.699 435.9 545.699 435.9C545.699 435.9 545.699 435.3 545.499 434.5C540.899 449 524.999 466.2 517.599 466.2C510.199 466.2 499.199 451.8 489.499 439.7C487.699 440.4 485.499 441.2 483.799 441.5C490.799 450.5 508.499 471.2 517.499 471.2H517.599Z" fill="url(#paint10_linear_2394_71808)"/>
<path d="M507.698 816.399C508.498 787.499 510.598 691.599 508.898 616.299C507.198 544.199 492.898 472.099 485.998 441.299C484.298 441.799 482.598 441.999 480.998 441.999C487.798 472.399 502.198 544.399 503.898 616.499C505.598 691.999 503.398 787.999 502.698 816.499C504.398 816.499 505.998 816.499 507.698 816.499V816.399Z" fill="url(#paint11_linear_2394_71808)"/>
<path d="M649.302 668.04C649.302 668.04 691.902 652.24 696.002 656.84C700.102 661.44 711.702 810.34 717.602 829.44C720.402 838.54 679.402 845.44 678.402 844.44C674.802 840.74 649.102 739.04 649.102 739.04L649.402 668.04H649.302Z" fill="#FF9E78"/>
<path d="M677.798 846.039C677.798 846.039 677.198 874.239 682.298 886.439C687.398 898.639 695.298 903.739 695.298 903.739C695.298 903.739 692.098 941.139 696.198 946.539C700.298 951.939 710.598 953.039 713.798 948.639C716.998 944.239 717.898 924.139 717.898 924.139L720.598 909.939C720.598 909.939 727.898 929.839 728.898 932.139C729.998 934.439 712.898 953.339 710.298 959.739C707.698 966.139 716.498 971.639 719.498 970.639C722.498 969.639 746.098 949.739 748.398 946.039C750.698 942.239 752.698 901.239 751.398 895.139C750.198 889.139 719.098 833.939 717.898 830.039C716.698 826.139 716.198 822.639 716.198 822.639C716.198 822.639 675.898 837.139 676.098 837.939C676.298 838.739 677.998 845.139 677.998 846.039H677.798Z" fill="#FF9E78"/>
<path d="M723.199 840.838C723.199 840.838 747.599 892.838 746.099 894.438C744.499 896.038 697.599 893.538 689.199 886.738C680.799 879.938 680.099 849.738 680.099 849.338C680.099 848.938 676.699 840.838 676.699 840.838C677.199 843.038 677.799 845.538 677.799 846.038C677.799 846.038 677.199 874.238 682.299 886.438C687.399 898.638 695.299 903.738 695.299 903.738C695.299 903.738 692.099 941.138 696.199 946.538C700.299 951.938 710.599 953.038 713.799 948.638C716.999 944.238 717.899 924.138 717.899 924.138L720.599 909.938C720.599 909.938 727.899 929.838 728.899 932.138C729.999 934.438 712.899 953.338 710.299 959.738C707.599 966.138 716.499 971.638 719.499 970.638C722.499 969.638 746.099 949.738 748.399 946.038C750.699 942.338 752.699 901.238 751.399 895.138C750.499 890.638 732.599 858.138 723.299 840.738L723.199 840.838Z" fill="url(#paint12_linear_2394_71808)"/>
<path d="M696 656.939C691.9 652.339 649.3 668.139 649.3 668.139L649 739.139C649 739.139 668 814.339 675.7 837.739C675.9 837.939 676 838.039 676 838.039C676 838.039 658.4 737.839 657.3 732.939C656.2 728.039 651.4 675.639 658.7 672.939C666 670.239 692.2 663.439 694.1 665.939C695.6 667.839 705.9 749.939 711.3 785.539C705.6 734.939 699 660.239 696.1 656.939H696Z" fill="url(#paint13_linear_2394_71808)"/>
<path d="M379.699 283.899C369.599 286.999 364.899 301.599 369.099 316.499C373.299 331.399 384.899 340.899 394.999 337.699C405.099 334.599 409.799 319.999 405.599 305.099C401.399 290.199 389.799 280.699 379.699 283.899Z" fill="url(#paint14_linear_2394_71808)"/>
<path d="M548.299 196.8C543.199 161.9 445.299 143.8 415.499 191.1C405.899 213.1 394.799 254.4 389.099 295.4C389.099 295 389.099 294.7 389.099 294.7C389.099 294.7 359.699 401.3 456.899 408.4C550.499 415.2 566.499 369.3 563.399 305.3C564.099 269.4 555.099 223.7 548.199 196.8H548.299Z" fill="url(#paint15_linear_2394_71808)"/>
<g opacity="0.4">
<path d="M550.411 325.607C555.343 304.243 544.204 283.43 525.531 279.119C506.858 274.808 487.722 288.632 482.79 309.995C477.858 331.359 488.997 352.173 507.67 356.484C526.343 360.795 545.479 346.971 550.411 325.607Z" fill="#FF9E78"/>
<path d="M550.021 325.516C554.916 304.314 543.877 283.661 525.366 279.388C506.854 275.114 487.879 288.837 482.984 310.04C478.089 331.242 489.128 351.894 507.639 356.168C526.151 360.442 545.126 346.718 550.021 325.516Z" fill="#FF9D77"/>
<path d="M549.826 325.471C554.696 304.376 543.725 283.831 525.321 279.582C506.917 275.333 488.049 288.989 483.179 310.084C478.309 331.179 489.281 351.724 507.685 355.973C526.089 360.222 544.956 346.565 549.826 325.471Z" fill="#FF9C77"/>
<path d="M549.631 325.427C554.464 304.494 543.549 284.1 525.253 279.876C506.956 275.651 488.206 289.197 483.374 310.13C478.541 331.063 489.455 351.457 507.752 355.682C526.048 359.906 544.798 346.36 549.631 325.427Z" fill="#FF9B76"/>
<path d="M549.436 325.381C554.244 304.556 543.397 284.269 525.208 280.07C507.019 275.871 488.377 289.349 483.569 310.175C478.761 331 489.608 351.287 507.797 355.486C525.986 359.685 544.628 346.207 549.436 325.381Z" fill="#FF9A76"/>
<path d="M549.342 325.236C554.113 304.572 543.323 284.436 525.242 280.262C507.16 276.088 488.635 289.455 483.865 310.119C479.094 330.784 489.884 350.919 507.965 355.094C526.047 359.268 544.572 345.9 549.342 325.236Z" fill="#FF9975"/>
<path d="M549.05 325.169C553.783 304.666 543.093 284.691 525.174 280.554C507.254 276.417 488.89 289.684 484.157 310.187C479.423 330.69 490.113 350.664 508.032 354.801C525.952 358.939 544.316 345.672 549.05 325.169Z" fill="#FF9875"/>
<path d="M548.757 325.102C553.466 304.707 542.844 284.84 525.031 280.727C507.219 276.615 488.963 289.815 484.254 310.21C479.546 330.605 490.168 350.472 507.98 354.585C525.792 358.697 544.049 345.497 548.757 325.102Z" fill="#FF9774"/>
<path d="M548.562 325.056C553.233 304.822 542.668 285.106 524.963 281.019C507.259 276.931 489.12 290.021 484.448 310.254C479.777 330.488 490.343 350.204 508.047 354.292C525.751 358.379 543.891 345.29 548.562 325.056Z" fill="#FF9674"/>
<path d="M548.367 325.013C553.014 304.886 542.516 285.278 524.919 281.215C507.322 277.153 489.29 290.175 484.644 310.301C479.997 330.427 490.496 350.036 508.092 354.098C525.689 358.161 543.721 345.139 548.367 325.013Z" fill="#FF9573"/>
<path d="M548.075 324.943C552.684 304.979 542.286 285.531 524.851 281.506C507.415 277.48 489.545 290.402 484.936 310.367C480.326 330.331 490.724 349.779 508.159 353.804C525.595 357.829 543.465 344.908 548.075 324.943Z" fill="#FF9472"/>
<path d="M547.98 324.9C552.564 305.043 542.234 285.703 524.906 281.702C507.578 277.702 489.815 290.556 485.23 310.413C480.646 330.27 490.977 349.61 508.304 353.611C525.632 357.611 543.395 344.757 547.98 324.9Z" fill="#FF9372"/>
<path d="M547.786 324.854C552.333 305.159 542.06 285.969 524.84 281.994C507.619 278.018 489.974 290.762 485.427 310.457C480.879 330.153 491.153 349.342 508.373 353.318C525.593 357.293 543.239 344.55 547.786 324.854Z" fill="#FF9271"/>
<path d="M547.494 324.687C552.016 305.1 541.81 286.018 524.697 282.067C507.585 278.116 490.046 290.793 485.524 310.381C481.002 329.969 491.208 349.05 508.321 353.001C525.433 356.952 542.972 344.275 547.494 324.687Z" fill="#FF9171"/>
<path d="M547.299 324.642C551.784 305.215 541.634 286.284 524.629 282.359C507.624 278.433 490.203 290.998 485.718 310.425C481.233 329.851 491.383 348.782 508.388 352.708C525.393 356.634 542.814 344.068 547.299 324.642Z" fill="#FF9070"/>
<path d="M547.007 324.575C551.467 305.256 541.428 286.442 524.585 282.554C507.741 278.665 490.471 291.174 486.011 310.493C481.551 329.812 491.59 348.625 508.433 352.514C525.277 356.402 542.547 343.894 547.007 324.575Z" fill="#FF8F70"/>
<path d="M546.811 324.529C551.234 305.372 541.253 286.709 524.517 282.845C507.781 278.982 490.628 291.38 486.206 310.537C481.783 329.694 491.764 348.357 508.5 352.221C525.236 356.084 542.388 343.686 546.811 324.529Z" fill="#FF8E6F"/>
<path d="M546.715 324.485C551.101 305.489 541.176 286.978 524.548 283.139C507.92 279.3 490.885 291.587 486.499 310.583C482.114 329.579 492.038 348.091 508.667 351.93C525.295 355.768 542.33 343.481 546.715 324.485Z" fill="#FF8D6F"/>
<path d="M546.521 324.44C550.882 305.551 541.024 287.147 524.504 283.333C507.983 279.519 491.055 291.739 486.695 310.628C482.334 329.516 492.191 347.92 508.712 351.734C525.233 355.548 542.16 343.328 546.521 324.44Z" fill="#FF8C6E"/>
<path d="M546.133 324.349C550.456 305.622 540.699 287.379 524.34 283.602C507.981 279.826 491.214 291.945 486.891 310.672C482.567 329.399 492.324 347.642 508.683 351.419C525.043 355.195 541.809 343.076 546.133 324.349Z" fill="#FF8B6E"/>
<path d="M545.936 324.304C550.235 305.684 540.545 287.549 524.293 283.797C508.042 280.045 491.383 292.097 487.084 310.717C482.785 329.336 492.475 347.471 508.727 351.223C524.978 354.975 541.637 342.923 545.936 324.304Z" fill="#FF8A6D"/>
<path d="M545.742 324.16C550.004 305.702 540.371 287.718 524.227 283.991C508.083 280.264 491.542 292.205 487.28 310.663C483.019 329.121 492.652 347.105 508.796 350.833C524.939 354.56 541.481 342.618 545.742 324.16Z" fill="#FF896C"/>
<path d="M545.548 324.115C549.784 305.764 540.219 287.887 524.183 284.185C508.146 280.483 491.712 292.357 487.476 310.708C483.239 329.058 492.805 346.935 508.841 350.637C524.877 354.339 541.311 342.465 545.548 324.115Z" fill="#FF886C"/>
<path d="M545.352 324.069C549.552 305.88 540.043 288.154 524.114 284.477C508.186 280.799 491.869 292.563 487.67 310.752C483.471 328.941 492.979 346.667 508.908 350.344C524.836 354.022 541.153 342.258 545.352 324.069Z" fill="#FF876B"/>
<path d="M545.16 324.002C549.335 305.921 539.937 288.312 524.17 284.672C508.402 281.032 492.237 292.739 488.062 310.82C483.888 328.901 493.286 346.51 509.053 350.15C524.82 353.79 540.986 342.083 545.16 324.002Z" fill="#FF866B"/>
<path d="M544.867 323.935C549.004 306.015 539.663 288.557 524.004 284.942C508.344 281.327 492.296 292.923 488.159 310.843C484.022 328.762 493.363 346.22 509.022 349.835C524.682 353.45 540.73 341.854 544.867 323.935Z" fill="#FF856A"/>
<path d="M544.673 323.889C548.785 306.077 539.511 288.727 523.959 285.136C508.407 281.546 492.466 293.075 488.354 310.887C484.242 328.699 493.516 346.049 509.067 349.64C524.619 353.23 540.56 341.701 544.673 323.889Z" fill="#FF846A"/>
<path d="M544.477 323.843C548.552 306.193 539.335 288.994 523.891 285.428C508.447 281.862 492.623 293.281 488.548 310.931C484.473 328.582 493.69 345.781 509.134 349.347C524.579 352.912 540.402 341.494 544.477 323.843Z" fill="#FF8369"/>
<path d="M544.185 323.776C548.236 306.233 539.13 289.152 523.847 285.623C508.564 282.095 492.891 293.456 488.841 310.999C484.791 328.542 493.897 345.624 509.18 349.152C524.463 352.681 540.135 341.319 544.185 323.776Z" fill="#FF8269"/>
<path d="M543.99 323.631C548.003 306.25 538.954 289.319 523.779 285.815C508.603 282.312 493.048 293.562 489.035 310.944C485.023 328.325 494.072 345.256 509.247 348.76C524.422 352.263 539.977 341.013 543.99 323.631Z" fill="#FF8168"/>
<path d="M543.896 323.587C547.872 306.367 538.88 289.588 523.812 286.109C508.744 282.63 493.307 293.77 489.331 310.99C485.356 328.21 494.348 344.99 509.415 348.469C524.483 351.947 539.92 340.807 543.896 323.587Z" fill="#FF8067"/>
<path d="M543.701 323.542C547.652 306.429 538.727 289.757 523.767 286.303C508.807 282.849 493.477 293.922 489.526 311.035C485.576 328.147 494.501 344.819 509.461 348.273C524.421 351.727 539.751 340.654 543.701 323.542Z" fill="#FF7F67"/>
<path d="M543.408 323.475C547.322 306.524 538.454 290.002 523.602 286.573C508.749 283.144 493.537 294.106 489.623 311.057C485.71 328.008 494.577 344.53 509.43 347.959C524.282 351.388 539.495 340.426 543.408 323.475Z" fill="#FF7E66"/>
<path d="M543.117 323.408C547.005 306.564 538.248 290.16 523.557 286.769C508.866 283.377 493.805 294.282 489.916 311.125C486.027 327.969 494.784 344.373 509.475 347.764C524.166 351.156 539.228 340.251 543.117 323.408Z" fill="#FF7D66"/>
<path d="M542.921 323.362C546.772 306.68 538.072 290.427 523.489 287.06C508.906 283.693 493.962 294.488 490.11 311.17C486.259 327.852 494.959 344.104 509.542 347.471C524.125 350.838 539.07 340.044 542.921 323.362Z" fill="#FF7C65"/>
<path d="M542.727 323.316C546.553 306.742 537.92 290.597 523.444 287.255C508.969 283.913 494.132 294.64 490.305 311.214C486.479 327.788 495.112 343.934 509.588 347.276C524.063 350.618 538.9 339.891 542.727 323.316Z" fill="#FF7B65"/>
<path d="M542.631 323.273C546.42 306.86 537.844 290.865 523.476 287.548C509.108 284.231 494.389 294.847 490.599 311.26C486.81 327.673 495.386 343.668 509.754 346.985C524.122 350.302 538.841 339.686 542.631 323.273Z" fill="#FF7A64"/>
<path d="M542.339 323.104C546.103 306.799 537.638 290.922 523.432 287.642C509.225 284.362 494.657 294.921 490.892 311.227C487.128 327.532 495.593 343.409 509.8 346.689C524.006 349.969 538.575 339.409 542.339 323.104Z" fill="#FF7964"/>
<path d="M542.048 323.037C545.775 306.893 537.367 291.167 523.268 287.912C509.169 284.657 494.718 295.105 490.991 311.249C487.264 327.393 495.672 343.119 509.771 346.374C523.87 349.629 538.321 339.181 542.048 323.037Z" fill="#FF7863"/>
<path d="M541.851 322.991C545.554 306.955 537.213 291.337 523.221 288.106C509.23 284.876 494.886 295.258 491.184 311.294C487.482 327.33 495.823 342.949 509.814 346.179C523.805 349.409 538.149 339.028 541.851 322.991Z" fill="#FF7762"/>
<path d="M541.658 322.948C545.323 307.073 537.039 291.605 523.155 288.4C509.271 285.195 495.045 295.465 491.38 311.34C487.715 327.215 495.999 342.682 509.883 345.888C523.767 349.093 537.993 338.822 541.658 322.948Z" fill="#FF7762"/>
<path d="M541.462 322.902C545.09 307.188 536.863 291.872 523.087 288.691C509.311 285.511 495.202 295.671 491.574 311.384C487.947 327.098 496.174 342.414 509.95 345.595C523.726 348.775 537.834 338.615 541.462 322.902Z" fill="#FF7661"/>
<path d="M541.27 322.835C544.873 307.229 536.757 292.03 523.142 288.887C509.527 285.744 495.57 295.846 491.967 311.452C488.364 327.058 496.48 342.257 510.095 345.4C523.71 348.543 537.667 338.441 541.27 322.835Z" fill="#FF7561"/>
<path d="M541.075 322.789C544.64 307.345 536.581 292.297 523.074 289.178C509.567 286.06 495.727 296.052 492.161 311.497C488.596 326.941 496.655 341.989 510.162 345.107C523.669 348.226 537.509 338.233 541.075 322.789Z" fill="#FF7460"/>
<path d="M540.782 322.622C544.323 307.286 536.331 292.345 522.932 289.252C509.532 286.158 495.8 296.083 492.259 311.42C488.718 326.757 496.71 341.697 510.109 344.791C523.509 347.884 537.242 337.959 540.782 322.622Z" fill="#FF7360"/>
<path d="M540.589 322.577C544.092 307.402 536.157 292.612 522.865 289.543C509.574 286.475 495.958 296.289 492.455 311.464C488.951 326.639 496.886 341.429 510.178 344.498C523.47 347.566 537.085 337.752 540.589 322.577Z" fill="#FF725F"/>
<path d="M540.295 322.51C543.774 307.442 535.95 292.77 522.819 289.739C509.689 286.707 496.225 296.464 492.746 311.532C489.267 326.6 497.092 341.272 510.222 344.303C523.352 347.335 536.817 337.577 540.295 322.51Z" fill="#FF715F"/>
<path d="M540.102 322.464C543.543 307.558 535.776 293.037 522.753 290.03C509.73 287.024 496.383 296.67 492.942 311.576C489.501 326.483 497.268 341.004 510.291 344.01C523.313 347.017 536.66 337.37 540.102 322.464Z" fill="#FF705E"/>
<path d="M540.007 322.42C543.423 307.622 535.723 293.208 522.808 290.226C509.893 287.245 496.653 296.824 493.237 311.623C489.82 326.421 497.521 340.835 510.436 343.817C523.351 346.798 536.59 337.219 540.007 322.42Z" fill="#FF6F5E"/>
<path d="M539.811 322.375C543.19 307.738 535.547 293.475 522.74 290.518C509.932 287.561 496.81 297.03 493.431 311.667C490.052 326.304 497.695 340.567 510.502 343.524C523.31 346.481 536.432 337.012 539.811 322.375Z" fill="#FF6E5D"/>
<path d="M539.519 322.308C542.873 307.778 535.297 293.623 522.598 290.691C509.898 287.759 496.883 297.161 493.529 311.69C490.174 326.22 497.75 340.375 510.45 343.307C523.15 346.239 536.165 336.837 539.519 322.308Z" fill="#FF6D5C"/>
<path d="M539.226 322.24C542.543 307.872 535.068 293.878 522.53 290.983C509.991 288.089 497.138 297.39 493.821 311.758C490.504 326.126 497.979 340.12 510.517 343.015C523.056 345.91 535.909 336.609 539.226 322.24Z" fill="#FF6C5C"/>
<path d="M539.031 322.095C542.311 307.889 534.892 294.045 522.462 291.175C510.031 288.306 497.295 297.496 494.015 311.702C490.735 325.909 498.153 339.752 510.584 342.622C523.015 345.492 535.751 336.302 539.031 322.095Z" fill="#FF6B5B"/>
<path d="M538.836 322.05C542.091 307.951 534.74 294.215 522.417 291.37C510.094 288.525 497.465 297.648 494.21 311.747C490.955 325.846 498.306 339.582 510.63 342.427C522.953 345.272 535.581 336.149 538.836 322.05Z" fill="#FF6A5B"/>
<path d="M538.643 322.004C541.86 308.066 534.566 294.482 522.351 291.661C510.135 288.841 497.624 297.854 494.406 311.791C491.189 325.729 498.483 339.314 510.698 342.134C522.914 344.954 535.425 335.942 538.643 322.004Z" fill="#FF695A"/>
<path d="M538.449 321.937C541.642 308.107 534.458 294.64 522.404 291.857C510.35 289.074 497.99 298.029 494.797 311.859C491.604 325.689 498.787 339.156 510.842 341.939C522.896 344.722 535.256 335.767 538.449 321.937Z" fill="#FF685A"/>
<path d="M538.157 321.87C541.313 308.201 534.187 294.885 522.24 292.127C510.294 289.369 498.051 298.213 494.895 311.882C491.74 325.55 498.866 338.867 510.813 341.625C522.759 344.383 535.002 335.538 538.157 321.87Z" fill="#FF6759"/>
<path d="M537.963 321.824C541.094 308.263 534.034 295.054 522.196 292.321C510.357 289.588 498.221 298.365 495.091 311.926C491.96 325.487 499.019 338.696 510.858 341.429C522.697 344.163 534.832 335.385 537.963 321.824Z" fill="#FF6659"/>
<path d="M537.767 321.78C540.861 308.381 533.859 295.323 522.127 292.615C510.396 289.906 498.378 298.573 495.285 311.973C492.191 325.372 499.194 338.43 510.925 341.138C522.656 343.847 534.674 335.18 537.767 321.78Z" fill="#FF6558"/>
<path d="M537.573 321.735C540.642 308.443 533.706 295.493 522.083 292.809C510.459 290.126 498.549 298.725 495.48 312.017C492.411 325.309 499.347 338.259 510.97 340.943C522.594 343.626 534.504 335.027 537.573 321.735Z" fill="#FF6457"/>
<path d="M537.28 321.568C540.312 308.438 533.477 295.648 522.015 293.002C510.553 290.356 498.803 298.855 495.772 311.985C492.741 325.116 499.575 337.905 511.037 340.551C522.499 343.197 534.249 334.698 537.28 321.568Z" fill="#FF6357"/>
<path d="M537.185 321.523C540.192 308.5 533.424 295.818 522.07 293.196C510.715 290.575 499.073 299.007 496.067 312.03C493.06 325.052 499.828 337.734 511.182 340.356C522.537 342.977 534.179 334.545 537.185 321.523Z" fill="#FF6256"/>
<path d="M536.894 321.455C539.863 308.594 533.153 296.063 521.906 293.466C510.659 290.87 499.135 299.191 496.165 312.052C493.196 324.914 499.906 337.445 511.153 340.041C522.4 342.638 533.925 334.317 536.894 321.455Z" fill="#FF6156"/>
<path d="M536.698 321.41C539.642 308.656 532.999 296.233 521.859 293.661C510.72 291.089 499.303 299.343 496.359 312.097C493.414 324.851 500.058 337.274 511.197 339.846C522.336 342.418 533.753 334.164 536.698 321.41Z" fill="#FF6055"/>
<path d="M536.407 321.343C539.314 308.75 532.771 296.488 521.794 293.953C510.816 291.419 499.56 299.572 496.653 312.165C493.745 324.757 500.288 337.019 511.266 339.554C522.244 342.088 533.5 333.935 536.407 321.343Z" fill="#FF5F55"/>
<path d="M536.211 321.297C539.081 308.866 532.596 296.754 521.725 294.245C510.855 291.735 499.717 299.778 496.847 312.209C493.977 324.64 500.462 336.751 511.333 339.261C522.203 341.77 533.341 333.728 536.211 321.297Z" fill="#FF5E54"/>
<path d="M536.017 321.253C538.862 308.93 532.443 296.926 521.681 294.441C510.918 291.956 499.887 299.932 497.042 312.255C494.197 324.578 500.615 336.583 511.378 339.067C522.141 341.552 533.172 333.577 536.017 321.253Z" fill="#FF5D54"/>
<path d="M535.921 321.208C538.729 309.046 532.367 297.193 521.712 294.733C511.057 292.273 500.144 300.138 497.336 312.3C494.528 324.461 500.89 336.314 511.544 338.774C522.199 341.234 533.113 333.369 535.921 321.208Z" fill="#FF5C53"/>
<path d="M535.629 321.039C538.412 308.985 532.117 297.239 521.57 294.804C511.023 292.369 500.216 300.167 497.433 312.221C494.651 324.275 500.945 336.021 511.492 338.456C522.04 340.891 532.846 333.093 535.629 321.039Z" fill="#FF5B53"/>
<path d="M535.336 320.972C538.082 309.079 531.888 297.494 521.502 295.097C511.116 292.699 500.471 300.396 497.725 312.289C494.98 324.181 501.173 335.766 511.559 338.164C521.945 340.562 532.59 332.864 535.336 320.972Z" fill="#FF5A52"/>
<path d="M535.142 320.928C537.862 309.143 531.736 297.666 521.457 295.293C511.179 292.92 500.641 300.55 497.921 312.335C495.2 324.12 501.326 335.597 511.605 337.97C521.883 340.343 532.421 332.713 535.142 320.928Z" fill="#FF5951"/>
<path d="M534.946 320.883C537.629 309.259 531.56 297.933 521.389 295.585C511.219 293.236 500.798 300.756 498.115 312.379C495.431 324.003 501.501 335.329 511.671 337.677C521.842 340.025 532.262 332.506 534.946 320.883Z" fill="#FF5851"/>
<path d="M534.751 320.837C537.41 309.321 531.408 298.102 521.345 295.779C511.282 293.456 500.969 300.908 498.31 312.424C495.651 323.94 501.654 335.159 511.717 337.482C521.78 339.805 532.093 332.353 534.751 320.837Z" fill="#FF5750"/>
<path d="M534.56 320.77C537.182 309.415 531.28 298.357 521.378 296.071C511.477 293.785 501.325 301.137 498.703 312.492C496.082 323.846 501.984 334.904 511.885 337.19C521.787 339.476 531.939 332.124 534.56 320.77Z" fill="#FF5650"/>
<path d="M534.268 320.703C536.865 309.456 531.03 298.505 521.236 296.244C511.442 293.983 501.398 301.268 498.801 312.515C496.205 323.761 502.039 334.712 511.833 336.973C521.627 339.234 531.672 331.95 534.268 320.703Z" fill="#FF554F"/>
<path d="M534.073 320.657C536.632 309.572 530.854 298.772 521.168 296.536C511.482 294.3 501.555 301.473 498.995 312.559C496.436 323.644 502.214 334.444 511.9 336.68C521.586 338.916 531.513 331.743 534.073 320.657Z" fill="#FF544F"/>
<path d="M533.877 320.512C536.399 309.588 530.679 298.939 521.1 296.728C511.521 294.517 501.712 301.579 499.19 312.504C496.668 323.428 502.388 334.076 511.967 336.287C521.546 338.499 531.355 331.436 533.877 320.512Z" fill="#FF534E"/>
<path d="M533.683 320.468C536.18 309.652 530.526 299.111 521.055 296.924C511.584 294.738 501.882 301.734 499.385 312.55C496.888 323.366 502.541 333.907 512.012 336.094C521.483 338.28 531.185 331.285 533.683 320.468Z" fill="#FF524E"/>
<path d="M533.39 320.401C535.85 309.746 530.297 299.366 520.987 297.217C511.678 295.067 502.137 301.963 499.677 312.618C497.217 323.273 502.77 333.653 512.079 335.802C521.389 337.951 530.93 331.056 533.39 320.401Z" fill="#FF514D"/>
</g>
<path d="M584.699 288.099C574.799 284.399 562.699 293.099 557.499 307.699C552.399 322.299 556.199 337.099 566.099 340.899C575.999 344.599 588.099 335.899 593.299 321.299C598.399 306.699 594.599 291.899 584.699 288.099Z" fill="#FF9E78"/>
<path d="M584.898 322.699C575.098 328.699 564.898 326.499 557.598 320.299C557.598 324.099 557.298 328.899 556.398 334.499H556.598L555.498 371.499C559.698 362.199 561.998 351.399 563.098 339.299C563.998 339.899 564.998 340.499 565.998 340.899C575.898 344.599 587.998 335.899 593.198 321.299C594.498 317.499 595.198 313.799 595.398 310.199C593.498 315.199 590.198 319.599 585.098 322.799L584.898 322.699Z" fill="url(#paint16_linear_2394_71808)"/>
<path d="M567.799 314.4L576.899 315.9C577.099 301.5 587.799 297 587.799 297C570.599 290.4 567.799 314.5 567.799 314.5V314.4Z" fill="url(#paint17_linear_2394_71808)"/>
<path d="M512.798 133.099C485.298 114.299 449.098 112.199 449.098 112.199C447.598 114.499 446.798 118.299 447.298 120.999C424.598 119.799 406.798 121.899 406.798 121.899C401.398 148.899 408.698 165.099 416.898 174.399C419.898 177.799 424.098 183.499 436.398 189.099C436.398 189.099 449.398 196.799 469.998 197.599C488.498 198.299 514.898 189.099 514.898 189.099C533.298 188.999 557.998 246.499 559.698 292.399C560.098 302.899 569.398 290.899 569.398 290.899C569.398 290.899 570.498 279.399 569.998 262.999C569.998 262.899 590.898 201.299 575.498 173.399" fill="url(#paint18_linear_2394_71808)"/>
<path d="M408.799 161.199C381.099 169.099 389.099 269.699 389.399 286.199C389.399 287.399 389.299 288.199 389.099 289.499C389.099 290.099 391.299 289.999 391.099 289.399C390.899 288.399 391.099 286.799 391.199 286.199C395.499 255.799 420.899 189.699 436.199 189.099C436.199 189.099 421.699 180.099 408.699 161.199H408.799Z" fill="#59352C"/>
<g opacity="0.4">
<path d="M432.316 351.548C450.733 348.861 463.033 328.652 459.788 306.409C456.543 284.167 438.983 268.314 420.566 271C402.149 273.687 389.849 293.896 393.094 316.139C396.339 338.381 413.899 354.235 432.316 351.548Z" fill="#FF9E78"/>
<path d="M432.287 351.349C450.595 348.678 462.819 328.57 459.59 306.437C456.361 284.304 438.902 268.526 420.594 271.197C402.287 273.868 390.063 293.976 393.292 316.109C396.521 338.242 413.98 354.02 432.287 351.349Z" fill="#FF9D77"/>
<path d="M432.244 351.052C450.387 348.405 462.498 328.45 459.293 306.481C456.088 284.512 438.781 268.848 420.637 271.494C402.494 274.141 390.383 294.097 393.588 316.066C396.793 338.035 414.1 353.699 432.244 351.052Z" fill="#FF9C77"/>
<path d="M432.201 350.755C450.236 348.124 462.277 328.315 459.096 306.509C455.915 284.704 438.716 269.16 420.682 271.791C402.647 274.422 390.606 294.231 393.787 316.037C396.968 337.842 414.167 353.386 432.201 350.755Z" fill="#FF9B76"/>
<path d="M432.172 350.558C450.097 347.943 462.063 328.235 458.898 306.539C455.733 284.843 438.636 269.375 420.71 271.99C402.785 274.605 390.82 294.313 393.985 316.009C397.15 337.705 414.247 353.173 432.172 350.558Z" fill="#FF9A76"/>
<path d="M432.128 350.261C449.944 347.662 461.84 328.1 458.699 306.567C455.558 285.035 438.569 269.687 420.753 272.286C402.937 274.885 391.041 294.447 394.182 315.979C397.323 337.512 414.312 352.86 432.128 350.261Z" fill="#FF9975"/>
<path d="M432.101 350.062C449.807 347.479 461.628 328.018 458.503 306.595C455.377 285.172 438.49 269.9 420.783 272.483C403.077 275.066 391.256 294.527 394.381 315.95C397.507 337.372 414.394 352.645 432.101 350.062Z" fill="#FF9875"/>
<path d="M432.057 349.767C449.654 347.199 461.405 327.885 458.304 306.626C455.203 285.367 438.423 270.214 420.826 272.781C403.228 275.349 391.477 294.663 394.578 315.922C397.68 337.181 414.459 352.334 432.057 349.767Z" fill="#FF9774"/>
<path d="M432.012 349.469C449.5 346.918 461.182 327.749 458.105 306.654C455.028 285.559 438.356 270.527 420.868 273.078C403.38 275.629 391.698 294.798 394.775 315.893C397.853 336.988 414.524 352.02 432.012 349.469Z" fill="#FF9674"/>
<path d="M431.984 349.271C449.308 346.744 460.87 327.683 457.809 306.697C454.747 285.712 438.221 270.748 420.897 273.275C403.573 275.803 392.011 294.864 395.073 315.849C398.134 336.835 414.66 351.798 431.984 349.271Z" fill="#FF9573"/>
<path d="M431.941 348.974C449.156 346.462 460.649 327.547 457.612 306.726C454.574 285.904 438.156 271.061 420.942 273.572C403.727 276.083 392.234 294.998 395.271 315.82C398.309 336.642 414.727 351.485 431.941 348.974Z" fill="#FF9472"/>
<path d="M431.897 348.677C449.003 346.181 460.426 327.412 457.413 306.754C454.399 286.096 438.089 271.373 420.984 273.868C403.878 276.364 392.455 295.133 395.468 315.791C398.482 336.449 414.792 351.172 431.897 348.677Z" fill="#FF9372"/>
<path d="M431.868 348.48C448.864 346 460.212 327.332 457.215 306.784C454.217 286.235 438.009 271.588 421.013 274.067C404.016 276.547 392.668 295.214 395.666 315.763C398.664 336.311 414.872 350.959 431.868 348.48Z" fill="#FF9271"/>
<path d="M431.826 348.182C448.713 345.719 459.991 327.197 457.018 306.812C454.044 286.428 437.944 271.9 421.057 274.364C404.17 276.827 392.891 295.349 395.865 315.734C398.839 336.118 414.939 350.646 431.826 348.182Z" fill="#FF9171"/>
<path d="M431.797 347.985C448.574 345.538 459.777 327.117 456.82 306.842C453.862 286.567 437.863 272.115 421.085 274.562C404.308 277.01 393.105 295.43 396.063 315.706C399.02 335.981 415.019 350.433 431.797 347.985Z" fill="#FF9070"/>
<path d="M431.753 347.689C448.367 345.265 459.456 326.997 456.522 306.886C453.588 286.775 437.742 272.436 421.128 274.86C404.515 277.283 393.425 295.551 396.359 315.663C399.293 335.774 415.139 350.112 431.753 347.689Z" fill="#FF8F70"/>
<path d="M431.711 347.391C448.215 344.984 459.235 326.861 456.325 306.914C453.415 286.967 437.677 272.748 421.173 275.156C404.668 277.564 393.648 295.686 396.558 315.633C399.468 335.581 415.206 349.799 431.711 347.391Z" fill="#FF8E6F"/>
<path d="M431.682 347.192C448.077 344.801 459.021 326.78 456.127 306.942C453.233 287.104 437.596 272.961 421.201 275.353C404.806 277.745 393.862 295.765 396.756 315.603C399.65 335.441 415.287 349.584 431.682 347.192Z" fill="#FF8D6F"/>
<path d="M431.637 346.897C447.923 344.521 458.799 326.646 455.928 306.972C453.058 287.298 437.529 273.275 421.244 275.651C404.958 278.027 394.083 295.902 396.953 315.576C399.823 335.25 415.352 349.273 431.637 346.897Z" fill="#FF8C6E"/>
<path d="M431.608 346.698C447.785 344.338 458.584 326.565 455.73 307C452.876 287.436 437.449 273.488 421.272 275.848C405.096 278.208 394.296 295.981 397.15 315.546C400.005 335.111 415.432 349.058 431.608 346.698Z" fill="#FF8B6E"/>
<path d="M431.566 346.401C447.633 344.057 458.364 326.429 455.533 307.029C452.703 287.628 437.384 273.801 421.317 276.145C405.25 278.489 394.519 296.116 397.349 315.517C400.18 334.918 415.499 348.745 431.566 346.401Z" fill="#FF8A6D"/>
<path d="M431.522 346.104C447.425 343.784 458.043 326.309 455.236 307.072C452.43 287.836 437.263 274.122 421.36 276.442C405.457 278.762 394.839 296.237 397.646 315.474C400.452 334.711 415.619 348.424 431.522 346.104Z" fill="#FF896C"/>
<path d="M431.493 345.907C447.287 343.603 457.828 326.23 455.038 307.102C452.248 287.975 437.182 274.337 421.388 276.641C405.594 278.945 395.053 296.318 397.843 315.446C400.634 334.573 415.699 348.211 431.493 345.907Z" fill="#FF886C"/>
<path d="M431.451 345.61C447.135 343.322 457.608 326.094 454.841 307.131C452.075 288.167 437.117 274.649 421.433 276.937C405.748 279.225 395.276 296.453 398.042 315.417C400.809 334.38 415.766 347.898 431.451 345.61Z" fill="#FF876B"/>
<path d="M431.422 345.411C446.997 343.139 457.394 326.013 454.643 307.158C451.892 288.304 437.037 274.862 421.461 277.134C405.886 279.406 395.49 296.532 398.24 315.387C400.991 334.241 415.847 347.683 431.422 345.411Z" fill="#FF866B"/>
<path d="M431.378 345.116C446.843 342.86 457.171 325.879 454.444 307.189C451.717 288.499 436.97 275.176 421.504 277.432C406.038 279.689 395.71 296.669 398.437 315.359C401.164 334.05 415.912 347.372 431.378 345.116Z" fill="#FF856A"/>
<path d="M431.335 344.819C446.692 342.578 456.95 325.744 454.247 307.217C451.545 288.691 436.905 275.488 421.548 277.729C406.191 279.969 395.933 296.804 398.636 315.33C401.339 333.856 415.979 347.059 431.335 344.819Z" fill="#FF846A"/>
<path d="M431.306 344.62C446.553 342.395 456.736 325.662 454.049 307.245C451.362 288.828 436.824 275.701 421.577 277.926C406.329 280.15 396.147 296.883 398.834 315.3C401.52 333.717 416.059 346.844 431.306 344.62Z" fill="#FF8369"/>
<path d="M431.263 344.323C446.346 342.123 456.415 325.542 453.752 307.289C451.089 289.036 436.703 276.022 421.62 278.223C406.536 280.423 396.467 297.004 399.13 315.257C401.793 333.51 416.179 346.524 431.263 344.323Z" fill="#FF8269"/>
<path d="M431.233 344.126C446.208 341.942 456.201 325.462 453.554 307.319C450.907 289.175 436.622 276.237 421.648 278.422C406.674 280.606 396.681 297.085 399.328 315.229C401.975 333.373 416.259 346.311 431.233 344.126Z" fill="#FF8168"/>
<path d="M431.191 343.829C446.056 341.66 455.98 325.327 453.357 307.347C450.734 289.367 436.557 276.55 421.692 278.718C406.828 280.887 396.904 297.22 399.527 315.2C402.15 333.18 416.326 345.997 431.191 343.829Z" fill="#FF8067"/>
<path d="M431.147 343.532C445.902 341.379 455.757 325.191 453.158 307.375C450.559 289.56 436.49 276.862 421.735 279.014C406.979 281.167 397.125 297.355 399.724 315.171C402.323 332.987 416.391 345.684 431.147 343.532Z" fill="#FF7F67"/>
<path d="M431.118 343.335C445.764 341.198 455.543 325.112 452.96 307.405C450.377 289.699 436.41 277.077 421.763 279.213C407.117 281.35 397.338 297.436 399.921 315.143C402.504 332.849 416.471 345.471 431.118 343.335Z" fill="#FF7E66"/>
<path d="M431.075 343.037C445.612 340.917 455.322 324.976 452.763 307.434C450.204 289.891 436.345 277.389 421.808 279.51C407.271 281.63 397.561 297.571 400.12 315.113C402.679 332.656 416.538 345.158 431.075 343.037Z" fill="#FF7D66"/>
<path d="M431.032 342.741C445.405 340.644 455.001 324.856 452.466 307.477C449.93 290.099 436.224 277.71 421.851 279.807C407.478 281.904 397.881 297.692 400.417 315.07C402.952 332.449 416.659 344.838 431.032 342.741Z" fill="#FF7C65"/>
<path d="M431.003 342.542C445.266 340.461 454.787 324.775 452.268 307.505C449.748 290.236 436.143 277.923 421.879 280.004C407.616 282.085 398.095 297.771 400.614 315.041C403.134 332.31 416.739 344.623 431.003 342.542Z" fill="#FF7B65"/>
<path d="M430.96 342.245C445.115 340.18 454.566 324.639 452.071 307.534C449.575 290.428 436.078 278.235 421.924 280.3C407.769 282.365 398.318 297.906 400.813 315.011C403.309 332.117 416.806 344.309 430.96 342.245Z" fill="#FF7A64"/>
<path d="M430.931 342.048C444.976 339.999 454.352 324.559 451.873 307.563C449.393 290.567 435.997 278.45 421.952 280.499C407.907 282.548 398.531 297.987 401.011 314.983C403.49 331.979 416.886 344.096 430.931 342.048Z" fill="#FF7964"/>
<path d="M430.887 341.75C444.823 339.717 454.129 324.424 451.674 307.592C449.218 290.76 435.93 278.762 421.995 280.795C408.059 282.828 398.752 298.122 401.208 314.954C403.663 331.786 416.951 343.783 430.887 341.75Z" fill="#FF7863"/>
<path d="M430.845 341.453C444.671 339.436 453.908 324.289 451.477 307.62C449.045 290.952 435.865 279.075 422.039 281.092C408.212 283.109 398.975 298.256 401.407 314.925C403.838 331.593 417.018 343.47 430.845 341.453Z" fill="#FF7762"/>
<path d="M430.814 341.257C444.477 339.264 453.594 324.224 451.178 307.665C448.763 291.106 435.729 279.298 422.066 281.291C408.404 283.285 399.286 298.324 401.702 314.883C404.118 331.442 417.152 343.25 430.814 341.257Z" fill="#FF7762"/>
<path d="M430.772 340.959C444.325 338.982 453.373 324.089 450.981 307.694C448.59 291.299 435.664 279.611 422.111 281.588C408.557 283.565 399.509 298.459 401.901 314.854C404.293 331.249 417.219 342.937 430.772 340.959Z" fill="#FF7661"/>
<path d="M430.743 340.761C444.187 338.799 453.159 324.007 450.783 307.721C448.408 291.436 435.583 279.824 422.139 281.785C408.695 283.746 399.723 298.538 402.099 314.824C404.475 331.11 417.299 342.722 430.743 340.761Z" fill="#FF7561"/>
<path d="M430.701 340.465C444.035 338.52 452.938 323.874 450.586 307.752C448.235 291.63 435.518 280.138 422.183 282.083C408.849 284.028 399.946 298.675 402.298 314.796C404.649 330.918 417.366 342.411 430.701 340.465Z" fill="#FF7460"/>
<path d="M430.656 340.168C443.882 338.239 452.716 323.738 450.388 307.78C448.06 291.823 435.451 280.45 422.226 282.38C409.001 284.309 400.167 298.809 402.494 314.767C404.822 330.725 417.431 342.097 430.656 340.168Z" fill="#FF7360"/>
<path d="M430.627 339.969C443.743 338.056 452.501 323.657 450.189 307.808C447.877 291.96 435.37 280.663 422.254 282.576C409.138 284.49 400.38 298.889 402.692 314.737C405.004 330.586 417.511 341.882 430.627 339.969Z" fill="#FF725F"/>
<path d="M430.584 339.672C443.536 337.783 452.18 323.536 449.892 307.852C447.604 292.167 435.25 280.984 422.297 282.874C409.345 284.763 400.701 299.01 402.989 314.694C405.277 330.379 417.631 341.562 430.584 339.672Z" fill="#FF715F"/>
<path d="M430.554 339.475C443.397 337.602 451.966 323.457 449.694 307.882C447.422 292.306 435.169 281.199 422.326 283.072C409.483 284.946 400.914 299.091 403.186 314.666C405.459 330.242 417.712 341.349 430.554 339.475Z" fill="#FF705E"/>
<path d="M430.512 339.178C443.246 337.321 451.745 323.321 449.497 307.91C447.249 292.499 435.104 281.511 422.37 283.369C409.637 285.227 401.137 299.226 403.385 314.637C405.634 330.048 417.779 341.036 430.512 339.178Z" fill="#FF6F5E"/>
<path d="M430.468 338.881C443.092 337.039 451.523 323.186 449.298 307.939C447.074 292.691 435.037 281.824 422.413 283.665C409.789 285.507 401.358 299.36 403.582 314.608C405.807 329.855 417.844 340.723 430.468 338.881Z" fill="#FF6E5D"/>
<path d="M430.441 338.684C442.956 336.858 451.311 323.106 449.102 307.968C446.894 292.83 434.958 282.038 422.443 283.864C409.928 285.69 401.573 299.442 403.782 314.58C405.99 329.718 417.926 340.51 430.441 338.684Z" fill="#FF6D5C"/>
<path d="M430.396 338.387C442.802 336.577 451.088 322.971 448.903 307.997C446.719 293.023 434.891 282.351 422.486 284.161C410.08 285.97 401.794 299.576 403.979 314.551C406.163 329.525 417.991 340.196 430.396 338.387Z" fill="#FF6C5C"/>
<path d="M430.354 338.089C442.65 336.296 450.867 322.835 448.706 308.025C446.546 293.215 434.826 282.663 422.53 284.457C410.234 286.251 402.017 299.711 404.178 314.521C406.338 329.331 418.058 339.883 430.354 338.089Z" fill="#FF6B5B"/>
<path d="M430.324 337.891C442.456 336.121 450.553 322.769 448.408 308.068C446.263 293.367 434.69 282.885 422.557 284.655C410.425 286.425 402.328 299.777 404.473 314.478C406.618 329.178 418.191 339.661 430.324 337.891Z" fill="#FF6A5B"/>
<path d="M430.281 337.594C442.304 335.84 450.332 322.634 448.211 308.097C446.09 293.56 434.625 283.197 422.602 284.951C410.579 286.705 402.551 299.911 404.672 314.448C406.793 328.985 418.258 339.348 430.281 337.594Z" fill="#FF695A"/>
<path d="M430.252 337.397C442.166 335.659 450.118 322.554 448.013 308.126C445.908 293.699 434.544 283.412 422.63 285.15C410.717 286.888 402.765 299.993 404.87 314.42C406.974 328.848 418.339 339.135 430.252 337.397Z" fill="#FF685A"/>
<path d="M430.208 337.1C442.012 335.378 449.895 322.419 447.814 308.155C445.733 293.891 434.477 283.724 422.673 285.446C410.868 287.168 402.986 300.127 405.067 314.391C407.147 328.655 418.404 338.822 430.208 337.1Z" fill="#FF6759"/>
<path d="M430.166 336.802C441.861 335.096 449.674 322.283 447.617 308.183C445.56 294.084 434.412 284.037 422.717 285.743C411.022 287.449 403.208 300.262 405.265 314.362C407.322 328.462 418.471 338.508 430.166 336.802Z" fill="#FF6659"/>
<path d="M430.137 336.605C441.722 334.915 449.46 322.204 447.419 308.213C445.378 294.223 434.331 284.251 422.746 285.942C411.16 287.632 403.422 300.343 405.463 314.334C407.504 328.324 418.551 338.296 430.137 336.605Z" fill="#FF6558"/>
<path d="M430.093 336.309C441.515 334.643 449.139 322.083 447.122 308.257C445.105 294.43 434.21 284.573 422.789 286.239C411.367 287.905 403.743 300.464 405.76 314.291C407.777 328.117 418.671 337.975 430.093 336.309Z" fill="#FF6457"/>
<path d="M430.064 336.11C441.376 334.46 448.925 322.002 446.924 308.285C444.923 294.567 434.13 284.785 422.817 286.436C411.505 288.086 403.956 300.544 405.957 314.261C407.958 327.978 418.751 337.76 430.064 336.11Z" fill="#FF6357"/>
<path d="M430.022 335.813C441.225 334.178 448.704 321.866 446.727 308.313C444.75 294.76 434.065 285.098 422.861 286.732C411.658 288.366 404.179 300.678 406.156 314.232C408.133 327.785 418.818 337.447 430.022 335.813Z" fill="#FF6256"/>
<path d="M429.977 335.517C441.071 333.899 448.481 321.733 446.528 308.343C444.575 294.954 433.998 285.412 422.904 287.031C411.81 288.649 404.4 300.815 406.353 314.204C408.306 327.594 418.883 337.136 429.977 335.517Z" fill="#FF6156"/>
<path d="M429.948 335.318C440.933 333.716 448.267 321.651 446.33 308.371C444.392 295.091 433.917 285.625 422.932 287.227C411.948 288.83 404.613 300.894 406.551 314.174C408.488 327.454 418.964 336.921 429.948 335.318Z" fill="#FF6055"/>
<path d="M429.906 335.021C440.781 333.434 448.046 321.516 446.133 308.4C444.219 295.284 433.852 285.937 422.977 287.524C412.101 289.11 404.836 301.029 406.75 314.145C408.663 327.261 419.03 336.608 429.906 335.021Z" fill="#FF5F55"/>
<path d="M429.877 334.825C440.589 333.262 447.734 321.451 445.836 308.445C443.939 295.438 433.717 286.161 423.006 287.723C412.295 289.286 405.15 301.097 407.047 314.103C408.944 327.11 419.166 336.387 429.877 334.825Z" fill="#FF5E54"/>
<path d="M429.833 334.528C440.435 332.981 447.511 321.316 445.638 308.473C443.764 295.63 433.65 286.473 423.048 288.02C412.446 289.566 405.37 301.231 407.244 314.074C409.117 326.917 419.231 336.074 429.833 334.528Z" fill="#FF5D54"/>
<path d="M429.791 334.23C440.284 332.7 447.29 321.18 445.441 308.502C443.591 295.823 433.585 286.786 423.093 288.316C412.6 289.847 405.593 301.366 407.443 314.045C409.292 326.724 419.298 335.761 429.791 334.23Z" fill="#FF5C53"/>
<path d="M429.762 334.033C440.145 332.518 447.076 321.101 445.242 308.531C443.409 295.962 433.505 287 423.121 288.515C412.738 290.03 405.807 301.447 407.641 314.017C409.474 326.586 419.378 335.548 429.762 334.033Z" fill="#FF5B53"/>
<path d="M429.717 333.736C439.992 332.237 446.853 320.965 445.044 308.56C443.234 296.154 433.438 287.313 423.164 288.811C412.889 290.31 406.028 301.582 407.837 313.988C409.647 326.393 419.443 335.235 429.717 333.736Z" fill="#FF5A52"/>
<path d="M429.675 333.439C439.84 331.956 446.633 320.83 444.847 308.588C443.061 296.347 433.373 287.625 423.208 289.108C413.043 290.591 406.25 301.717 408.036 313.958C409.822 326.2 419.51 334.922 429.675 333.439Z" fill="#FF5951"/>
<path d="M429.646 333.242C439.702 331.775 446.418 320.75 444.649 308.618C442.879 296.486 433.292 287.84 423.237 289.307C413.181 290.774 406.464 301.798 408.234 313.93C410.004 326.063 419.59 334.709 429.646 333.242Z" fill="#FF5851"/>
<path d="M429.602 332.943C439.494 331.5 446.097 320.628 444.351 308.66C442.605 296.691 433.171 288.159 423.28 289.602C413.388 291.045 406.785 301.917 408.531 313.885C410.277 325.854 419.711 334.386 429.602 332.943Z" fill="#FF5750"/>
<path d="M429.573 332.746C439.356 331.319 445.883 320.549 444.153 308.69C442.423 296.83 433.091 288.374 423.308 289.801C413.526 291.228 406.998 301.998 408.728 313.857C410.458 325.717 419.791 334.173 429.573 332.746Z" fill="#FF5650"/>
<path d="M429.531 332.449C439.204 331.038 445.662 320.413 443.956 308.718C442.25 297.023 433.026 288.686 423.353 290.097C413.679 291.508 407.221 302.133 408.927 313.828C410.633 325.523 419.858 333.86 429.531 332.449Z" fill="#FF554F"/>
<path d="M429.487 332.152C439.05 330.756 445.44 320.278 443.757 308.746C442.075 297.215 432.959 288.998 423.395 290.394C413.831 291.789 407.442 302.268 409.124 313.799C410.806 325.33 419.923 333.547 429.487 332.152Z" fill="#FF544F"/>
<path d="M429.458 331.955C438.912 330.575 445.226 320.198 443.559 308.776C441.893 297.354 432.878 289.213 423.423 290.592C413.969 291.972 407.655 302.349 409.322 313.771C410.988 325.193 420.003 333.334 429.458 331.955Z" fill="#FF534E"/>
<path d="M429.415 331.657C438.76 330.294 445.005 320.063 443.362 308.805C441.72 297.547 432.813 289.526 423.468 290.889C414.123 292.252 407.878 302.484 409.521 313.742C411.163 325 420.07 333.021 429.415 331.657Z" fill="#FF524E"/>
<path d="M429.387 331.459C438.568 330.12 444.692 319.996 443.066 308.848C441.44 297.699 432.678 289.747 423.497 291.087C414.316 292.426 408.192 302.549 409.818 313.698C411.444 324.847 420.206 332.799 429.387 331.459Z" fill="#FF514D"/>
</g>
<path opacity="0.1" d="M560.398 163.498C557.698 159.598 554.698 157.299 551.298 156.099C548.298 156.599 553.198 152.298 550.098 152.898C540.598 154.898 530.698 156.198 521.098 154.698C509.898 152.998 500.098 147.799 490.298 142.599C485.298 139.999 480.298 137.298 475.198 134.998C464.198 130.098 451.198 125.198 438.898 125.398C432.798 125.398 426.898 127.198 421.298 129.398C416.098 131.398 411.798 134.499 408.598 137.599C407.898 138.299 406.498 139.198 405.098 140.198C405.098 144.698 405.598 148.798 406.398 152.498C406.998 152.198 407.498 151.798 407.698 151.698C409.698 150.198 412.298 148.799 415.298 147.599C418.298 146.399 421.598 145.398 425.398 145.198C439.998 144.298 453.398 150.398 466.498 155.998C471.798 158.299 477.298 160.998 482.998 163.498C488.698 166.098 494.698 168.498 500.998 170.498C511.598 173.898 524.498 175.098 535.298 172.299C536.798 171.898 538.198 171.598 539.598 171.198C545.198 169.498 550.098 167.298 554.298 165.198" fill="#FFBC80"/>
<path d="M487.799 232.299C487.799 232.299 476.399 265.799 494.699 287.199L539.799 284.099C539.799 284.099 540.699 266.999 537.599 255.399C535.099 245.999 487.799 232.199 487.799 232.199V232.299Z" fill="url(#paint19_linear_2394_71808)"/>
<path d="M411.498 252.8C408.098 261.3 405.398 283.8 405.398 283.8L447.198 289.5C466.698 268.1 456.298 232.1 456.298 232.1C456.298 232.1 414.898 244.4 411.498 252.9V252.8Z" fill="url(#paint20_linear_2394_71808)"/>
<path d="M518.899 270.3C499.999 268.8 494.699 287.2 494.699 287.2C494.699 287.2 499.799 290.3 518.499 289.7C540.599 288.9 539.799 284.2 539.799 284.2C539.799 284.2 537.799 271.9 518.999 270.4L518.899 270.3Z" fill="white"/>
<path d="M405.399 283.699C405.399 283.699 405.999 287.299 422.599 289.599C442.299 292.199 447.199 289.399 447.199 289.399C447.199 289.399 444.699 278.299 436.799 272.899C428.999 267.399 415.799 267.599 405.299 283.699H405.399Z" fill="white"/>
<path d="M422.599 289.599C429.299 290.499 434.299 290.799 437.999 290.699C440.099 283.699 438.299 276.899 433.899 275.399C429.399 273.999 423.899 278.599 421.599 285.799C421.199 286.999 420.999 288.199 420.799 289.299C421.399 289.299 421.999 289.499 422.599 289.599Z" fill="url(#paint21_linear_2394_71808)"/>
<path d="M518.399 289.699C520.999 289.699 523.199 289.499 525.199 289.299C526.699 282.099 524.899 275.399 520.699 273.899C516.199 272.299 510.699 277.399 508.399 285.399C507.999 286.699 507.799 288.199 507.699 289.699C510.599 289.899 514.199 289.899 518.399 289.699Z" fill="url(#paint22_linear_2394_71808)"/>
<path d="M428.298 266.5C414.498 265.5 404.398 276.4 405.398 283.7C405.398 283.7 411.898 273.8 426.598 274.6C443.898 275.5 447.198 289.4 447.198 289.4C449.998 283.1 447.298 267.9 428.298 266.5Z" fill="#603F37"/>
<path d="M409.799 259.199C427.999 241.499 450.299 252.299 456.599 243.299C459.699 238.899 456.299 231.999 456.299 231.999C410.399 228.999 409.799 259.199 409.799 259.199Z" fill="url(#paint23_linear_2394_71808)"/>
<path d="M487.799 232.299C487.799 232.299 485.699 239.299 488.799 242.599C498.399 253.099 516.799 239.099 537.799 258.399C537.799 258.399 535.799 225.799 487.799 232.299Z" fill="url(#paint24_linear_2394_71808)"/>
<path d="M517.098 266.099C495.898 265.899 491.798 282.199 494.698 287.299C494.698 287.299 501.398 274.599 518.298 274.299C536.698 273.899 539.798 284.199 539.798 284.199C541.698 277.199 538.198 266.299 517.198 266.099H517.098Z" fill="#603F37"/>
<path d="M434.998 285.599C434.998 287.999 432.898 290.099 430.598 290.299C428.298 290.499 426.498 288.599 426.598 286.199C426.698 283.799 428.698 281.699 430.998 281.499C433.298 281.299 435.098 283.199 434.998 285.599Z" fill="#1E1D1D"/>
<path d="M521.498 285.199C521.498 287.599 519.398 289.399 517.098 289.499C514.798 289.599 512.998 288.199 513.098 285.699C513.098 283.299 515.198 281.199 517.498 280.999C519.798 280.799 521.598 282.699 521.498 285.099V285.199Z" fill="#1E1D1D"/>
<path opacity="0.8" d="M427.998 281.099C426.098 281.999 424.798 283.899 425.098 285.199C425.398 286.499 427.098 286.799 428.998 285.899C430.898 284.999 432.198 283.099 431.898 281.799C431.598 280.499 429.898 280.199 427.998 281.099Z" fill="white"/>
<path opacity="0.8" d="M513.898 280C511.898 281.3 510.598 283.5 510.998 285C511.398 286.5 513.398 286.7 515.398 285.5C517.398 284.2 518.698 282 518.298 280.5C517.898 279 515.898 278.8 513.898 280Z" fill="white"/>
<path opacity="0.1" d="M535.998 176.899C525.198 185.299 513.098 190.199 499.898 193.399C499.698 193.399 499.598 193.399 499.498 193.599C508.298 191.399 514.798 189.099 514.798 189.099C516.998 189.099 519.398 189.899 521.698 191.499C527.698 188.699 533.398 185.099 538.498 180.999C540.898 179.099 538.398 174.999 535.898 176.899H535.998Z" fill="black"/>
<path d="M429.899 341.8C429.899 341.8 435.499 384.9 475.099 381.7C517.499 378.3 512.899 336.1 512.899 336.1L429.799 341.8H429.899Z" fill="#FB755C"/>
<path d="M431.999 342.399C431.399 343.299 436.899 376.099 474.399 373.099C512.399 370.099 512.099 338.599 511.599 337.899C510.099 335.499 434.199 339.399 431.999 342.499V342.399Z" fill="url(#paint25_linear_2394_71808)"/>
<path d="M438.498 341.4C438.498 341.4 438.998 347.3 443.098 351.2C452.298 359.9 494.698 356.8 501.598 347.7C506.098 341.7 505.698 337.1 505.698 337.1L438.598 341.4H438.498Z" fill="#F7F0F0"/>
<path opacity="0.3" d="M505.598 337L438.498 341.3C438.498 341.3 438.898 346.7 442.598 350.6C444.798 345.8 455.298 352.3 471.498 351.3C488.798 350.2 494.098 345.4 497.798 345.8C500.098 346.1 500.198 347.3 499.798 349.3C500.498 348.8 501.098 348.2 501.598 347.6C506.098 341.6 505.698 337 505.698 337H505.598Z" fill="#C1BAB0"/>
<path opacity="0.1" d="M484.898 393.299C478.698 394.899 473.798 395.099 470.698 394.799C467.598 394.599 465.198 397.299 465.898 400.299C466.598 403.499 469.698 406.399 478.898 405.299C487.898 404.199 490.398 400.799 490.598 397.799C490.798 394.799 487.798 392.499 484.898 393.299Z" fill="black"/>
<path d="M460.799 296.099C460.799 296.099 444.299 293.099 440.399 307.499C435.499 325.799 471.899 336.399 481.699 317.299C491.599 298.199 465.299 262.799 465.299 262.799C465.299 262.799 471.599 281.199 460.699 296.199L460.799 296.099Z" fill="#FF9E78"/>
<path d="M439.998 312.6C442.198 327.6 472.798 334.5 481.698 317.3C482.198 316.2 482.698 315.1 482.998 314C468.698 317.1 453.798 316.4 439.998 312.6Z" fill="url(#paint26_linear_2394_71808)"/>
<path opacity="0.2" d="M471.198 281.799H467.098C467.098 281.699 464.998 294.899 460.998 296.699C460.398 296.699 459.698 296.599 459.098 296.599C451.998 296.399 446.098 298.699 445.998 301.799C445.998 304.899 451.598 307.399 458.798 307.599C465.498 307.799 471.298 306.599 472.098 302.999C472.098 302.999 475.198 289.199 471.198 281.799Z" fill="white"/>
<path opacity="0.4" d="M431.398 294.599C427.498 294.599 423.698 293.799 419.798 293.699C417.698 293.699 417.098 296.699 418.898 297.599C422.898 299.699 427.798 299.499 432.098 298.799C434.498 298.399 433.698 294.499 431.398 294.599Z" fill="#ED6954"/>
<path opacity="0.4" d="M525.098 293.3C521.098 293.8 517.298 294.4 513.298 294.4C510.898 294.4 510.298 298.5 512.798 298.8C517.098 299.3 521.698 299.2 525.798 297.6C527.998 296.8 527.698 292.9 525.098 293.3Z" fill="#ED6954"/>
<path d="M690.398 623.199L685.098 621.199C671.898 620.799 641.198 620.599 625.898 626.899L627.298 642.399C628.298 642.799 683.698 638.699 692.898 636.899C691.598 628.899 690.398 623.099 690.398 623.099V623.199Z" fill="url(#paint27_linear_2394_71808)"/>
<path d="M692.5 662.5C691.5 668.6 698.4 673.528 685.131 687.4C695 676.728 630.431 697.3 628.931 695.8C627.331 694.2 619.931 637.9 619.931 637.9C634.331 631.4 670.331 631.8 678.531 632L676.131 631.1C676.131 631.1 675.431 628.2 674.231 623.3C637.731 615.9 613.031 627.4 613.031 627.4L594.031 523.1L588.531 524.8C588.531 524.8 622.631 790.5 620.031 792.4C617.431 794.3 509.231 803.1 501.331 802.7C493.531 802.3 376.231 790 374.431 786.2C372.731 782.4 368.331 522 368.331 522H362.131L351.5 546.5L302.431 661.3C302.431 661.3 266.931 695 240.531 684.6C216.431 675.1 224.031 600.9 225.631 587.6C217.031 603.3 211.531 616.5 212.031 623.9C212.331 629.3 219.231 686.2 222.631 690.1C226.931 695.1 248.831 716 259.931 713.7C295.031 706.3 351.5 580 351.5 580C351.5 580 352.3 837 356 845.5C359.7 854 630.731 828.4 634.331 822.3C638.031 816.2 643.131 716 643.131 716C643.131 716 682.831 705.1 690.031 697.5C704.5 682.228 703.7 669.128 690.231 668.1L692.5 662.5Z" fill="url(#paint28_linear_2394_71808)"/>
<path d="M531.23 819L508.863 851H534.272L555.028 819H531.23Z" fill="#3D4041"/>
<path d="M356.347 817.772C356.347 817.772 353.377 834.386 354.119 851H585.01L586 812L356.43 817.694L356.347 817.772Z" fill="#363C42"/>
<path d="M584.443 844.002L528.646 851H589.1C588.563 846.309 587.219 843.925 584.443 844.002Z" fill="#363C42"/>
<path d="M395.648 433.56V481H557.224V428.816C508.805 416.295 442.552 416.45 395.648 433.56Z" fill="#D78C74"/>
<path d="M538.31 443.338C524.109 453.927 498.386 456.885 470.878 457.274C436.134 457.742 420.415 451.202 414.252 428C402.73 429.713 373.435 437.888 357.18 446.919V851H575.912V457.352C563.586 452.214 550.993 447.776 538.31 443.338Z" fill="#DFE5EA"/>
<path d="M452.805 468.282C451.284 461.975 429.357 443.598 424.703 426C403.85 426 380.3 431.176 367.502 442C340.295 465.204 355.999 597.5 355.999 597.5C355.999 597.5 357.002 693 355.002 851L427.002 857.5C422.975 725.748 450.657 486.737 452.716 468.282H452.805Z" fill="#6D7DB3"/>
<path d="M622.207 502.515C622.207 494.487 623.906 439.537 562.744 428.469C558.542 427.456 539.138 423.013 534.667 422C530.643 442.889 520.897 438.758 492.194 466.428C489.601 489.343 468.034 674.067 470.002 857L648.499 851C648.499 835.5 650.646 803.703 648.499 750C631.499 670 622.028 558.323 622.207 502.593V502.515Z" fill="#6D7DB3"/>
<path d="M407.755 706.679C413.773 595.044 433.534 464.063 436.319 446.276C435.69 445.496 435.151 444.794 434.612 444.014L426.348 443C426.169 444.404 403.892 586.385 397.425 706.211C394.191 767.06 394.191 816.753 395 851H405.419C404.611 816.909 404.521 767.45 407.845 706.679H407.755Z" fill="#7588BC"/>
<path d="M505.93 707.532C506.283 582.523 523.064 448.947 523.153 447.623L516.97 447C515.557 448.013 514.144 449.103 512.554 450.271C509.905 472.625 495.95 593.505 495.685 707.532C495.508 768.128 497.451 816.652 499.571 851H509.816C507.697 816.808 505.754 768.284 505.93 707.532Z" fill="#7588BC"/>
<path d="M339.282 508.549L334.096 518L424.227 504.831L422.528 496L339.282 508.549Z" fill="#7588BC"/>
<path d="M432.865 408C432.865 408 426.425 411.046 412.205 427.991C397.985 444.937 410.953 480 410.953 480C410.953 480 413.099 471.722 417.839 457.822C424.815 437.44 452.72 467.74 452.72 467.74C452.72 467.74 454.24 453.371 444.581 444.625C428.572 430.1 432.865 408 432.865 408Z" fill="#7588BC"/>
<path opacity="0.1" d="M444.596 444.736C428.62 430.167 432.904 408 432.904 408C432.904 408 432.458 408.235 431.654 408.783C423.889 422.648 422.194 436.668 426.656 451.003C437.456 451.316 452.718 468 452.718 468C452.718 468 454.235 453.587 444.596 444.815V444.736Z" fill="white"/>
<path d="M426.975 625C423.036 625 419.83 627.471 419.83 630.5C419.83 633.529 423.036 636 426.975 636C430.913 636 434.119 633.529 434.119 630.5C434.119 627.471 430.913 625 426.975 625Z" fill="#B0B5C1"/>
<path d="M434.122 552C430.487 552 427.527 554.471 427.527 557.5C427.527 560.529 430.487 563 434.122 563C437.758 563 440.717 560.529 440.717 557.5C440.717 554.471 437.758 552 434.122 552Z" fill="#B0B5C1"/>
<path d="M419.281 700C415.343 700 412.137 702.471 412.137 705.5C412.137 708.529 415.343 711 419.281 711C423.22 711 426.426 708.529 426.426 705.5C426.426 702.471 423.22 700 419.281 700Z" fill="#B0B5C1"/>
<path d="M416.534 763C412.899 763 409.939 765.471 409.939 768.5C409.939 771.529 412.899 774 416.534 774C420.17 774 423.129 771.529 423.129 768.5C423.129 765.471 420.17 763 416.534 763Z" fill="#B0B5C1"/>
<path d="M416.534 829C412.899 829 409.939 831.246 409.939 834C409.939 836.754 412.899 839 416.534 839C420.17 839 423.129 836.754 423.129 834C423.129 831.246 420.17 829 416.534 829Z" fill="#B0B5C1"/>
<path d="M440.164 488C436.225 488 433.02 490.471 433.02 493.5C433.02 496.529 436.225 499 440.164 499C444.103 499 447.309 496.529 447.309 493.5C447.309 490.471 444.103 488 440.164 488Z" fill="#B0B5C1"/>
<path d="M522.724 412C522.724 412 523.535 417.88 514.884 434.667C509.117 445.729 492.357 451.841 491.275 468.241C491.275 468.241 530.113 437.839 537.142 458.03C541.917 471.8 544.08 480 544.08 480C544.08 480 557.146 445.265 542.818 428.478C528.491 411.691 522.724 412 522.724 412Z" fill="#7588BC"/>
<path opacity="0.1" d="M522.854 412C522.854 412 523.64 417.854 515.256 434.569C509.667 445.585 493.423 451.67 492.375 468C492.375 468 509.318 454.443 522.505 451.516C528.094 438.806 530.103 423.862 522.941 412H522.854Z" fill="white"/>
<path d="M323.962 530.119C322.018 553.826 321.311 581.808 320.339 613.677C320.162 619.507 319.985 624.948 319.809 630C332.093 491.255 360.925 447.838 371 437.5C360.925 439.91 360.107 440.498 354.716 443.141C346.056 457.987 332.8 489.467 323.874 530.119H323.962Z" fill="#7588BC"/>
<path d="M522.14 575V626.973C522.14 631.908 524.917 636.612 529.663 639.465L542.291 647.099C549.098 651.186 558.144 650.955 564.592 646.405L583.131 633.373C588.505 629.595 591.55 623.811 591.281 617.874L589.58 575H522.051H522.14Z" fill="#7588BC"/>
<path d="M561.804 428L563.597 518.278C578.026 542.977 615.038 605.116 624.09 656C630.939 694.5 634.5 723.5 675 694.5C683.5 689 690.5 683.5 700.09 672.5C653.59 416 564.493 432.612 561.715 428H561.804Z" fill="#6D7DB3"/>
<path d="M570.446 430.653C562.469 427.622 555.029 427 555.029 427C564.889 435.473 583.532 459.337 588.91 485.223C594.915 514.14 601.637 572.752 605.223 604.934C609.435 614.573 612.841 616.205 616.068 626H617.502C617.502 624.057 617.592 622.191 617.681 620.325C615.53 599.259 607.284 522.38 599.217 483.513C593.66 456.928 581.291 440.37 570.446 430.576V430.653Z" fill="#7588BC"/>
<path d="M511.059 503.613L594.225 520L597.892 511.006L513.115 495L511.059 503.613Z" fill="#7588BC"/>
<path d="M300.198 378.599C300.198 378.599 306.798 365.999 304.298 352.999C301.798 339.999 284.198 322.599 289.898 305.399C295.598 288.199 310.498 284.599 315.498 294.399C320.498 304.199 329.498 344.099 338.398 356.399C347.298 368.799 347.298 377.499 347.298 377.499C347.298 377.499 357.698 378.299 365.798 387.699C373.898 397.099 365.798 416.099 365.798 416.099C365.798 416.099 373.498 424.599 371.398 437.399C369.298 450.099 363.498 453.199 363.498 453.199C363.498 453.199 367.898 465.699 363.298 473.399C358.698 481.099 356.798 482.199 356.798 482.199C356.798 482.199 362.098 486.799 360.698 496.399C359.298 505.999 347.898 514.999 347.898 514.999C347.898 514.999 327.698 587.399 324.998 612.299C322.298 637.299 291.598 691.499 259.398 690.899C227.198 690.299 224.298 608.899 226.598 593.399C228.898 577.899 280.798 510.199 280.798 510.199C280.798 510.199 275.598 502.899 274.198 494.999C272.798 487.099 271.898 482.699 267.298 473.299C262.698 463.899 269.598 451.599 269.198 446.999C268.698 442.299 263.898 435.299 266.998 427.199C270.098 419.099 274.798 415.999 275.098 412.899C275.398 409.799 269.998 395.599 278.798 388.599C287.598 381.599 300.098 378.599 300.098 378.599H300.198Z" fill="#FF9E78"/>
<path d="M371.598 437.299C373.698 424.599 365.998 415.999 365.998 415.999C365.998 415.999 374.098 396.999 365.998 387.599C357.898 378.199 347.498 377.399 347.498 377.399C347.498 377.399 347.498 368.699 338.598 356.299C329.698 343.899 320.698 304.099 315.698 294.299C310.698 284.499 295.798 288.099 290.098 305.299C284.398 322.499 301.998 339.899 304.498 352.899C306.998 365.899 300.398 378.499 300.398 378.499C300.398 378.499 287.998 381.499 279.098 388.499C270.198 395.499 275.698 409.699 275.398 412.799C275.098 415.899 270.398 418.999 267.298 427.099C264.198 435.199 268.998 442.199 269.498 446.899C269.998 451.599 263.098 463.899 267.598 473.199C272.098 482.499 273.098 486.899 274.498 494.899C275.898 502.799 281.098 510.099 281.098 510.099C281.098 510.099 229.298 577.699 226.898 593.299C224.498 608.899 227.498 690.199 259.698 690.799C291.898 691.399 322.598 637.199 325.298 612.199C327.998 587.199 348.198 514.899 348.198 514.899C348.198 514.899 359.698 505.999 360.998 496.299C362.398 486.699 357.098 482.099 357.098 482.099C357.098 482.099 358.998 481.099 363.598 473.299C368.198 465.599 363.798 453.099 363.798 453.099C363.798 453.099 369.598 449.999 371.698 437.299H371.598ZM304.698 447.899V452.399C304.798 452.399 357.098 453.099 360.798 454.799C364.498 456.499 364.698 474.499 354.998 479.899C345.298 485.299 303.598 482.099 303.598 482.099V486.299C303.698 486.299 341.698 488.799 354.998 484.299C354.998 484.299 361.198 490.099 357.198 499.399C353.298 508.699 345.198 517.899 315.298 516.599C285.298 515.299 278.598 504.899 276.798 497.499C274.998 490.099 272.698 478.099 269.598 471.599C266.498 465.099 272.798 451.499 271.598 446.199C270.398 440.899 266.098 436.599 269.898 427.699C273.698 418.799 277.898 416.899 277.998 411.299C277.998 405.699 274.898 394.399 279.198 390.899C285.598 385.699 312.298 377.499 336.298 379.299C360.298 381.099 364.498 388.999 366.998 394.799C369.498 400.499 363.998 413.999 363.998 413.999C363.998 413.999 325.698 409.299 304.698 411.799V416.499C304.698 416.499 355.998 415.999 363.698 419.699C371.498 423.399 370.898 442.799 363.598 449.699C363.598 449.699 326.598 445.999 304.698 447.899Z" fill="url(#paint29_linear_2394_71808)"/>
<path d="M305.199 411.9V416.6C305.199 416.6 323.799 416.4 340.199 417.1V411.9C328.499 411.1 314.999 410.7 305.199 411.9Z" fill="#F48F71"/>
<path d="M304.798 452.399C304.798 452.399 324.198 452.699 340.198 453.199V447.999C328.598 447.399 314.998 446.999 304.598 447.899V452.399H304.798Z" fill="#F48F71"/>
<path d="M303.698 486.3C303.698 486.3 324.098 487.6 340.198 486.6V482.7C324.498 483.7 303.598 482.1 303.598 482.1V486.3H303.698Z" fill="#F48F71"/>
<path opacity="0.7" d="M315.998 524.399C328.698 524.399 340.298 521.899 346.598 520.099C347.498 516.799 347.998 514.899 347.998 514.899C347.998 514.899 348.298 514.699 348.798 514.199C341.198 516.499 302.598 527.099 279.898 508.299C280.598 509.499 280.998 510.099 280.998 510.099C280.998 510.099 280.098 511.299 278.498 513.399C289.598 521.699 303.398 524.299 316.098 524.299L315.998 524.399Z" fill="#E5816A"/>
<path d="M291.798 305C289.998 311 291.298 324.4 297.998 334.1C304.698 343.8 306.898 346.9 307.098 358.9C307.298 370.9 304.598 375.8 305.398 376.2C306.298 376.6 327.498 376.6 330.798 371.1C334.098 365.6 322.798 331.3 321.498 324.2C320.198 317.1 317.898 294.7 312.698 291.7C307.498 288.7 295.898 290.8 291.598 305H291.798Z" fill="#FF9E78"/>
<path d="M315.598 294.399C310.598 284.599 295.698 288.199 289.998 305.399C286.498 315.899 291.798 326.599 296.998 336.199C298.498 337.799 300.198 339.199 302.098 339.999C314.298 345.199 321.598 333.499 321.198 332.599C320.898 331.799 318.598 312.199 318.698 302.199C317.598 298.899 316.598 296.199 315.698 294.399H315.598Z" fill="url(#paint30_linear_2394_71808)"/>
<path d="M281.399 391.5C281.399 391.5 276.499 401.3 279.499 408.1C282.499 414.9 271.199 419.8 271.899 432.3C272.699 444.8 275.499 445.7 274.399 448.8C273.299 451.8 269.199 462 271.899 469.2C274.599 476.4 278.399 480.2 278.399 480.2C278.399 480.2 275.999 493 282.299 503.5C288.599 514 335.799 517.9 347.399 508.4C358.999 498.9 352.299 486.7 352.299 486.7C352.299 486.7 316.599 490.6 301.799 487V479.8C301.699 479.8 346.299 483.6 353.699 478.3C361.099 472.9 359.799 456.5 359.799 456.5L302.399 452.6L302.699 445C302.699 445 358.699 447.1 362.899 448C367.099 448.9 371.499 424.6 364.099 422C356.699 419.4 302.299 417.5 302.299 417.5L302.699 410.4C302.699 410.4 343.299 408.5 362.099 412.3C362.099 412.3 370.399 401.5 364.499 393.3C358.599 385.1 336.999 378.1 312.099 382.1C287.199 386.1 281.399 391.5 281.399 391.5Z" fill="url(#paint31_linear_2394_71808)"/>
<path d="M277.299 518.6C277.299 518.6 234.499 575.6 232.299 588.9C230.099 602.3 233.099 666.7 246.299 673.6C259.499 680.5 295.399 628.4 298.999 615.6C302.599 602.8 311.799 530.3 311.799 530.3C311.799 530.3 286.899 525.6 277.299 518.5V518.6Z" fill="url(#paint32_linear_2394_71808)"/>
<path d="M576.876 179.542C580.385 173.026 556.305 153.247 523.092 135.364C489.88 117.48 460.111 108.266 456.603 114.782C453.094 121.298 477.174 141.077 510.387 158.96C543.599 176.843 573.367 186.058 576.876 179.542Z" fill="#0C4266"/>
<path d="M577.101 180.699C573.601 187.199 543.801 177.999 510.701 160.099C477.501 142.199 453.501 121.199 457.001 114.699C457.701 113.499 459.301 113.099 461.501 113.899C463.701 114.699 486.001 134.399 513.001 148.999C542.001 164.699 574.501 169.399 577.201 177.799C579.901 186.199 577.601 179.999 577.201 180.799L577.101 180.699Z" fill="#092E4C"/>
<defs>
<linearGradient id="paint0_linear_2394_71808" x1="719.4" y1="925.339" x2="677" y2="949.639" gradientUnits="userSpaceOnUse">
<stop stop-color="#DB7D67"/>
<stop offset="1" stop-color="#FF9E78"/>
</linearGradient>
<linearGradient id="paint1_linear_2394_71808" x1="611.541" y1="457.375" x2="609.004" y2="483.251" gradientUnits="userSpaceOnUse">
<stop stop-color="#DB7D67"/>
<stop offset="1" stop-color="#FF9E78"/>
</linearGradient>
<linearGradient id="paint2_linear_2394_71808" x1="453.198" y1="1573" x2="453.198" y2="1490.9" gradientUnits="userSpaceOnUse">
<stop stop-color="white"/>
<stop offset="1" stop-color="#A5B7C6"/>
</linearGradient>
<linearGradient id="paint3_linear_2394_71808" x1="688.699" y1="1134.1" x2="673.499" y2="959.999" gradientUnits="userSpaceOnUse">
<stop stop-color="#3D434F"/>
<stop offset="1" stop-color="#333844"/>
</linearGradient>
<linearGradient id="paint4_linear_2394_71808" x1="276.198" y1="1491.6" x2="276.698" y2="1518.7" gradientUnits="userSpaceOnUse">
<stop stop-color="#5B5B60"/>
<stop offset="1" stop-color="#2C2C2D"/>
</linearGradient>
<linearGradient id="paint5_linear_2394_71808" x1="625.498" y1="1491.6" x2="625.998" y2="1518.8" gradientUnits="userSpaceOnUse">
<stop stop-color="#5B5B60"/>
<stop offset="1" stop-color="#2C2C2D"/>
</linearGradient>
<linearGradient id="paint6_linear_2394_71808" x1="446.199" y1="1066.7" x2="463.376" y2="908.516" gradientUnits="userSpaceOnUse">
<stop stop-color="#3D434F"/>
<stop offset="1" stop-color="#333844"/>
</linearGradient>
<linearGradient id="paint7_linear_2394_71808" x1="450.399" y1="843.699" x2="482.199" y2="843.699" gradientUnits="userSpaceOnUse">
<stop stop-color="#5F6163"/>
<stop offset="1" stop-color="#444749"/>
</linearGradient>
<linearGradient id="paint8_linear_2394_71808" x1="467.898" y1="842.8" x2="481.998" y2="842.8" gradientUnits="userSpaceOnUse">
<stop stop-color="#5F6163"/>
<stop offset="1" stop-color="#444749"/>
</linearGradient>
<linearGradient id="paint9_linear_2394_71808" x1="457.598" y1="575.699" x2="457.598" y2="834.399" gradientUnits="userSpaceOnUse">
<stop stop-color="#B3CBE2"/>
<stop offset="1" stop-color="#CADBEF"/>
</linearGradient>
<linearGradient id="paint10_linear_2394_71808" x1="517.099" y1="441.4" x2="520.299" y2="474.8" gradientUnits="userSpaceOnUse">
<stop stop-color="#B3CBE2"/>
<stop offset="1" stop-color="#CADBEF"/>
</linearGradient>
<linearGradient id="paint11_linear_2394_71808" x1="495.398" y1="707.899" x2="495.398" y2="819.499" gradientUnits="userSpaceOnUse">
<stop stop-color="#B3CBE2"/>
<stop offset="1" stop-color="#CADBEF"/>
</linearGradient>
<linearGradient id="paint12_linear_2394_71808" x1="682.399" y1="987.838" x2="719.999" y2="870.038" gradientUnits="userSpaceOnUse">
<stop stop-color="#F28C70"/>
<stop offset="1" stop-color="#FF9E78"/>
</linearGradient>
<linearGradient id="paint13_linear_2394_71808" x1="600" y1="669.139" x2="668.5" y2="731.439" gradientUnits="userSpaceOnUse">
<stop stop-color="#F28C70"/>
<stop offset="1" stop-color="#FF9E78"/>
</linearGradient>
<linearGradient id="paint14_linear_2394_71808" x1="367.927" y1="313.469" x2="407.526" y2="313.262" gradientUnits="userSpaceOnUse">
<stop stop-color="#F28C70"/>
<stop offset="1" stop-color="#FF9E78"/>
</linearGradient>
<linearGradient id="paint15_linear_2394_71808" x1="473.986" y1="190.713" x2="474.147" y2="221.512" gradientUnits="userSpaceOnUse">
<stop stop-color="#C6664F"/>
<stop offset="1" stop-color="#FF9E78"/>
</linearGradient>
<linearGradient id="paint16_linear_2394_71808" x1="555.586" y1="343.387" x2="595.685" y2="343.177" gradientUnits="userSpaceOnUse">
<stop stop-color="#F28C70"/>
<stop offset="1" stop-color="#FF9E78"/>
</linearGradient>
<linearGradient id="paint17_linear_2394_71808" x1="568.103" y1="308.322" x2="588.103" y2="308.217" gradientUnits="userSpaceOnUse">
<stop stop-color="#F28C70"/>
<stop offset="1" stop-color="#FF9E78"/>
</linearGradient>
<linearGradient id="paint18_linear_2394_71808" x1="494.961" y1="125.058" x2="492.2" y2="201.21" gradientUnits="userSpaceOnUse">
<stop stop-color="#75483B"/>
<stop offset="0.4" stop-color="#704438"/>
<stop offset="0.7" stop-color="#623C2F"/>
<stop offset="1" stop-color="#563428"/>
</linearGradient>
<linearGradient id="paint19_linear_2394_71808" x1="513.067" y1="206.108" x2="512.173" y2="283.513" gradientUnits="userSpaceOnUse">
<stop stop-color="#C6664F"/>
<stop offset="1" stop-color="#FF9E78"/>
</linearGradient>
<linearGradient id="paint20_linear_2394_71808" x1="433.257" y1="204.426" x2="432.371" y2="283.632" gradientUnits="userSpaceOnUse">
<stop stop-color="#C6664F"/>
<stop offset="1" stop-color="#FF9E78"/>
</linearGradient>
<linearGradient id="paint21_linear_2394_71808" x1="428.401" y1="292.109" x2="435.755" y2="271.918" gradientUnits="userSpaceOnUse">
<stop stop-color="#704A3E"/>
<stop offset="1"/>
</linearGradient>
<linearGradient id="paint22_linear_2394_71808" x1="516.559" y1="288.132" x2="520.906" y2="275.578" gradientUnits="userSpaceOnUse">
<stop stop-color="#704A3E"/>
<stop offset="1"/>
</linearGradient>
<linearGradient id="paint23_linear_2394_71808" x1="443.444" y1="241.848" x2="442.16" y2="265.724" gradientUnits="userSpaceOnUse">
<stop stop-color="#75483B"/>
<stop offset="0.4" stop-color="#704438"/>
<stop offset="0.7" stop-color="#623C2F"/>
<stop offset="1" stop-color="#563428"/>
</linearGradient>
<linearGradient id="paint24_linear_2394_71808" x1="520.179" y1="245.424" x2="519.032" y2="267.803" gradientUnits="userSpaceOnUse">
<stop stop-color="#75483B"/>
<stop offset="0.4" stop-color="#704438"/>
<stop offset="0.7" stop-color="#623C2F"/>
<stop offset="1" stop-color="#563428"/>
</linearGradient>
<linearGradient id="paint25_linear_2394_71808" x1="473.668" y1="370.962" x2="473.028" y2="359.569" gradientUnits="userSpaceOnUse">
<stop stop-color="#7C302A"/>
<stop offset="0.2" stop-color="#772E28"/>
<stop offset="0.4" stop-color="#692A26"/>
<stop offset="0.7" stop-color="#522421"/>
<stop offset="1" stop-color="#2D1A19"/>
</linearGradient>
<linearGradient id="paint26_linear_2394_71808" x1="461.898" y1="326.878" x2="461.826" y2="313.178" gradientUnits="userSpaceOnUse">
<stop stop-color="#F28C70"/>
<stop offset="1" stop-color="#FF9E78"/>
</linearGradient>
<linearGradient id="paint27_linear_2394_71808" x1="658.598" y1="618.499" x2="659.798" y2="638.999" gradientUnits="userSpaceOnUse">
<stop stop-color="#DEEFFF"/>
<stop offset="1" stop-color="#CADBEF"/>
</linearGradient>
<linearGradient id="paint28_linear_2394_71808" x1="451.631" y1="586.5" x2="451.631" y2="845.2" gradientUnits="userSpaceOnUse">
<stop stop-color="#B6BDCE"/>
<stop offset="1" stop-color="#CADBEF"/>
</linearGradient>
<linearGradient id="paint29_linear_2394_71808" x1="352.798" y1="489.399" x2="286.598" y2="489.899" gradientUnits="userSpaceOnUse">
<stop stop-color="#F28C70"/>
<stop offset="1" stop-color="#FF9E78"/>
</linearGradient>
<linearGradient id="paint30_linear_2394_71808" x1="293.698" y1="296.699" x2="309.998" y2="320.699" gradientUnits="userSpaceOnUse">
<stop stop-color="#FFB9A4"/>
<stop offset="1" stop-color="#FF9E78"/>
</linearGradient>
<linearGradient id="paint31_linear_2394_71808" x1="247.399" y1="447.3" x2="333.899" y2="447.3" gradientUnits="userSpaceOnUse">
<stop stop-color="#FFB9A4"/>
<stop offset="1" stop-color="#FF9E78"/>
</linearGradient>
<linearGradient id="paint32_linear_2394_71808" x1="204.299" y1="569.8" x2="283.999" y2="604.2" gradientUnits="userSpaceOnUse">
<stop stop-color="#FFB9A4"/>
<stop offset="1" stop-color="#FF9E78"/>
</linearGradient>
</defs>
</svg>
