<svg width="369" height="363" viewBox="0 0 369 363" fill="none" xmlns="http://www.w3.org/2000/svg">
<path d="M165 134C162.183 133.541 162.687 130.414 159.35 130.23L158.676 110.116C158.523 103.962 151.663 99.4315 143.212 100.013C135.127 100.595 128.482 106.075 128.635 112.228L129.248 132.342C125.604 133.077 122.297 133.904 119.234 134.975L120.459 153.344L169.822 150.681L168 134.975L165 134Z" fill="url(#paint0_linear_3920_114101)"/>
<path d="M199.037 147.721C211.253 160.87 236.268 203.663 236.268 203.663L231.643 213.652C231.643 213.652 219.601 229.987 190.428 184.891C165.472 146.329 165.21 133.475 165.21 133.475C165.21 133.475 186.821 134.519 199.037 147.694V147.721Z" fill="#6D7DB3"/>
<path d="M216.751 170.03C219.264 169.681 229.872 180.64 229.872 180.64C229.872 180.64 238.171 181.792 238.96 198.539C240.217 225.039 211.257 219.6 205.675 206.363C200.094 193.153 214.238 170.378 216.751 170.03Z" fill="#B6BDCE"/>
<path d="M124.747 137.915C129.42 141.554 137.883 142.57 146.934 142.704C158.366 142.865 163.538 140.617 165.565 132.645C169.356 133.233 178.995 136.042 184.344 139.146V278H112.375V142.731C116.431 140.965 120.574 139.44 124.747 137.915Z" fill="#DFE5EA"/>
<path d="M152.457 146.358C152.953 144.189 160.087 137.868 161.602 131.814C168.387 131.814 181.928 136.903 186.092 140.626C194.945 148.608 195.062 168.16 195.906 196.578C196.78 226.2 196.809 224.245 200.74 278H160.058C161.369 232.682 153.156 152.706 152.487 146.358H152.457Z" fill="#6D7DB3"/>
<path d="M97.7281 158.575C97.7281 155.823 97.1728 136.992 117.164 133.199C118.537 132.852 124.88 131.33 126.341 130.982C127.656 138.141 130.842 136.725 140.224 146.208C141.071 154.061 147.589 215.309 146.946 277.999H95.9745C96.8513 269.905 98.4588 259.221 99.1602 240.817C100.271 211.222 97.7866 177.7 97.7281 158.601V158.575Z" fill="#6D7DB3"/>
<path d="M167.268 228.64C165.299 190.46 158.834 145.663 157.923 139.58C158.129 139.313 158.305 139.073 158.481 138.806L161.185 138.459C161.244 138.939 168.532 187.498 170.648 228.48C171.705 249.291 171.705 266.287 171.441 278H168.032C168.297 266.34 168.326 249.425 167.239 228.64H167.268Z" fill="#7588BC"/>
<path d="M135.393 228.743C135.276 185.822 129.712 139.96 129.683 139.505L131.733 139.291C132.201 139.639 132.67 140.013 133.197 140.414C134.075 148.089 138.701 189.593 138.789 228.743C138.848 249.548 138.204 266.208 137.501 278.001H134.104C134.807 266.262 135.451 249.601 135.393 228.743Z" fill="#7588BC"/>
<path d="M189.899 160.64L191.629 164.208L161.566 159.236L162.133 155.902L189.899 160.64Z" fill="#7588BC"/>
<path d="M158.989 126C158.989 126 161.099 127.054 165.758 132.919C170.418 138.783 166.169 150.918 166.169 150.918C166.169 150.918 165.465 148.053 163.912 143.243C161.626 136.189 152.483 146.675 152.483 146.675C152.483 146.675 151.985 141.702 155.15 138.675C160.396 133.648 158.989 126 158.989 126Z" fill="#7588BC"/>
<path opacity="0.1" d="M155.075 138.714C160.168 133.672 158.802 126 158.802 126C158.802 126 158.945 126.081 159.201 126.271C161.676 131.069 162.216 135.922 160.794 140.883C157.351 140.991 152.486 146.765 152.486 146.765C152.486 146.765 152.002 141.777 155.075 138.741V138.714Z" fill="white"/>
<path d="M161.109 200.754C162.365 200.754 163.387 201.5 163.387 202.415C163.387 203.33 162.365 204.076 161.109 204.076C159.854 204.076 158.832 203.33 158.832 202.415C158.832 201.5 159.854 200.754 161.109 200.754Z" fill="#B0B5C1"/>
<path d="M159.291 175.836C160.546 175.836 161.568 176.582 161.568 177.497C161.568 178.412 160.546 179.158 159.291 179.158C158.035 179.158 157.013 178.412 157.013 177.497C157.013 176.582 158.035 175.836 159.291 175.836Z" fill="#B0B5C1"/>
<path d="M163.842 226.502C165.097 226.502 166.119 227.248 166.119 228.163C166.119 229.078 165.097 229.824 163.842 229.824C162.586 229.824 161.564 229.078 161.564 228.163C161.564 227.248 162.586 226.502 163.842 226.502Z" fill="#B0B5C1"/>
<path d="M164.754 248.098C166.009 248.098 167.031 248.844 167.031 249.759C167.031 250.674 166.009 251.42 164.754 251.42C163.498 251.42 162.476 250.674 162.476 249.759C162.476 248.844 163.498 248.098 164.754 248.098Z" fill="#B0B5C1"/>
<path d="M164.754 270.525C166.009 270.525 167.031 271.272 167.031 272.187C167.031 273.101 166.009 273.848 164.754 273.848C163.498 273.848 162.476 273.101 162.476 272.187C162.476 271.272 163.498 270.525 164.754 270.525Z" fill="#B0B5C1"/>
<path d="M156.557 153.408C157.812 153.408 158.834 154.155 158.834 155.069C158.834 155.984 157.812 156.731 156.557 156.731C155.301 156.731 154.279 155.984 154.279 155.069C154.279 154.155 155.301 153.408 156.557 153.408Z" fill="#B0B5C1"/>
<path d="M129.867 126.83C129.867 126.83 129.614 128.913 132.319 134.859C134.123 138.778 139.365 140.943 139.703 146.752C139.703 146.752 127.556 135.983 125.358 143.135C123.864 148.013 123.188 150.918 123.188 150.918C123.188 150.918 119.101 138.614 123.583 132.667C128.064 126.721 129.867 126.83 129.867 126.83Z" fill="#7588BC"/>
<path opacity="0.1" d="M129.441 126.83C129.441 126.83 129.176 128.914 131.999 134.864C133.881 138.785 139.35 140.951 139.703 146.765C139.703 146.765 133.998 141.939 129.558 140.897C127.676 136.372 127 131.053 129.411 126.83H129.441Z" fill="white"/>
<path d="M194.821 168.027C195.459 176.189 195.691 185.823 196.01 196.795C196.068 198.802 196.126 200.675 196.184 202.415C192.154 154.646 182.18 139.526 178.875 135.967C182.18 136.796 182.963 137.171 184.731 138.081C187.573 143.192 191.922 154.031 194.85 168.027H194.821Z" fill="#7588BC"/>
<path d="M191.614 199.499C191.76 201.332 190.799 203.109 189.109 204.066L184.273 206.829C182.933 207.594 181.243 207.594 179.903 206.801L173.611 203.055C172.27 202.261 171.396 200.894 171.28 199.39L169.765 180.82H190.129L191.585 199.499H191.614Z" fill="#7588BC"/>
<path d="M129.652 183.311V201.154C129.652 202.848 128.739 204.463 127.178 205.442L123.025 208.063C120.786 209.466 117.811 209.387 115.69 207.825L109.593 203.351C107.825 202.054 106.824 200.068 106.912 198.03L107.472 183.311H129.682H129.652Z" fill="#7588BC"/>
<path d="M116.901 132.645L116.322 163.559C111.661 172.017 99.7065 193.296 96.7829 210.721C92.0647 209.811 87.2885 209.142 82.4544 208.74C77.8519 208.366 73.2494 208.232 68.647 208.232C76.4915 131.654 116.032 134.224 116.93 132.645H116.901Z" fill="#6D7DB3"/>
<path d="M113.82 133.895C116.372 132.857 118.752 132.645 118.752 132.645C115.598 135.544 109.634 143.712 107.914 152.572C105.993 162.469 103.842 182.529 102.696 193.544C101.348 196.843 100.258 197.402 99.2262 200.754H98.7674C98.7674 200.089 98.7387 199.45 98.7101 198.812C99.3982 191.602 102.036 165.289 104.617 151.986C106.394 142.888 110.351 137.221 113.82 133.868V133.895Z" fill="#7588BC"/>
<path d="M95.8688 210.248C96.3469 212.794 95.4623 217.437 94.1235 223.166C92.9998 228.072 90.1546 230 90.1546 230C82.9821 224.645 67.2025 225.151 67.2025 225.151C65.505 224.739 65.0269 223.204 65.0269 223.204C64.7161 219.759 67.2025 205.642 67.2025 205.642C70.7649 201.336 95.1276 206.429 95.8688 210.267V210.248Z" fill="#B6BDCE"/>
<path d="M133.326 158.764L106.278 164.208L105.085 161.22L132.657 155.902L133.326 158.764Z" fill="#7588BC"/>
<path d="M274 220.453H24V292.979H274V220.453Z" fill="white"/>
<path d="M180.359 220.392C173.653 223.913 167.865 226.821 165.875 228.046C162.445 230.036 150.533 237.108 146.276 242.22C141.285 248.221 143.214 252.078 143.214 252.078C143.214 252.078 139.938 259.548 139.019 264.783C138.1 269.988 136.171 290.285 138.223 292.551C140.275 294.816 143.429 294.265 144.225 292C145.021 289.734 146.583 274.335 146.828 272.896C146.828 272.896 147.073 277.825 150.809 277.488C154.544 277.182 155.524 273.815 155.524 273.815C155.524 273.815 157.515 275.07 159.934 274.427C162.353 273.815 163.854 271.427 163.854 271.427C163.854 271.427 165.599 273.478 170.07 271.672C174.541 269.865 177.266 251.16 177.909 250.333C179.073 248.864 183.023 246.874 183.85 246.476C183.911 246.476 183.972 246.414 184.003 246.384C187.004 244.516 220.26 229.852 230.855 220.361H180.267L180.359 220.392Z" fill="url(#paint1_linear_3920_114101)"/>
<path d="M162.933 221.924C162.933 221.924 147.377 230.619 142.386 236.62C137.394 242.62 139.324 246.478 139.324 246.478C139.324 246.478 136.047 253.948 135.128 259.183C134.21 264.387 132.281 284.685 134.332 286.95C136.384 289.216 139.538 288.665 140.334 286.369C141.13 284.103 142.692 268.704 142.937 267.265C142.937 267.265 143.182 272.194 146.918 271.857C150.654 271.551 151.634 268.183 151.634 268.183C151.634 268.183 153.624 269.439 156.043 268.796C158.463 268.183 159.963 265.795 159.963 265.795C159.963 265.795 161.708 267.847 166.179 266.04C170.65 264.234 173.376 245.528 174.019 244.702C175.335 243.049 180.143 240.783 180.143 240.783L162.872 221.863L162.933 221.924Z" fill="#FF9E78"/>
<path d="M143.489 237.997C143.887 237.354 142.815 237.048 142.325 236.711C137.426 242.65 139.355 246.477 139.355 246.477C139.355 246.477 142.57 239.466 143.489 237.997Z" fill="url(#paint2_linear_3920_114101)"/>
<path d="M166.242 266.071C166.303 266.071 166.364 266.009 166.426 265.979C166.426 265.979 166.487 265.948 166.517 265.918C166.548 265.918 166.579 265.887 166.609 265.856C166.64 265.856 166.701 265.795 166.732 265.764C166.732 265.764 166.762 265.764 166.793 265.734C166.854 265.703 166.885 265.642 166.946 265.611C170.56 262.519 172.795 248.528 173.775 245.375C172.856 248.038 168.293 262.244 165.905 263.04C162.567 264.172 161.22 261.723 160.24 261.846C159.26 261.968 158.617 264.479 156.198 264.999C153.779 265.52 152.462 262.305 151.298 262.581C150.134 262.825 149.859 264.968 146.98 265.06C144.133 265.152 143.03 263.285 142.755 263.438C142.724 263.438 142.693 263.499 142.663 263.591C142.663 263.713 142.632 263.866 142.632 264.05C142.356 267.142 140.58 283.368 139.355 285.94C138.529 287.685 135.099 288.389 134.333 285.786C133.721 283.827 134.823 261.172 134.885 260.805C133.935 267.693 132.619 284.837 134.119 287.195C135.558 289.491 139.57 288.634 140.366 286.368C141.162 284.103 142.724 268.703 142.969 267.265C142.969 267.265 143.122 270.265 144.959 271.428C144.99 271.428 145.051 271.489 145.082 271.52C145.143 271.52 145.174 271.581 145.235 271.612C145.541 271.765 145.909 271.857 146.276 271.887C146.276 271.887 146.276 271.887 146.307 271.887C146.399 271.887 146.46 271.887 146.552 271.887C146.644 271.887 146.766 271.887 146.858 271.887C149.093 271.704 150.349 270.418 150.992 269.408C151.053 269.316 151.084 269.255 151.145 269.163C151.206 269.04 151.298 268.918 151.329 268.795C151.512 268.428 151.574 268.183 151.574 268.183C151.574 268.183 152.217 268.581 153.197 268.795C153.319 268.795 153.411 268.857 153.534 268.857C153.901 268.918 154.268 268.948 154.697 268.948C155.095 268.948 155.524 268.887 155.983 268.765C158.403 268.152 159.903 265.764 159.903 265.764C159.903 265.764 160.515 266.499 161.955 266.713C162.016 266.713 162.108 266.713 162.2 266.713C162.353 266.713 162.537 266.713 162.72 266.713C163.608 266.713 164.741 266.53 166.15 265.979L166.242 266.071Z" fill="url(#paint3_linear_3920_114101)"/>
<path d="M161.984 222.444C166.639 219.628 191.841 207.596 201.181 200.402C210.521 193.207 220.687 182.217 235.906 187.421C251.126 192.656 244.389 208.637 240.5 213.505C233.12 222.781 183.328 238.854 180.174 240.813C177.02 242.773 161.984 222.444 161.984 222.444Z" fill="#FF9E78"/>
<path d="M240.53 213.506C244.389 208.638 251.156 192.658 235.937 187.422C234.375 186.902 232.875 186.535 231.405 186.32C248.798 192.382 243.348 207.169 236.886 213.782C230.425 220.364 180.664 236.375 174.754 242.988C174.356 243.417 174.172 244.274 173.988 245.009C174.019 244.886 174.05 244.794 174.08 244.764C183.236 238.457 231.65 224.742 240.53 213.537V213.506Z" fill="url(#paint4_linear_3920_114101)"/>
<path d="M137.488 256.398C137.488 256.398 163.027 260.592 166.272 257.255C169.518 253.918 172.764 240.417 172.764 240.417C172.764 240.417 236.765 214.517 240.378 206.098C244.022 197.679 239.827 188.372 228.038 187.361C220.168 186.688 204.305 200.648 199.345 203.802C194.384 206.955 155.34 227.038 149.89 232.12C144.439 237.172 136.691 253.55 137.457 256.398H137.488Z" fill="url(#paint5_linear_3920_114101)"/>
<path d="M112.69 104.721C116.273 103.721 117.995 98.672 116.535 93.4444C115.075 88.2169 110.986 84.79 107.403 85.7903C103.819 86.7906 102.098 91.8393 103.557 97.0669C105.017 102.294 109.106 105.721 112.69 104.721Z" fill="url(#paint6_linear_3920_114101)"/>
<path d="M165.872 54.0653C163.882 41.8194 129.37 36.0026 119.173 52.8101C115.927 60.6168 112.222 75.1589 110.446 89.609C110.446 89.4559 110.446 89.3641 110.446 89.3641C110.446 89.3641 100.677 126.99 134.913 128.949C167.862 130.847 173.221 114.591 171.813 92.1194C171.874 79.4755 168.444 63.464 165.872 54.0653Z" fill="url(#paint7_linear_3920_114101)"/>
<g opacity="0.4">
<path d="M167.303 99.2537C168.916 91.7314 164.889 84.4899 158.307 83.0793C151.725 81.6687 145.082 86.6231 143.469 94.1454C141.856 101.668 145.884 108.909 152.466 110.32C159.047 111.73 165.69 106.776 167.303 99.2537Z" fill="#FF9E78"/>
<path d="M167.214 99.2321C168.82 91.7429 164.827 84.5368 158.295 83.1368C151.763 81.7368 145.166 86.6731 143.56 94.1623C141.954 101.651 145.947 108.858 152.479 110.258C159.011 111.658 165.608 106.721 167.214 99.2321Z" fill="#FF9D77"/>
<path d="M167.153 99.22C168.749 91.7804 164.774 84.6203 158.275 83.2274C151.776 81.8345 145.214 86.7363 143.619 94.1759C142.024 101.616 145.999 108.776 152.498 110.169C158.996 111.561 165.558 106.66 167.153 99.22Z" fill="#FF9C77"/>
<path d="M167.064 99.199C168.648 91.8091 164.705 84.6978 158.256 83.3155C151.807 81.9332 145.294 86.8035 143.709 94.1935C142.124 101.583 146.068 108.695 152.517 110.077C158.966 111.459 165.479 106.589 167.064 99.199Z" fill="#FF9B76"/>
<path d="M167.003 99.187C168.577 91.8466 164.652 84.7813 158.235 83.4061C151.819 82.0309 145.342 86.8667 143.768 94.2071C142.194 101.547 146.119 108.613 152.535 109.988C158.952 111.363 165.429 106.527 167.003 99.187Z" fill="#FF9A76"/>
<path d="M166.913 99.17C168.477 91.8792 164.583 84.8626 158.217 83.4981C151.85 82.1336 145.422 86.9377 143.858 94.2285C142.295 101.519 146.188 108.536 152.555 109.9C158.922 111.265 165.35 106.461 166.913 99.17Z" fill="#FF9975"/>
<path d="M166.854 99.156C168.407 91.9148 164.532 84.9442 158.198 83.5868C151.865 82.2293 145.472 86.999 143.919 94.2402C142.366 101.481 146.242 108.452 152.575 109.809C158.909 111.167 165.302 106.397 166.854 99.156Z" fill="#FF9875"/>
<path d="M166.765 99.1369C168.307 91.9454 164.463 85.0236 158.179 83.6768C151.895 82.33 145.551 87.0681 144.009 94.2597C142.467 101.451 146.311 108.373 152.595 109.72C158.879 111.067 165.223 106.329 166.765 99.1369Z" fill="#FF9774"/>
<path d="M166.706 99.123C168.237 91.981 164.412 85.1052 158.161 83.7654C151.91 82.4257 145.601 87.1294 144.07 94.2714C142.538 101.413 146.364 108.289 152.615 109.629C158.866 110.969 165.174 106.265 166.706 99.123Z" fill="#FF9674"/>
<path d="M166.614 99.1039C168.135 92.0115 164.341 85.1846 158.14 83.8555C151.939 82.5264 145.679 87.1985 144.158 94.2909C142.637 101.383 146.431 108.21 152.633 109.539C158.834 110.868 165.094 106.196 166.614 99.1039Z" fill="#FF9573"/>
<path d="M166.554 99.0919C168.064 92.0491 164.288 85.2681 158.12 83.9461C151.952 82.6241 145.727 87.2617 144.217 94.3045C142.707 101.347 146.483 108.128 152.651 109.45C158.819 110.772 165.043 106.135 166.554 99.0919Z" fill="#FF9472"/>
<path d="M166.464 99.0709C167.964 92.0777 164.219 85.3455 158.101 84.0342C151.982 82.7228 145.807 87.3288 144.307 94.3221C142.807 101.315 146.552 108.047 152.67 109.359C158.789 110.67 164.964 106.064 166.464 99.0709Z" fill="#FF9372"/>
<path d="M166.375 99.0539C167.863 92.1103 164.151 85.4269 158.082 84.1262C152.013 82.8254 145.886 87.3999 144.397 94.3435C142.908 101.287 146.621 107.97 152.69 109.271C158.759 110.572 164.886 105.997 166.375 99.0539Z" fill="#FF9271"/>
<path d="M166.314 99.0412C167.796 92.1307 164.104 85.4799 158.069 84.1862C152.033 82.8926 145.938 87.4459 144.457 94.3565C142.975 101.267 146.666 107.918 152.702 109.211C158.738 110.505 164.832 105.952 166.314 99.0412Z" fill="#FF9171"/>
<path d="M166.227 99.0222C167.698 92.1612 164.038 85.5592 158.051 84.2762C152.065 82.9932 146.02 87.515 144.549 94.376C143.077 101.237 146.738 107.839 152.724 109.122C158.71 110.405 164.755 105.883 166.227 99.0222Z" fill="#FF9070"/>
<path d="M166.166 99.0082C167.626 92.1968 163.984 85.6408 158.031 84.3649C152.078 83.089 146.068 87.5763 144.608 94.3877C143.147 101.199 146.789 107.755 152.742 109.031C158.695 110.307 164.705 105.82 166.166 99.0082Z" fill="#FF8F70"/>
<path d="M166.078 98.9911C167.528 92.2294 163.918 85.7222 158.014 84.4569C152.111 83.1916 146.15 87.6473 144.7 94.4091C143.25 101.171 146.86 107.678 152.763 108.943C158.667 110.209 164.628 105.753 166.078 98.9911Z" fill="#FF8E6F"/>
<path d="M166.013 98.9771C167.453 92.265 163.86 85.8037 157.99 84.5455C152.12 83.2873 146.194 87.7086 144.755 94.4208C143.315 101.133 146.907 107.594 152.778 108.852C158.648 110.111 164.574 105.689 166.013 98.9771Z" fill="#FF8D6F"/>
<path d="M165.926 98.9562C167.354 92.2936 163.794 85.8812 157.973 84.6336C152.152 83.3861 146.275 87.7758 144.847 94.4383C143.418 101.101 146.978 107.513 152.799 108.761C158.62 110.008 164.497 105.619 165.926 98.9562Z" fill="#FF8C6E"/>
<path d="M165.865 98.9441C167.283 92.3312 163.741 85.9647 157.953 84.7242C152.165 83.4837 146.324 87.839 144.905 94.452C143.487 101.065 147.03 107.431 152.818 108.672C158.605 109.912 164.447 105.557 165.865 98.9441Z" fill="#FF8B6E"/>
<path d="M165.777 98.9271C167.185 92.3637 163.674 86.0461 157.936 84.8162C152.198 83.5864 146.405 87.91 144.998 94.4734C143.59 101.037 147.101 107.354 152.839 108.584C158.577 109.814 164.37 105.49 165.777 98.9271Z" fill="#FF8A6D"/>
<path d="M165.686 98.9061C167.083 92.3923 163.603 86.1235 157.915 84.9043C152.226 83.6851 146.482 87.9772 145.086 94.4909C143.689 101.005 147.168 107.274 152.857 108.493C158.545 109.712 164.289 105.42 165.686 98.9061Z" fill="#FF896C"/>
<path d="M165.627 98.8941C167.013 92.4299 163.552 86.207 157.896 84.9949C152.241 83.7828 146.533 88.0404 145.147 94.5046C143.76 100.969 147.221 107.192 152.877 108.404C158.532 109.616 164.241 105.358 165.627 98.8941Z" fill="#FF886C"/>
<path d="M165.535 98.8731C166.911 92.4585 163.481 86.2845 157.876 85.083C152.27 83.8815 146.61 88.1075 145.235 94.5221C143.859 100.937 147.289 107.111 152.894 108.312C158.5 109.514 164.16 105.288 165.535 98.8731Z" fill="#FF876B"/>
<path d="M165.476 98.8611C166.841 92.4961 163.43 86.368 157.857 85.1736C152.284 83.9792 146.66 88.1708 145.296 94.5357C143.931 100.901 147.342 107.029 152.915 108.223C158.487 109.418 164.112 105.226 165.476 98.8611Z" fill="#FF866B"/>
<path d="M165.387 98.8421C166.741 92.5267 163.361 86.4474 157.838 85.2636C152.315 84.0799 146.74 88.2398 145.386 94.5552C144.031 100.871 147.411 106.95 152.934 108.134C158.457 109.317 164.033 105.157 165.387 98.8421Z" fill="#FF856A"/>
<path d="M165.328 98.8294C166.676 92.5471 163.317 86.5004 157.827 85.3237C152.337 84.147 146.794 88.2859 145.447 94.5682C144.1 100.851 147.458 106.897 152.949 108.074C158.439 109.251 163.981 105.112 165.328 98.8294Z" fill="#FF846A"/>
<path d="M165.237 98.8084C166.573 92.5757 163.247 86.5778 157.806 85.4117C152.366 84.2457 146.872 88.353 145.535 94.5858C144.199 100.818 147.526 106.816 152.966 107.982C158.407 109.148 163.9 105.041 165.237 98.8084Z" fill="#FF8369"/>
<path d="M165.178 98.7964C166.504 92.6133 163.195 86.6613 157.788 85.5023C152.38 84.3434 146.922 88.4163 145.596 94.5994C144.27 100.783 147.579 106.734 152.986 107.893C158.394 109.052 163.852 104.98 165.178 98.7964Z" fill="#FF8269"/>
<path d="M165.088 98.7793C166.404 92.6458 163.127 86.7427 157.769 85.5944C152.411 84.446 147.001 88.4873 145.686 94.6208C144.371 100.754 147.648 106.657 153.006 107.806C158.364 108.954 163.773 104.913 165.088 98.7793Z" fill="#FF8168"/>
<path d="M165.028 98.7653C166.332 92.6814 163.073 86.8243 157.748 85.683C152.424 84.5418 147.05 88.5486 145.745 94.6325C144.44 100.716 147.699 106.574 153.024 107.715C158.349 108.856 163.723 104.849 165.028 98.7653Z" fill="#FF8067"/>
<path d="M164.936 98.7444C166.23 92.71 163.003 86.9017 157.728 85.7711C152.452 84.6405 147.127 88.6157 145.833 94.6501C144.539 100.684 147.767 106.493 153.042 107.623C158.317 108.754 163.642 104.779 164.936 98.7444Z" fill="#FF7F67"/>
<path d="M164.847 98.7273C166.13 92.7426 162.934 86.9831 157.709 85.8631C152.483 84.7431 147.207 88.6868 145.923 94.6715C144.64 100.656 147.836 106.416 153.061 107.536C158.287 108.656 163.563 104.712 164.847 98.7273Z" fill="#FF7E66"/>
<path d="M164.79 98.7133C166.062 92.7782 162.885 87.0646 157.692 85.9517C152.5 84.8388 147.259 88.748 145.986 94.6832C144.713 100.618 147.891 106.332 153.083 107.445C158.276 108.558 163.517 104.648 164.79 98.7133Z" fill="#FF7D66"/>
<path d="M164.698 98.6943C165.96 92.8088 162.814 87.144 157.671 86.0418C152.528 84.9395 147.336 88.8171 146.074 94.7027C144.812 100.588 147.958 106.253 153.101 107.355C158.244 108.457 163.436 104.58 164.698 98.6943Z" fill="#FF7C65"/>
<path d="M164.639 98.6803C165.891 92.8444 162.763 87.2256 157.653 86.1304C152.543 85.0353 147.386 88.8784 146.135 94.7144C144.884 100.55 148.011 106.169 153.121 107.264C158.231 108.359 163.388 104.516 164.639 98.6803Z" fill="#FF7B65"/>
<path d="M164.548 98.6633C165.788 92.8769 162.692 87.307 157.632 86.2224C152.572 85.1379 147.464 88.9495 146.223 94.7358C144.982 100.522 148.079 106.092 153.139 107.177C158.199 108.261 163.307 104.45 164.548 98.6633Z" fill="#FF7A64"/>
<path d="M164.489 98.6493C165.719 92.9125 162.641 87.3885 157.614 86.3111C152.587 85.2336 147.514 89.0107 146.284 94.7475C145.054 100.484 148.132 106.008 153.159 107.086C158.186 108.163 163.259 104.386 164.489 98.6493Z" fill="#FF7964"/>
<path d="M164.4 98.6296C165.623 92.9259 162.579 87.4374 157.602 86.3705C152.624 85.3037 147.598 89.0626 146.375 94.7663C145.152 100.47 148.195 105.959 153.173 107.025C158.15 108.092 163.177 104.333 164.4 98.6296Z" fill="#FF7863"/>
<path d="M164.339 98.6176C165.551 92.9635 162.526 87.5209 157.581 86.4611C152.637 85.4014 147.646 89.1259 146.434 94.78C145.221 100.434 148.247 105.877 153.191 106.936C158.135 107.996 163.126 104.272 164.339 98.6176Z" fill="#FF7762"/>
<path d="M164.249 98.5986C165.451 92.9941 162.457 87.6003 157.563 86.5512C152.668 85.5021 147.725 89.195 146.524 94.7994C145.322 100.404 148.316 105.798 153.21 106.847C158.105 107.896 163.048 104.203 164.249 98.5986Z" fill="#FF7762"/>
<path d="M164.16 98.5776C165.351 93.0227 162.389 87.6777 157.544 86.6393C152.698 85.6008 147.805 89.2621 146.614 94.817C145.423 100.372 148.385 105.717 153.23 106.755C158.075 107.794 162.969 104.132 164.16 98.5776Z" fill="#FF7661"/>
<path d="M164.101 98.5656C165.281 93.0603 162.337 87.7613 157.525 86.7299C152.713 85.6985 147.855 89.3253 146.675 94.8306C145.494 100.336 148.438 105.635 153.25 106.666C158.062 107.698 162.92 104.071 164.101 98.5656Z" fill="#FF7561"/>
<path d="M164.009 98.5465C165.179 93.0908 162.267 87.8407 157.504 86.8199C152.742 85.7992 147.933 89.3944 146.763 94.8501C145.593 100.306 148.505 105.556 153.268 106.577C158.03 107.597 162.839 104.002 164.009 98.5465Z" fill="#FF7460"/>
<path d="M163.95 98.5365C165.11 93.1304 162.215 87.9261 157.486 86.9125C152.757 85.8988 147.983 89.4596 146.824 94.8657C145.664 100.272 148.559 105.476 153.288 106.49C158.017 107.503 162.791 103.943 163.95 98.5365Z" fill="#FF7360"/>
<path d="M163.859 98.5155C165.008 93.159 162.145 88.0036 157.465 87.0006C152.785 85.9975 148.06 89.5267 146.912 94.8832C145.763 100.24 148.626 105.395 153.306 106.398C157.985 107.401 162.71 103.872 163.859 98.5155Z" fill="#FF725F"/>
<path d="M163.8 98.5015C164.938 93.1946 162.094 88.0851 157.447 87.0892C152.8 86.0933 148.111 89.588 146.973 94.8949C145.835 100.202 148.679 105.311 153.326 106.307C157.973 107.303 162.662 103.808 163.8 98.5015Z" fill="#FF715F"/>
<path d="M163.71 98.4825C164.838 93.2252 162.025 88.1646 157.428 87.1793C152.831 86.194 148.19 89.6571 147.063 94.9144C145.935 100.172 148.748 105.232 153.345 106.218C157.942 107.203 162.583 103.74 163.71 98.4825Z" fill="#FF705E"/>
<path d="M163.651 98.4704C164.768 93.2627 161.974 88.2481 157.409 87.2698C152.845 86.2916 148.24 89.7203 147.124 94.928C146.007 100.136 148.801 105.15 153.366 106.129C157.93 107.107 162.535 103.678 163.651 98.4704Z" fill="#FF6F5E"/>
<path d="M163.56 98.4495C164.666 93.2914 161.903 88.3255 157.389 87.3579C152.874 86.3904 148.318 89.7875 147.212 94.9456C146.106 100.104 148.869 105.07 153.383 106.037C157.898 107.005 162.454 103.608 163.56 98.4495Z" fill="#FF6E5D"/>
<path d="M163.47 98.4305C164.566 93.322 161.834 88.4049 157.37 87.448C152.905 86.491 148.397 89.8566 147.302 94.9651C146.206 100.074 148.938 104.991 153.403 105.948C157.868 106.904 162.375 103.539 163.47 98.4305Z" fill="#FF6D5C"/>
<path d="M163.41 98.4158C164.498 93.3404 161.788 88.4559 157.356 87.506C152.925 86.5562 148.45 89.9006 147.361 94.9761C146.273 100.052 148.983 104.936 153.415 105.886C157.847 106.836 162.322 103.491 163.41 98.4158Z" fill="#FF6C5C"/>
<path d="M163.321 98.4007C164.398 93.3749 161.72 88.5392 157.337 87.6C152.955 86.6608 148.529 89.9737 147.451 94.9995C146.374 100.025 149.052 104.861 153.435 105.8C157.817 106.739 162.243 103.427 163.321 98.4007Z" fill="#FF6B5B"/>
<path d="M163.262 98.3867C164.329 93.4105 161.668 88.6208 157.319 87.6886C152.97 86.7565 148.579 90.0349 147.512 95.0112C146.445 99.9874 149.106 104.777 153.455 105.709C157.804 106.641 162.195 103.363 163.262 98.3867Z" fill="#FF6A5B"/>
<path d="M163.172 98.3658C164.229 93.4391 161.6 88.6983 157.3 87.7767C153.001 86.8552 148.659 90.1021 147.602 95.0287C146.546 99.9554 149.175 104.696 153.474 105.618C157.774 106.539 162.116 103.292 163.172 98.3658Z" fill="#FF695A"/>
<path d="M163.113 98.3537C164.159 93.4767 161.548 88.7818 157.282 87.8673C153.015 86.9529 148.709 90.1653 147.663 95.0423C146.617 99.9194 149.228 104.614 153.495 105.529C157.761 106.443 162.067 103.231 163.113 98.3537Z" fill="#FF685A"/>
<path d="M163.022 98.3347C164.057 93.5073 161.478 88.8612 157.261 87.9574C153.044 87.0536 148.786 90.2344 147.751 95.0618C146.716 99.8893 149.295 104.535 153.512 105.439C157.729 106.343 161.987 103.162 163.022 98.3347Z" fill="#FF6759"/>
<path d="M162.961 98.3227C163.985 93.5448 161.424 88.9447 157.241 88.048C153.057 87.1513 148.835 90.2976 147.81 95.0755C146.786 99.8533 149.347 104.453 153.53 105.35C157.714 106.247 161.936 103.101 162.961 98.3227Z" fill="#FF6659"/>
<path d="M162.871 98.3017C163.885 93.5734 161.356 89.0221 157.222 88.1361C153.087 87.25 148.914 90.3647 147.9 95.093C146.886 99.8213 149.416 104.373 153.55 105.259C157.684 106.145 161.857 103.03 162.871 98.3017Z" fill="#FF6558"/>
<path d="M162.812 98.2897C163.816 93.611 161.304 89.1057 157.203 88.2267C153.102 87.3477 148.964 90.428 147.961 95.1066C146.958 99.7853 149.469 104.291 153.57 105.17C157.671 106.049 161.809 102.968 162.812 98.2897Z" fill="#FF6457"/>
<path d="M162.723 98.2726C163.715 93.6435 161.236 89.187 157.184 88.3187C153.133 87.4503 149.044 90.499 148.051 95.1281C147.059 99.7572 149.538 104.214 153.59 105.082C157.641 105.95 161.73 102.902 162.723 98.2726Z" fill="#FF6357"/>
<path d="M162.633 98.2516C163.615 93.6722 161.167 89.2645 157.165 88.4068C153.164 87.549 149.123 90.5661 148.141 95.1456C147.159 99.7251 149.607 104.133 153.609 104.991C157.611 105.848 161.651 102.831 162.633 98.2516Z" fill="#FF6256"/>
<path d="M162.572 98.2396C163.544 93.7097 161.114 89.348 157.145 88.4974C153.176 87.6467 149.172 90.6294 148.2 95.1593C147.229 99.6891 149.659 104.051 153.627 104.902C157.596 105.752 161.601 102.769 162.572 98.2396Z" fill="#FF6156"/>
<path d="M162.481 98.218C163.446 93.7212 161.05 89.3949 157.131 88.5549C153.212 87.7149 149.253 90.6793 148.289 95.1762C147.325 99.673 149.72 103.999 153.639 104.839C157.558 105.679 161.517 102.715 162.481 98.218Z" fill="#FF6055"/>
<path d="M162.422 98.206C163.376 93.7588 160.999 89.4784 157.113 88.6455C153.227 87.8126 149.303 90.7426 148.35 95.1898C147.396 99.637 149.773 103.917 153.659 104.75C157.545 105.583 161.469 102.653 162.422 98.206Z" fill="#FF5F55"/>
<path d="M162.333 98.187C163.276 93.7893 160.93 89.5578 157.094 88.7355C153.257 87.9133 149.383 90.8117 148.44 95.2093C147.497 99.6069 149.842 103.838 153.679 104.661C157.515 105.483 161.39 102.585 162.333 98.187Z" fill="#FF5E54"/>
<path d="M162.272 98.1749C163.204 93.8269 160.877 89.6413 157.074 88.8261C153.27 88.011 149.431 90.8749 148.499 95.2229C147.566 99.5709 149.894 103.757 153.697 104.572C157.501 105.387 161.34 102.523 162.272 98.1749Z" fill="#FF5D54"/>
<path d="M162.184 98.154C163.106 93.8555 160.81 89.7188 157.057 88.9142C153.303 88.1097 149.513 90.942 148.591 95.2404C147.669 99.5389 149.965 103.676 153.719 104.48C157.472 105.285 161.263 102.452 162.184 98.154Z" fill="#FF5C53"/>
<path d="M162.124 98.1439C163.035 93.895 160.757 89.8042 157.036 89.0068C153.316 88.2093 149.561 91.0072 148.65 95.256C147.739 99.5049 150.016 103.596 153.737 104.393C157.458 105.191 161.212 102.393 162.124 98.1439Z" fill="#FF5B53"/>
<path d="M162.032 98.1229C162.933 93.9237 160.686 89.8817 157.015 89.0949C153.344 88.308 149.638 91.0743 148.738 95.2736C147.837 99.4728 150.083 103.515 153.755 104.302C157.426 105.088 161.132 102.322 162.032 98.1229Z" fill="#FF5A52"/>
<path d="M161.943 98.1039C162.832 93.9543 160.618 89.9611 156.996 89.1849C153.375 88.4087 149.718 91.1434 148.828 95.2931C147.938 99.4427 150.153 103.436 153.774 104.212C157.396 104.988 161.053 102.254 161.943 98.1039Z" fill="#FF5951"/>
<path d="M161.884 98.0919C162.763 93.9918 160.566 90.0446 156.978 89.2755C153.39 88.5064 149.768 91.2067 148.889 95.3067C148.01 99.4067 150.206 103.354 153.794 104.123C157.383 104.892 161.004 102.192 161.884 98.0919Z" fill="#FF5851"/>
<path d="M161.794 98.0728C162.663 94.0224 160.498 90.124 156.959 89.3655C153.42 88.6071 149.847 91.2757 148.979 95.3262C148.11 99.3766 150.275 103.275 153.814 104.033C157.353 104.792 160.925 102.123 161.794 98.0728Z" fill="#FF5750"/>
<path d="M161.735 98.0569C162.593 94.056 160.447 90.2036 156.941 89.4522C153.435 88.7008 149.898 91.3351 149.04 95.3359C148.182 99.3368 150.328 103.189 153.834 103.941C157.34 104.692 160.877 102.058 161.735 98.0569Z" fill="#FF5650"/>
<path d="M161.646 98.0398C162.493 94.0886 160.378 90.285 156.922 89.5442C153.466 88.8035 149.977 91.4061 149.13 95.3574C148.283 99.3086 150.397 103.112 153.854 103.853C157.31 104.594 160.798 101.991 161.646 98.0398Z" fill="#FF554F"/>
<path d="M161.583 98.0258C162.419 94.1242 160.323 90.3665 156.9 89.6329C153.477 88.8992 150.023 91.4674 149.187 95.369C148.35 99.2707 150.447 103.028 153.87 103.762C157.293 104.496 160.746 101.927 161.583 98.0258Z" fill="#FF544F"/>
<path d="M161.494 98.0101C162.323 94.1415 160.261 90.4193 156.888 89.6963C153.514 88.9732 150.107 91.5232 149.277 95.3918C148.448 99.2604 150.51 102.983 153.884 103.706C157.257 104.429 160.664 101.879 161.494 98.0101Z" fill="#FF534E"/>
<path d="M161.433 97.9961C162.252 94.1771 160.208 90.5008 156.867 89.7849C153.527 89.069 150.155 91.5845 149.336 95.4035C148.517 99.2225 150.561 102.899 153.902 103.615C157.242 104.331 160.614 101.815 161.433 97.9961Z" fill="#FF524E"/>
<path d="M161.345 97.9751C162.154 94.2058 160.141 90.5783 156.85 89.873C153.56 89.1677 150.237 91.6516 149.428 95.421C148.62 99.1904 150.633 102.818 153.923 103.523C157.214 104.228 160.537 101.745 161.345 97.9751Z" fill="#FF514D"/>
</g>
<path d="M182.571 97.4199C184.185 92.238 182.614 87.1404 179.062 86.0343C175.509 84.9281 171.321 88.2322 169.706 93.4141C168.092 98.5961 169.663 103.694 173.215 104.8C176.768 105.906 180.956 102.602 182.571 97.4199Z" fill="#FF9E78"/>
<path d="M179.437 98.1208C176.038 100.294 172.425 99.5597 169.822 97.4472C169.822 98.7637 169.761 100.478 169.455 102.437H169.516L169.332 115.449C170.771 112.173 171.506 108.346 171.812 104.091C172.149 104.305 172.486 104.489 172.854 104.642C176.345 105.897 180.57 102.744 182.285 97.6003C182.714 96.2839 182.959 94.9368 182.99 93.6816C182.377 95.4573 181.213 97.0186 179.407 98.1514L179.437 98.1208Z" fill="url(#paint8_linear_3920_114101)"/>
<path d="M173.373 95.3017L176.558 95.7609C176.558 90.7095 180.294 89.0563 180.294 89.0563C174.23 86.852 173.373 95.3017 173.373 95.3017Z" fill="url(#paint9_linear_3920_114101)"/>
<path d="M153.072 31.9001C143.304 25.4404 130.565 24.9199 130.565 24.9199C130.044 25.7465 129.799 27.063 129.983 28.012C121.991 27.7365 115.744 28.5631 115.744 28.5631C113.998 38.0843 116.662 43.748 119.571 46.9625C120.643 48.1565 122.174 50.1158 126.492 52.0446C126.492 52.0446 131.085 54.6774 138.343 54.8305C144.835 54.9836 154.083 51.5854 154.083 51.5854C160.544 51.4323 169.547 71.5155 170.404 87.6495C170.588 91.3539 173.803 87.0984 173.803 87.0984C173.803 87.0984 174.14 83.0573 173.865 77.3017C173.865 77.2711 178.917 51.2792 173.375 41.5437" fill="url(#paint10_linear_3920_114101)"/>
<path d="M116.664 42.3418C106.957 45.2808 110.325 80.5796 110.54 86.3964C110.54 86.825 110.54 87.1005 110.478 87.5598C110.478 87.7741 111.244 87.7128 111.183 87.4985C111.091 87.1618 111.183 86.5801 111.213 86.3658C112.561 75.6506 121.135 52.2916 126.494 52.0161C126.494 52.0161 121.349 48.924 116.664 42.3418Z" fill="#59352C"/>
<g opacity="0.4">
<path d="M125.939 109.041C132.4 107.995 136.614 100.828 135.351 93.0336C134.088 85.2392 127.827 79.7686 121.366 80.8147C114.906 81.8609 110.692 89.0277 111.954 96.8222C113.217 104.617 119.478 110.087 125.939 109.041Z" fill="#FF9E78"/>
<path d="M125.93 108.982C132.341 107.944 136.519 100.811 135.261 93.0494C134.004 85.2883 127.788 79.8382 121.377 80.8763C114.966 81.9143 110.789 89.0475 112.046 96.8086C113.303 104.57 119.52 110.02 125.93 108.982Z" fill="#FF9D77"/>
<path d="M125.917 108.888C132.294 107.856 136.451 100.768 135.202 93.0565C133.953 85.3455 127.77 79.9315 121.393 80.9642C115.016 81.9969 110.858 89.085 112.108 96.7961C113.357 104.507 119.539 109.921 125.917 108.888Z" fill="#FF9C77"/>
<path d="M125.9 108.798C132.227 107.773 136.351 100.732 135.11 93.0714C133.868 85.4104 127.733 80.0305 121.406 81.0551C115.078 82.0796 110.955 89.1206 112.196 96.7816C113.438 104.443 119.573 109.822 125.9 108.798Z" fill="#FF9B76"/>
<path d="M125.885 108.708C132.178 107.689 136.281 100.693 135.048 93.0823C133.815 85.4714 127.713 80.1277 121.42 81.1469C115.126 82.166 111.023 89.162 112.256 96.7729C113.489 104.384 119.591 109.727 125.885 108.708Z" fill="#FF9A76"/>
<path d="M125.87 108.618C132.114 107.607 136.182 100.658 134.958 93.0972C133.733 85.5364 127.678 80.2267 121.434 81.2377C115.191 82.2488 111.122 89.1976 112.347 96.7584C113.572 104.319 119.626 109.629 125.87 108.618Z" fill="#FF9975"/>
<path d="M125.856 108.526C132.067 107.521 136.115 100.617 134.898 93.1062C133.681 85.5954 127.66 80.322 121.45 81.3276C115.24 82.3332 111.191 89.2371 112.408 96.7478C113.625 104.259 119.646 109.532 125.856 108.526Z" fill="#FF9875"/>
<path d="M125.842 108.436C132.002 107.438 136.016 100.582 134.808 93.1211C133.599 85.6604 127.625 80.4209 121.465 81.4185C115.304 82.416 111.29 89.2727 112.499 96.7334C113.708 104.194 119.681 109.433 125.842 108.436Z" fill="#FF9774"/>
<path d="M125.828 108.348C131.955 107.356 135.949 100.545 134.748 93.134C133.548 85.7234 127.607 80.5201 121.481 81.5122C115.354 82.5043 111.36 89.3161 112.561 96.7267C113.761 104.137 119.701 109.34 125.828 108.348Z" fill="#FF9674"/>
<path d="M125.814 108.256C131.89 107.272 135.85 100.507 134.658 93.1469C133.465 85.7864 127.572 80.6171 121.495 81.6011C115.418 82.5851 111.459 89.3497 112.651 96.7102C113.844 104.071 119.737 109.24 125.814 108.256Z" fill="#FF9573"/>
<path d="M125.798 108.165C131.841 107.186 135.78 100.466 134.596 93.1559C133.412 85.8454 127.553 80.7124 121.509 81.691C115.466 82.6696 111.526 89.3892 112.711 96.6996C113.895 104.01 119.754 109.143 125.798 108.165Z" fill="#FF9472"/>
<path d="M125.781 108.074C131.775 107.104 135.68 100.431 134.504 93.1707C133.327 85.9104 127.515 80.8114 121.522 81.7819C115.529 82.7523 111.623 89.4248 112.8 96.6852C113.976 103.946 119.788 109.045 125.781 108.074Z" fill="#FF9372"/>
<path d="M125.768 107.983C131.728 107.018 135.612 100.39 134.444 93.1798C133.276 85.9694 127.498 80.9067 121.538 81.8717C115.578 82.8368 111.693 89.4643 112.861 96.6746C114.029 103.885 119.808 108.948 125.768 107.983Z" fill="#FF9271"/>
<path d="M125.753 107.892C131.663 106.935 135.514 100.355 134.354 93.1946C133.194 86.0344 127.462 81.0056 121.552 81.9626C115.642 82.9195 111.792 89.4998 112.952 96.6601C114.112 103.82 119.843 108.849 125.753 107.892Z" fill="#FF9171"/>
<path d="M125.739 107.803C131.616 106.851 135.446 100.316 134.294 93.2056C133.142 86.0954 127.445 81.1028 121.568 82.0544C115.692 83.006 111.862 89.5413 113.013 96.6515C114.165 103.762 119.863 108.754 125.739 107.803Z" fill="#FF9070"/>
<path d="M125.725 107.712C131.551 106.769 135.347 100.281 134.204 93.2204C133.06 86.1603 127.409 81.2018 121.583 82.1453C115.756 83.0887 111.96 89.5769 113.104 96.637C114.248 103.697 119.898 108.656 125.725 107.712Z" fill="#FF8F70"/>
<path d="M125.709 107.623C131.502 106.685 135.278 100.241 134.142 93.2314C133.007 86.2214 127.39 81.299 121.597 82.2371C115.804 83.1751 112.028 89.6183 113.164 96.6283C114.299 103.638 119.916 108.561 125.709 107.623Z" fill="#FF8E6F"/>
<path d="M125.696 107.529C131.455 106.597 135.21 100.198 134.083 93.2384C132.955 86.2785 127.372 81.3924 121.612 82.325C115.853 83.2576 112.098 89.6558 113.225 96.6158C114.353 103.576 119.936 108.462 125.696 107.529Z" fill="#FF8D6F"/>
<path d="M125.679 107.441C131.389 106.516 135.11 100.165 133.99 93.2553C132.871 86.3454 127.335 81.4933 121.625 82.4178C115.916 83.3423 112.195 89.6934 113.314 96.6033C114.433 103.513 119.969 108.365 125.679 107.441Z" fill="#FF8C6E"/>
<path d="M125.665 107.349C131.342 106.43 135.042 100.124 133.931 93.2643C132.819 86.4045 127.317 81.5886 121.641 82.5077C115.965 83.4268 112.264 89.7329 113.376 96.5927C114.487 103.452 119.989 108.268 125.665 107.349Z" fill="#FF8B6E"/>
<path d="M125.649 107.259C131.275 106.348 134.941 100.089 133.838 93.2791C132.735 86.4694 127.28 81.6875 121.654 82.5985C116.028 83.5095 112.361 89.7684 113.464 96.5782C114.568 103.388 120.023 108.17 125.649 107.259Z" fill="#FF8A6D"/>
<path d="M125.635 107.167C131.228 106.262 134.874 100.048 133.779 93.2881C132.684 86.5285 127.262 81.7828 121.669 82.6884C116.077 83.594 112.431 89.8079 113.526 96.5676C114.621 103.327 120.042 108.073 125.635 107.167Z" fill="#FF896C"/>
<path d="M125.621 107.077C131.163 106.179 134.775 100.013 133.688 93.303C132.601 86.5934 127.227 81.8818 121.684 82.7792C116.142 83.6767 112.53 89.8435 113.617 96.5531C114.704 103.263 120.078 107.974 125.621 107.077Z" fill="#FF886C"/>
<path d="M125.607 106.987C131.116 106.095 134.708 99.9735 133.629 93.314C132.55 86.6544 127.209 81.979 121.7 82.8711C116.191 83.7632 112.599 89.8849 113.678 96.5445C114.757 103.204 120.098 107.879 125.607 106.987Z" fill="#FF876B"/>
<path d="M125.59 106.895C131.05 106.011 134.607 99.9363 133.536 93.3269C132.465 86.7174 127.172 82.076 121.713 82.96C116.254 83.8439 112.696 89.9186 113.767 96.528C114.838 103.137 120.131 107.779 125.59 106.895Z" fill="#FF866B"/>
<path d="M125.577 106.805C131.002 105.927 134.539 99.8972 133.477 93.3378C132.414 86.7784 127.154 82.1732 121.729 83.0518C116.303 83.9304 112.766 89.96 113.828 96.5194C114.891 103.079 120.151 107.684 125.577 106.805Z" fill="#FF856A"/>
<path d="M125.56 106.713C130.936 105.843 134.439 99.8601 133.384 93.3508C132.33 86.8414 127.117 82.2702 121.741 83.1407C116.366 84.0112 112.863 89.9936 113.917 96.503C114.972 103.012 120.184 107.583 125.56 106.713Z" fill="#FF846A"/>
<path d="M125.546 106.624C130.889 105.758 134.371 99.8209 133.325 93.3617C132.278 86.9025 127.099 82.3675 121.757 83.2325C116.415 84.0976 112.932 90.0351 113.979 96.4943C115.025 102.954 120.204 107.489 125.546 106.624Z" fill="#FF8369"/>
<path d="M125.532 106.535C130.824 105.678 134.273 99.7877 133.234 93.3785C132.196 86.9694 127.064 82.4684 121.772 83.3253C116.48 84.1823 113.031 90.0726 114.069 96.4818C115.108 102.891 120.24 107.392 125.532 106.535Z" fill="#FF8269"/>
<path d="M125.516 106.442C130.775 105.59 134.203 99.7447 133.173 93.3856C132.143 87.0265 127.044 82.5617 121.786 83.4132C116.527 84.2648 113.099 90.1102 114.129 96.4693C115.159 102.828 120.257 107.293 125.516 106.442Z" fill="#FF8168"/>
<path d="M125.504 106.353C130.712 105.51 134.106 99.7114 133.084 93.4024C132.062 87.0934 127.011 82.6626 121.802 83.506C116.594 84.3495 113.2 90.1477 114.222 96.4567C115.244 102.766 120.295 107.196 125.504 106.353Z" fill="#FF8067"/>
<path d="M125.488 106.26C130.663 105.422 134.037 99.6684 133.023 93.4094C132.009 87.1505 126.991 82.7559 121.816 83.594C116.641 84.432 113.267 90.1852 114.281 96.4442C115.295 102.703 120.313 107.098 125.488 106.26Z" fill="#FF7F67"/>
<path d="M125.473 106.169C130.599 105.339 133.938 99.6332 132.932 93.4243C131.926 87.2154 126.956 82.8549 121.831 83.6848C116.706 84.5147 113.366 90.2208 114.372 96.4297C115.378 102.639 120.348 106.999 125.473 106.169Z" fill="#FF7E66"/>
<path d="M125.46 106.078C130.552 105.253 133.871 99.5921 132.873 93.4333C131.875 87.2745 126.938 82.9502 121.847 83.7747C116.755 84.5992 113.436 90.2603 114.434 96.4191C115.431 102.578 120.368 106.902 125.46 106.078Z" fill="#FF7D66"/>
<path d="M125.443 105.987C130.485 105.171 133.77 99.5569 132.78 93.4482C131.791 87.3395 126.901 83.0492 121.859 83.8655C116.818 84.6819 113.533 90.2959 114.522 96.4046C115.512 102.513 120.401 106.804 125.443 105.987Z" fill="#FF7C65"/>
<path d="M125.43 105.9C130.438 105.089 133.702 99.5198 132.721 93.4611C131.739 87.4024 126.884 83.1483 121.875 83.9593C116.867 84.7703 113.602 90.3393 114.584 96.3979C115.565 102.457 120.421 106.711 125.43 105.9Z" fill="#FF7B65"/>
<path d="M125.415 105.807C130.373 105.004 133.604 99.4826 132.63 93.474C131.657 87.4654 126.848 83.2453 121.89 84.0482C116.932 84.8511 113.701 90.3729 114.675 96.3815C115.648 102.39 120.457 106.61 125.415 105.807Z" fill="#FF7A64"/>
<path d="M125.399 105.718C130.324 104.92 133.534 99.4435 132.569 93.485C131.604 87.5264 126.829 83.3426 121.904 84.14C116.979 84.9375 113.769 90.4143 114.734 96.3729C115.699 102.331 120.474 106.515 125.399 105.718Z" fill="#FF7964"/>
<path d="M125.385 105.627C130.26 104.838 133.435 99.4083 132.478 93.4998C131.521 87.5914 126.793 83.4415 121.918 84.2309C117.044 85.0203 113.868 90.4499 114.825 96.3584C115.782 102.267 120.51 106.417 125.385 105.627Z" fill="#FF7863"/>
<path d="M125.369 105.534C130.211 104.75 133.366 99.3653 132.417 93.5069C131.468 87.6485 126.774 83.5349 121.932 84.3188C117.091 85.1028 113.935 90.4875 114.884 96.3458C115.834 102.204 120.528 106.318 125.369 105.534Z" fill="#FF7762"/>
<path d="M125.356 105.444C130.164 104.666 133.298 99.3261 132.357 93.5178C131.417 87.7095 126.756 83.6321 121.948 84.4106C117.14 85.1892 114.005 90.5289 114.946 96.3372C115.887 102.145 120.547 106.223 125.356 105.444Z" fill="#FF7762"/>
<path d="M125.341 105.352C130.099 104.582 133.2 99.289 132.267 93.5308C131.334 87.7725 126.721 83.7291 121.963 84.4995C117.205 85.27 114.104 90.5625 115.037 96.3207C115.97 102.079 120.583 106.122 125.341 105.352Z" fill="#FF7661"/>
<path d="M125.327 105.262C130.052 104.497 133.132 99.2499 132.207 93.5417C131.283 87.8335 126.703 83.8263 121.978 84.5914C117.254 85.3564 114.173 90.604 115.098 96.3121C116.023 102.02 120.603 106.027 125.327 105.262Z" fill="#FF7561"/>
<path d="M125.313 105.174C129.987 104.417 133.034 99.2166 132.117 93.5585C131.2 87.9004 126.668 83.9272 121.993 84.6842C117.319 85.4411 114.272 90.6415 115.189 96.2996C116.106 101.958 120.638 105.931 125.313 105.174Z" fill="#FF7460"/>
<path d="M125.299 105.082C129.94 104.331 132.966 99.1756 132.057 93.5675C131.149 87.9595 126.65 84.0225 122.009 84.774C117.368 85.5255 114.342 90.681 115.25 96.289C116.159 101.897 120.658 105.834 125.299 105.082Z" fill="#FF7360"/>
<path d="M125.282 104.992C129.873 104.249 132.865 99.1404 131.965 93.5824C131.064 88.0244 126.613 84.1215 122.022 84.8649C117.431 85.6083 114.439 90.7165 115.339 96.2745C116.24 101.832 120.691 105.735 125.282 104.992Z" fill="#FF725F"/>
<path d="M125.267 104.901C129.824 104.163 132.796 99.0993 131.904 93.5914C131.011 88.0835 126.593 84.2168 122.036 84.9548C117.478 85.6928 114.507 90.756 115.399 96.2639C116.291 101.772 120.709 105.639 125.267 104.901Z" fill="#FF715F"/>
<path d="M125.254 104.81C129.762 104.08 132.699 99.0641 131.815 93.6063C130.931 88.1485 126.56 84.3157 122.052 85.0456C117.545 85.7755 114.607 90.7916 115.492 96.2494C116.376 101.707 120.747 105.54 125.254 104.81Z" fill="#FF705E"/>
<path d="M125.241 104.719C129.715 103.994 132.632 99.023 131.755 93.6153C130.879 88.2075 126.542 84.411 122.068 85.1355C117.594 85.86 114.677 90.8311 115.553 96.2388C116.429 101.647 120.766 105.443 125.241 104.719Z" fill="#FF6F5E"/>
<path d="M125.224 104.628C129.648 103.912 132.531 98.9878 131.663 93.6302C130.795 88.2725 126.505 84.51 122.081 85.2263C117.657 85.9427 114.774 90.8667 115.642 96.2244C116.51 101.582 120.8 105.345 125.224 104.628Z" fill="#FF6E5D"/>
<path d="M125.21 104.539C129.601 103.828 132.463 98.9487 131.603 93.6411C130.744 88.3335 126.487 84.6072 122.097 85.3182C117.706 86.0291 114.844 90.9081 115.703 96.2157C116.563 101.523 120.82 105.25 125.21 104.539Z" fill="#FF6D5C"/>
<path d="M125.196 104.448C129.536 103.745 132.365 98.9135 131.513 93.656C130.661 88.3985 126.452 84.7062 122.111 85.409C117.771 86.1119 114.942 90.9437 115.794 96.2012C116.646 101.459 120.855 105.151 125.196 104.448Z" fill="#FF6C5C"/>
<path d="M125.18 104.359C129.487 103.661 132.295 98.8744 131.452 93.6669C130.608 88.4595 126.432 84.8034 122.125 85.5008C117.818 86.1983 115.01 90.9851 115.854 96.1926C116.697 101.4 120.873 105.056 125.18 104.359Z" fill="#FF6B5B"/>
<path d="M125.167 104.266C129.425 103.577 132.198 98.8372 131.363 93.6799C130.527 88.5225 126.399 84.9004 122.142 85.5897C117.885 86.2791 115.111 91.0188 115.946 96.1762C116.782 101.334 120.91 104.956 125.167 104.266Z" fill="#FF6A5B"/>
<path d="M125.152 104.175C129.376 103.491 132.129 98.7962 131.302 93.6889C130.474 88.5815 126.379 84.9957 122.156 85.6796C117.932 86.3635 115.179 91.0583 116.006 96.1656C116.833 101.273 120.928 104.859 125.152 104.175Z" fill="#FF695A"/>
<path d="M125.137 104.084C129.311 103.409 132.03 98.7609 131.211 93.7037C130.392 88.6465 126.344 85.0946 122.17 85.7705C117.997 86.4463 115.277 91.0938 116.097 96.1511C116.916 101.208 120.964 104.76 125.137 104.084Z" fill="#FF685A"/>
<path d="M125.122 103.995C129.262 103.324 131.961 98.7218 131.15 93.7147C130.338 88.7075 126.324 85.1919 122.184 85.8623C118.044 86.5327 115.345 91.1353 116.156 96.1424C116.967 101.15 120.981 104.665 125.122 103.995Z" fill="#FF6759"/>
<path d="M125.107 103.904C129.197 103.242 131.862 98.6866 131.059 93.7295C130.256 88.7725 126.289 85.2908 122.199 85.9531C118.109 86.6154 115.444 91.1709 116.247 96.128C117.05 101.085 121.017 104.567 125.107 103.904Z" fill="#FF6659"/>
<path d="M125.093 103.813C129.15 103.156 131.794 98.6456 131 93.7385C130.205 88.8315 126.271 85.3861 122.215 86.043C118.158 86.6999 115.514 91.2104 116.309 96.1174C117.104 101.024 121.037 104.47 125.093 103.813Z" fill="#FF6558"/>
<path d="M125.077 103.724C129.084 103.076 131.694 98.6123 130.907 93.7554C130.12 88.8984 126.234 85.487 122.227 86.1358C118.221 86.7846 115.611 91.2479 116.397 96.1048C117.184 100.962 121.07 104.373 125.077 103.724Z" fill="#FF6457"/>
<path d="M125.061 103.633C129.035 102.99 131.624 98.5712 130.846 93.7644C130.067 88.9575 126.215 85.5823 122.241 86.2257C118.268 86.8691 115.678 91.2874 116.457 96.0942C117.236 100.901 121.088 104.276 125.061 103.633Z" fill="#FF6357"/>
<path d="M125.049 103.541C128.972 102.905 131.528 98.5341 130.757 93.7773C129.986 89.0205 126.181 85.6793 122.258 86.3146C118.335 86.9499 115.779 91.321 116.55 96.0778C117.32 100.835 121.125 104.176 125.049 103.541Z" fill="#FF6256"/>
<path d="M125.035 103.449C128.925 102.819 131.46 98.493 130.698 93.7863C129.935 89.0795 126.164 85.7746 122.274 86.4045C118.384 87.0343 115.849 91.3605 116.611 96.0672C117.374 100.774 121.145 104.079 125.035 103.449Z" fill="#FF6156"/>
<path d="M125.019 103.36C128.876 102.735 131.391 98.4539 130.636 93.7972C129.882 89.1406 126.144 85.8718 122.287 86.4963C118.431 87.1207 115.916 91.4019 116.671 96.0586C117.425 100.715 121.163 103.984 125.019 103.36Z" fill="#FF6055"/>
<path d="M125.005 103.267C128.811 102.651 131.292 98.4168 130.546 93.8102C129.799 89.2036 126.109 85.9688 122.302 86.5852C118.496 87.2015 116.015 91.4356 116.761 96.0422C117.508 100.649 121.198 103.883 125.005 103.267Z" fill="#FF5F55"/>
<path d="M124.989 103.18C128.762 102.569 131.222 98.3796 130.484 93.823C129.746 89.2665 126.089 86.068 122.316 86.6789C118.543 87.2899 116.083 91.4789 116.821 96.0355C117.559 100.592 121.216 103.791 124.989 103.18Z" fill="#FF5E54"/>
<path d="M124.973 103.087C128.696 102.484 131.122 98.3424 130.392 93.836C129.662 89.3295 126.052 86.165 122.329 86.7679C118.606 87.3707 116.18 91.5126 116.91 96.019C117.64 100.525 121.25 103.69 124.973 103.087Z" fill="#FF5D54"/>
<path d="M124.959 102.998C128.648 102.4 131.054 98.3033 130.332 93.8469C129.61 89.3906 126.034 86.2622 122.345 86.8597C118.655 87.4571 116.249 91.554 116.971 96.0104C117.693 100.467 121.269 103.595 124.959 102.998Z" fill="#FF5C53"/>
<path d="M124.944 102.905C128.584 102.316 130.955 98.2662 130.242 93.8599C129.528 89.4536 125.999 86.3593 122.359 86.9486C118.72 87.5379 116.348 91.5876 117.062 95.994C117.776 100.4 121.305 103.495 124.944 102.905Z" fill="#FF5B53"/>
<path d="M124.931 102.816C128.537 102.232 130.888 98.227 130.182 93.8708C129.476 89.5146 125.981 86.4565 122.375 87.0404C118.769 87.6243 116.418 91.6291 117.124 95.9853C117.829 100.342 121.325 103.4 124.931 102.816Z" fill="#FF5A52"/>
<path d="M124.916 102.725C128.472 102.149 130.789 98.1918 130.092 93.8857C129.394 89.5795 125.946 86.5555 122.39 87.1313C118.834 87.7071 116.517 91.6647 117.214 95.9708C117.912 100.277 121.36 103.301 124.916 102.725Z" fill="#FF5951"/>
<path d="M124.902 102.634C128.425 102.063 130.722 98.1508 130.032 93.8947C129.343 89.6386 125.928 86.6507 122.406 87.2211C118.883 87.7915 116.586 91.7041 117.276 95.9602C117.965 100.216 121.38 103.204 124.902 102.634Z" fill="#FF5851"/>
<path d="M124.886 102.543C128.358 101.981 130.621 98.1156 129.94 93.9095C129.258 89.7035 125.891 86.7497 122.418 87.312C118.946 87.8743 116.683 91.7397 117.365 95.9458C118.046 100.152 121.413 103.106 124.886 102.543Z" fill="#FF5750"/>
<path d="M124.87 102.452C128.309 101.895 130.552 98.0745 129.878 93.9185C129.205 89.7626 125.871 86.845 122.432 87.4018C118.993 87.9587 116.751 91.7792 117.424 95.9352C118.097 100.091 121.431 103.009 124.87 102.452Z" fill="#FF5650"/>
<path d="M124.856 102.361C128.245 101.813 130.453 98.0393 129.788 93.9334C129.122 89.8276 125.836 86.9439 122.447 87.4927C119.058 88.0415 116.85 91.8148 117.515 95.9207C118.18 100.027 121.467 102.91 124.856 102.361Z" fill="#FF554F"/>
<path d="M124.84 102.272C128.196 101.729 130.383 98.0002 129.726 93.9444C129.069 89.8886 125.816 87.0412 122.461 87.5845C119.105 88.1279 116.917 91.8562 117.574 95.912C118.232 99.9678 121.484 102.815 124.84 102.272Z" fill="#FF544F"/>
<path d="M124.827 102.179C128.133 101.644 130.287 97.963 129.638 93.9573C128.989 89.9516 125.783 87.1382 122.477 87.6734C119.172 88.2087 117.018 91.8899 117.667 95.8956C118.316 99.9013 121.522 102.715 124.827 102.179Z" fill="#FF534E"/>
<path d="M124.814 102.092C128.086 101.562 130.219 97.9259 129.578 93.9702C128.937 90.0145 125.765 87.2374 122.493 87.7672C119.221 88.297 117.088 91.9333 117.729 95.8889C118.37 99.8446 121.542 102.622 124.814 102.092Z" fill="#FF524E"/>
<path d="M124.797 102.001C128.019 101.48 130.118 97.8907 129.486 93.9851C128.853 90.0795 125.728 87.3363 122.506 87.8581C119.284 88.3798 117.185 91.9688 117.818 95.8744C118.45 99.78 121.575 102.523 124.797 102.001Z" fill="#FF514D"/>
</g>
<path opacity="0.1" d="M172.118 41.1161C171.138 39.769 170.066 38.9424 168.903 38.5444C167.862 38.7281 167.402 38.3608 166.269 38.6363C162.962 39.4017 159.471 39.8915 156.072 39.4323C152.122 38.9118 148.662 37.1362 145.171 35.3605C143.394 34.4727 141.649 33.5542 139.812 32.7583C135.923 31.0745 131.299 29.4212 127.012 29.5743C124.868 29.6356 122.786 30.2785 120.826 31.1051C119.019 31.8398 117.519 32.9419 116.416 34.0441C116.171 34.289 115.681 34.6258 115.191 34.9931C115.222 36.5851 115.406 37.9934 115.712 39.2792C115.926 39.1567 116.11 39.0343 116.171 39.0037C116.876 38.4832 117.764 37.9628 118.805 37.5035C119.846 37.0749 121.01 36.7076 122.326 36.6157C127.44 36.2177 132.187 38.2995 136.811 40.1976C138.709 40.9936 140.638 41.8814 142.66 42.7387C144.681 43.5959 146.794 44.4225 149.029 45.096C152.765 46.2287 157.297 46.5961 161.125 45.5246C161.645 45.3715 162.135 45.2491 162.625 45.1266C164.585 44.5143 166.3 43.7183 167.77 42.953C169.24 42.1876 170.526 41.5141 171.628 40.963C172.026 40.7793 171.781 41.2385 172.118 41.0855V41.1161Z" fill="#FFBC80"/>
<path d="M146.947 67.8125C146.947 67.8125 140.975 80.1196 147.528 87.559L163.36 86.2426C163.36 86.2426 163.85 81.283 163.33 77.8847C162.809 74.4865 146.947 67.8431 146.947 67.8431V67.8125Z" fill="url(#paint11_linear_3920_114101)"/>
<path d="M117.58 78.6172C116.661 81.6787 116.141 86.822 116.141 86.822L130.87 88.5976C137.607 80.9745 134.33 68.4531 134.33 68.4531C134.33 68.4531 118.499 75.5557 117.58 78.6172Z" fill="url(#paint12_linear_3920_114101)"/>
<path d="M156.438 81.4342C149.793 81.0056 147.527 87.5572 147.527 87.5572C147.527 87.5572 149.365 89.1185 155.918 88.7817C163.696 88.3838 163.359 86.2407 163.359 86.2407C163.359 86.2407 163.083 81.8628 156.438 81.4342Z" fill="white"/>
<path d="M116.138 86.8242C116.138 86.8242 115.495 88.6917 122.508 89.2734C130.072 89.8857 130.868 88.5999 130.868 88.5999C130.868 88.5999 123.365 75.3743 116.138 86.8242Z" fill="white"/>
<path d="M126.092 83.7617C124.5 83.2719 122.601 84.9251 121.805 87.4661C121.621 88.0478 121.529 88.6295 121.529 89.1805C121.836 89.2112 122.142 89.2418 122.479 89.2724C124.683 89.4561 126.306 89.4561 127.501 89.3948C127.501 89.3336 127.562 89.2724 127.562 89.2111C128.327 86.6701 127.654 84.2516 126.061 83.7617H126.092Z" fill="url(#paint13_linear_3920_114101)"/>
<path d="M155.918 88.7512C156.776 88.7206 157.511 88.6287 158.184 88.5675C158.858 85.8428 158.184 83.2405 156.623 82.6895C155.03 82.1384 153.132 83.9753 152.366 86.7918C152.213 87.3429 152.121 88.047 152.121 88.7206C153.162 88.8124 154.418 88.8124 155.918 88.7206V88.7512Z" fill="url(#paint14_linear_3920_114101)"/>
<path d="M123.429 81.0069C117.978 80.9151 116.141 86.8237 116.141 86.8237C116.141 86.8237 118.835 83.7316 123.061 83.6398C128.512 83.548 130.87 88.5994 130.87 88.5994C130.87 88.5994 130.809 81.16 123.429 81.0375V81.0069Z" fill="#603F37"/>
<path d="M117.396 79.2309C123.797 73.9958 131.085 76.598 133.779 73.3528C135.096 71.7609 134.3 68.332 134.3 68.332C117.366 70.5669 117.396 79.2615 117.396 79.2615V79.2309Z" fill="url(#paint15_linear_3920_114101)"/>
<path d="M146.948 67.8125C146.948 67.8125 145.386 71.425 146.243 72.619C148.969 76.354 159.044 74.4253 163.453 79.1706C163.453 79.1706 164.494 71.425 146.948 67.8125Z" fill="url(#paint16_linear_3920_114101)"/>
<path d="M155.367 80.3945C147.895 80.4558 147.527 87.4053 147.527 87.4053C147.527 87.4053 149.334 83.1805 155.826 83.3029C162.318 83.4254 163.39 86.242 163.39 86.242C163.39 86.242 162.777 80.3639 155.397 80.4252L155.367 80.3945Z" fill="#603F37"/>
<path d="M126.554 87.3121C126.554 88.1693 125.85 88.904 125.054 88.9959C124.257 89.0877 123.584 88.4142 123.614 87.557C123.614 86.6998 124.319 85.965 125.115 85.8732C125.942 85.8119 126.585 86.4549 126.554 87.3121Z" fill="#1E1D1D"/>
<path d="M156.96 86.6988C156.96 87.556 156.256 88.2908 155.46 88.3826C154.633 88.4438 153.99 87.8009 154.021 86.9437C154.021 86.0865 154.725 85.3517 155.521 85.2599C156.348 85.1987 156.991 85.8416 156.96 86.6988Z" fill="#1E1D1D"/>
<path opacity="0.8" d="M123.428 86.3646C122.663 86.7932 122.111 87.5892 122.234 88.1708C122.356 88.7525 123.091 88.8444 123.857 88.4158C124.622 87.9871 125.174 87.1912 125.051 86.6095C124.929 86.0278 124.194 85.936 123.428 86.3646Z" fill="white"/>
<path opacity="0.8" d="M153.746 85.9362C152.98 86.3648 152.521 87.1608 152.674 87.6507C152.827 88.1711 153.562 88.2323 154.327 87.8037C155.093 87.3751 155.583 86.5791 155.399 86.0893C155.246 85.5689 154.511 85.5076 153.746 85.9362Z" fill="white"/>
<path opacity="0.1" d="M164.372 46.7477C165.046 45.9823 164.004 44.8189 163.3 45.5843C160.544 48.5233 157.329 50.3602 153.838 51.646C153.991 51.5848 154.083 51.5542 154.083 51.5542C154.94 51.5542 155.859 51.8603 156.778 52.5032C159.595 51.095 162.198 49.1968 164.372 46.7477Z" fill="black"/>
<path d="M128.085 107.766C128.085 107.766 127.166 121.604 142.385 119.829C157.605 118.083 155.155 105.164 155.155 105.164L128.085 107.736V107.766Z" fill="#FB755C"/>
<path d="M129.247 107.642C129.247 107.642 128.267 118.877 142.231 117.316C156.195 115.755 154.051 105.438 154.051 105.438L129.247 107.611V107.642Z" fill="url(#paint17_linear_3920_114101)"/>
<path d="M129.89 107.488C129.89 107.488 129.737 109.693 131.054 110.703C132.83 112.05 150.346 110.825 151.632 109.142C152.642 107.856 152.428 104.764 152.428 104.764L129.859 107.519L129.89 107.488Z" fill="#F7F0F0"/>
<path opacity="0.4" d="M152.428 104.764L129.859 107.519C129.859 107.519 129.706 109.723 131.023 110.734C131.145 110.825 131.359 110.917 131.635 110.978C131.849 108.437 135.157 108.223 137.453 108.223C139.505 108.223 141.465 108.039 143.486 107.795C145.109 107.58 146.946 106.999 148.569 107.152C149.641 107.243 150.59 108.162 150.253 109.325C150.192 109.54 150.1 109.723 149.978 109.876C150.805 109.662 151.386 109.417 151.601 109.142C152.611 107.856 152.397 104.764 152.397 104.764H152.428Z" fill="#AD9E99"/>
<path d="M135.678 90.8322C135.678 90.8322 129.86 89.8832 128.574 94.9346C126.92 101.394 139.782 104.915 143.15 98.1491C146.518 91.3833 137.087 79.0762 137.087 79.0762C137.087 79.0762 139.414 85.5053 135.678 90.8322Z" fill="#FF9E78"/>
<path d="M128.482 96.7422C129.34 101.977 140.119 104.273 143.15 98.1505C143.334 97.7831 143.487 97.3851 143.579 96.9871C138.557 98.1811 133.321 97.9668 128.482 96.7422Z" fill="url(#paint18_linear_3920_114101)"/>
<path opacity="0.2" d="M139.261 85.7826H137.821C137.821 85.7826 137.148 90.4054 135.77 91.0789C135.555 91.0789 135.31 91.0789 135.096 91.0483C132.585 91.0177 130.533 91.8749 130.533 92.9464C130.533 94.0485 132.554 94.8752 135.035 94.9058C137.393 94.9364 139.444 94.4771 139.689 93.1913C139.689 93.1913 140.7 88.3236 139.261 85.752V85.7826Z" fill="white"/>
<path d="M174.23 43.2532C173.403 45.1513 163.297 42.5491 151.692 37.4364C140.086 32.3237 131.022 27.0274 132.032 25.1905C133.563 22.4352 143.117 25.4354 154.723 30.5481C166.329 35.6607 175.056 41.3551 174.23 43.2532Z" fill="#0C4266"/>
<path d="M174.291 43.4981C173.465 45.3962 163.359 42.794 151.753 37.6813C140.148 32.5687 131.175 27.0886 132.002 25.1905C132.829 23.2924 132.89 24.1802 133.625 24.3945C134.36 24.6088 142.506 30.2726 151.968 34.4362C162.134 38.9059 172.883 40.1917 174.138 42.6409C175.394 45.0901 174.353 43.2838 174.261 43.5287L174.291 43.4981Z" fill="#092E4C"/>
<defs>
<linearGradient id="paint0_linear_3920_114101" x1="143.862" y1="127.888" x2="144.357" y2="137.028" gradientUnits="userSpaceOnUse">
<stop stop-color="#DB7D67"/>
<stop offset="1" stop-color="#FF9E78"/>
</linearGradient>
<linearGradient id="paint1_linear_3920_114101" x1="148.512" y1="289.183" x2="294.562" y2="77.9693" gradientUnits="userSpaceOnUse">
<stop stop-color="white"/>
<stop offset="1" stop-color="#A5B7C6"/>
</linearGradient>
<linearGradient id="paint2_linear_3920_114101" x1="138.957" y1="241.579" x2="143.581" y2="241.579" gradientUnits="userSpaceOnUse">
<stop stop-color="#F28C70"/>
<stop offset="1" stop-color="#FF9E78"/>
</linearGradient>
<linearGradient id="paint3_linear_3920_114101" x1="133.445" y1="266.958" x2="173.805" y2="266.958" gradientUnits="userSpaceOnUse">
<stop stop-color="#F28C70"/>
<stop offset="1" stop-color="#FF9E78"/>
</linearGradient>
<linearGradient id="paint4_linear_3920_114101" x1="173.958" y1="215.649" x2="245.399" y2="215.649" gradientUnits="userSpaceOnUse">
<stop stop-color="#F28C70"/>
<stop offset="1" stop-color="#FF9E78"/>
</linearGradient>
<linearGradient id="paint5_linear_3920_114101" x1="174.081" y1="199.546" x2="192.295" y2="231.42" gradientUnits="userSpaceOnUse">
<stop stop-color="#FFB9A4"/>
<stop offset="1" stop-color="#FF9E78"/>
</linearGradient>
<linearGradient id="paint6_linear_3920_114101" x1="103.125" y1="95.4" x2="117.025" y2="95.1088" gradientUnits="userSpaceOnUse">
<stop stop-color="#F28C70"/>
<stop offset="1" stop-color="#FF9E78"/>
</linearGradient>
<linearGradient id="paint7_linear_3920_114101" x1="139.51" y1="51.5669" x2="139.718" y2="62.4025" gradientUnits="userSpaceOnUse">
<stop stop-color="#C6664F"/>
<stop offset="1" stop-color="#FF9E78"/>
</linearGradient>
<linearGradient id="paint8_linear_3920_114101" x1="168.925" y1="104.834" x2="183.039" y2="104.563" gradientUnits="userSpaceOnUse">
<stop stop-color="#F28C70"/>
<stop offset="1" stop-color="#FF9E78"/>
</linearGradient>
<linearGradient id="paint9_linear_3920_114101" x1="173.157" y1="92.4405" x2="180.199" y2="92.3053" gradientUnits="userSpaceOnUse">
<stop stop-color="#F28C70"/>
<stop offset="1" stop-color="#FF9E78"/>
</linearGradient>
<linearGradient id="paint10_linear_3920_114101" x1="145.91" y1="28.0034" x2="145.305" y2="54.8158" gradientUnits="userSpaceOnUse">
<stop stop-color="#75483B"/>
<stop offset="0.4" stop-color="#704438"/>
<stop offset="0.7" stop-color="#623C2F"/>
<stop offset="1" stop-color="#563428"/>
</linearGradient>
<linearGradient id="paint11_linear_3920_114101" x1="153.781" y1="56.3158" x2="153.857" y2="84.1789" gradientUnits="userSpaceOnUse">
<stop stop-color="#C6664F"/>
<stop offset="1" stop-color="#FF9E78"/>
</linearGradient>
<linearGradient id="paint12_linear_3920_114101" x1="125.395" y1="56.6135" x2="125.467" y2="84.2929" gradientUnits="userSpaceOnUse">
<stop stop-color="#C6664F"/>
<stop offset="1" stop-color="#FF9E78"/>
</linearGradient>
<linearGradient id="paint13_linear_3920_114101" x1="123.956" y1="90.2187" x2="126.749" y2="82.5449" gradientUnits="userSpaceOnUse">
<stop stop-color="#704A3E"/>
<stop offset="1"/>
</linearGradient>
<linearGradient id="paint14_linear_3920_114101" x1="154.995" y1="88.2562" x2="156.645" y2="83.5603" gradientUnits="userSpaceOnUse">
<stop stop-color="#704A3E"/>
<stop offset="1"/>
</linearGradient>
<linearGradient id="paint15_linear_3920_114101" x1="126.156" y1="68.8755" x2="125.737" y2="78.0239" gradientUnits="userSpaceOnUse">
<stop stop-color="#75483B"/>
<stop offset="0.4" stop-color="#704438"/>
<stop offset="0.7" stop-color="#623C2F"/>
<stop offset="1" stop-color="#563428"/>
</linearGradient>
<linearGradient id="paint16_linear_3920_114101" x1="154.864" y1="70.1846" x2="154.444" y2="79.3942" gradientUnits="userSpaceOnUse">
<stop stop-color="#75483B"/>
<stop offset="0.4" stop-color="#704438"/>
<stop offset="0.7" stop-color="#623C2F"/>
<stop offset="1" stop-color="#563428"/>
</linearGradient>
<linearGradient id="paint17_linear_3920_114101" x1="142.407" y1="116.765" x2="142.063" y2="112.831" gradientUnits="userSpaceOnUse">
<stop stop-color="#7C302A"/>
<stop offset="0.2" stop-color="#772E28"/>
<stop offset="0.4" stop-color="#692A26"/>
<stop offset="0.7" stop-color="#522421"/>
<stop offset="1" stop-color="#2D1A19"/>
</linearGradient>
<linearGradient id="paint18_linear_3920_114101" x1="135.924" y1="100.873" x2="135.832" y2="96.0676" gradientUnits="userSpaceOnUse">
<stop stop-color="#F28C70"/>
<stop offset="1" stop-color="#FF9E78"/>
</linearGradient>
</defs>
</svg>
