<svg width="940" height="1600" viewBox="0 0 940 1600" fill="none" xmlns="http://www.w3.org/2000/svg">
<path d="M693.7 939.5C693.7 939.5 686.4 941.9 683.7 947.3C683.7 947.3 671.7 948.5 667.7 955C663.8 961.5 674.1 963.8 674.1 963.8C674.1 963.8 669.6 968.2 672.5 972.7C675.4 977.3 689.3 974.3 689.3 974.3C689.3 974.3 679.5 977.8 679.7 983.5C679.9 989.1 687.1 989 687.8 988.9C688.5 988.8 710.5 984.9 712.8 983.2C715.1 981.5 731.3 960.8 731.2 960.3C731.1 959.8 719.7 933.8 717.8 932.5C715.9 931.2 693.7 939.5 693.7 939.5Z" fill="url(#paint0_linear_2394_71808)"/>
<path d="M408.501 427.299C416.701 426.399 422.101 421.999 431.801 421.999L433.701 370.199C433.301 353.199 452.601 341.499 476.601 344.299C500.601 346.999 521.301 363.199 521.601 380.299L524.101 432.099C534.901 434.699 543.701 441.499 552.801 444.799L551.801 495.699L407.301 481.499L408.401 427.399L408.501 427.299Z" fill="url(#paint1_linear_2394_71808)"/>
<path d="M770.5 1534.6C770.5 1534.6 628.5 1562 453.2 1562C277.9 1562 135.9 1534.6 135.9 1534.6C135.9 1534.6 277.9 1507.2 453.2 1507.2C628.5 1507.2 770.5 1534.6 770.5 1534.6Z" fill="url(#paint2_linear_2394_71808)"/>
<path d="M307 1470.5C305.9 1471 226.1 1514.6 225.2 1528.3C225.2 1528.9 222.9 1529.3 222.6 1529.7V1535.1C265.2 1549.5 351.3 1532.5 351.3 1532.5C351.3 1532.5 351.5 1535.9 352.4 1536C369.5 1537.7 398.4 1533.8 400.4 1532.2C400.8 1531.9 401.4 1527.2 401.2 1523.1C401.2 1522.7 400.1 1521.8 400.1 1521.8C401 1505.6 401 1474.4 401.1 1473.7C403.9 1459.7 313.5 1446.3 307 1470.5Z" fill="#2C2C2D"/>
<path d="M595.3 1470.5C596.4 1471 676.2 1514.6 677.1 1528.3C677.1 1528.9 679.4 1529.3 679.7 1529.7V1535.1C637.1 1549.5 551 1532.5 551 1532.5C551 1532.5 550.8 1535.9 549.9 1536C532.8 1537.7 503.9 1533.8 501.9 1532.2C501.5 1531.9 500.9 1527.2 501.1 1523.1C501.1 1522.7 502.2 1521.8 502.2 1521.8C501.3 1505.6 501.3 1474.4 501.2 1473.7C498.4 1459.7 588.8 1446.3 595.3 1470.5Z" fill="#2C2C2D"/>
<path d="M407.4 1493.9C435.9 1178.6 496.7 927.499 499.1 857.199L355.5 841.299C345.6 951.799 306.3 1236.8 289.5 1480.3C289.5 1480.3 303.1 1472.5 330.4 1474C356.4 1475.4 386.1 1491.5 400.8 1496C400.8 1496 406.7 1494.2 407.4 1494V1493.9Z" fill="#333844"/>
<path d="M495.901 1493.8C486.201 1176.5 504.801 927.499 502.501 857.199L646.101 841.299C656.001 951.799 613.501 1245.1 613.001 1480.3C613.001 1480.3 599.001 1472.7 572.201 1473.9C538.001 1475.4 516.301 1491.4 501.601 1495.9L496.001 1493.8H495.901Z" fill="#333844"/>
<path d="M356.8 810.099C352.6 890.199 351.4 927.799 351.4 927.799C351.4 927.799 434.9 934.699 525.4 933.899C584.2 933.399 634.4 937.799 638.3 913.899C641.8 892.299 644.9 867.199 647 812.399L642 807.499C627.3 808.999 577.3 813.399 498.8 812.399C412.5 811.299 374.2 805.699 363.3 804.799C361.7 804.699 356.9 808.399 356.8 810.099Z" fill="#333844"/>
<path d="M474 927L473 933.4C496.9 934.2 527.8 933.6 527.8 933.6V927.1C527.7 927.1 474 927.1 474 927.1V927Z" fill="#292D35"/>
<path d="M349.4 907.2C356.2 902.8 372.1 892.9 380.3 885.4C379.4 884.1 378.5 882.8 377.5 881.5C372.8 885 355.2 895.9 350.1 899.4L349.4 907.1V907.2Z" fill="#292D35"/>
<path d="M498.801 829.798C423.501 829.798 376.801 826.398 356.301 824.498C353.801 824.498 352.201 851.598 355.101 852.898C377.001 854.898 423.701 858.098 498.901 858.098C574.101 858.098 620.001 854.298 647.001 852.298C649.401 852.498 648.501 824.398 645.901 824.398C620.701 826.298 566.901 829.698 498.801 829.698V829.798Z" fill="#1C1D1E"/>
<path d="M432.2 867.9L415 867L418.3 819.6L435.4 820.5L432.2 867.9Z" fill="#333844"/>
<path d="M574.401 867.9L557.301 867L560.501 819.6L577.601 820.5L574.401 867.9Z" fill="#333844"/>
<path d="M647.4 897.7L620.2 881C619.1 883.5 619.5 882.7 618.5 885.3C626.2 891.9 639.1 900.2 647.2 905.2C647.2 902.8 647.4 900.1 647.4 897.7Z" fill="#292D35"/>
<path d="M636.101 937.699C636.101 937.699 622.001 1164.1 616.801 1169C611.601 1173.9 584.601 1194 577.901 1193.3C567.101 1192.2 517.101 1169.1 514.801 1161.7C512.601 1154.2 517.201 947.999 516.901 942.299C516.701 938.199 636.001 937.799 636.001 937.799L636.101 937.699Z" fill="url(#paint3_linear_2394_71808)"/>
<path d="M493.4 1372.8C493.2 1372.8 492.6 1420.6 492.2 1426.3C491.9 1429.8 489.9 1432.9 488.3 1436.1C486.7 1439.3 485.5 1443 486.8 1446.3C487.9 1449 490.7 1450.9 491.7 1453.7C493 1457.4 490.9 1460.9 490.7 1464.5C490.4 1468.5 491.6 1472.9 491.8 1477.1C491.9 1479.1 491.3 1492.1 493.4 1493.3C495.4 1494.4 501.5 1496.1 501.5 1496.1C518.6 1492.5 546.2 1471.1 567.8 1466C592.4 1460.2 612.9 1480.5 612.9 1480.5C612.9 1476.9 618.3 1468.2 618.7 1466.7C620.9 1458.1 611.6 1457.3 613.9 1452.8C621.5 1438.2 612 1434.5 613.5 1427.8C614.3 1424.4 618.4 1421.1 618.4 1417.6C618.4 1414.7 616.5 1409.5 615.8 1406.7C613.9 1399.5 615.9 1364.6 615.9 1364.6C608.5 1365.1 493.4 1373 493.4 1373V1372.8Z" fill="#333844"/>
<path d="M420.7 1368.4C420.7 1368.4 414 1433.9 415.6 1437.1C417.2 1440.3 418.4 1444 417.1 1447.3C416 1450 413.2 1451.9 412.2 1454.7C410.9 1458.4 413 1461.9 413.2 1465.5C413.5 1469.5 412.3 1473.9 412.1 1478.1C412 1480.1 412.6 1493.1 410.5 1494.3C408.5 1495.4 404.1 1496.9 401.8 1496.9C370.9 1496.9 356.5 1473.7 336.7 1468.6C312.2 1462.3 290 1471.5 290 1471.5C292.2 1470.9 289.6 1455.8 289 1454.3C288 1452 286.6 1449.8 286.3 1447.4C285.6 1440.6 294.2 1435 292.7 1428.3C291.9 1424.9 288.6 1422.2 288.6 1418.7C288.6 1415.8 290.7 1413.4 292.2 1410.9C294.9 1406 299.3 1358.9 299.3 1358.9C306.3 1360.7 420.7 1368.5 420.7 1368.5V1368.4Z" fill="#333844"/>
<path d="M350.201 1525.6C327.401 1528.4 301.501 1531.6 279.801 1531.9C246.901 1532.5 230.801 1529.3 225.301 1527.9C225.301 1528 225.301 1528.1 225.301 1528.2C225.301 1528.8 223.001 1529.2 222.701 1529.6V1529.8C225.501 1530.7 239.101 1534.5 272.201 1534.5C305.301 1534.5 277.301 1534.5 280.001 1534.5C301.801 1534.1 327.701 1530.9 350.601 1528.1C372.701 1525.4 391.901 1523 401.401 1523.9C401.401 1523.6 401.401 1523.3 401.401 1523C401.401 1522.6 400.301 1521.7 400.301 1521.7C400.301 1521.6 400.301 1521.4 400.301 1521.3C390.201 1520.7 371.601 1523 350.401 1525.6H350.201Z" fill="#3D3D3D"/>
<path d="M552.2 1525.6C575 1528.4 600.9 1531.6 622.5 1531.9C655.4 1532.5 671.5 1529.3 677.1 1527.9C677.1 1528 677.1 1528.1 677.1 1528.2C677.1 1528.8 679.4 1529.2 679.7 1529.6C676.9 1530.7 663.2 1534.5 630.2 1534.5C597.2 1534.5 625.1 1534.5 622.4 1534.5C600.6 1534.1 574.7 1530.9 551.8 1528.1C529.7 1525.4 510.5 1523 501.1 1523.9C501.1 1523.6 501.1 1523.3 501.1 1523C501.1 1522.6 502.2 1521.7 502.2 1521.7C502.2 1521.6 502.2 1521.4 502.2 1521.3C512.3 1520.7 530.8 1523 552.1 1525.6H552.2Z" fill="#3D3D3D"/>
<path d="M322.7 1513.6C294.4 1496.8 268.9 1498.5 250.7 1504.5C241.7 1510.6 233.9 1516.6 229.4 1521.5C235.7 1523 247 1524.6 267.1 1525.1C307 1526.1 329.6 1517.8 322.7 1513.7V1513.6Z" fill="url(#paint4_linear_2394_71808)"/>
<path d="M673 1521.5C668.4 1516.6 660.3 1510.4 651.1 1504.1C633 1498.4 607.9 1497.1 580.1 1513.6C573.2 1517.7 595.9 1526 635.7 1525C655.3 1524.5 666.6 1522.9 672.9 1521.5H673Z" fill="url(#paint5_linear_2394_71808)"/>
<path d="M358.099 933.898C358.099 933.898 326.099 1144.9 330.799 1149.7C335.499 1154.5 364.999 1181 372.199 1180.7C383.699 1180.1 435.399 1154.1 438.899 1147.1C442.399 1140.1 476.599 941.198 472.399 941.098C468.099 941.098 358.099 933.898 358.099 933.898Z" fill="url(#paint6_linear_2394_71808)"/>
<path d="M527.201 829.699C527.201 829.699 475.201 829.199 475.201 830.199C475.201 830.199 474.701 857.199 475.201 857.599C475.701 857.999 527.501 857.999 527.501 857.999C527.501 857.999 527.501 862.399 526.601 862.999C523.401 864.899 469.801 864.399 468.301 862.999C466.801 861.599 467.801 826.499 468.901 824.499C470.001 822.499 524.901 823.199 526.001 823.999C527.001 824.799 527.101 829.699 527.101 829.699H527.201Z" fill="url(#paint7_linear_2394_71808)"/>
<path d="M470.3 839.5C470.3 839.5 469.6 845.7 470.1 846.1C470.5 846.5 483.1 846.1 483.4 845.9C483.7 845.7 483.9 840.6 483.5 839.7C483.3 839.1 470.8 839 470.3 839.5Z" fill="url(#paint8_linear_2394_71808)"/>
<path d="M411.1 423.3C411.1 423.3 345.5 421.9 318.4 452.9C296.9 477.5 216 585.2 217.7 612.9C218 618.3 224.9 675.2 228.3 679.1C232.6 684.1 254.5 705 265.6 702.7C300.7 695.3 351.4 610.2 351.4 610.2C351.4 610.2 359.3 802 363 810.5C366.7 819 636.4 817.4 640 811.3C643.7 805.2 648.8 705 648.8 705C648.8 705 688.5 694.1 695.7 686.5C701.6 680.3 690.4 623.2 690.4 623.2L682 620.1C682 620.1 649.5 484.9 623.8 467.4C598 449.7 545.6 435.9 545.6 435.9C545.6 435.9 544.4 414.9 525.1 408.6C525.1 408.6 496.1 444 479.4 441.8C462.7 439.5 432.1 404 432.1 404C432.1 404 418.5 412 410.9 423.4L411.1 423.3Z" fill="url(#paint9_linear_2394_71808)"/>
<path d="M695.8 657.099C694.8 663.199 692.6 675.199 691.1 676.599C689.2 678.399 636.4 686.499 634.9 684.999C633.3 683.399 625.9 627.099 625.9 627.099C640.3 620.599 676.3 620.999 684.5 621.199L682.1 620.299C682.1 620.299 681.4 617.399 680.2 612.499C643.7 605.099 619 616.599 619 616.599L600 512.299L594.5 513.999C594.5 513.999 628.6 779.699 626 781.599C623.4 783.499 515.2 792.299 507.3 791.899C499.5 791.499 382.2 779.199 380.4 775.399C378.7 771.599 374.3 511.199 374.3 511.199H368.1L360.1 571.099L308.4 650.499C308.4 650.499 272.9 684.199 246.5 673.799C222.4 664.299 230 590.099 231.6 576.799C223 592.499 217.5 605.699 218 613.099C218.3 618.499 225.2 675.399 228.6 679.299C232.9 684.299 254.8 705.199 265.9 702.899C301 695.499 351.7 610.399 351.7 610.399C351.7 610.399 359.6 802.199 363.3 810.699C367 819.199 636.7 817.599 640.3 811.499C644 805.399 649.1 705.199 649.1 705.199C649.1 705.199 688.8 694.299 696 686.699C698.7 683.899 697.9 670.799 696.2 657.299L695.8 657.099Z" fill="url(#paint10_linear_2394_71808)"/>
<path d="M421.7 446.9C436.2 468.5 442.3 471.8 445.9 471.8C449.5 471.8 446.3 471.8 446.4 471.8C456.8 470.8 477.1 449.8 484.5 441.4C483.4 441.8 480.7 442 479.5 441.8C478.7 441.7 477.9 441.5 477 441.2C466.8 452.5 452.5 466.2 445.9 466.8C445.4 466.8 440.9 466.6 425.8 444.1C419.8 435.2 414.4 426.1 412 422C411.7 422.4 411.4 422.9 411.1 423.3C411.1 423.3 410.1 423.3 407 423.3C408.4 425.7 414.4 436.1 421.7 446.8V446.9Z" fill="url(#paint11_linear_2394_71808)"/>
<path d="M517.601 471.2C528.301 471.2 544.601 452 549.901 437.1C547.301 436.3 545.701 435.9 545.701 435.9C545.701 435.9 545.701 435.3 545.501 434.5C540.901 449 525.001 466.2 517.601 466.2C510.201 466.2 499.201 451.8 489.501 439.7C487.701 440.4 485.501 441.2 483.801 441.5C490.801 450.5 508.501 471.2 517.501 471.2H517.601Z" fill="url(#paint12_linear_2394_71808)"/>
<path d="M507.7 816.399C508.5 787.499 510.6 691.599 508.9 616.299C507.2 544.199 492.9 472.099 486 441.299C484.3 441.799 482.6 441.999 481 441.999C487.8 472.399 502.2 544.399 503.9 616.499C505.6 691.999 503.4 787.999 502.7 816.499C504.4 816.499 506 816.499 507.7 816.499V816.399Z" fill="url(#paint13_linear_2394_71808)"/>
<path d="M645.2 696.7C645.2 696.7 687.8 680.9 691.9 685.5C696 690.1 707.6 839 713.5 858.1C716.3 867.2 675.3 874.1 674.3 873.1C670.7 869.4 645 767.7 645 767.7L645.3 696.7H645.2Z" fill="#FF9E78"/>
<path d="M673.701 874.699C673.701 874.699 673.101 902.899 678.201 915.099C683.301 927.299 691.201 932.399 691.201 932.399C691.201 932.399 688.001 969.799 692.101 975.199C696.201 980.599 706.501 981.699 709.701 977.299C712.901 972.899 713.801 952.799 713.801 952.799L716.501 938.599C716.501 938.599 723.801 958.499 724.801 960.799C725.901 963.099 708.801 981.999 706.201 988.399C703.601 994.799 712.401 1000.3 715.401 999.299C718.401 998.299 742.001 978.399 744.301 974.699C746.601 970.899 748.601 929.899 747.301 923.799C746.101 917.799 715.001 862.599 713.801 858.699C712.601 854.799 712.101 851.299 712.101 851.299C712.101 851.299 671.801 865.799 672.001 866.599C672.201 867.399 673.901 873.799 673.901 874.699H673.701Z" fill="#FF9E78"/>
<path d="M719.1 869.498C719.1 869.498 743.5 921.498 742 923.098C740.4 924.698 693.5 922.198 685.1 915.398C676.7 908.598 676 878.398 676 877.998C676 877.598 672.6 869.498 672.6 869.498C673.1 871.698 673.7 874.198 673.7 874.698C673.7 874.698 673.1 902.898 678.2 915.098C683.3 927.298 691.2 932.398 691.2 932.398C691.2 932.398 688 969.798 692.1 975.198C696.2 980.598 706.5 981.698 709.7 977.298C712.9 972.898 713.8 952.798 713.8 952.798L716.5 938.598C716.5 938.598 723.8 958.498 724.8 960.798C725.9 963.098 708.8 981.998 706.2 988.398C703.5 994.798 712.4 1000.3 715.4 999.298C718.4 998.298 742 978.398 744.3 974.698C746.6 970.998 748.6 929.898 747.3 923.798C746.4 919.298 728.5 886.798 719.2 869.398L719.1 869.498Z" fill="url(#paint14_linear_2394_71808)"/>
<path d="M691.9 685.599C687.8 680.999 645.2 696.799 645.2 696.799L644.9 767.799C644.9 767.799 663.9 842.999 671.6 866.399C671.8 866.599 671.9 866.699 671.9 866.699C671.9 866.699 654.3 766.499 653.2 761.599C652.1 756.699 647.3 704.299 654.6 701.599C661.9 698.899 688.1 692.099 690 694.599C691.5 696.499 701.8 778.599 707.2 814.199C701.5 763.599 694.9 688.899 692 685.599H691.9Z" fill="url(#paint15_linear_2394_71808)"/>
<path d="M379.7 283.899C369.6 286.999 364.9 301.599 369.1 316.499C373.3 331.399 384.9 340.899 395 337.699C405.1 334.599 409.8 319.999 405.6 305.099C401.4 290.199 389.8 280.699 379.7 283.899Z" fill="url(#paint16_linear_2394_71808)"/>
<path d="M548.301 196.8C543.201 161.9 445.301 143.8 415.501 191.1C405.901 213.1 394.801 254.4 389.101 295.4C389.101 295 389.101 294.7 389.101 294.7C389.101 294.7 359.701 401.3 456.901 408.4C550.501 415.2 566.501 369.3 563.401 305.3C564.101 269.4 555.101 223.7 548.201 196.8H548.301Z" fill="url(#paint17_linear_2394_71808)"/>
<g opacity="0.4">
<path d="M550.413 325.607C555.345 304.243 544.206 283.43 525.533 279.119C506.86 274.808 487.724 288.632 482.792 309.995C477.86 331.359 488.999 352.173 507.672 356.484C526.345 360.795 545.481 346.971 550.413 325.607Z" fill="#FF9E78"/>
<path d="M550.023 325.516C554.918 304.314 543.879 283.661 525.368 279.388C506.856 275.114 487.881 288.837 482.986 310.04C478.091 331.242 489.13 351.894 507.641 356.168C526.153 360.442 545.128 346.718 550.023 325.516Z" fill="#FF9D77"/>
<path d="M549.828 325.471C554.698 304.376 543.727 283.831 525.323 279.582C506.919 275.333 488.051 288.989 483.181 310.084C478.311 331.179 489.283 351.724 507.687 355.973C526.091 360.222 544.958 346.565 549.828 325.471Z" fill="#FF9C77"/>
<path d="M549.633 325.427C554.466 304.494 543.551 284.1 525.255 279.876C506.958 275.651 488.208 289.197 483.376 310.13C478.543 331.063 489.457 351.457 507.754 355.682C526.05 359.906 544.8 346.36 549.633 325.427Z" fill="#FF9B76"/>
<path d="M549.438 325.381C554.246 304.556 543.399 284.269 525.21 280.07C507.021 275.871 488.379 289.349 483.571 310.175C478.763 331 489.61 351.287 507.799 355.486C525.988 359.685 544.63 346.207 549.438 325.381Z" fill="#FF9A76"/>
<path d="M549.344 325.236C554.115 304.572 543.325 284.436 525.244 280.262C507.162 276.088 488.637 289.455 483.867 310.119C479.096 330.784 489.886 350.919 507.967 355.094C526.049 359.268 544.574 345.9 549.344 325.236Z" fill="#FF9975"/>
<path d="M549.052 325.169C553.785 304.666 543.095 284.691 525.176 280.554C507.256 276.417 488.892 289.684 484.159 310.187C479.425 330.69 490.115 350.664 508.034 354.801C525.954 358.939 544.318 345.672 549.052 325.169Z" fill="#FF9875"/>
<path d="M548.759 325.102C553.468 304.707 542.846 284.84 525.033 280.727C507.221 276.615 488.965 289.815 484.256 310.21C479.548 330.605 490.17 350.472 507.982 354.585C525.794 358.697 544.051 345.497 548.759 325.102Z" fill="#FF9774"/>
<path d="M548.564 325.056C553.235 304.822 542.67 285.106 524.965 281.019C507.261 276.931 489.122 290.021 484.45 310.254C479.779 330.488 490.344 350.204 508.049 354.292C525.753 358.379 543.893 345.29 548.564 325.056Z" fill="#FF9674"/>
<path d="M548.369 325.013C553.016 304.886 542.517 285.278 524.921 281.215C507.324 277.153 489.292 290.175 484.646 310.301C479.999 330.427 490.497 350.036 508.094 354.098C525.691 358.161 543.723 345.139 548.369 325.013Z" fill="#FF9573"/>
<path d="M548.077 324.943C552.686 304.979 542.288 285.531 524.853 281.506C507.417 277.48 489.547 290.402 484.937 310.367C480.328 330.331 490.726 349.779 508.161 353.804C525.597 357.829 543.467 344.908 548.077 324.943Z" fill="#FF9472"/>
<path d="M547.982 324.9C552.566 305.043 542.236 285.703 524.908 281.702C507.58 277.702 489.817 290.556 485.232 310.413C480.648 330.27 490.979 349.61 508.306 353.611C525.634 357.611 543.397 344.757 547.982 324.9Z" fill="#FF9372"/>
<path d="M547.788 324.854C552.335 305.159 542.062 285.969 524.842 281.994C507.621 278.018 489.976 290.762 485.429 310.457C480.881 330.153 491.155 349.342 508.375 353.318C525.595 357.293 543.241 344.55 547.788 324.854Z" fill="#FF9271"/>
<path d="M547.496 324.687C552.018 305.1 541.812 286.018 524.699 282.067C507.587 278.116 490.048 290.793 485.526 310.381C481.004 329.969 491.21 349.05 508.323 353.001C525.435 356.952 542.974 344.275 547.496 324.687Z" fill="#FF9171"/>
<path d="M547.301 324.642C551.785 305.215 541.636 286.284 524.631 282.359C507.626 278.433 490.205 290.998 485.72 310.425C481.235 329.851 491.385 348.782 508.39 352.708C525.395 356.634 542.816 344.068 547.301 324.642Z" fill="#FF9070"/>
<path d="M547.009 324.575C551.469 305.256 541.43 286.442 524.587 282.554C507.743 278.665 490.473 291.174 486.013 310.493C481.553 329.812 491.592 348.625 508.435 352.514C525.279 356.402 542.549 343.894 547.009 324.575Z" fill="#FF8F70"/>
<path d="M546.813 324.529C551.236 305.372 541.254 286.709 524.519 282.845C507.783 278.982 490.63 291.38 486.207 310.537C481.785 329.694 491.766 348.357 508.502 352.221C525.238 356.084 542.39 343.686 546.813 324.529Z" fill="#FF8E6F"/>
<path d="M546.717 324.485C551.103 305.489 541.178 286.978 524.55 283.139C507.922 279.3 490.887 291.587 486.501 310.583C482.116 329.579 492.04 348.091 508.669 351.93C525.297 355.768 542.332 343.481 546.717 324.485Z" fill="#FF8D6F"/>
<path d="M546.523 324.44C550.884 305.551 541.026 287.147 524.505 283.333C507.985 279.519 491.057 291.739 486.697 310.628C482.336 329.516 492.193 347.92 508.714 351.734C525.235 355.548 542.162 343.328 546.523 324.44Z" fill="#FF8C6E"/>
<path d="M546.134 324.349C550.458 305.622 540.701 287.379 524.342 283.602C507.983 279.826 491.216 291.945 486.893 310.672C482.569 329.399 492.326 347.642 508.685 351.419C525.044 355.195 541.811 343.076 546.134 324.349Z" fill="#FF8B6E"/>
<path d="M545.938 324.304C550.237 305.684 540.547 287.549 524.295 283.797C508.044 280.045 491.385 292.097 487.086 310.717C482.787 329.336 492.477 347.471 508.729 351.223C524.98 354.975 541.639 342.923 545.938 324.304Z" fill="#FF8A6D"/>
<path d="M545.744 324.16C550.006 305.702 540.373 287.718 524.229 283.991C508.085 280.264 491.544 292.205 487.282 310.663C483.021 329.121 492.654 347.105 508.798 350.833C524.941 354.56 541.483 342.618 545.744 324.16Z" fill="#FF896C"/>
<path d="M545.55 324.115C549.786 305.764 540.221 287.887 524.185 284.185C508.148 280.483 491.714 292.357 487.477 310.708C483.241 329.058 492.807 346.935 508.843 350.637C524.879 354.339 541.313 342.465 545.55 324.115Z" fill="#FF886C"/>
<path d="M545.354 324.069C549.554 305.88 540.045 288.154 524.116 284.477C508.188 280.799 491.871 292.563 487.672 310.752C483.472 328.941 492.981 346.667 508.91 350.344C524.838 354.022 541.155 342.258 545.354 324.069Z" fill="#FF876B"/>
<path d="M545.162 324.002C549.337 305.921 539.939 288.312 524.172 284.672C508.404 281.032 492.239 292.739 488.064 310.82C483.89 328.901 493.288 346.51 509.055 350.15C524.822 353.79 540.988 342.083 545.162 324.002Z" fill="#FF866B"/>
<path d="M544.869 323.935C549.006 306.015 539.665 288.557 524.006 284.942C508.346 281.327 492.298 292.923 488.161 310.843C484.024 328.762 493.365 346.22 509.024 349.835C524.684 353.45 540.732 341.854 544.869 323.935Z" fill="#FF856A"/>
<path d="M544.675 323.889C548.787 306.077 539.513 288.727 523.961 285.136C508.409 281.546 492.468 293.075 488.356 310.887C484.244 328.699 493.517 346.049 509.069 349.64C524.621 353.23 540.562 341.701 544.675 323.889Z" fill="#FF846A"/>
<path d="M544.479 323.843C548.554 306.193 539.337 288.994 523.893 285.428C508.449 281.862 492.625 293.281 488.55 310.931C484.475 328.582 493.692 345.781 509.136 349.347C524.581 352.912 540.404 341.494 544.479 323.843Z" fill="#FF8369"/>
<path d="M544.187 323.776C548.237 306.233 539.132 289.152 523.849 285.623C508.566 282.095 492.893 293.456 488.843 310.999C484.793 328.542 493.899 345.624 509.182 349.152C524.465 352.681 540.137 341.319 544.187 323.776Z" fill="#FF8269"/>
<path d="M543.992 323.631C548.005 306.25 538.956 289.319 523.781 285.815C508.605 282.312 493.05 293.562 489.037 310.944C485.025 328.325 494.073 345.256 509.249 348.76C524.424 352.263 539.979 341.013 543.992 323.631Z" fill="#FF8168"/>
<path d="M543.898 323.587C547.874 306.367 538.882 289.588 523.814 286.109C508.746 282.63 493.309 293.77 489.333 310.99C485.358 328.21 494.349 344.99 509.417 348.469C524.485 351.947 539.922 340.807 543.898 323.587Z" fill="#FF8067"/>
<path d="M543.703 323.542C547.654 306.429 538.729 289.757 523.769 286.303C508.809 282.849 493.479 293.922 489.528 311.035C485.578 328.147 494.502 344.819 509.463 348.273C524.423 351.727 539.753 340.654 543.703 323.542Z" fill="#FF7F67"/>
<path d="M543.41 323.475C547.324 306.524 538.456 290.002 523.604 286.573C508.751 283.144 493.538 294.106 489.625 311.057C485.712 328.008 494.579 344.53 509.432 347.959C524.284 351.388 539.497 340.426 543.41 323.475Z" fill="#FF7E66"/>
<path d="M543.119 323.408C547.007 306.564 538.25 290.16 523.559 286.769C508.868 283.377 493.807 294.282 489.918 311.125C486.029 327.969 494.786 344.373 509.477 347.764C524.168 351.156 539.23 340.251 543.119 323.408Z" fill="#FF7D66"/>
<path d="M542.923 323.362C546.774 306.68 538.074 290.427 523.491 287.06C508.908 283.693 493.964 294.488 490.112 311.17C486.261 327.852 494.961 344.104 509.544 347.471C524.127 350.838 539.072 340.044 542.923 323.362Z" fill="#FF7C65"/>
<path d="M542.728 323.316C546.555 306.742 537.922 290.597 523.446 287.255C508.971 283.913 494.134 294.64 490.307 311.214C486.481 327.788 495.114 343.934 509.589 347.276C524.065 350.618 538.902 339.891 542.728 323.316Z" fill="#FF7B65"/>
<path d="M542.635 323.273C546.424 306.86 537.848 290.865 523.48 287.548C509.112 284.231 494.392 294.847 490.603 311.26C486.814 327.673 495.39 343.668 509.758 346.985C524.126 350.302 538.845 339.686 542.635 323.273Z" fill="#FF7A64"/>
<path d="M542.341 323.104C546.105 306.799 537.64 290.922 523.434 287.642C509.227 284.362 494.659 294.921 490.894 311.227C487.13 327.532 495.595 343.409 509.801 346.689C524.008 349.969 538.576 339.409 542.341 323.104Z" fill="#FF7964"/>
<path d="M542.05 323.037C545.777 306.893 537.369 291.167 523.27 287.912C509.171 284.657 494.72 295.105 490.993 311.249C487.266 327.393 495.674 343.119 509.773 346.374C523.872 349.629 538.323 339.181 542.05 323.037Z" fill="#FF7863"/>
<path d="M541.853 322.991C545.555 306.955 537.214 291.337 523.223 288.106C509.232 284.876 494.888 295.258 491.186 311.294C487.484 327.33 495.825 342.949 509.816 346.179C523.807 349.409 538.151 339.028 541.853 322.991Z" fill="#FF7762"/>
<path d="M541.66 322.948C545.325 307.073 537.041 291.605 523.157 288.4C509.273 285.195 495.047 295.465 491.382 311.34C487.717 327.215 496.001 342.682 509.885 345.888C523.769 349.093 537.995 338.822 541.66 322.948Z" fill="#FF7762"/>
<path d="M541.464 322.902C545.092 307.188 536.865 291.872 523.089 288.691C509.313 285.511 495.204 295.671 491.576 311.384C487.949 327.098 496.176 342.414 509.952 345.595C523.728 348.775 537.836 338.615 541.464 322.902Z" fill="#FF7661"/>
<path d="M541.272 322.835C544.875 307.229 536.759 292.03 523.144 288.887C509.529 285.744 495.572 295.846 491.969 311.452C488.366 327.058 496.482 342.257 510.097 345.4C523.712 348.543 537.669 338.441 541.272 322.835Z" fill="#FF7561"/>
<path d="M541.077 322.789C544.642 307.345 536.583 292.297 523.076 289.178C509.569 286.06 495.729 296.052 492.163 311.497C488.598 326.941 496.657 341.989 510.164 345.107C523.671 348.226 537.511 338.233 541.077 322.789Z" fill="#FF7460"/>
<path d="M540.784 322.622C544.325 307.286 536.333 292.345 522.934 289.252C509.534 286.158 495.801 296.083 492.261 311.42C488.72 326.757 496.712 341.697 510.111 344.791C523.511 347.884 537.244 337.959 540.784 322.622Z" fill="#FF7360"/>
<path d="M540.591 322.577C544.094 307.402 536.159 292.612 522.867 289.543C509.576 286.475 495.96 296.289 492.457 311.464C488.953 326.639 496.888 341.429 510.18 344.498C523.472 347.566 537.087 337.752 540.591 322.577Z" fill="#FF725F"/>
<path d="M540.297 322.51C543.776 307.442 535.951 292.77 522.821 289.739C509.691 286.707 496.226 296.464 492.748 311.532C489.269 326.6 497.093 341.272 510.224 344.303C523.354 347.335 536.818 337.577 540.297 322.51Z" fill="#FF715F"/>
<path d="M540.104 322.464C543.545 307.558 535.778 293.037 522.755 290.03C509.732 287.024 496.385 296.67 492.944 311.576C489.503 326.483 497.27 341.004 510.293 344.01C523.315 347.017 536.662 337.37 540.104 322.464Z" fill="#FF705E"/>
<path d="M540.009 322.42C543.425 307.622 535.725 293.208 522.81 290.226C509.895 287.245 496.655 296.824 493.239 311.623C489.822 326.421 497.523 340.835 510.438 343.817C523.353 346.798 536.592 337.219 540.009 322.42Z" fill="#FF6F5E"/>
<path d="M539.813 322.375C543.192 307.738 535.549 293.475 522.742 290.518C509.934 287.561 496.812 297.03 493.433 311.667C490.054 326.304 497.697 340.567 510.504 343.524C523.312 346.481 536.434 337.012 539.813 322.375Z" fill="#FF6E5D"/>
<path d="M539.521 322.308C542.875 307.778 535.299 293.623 522.6 290.691C509.9 287.759 496.885 297.161 493.531 311.69C490.176 326.22 497.752 340.375 510.452 343.307C523.152 346.239 536.167 336.837 539.521 322.308Z" fill="#FF6D5C"/>
<path d="M539.228 322.24C542.545 307.872 535.07 293.878 522.532 290.983C509.993 288.089 497.14 297.39 493.823 311.758C490.505 326.126 497.981 340.12 510.519 343.015C523.058 345.91 535.911 336.609 539.228 322.24Z" fill="#FF6C5C"/>
<path d="M539.033 322.095C542.313 307.889 534.894 294.045 522.463 291.175C510.033 288.306 497.297 297.496 494.017 311.702C490.737 325.909 498.155 339.752 510.586 342.622C523.017 345.492 535.753 336.302 539.033 322.095Z" fill="#FF6B5B"/>
<path d="M538.838 322.05C542.093 307.951 534.742 294.215 522.419 291.37C510.096 288.525 497.467 297.648 494.212 311.747C490.957 325.846 498.308 339.582 510.631 342.427C522.955 345.272 535.583 336.149 538.838 322.05Z" fill="#FF6A5B"/>
<path d="M538.645 322.004C541.862 308.066 534.568 294.482 522.353 291.661C510.137 288.841 497.626 297.854 494.408 311.791C491.191 325.729 498.485 339.314 510.7 342.134C522.916 344.954 535.427 335.942 538.645 322.004Z" fill="#FF695A"/>
<path d="M538.451 321.937C541.644 308.107 534.46 294.64 522.406 291.857C510.352 289.074 497.992 298.029 494.799 311.859C491.606 325.689 498.789 339.156 510.843 341.939C522.898 344.722 535.258 335.767 538.451 321.937Z" fill="#FF685A"/>
<path d="M538.159 321.87C541.315 308.201 534.189 294.885 522.242 292.127C510.296 289.369 498.053 298.213 494.897 311.882C491.742 325.55 498.868 338.867 510.815 341.625C522.761 344.383 535.004 335.538 538.159 321.87Z" fill="#FF6759"/>
<path d="M537.965 321.824C541.096 308.263 534.036 295.054 522.198 292.321C510.359 289.588 498.223 298.365 495.093 311.926C491.962 325.487 499.021 338.696 510.86 341.429C522.699 344.163 534.834 335.385 537.965 321.824Z" fill="#FF6659"/>
<path d="M537.769 321.78C540.863 308.381 533.861 295.323 522.129 292.615C510.398 289.906 498.38 298.573 495.287 311.973C492.193 325.372 499.196 338.43 510.927 341.138C522.658 343.847 534.676 335.18 537.769 321.78Z" fill="#FF6558"/>
<path d="M537.575 321.735C540.644 308.443 533.708 295.493 522.085 292.809C510.461 290.126 498.551 298.725 495.482 312.017C492.413 325.309 499.349 338.259 510.972 340.943C522.596 343.626 534.506 335.027 537.575 321.735Z" fill="#FF6457"/>
<path d="M537.282 321.568C540.314 308.438 533.479 295.648 522.017 293.002C510.555 290.356 498.805 298.855 495.774 311.985C492.743 325.116 499.577 337.905 511.039 340.551C522.501 343.197 534.251 334.698 537.282 321.568Z" fill="#FF6357"/>
<path d="M537.187 321.523C540.194 308.5 533.426 295.818 522.072 293.196C510.717 290.575 499.075 299.007 496.069 312.03C493.062 325.052 499.83 337.734 511.184 340.356C522.539 342.977 534.181 334.545 537.187 321.523Z" fill="#FF6256"/>
<path d="M536.896 321.455C539.865 308.594 533.155 296.063 521.908 293.466C510.661 290.87 499.137 299.191 496.167 312.052C493.198 324.914 499.908 337.445 511.155 340.041C522.402 342.638 533.927 334.317 536.896 321.455Z" fill="#FF6156"/>
<path d="M536.7 321.41C539.644 308.656 533.001 296.233 521.861 293.661C510.722 291.089 499.305 299.343 496.361 312.097C493.416 324.851 500.059 337.274 511.199 339.846C522.338 342.418 533.755 334.164 536.7 321.41Z" fill="#FF6055"/>
<path d="M536.409 321.343C539.316 308.75 532.773 296.488 521.795 293.953C510.818 291.419 499.562 299.572 496.654 312.165C493.747 324.757 500.29 337.019 511.268 339.554C522.246 342.088 533.502 333.935 536.409 321.343Z" fill="#FF5F55"/>
<path d="M536.213 321.297C539.083 308.866 532.598 296.754 521.727 294.245C510.857 291.735 499.719 299.778 496.849 312.209C493.979 324.64 500.464 336.751 511.335 339.261C522.205 341.77 533.343 333.728 536.213 321.297Z" fill="#FF5E54"/>
<path d="M536.019 321.253C538.864 308.93 532.445 296.926 521.683 294.441C510.92 291.956 499.889 299.932 497.044 312.255C494.199 324.578 500.617 336.583 511.38 339.067C522.143 341.552 533.174 333.577 536.019 321.253Z" fill="#FF5D54"/>
<path d="M535.923 321.208C538.731 309.046 532.369 297.193 521.714 294.733C511.059 292.273 500.146 300.138 497.338 312.3C494.53 324.461 500.891 336.314 511.546 338.774C522.201 341.234 533.115 333.369 535.923 321.208Z" fill="#FF5C53"/>
<path d="M535.631 321.039C538.414 308.985 532.119 297.239 521.572 294.804C511.025 292.369 500.218 300.167 497.435 312.221C494.652 324.275 500.947 336.021 511.494 338.456C522.041 340.891 532.848 333.093 535.631 321.039Z" fill="#FF5B53"/>
<path d="M535.338 320.972C538.084 309.079 531.89 297.494 521.504 295.097C511.118 292.699 500.473 300.396 497.727 312.289C494.982 324.181 501.175 335.766 511.561 338.164C521.947 340.562 532.592 332.864 535.338 320.972Z" fill="#FF5A52"/>
<path d="M535.143 320.928C537.864 309.143 531.738 297.666 521.459 295.293C511.181 292.92 500.643 300.55 497.923 312.335C495.202 324.12 501.328 335.597 511.607 337.97C521.885 340.343 532.423 332.713 535.143 320.928Z" fill="#FF5951"/>
<path d="M534.948 320.883C537.631 309.259 531.562 297.933 521.391 295.585C511.221 293.236 500.8 300.756 498.117 312.379C495.433 324.003 501.503 335.329 511.673 337.677C521.844 340.025 532.264 332.506 534.948 320.883Z" fill="#FF5851"/>
<path d="M534.753 320.837C537.412 309.321 531.41 298.102 521.347 295.779C511.284 293.456 500.971 300.908 498.312 312.424C495.653 323.94 501.656 335.159 511.719 337.482C521.782 339.805 532.095 332.353 534.753 320.837Z" fill="#FF5750"/>
<path d="M534.562 320.77C537.184 309.415 531.282 298.357 521.38 296.071C511.479 293.785 501.327 301.137 498.705 312.492C496.084 323.846 501.986 334.904 511.887 337.19C521.789 339.476 531.941 332.124 534.562 320.77Z" fill="#FF5650"/>
<path d="M534.27 320.703C536.867 309.456 531.032 298.505 521.238 296.244C511.444 293.983 501.4 301.268 498.803 312.515C496.206 323.761 502.041 334.712 511.835 336.973C521.629 339.234 531.674 331.95 534.27 320.703Z" fill="#FF554F"/>
<path d="M534.075 320.657C536.634 309.572 530.856 298.772 521.17 296.536C511.484 294.3 501.557 301.473 498.997 312.559C496.438 323.644 502.216 334.444 511.902 336.68C521.588 338.916 531.515 331.743 534.075 320.657Z" fill="#FF544F"/>
<path d="M533.879 320.512C536.401 309.588 530.68 298.939 521.102 296.728C511.523 294.517 501.714 301.579 499.192 312.504C496.669 323.428 502.39 334.076 511.969 336.287C521.547 338.499 531.357 331.436 533.879 320.512Z" fill="#FF534E"/>
<path d="M533.685 320.468C536.182 309.652 530.528 299.111 521.057 296.924C511.586 294.738 501.884 301.734 499.387 312.55C496.89 323.366 502.543 333.907 512.014 336.094C521.485 338.28 531.187 331.285 533.685 320.468Z" fill="#FF524E"/>
<path d="M533.392 320.401C535.852 309.746 530.299 299.366 520.989 297.217C511.68 295.067 502.139 301.963 499.679 312.618C497.219 323.273 502.772 333.653 512.081 335.802C521.391 337.951 530.932 331.056 533.392 320.401Z" fill="#FF514D"/>
</g>
<path d="M584.701 288.099C574.801 284.399 562.701 293.099 557.501 307.699C552.401 322.299 556.201 337.099 566.101 340.899C576.001 344.599 588.101 335.899 593.301 321.299C598.401 306.699 594.601 291.899 584.701 288.099Z" fill="#FF9E78"/>
<path d="M584.9 322.699C575.1 328.699 564.9 326.499 557.6 320.299C557.6 324.099 557.3 328.899 556.4 334.499H556.6L555.5 371.499C559.7 362.199 562 351.399 563.1 339.299C564 339.899 565 340.499 566 340.899C575.9 344.599 588 335.899 593.2 321.299C594.5 317.499 595.2 313.799 595.4 310.199C593.5 315.199 590.2 319.599 585.1 322.799L584.9 322.699Z" fill="url(#paint18_linear_2394_71808)"/>
<path d="M567.801 314.4L576.901 315.9C577.101 301.5 587.801 297 587.801 297C570.601 290.4 567.801 314.5 567.801 314.5V314.4Z" fill="url(#paint19_linear_2394_71808)"/>
<path d="M512.8 133.099C485.3 114.299 449.1 112.199 449.1 112.199C447.6 114.499 446.8 118.299 447.3 120.999C424.6 119.799 406.8 121.899 406.8 121.899C401.4 148.899 408.7 165.099 416.9 174.399C419.9 177.799 424.1 183.499 436.4 189.099C436.4 189.099 449.4 196.799 470 197.599C488.5 198.299 514.9 189.099 514.9 189.099C533.3 188.999 558 246.499 559.7 292.399C560.1 302.899 569.4 290.899 569.4 290.899C569.4 290.899 570.5 279.399 570 262.999C570 262.899 590.9 201.299 575.5 173.399" fill="url(#paint20_linear_2394_71808)"/>
<path d="M408.801 161.199C381.101 169.099 389.101 269.699 389.401 286.199C389.401 287.399 389.301 288.199 389.101 289.499C389.101 290.099 391.301 289.999 391.101 289.399C390.901 288.399 391.101 286.799 391.201 286.199C395.501 255.799 420.901 189.699 436.201 189.099C436.201 189.099 421.701 180.099 408.701 161.199H408.801Z" fill="#59352C"/>
<g opacity="0.4">
<path d="M432.318 351.548C450.735 348.861 463.035 328.652 459.79 306.409C456.545 284.167 438.985 268.314 420.568 271C402.151 273.687 389.851 293.896 393.096 316.139C396.341 338.381 413.901 354.235 432.318 351.548Z" fill="#FF9E78"/>
<path d="M432.289 351.349C450.597 348.678 462.821 328.57 459.592 306.437C456.363 284.304 438.904 268.526 420.596 271.197C402.289 273.868 390.065 293.976 393.294 316.109C396.523 338.242 413.981 354.02 432.289 351.349Z" fill="#FF9D77"/>
<path d="M432.246 351.052C450.389 348.405 462.5 328.45 459.295 306.481C456.09 284.512 438.783 268.848 420.639 271.494C402.496 274.141 390.385 294.097 393.59 316.066C396.795 338.035 414.102 353.699 432.246 351.052Z" fill="#FF9C77"/>
<path d="M432.203 350.755C450.238 348.124 462.279 328.315 459.098 306.509C455.917 284.704 438.718 269.16 420.684 271.791C402.649 274.422 390.608 294.231 393.789 316.037C396.97 337.842 414.169 353.386 432.203 350.755Z" fill="#FF9B76"/>
<path d="M432.174 350.558C450.099 347.943 462.065 328.235 458.9 306.539C455.735 284.843 438.637 269.375 420.712 271.99C402.787 274.605 390.822 294.313 393.987 316.009C397.152 337.705 414.249 353.173 432.174 350.558Z" fill="#FF9A76"/>
<path d="M432.13 350.261C449.946 347.662 461.842 328.1 458.701 306.567C455.56 285.035 438.571 269.687 420.755 272.286C402.939 274.885 391.043 294.447 394.184 315.979C397.325 337.512 414.314 352.86 432.13 350.261Z" fill="#FF9975"/>
<path d="M432.101 350.062C449.807 347.479 461.628 328.018 458.503 306.595C455.377 285.172 438.49 269.9 420.783 272.483C403.077 275.066 391.256 294.527 394.381 315.95C397.507 337.372 414.394 352.645 432.101 350.062Z" fill="#FF9875"/>
<path d="M432.058 349.767C449.656 347.199 461.407 327.885 458.306 306.626C455.204 285.367 438.425 270.214 420.828 272.781C403.23 275.349 391.479 294.663 394.58 315.922C397.682 337.181 414.461 352.334 432.058 349.767Z" fill="#FF9774"/>
<path d="M432.016 349.469C449.504 346.918 461.186 327.749 458.109 306.654C455.031 285.559 438.36 270.527 420.872 273.078C403.384 275.629 391.702 294.798 394.779 315.893C397.857 336.988 414.528 352.02 432.016 349.469Z" fill="#FF9674"/>
<path d="M431.986 349.271C449.31 346.744 460.872 327.683 457.81 306.697C454.749 285.712 438.223 270.748 420.899 273.275C403.575 275.803 392.013 294.864 395.075 315.849C398.136 336.835 414.662 351.798 431.986 349.271Z" fill="#FF9573"/>
<path d="M431.943 348.974C449.158 346.462 460.651 327.547 457.614 306.726C454.576 285.904 438.158 271.061 420.944 273.572C403.729 276.083 392.236 294.998 395.273 315.82C398.311 336.642 414.729 351.485 431.943 348.974Z" fill="#FF9472"/>
<path d="M431.899 348.677C449.005 346.181 460.428 327.412 457.415 306.754C454.401 286.096 438.091 271.373 420.986 273.868C403.88 276.364 392.457 295.133 395.47 315.791C398.484 336.449 414.794 351.172 431.899 348.677Z" fill="#FF9372"/>
<path d="M431.87 348.48C448.866 346 460.214 327.332 457.217 306.784C454.219 286.235 438.011 271.588 421.014 274.067C404.018 276.547 392.67 295.214 395.668 315.763C398.666 336.311 414.874 350.959 431.87 348.48Z" fill="#FF9271"/>
<path d="M431.828 348.182C448.715 345.719 459.993 327.197 457.02 306.812C454.046 286.428 437.946 271.9 421.059 274.364C404.172 276.827 392.893 295.349 395.867 315.734C398.841 336.118 414.941 350.646 431.828 348.182Z" fill="#FF9171"/>
<path d="M431.799 347.985C448.576 345.538 459.779 327.117 456.822 306.842C453.864 286.567 437.865 272.115 421.087 274.562C404.31 277.01 393.107 295.43 396.065 315.706C399.022 335.981 415.021 350.433 431.799 347.985Z" fill="#FF9070"/>
<path d="M431.755 347.689C448.369 345.265 459.458 326.997 456.524 306.886C453.59 286.775 437.744 272.436 421.13 274.86C404.517 277.283 393.427 295.551 396.361 315.663C399.295 335.774 415.141 350.112 431.755 347.689Z" fill="#FF8F70"/>
<path d="M431.713 347.391C448.217 344.984 459.237 326.861 456.327 306.914C453.417 286.967 437.679 272.748 421.175 275.156C404.67 277.564 393.65 295.686 396.56 315.633C399.47 335.581 415.208 349.799 431.713 347.391Z" fill="#FF8E6F"/>
<path d="M431.684 347.192C448.079 344.801 459.023 326.78 456.129 306.942C453.235 287.104 437.598 272.961 421.203 275.353C404.808 277.745 393.864 295.765 396.758 315.603C399.652 335.441 415.289 349.584 431.684 347.192Z" fill="#FF8D6F"/>
<path d="M431.639 346.897C447.925 344.521 458.8 326.646 455.93 306.972C453.06 287.298 437.531 273.275 421.246 275.651C404.96 278.027 394.085 295.902 396.955 315.576C399.825 335.25 415.354 349.273 431.639 346.897Z" fill="#FF8C6E"/>
<path d="M431.61 346.698C447.787 344.338 458.586 326.565 455.732 307C452.878 287.436 437.451 273.488 421.274 275.848C405.098 278.208 394.298 295.981 397.152 315.546C400.007 335.111 415.434 349.058 431.61 346.698Z" fill="#FF8B6E"/>
<path d="M431.568 346.401C447.635 344.057 458.366 326.429 455.535 307.029C452.705 287.628 437.386 273.801 421.319 276.145C405.252 278.489 394.521 296.116 397.351 315.517C400.181 334.918 415.501 348.745 431.568 346.401Z" fill="#FF8A6D"/>
<path d="M431.524 346.104C447.427 343.784 458.045 326.309 455.238 307.072C452.432 287.836 437.265 274.122 421.362 276.442C405.458 278.762 394.841 296.237 397.648 315.474C400.454 334.711 415.621 348.424 431.524 346.104Z" fill="#FF896C"/>
<path d="M431.495 345.907C447.289 343.603 457.83 326.23 455.04 307.102C452.25 287.975 437.184 274.337 421.39 276.641C405.596 278.945 395.055 296.318 397.845 315.446C400.636 334.573 415.701 348.211 431.495 345.907Z" fill="#FF886C"/>
<path d="M431.453 345.61C447.137 343.322 457.61 326.094 454.843 307.131C452.077 288.167 437.119 274.649 421.435 276.937C405.75 279.225 395.278 296.453 398.044 315.417C400.811 334.38 415.768 347.898 431.453 345.61Z" fill="#FF876B"/>
<path d="M431.424 345.411C446.999 343.139 457.396 326.013 454.645 307.158C451.894 288.304 437.038 274.862 421.463 277.134C405.888 279.406 395.491 296.532 398.242 315.387C400.993 334.241 415.849 347.683 431.424 345.411Z" fill="#FF866B"/>
<path d="M431.379 345.116C446.845 342.86 457.173 325.879 454.446 307.189C451.719 288.499 436.971 275.176 421.506 277.432C406.04 279.689 395.712 296.669 398.439 315.359C401.166 334.05 415.914 347.372 431.379 345.116Z" fill="#FF856A"/>
<path d="M431.337 344.819C446.694 342.578 456.952 325.744 454.249 307.217C451.546 288.691 436.906 275.488 421.55 277.729C406.193 279.969 395.935 296.804 398.638 315.33C401.341 333.856 415.981 347.059 431.337 344.819Z" fill="#FF846A"/>
<path d="M431.308 344.62C446.555 342.395 456.738 325.662 454.051 307.245C451.364 288.828 436.826 275.701 421.578 277.926C406.331 280.15 396.149 296.883 398.836 315.3C401.522 333.717 416.061 346.844 431.308 344.62Z" fill="#FF8369"/>
<path d="M431.264 344.323C446.348 342.123 456.417 325.542 453.754 307.289C451.091 289.036 436.705 276.022 421.621 278.223C406.538 280.423 396.469 297.004 399.132 315.257C401.795 333.51 416.181 346.524 431.264 344.323Z" fill="#FF8269"/>
<path d="M431.235 344.126C446.209 341.942 456.203 325.462 453.556 307.319C450.909 289.175 436.624 276.237 421.65 278.422C406.676 280.606 396.683 297.085 399.33 315.229C401.977 333.373 416.261 346.311 431.235 344.126Z" fill="#FF8168"/>
<path d="M431.193 343.829C446.058 341.66 455.982 325.327 453.359 307.347C450.736 289.367 436.559 276.55 421.694 278.718C406.83 280.887 396.906 297.22 399.529 315.2C402.152 333.18 416.328 345.997 431.193 343.829Z" fill="#FF8067"/>
<path d="M431.149 343.532C445.904 341.379 455.759 325.191 453.16 307.375C450.561 289.56 436.492 276.862 421.737 279.014C406.981 281.167 397.126 297.355 399.726 315.171C402.325 332.987 416.393 345.684 431.149 343.532Z" fill="#FF7F67"/>
<path d="M431.12 343.335C445.766 341.198 455.545 325.112 452.962 307.405C450.379 289.699 436.412 277.077 421.765 279.213C407.119 281.35 397.34 297.436 399.923 315.143C402.506 332.849 416.473 345.471 431.12 343.335Z" fill="#FF7E66"/>
<path d="M431.077 343.037C445.614 340.917 455.324 324.976 452.765 307.434C450.206 289.891 436.347 277.389 421.81 279.51C407.273 281.63 397.563 297.571 400.122 315.113C402.681 332.656 416.54 345.158 431.077 343.037Z" fill="#FF7D66"/>
<path d="M431.034 342.741C445.407 340.644 455.003 324.856 452.468 307.477C449.932 290.099 436.226 277.71 421.853 279.807C407.48 281.904 397.883 297.692 400.419 315.07C402.954 332.449 416.661 344.838 431.034 342.741Z" fill="#FF7C65"/>
<path d="M431.005 342.542C445.268 340.461 454.789 324.775 452.27 307.505C449.75 290.236 436.145 277.923 421.881 280.004C407.618 282.085 398.097 297.771 400.616 315.041C403.136 332.31 416.741 344.623 431.005 342.542Z" fill="#FF7B65"/>
<path d="M430.962 342.245C445.117 340.18 454.568 324.639 452.073 307.534C449.577 290.428 436.08 278.235 421.926 280.3C407.771 282.365 398.32 297.906 400.815 315.011C403.311 332.117 416.808 344.309 430.962 342.245Z" fill="#FF7A64"/>
<path d="M430.933 342.048C444.978 339.999 454.354 324.559 451.875 307.563C449.395 290.567 435.999 278.45 421.954 280.499C407.909 282.548 398.533 297.987 401.013 314.983C403.492 331.979 416.888 344.096 430.933 342.048Z" fill="#FF7964"/>
<path d="M430.889 341.75C444.825 339.717 454.131 324.424 451.676 307.592C449.22 290.76 435.932 278.762 421.997 280.795C408.061 282.828 398.754 298.122 401.21 314.954C403.665 331.786 416.953 343.783 430.889 341.75Z" fill="#FF7863"/>
<path d="M430.847 341.453C444.673 339.436 453.91 324.289 451.479 307.62C449.047 290.952 435.867 279.075 422.041 281.092C408.214 283.109 398.977 298.256 401.409 314.925C403.84 331.593 417.02 343.47 430.847 341.453Z" fill="#FF7762"/>
<path d="M430.816 341.257C444.479 339.264 453.596 324.224 451.18 307.665C448.765 291.106 435.731 279.298 422.068 281.291C408.406 283.285 399.288 298.324 401.704 314.883C404.12 331.442 417.154 343.25 430.816 341.257Z" fill="#FF7762"/>
<path d="M430.774 340.959C444.327 338.982 453.375 324.089 450.983 307.694C448.592 291.299 435.666 279.611 422.112 281.588C408.559 283.565 399.511 298.459 401.903 314.854C404.295 331.249 417.221 342.937 430.774 340.959Z" fill="#FF7661"/>
<path d="M430.745 340.761C444.189 338.799 453.161 324.007 450.785 307.721C448.41 291.436 435.585 279.824 422.141 281.785C408.697 283.746 399.725 298.538 402.101 314.824C404.476 331.11 417.301 342.722 430.745 340.761Z" fill="#FF7561"/>
<path d="M430.702 340.465C444.037 338.52 452.94 323.874 450.588 307.752C448.236 291.63 435.52 280.138 422.185 282.083C408.851 284.028 399.948 298.675 402.3 314.796C404.651 330.918 417.368 342.411 430.702 340.465Z" fill="#FF7460"/>
<path d="M430.658 340.168C443.883 338.239 452.718 323.738 450.39 307.78C448.062 291.823 435.453 280.45 422.228 282.38C409.002 284.309 400.168 298.809 402.496 314.767C404.824 330.725 417.433 342.097 430.658 340.168Z" fill="#FF7360"/>
<path d="M430.629 339.969C443.745 338.056 452.503 323.657 450.191 307.808C447.879 291.96 435.372 280.663 422.256 282.576C409.14 284.49 400.382 298.889 402.694 314.737C405.006 330.586 417.513 341.882 430.629 339.969Z" fill="#FF725F"/>
<path d="M430.585 339.672C443.538 337.783 452.182 323.536 449.894 307.852C447.606 292.167 435.251 280.984 422.299 282.874C409.347 284.763 400.703 299.01 402.991 314.694C405.279 330.379 417.633 341.562 430.585 339.672Z" fill="#FF715F"/>
<path d="M430.556 339.475C443.399 337.602 451.968 323.457 449.696 307.882C447.424 292.306 435.171 281.199 422.328 283.072C409.485 284.946 400.916 299.091 403.188 314.666C405.461 330.242 417.714 341.349 430.556 339.475Z" fill="#FF705E"/>
<path d="M430.514 339.178C443.247 337.321 451.747 323.321 449.499 307.91C447.251 292.499 435.106 281.511 422.372 283.369C409.639 285.227 401.139 299.226 403.387 314.637C405.636 330.048 417.781 341.036 430.514 339.178Z" fill="#FF6F5E"/>
<path d="M430.47 338.881C443.094 337.039 451.525 323.186 449.3 307.939C447.076 292.691 435.039 281.824 422.415 283.665C409.791 285.507 401.36 299.36 403.584 314.608C405.809 329.855 417.846 340.723 430.47 338.881Z" fill="#FF6E5D"/>
<path d="M430.443 338.684C442.957 336.858 451.312 323.106 449.104 307.968C446.896 292.83 434.96 282.038 422.445 283.864C409.93 285.69 401.575 299.442 403.784 314.58C405.992 329.718 417.928 340.51 430.443 338.684Z" fill="#FF6D5C"/>
<path d="M430.398 338.387C442.804 336.577 451.09 322.971 448.905 307.997C446.721 293.023 434.893 282.351 422.488 284.161C410.082 285.97 401.796 299.576 403.981 314.551C406.165 329.525 417.993 340.196 430.398 338.387Z" fill="#FF6C5C"/>
<path d="M430.356 338.089C442.652 336.296 450.869 322.835 448.708 308.025C446.548 293.215 434.828 282.663 422.532 284.457C410.236 286.251 402.019 299.711 404.18 314.521C406.34 329.331 418.06 339.883 430.356 338.089Z" fill="#FF6B5B"/>
<path d="M430.326 337.891C442.458 336.121 450.555 322.769 448.41 308.068C446.265 293.367 434.692 282.885 422.559 284.655C410.427 286.425 402.33 299.777 404.475 314.478C406.62 329.178 418.193 339.661 430.326 337.891Z" fill="#FF6A5B"/>
<path d="M430.283 337.594C442.306 335.84 450.334 322.634 448.213 308.097C446.092 293.56 434.627 283.197 422.604 284.951C410.581 286.705 402.553 299.911 404.674 314.448C406.795 328.985 418.26 339.348 430.283 337.594Z" fill="#FF695A"/>
<path d="M430.254 337.397C442.168 335.659 450.12 322.554 448.015 308.126C445.91 293.699 434.546 283.412 422.632 285.15C410.718 286.888 402.767 299.993 404.872 314.42C406.976 328.848 418.341 339.135 430.254 337.397Z" fill="#FF685A"/>
<path d="M430.21 337.1C442.014 335.378 449.897 322.419 447.816 308.155C445.735 293.891 434.479 283.724 422.675 285.446C410.87 287.168 402.988 300.127 405.068 314.391C407.149 328.655 418.406 338.822 430.21 337.1Z" fill="#FF6759"/>
<path d="M430.168 336.802C441.863 335.096 449.676 322.283 447.619 308.183C445.562 294.084 434.414 284.037 422.719 285.743C411.024 287.449 403.21 300.262 405.267 314.362C407.324 328.462 418.472 338.508 430.168 336.802Z" fill="#FF6659"/>
<path d="M430.139 336.605C441.724 334.915 449.462 322.204 447.421 308.213C445.38 294.223 434.333 284.251 422.747 285.942C411.162 287.632 403.424 300.343 405.465 314.334C407.506 328.324 418.553 338.296 430.139 336.605Z" fill="#FF6558"/>
<path d="M430.095 336.309C441.517 334.643 449.141 322.083 447.124 308.257C445.107 294.43 434.212 284.573 422.79 286.239C411.369 287.905 403.745 300.464 405.762 314.291C407.779 328.117 418.673 337.975 430.095 336.309Z" fill="#FF6457"/>
<path d="M430.066 336.11C441.378 334.46 448.927 322.002 446.926 308.285C444.925 294.567 434.132 284.785 422.819 286.436C411.507 288.086 403.958 300.544 405.959 314.261C407.96 327.978 418.753 337.76 430.066 336.11Z" fill="#FF6357"/>
<path d="M430.023 335.813C441.227 334.178 448.706 321.866 446.729 308.313C444.752 294.76 434.067 285.098 422.863 286.732C411.66 288.366 404.181 300.678 406.158 314.232C408.135 327.785 418.82 337.447 430.023 335.813Z" fill="#FF6256"/>
<path d="M429.979 335.517C441.073 333.899 448.483 321.733 446.53 308.343C444.577 294.954 434 285.412 422.906 287.031C411.812 288.649 404.402 300.815 406.355 314.204C408.308 327.594 418.885 337.136 429.979 335.517Z" fill="#FF6156"/>
<path d="M429.95 335.318C440.935 333.716 448.269 321.651 446.332 308.371C444.394 295.091 433.919 285.625 422.934 287.227C411.95 288.83 404.615 300.894 406.553 314.174C408.49 327.454 418.965 336.921 429.95 335.318Z" fill="#FF6055"/>
<path d="M429.908 335.021C440.783 333.434 448.048 321.516 446.135 308.4C444.221 295.284 433.854 285.937 422.979 287.524C412.103 289.11 404.838 301.029 406.752 314.145C408.665 327.261 419.032 336.608 429.908 335.021Z" fill="#FF5F55"/>
<path d="M429.879 334.825C440.591 333.262 447.736 321.451 445.838 308.445C443.941 295.438 433.719 286.161 423.008 287.723C412.297 289.286 405.151 301.097 407.049 314.103C408.946 327.11 419.168 336.387 429.879 334.825Z" fill="#FF5E54"/>
<path d="M429.835 334.528C440.437 332.981 447.513 321.316 445.639 308.473C443.766 295.63 433.652 286.473 423.05 288.02C412.448 289.566 405.372 301.231 407.246 314.074C409.119 326.917 419.233 336.074 429.835 334.528Z" fill="#FF5D54"/>
<path d="M429.793 334.23C440.286 332.7 447.292 321.18 445.443 308.502C443.593 295.823 433.587 286.786 423.095 288.316C412.602 289.847 405.595 301.366 407.445 314.045C409.294 326.724 419.3 335.761 429.793 334.23Z" fill="#FF5C53"/>
<path d="M429.764 334.033C440.147 332.518 447.078 321.101 445.244 308.531C443.411 295.962 433.507 287 423.123 288.515C412.74 290.03 405.809 301.447 407.642 314.017C409.476 326.586 419.38 335.548 429.764 334.033Z" fill="#FF5B53"/>
<path d="M429.719 333.736C439.994 332.237 446.855 320.965 445.046 308.56C443.236 296.154 433.44 287.313 423.166 288.811C412.891 290.31 406.03 301.582 407.839 313.988C409.649 326.393 419.445 335.235 429.719 333.736Z" fill="#FF5A52"/>
<path d="M429.677 333.439C439.842 331.956 446.634 320.83 444.849 308.588C443.063 296.347 433.375 287.625 423.21 289.108C413.045 290.591 406.252 301.717 408.038 313.958C409.824 326.2 419.512 334.922 429.677 333.439Z" fill="#FF5951"/>
<path d="M429.648 333.242C439.704 331.775 446.42 320.75 444.65 308.618C442.881 296.486 433.294 287.84 423.239 289.307C413.183 290.774 406.466 301.798 408.236 313.93C410.006 326.063 419.592 334.709 429.648 333.242Z" fill="#FF5851"/>
<path d="M429.604 332.943C439.496 331.5 446.099 320.628 444.353 308.66C442.607 296.691 433.173 288.159 423.282 289.602C413.39 291.045 406.787 301.917 408.532 313.885C410.278 325.854 419.713 334.386 429.604 332.943Z" fill="#FF5750"/>
<path d="M429.575 332.746C439.358 331.319 445.885 320.549 444.155 308.69C442.425 296.83 433.093 288.374 423.31 289.801C413.528 291.228 407 301.998 408.73 313.857C410.46 325.717 419.793 334.173 429.575 332.746Z" fill="#FF5650"/>
<path d="M429.533 332.449C439.206 331.038 445.664 320.413 443.958 308.718C442.252 297.023 433.028 288.686 423.354 290.097C413.681 291.508 407.223 302.133 408.929 313.828C410.635 325.523 419.86 333.86 429.533 332.449Z" fill="#FF554F"/>
<path d="M429.489 332.152C439.052 330.756 445.442 320.278 443.759 308.746C442.077 297.215 432.961 288.998 423.397 290.394C413.833 291.789 407.444 302.268 409.126 313.799C410.808 325.33 419.925 333.547 429.489 332.152Z" fill="#FF544F"/>
<path d="M429.46 331.955C438.914 330.575 445.228 320.198 443.561 308.776C441.895 297.354 432.88 289.213 423.425 290.592C413.971 291.972 407.657 302.349 409.324 313.771C410.99 325.193 420.005 333.334 429.46 331.955Z" fill="#FF534E"/>
<path d="M429.417 331.657C438.762 330.294 445.007 320.063 443.364 308.805C441.722 297.547 432.815 289.526 423.47 290.889C414.125 292.252 407.88 302.484 409.523 313.742C411.165 325 420.072 333.021 429.417 331.657Z" fill="#FF524E"/>
<path d="M429.389 331.459C438.57 330.12 444.694 319.996 443.068 308.848C441.442 297.699 432.68 289.747 423.499 291.087C414.318 292.426 408.193 302.549 409.82 313.698C411.446 324.847 420.208 332.799 429.389 331.459Z" fill="#FF514D"/>
</g>
<path opacity="0.1" d="M560.4 163.498C557.7 159.598 554.7 157.299 551.3 156.099C548.3 156.599 553.2 152.298 550.1 152.898C540.6 154.898 530.7 156.198 521.1 154.698C509.9 152.998 500.1 147.799 490.3 142.599C485.3 139.999 480.3 137.298 475.2 134.998C464.2 130.098 451.2 125.198 438.9 125.398C432.8 125.398 426.9 127.198 421.3 129.398C416.1 131.398 411.8 134.499 408.6 137.599C407.9 138.299 406.5 139.198 405.1 140.198C405.1 144.698 405.6 148.798 406.4 152.498C407 152.198 407.5 151.798 407.7 151.698C409.7 150.198 412.3 148.799 415.3 147.599C418.3 146.399 421.6 145.398 425.4 145.198C440 144.298 453.4 150.398 466.5 155.998C471.8 158.299 477.3 160.998 483 163.498C488.7 166.098 494.7 168.498 501 170.498C511.6 173.898 524.5 175.098 535.3 172.299C536.8 171.898 538.2 171.598 539.6 171.198C545.2 169.498 550.1 167.298 554.3 165.198" fill="#FFBC80"/>
<path d="M487.801 232.299C487.801 232.299 476.401 265.799 494.701 287.199L539.801 284.099C539.801 284.099 540.701 266.999 537.601 255.399C535.101 245.999 487.801 232.199 487.801 232.199V232.299Z" fill="url(#paint21_linear_2394_71808)"/>
<path d="M411.5 252.8C408.1 261.3 405.4 283.8 405.4 283.8L447.2 289.5C466.7 268.1 456.3 232.1 456.3 232.1C456.3 232.1 414.9 244.4 411.5 252.9V252.8Z" fill="url(#paint22_linear_2394_71808)"/>
<path d="M518.901 270.3C500.001 268.8 494.701 287.2 494.701 287.2C494.701 287.2 499.801 290.3 518.501 289.7C540.601 288.9 539.801 284.2 539.801 284.2C539.801 284.2 537.801 271.9 519.001 270.4L518.901 270.3Z" fill="white"/>
<path d="M405.401 283.699C405.401 283.699 406.001 287.299 422.601 289.599C442.301 292.199 447.201 289.399 447.201 289.399C447.201 289.399 444.701 278.299 436.801 272.899C429.001 267.399 415.801 267.599 405.301 283.699H405.401Z" fill="white"/>
<path d="M422.601 289.599C429.301 290.499 434.301 290.799 438.001 290.699C440.101 283.699 438.301 276.899 433.901 275.399C429.401 273.999 423.901 278.599 421.601 285.799C421.201 286.999 421.001 288.199 420.801 289.299C421.401 289.299 422.001 289.499 422.601 289.599Z" fill="url(#paint23_linear_2394_71808)"/>
<path d="M518.401 289.699C521.001 289.699 523.201 289.499 525.201 289.299C526.701 282.099 524.901 275.399 520.701 273.899C516.201 272.299 510.701 277.399 508.401 285.399C508.001 286.699 507.801 288.199 507.701 289.699C510.601 289.899 514.201 289.899 518.401 289.699Z" fill="url(#paint24_linear_2394_71808)"/>
<path d="M428.3 266.5C414.5 265.5 404.4 276.4 405.4 283.7C405.4 283.7 411.9 273.8 426.6 274.6C443.9 275.5 447.2 289.4 447.2 289.4C450 283.1 447.3 267.9 428.3 266.5Z" fill="#603F37"/>
<path d="M409.801 259.199C428.001 241.499 450.301 252.299 456.601 243.299C459.701 238.899 456.301 231.999 456.301 231.999C410.401 228.999 409.801 259.199 409.801 259.199Z" fill="url(#paint25_linear_2394_71808)"/>
<path d="M487.801 232.299C487.801 232.299 485.701 239.299 488.801 242.599C498.401 253.099 516.801 239.099 537.801 258.399C537.801 258.399 535.801 225.799 487.801 232.299Z" fill="url(#paint26_linear_2394_71808)"/>
<path d="M517.1 266.099C495.9 265.899 491.8 282.199 494.7 287.299C494.7 287.299 501.4 274.599 518.3 274.299C536.7 273.899 539.8 284.199 539.8 284.199C541.7 277.199 538.2 266.299 517.2 266.099H517.1Z" fill="#603F37"/>
<path d="M435 285.599C435 287.999 432.9 290.099 430.6 290.299C428.3 290.499 426.5 288.599 426.6 286.199C426.7 283.799 428.7 281.699 431 281.499C433.3 281.299 435.1 283.199 435 285.599Z" fill="#1E1D1D"/>
<path d="M521.5 285.199C521.5 287.599 519.4 289.399 517.1 289.499C514.8 289.599 513 288.199 513.1 285.699C513.1 283.299 515.2 281.199 517.5 280.999C519.8 280.799 521.6 282.699 521.5 285.099V285.199Z" fill="#1E1D1D"/>
<path opacity="0.8" d="M428 281.099C426.1 281.999 424.8 283.899 425.1 285.199C425.4 286.499 427.1 286.799 429 285.899C430.9 284.999 432.2 283.099 431.9 281.799C431.6 280.499 429.9 280.199 428 281.099Z" fill="white"/>
<path opacity="0.8" d="M513.9 280C511.9 281.3 510.6 283.5 511 285C511.4 286.5 513.4 286.7 515.4 285.5C517.4 284.2 518.7 282 518.3 280.5C517.9 279 515.9 278.8 513.9 280Z" fill="white"/>
<path opacity="0.1" d="M536 176.899C525.2 185.299 513.1 190.199 499.9 193.399C499.7 193.399 499.6 193.399 499.5 193.599C508.3 191.399 514.8 189.099 514.8 189.099C517 189.099 519.4 189.899 521.7 191.499C527.7 188.699 533.4 185.099 538.5 180.999C540.9 179.099 538.4 174.999 535.9 176.899H536Z" fill="black"/>
<path d="M429.901 341.8C429.901 341.8 435.501 384.9 475.101 381.7C517.501 378.3 512.901 336.1 512.901 336.1L429.801 341.8H429.901Z" fill="#FB755C"/>
<path d="M432.001 342.399C431.401 343.299 436.901 376.099 474.401 373.099C512.401 370.099 512.101 338.599 511.601 337.899C510.101 335.499 434.201 339.399 432.001 342.499V342.399Z" fill="url(#paint27_linear_2394_71808)"/>
<path d="M438.5 341.4C438.5 341.4 439 347.3 443.1 351.2C452.3 359.9 494.7 356.8 501.6 347.7C506.1 341.7 505.7 337.1 505.7 337.1L438.6 341.4H438.5Z" fill="#F7F0F0"/>
<path opacity="0.3" d="M505.6 337L438.5 341.3C438.5 341.3 438.9 346.7 442.6 350.6C444.8 345.8 455.3 352.3 471.5 351.3C488.8 350.2 494.1 345.4 497.8 345.8C500.1 346.1 500.2 347.3 499.8 349.3C500.5 348.8 501.1 348.2 501.6 347.6C506.1 341.6 505.7 337 505.7 337H505.6Z" fill="#C1BAB0"/>
<path opacity="0.1" d="M484.9 393.299C478.7 394.899 473.8 395.099 470.7 394.799C467.6 394.599 465.2 397.299 465.9 400.299C466.6 403.499 469.7 406.399 478.9 405.299C487.9 404.199 490.4 400.799 490.6 397.799C490.8 394.799 487.8 392.499 484.9 393.299Z" fill="black"/>
<path d="M460.801 296.099C460.801 296.099 444.301 293.099 440.401 307.499C435.501 325.799 471.901 336.399 481.701 317.299C491.601 298.199 465.301 262.799 465.301 262.799C465.301 262.799 471.601 281.199 460.701 296.199L460.801 296.099Z" fill="#FF9E78"/>
<path d="M440 312.6C442.2 327.6 472.8 334.5 481.7 317.3C482.2 316.2 482.7 315.1 483 314C468.7 317.1 453.8 316.4 440 312.6Z" fill="url(#paint28_linear_2394_71808)"/>
<path opacity="0.2" d="M471.2 281.799H467.1C467.1 281.699 465 294.899 461 296.699C460.4 296.699 459.7 296.599 459.1 296.599C452 296.399 446.1 298.699 446 301.799C446 304.899 451.6 307.399 458.8 307.599C465.5 307.799 471.3 306.599 472.1 302.999C472.1 302.999 475.2 289.199 471.2 281.799Z" fill="white"/>
<path opacity="0.4" d="M431.4 294.599C427.5 294.599 423.7 293.799 419.8 293.699C417.7 293.699 417.1 296.699 418.9 297.599C422.9 299.699 427.8 299.499 432.1 298.799C434.5 298.399 433.7 294.499 431.4 294.599Z" fill="#ED6954"/>
<path opacity="0.4" d="M525.1 293.3C521.1 293.8 517.3 294.4 513.3 294.4C510.9 294.4 510.3 298.5 512.8 298.8C517.1 299.3 521.7 299.2 525.8 297.6C528 296.8 527.7 292.9 525.1 293.3Z" fill="#ED6954"/>
<path d="M300.2 378.599C300.2 378.599 306.8 365.999 304.3 352.999C301.8 339.999 284.2 322.599 289.9 305.399C295.6 288.199 310.5 284.599 315.5 294.399C320.5 304.199 329.5 344.099 338.4 356.399C347.3 368.799 347.3 377.499 347.3 377.499C347.3 377.499 357.7 378.299 365.8 387.699C373.9 397.099 365.8 416.099 365.8 416.099C365.8 416.099 373.5 424.599 371.4 437.399C369.3 450.099 363.5 453.199 363.5 453.199C363.5 453.199 367.9 465.699 363.3 473.399C358.7 481.099 356.8 482.199 356.8 482.199C356.8 482.199 362.1 486.799 360.7 496.399C359.3 505.999 347.9 514.999 347.9 514.999C347.9 514.999 327.7 587.399 325 612.299C322.3 637.299 291.6 691.499 259.4 690.899C227.2 690.299 224.3 608.899 226.6 593.399C228.9 577.899 280.8 510.199 280.8 510.199C280.8 510.199 275.6 502.899 274.2 494.999C272.8 487.099 271.9 482.699 267.3 473.299C262.7 463.899 269.6 451.599 269.2 446.999C268.7 442.299 263.9 435.299 267 427.199C270.1 419.099 274.8 415.999 275.1 412.899C275.4 409.799 270 395.599 278.8 388.599C287.6 381.599 300.1 378.599 300.1 378.599H300.2Z" fill="#FF9E78"/>
<path d="M371.6 437.299C373.7 424.599 366 415.999 366 415.999C366 415.999 374.1 396.999 366 387.599C357.9 378.199 347.5 377.399 347.5 377.399C347.5 377.399 347.5 368.699 338.6 356.299C329.7 343.899 320.7 304.099 315.7 294.299C310.7 284.499 295.8 288.099 290.1 305.299C284.4 322.499 302 339.899 304.5 352.899C307 365.899 300.4 378.499 300.4 378.499C300.4 378.499 288 381.499 279.1 388.499C270.2 395.499 275.7 409.699 275.4 412.799C275.1 415.899 270.4 418.999 267.3 427.099C264.2 435.199 269 442.199 269.5 446.899C270 451.599 263.1 463.899 267.6 473.199C272.1 482.499 273.1 486.899 274.5 494.899C275.9 502.799 281.1 510.099 281.1 510.099C281.1 510.099 229.3 577.699 226.9 593.299C224.5 608.899 227.5 690.199 259.7 690.799C291.9 691.399 322.6 637.199 325.3 612.199C328 587.199 348.2 514.899 348.2 514.899C348.2 514.899 359.7 505.999 361 496.299C362.4 486.699 357.1 482.099 357.1 482.099C357.1 482.099 359 481.099 363.6 473.299C368.2 465.599 363.8 453.099 363.8 453.099C363.8 453.099 369.6 449.999 371.7 437.299H371.6ZM304.7 447.899V452.399C304.8 452.399 357.1 453.099 360.8 454.799C364.5 456.499 364.7 474.499 355 479.899C345.3 485.299 303.6 482.099 303.6 482.099V486.299C303.7 486.299 341.7 488.799 355 484.299C355 484.299 361.2 490.099 357.2 499.399C353.3 508.699 345.2 517.899 315.3 516.599C285.3 515.299 278.6 504.899 276.8 497.499C275 490.099 272.7 478.099 269.6 471.599C266.5 465.099 272.8 451.499 271.6 446.199C270.4 440.899 266.1 436.599 269.9 427.699C273.7 418.799 277.9 416.899 278 411.299C278 405.699 274.9 394.399 279.2 390.899C285.6 385.699 312.3 377.499 336.3 379.299C360.3 381.099 364.5 388.999 367 394.799C369.5 400.499 364 413.999 364 413.999C364 413.999 325.7 409.299 304.7 411.799V416.499C304.7 416.499 356 415.999 363.7 419.699C371.5 423.399 370.9 442.799 363.6 449.699C363.6 449.699 326.6 445.999 304.7 447.899Z" fill="url(#paint29_linear_2394_71808)"/>
<path d="M305.201 411.9V416.6C305.201 416.6 323.801 416.4 340.201 417.1V411.9C328.501 411.1 315.001 410.7 305.201 411.9Z" fill="#F48F71"/>
<path d="M304.8 452.399C304.8 452.399 324.2 452.699 340.2 453.199V447.999C328.6 447.399 315 446.999 304.6 447.899V452.399H304.8Z" fill="#F48F71"/>
<path d="M303.7 486.3C303.7 486.3 324.1 487.6 340.2 486.6V482.7C324.5 483.7 303.6 482.1 303.6 482.1V486.3H303.7Z" fill="#F48F71"/>
<path opacity="0.7" d="M316 524.399C328.7 524.399 340.3 521.899 346.6 520.099C347.5 516.799 348 514.899 348 514.899C348 514.899 348.3 514.699 348.8 514.199C341.2 516.499 302.6 527.099 279.9 508.299C280.6 509.499 281 510.099 281 510.099C281 510.099 280.1 511.299 278.5 513.399C289.6 521.699 303.4 524.299 316.1 524.299L316 524.399Z" fill="#E5816A"/>
<path d="M291.8 305C290 311 291.3 324.4 298 334.1C304.7 343.8 306.9 346.9 307.1 358.9C307.3 370.9 304.6 375.8 305.4 376.2C306.3 376.6 327.5 376.6 330.8 371.1C334.1 365.6 322.8 331.3 321.5 324.2C320.2 317.1 317.9 294.7 312.7 291.7C307.5 288.7 295.9 290.8 291.6 305H291.8Z" fill="#FF9E78"/>
<path d="M315.6 294.399C310.6 284.599 295.7 288.199 290 305.399C286.5 315.899 291.8 326.599 297 336.199C298.5 337.799 300.2 339.199 302.1 339.999C314.3 345.199 321.6 333.499 321.2 332.599C320.9 331.799 318.6 312.199 318.7 302.199C317.6 298.899 316.6 296.199 315.7 294.399H315.6Z" fill="url(#paint30_linear_2394_71808)"/>
<path d="M281.401 391.5C281.401 391.5 276.501 401.3 279.501 408.1C282.501 414.9 271.201 419.8 271.901 432.3C272.701 444.8 275.501 445.7 274.401 448.8C273.301 451.8 269.201 462 271.901 469.2C274.601 476.4 278.401 480.2 278.401 480.2C278.401 480.2 276.001 493 282.301 503.5C288.601 514 335.801 517.9 347.401 508.4C359.001 498.9 352.301 486.7 352.301 486.7C352.301 486.7 316.601 490.6 301.801 487V479.8C301.701 479.8 346.301 483.6 353.701 478.3C361.101 472.9 359.801 456.5 359.801 456.5L302.401 452.6L302.701 445C302.701 445 358.701 447.1 362.901 448C367.101 448.9 371.501 424.6 364.101 422C356.701 419.4 302.301 417.5 302.301 417.5L302.701 410.4C302.701 410.4 343.301 408.5 362.101 412.3C362.101 412.3 370.401 401.5 364.501 393.3C358.601 385.1 337.001 378.1 312.101 382.1C287.201 386.1 281.401 391.5 281.401 391.5Z" fill="url(#paint31_linear_2394_71808)"/>
<path d="M277.301 518.6C277.301 518.6 234.501 575.6 232.301 588.9C230.101 602.3 233.101 666.7 246.301 673.6C259.501 680.5 295.401 628.4 299.001 615.6C302.601 602.8 311.801 530.3 311.801 530.3C311.801 530.3 286.901 525.6 277.301 518.5V518.6Z" fill="url(#paint32_linear_2394_71808)"/>
<path d="M690.4 623.199L685.1 621.199C671.9 620.799 641.2 620.599 625.9 626.899L627.3 642.399C628.3 642.799 683.7 638.699 692.9 636.899C691.6 628.899 690.4 623.099 690.4 623.099V623.199Z" fill="url(#paint33_linear_2394_71808)"/>
<path d="M576.876 179.542C580.385 173.026 556.305 153.247 523.092 135.364C489.88 117.48 460.111 108.266 456.603 114.782C453.094 121.298 477.174 141.077 510.387 158.96C543.599 176.843 573.367 186.058 576.876 179.542Z" fill="#0C4266"/>
<path d="M577.101 180.699C573.601 187.199 543.801 177.999 510.701 160.099C477.501 142.199 453.501 121.199 457.001 114.699C457.701 113.499 459.301 113.099 461.501 113.899C463.701 114.699 486.001 134.399 513.001 148.999C542.001 164.699 574.501 169.399 577.201 177.799C579.901 186.199 577.601 179.999 577.201 180.799L577.101 180.699Z" fill="#092E4C"/>
<defs>
<linearGradient id="paint0_linear_2394_71808" x1="715.3" y1="954" x2="672.9" y2="978.3" gradientUnits="userSpaceOnUse">
<stop stop-color="#DB7D67"/>
<stop offset="1" stop-color="#FF9E78"/>
</linearGradient>
<linearGradient id="paint1_linear_2394_71808" x1="611.543" y1="457.375" x2="609.006" y2="483.251" gradientUnits="userSpaceOnUse">
<stop stop-color="#DB7D67"/>
<stop offset="1" stop-color="#FF9E78"/>
</linearGradient>
<linearGradient id="paint2_linear_2394_71808" x1="453.2" y1="1573" x2="453.2" y2="1490.9" gradientUnits="userSpaceOnUse">
<stop stop-color="white"/>
<stop offset="1" stop-color="#A5B7C6"/>
</linearGradient>
<linearGradient id="paint3_linear_2394_71808" x1="688.701" y1="1134.1" x2="673.501" y2="959.999" gradientUnits="userSpaceOnUse">
<stop stop-color="#3D434F"/>
<stop offset="1" stop-color="#333844"/>
</linearGradient>
<linearGradient id="paint4_linear_2394_71808" x1="276.2" y1="1491.6" x2="276.7" y2="1518.7" gradientUnits="userSpaceOnUse">
<stop stop-color="#5B5B60"/>
<stop offset="1" stop-color="#2C2C2D"/>
</linearGradient>
<linearGradient id="paint5_linear_2394_71808" x1="625.5" y1="1491.6" x2="626" y2="1518.8" gradientUnits="userSpaceOnUse">
<stop stop-color="#5B5B60"/>
<stop offset="1" stop-color="#2C2C2D"/>
</linearGradient>
<linearGradient id="paint6_linear_2394_71808" x1="446.201" y1="1066.7" x2="463.378" y2="908.516" gradientUnits="userSpaceOnUse">
<stop stop-color="#3D434F"/>
<stop offset="1" stop-color="#333844"/>
</linearGradient>
<linearGradient id="paint7_linear_2394_71808" x1="450.401" y1="843.699" x2="482.201" y2="843.699" gradientUnits="userSpaceOnUse">
<stop stop-color="#5F6163"/>
<stop offset="1" stop-color="#444749"/>
</linearGradient>
<linearGradient id="paint8_linear_2394_71808" x1="467.9" y1="842.8" x2="482" y2="842.8" gradientUnits="userSpaceOnUse">
<stop stop-color="#5F6163"/>
<stop offset="1" stop-color="#444749"/>
</linearGradient>
<linearGradient id="paint9_linear_2394_71808" x1="457.6" y1="449.9" x2="457.6" y2="564.2" gradientUnits="userSpaceOnUse">
<stop stop-color="#DEEFFF"/>
<stop offset="1" stop-color="#CADBEF"/>
</linearGradient>
<linearGradient id="paint10_linear_2394_71808" x1="457.6" y1="575.699" x2="457.6" y2="834.399" gradientUnits="userSpaceOnUse">
<stop stop-color="#B3CBE2"/>
<stop offset="1" stop-color="#CADBEF"/>
</linearGradient>
<linearGradient id="paint11_linear_2394_71808" x1="447.3" y1="448.4" x2="450.5" y2="481.5" gradientUnits="userSpaceOnUse">
<stop stop-color="#B3CBE2"/>
<stop offset="1" stop-color="#CADBEF"/>
</linearGradient>
<linearGradient id="paint12_linear_2394_71808" x1="517.101" y1="441.4" x2="520.301" y2="474.8" gradientUnits="userSpaceOnUse">
<stop stop-color="#B3CBE2"/>
<stop offset="1" stop-color="#CADBEF"/>
</linearGradient>
<linearGradient id="paint13_linear_2394_71808" x1="495.4" y1="707.899" x2="495.4" y2="819.499" gradientUnits="userSpaceOnUse">
<stop stop-color="#B3CBE2"/>
<stop offset="1" stop-color="#CADBEF"/>
</linearGradient>
<linearGradient id="paint14_linear_2394_71808" x1="678.3" y1="1016.5" x2="715.9" y2="898.698" gradientUnits="userSpaceOnUse">
<stop stop-color="#F28C70"/>
<stop offset="1" stop-color="#FF9E78"/>
</linearGradient>
<linearGradient id="paint15_linear_2394_71808" x1="595.9" y1="697.799" x2="664.4" y2="760.099" gradientUnits="userSpaceOnUse">
<stop stop-color="#F28C70"/>
<stop offset="1" stop-color="#FF9E78"/>
</linearGradient>
<linearGradient id="paint16_linear_2394_71808" x1="367.929" y1="313.469" x2="407.528" y2="313.262" gradientUnits="userSpaceOnUse">
<stop stop-color="#F28C70"/>
<stop offset="1" stop-color="#FF9E78"/>
</linearGradient>
<linearGradient id="paint17_linear_2394_71808" x1="473.988" y1="190.713" x2="474.149" y2="221.512" gradientUnits="userSpaceOnUse">
<stop stop-color="#C6664F"/>
<stop offset="1" stop-color="#FF9E78"/>
</linearGradient>
<linearGradient id="paint18_linear_2394_71808" x1="555.588" y1="343.387" x2="595.687" y2="343.177" gradientUnits="userSpaceOnUse">
<stop stop-color="#F28C70"/>
<stop offset="1" stop-color="#FF9E78"/>
</linearGradient>
<linearGradient id="paint19_linear_2394_71808" x1="568.105" y1="308.322" x2="588.105" y2="308.217" gradientUnits="userSpaceOnUse">
<stop stop-color="#F28C70"/>
<stop offset="1" stop-color="#FF9E78"/>
</linearGradient>
<linearGradient id="paint20_linear_2394_71808" x1="494.963" y1="125.058" x2="492.202" y2="201.21" gradientUnits="userSpaceOnUse">
<stop stop-color="#75483B"/>
<stop offset="0.4" stop-color="#704438"/>
<stop offset="0.7" stop-color="#623C2F"/>
<stop offset="1" stop-color="#563428"/>
</linearGradient>
<linearGradient id="paint21_linear_2394_71808" x1="513.069" y1="206.108" x2="512.175" y2="283.513" gradientUnits="userSpaceOnUse">
<stop stop-color="#C6664F"/>
<stop offset="1" stop-color="#FF9E78"/>
</linearGradient>
<linearGradient id="paint22_linear_2394_71808" x1="433.259" y1="204.426" x2="432.373" y2="283.632" gradientUnits="userSpaceOnUse">
<stop stop-color="#C6664F"/>
<stop offset="1" stop-color="#FF9E78"/>
</linearGradient>
<linearGradient id="paint23_linear_2394_71808" x1="428.403" y1="292.109" x2="435.757" y2="271.918" gradientUnits="userSpaceOnUse">
<stop stop-color="#704A3E"/>
<stop offset="1"/>
</linearGradient>
<linearGradient id="paint24_linear_2394_71808" x1="516.561" y1="288.132" x2="520.908" y2="275.578" gradientUnits="userSpaceOnUse">
<stop stop-color="#704A3E"/>
<stop offset="1"/>
</linearGradient>
<linearGradient id="paint25_linear_2394_71808" x1="443.446" y1="241.848" x2="442.162" y2="265.724" gradientUnits="userSpaceOnUse">
<stop stop-color="#75483B"/>
<stop offset="0.4" stop-color="#704438"/>
<stop offset="0.7" stop-color="#623C2F"/>
<stop offset="1" stop-color="#563428"/>
</linearGradient>
<linearGradient id="paint26_linear_2394_71808" x1="520.181" y1="245.424" x2="519.034" y2="267.803" gradientUnits="userSpaceOnUse">
<stop stop-color="#75483B"/>
<stop offset="0.4" stop-color="#704438"/>
<stop offset="0.7" stop-color="#623C2F"/>
<stop offset="1" stop-color="#563428"/>
</linearGradient>
<linearGradient id="paint27_linear_2394_71808" x1="473.67" y1="370.962" x2="473.03" y2="359.569" gradientUnits="userSpaceOnUse">
<stop stop-color="#7C302A"/>
<stop offset="0.2" stop-color="#772E28"/>
<stop offset="0.4" stop-color="#692A26"/>
<stop offset="0.7" stop-color="#522421"/>
<stop offset="1" stop-color="#2D1A19"/>
</linearGradient>
<linearGradient id="paint28_linear_2394_71808" x1="461.9" y1="326.878" x2="461.828" y2="313.178" gradientUnits="userSpaceOnUse">
<stop stop-color="#F28C70"/>
<stop offset="1" stop-color="#FF9E78"/>
</linearGradient>
<linearGradient id="paint29_linear_2394_71808" x1="352.8" y1="489.399" x2="286.6" y2="489.899" gradientUnits="userSpaceOnUse">
<stop stop-color="#F28C70"/>
<stop offset="1" stop-color="#FF9E78"/>
</linearGradient>
<linearGradient id="paint30_linear_2394_71808" x1="293.7" y1="296.699" x2="310" y2="320.699" gradientUnits="userSpaceOnUse">
<stop stop-color="#FFB9A4"/>
<stop offset="1" stop-color="#FF9E78"/>
</linearGradient>
<linearGradient id="paint31_linear_2394_71808" x1="247.401" y1="447.3" x2="333.901" y2="447.3" gradientUnits="userSpaceOnUse">
<stop stop-color="#FFB9A4"/>
<stop offset="1" stop-color="#FF9E78"/>
</linearGradient>
<linearGradient id="paint32_linear_2394_71808" x1="204.301" y1="569.8" x2="284.001" y2="604.2" gradientUnits="userSpaceOnUse">
<stop stop-color="#FFB9A4"/>
<stop offset="1" stop-color="#FF9E78"/>
</linearGradient>
<linearGradient id="paint33_linear_2394_71808" x1="658.6" y1="618.499" x2="659.8" y2="638.999" gradientUnits="userSpaceOnUse">
<stop stop-color="#DEEFFF"/>
<stop offset="1" stop-color="#CADBEF"/>
</linearGradient>
</defs>
</svg>
