<svg width="248" height="335" viewBox="0 0 248 335" fill="none" xmlns="http://www.w3.org/2000/svg">
<path d="M90.0564 86.2612C86.4975 87.4287 84.9257 92.6677 86.4975 97.9367C88.0694 103.206 92.2213 106.529 95.7801 105.361C99.3389 104.194 100.911 98.9546 99.3389 93.6856C97.7671 88.4167 93.6152 85.0936 90.0564 86.2911V86.2612Z" fill="#D78C74"/>
<path d="M125.467 113.204C117.786 113.084 112.181 116.946 112.122 122.514L108.919 147.482C108.83 153.02 117.045 154.098 124.726 154.218C132.407 154.338 139.258 153.02 139.317 147.482L138.753 124.071C138.842 118.533 133.148 113.354 125.467 113.234V113.204Z" fill="#D78C74"/>
<path d="M151.95 54.9768C149.963 42.5529 115.264 36.6852 105.033 53.7494C101.77 61.6528 96.4618 76.4118 94.712 91.081C94.712 90.9314 94.712 90.8415 94.712 90.8415C94.712 90.8415 85.2515 129.82 119.624 132.245C153.996 134.67 157.822 116.378 156.339 93.5958C156.368 80.7827 154.53 64.5567 151.95 55.0068V54.9768Z" fill="#E5A185"/>
<g opacity="0.4">
<path d="M119.144 98.61C119.248 91.1044 113.796 84.9418 106.966 84.8456C100.137 84.7493 94.5164 90.7558 94.4126 98.2614C94.3088 105.767 99.7609 111.93 106.59 112.026C113.42 112.122 119.04 106.116 119.144 98.61Z" fill="#E5A185"/>
<path d="M119.055 98.6094C119.158 91.1534 113.745 85.0316 106.965 84.936C100.184 84.8405 94.6043 90.8073 94.5012 98.2633C94.3981 105.719 99.8109 111.841 106.591 111.937C113.371 112.032 118.951 106.065 119.055 98.6094Z" fill="#E5A084"/>
<path d="M118.965 98.6069C119.068 91.2004 113.694 85.1194 106.963 85.0245C100.232 84.9297 94.6923 90.8569 94.5898 98.2633C94.4874 105.67 99.8609 111.751 106.592 111.846C113.323 111.94 118.863 106.013 118.965 98.6069Z" fill="#E59F83"/>
<path d="M118.908 98.6071C119.01 91.2503 113.662 85.2098 106.964 85.1154C100.265 85.021 94.7528 90.9084 94.6511 98.2652C94.5493 105.622 99.8969 111.662 106.595 111.757C113.294 111.851 118.806 105.964 118.908 98.6071Z" fill="#E49E83"/>
<path d="M118.819 98.6065C118.92 91.2993 113.611 85.2996 106.962 85.2059C100.313 85.1122 94.8407 90.9599 94.7397 98.2671C94.6386 105.574 99.9469 111.574 106.596 111.668C113.245 111.761 118.718 105.914 118.819 98.6065Z" fill="#E49D82"/>
<path d="M118.76 98.6042C118.86 91.33 113.578 85.3575 106.962 85.2642C100.345 85.171 94.9 90.9923 94.7994 98.2664C94.6988 105.541 99.9809 111.513 106.597 111.606C113.214 111.7 118.659 105.878 118.76 98.6042Z" fill="#E49C81"/>
<path d="M118.668 98.6016C118.768 91.377 113.525 85.4453 106.958 85.3527C100.391 85.2602 94.986 91.0418 94.886 98.2664C94.7861 105.491 100.029 111.423 106.596 111.515C113.164 111.608 118.568 105.826 118.668 98.6016Z" fill="#E49B80"/>
<path d="M118.581 98.603C118.68 91.428 113.477 85.537 106.959 85.4452C100.44 85.3533 95.0758 91.0953 94.9766 98.2703C94.8773 105.445 100.081 111.336 106.599 111.428C113.117 111.52 118.482 105.778 118.581 98.603Z" fill="#E49A80"/>
<path d="M118.52 98.6013C118.618 91.4759 113.441 85.6255 106.955 85.5341C100.47 85.4427 95.1325 91.1448 95.0339 98.2702C94.9354 105.396 100.113 111.246 106.598 111.337C113.084 111.429 118.421 105.727 118.52 98.6013Z" fill="#E3997F"/>
<path d="M118.432 98.6007C118.53 91.5249 113.392 85.7153 106.956 85.6245C100.519 85.5338 95.2224 91.1963 95.1245 98.2721C95.0266 105.348 100.165 111.158 106.601 111.248C113.038 111.339 118.335 105.676 118.432 98.6007Z" fill="#E3987E"/>
<path d="M118.373 98.6009C118.47 91.5747 113.358 85.8057 106.954 85.7154C100.551 85.6252 95.281 91.2478 95.1838 98.274C95.0866 105.3 100.199 111.069 106.602 111.16C113.006 111.25 118.276 105.627 118.373 98.6009Z" fill="#E3977D"/>
<path d="M118.284 98.5977C118.381 91.6046 113.308 85.8629 106.954 85.7734C100.599 85.6838 95.3695 91.2802 95.2728 98.2734C95.1761 105.266 100.249 111.008 106.603 111.098C112.958 111.187 118.187 105.591 118.284 98.5977Z" fill="#E3967C"/>
<path d="M118.197 98.5952C118.293 91.6516 113.259 85.9507 106.954 85.8619C100.649 85.773 95.4594 91.3298 95.3634 98.2733C95.2673 105.217 100.301 110.918 106.606 111.007C112.911 111.096 118.101 105.539 118.197 98.5952Z" fill="#E2957C"/>
<path d="M118.136 98.5954C118.231 91.7015 113.223 86.0412 106.951 85.9527C100.678 85.8643 95.5161 91.3813 95.4207 98.2752C95.3254 105.169 100.333 110.829 106.605 110.918C112.878 111.006 118.04 105.489 118.136 98.5954Z" fill="#E2947B"/>
<path d="M118.048 98.5948C118.143 91.7505 113.175 86.1309 106.951 86.0432C100.728 85.9555 95.6059 91.4328 95.5113 98.2771C95.4166 105.121 100.385 110.741 106.608 110.829C112.832 110.916 117.954 105.439 118.048 98.5948Z" fill="#E2937A"/>
<path d="M117.957 98.5923C118.051 91.7975 113.122 86.2188 106.948 86.1317C100.773 86.0447 95.6919 91.4824 95.5979 98.2771C95.5039 105.072 100.433 110.651 106.607 110.738C112.782 110.825 117.863 105.387 117.957 98.5923Z" fill="#E29279"/>
<path d="M117.9 98.5925C117.993 91.8474 113.09 86.3092 106.948 86.2226C100.807 86.136 95.7525 91.5339 95.6592 98.279C95.5659 105.024 100.469 110.562 106.61 110.649C112.752 110.736 117.806 105.338 117.9 98.5925Z" fill="#E29179"/>
<path d="M117.809 98.5913C117.902 91.8792 113.038 86.3684 106.946 86.2825C100.853 86.1966 95.8391 91.5682 95.7462 98.2803C95.6534 104.992 100.517 110.503 106.609 110.589C112.702 110.675 117.716 105.303 117.809 98.5913Z" fill="#E19078"/>
<path d="M117.751 98.5896C117.844 91.9271 113.006 86.4568 106.946 86.3714C100.887 86.286 95.8997 91.6178 95.8075 98.2802C95.7153 104.943 100.553 110.413 106.613 110.498C112.672 110.584 117.659 105.252 117.751 98.5896Z" fill="#E18F77"/>
<path d="M117.664 98.589C117.755 91.9761 112.957 86.5466 106.947 86.4619C100.936 86.3772 95.9895 91.6693 95.8981 98.2822C95.8066 104.895 100.605 110.325 106.615 110.409C112.626 110.494 117.573 105.202 117.664 98.589Z" fill="#E18E76"/>
<path d="M117.573 98.5884C117.663 92.0251 112.904 86.6364 106.943 86.5523C100.982 86.4683 96.0755 91.7208 95.9847 98.2841C95.8939 104.847 100.653 110.236 106.614 110.32C112.576 110.404 117.482 105.152 117.573 98.5884Z" fill="#E18D75"/>
<path d="M117.515 98.5886C117.605 92.0749 112.872 86.7268 106.944 86.6432C101.015 86.5596 96.1361 91.7723 96.046 98.286C95.9559 104.8 100.689 110.148 106.618 110.231C112.546 110.315 117.425 105.102 117.515 98.5886Z" fill="#E18C75"/>
<path d="M117.424 98.5861C117.513 92.122 112.82 86.8146 106.94 86.7317C101.061 86.6489 96.222 91.8218 96.1326 98.2859C96.0432 104.75 100.737 110.057 106.616 110.14C112.496 110.223 117.335 105.05 117.424 98.5861Z" fill="#E08B74"/>
<path d="M117.365 98.5843C117.453 92.1698 112.786 86.9031 106.939 86.8206C101.092 86.7382 96.2806 91.8714 96.1919 98.2859C96.1032 104.7 100.771 109.967 106.618 110.05C112.464 110.132 117.276 104.999 117.365 98.5843Z" fill="#E08A73"/>
<path d="M117.274 98.5831C117.362 92.2017 112.734 86.9623 106.936 86.8805C101.139 86.7988 96.3672 91.9057 96.279 98.2872C96.1907 104.669 100.819 109.908 106.617 109.99C112.414 110.071 117.186 104.965 117.274 98.5831Z" fill="#E08972"/>
<path d="M117.188 98.5806C117.276 92.2487 112.687 87.0501 106.939 86.969C101.19 86.888 96.4591 91.9553 96.3715 98.2871C96.2839 104.619 100.873 109.818 106.621 109.899C112.37 109.98 117.101 104.912 117.188 98.5806Z" fill="#E08872"/>
<path d="M117.129 98.5808C117.216 92.2986 112.653 87.1405 106.937 87.0599C101.222 86.9794 96.5177 92.0068 96.4308 98.2891C96.3439 104.571 100.907 109.729 106.623 109.81C112.338 109.891 117.042 104.863 117.129 98.5808Z" fill="#DF8771"/>
<path d="M117.04 98.5802C117.126 92.3476 112.602 87.2303 106.936 87.1504C101.269 87.0705 96.6056 92.0583 96.5194 98.291C96.4332 104.524 100.957 109.641 106.624 109.721C112.29 109.801 116.954 104.813 117.04 98.5802Z" fill="#DF8670"/>
<path d="M116.981 98.5804C117.066 92.3974 112.568 87.3207 106.934 87.2413C101.301 87.1618 96.6642 92.1098 96.5787 98.2929C96.4932 104.476 100.991 109.553 106.625 109.632C112.259 109.711 116.895 104.763 116.981 98.5804Z" fill="#DF856F"/>
<path d="M116.889 98.5779C116.974 92.4444 112.516 87.4085 106.931 87.3298C101.346 87.2511 96.7502 92.1594 96.6653 98.2928C96.5805 104.426 101.039 109.462 106.624 109.541C112.208 109.62 116.804 104.711 116.889 98.5779Z" fill="#DF846F"/>
<path d="M116.802 98.5767C116.887 92.4763 112.468 87.4677 106.932 87.3897C101.397 87.3116 96.8407 92.1937 96.7563 98.2941C96.6719 104.394 101.091 109.403 106.627 109.481C112.162 109.559 116.718 104.677 116.802 98.5767Z" fill="#DF836E"/>
<path d="M116.741 98.5769C116.825 92.5261 112.432 87.5581 106.929 87.4805C101.426 87.403 96.8974 92.2452 96.8137 98.296C96.73 104.347 101.123 109.315 106.626 109.392C112.129 109.47 116.657 104.628 116.741 98.5769Z" fill="#DE826D"/>
<path d="M116.622 98.5763C116.705 92.5751 112.352 87.6479 106.898 87.571C101.444 87.4941 96.956 92.2967 96.873 98.2979C96.79 104.299 101.144 109.226 106.597 109.303C112.051 109.38 116.539 104.578 116.622 98.5763Z" fill="#DE816C"/>
<path d="M116.565 98.5746C116.647 92.623 112.32 87.7363 106.899 87.6599C101.478 87.5835 97.0165 92.3463 96.9342 98.2979C96.8519 104.249 101.18 109.136 106.601 109.213C112.021 109.289 116.483 104.526 116.565 98.5746Z" fill="#DE806B"/>
<path d="M116.476 98.574C116.557 92.672 112.269 87.8261 106.897 87.7504C101.525 87.6747 97.1045 92.3978 97.0228 98.2998C96.9412 104.202 101.23 109.048 106.601 109.123C111.973 109.199 116.394 104.476 116.476 98.574Z" fill="#DE7F6B"/>
<path d="M116.386 98.5714C116.467 92.719 112.218 87.9139 106.896 87.8389C101.573 87.7639 97.1924 92.4473 97.1114 98.2998C97.0305 104.152 101.28 108.957 106.602 109.032C111.925 109.107 116.305 104.424 116.386 98.5714Z" fill="#DE7E6A"/>
<path d="M116.326 98.5711C116.406 92.7517 112.183 87.9738 106.893 87.8992C101.603 87.8246 97.2497 92.4817 97.1692 98.301C97.0887 104.12 101.312 108.898 106.602 108.973C111.892 109.047 116.245 104.39 116.326 98.5711Z" fill="#DD7D69"/>
<path d="M116.238 98.5685C116.318 92.7988 112.134 88.0616 106.893 87.9877C101.653 87.9138 97.3396 92.5312 97.2597 98.301C97.1799 104.071 101.364 108.808 106.604 108.882C111.845 108.956 116.158 104.338 116.238 98.5685Z" fill="#DD7C68"/>
<path d="M116.177 98.5688C116.256 92.8486 112.098 88.152 106.89 88.0786C101.682 88.0052 97.3962 92.5828 97.3171 98.3029C97.238 104.023 101.396 108.72 106.604 108.793C111.812 108.866 116.098 104.289 116.177 98.5688Z" fill="#DD7B68"/>
<path d="M116.09 98.5662C116.168 92.8956 112.05 88.2398 106.891 88.1671C101.732 88.0944 97.4861 92.6323 97.4077 98.3029C97.3292 103.973 101.448 108.629 106.607 108.702C111.765 108.775 116.011 104.237 116.09 98.5662Z" fill="#DD7A67"/>
<path d="M116 98.5656C116.078 92.9447 111.999 88.3296 106.889 88.2576C101.779 88.1855 97.574 92.6838 97.4963 98.3048C97.4185 103.926 101.498 108.541 106.607 108.613C111.717 108.685 115.923 104.187 116 98.5656Z" fill="#DD7A66"/>
<path d="M115.941 98.5639C116.018 92.9925 111.965 88.418 106.888 88.3465C101.811 88.2749 97.6326 92.7334 97.5556 98.3047C97.4785 103.876 101.532 108.451 106.609 108.522C111.686 108.594 115.864 104.135 115.941 98.5639Z" fill="#DC7965"/>
<path d="M115.852 98.5646C115.929 93.0263 111.915 88.4792 106.887 88.4083C101.859 88.3374 97.7212 92.7697 97.6446 98.308C97.568 103.846 101.582 108.393 106.61 108.464C111.637 108.535 115.775 104.103 115.852 98.5646Z" fill="#DC7864"/>
<path d="M115.793 98.5649C115.869 93.0762 111.881 88.5696 106.886 88.4992C101.891 88.4288 97.7798 92.8212 97.7039 98.3099C97.628 103.799 101.616 108.305 106.611 108.376C111.606 108.446 115.717 104.054 115.793 98.5649Z" fill="#DC7764"/>
<path d="M115.705 98.5623C115.781 93.1232 111.832 88.6574 106.886 88.5877C101.94 88.518 97.8697 92.8707 97.7944 98.3098C97.7192 103.749 101.668 108.215 106.614 108.284C111.56 108.354 115.63 104.001 115.705 98.5623Z" fill="#DC7663"/>
<path d="M115.614 98.5598C115.689 93.1702 111.779 88.7452 106.883 88.6762C101.986 88.6072 97.9556 92.9203 97.8811 98.3098C97.8065 103.699 101.716 108.124 106.613 108.193C111.509 108.262 115.54 103.949 115.614 98.5598Z" fill="#DB7562"/>
<path d="M115.559 98.56C115.633 93.2201 111.749 88.8357 106.885 88.7671C102.021 88.6985 98.0182 92.9718 97.9443 98.3117C97.8704 103.652 101.754 108.036 106.618 108.105C111.482 108.173 115.485 103.9 115.559 98.56Z" fill="#DB7461"/>
<path d="M115.467 98.5594C115.541 93.2691 111.697 88.9254 106.882 88.8576C102.067 88.7897 98.1041 93.0233 98.0309 98.3136C97.9578 103.604 101.802 107.948 106.617 108.015C111.432 108.083 115.394 103.85 115.467 98.5594Z" fill="#DB7361"/>
<path d="M115.409 98.557C115.481 93.2998 111.663 88.9833 106.881 88.9159C102.099 88.8485 98.1634 93.0557 98.0907 98.3129C98.0179 103.57 101.836 107.887 106.618 107.954C111.4 108.021 115.336 103.814 115.409 98.557Z" fill="#DB7260"/>
<path d="M115.319 98.5565C115.391 93.3488 111.613 89.0731 106.88 89.0064C102.147 88.9397 98.2513 93.1072 98.1793 98.3149C98.1072 103.523 101.886 107.798 106.619 107.865C111.352 107.932 115.247 103.764 115.319 98.5565Z" fill="#DB715F"/>
<path d="M115.228 98.5578C115.299 93.3998 111.56 89.1648 106.876 89.0988C102.192 89.0328 98.3373 93.1607 98.2659 98.3187C98.1946 103.477 101.934 107.712 106.618 107.778C111.302 107.844 115.157 103.716 115.228 98.5578Z" fill="#DA705E"/>
<path d="M106.843 89.1354C102.187 89.0755 98.3608 93.147 98.3015 98.2662C98.2422 103.386 101.949 107.577 106.576 107.637C111.232 107.696 115.058 103.625 115.117 98.5057C115.176 93.3865 111.469 89.1953 106.843 89.1354Z" fill="#DA6F5D"/>
<path d="M106.844 89.2253C102.247 89.1654 98.4506 93.2069 98.3913 98.2663C98.332 103.326 102.009 107.487 106.606 107.547C111.203 107.607 114.999 103.565 115.058 98.5058C115.118 93.4464 111.44 89.2851 106.844 89.2253Z" fill="#DA6E5D"/>
<path d="M106.843 89.3171C102.276 89.2572 98.5389 93.2688 98.4499 98.2982C98.3906 103.328 102.038 107.429 106.576 107.489C111.143 107.549 114.88 103.537 114.969 98.5078C115.028 93.4783 111.38 89.3769 106.843 89.3171Z" fill="#DA6D5C"/>
<path d="M106.844 89.405C102.336 89.3451 98.5991 93.3267 98.5398 98.2963C98.4805 103.266 102.069 107.337 106.606 107.397C111.114 107.457 114.851 103.475 114.91 98.5059C114.97 93.5363 111.381 89.4648 106.844 89.405Z" fill="#DA6C5B"/>
<path d="M106.843 89.4929C102.364 89.433 98.687 93.3847 98.6277 98.2944C98.5684 103.204 102.127 107.246 106.605 107.305C111.084 107.365 114.761 103.414 114.82 98.5039C114.88 93.5942 111.321 89.5527 106.843 89.4929Z" fill="#D96B5A"/>
<path d="M106.844 89.5827C102.395 89.5228 98.7476 93.4147 98.6882 98.2944C98.6289 103.174 102.158 107.186 106.607 107.246C111.055 107.306 114.703 103.414 114.762 98.5339C114.821 93.6542 111.292 89.6426 106.844 89.5827Z" fill="#D96A5A"/>
<path d="M106.845 89.6726C102.456 89.6127 98.8374 93.4746 98.7781 98.2945C98.7188 103.114 102.218 107.096 106.607 107.156C110.997 107.216 114.615 103.354 114.674 98.534C114.733 93.7141 111.234 89.7324 106.845 89.6726Z" fill="#D96959"/>
<path d="M106.844 89.7331C102.484 89.6732 98.9257 93.5052 98.8367 98.2951C98.7774 103.085 102.247 107.007 106.607 107.067C110.966 107.127 114.525 103.295 114.614 98.5047C114.673 93.7148 111.204 89.793 106.844 89.7331Z" fill="#D96858"/>
<path d="M106.845 89.823C102.545 89.7631 98.9859 93.5651 98.9265 98.2952C98.8672 103.025 102.307 106.917 106.608 106.977C110.908 107.037 114.467 103.235 114.526 98.5047C114.585 93.7747 111.145 89.8828 106.845 89.823Z" fill="#D86757"/>
<path d="M106.844 89.9128C102.573 89.8529 99.0737 93.5951 99.0144 98.2952C98.9551 102.995 102.366 106.827 106.607 106.887C110.877 106.947 114.377 103.205 114.436 98.5048C114.495 93.8046 111.085 89.9727 106.844 89.9128Z" fill="#D86657"/>
<path d="M106.843 90.0027C102.632 89.9428 99.162 93.655 99.073 98.2953C99.0137 102.936 102.395 106.738 106.606 106.797C110.817 106.857 114.287 103.145 114.376 98.5048C114.435 93.8646 111.054 90.0625 106.843 90.0027Z" fill="#D86556"/>
<path d="M106.844 90.0945C102.662 90.0346 99.2222 93.7169 99.1629 98.2972C99.1036 102.878 102.425 106.65 106.607 106.71C110.788 106.769 114.229 103.087 114.288 98.5068C114.347 93.9264 111.026 90.1543 106.844 90.0945Z" fill="#D86455"/>
<path d="M106.845 90.1843C102.723 90.1244 99.3121 93.7768 99.2527 98.3272C99.1934 102.878 102.485 106.62 106.637 106.68C110.76 106.74 114.17 103.087 114.229 98.5368C114.289 93.9863 110.997 90.2442 106.845 90.1843Z" fill="#D86354"/>
<path d="M106.844 90.2429C102.752 90.1831 99.3707 93.7755 99.3113 98.296C99.252 102.787 102.514 106.499 106.607 106.559C110.7 106.619 114.08 103.026 114.14 98.5056C114.199 94.015 110.937 90.3028 106.844 90.2429Z" fill="#D76253"/>
<path d="M106.843 90.3328C102.78 90.2729 99.4586 93.8354 99.3992 98.2961C99.3399 102.757 102.573 106.409 106.635 106.469C110.698 106.529 114.02 102.966 114.079 98.5056C114.139 94.045 110.906 90.3926 106.843 90.3328Z" fill="#D76153"/>
<path d="M106.844 90.4226C102.84 90.3628 99.5484 93.8953 99.4891 98.2961C99.4298 102.697 102.633 106.319 106.636 106.379C110.64 106.439 113.932 102.906 113.991 98.5057C114.051 94.1049 110.848 90.4825 106.844 90.4226Z" fill="#D76052"/>
<path d="M106.841 90.5125C102.867 90.4526 99.6051 93.9552 99.5457 98.2961C99.4864 102.667 102.66 106.229 106.604 106.289C110.578 106.349 113.84 102.847 113.9 98.5057C113.959 94.1349 110.786 90.5723 106.841 90.5125Z" fill="#D75F51"/>
<path d="M106.844 90.6004C102.929 90.5405 99.6969 93.9833 99.6375 98.3242C99.5782 102.635 102.722 106.168 106.637 106.228C110.551 106.287 113.784 102.845 113.843 98.5038C113.902 94.1928 110.759 90.6603 106.844 90.6004Z" fill="#D75E50"/>
<path d="M106.845 90.6902C102.96 90.6304 99.7867 94.0432 99.7274 98.3242C99.6681 102.605 102.782 106.078 106.637 106.138C110.522 106.198 113.696 102.785 113.755 98.5038C113.814 94.2228 110.7 90.7501 106.845 90.6902Z" fill="#D65D50"/>
<path d="M106.846 90.7488C103.021 90.689 99.8473 94.0719 99.788 98.293C99.7286 102.514 102.783 105.987 106.639 106.017C110.464 106.077 113.638 102.694 113.697 98.4726C113.756 94.2515 110.702 90.7788 106.846 90.7488Z" fill="#D65C4F"/>
<path d="M106.845 90.8426C103.049 90.7827 99.9352 94.1357 99.8759 98.2969C99.8165 102.458 102.842 105.901 106.638 105.961C110.434 106.021 113.548 102.668 113.607 98.5065C113.666 94.3452 110.641 90.9025 106.845 90.8426Z" fill="#D65B4E"/>
<path d="M106.813 90.9324C103.047 90.8726 99.9625 94.1956 99.9032 98.297C99.8439 102.428 102.839 105.811 106.606 105.871C110.372 105.931 113.456 102.608 113.516 98.5065C113.575 94.3752 110.58 90.9923 106.813 90.9324Z" fill="#D65A4D"/>
<path d="M106.816 91.0203C103.109 90.9605 100.054 94.2236 99.995 98.325C99.9357 102.396 102.901 105.749 106.608 105.809C110.316 105.869 113.37 102.606 113.43 98.5046C113.489 94.4332 110.523 91.0802 106.816 91.0203Z" fill="#D5594C"/>
<path d="M106.813 91.1102C103.136 91.0503 100.14 94.2835 100.081 98.325C100.022 102.367 102.958 105.66 106.635 105.72C110.313 105.779 113.308 102.546 113.367 98.5047C113.426 94.4631 110.49 91.1701 106.813 91.1102Z" fill="#D5584C"/>
<path d="M106.812 91.2C103.194 91.1402 100.199 94.3435 100.14 98.3251C100.08 102.307 102.987 105.57 106.605 105.63C110.223 105.69 113.218 102.486 113.277 98.5047C113.337 94.5231 110.43 91.2599 106.812 91.2Z" fill="#D5574B"/>
<path d="M106.813 91.2606C103.225 91.2007 100.289 94.3741 100.229 98.2958C100.17 102.248 103.047 105.481 106.606 105.511C110.194 105.571 113.13 102.397 113.189 98.4755C113.249 94.5238 110.372 91.2905 106.813 91.2606Z" fill="#D5564A"/>
<path d="M106.814 91.3505C103.285 91.2906 100.349 94.4041 100.319 98.2959C100.26 102.188 103.077 105.391 106.636 105.421C110.165 105.481 113.101 102.367 113.131 98.4755C113.19 94.5837 110.373 91.3804 106.814 91.3505Z" fill="#D55549"/>
<path d="M106.813 91.4384C103.314 91.3785 100.437 94.462 100.378 98.3239C100.319 102.156 103.106 105.329 106.606 105.359C110.105 105.419 112.982 102.335 113.041 98.4736C113.101 94.6416 110.313 91.4683 106.813 91.4384Z" fill="#D45449"/>
<path d="M106.814 91.5282C103.374 91.4683 100.527 94.5219 100.468 98.3239C100.408 102.126 103.166 105.239 106.636 105.299C110.077 105.359 112.924 102.306 112.983 98.5036C113.042 94.7015 110.284 91.5881 106.814 91.5282Z" fill="#D45348"/>
<path d="M106.815 91.622C103.405 91.5621 100.587 94.5858 100.558 98.3279C100.498 102.07 103.227 105.154 106.637 105.213C110.048 105.273 112.865 102.25 112.895 98.5075C112.954 94.7654 110.226 91.6818 106.815 91.622Z" fill="#D45247"/>
</g>
<g opacity="0.4">
<path d="M151.677 105.856C155.507 99.4217 153.444 91.0717 147.07 87.2057C140.696 83.3396 132.425 85.4215 128.595 91.8557C124.765 98.2899 126.827 106.64 133.201 110.506C139.575 114.372 147.847 112.29 151.677 105.856Z" fill="#E5A185"/>
<path d="M151.6 105.78C155.404 99.3882 153.355 91.0933 147.023 87.2528C140.692 83.4123 132.475 85.4804 128.67 91.8721C124.865 98.2638 126.914 106.559 133.246 110.399C139.578 114.24 147.795 112.172 151.6 105.78Z" fill="#E5A084"/>
<path d="M151.495 105.704C155.274 99.3546 153.239 91.115 146.949 87.3C140.66 83.485 132.497 85.5394 128.718 91.8886C124.939 98.2377 126.974 106.477 133.264 110.292C139.553 114.107 147.716 112.053 151.495 105.704Z" fill="#E59F83"/>
<path d="M151.42 105.628C155.174 99.3211 153.152 91.1366 146.904 87.3471C140.657 83.5577 132.549 85.5983 128.795 91.905C125.041 98.2117 127.063 106.396 133.31 110.186C139.558 113.975 147.666 111.934 151.42 105.628Z" fill="#E49E83"/>
<path d="M151.34 105.552C155.069 99.2875 153.061 91.1582 146.856 87.3943C140.65 83.6305 132.597 85.6573 128.868 91.9214C125.14 98.1856 127.148 106.315 133.353 110.079C139.559 113.843 147.612 111.816 151.34 105.552Z" fill="#E49D82"/>
<path d="M151.263 105.49C154.975 99.2547 152.976 91.1622 146.798 87.4153C140.621 83.6685 132.604 85.6862 128.893 91.922C125.181 98.1578 127.18 106.25 133.357 109.997C139.534 113.744 147.551 111.726 151.263 105.49Z" fill="#E49C81"/>
<path d="M151.311 105.75C155.008 99.5637 153.036 91.5229 146.908 87.7908C140.779 84.0587 132.813 86.0486 129.116 92.2354C125.419 98.4221 127.39 106.463 133.519 110.195C139.648 113.927 147.613 111.937 151.311 105.75Z" fill="#E49B80"/>
<path d="M151.202 105.676C154.874 99.5317 152.916 91.5461 146.829 87.8396C140.743 84.1331 132.832 86.1094 129.16 92.2537C125.488 98.398 127.446 106.384 133.533 110.09C139.62 113.797 147.53 111.82 151.202 105.676Z" fill="#E49A80"/>
<path d="M151.129 105.6C154.775 99.4978 152.831 91.5673 146.786 87.8865C140.742 84.2056 132.885 86.1682 129.239 92.27C125.593 98.3718 127.537 106.302 133.582 109.983C139.626 113.664 147.482 111.701 151.129 105.6Z" fill="#E3997F"/>
<path d="M151.022 105.523C154.643 99.4638 152.713 91.5886 146.71 87.9333C140.707 84.2781 132.906 86.227 129.285 92.2864C125.664 98.3457 127.595 106.221 133.597 109.876C139.6 113.531 147.401 111.583 151.022 105.523Z" fill="#E3987E"/>
<path d="M150.945 105.415C154.541 99.3986 152.624 91.5786 146.663 87.9489C140.702 84.3193 132.956 86.2546 129.36 92.2715C125.764 98.2884 127.682 106.108 133.642 109.738C139.603 113.368 147.349 111.432 150.945 105.415Z" fill="#E3977D"/>
<path d="M150.864 105.354C154.442 99.3655 152.534 91.5823 146.602 87.9698C140.669 84.3572 132.959 86.2834 129.38 92.272C125.802 98.2605 127.71 106.044 133.642 109.656C139.575 113.269 147.285 111.343 150.864 105.354Z" fill="#E3967C"/>
<path d="M150.788 105.278C154.342 99.3316 152.447 91.6035 146.557 88.0166C140.666 84.4297 133.011 86.3422 129.457 92.2883C125.904 98.2344 127.799 105.962 133.689 109.549C139.579 113.136 147.235 111.224 150.788 105.278Z" fill="#E2957C"/>
<path d="M150.684 105.201C154.212 99.2976 152.331 91.6248 146.482 88.0635C140.634 84.5022 133.033 86.4011 129.505 92.3047C125.977 98.2083 127.858 105.881 133.707 109.442C139.555 113.004 147.156 111.105 150.684 105.201Z" fill="#E2947B"/>
<path d="M150.607 105.125C154.109 99.2637 152.242 91.6461 146.435 88.1104C140.629 84.5747 133.083 86.4599 129.58 92.321C126.078 98.1822 127.945 105.8 133.751 109.335C139.558 112.871 147.104 110.986 150.607 105.125Z" fill="#E2937A"/>
<path d="M150.625 105.352C154.112 99.5396 152.271 91.9739 146.513 88.4537C140.755 84.9335 133.26 86.7918 129.773 92.6044C126.286 98.4169 128.127 105.983 133.885 109.503C139.643 113.023 147.138 111.165 150.625 105.352Z" fill="#E29279"/>
<path d="M150.517 105.275C153.978 99.5052 152.151 91.9948 146.435 88.5003C140.719 85.0058 133.279 86.8505 129.817 92.6206C126.355 98.3907 128.183 105.901 133.899 109.396C139.615 112.89 147.055 111.045 150.517 105.275Z" fill="#E29179"/>
<path d="M150.468 105.216C153.913 99.4739 152.095 92.0002 146.407 88.5229C140.719 85.0455 133.315 86.8812 129.87 92.623C126.425 98.3648 128.244 105.839 133.932 109.316C139.62 112.793 147.024 110.958 150.468 105.216Z" fill="#E19078"/>
<path d="M150.36 105.108C153.779 99.4083 151.974 91.9899 146.328 88.5382C140.682 85.0865 133.333 86.9086 129.914 92.608C126.495 98.3074 128.3 105.726 133.946 109.178C139.592 112.629 146.941 110.807 150.36 105.108Z" fill="#E18F77"/>
<path d="M150.289 105.031C153.683 99.3739 151.891 92.0107 146.287 88.5847C140.683 85.1588 133.389 86.9673 129.995 92.6243C126.601 98.2813 128.393 105.645 133.997 109.07C139.601 112.496 146.895 110.688 150.289 105.031Z" fill="#E18E76"/>
<path d="M150.18 104.956C153.549 99.3415 151.77 92.0336 146.208 88.6333C140.647 85.233 133.407 87.028 130.039 92.6425C126.67 98.2571 128.448 105.565 134.01 108.965C139.572 112.366 146.812 110.571 150.18 104.956Z" fill="#E18D75"/>
<path d="M150.107 104.85C153.45 99.2779 151.685 92.0252 146.165 88.6506C140.645 85.276 133.46 87.0574 130.117 92.6295C126.774 98.2016 128.539 105.454 134.059 108.829C139.579 112.204 146.764 110.422 150.107 104.85Z" fill="#E18C75"/>
<path d="M149.998 104.775C153.316 99.2455 151.565 92.048 146.087 88.6991C140.609 85.3502 133.479 87.118 130.161 92.6477C126.844 98.1774 128.595 105.375 134.073 108.724C139.551 112.073 146.681 110.305 149.998 104.775Z" fill="#E08B74"/>
<path d="M150.017 105.031C153.319 99.5493 151.593 92.4039 146.163 89.0711C140.733 85.7383 133.655 87.4802 130.353 92.9617C127.051 98.4431 128.777 105.588 134.207 108.921C139.637 112.254 146.716 110.512 150.017 105.031Z" fill="#E08A73"/>
<path d="M149.967 104.942C153.252 99.4883 151.535 92.3798 146.133 89.0642C140.731 85.7486 133.689 87.4815 130.404 92.9347C127.12 98.3879 128.836 105.496 134.238 108.812C139.641 112.128 146.683 110.395 149.967 104.942Z" fill="#E08972"/>
<path d="M149.861 104.864C153.12 99.4536 151.416 92.4003 146.056 89.1105C140.696 85.8207 133.709 87.5401 130.45 92.9509C127.191 98.3617 128.894 105.415 134.254 108.705C139.614 111.995 146.602 110.275 149.861 104.864Z" fill="#E08872"/>
<path d="M149.783 104.789C153.017 99.4208 151.327 92.4228 146.009 89.1587C140.691 85.8946 133.758 87.6006 130.525 92.969C127.291 98.3375 128.981 105.335 134.299 108.6C139.617 111.864 146.55 110.158 149.783 104.789Z" fill="#DF8771"/>
<path d="M149.679 104.681C152.887 99.3548 151.21 92.4121 145.934 89.1738C140.658 85.9355 133.78 87.6279 130.572 92.954C127.364 98.28 129.041 105.223 134.317 108.461C139.593 111.699 146.471 110.007 149.679 104.681Z" fill="#DF8670"/>
<path d="M149.574 104.606C152.757 99.322 151.094 92.4345 145.859 89.222C140.625 86.0094 133.802 87.6884 130.62 92.9721C127.437 98.2558 129.101 105.143 134.335 108.356C139.569 111.568 146.392 109.889 149.574 104.606Z" fill="#DF856F"/>
<path d="M149.495 104.497C152.652 99.256 151.002 92.4237 145.81 89.237C140.618 86.0502 133.85 87.7158 130.693 92.9571C127.536 98.1983 129.186 105.031 134.378 108.217C139.57 111.404 146.338 109.739 149.495 104.497Z" fill="#DF846F"/>
<path d="M149.539 104.771C152.688 99.5639 151.059 92.7656 145.9 89.5869C140.741 86.4083 134.007 88.0529 130.858 93.2604C127.709 98.4679 129.338 105.266 134.497 108.445C139.656 111.624 146.39 109.979 149.539 104.771Z" fill="#DF836E"/>
<path d="M149.437 104.663C152.56 99.4975 150.944 92.7545 145.827 89.6016C140.71 86.4488 134.03 88.0801 130.907 93.2453C127.784 98.4105 129.4 105.154 134.517 108.306C139.633 111.459 146.313 109.828 149.437 104.663Z" fill="#DE826D"/>
<path d="M149.36 104.587C152.457 99.4644 150.854 92.7766 145.78 89.6496C140.705 86.5226 134.08 88.1405 130.982 93.2634C127.884 98.3862 129.487 105.074 134.562 108.201C139.637 111.328 146.262 109.71 149.36 104.587Z" fill="#DE816C"/>
<path d="M149.255 104.48C152.327 99.3999 150.738 92.7674 145.705 89.6663C140.672 86.5651 134.101 88.1697 131.029 93.2502C127.957 98.3307 129.547 104.963 134.58 108.064C139.613 111.165 146.183 109.561 149.255 104.48Z" fill="#DE806B"/>
<path d="M149.147 104.376C152.193 99.3374 150.617 92.7602 145.626 89.6849C140.635 86.6096 134.119 88.2008 131.073 93.2389C128.026 98.2771 129.603 104.854 134.594 107.93C139.585 111.005 146.1 109.414 149.147 104.376Z" fill="#DE7F6B"/>
<path d="M149.073 104.298C152.094 99.3023 150.531 92.7803 145.582 89.7309C140.633 86.6814 134.172 88.2592 131.151 93.2551C128.131 98.2509 129.694 104.773 134.643 107.822C139.592 110.872 146.053 109.294 149.073 104.298Z" fill="#DE7E6A"/>
<path d="M148.992 104.207C151.996 99.2392 150.442 92.7541 145.521 89.7218C140.6 86.6896 134.175 88.2585 131.171 93.2261C128.168 98.1937 129.722 104.679 134.643 107.711C139.564 110.743 145.988 109.174 148.992 104.207Z" fill="#DD7D69"/>
<path d="M149.009 104.461C151.996 99.5409 150.466 93.1084 145.592 90.0934C140.718 87.0784 134.346 88.6227 131.359 93.5427C128.372 98.4627 129.902 104.895 134.776 107.91C139.65 110.925 146.022 109.381 149.009 104.461Z" fill="#DD7C68"/>
<path d="M148.936 104.356C151.897 99.4781 150.38 93.1008 145.548 90.1117C140.716 87.1227 134.399 88.6537 131.438 93.5314C128.477 98.4091 129.993 104.786 134.825 107.775C139.657 110.765 145.975 109.233 148.936 104.356Z" fill="#DD7B68"/>
<path d="M148.831 104.249C151.767 99.4132 150.263 93.0913 145.473 90.1281C140.683 87.165 134.42 88.6827 131.485 93.5181C128.55 98.3536 130.053 104.676 134.843 107.639C139.633 110.602 145.896 109.084 148.831 104.249Z" fill="#DD7A67"/>
<path d="M148.723 104.14C151.633 99.3464 150.142 93.0798 145.394 90.1425C140.646 87.2053 134.438 88.7098 131.528 93.5029C128.619 98.296 130.109 104.563 134.857 107.5C139.605 110.437 145.813 108.933 148.723 104.14Z" fill="#DD7A66"/>
<path d="M148.619 104.064C151.503 99.3129 150.025 93.1015 145.319 90.1902C140.613 87.2789 134.46 88.7701 131.576 93.5209C128.691 98.2717 130.169 104.483 134.875 107.394C139.581 110.306 145.735 108.815 148.619 104.064Z" fill="#DC7965"/>
<path d="M148.567 103.974C151.434 99.2514 149.965 93.0769 145.287 90.1829C140.608 87.2888 134.492 88.7712 131.625 93.4938C128.758 98.2165 130.226 104.391 134.905 107.285C139.583 110.179 145.7 108.697 148.567 103.974Z" fill="#DC7864"/>
<path d="M148.586 104.199C151.435 99.5232 149.99 93.4014 145.359 90.5252C140.727 87.6489 134.663 89.1073 131.813 93.7826C128.964 98.4579 130.409 104.58 135.04 107.456C139.672 110.332 145.736 108.874 148.586 104.199Z" fill="#DC7764"/>
<path d="M148.481 104.091C151.305 99.458 149.873 93.3915 145.284 90.5412C140.694 87.691 134.684 89.1362 131.861 93.7693C129.037 98.4023 130.469 104.469 135.058 107.319C139.648 110.169 145.658 108.724 148.481 104.091Z" fill="#DC7663"/>
<path d="M148.375 103.986C151.173 99.3947 149.754 93.3836 145.206 90.5593C140.658 87.735 134.704 89.167 131.906 93.7579C129.108 98.3487 130.527 104.36 135.074 107.184C139.622 110.008 145.577 108.576 148.375 103.986Z" fill="#DB7562"/>
<path d="M148.3 103.876C151.072 99.3275 149.666 93.3717 145.16 90.5734C140.654 87.7751 134.754 89.194 131.982 93.7426C129.21 98.2912 130.616 104.247 135.122 107.045C139.628 109.844 145.528 108.425 148.3 103.876Z" fill="#DB7461"/>
<path d="M148.193 103.8C150.94 99.2936 149.547 93.3931 145.083 90.6207C140.619 87.8484 134.774 89.2541 132.027 93.7605C129.281 98.2668 130.674 104.167 135.138 106.94C139.602 109.712 145.447 108.306 148.193 103.8Z" fill="#DB7361"/>
<path d="M148.116 103.71C150.845 99.2319 149.461 93.3682 145.025 90.6132C140.589 87.8582 134.78 89.2552 132.051 93.7333C129.322 98.2115 130.706 104.075 135.142 106.83C139.578 109.585 145.387 108.188 148.116 103.71Z" fill="#DB7260"/>
<path d="M140.266 89.4323C135.106 89.3724 130.865 93.5337 130.805 98.7128C130.746 103.922 134.868 108.203 139.999 108.263C145.159 108.323 149.4 104.161 149.459 98.9822C149.519 93.7732 145.396 89.4922 140.266 89.4323Z" fill="#DB715F"/>
<path d="M140.265 89.5221C135.164 89.4623 130.953 93.5637 130.893 98.7428C130.834 103.892 134.897 108.143 140.027 108.203C145.128 108.263 149.34 104.161 149.399 98.9823C149.458 93.8331 145.395 89.582 140.265 89.5221Z" fill="#DA705E"/>
<path d="M140.266 89.6139C135.194 89.5541 131.042 93.6255 130.983 98.7448C130.924 103.864 134.957 108.055 140.028 108.115C145.1 108.175 149.252 104.104 149.311 98.9843C149.37 93.865 145.337 89.6738 140.266 89.6139Z" fill="#DA6F5D"/>
<path d="M140.267 89.7057C135.255 89.6459 131.132 93.6874 131.073 98.7468C131.014 103.806 135.017 107.967 140.029 108.027C145.041 108.087 149.164 104.046 149.223 98.9863C149.282 93.9269 145.278 89.7656 140.267 89.7057Z" fill="#DA6E5D"/>
<path d="M140.268 89.7956C135.285 89.7357 131.222 93.7473 131.133 98.7468C131.074 103.776 135.048 107.878 140.001 107.967C144.983 108.027 149.046 104.016 149.135 99.0162C149.194 93.9868 145.22 89.8854 140.268 89.7956Z" fill="#DA6D5C"/>
<path d="M140.267 89.8835C135.344 89.8236 131.31 93.7753 131.221 98.7449C131.162 103.714 135.077 107.786 140 107.876C144.923 107.936 148.956 103.984 149.045 99.0143C149.104 94.0447 145.19 89.9733 140.267 89.8835Z" fill="#DA6C5B"/>
<path d="M140.268 89.944C135.404 89.8842 131.371 93.8059 131.311 98.7456C131.252 103.655 135.137 107.727 140.03 107.787C144.894 107.846 148.927 103.925 148.987 98.9851C149.046 94.0754 145.161 90.0039 140.268 89.944Z" fill="#D96B5A"/>
<path d="M140.266 90.0319C135.432 89.9721 131.458 93.8639 131.399 98.7436C131.34 103.623 135.195 107.635 140.029 107.695C144.863 107.755 148.837 103.863 148.897 98.9831C148.956 94.1034 145.101 90.0918 140.266 90.0319Z" fill="#D96A5A"/>
<path d="M140.265 90.1237C135.491 90.0639 131.546 93.9258 131.487 98.7456C131.428 103.566 135.253 107.547 140.028 107.607C144.803 107.667 148.747 103.805 148.807 98.9851C148.866 94.1653 145.04 90.1836 140.265 90.1237Z" fill="#D96959"/>
<path d="M140.266 90.2097C135.521 90.1498 131.636 93.9818 131.577 98.7418C131.518 103.532 135.314 107.453 140.029 107.513C144.774 107.573 148.659 103.741 148.718 98.9813C148.778 94.1913 144.982 90.2696 140.266 90.2097Z" fill="#D96858"/>
<path d="M140.265 90.3015C135.579 90.2416 131.724 94.0137 131.665 98.7438C131.605 103.474 135.342 107.366 140.028 107.426C144.714 107.485 148.569 103.713 148.628 98.9833C148.688 94.2532 144.951 90.3614 140.265 90.3015Z" fill="#D86757"/>
<path d="M140.264 90.3913C135.608 90.3315 131.812 94.0736 131.753 98.7737C131.693 103.474 135.4 107.306 140.057 107.366C144.713 107.426 148.509 103.683 148.568 98.9833C148.627 94.2832 144.92 90.4512 140.264 90.3913Z" fill="#D86657"/>
<path d="M140.263 90.4519C135.667 90.392 131.9 94.1042 131.811 98.7445C131.752 103.385 135.429 107.187 140.026 107.277C144.623 107.336 148.389 103.624 148.478 98.984C148.538 94.3437 144.86 90.5417 140.263 90.4519Z" fill="#D86556"/>
<path d="M140.266 90.5417C135.729 90.4819 131.962 94.1641 131.903 98.7445C131.844 103.325 135.492 107.127 140.029 107.187C144.566 107.247 148.333 103.564 148.392 98.984C148.452 94.4036 144.804 90.6016 140.266 90.5417Z" fill="#D86455"/>
<path d="M140.267 90.6316C135.759 90.5717 132.052 94.1941 131.993 98.7446C131.934 103.295 135.522 107.037 140.03 107.097C144.538 107.157 148.245 103.535 148.304 98.9841C148.363 94.4336 144.775 90.6915 140.267 90.6316Z" fill="#D86354"/>
<path d="M140.268 90.7214C135.82 90.6616 132.142 94.254 132.083 98.7446C132.023 103.235 135.582 106.947 140.031 107.007C144.479 107.067 148.157 103.475 148.216 98.9841C148.275 94.4935 144.717 90.7813 140.268 90.7214Z" fill="#D76253"/>
<path d="M140.265 90.8113C135.846 90.7514 132.228 94.3139 132.169 98.7746C132.109 103.235 135.639 106.888 140.057 106.947C144.476 107.007 148.094 103.445 148.154 98.9841C148.213 94.5235 144.684 90.8712 140.265 90.8113Z" fill="#D76153"/>
<path d="M140.268 90.9011C135.908 90.8413 132.32 94.3739 132.261 98.7746C132.201 103.175 135.701 106.798 140.06 106.858C144.42 106.918 148.008 103.385 148.068 98.9842C148.127 94.5834 144.627 90.961 140.268 90.9011Z" fill="#D76052"/>
<path d="M140.265 90.9597C135.935 90.8999 132.406 94.3726 132.346 98.7434C132.287 103.114 135.727 106.677 140.057 106.737C144.387 106.796 147.916 103.324 147.976 98.953C148.035 94.5821 144.595 91.0196 140.265 90.9597Z" fill="#D75F51"/>
<path d="M140.266 91.0496C135.995 90.9897 132.496 94.4325 132.436 98.7435C132.377 103.054 135.788 106.587 140.058 106.647C144.329 106.707 147.828 103.264 147.887 98.953C147.947 94.6421 144.536 91.1095 140.266 91.0496Z" fill="#D75E50"/>
<path d="M140.263 91.1394C136.022 91.0796 132.552 94.4924 132.493 98.7435C132.434 103.024 135.815 106.527 140.026 106.587C144.267 106.647 147.737 103.234 147.796 98.983C147.855 94.702 144.474 91.1993 140.263 91.1394Z" fill="#D65D50"/>
<path d="M140.264 91.2313C136.082 91.1714 132.642 94.5543 132.583 98.7754C132.523 102.997 135.875 106.469 140.056 106.529C144.238 106.589 147.678 103.206 147.737 98.985C147.797 94.7638 144.445 91.2911 140.264 91.2313Z" fill="#D65C4F"/>
<path d="M140.267 91.3191C136.144 91.2593 132.734 94.6122 132.675 98.7735C132.615 102.935 135.937 106.378 140.059 106.437C144.181 106.497 147.592 103.144 147.651 98.9831C147.711 94.8218 144.389 91.379 140.267 91.3191Z" fill="#D65B4E"/>
<path d="M140.236 91.411C136.144 91.3511 132.793 94.6442 132.733 98.7755C132.674 102.907 135.936 106.29 140.029 106.35C144.121 106.409 147.473 103.116 147.532 98.9851C147.591 94.8537 144.329 91.4708 140.236 91.411Z" fill="#D65A4D"/>
<path d="M140.237 91.4696C136.204 91.4097 132.882 94.6728 132.823 98.7443C132.764 102.816 135.996 106.169 140.03 106.229C144.063 106.288 147.385 103.025 147.444 98.9539C147.503 94.8824 144.271 91.5294 140.237 91.4696Z" fill="#D5594C"/>
<path d="M140.236 91.5594C136.233 91.4995 132.97 94.7328 132.911 98.7443C132.852 102.786 136.055 106.079 140.029 106.139C144.032 106.199 147.294 102.965 147.354 98.9539C147.413 94.9124 144.21 91.6193 140.236 91.5594Z" fill="#D5584C"/>
<path d="M140.237 91.6493C136.293 91.5894 133.06 94.7927 133.001 98.7743C132.942 102.756 136.115 106.019 140.059 106.079C144.003 106.139 147.236 102.936 147.295 98.9539C147.355 94.9723 144.181 91.7091 140.237 91.6493Z" fill="#D5574B"/>
<path d="M140.236 91.7372C136.321 91.6773 133.118 94.8207 133.089 98.7724C133.029 102.724 136.143 105.957 140.058 105.987C143.973 106.047 147.176 102.904 147.205 98.952C147.265 95.0003 144.151 91.7671 140.236 91.7372Z" fill="#D5564A"/>
<path d="M140.237 91.829C136.382 91.7691 133.209 94.8826 133.149 98.7744C133.09 102.666 136.174 105.87 140.03 105.929C143.885 105.989 147.058 102.876 147.118 98.984C147.177 95.0921 144.093 91.8888 140.237 91.829Z" fill="#D55549"/>
<path d="M140.236 91.9169C136.44 91.857 133.296 94.9405 133.237 98.7725C133.178 102.604 136.233 105.778 140.029 105.838C143.825 105.898 146.968 102.814 147.028 98.982C147.087 95.1501 144.032 91.9767 140.236 91.9169Z" fill="#D45449"/>
<path d="M140.235 91.9794C136.469 91.9195 133.384 94.9731 133.325 98.7751C133.266 102.577 136.291 105.691 140.057 105.75C143.824 105.81 146.908 102.757 146.967 98.9547C147.026 95.1527 144.001 92.0393 140.235 91.9794Z" fill="#D45348"/>
<path d="M140.236 92.0673C136.529 92.0074 133.474 95.0011 133.415 98.7732C133.356 102.515 136.321 105.599 140.058 105.659C143.765 105.719 146.82 102.725 146.879 98.9528C146.938 95.1808 143.973 92.1272 140.236 92.0673Z" fill="#D45247"/>
</g>
<path d="M163.755 87.3079C160.255 86.0206 155.985 89.2239 154.265 94.4629C152.544 99.7019 153.998 104.971 157.497 106.228C160.997 107.515 165.267 104.312 166.987 99.0732C168.707 93.8342 167.254 88.5653 163.755 87.3079Z" fill="#E5A185"/>
<path d="M164.112 99.6429C160.702 101.828 157.083 101.11 154.444 98.9543C154.503 103.355 153.554 111.708 147.297 120.18C142.285 127.005 131.43 129.251 123.364 128.921C104.146 128.173 99.1045 122.245 95.1602 114.222C97.8589 122.994 104.502 131.137 119.597 132.215C147.593 134.19 155.334 122.425 156.431 105.66C156.757 105.87 157.083 106.079 157.469 106.199C160.968 107.486 165.239 104.283 166.959 99.0441C167.404 97.697 167.641 96.3498 167.671 95.0625C167.048 96.8587 165.891 98.4454 164.082 99.613L164.112 99.6429Z" fill="#D78C74"/>
<path d="M157.912 96.7678L161.115 97.2468C161.115 92.1275 164.852 90.4211 164.852 90.4211C158.743 88.1758 157.883 96.7678 157.883 96.7678H157.912Z" fill="#D78C74"/>
<path d="M140.918 83.8674C134.246 83.2687 131.873 90.0644 131.873 90.0644C131.873 90.0644 132.97 94.5849 139.969 94.7346C148.066 94.8843 148.125 90.6931 148.125 90.6931C148.125 90.6931 147.591 84.4362 140.918 83.8375V83.8674Z" fill="white"/>
<path d="M100.317 88.0867C100.317 88.0867 99.1896 92.3378 106.811 92.727C114.433 93.1162 115.115 90.7212 115.115 90.7212C115.115 90.7212 107.849 76.6508 100.317 88.0867Z" fill="white"/>
<path d="M110.463 85.6921C108.891 85.1532 106.904 86.7997 106.074 89.3444C105.688 90.5119 105.629 91.6795 105.807 92.6375C106.133 92.6674 106.459 92.6973 106.815 92.7273C108.683 92.8171 110.107 92.7273 111.234 92.6075C111.471 92.1884 111.679 91.7693 111.827 91.2903C112.657 88.7456 112.064 86.2609 110.463 85.722V85.6921Z" fill="url(#paint0_linear_2394_71821)"/>
<path opacity="0.8" d="M105.094 90.0328L105.331 91.1105C105.331 91.1105 109.839 90.7513 109.424 88.6856C108.979 86.6199 105.094 90.0328 105.094 90.0328Z" fill="white"/>
<path d="M140.594 94.7319C141.335 94.0434 142.106 92.8758 142.492 91.6783C143.322 89.1337 142.729 86.6489 141.127 86.11C139.556 85.5712 137.569 87.2177 136.738 89.7624C136.175 91.4388 136.412 93.265 136.975 94.3427C137.836 94.5523 138.814 94.702 139.971 94.7319C140.208 94.7319 140.386 94.7319 140.594 94.7319Z" fill="url(#paint1_linear_2394_71821)"/>
<path opacity="0.8" d="M135.73 91.1695L135.611 92.3071C135.611 92.3071 140.356 92.1275 139.912 90.0618C139.467 87.9962 135.73 91.1695 135.73 91.1695Z" fill="white"/>
<path d="M107.286 81.709C101.621 81.709 100.316 88.0856 100.316 88.0856C100.316 88.0856 102.659 84.8224 106.9 84.8224C111.141 84.8224 115.085 90.7201 115.085 90.7201C115.085 90.7201 114.67 81.709 107.256 81.709H107.286Z" fill="#381911"/>
<path d="M102.721 74.585L103.195 77.2494C108.474 74.106 119.862 73.0881 119.862 73.0881L120.248 66.502C107.555 67.5797 102.721 74.585 102.721 74.585Z" fill="#422E26"/>
<path d="M132.703 67.5508L131.25 73.4185C131.25 73.4185 144.625 76.1427 148.866 79.4658L149.904 76.9211C149.904 76.9211 145.04 69.4668 132.674 67.5508H132.703Z" fill="#422E26"/>
<path d="M140.296 82.9364C132.822 82.5771 131.873 90.0614 131.873 90.0614C131.873 90.0614 133.89 85.4511 140.474 86.1696C147.087 86.8881 148.125 90.9595 148.125 90.9595C148.125 90.9595 147.769 83.2956 140.296 82.9364Z" fill="#381911"/>
<path d="M124.431 108.952C110.967 109.162 109.365 106.168 109.365 106.168C109.365 106.168 107.586 120.538 123.956 120.658C139.615 120.777 137.005 106.946 136.887 106.378C136.916 106.647 136.768 108.743 124.401 108.952H124.431Z" fill="#6C332E"/>
<path d="M133.921 116.048C126.803 115.15 120.635 115.09 114.674 118.263C116.809 119.67 119.804 120.628 123.986 120.658C130.036 120.688 133.358 118.653 135.137 116.108C134.751 116.108 134.336 116.108 133.921 116.048Z" fill="#7A3835"/>
<path d="M133.86 108.113C132.021 108.532 129.085 108.861 124.429 108.951C118.142 109.041 114.435 108.442 112.299 107.783C111.083 111.136 116.184 114.459 122.65 114.489C129.441 114.549 134.927 111.376 133.889 108.113H133.86Z" fill="white"/>
<path opacity="0.3" d="M130.952 111.885C131.219 111.974 131.457 112.094 131.694 112.214C133.414 111.076 134.304 109.609 133.829 108.113C131.99 108.532 129.054 108.861 124.398 108.951C118.111 109.041 114.404 108.442 112.269 107.783C111.853 108.891 112.18 109.999 112.98 110.986C118.556 108.292 125.288 109.879 130.952 111.885Z" fill="#D6C0BA"/>
<path d="M119.477 94.3429C119.477 94.3429 114.436 90.6008 112.627 97.0972C110.818 103.594 123.659 107.515 127.188 100.72C130.747 93.9238 121.583 81.2305 121.583 81.2305C121.583 81.2305 123.363 89.0441 119.477 94.3429Z" fill="#E5A185"/>
<path opacity="0.2" d="M119.476 94.3436C119.476 94.3436 114.583 90.841 112.744 96.6787C115.354 97.3074 118.082 97.7864 120.751 97.9361C122.383 94.0443 122.887 89.8231 123.035 85.2427C122.679 85.1529 122.294 85.0332 121.938 84.9434C122.027 87.6976 121.671 91.32 119.447 94.3736L119.476 94.3436Z" fill="white"/>
<path d="M127.751 37.5532C92.163 39.9482 97.3233 79.7646 97.3233 79.7646C99.4289 67.9095 106.784 53.2403 112.389 52.9409C112.389 52.9409 117.253 56.9525 124.548 57.1022C131.073 57.2219 140.118 52.432 140.118 52.432C146.613 52.2823 154.057 72.6096 154.946 88.9852C155.154 92.7274 158.357 88.4164 158.357 88.4164C158.357 88.4164 162.657 35.2181 127.751 37.5532Z" fill="#4F372D"/>
<path d="M146.377 40.6355C135.849 24.4096 101.536 29.1397 101.536 29.1397C98.2149 47.551 110.967 51.6823 110.967 51.6823C110.967 51.6823 140.654 46.3535 145.161 49.5268C149.669 52.7301 158.418 78.4461 158.418 78.4461C158.418 78.4461 166.841 55.2748 161.235 45.3955C157.113 38.1507 146.377 40.6056 146.377 40.6056V40.6355Z" fill="#4F372D"/>
<path d="M114.82 25.3984C114.939 27.8233 117.015 30.3081 117.015 30.3081C117.015 30.3081 152.989 54.9763 146.375 40.6364C139.762 26.2965 114.82 25.3984 114.82 25.3984Z" fill="#4F372D"/>
<path d="M150.556 37.9447C148.539 38.274 149.696 36.9867 149.696 36.9867C149.696 36.7472 148.48 37.0466 148.48 37.0466C144.536 39.3218 146.582 36.1185 146.582 36.1185C144.654 32.0171 138.693 30.7598 138.693 30.7598C138.871 34.1427 142.46 37.5854 142.667 37.7052L145.752 42.4652L152.158 41.4473L151.535 38.5434C152.573 37.0466 150.556 37.9447 150.556 37.9447Z" fill="#4F372D"/>
<path d="M102.516 43.1543C92.0468 46.3576 95.0718 88.4193 95.0718 88.4193C97.1774 76.5642 106.786 53.2132 112.391 52.9437C112.391 52.9437 107.201 49.8303 102.486 43.1543H102.516Z" fill="#422E26"/>
<path opacity="0.1" d="M153.523 39.4384C152.248 39.648 153.731 39.0193 152.337 39.3187C149.015 40.0971 145.516 40.606 142.105 40.127C138.131 39.5881 134.662 37.7919 131.132 35.9957C129.353 35.0976 127.574 34.1695 125.765 33.3612C121.85 31.6548 117.223 30.0082 112.894 30.1579C110.758 30.2178 108.653 30.8764 106.695 31.7147C104.857 32.4631 103.374 33.5708 102.276 34.7084C101.802 35.1874 101.416 35.6664 101.061 36.1154C101.12 37.5524 101.298 38.8696 101.565 40.0671C101.713 39.9474 101.832 39.8276 101.98 39.7378C102.692 39.1989 103.581 38.6601 104.619 38.211C105.657 37.7919 106.844 37.4027 108.149 37.3129C113.279 36.9237 118.084 38.9894 122.71 40.9353C124.608 41.7137 126.536 42.6417 128.582 43.5099C130.628 44.3781 132.734 45.2163 134.988 45.9049C138.725 47.0724 143.321 47.4017 147.117 46.3539C147.622 46.2042 148.155 46.0845 148.63 45.9348C150.587 45.3061 152.307 44.4978 153.79 43.7195C155.273 42.9411 156.548 42.2525 157.675 41.7137C158.446 41.3245 156.697 42.013 157.349 41.8334C156.37 40.5461 154.769 39.7977 153.494 39.4384H153.523Z" fill="#E5912F"/>
<path d="M112.508 98.9238C113.249 104.253 124.015 106.857 127.218 100.72C127.425 100.361 127.573 99.9417 127.692 99.5525C122.621 100.63 117.372 100.301 112.508 98.9238Z" fill="#D78C74"/>
<path d="M145.753 139.818C145.753 139.818 145.189 155.805 171.999 201.279C203.376 254.448 216.336 235.198 216.336 235.198L221.318 223.403C221.318 223.403 194.42 172.929 181.282 157.421C168.144 141.914 145.753 139.848 145.753 139.848V139.818Z" fill="#6D7DB3"/>
<path d="M211.384 197.329C211.384 197.329 202.992 183.468 200.293 183.858C197.594 184.247 182.469 211.1 188.43 226.698C194.391 242.295 224.671 248.612 223.989 218.016C223.366 190.564 211.592 197.09 211.384 197.329Z" fill="#B6BDCE"/>
<path d="M66.8354 157.392C53.6975 172.899 26.7988 223.373 26.7988 223.373L31.7812 235.168C31.7812 235.168 44.7412 254.418 76.118 201.25C102.957 155.775 103.224 140.627 103.224 140.627C103.224 140.627 80.003 141.884 66.8354 157.392Z" fill="#6D7DB3"/>
<path d="M143.083 297.137L134.779 310.968H143.587L151.268 297.137H143.083Z" fill="#3D4041"/>
<path d="M76.1189 296.719C76.1189 296.719 74.903 304.023 75.3479 310.969H161.382L161.768 294.443L76.1189 296.719Z" fill="#363C42"/>
<path d="M73.9238 310.968H75.9405L73.9535 310.279C73.9535 310.459 73.9535 310.698 73.9238 310.968Z" fill="#363C42"/>
<path d="M161.207 307.137L135.258 310.939H162.868C162.779 308.394 162.305 307.077 161.207 307.137Z" fill="#363C42"/>
<path d="M96.2285 143.651V162.601H152.013L150.293 142.034C133.566 137.035 112.451 136.825 96.2582 143.651H96.2285Z" fill="#D78C74"/>
<path d="M153.672 141.943C152.219 141.524 150.825 142.931 149.283 142.512C147.681 152.212 135.463 152.601 122.206 152.81C110.255 153.02 104.798 150.385 102.692 141.135C98.7181 141.823 88.6051 145.086 83 148.709V310.938H158.387V143.35C156.934 142.781 155.392 142.302 153.672 141.913V141.943Z" fill="#DFE5EA"/>
<path d="M116.099 157.241C115.594 154.727 108.032 147.392 106.43 140.387C99.2535 140.387 84.9293 146.284 80.5698 150.595C71.1983 159.846 71.0796 182.538 70.1899 215.499C69.2706 250.047 69.2113 247.592 65 310.939H108.091C106.579 258.549 115.357 164.636 116.069 157.241H116.099Z" fill="#6D7DB3"/>
<path d="M174.163 171.433C174.163 168.23 174.727 146.346 153.671 141.915C152.217 141.496 145.545 139.73 144.002 139.311C142.609 147.663 139.257 145.987 129.382 157.003C128.462 166.164 121.582 237.774 122.294 310.91H176.032C173.007 272.501 174.045 204.244 174.134 171.403L174.163 171.433Z" fill="#6D7DB3"/>
<path d="M100.616 252.47C102.662 207.983 109.453 155.833 110.403 148.768C110.195 148.468 110.017 148.169 109.809 147.87L106.992 147.48C106.903 148.049 99.2812 204.571 97.0866 252.32C95.93 277.168 95.9893 297.316 96.2859 310.967H99.8447C99.5481 297.376 99.4888 277.288 100.645 252.47H100.616Z" fill="#7588BC"/>
<path d="M134.097 252.742C134.216 202.867 140.058 149.608 140.118 149.07L137.953 148.83C137.478 149.219 136.974 149.668 136.411 150.147C135.462 159.069 130.628 207.297 130.539 252.772C130.479 277.35 131.191 297.169 131.962 311H135.521C134.78 297.229 134.038 277.41 134.097 252.772V252.742Z" fill="#7588BC"/>
<path d="M76.979 173.586L75.1699 177.358L106.221 172.089L105.627 168.557L76.979 173.586Z" fill="#7588BC"/>
<path d="M110.758 133.291C110.758 133.291 107.051 134.668 102.158 141.434C97.2644 148.17 101.713 162.15 101.713 162.15C101.713 162.15 102.454 158.857 104.085 153.349C106.488 145.236 116.096 157.301 116.096 157.301C116.096 157.301 115.236 152.541 113.279 148.11C110.313 141.374 110.758 133.351 110.758 133.351V133.291Z" fill="#7588BC"/>
<path d="M107.111 221.724C108.421 221.724 109.483 220.772 109.483 219.598C109.483 218.424 108.421 217.473 107.111 217.473C105.801 217.473 104.738 218.424 104.738 219.598C104.738 220.772 105.801 221.724 107.111 221.724Z" fill="#B0B5C1"/>
<path d="M104.41 249.809C103.105 249.809 102.037 250.767 102.037 251.934C102.037 253.102 103.105 254.06 104.41 254.06C105.715 254.06 106.782 253.102 106.782 251.934C106.782 250.767 105.715 249.809 104.41 249.809Z" fill="#B0B5C1"/>
<path d="M103.521 279.235C104.831 279.235 105.894 278.284 105.894 277.11C105.894 275.936 104.831 274.984 103.521 274.984C102.211 274.984 101.148 275.936 101.148 277.11C101.148 278.284 102.211 279.235 103.521 279.235Z" fill="#B0B5C1"/>
<path d="M103.521 301.061C102.216 301.061 101.148 302.019 101.148 303.186C101.148 304.354 102.216 305.312 103.521 305.312C104.826 305.312 105.894 304.354 105.894 303.186C105.894 302.019 104.826 301.061 103.521 301.061Z" fill="#B0B5C1"/>
<path d="M111.558 169.605C112.868 169.605 113.931 168.653 113.931 167.479C113.931 166.305 112.868 165.354 111.558 165.354C110.248 165.354 109.186 166.305 109.186 167.479C109.186 168.653 110.248 169.605 111.558 169.605Z" fill="#B0B5C1"/>
<path d="M109.158 193.735C110.468 193.735 111.53 192.784 111.53 191.61C111.53 190.436 110.468 189.484 109.158 189.484C107.847 189.484 106.785 190.436 106.785 191.61C106.785 192.784 107.847 193.735 109.158 193.735Z" fill="#B0B5C1"/>
<path d="M136.878 167.953L136.156 171.471L164.964 177.493L165.686 173.975L136.878 167.953Z" fill="#7588BC"/>
<path d="M139.021 134.43C139.021 134.43 139.288 137.334 136.322 144.07C134.365 148.531 130.094 151.704 129.412 157.392C129.412 157.392 142.669 145.178 145.101 153.291C146.732 158.799 147.473 162.092 147.473 162.092C147.473 162.092 151.922 148.142 147.028 141.376C142.135 134.64 139.051 134.4 139.051 134.4L139.021 134.43Z" fill="#7588BC"/>
<path d="M47.8265 183.858C45.1278 183.469 33.7693 196.372 33.7693 196.372C33.7693 196.372 24.9019 197.749 24.0418 217.448C22.7073 248.672 53.6986 242.265 59.6892 226.668C65.6502 211.071 50.5253 184.247 47.8265 183.828V183.858Z" fill="#B6BDCE"/>
<path opacity="0.1" d="M110.757 133.291C110.757 133.291 109.808 133.65 108.266 134.848C104.707 138.261 105.271 145.146 106.872 150.535C110.579 150.385 116.095 157.271 116.095 157.271C116.095 157.271 115.235 152.511 113.278 148.08C110.312 141.344 110.757 133.321 110.757 133.321V133.291Z" fill="white"/>
<path opacity="0.1" d="M139.021 134.43C139.021 134.43 139.288 137.334 136.322 144.069C134.365 148.53 130.094 151.703 129.412 157.391C129.412 157.391 137.093 150.326 141.838 150.536C142.728 144.908 142.758 139.22 139.14 134.43C139.11 134.43 139.051 134.43 139.051 134.43H139.021Z" fill="white"/>
<path d="M71.4629 182.089C70.7808 191.579 70.5436 202.775 70.1877 215.499C70.1284 217.834 70.0691 219.989 70.0098 222.025C74.2803 166.581 85.9354 147.482 89.4646 143.32C87.1514 143.829 85.105 144.488 82.9994 145.715C78.6102 151.763 74.5473 165.833 71.4333 182.059L71.4629 182.089Z" fill="#7588BC"/>
<path d="M173.957 244.417C173.364 233.041 174.017 221.725 174.076 211.127C170.22 168.736 162.836 150.714 158.476 142.751C158.091 142.601 157.171 141.763 153.02 141.164C153.02 141.164 169.242 173.706 173.987 244.447L173.957 244.417Z" fill="#7588BC"/>
<path d="M74.9636 218.554C74.8153 220.649 75.8236 222.655 77.603 223.733L82.704 226.876C84.1275 227.744 85.9069 227.744 87.3008 226.846L93.9439 222.595C95.3674 221.667 96.2868 220.14 96.4351 218.434L98.0365 197.328H76.5354L74.9932 218.554H74.9636Z" fill="#7588BC"/>
<path d="M140 199.754V220.68C140 222.686 140.979 224.572 142.58 225.709L146.91 228.793C149.223 230.439 152.367 230.35 154.561 228.524L160.938 223.285C162.806 221.758 163.844 219.453 163.755 217.028L163.192 199.754H140Z" fill="#7588BC"/>
<path d="M51.4437 112.486C51.4437 112.486 50.554 100.331 46.758 95.4214C45.7496 94.1341 50.4058 89.404 55.1508 94.164C60.1925 99.2533 59.3917 110.959 59.3917 110.959L51.4437 112.486Z" fill="#D58A73"/>
<path d="M74.9315 129.28C74.9315 129.28 76.8592 127.484 76.8888 125.059C76.9185 122.634 75.6136 121.347 75.6136 121.347C77.3633 119.7 77.1854 116.916 76.2067 115.18C75.2281 113.443 72.7369 112.575 72.7369 112.575C72.7369 112.575 73.5969 110.39 73.0928 108.893C72.5886 107.396 69.5933 106.198 64.4627 106.857C59.332 107.516 49.7233 110.12 49.1301 112.455C49.0412 112.814 48.9818 113.353 48.9225 114.012C48.5963 118.323 47.9735 137.483 48.0032 138.291C46.8169 160.864 29.7939 190.471 28.1035 208.733C27.2138 218.103 28.3704 224.121 30.9505 227.953C31.1581 230.438 31.9589 234.27 34.7466 235.407C37.5343 236.545 40.7669 235.228 42.665 234.18C50.5536 234.719 59.9845 226.905 63.3654 215.649C66.1828 206.338 63.6916 166.641 62.535 150.416C71.9658 147.272 70.0381 139.997 70.0381 139.997C70.0381 139.997 72.8259 139.488 74.546 137.752C76.266 135.986 77.2151 133.8 76.7405 132.274C76.2364 130.777 74.9018 129.25 74.9018 129.25L74.9315 129.28Z" fill="#E5A185"/>
<path opacity="0.6" d="M76.8608 132.722C76.8608 132.692 76.8608 132.662 76.8608 132.632C76.8608 132.512 76.8015 132.422 76.7718 132.302C76.7125 132.123 76.6532 131.943 76.5642 131.794C76.4752 131.614 76.4159 131.464 76.3269 131.285C75.7338 130.207 74.9331 129.309 74.9331 129.309C74.9331 129.309 76.8608 127.512 76.8904 125.088C76.9201 122.663 75.6152 121.375 75.6152 121.375C77.3649 119.729 77.187 116.945 76.2083 115.208C75.2296 113.472 72.7385 112.604 72.7385 112.604C72.7385 112.604 73.5985 110.418 73.0944 108.922C72.9757 108.562 72.7088 108.233 72.3529 107.934C76.5049 112.694 60.9054 114.22 60.9054 114.22L61.2317 115.418C61.2317 115.418 74.6069 112.664 75.2296 117.214C75.8821 121.765 62.9221 122.423 62.9221 122.423L63.1297 123.83C63.1297 123.83 75.4966 121.794 75.7338 125.028C75.9711 128.261 64.2567 129.967 64.2567 129.967L64.5532 131.225C64.5532 131.225 74.9034 129.309 75.3779 131.524C75.8228 133.59 74.1917 134.817 74.0137 134.967C70.0397 137.062 64.5236 138.17 60.1937 137.482C54.4699 136.583 52.5719 131.135 51.8008 126.016C51.2373 122.333 49.6655 114.49 51.9195 110.329C50.407 111.047 49.369 111.795 49.1614 112.514C49.0724 112.873 49.0131 113.412 48.9538 114.071C48.6276 118.382 48.0048 137.541 48.0344 138.35C46.8482 160.922 29.8252 190.53 28.1347 208.792C27.245 218.162 28.4017 224.18 30.9818 228.012C31.1894 230.496 31.9901 234.328 34.7779 235.466C37.5656 236.603 40.7982 235.286 42.6962 234.238C50.5849 234.777 60.0157 226.964 63.3966 215.707C66.214 206.397 63.7228 166.7 62.5662 150.474C71.9971 147.331 70.0694 140.056 70.0694 140.056C70.0694 140.056 72.8571 139.547 74.5772 137.811C75.7931 136.583 76.5939 135.146 76.8311 133.859C76.8311 133.859 76.8311 133.829 76.8311 133.799C76.8311 133.68 76.8608 133.59 76.8608 133.47C76.8608 133.44 76.8608 133.41 76.8608 133.38C76.8608 133.29 76.8608 133.201 76.8608 133.111C76.8608 133.081 76.8608 133.021 76.8608 132.991C76.8608 132.901 76.8608 132.811 76.8608 132.751V132.722ZM59.126 191.758C58.2363 209.241 56.9611 220.737 48.153 220.228C39.345 219.719 39.8492 208.642 42.1031 199.661C44.3866 190.68 51.0001 172.538 52.5719 164.964C54.1734 157.36 54.1437 151.582 56.9314 152.33C60.3716 153.229 59.9861 174.304 59.0964 191.788L59.126 191.758Z" fill="#D58A73"/>
<path d="M197.83 113.085C197.83 113.085 198.72 100.931 202.516 96.021C203.525 94.7337 198.868 90.0036 194.123 94.7636C189.082 99.8529 189.882 111.558 189.882 111.558L197.83 113.085Z" fill="#D58A73"/>
<path d="M174.344 129.878C174.344 129.878 172.416 128.081 172.386 125.656C172.357 123.232 173.662 121.944 173.662 121.944C171.912 120.298 172.09 117.514 173.069 115.777C174.047 114.041 176.538 113.173 176.538 113.173C176.538 113.173 175.678 110.987 176.182 109.49C176.687 107.994 179.682 106.796 184.813 107.455C189.943 108.113 199.552 110.718 200.145 113.053C200.234 113.412 200.293 113.951 200.353 114.61C200.679 118.921 201.302 138.08 201.272 138.889C202.458 161.461 219.481 191.069 221.172 209.331C222.061 218.701 220.905 224.718 218.325 228.55C218.117 231.035 217.316 234.867 214.529 236.005C211.741 237.142 208.508 235.825 206.61 234.777C198.722 235.316 189.291 227.503 185.91 216.246C183.092 206.936 185.584 167.239 186.74 151.013C177.309 147.87 179.237 140.595 179.237 140.595C179.237 140.595 176.449 140.086 174.729 138.35C173.009 136.584 172.06 134.398 172.535 132.871C173.039 131.374 174.373 129.848 174.373 129.848L174.344 129.878Z" fill="#E5A185"/>
<path opacity="0.6" d="M172.384 133.561C172.384 133.591 172.384 133.651 172.384 133.681C172.384 133.771 172.384 133.861 172.384 133.95C172.384 133.98 172.384 134.01 172.384 134.04C172.384 134.16 172.384 134.25 172.414 134.37C172.414 134.37 172.414 134.4 172.414 134.429C172.622 135.717 173.452 137.154 174.668 138.381C176.388 140.147 179.176 140.626 179.176 140.626C179.176 140.626 177.248 147.901 186.679 151.045C185.522 167.271 183.061 206.967 185.849 216.278C189.229 227.534 198.66 235.348 206.549 234.809C208.417 235.857 211.65 237.204 214.467 236.036C217.255 234.899 218.056 231.067 218.263 228.582C220.844 224.75 222 218.733 221.11 209.362C219.39 191.071 202.397 161.463 201.211 138.92C201.211 138.112 200.618 118.952 200.291 114.641C200.262 113.982 200.173 113.473 200.084 113.084C199.906 112.366 198.838 111.617 197.326 110.899C199.58 115.06 197.978 122.904 197.444 126.586C196.673 131.705 194.775 137.154 189.052 138.052C184.722 138.74 179.205 137.633 175.231 135.537C175.024 135.387 173.393 134.16 173.867 132.094C174.342 129.879 184.692 131.795 184.692 131.795L184.989 130.538C184.989 130.538 173.274 128.831 173.511 125.598C173.749 122.365 186.116 124.401 186.116 124.401L186.323 122.993C186.323 122.993 173.363 122.335 174.016 117.784C174.668 113.234 188.014 115.988 188.014 115.988L188.34 114.791C188.34 114.791 172.74 113.294 176.892 108.504C176.507 108.803 176.24 109.133 176.151 109.492C175.647 110.989 176.507 113.174 176.507 113.174C176.507 113.174 174.016 114.072 173.037 115.779C172.058 117.485 171.91 120.299 173.63 121.946C173.63 121.946 172.325 123.233 172.355 125.658C172.384 128.083 174.312 129.879 174.312 129.879C174.312 129.879 173.511 130.777 172.918 131.855C172.829 132.035 172.74 132.184 172.681 132.364C172.592 132.543 172.533 132.693 172.473 132.873C172.444 132.992 172.414 133.082 172.384 133.202C172.384 133.232 172.384 133.262 172.384 133.292C172.384 133.382 172.384 133.442 172.384 133.531V133.561ZM192.343 152.901C195.131 152.182 195.101 157.96 196.703 165.534C198.304 173.138 204.918 191.25 207.172 200.231C209.455 209.212 209.93 220.319 201.122 220.798C192.314 221.307 191.039 209.811 190.149 192.328C189.259 174.845 188.874 153.769 192.314 152.871L192.343 152.901Z" fill="#D58A73"/>
<path d="M161.637 46.9198C162.678 44.9691 155.536 39.0477 145.687 33.694C135.837 28.3403 127.009 25.5816 125.968 27.5323C124.927 29.4831 132.069 35.4045 141.919 40.7582C151.768 46.1119 160.597 48.8705 161.637 46.9198Z" fill="#0C4266"/>
<path d="M161.707 47.2828C160.669 49.2287 151.831 46.4745 142.014 41.1157C132.168 35.757 125.051 29.4702 126.089 27.5243C126.296 27.165 126.771 27.0453 127.423 27.2848C128.076 27.5243 134.689 33.4219 142.697 37.7927C151.297 42.4928 160.935 43.8999 161.736 46.4146C162.537 48.9293 161.855 47.0732 161.736 47.3127L161.707 47.2828Z" fill="#092E4C"/>
<defs>
<linearGradient id="paint0_linear_2394_71821" x1="107.952" y1="93.8406" x2="110.721" y2="84.4434" gradientUnits="userSpaceOnUse">
<stop stop-color="#5C3333"/>
<stop offset="1"/>
</linearGradient>
<linearGradient id="paint1_linear_2394_71821" x1="137.806" y1="96.2887" x2="141.335" y2="85.7107" gradientUnits="userSpaceOnUse">
<stop stop-color="#5C3333"/>
<stop offset="1"/>
</linearGradient>
</defs>
</svg>
