<svg width="940" height="1600" viewBox="0 0 940 1600" fill="none" xmlns="http://www.w3.org/2000/svg">
<path d="M791.5 1524.6C791.5 1524.6 649.5 1552 474.2 1552C298.9 1552 156.9 1524.6 156.9 1524.6C156.9 1524.6 298.9 1497.2 474.2 1497.2C649.5 1497.2 791.5 1524.6 791.5 1524.6Z" fill="url(#paint0_linear_2394_71815)"/>
<path d="M411.201 391.4C419.201 389.7 427.401 388 436.901 387L435.101 329.7C434.601 312.2 452.801 298.3 476.801 298.6C499.801 299 520.301 313.6 520.701 331.1L523.001 387.6C533.501 389.2 542.501 391.9 551.401 394.4L550.801 447H410.201L411.201 391.4Z" fill="url(#paint1_linear_2394_71815)"/>
<path d="M269 576.501C277.1 504.801 295.2 470.301 319.6 442.901C341.1 418.701 388.2 395.201 412 390.701L412.2 389.801C418.8 369.901 436.4 370.801 436.4 370.801C440.8 403.001 479 412.501 479 412.501C513.9 399.901 522.6 373.301 522.6 373.301C536.4 373.401 545.9 388.301 548.7 392.501C589.3 394.801 638 409.301 660.7 443.301C683.7 477.701 747.9 547.501 758.5 598.001C758.5 598.001 755.2 645.501 744.8 655.001C731 667.701 676 645.101 666.3 635.201C655.1 623.801 617.3 572.301 617.3 572.301C617.3 572.301 631.4 745.701 627.9 780.701C627.2 787.401 618.1 795.401 617 797.601C605.8 819.301 338.4 816.201 337.8 798.901C337.8 795.901 327.6 788.401 327.2 782.501C324.5 745.901 325.3 663.301 327.1 588.601C304.8 584.401 279.9 577.101 269 576.601V576.501Z" fill="url(#paint2_linear_2394_71815)"/>
<path d="M329 1460.5C327.9 1461 248.1 1504.6 247.2 1518.3C247.2 1518.9 244.9 1519.3 244.6 1519.7V1525.1C287.2 1539.5 373.3 1522.5 373.3 1522.5C373.3 1522.5 373.5 1525.9 374.4 1526C391.5 1527.7 420.4 1523.8 422.4 1522.2C422.8 1521.9 423.4 1517.2 423.2 1513.1C423.2 1512.7 422.1 1511.8 422.1 1511.8C423 1495.6 423 1464.4 423.1 1463.7C425.9 1449.7 335.5 1436.3 329 1460.5Z" fill="#2C2C2D"/>
<path d="M620.3 1460.5C621.4 1461 701.2 1504.6 702.1 1518.3C702.1 1518.9 704.4 1519.3 704.7 1519.7V1525.1C662.1 1539.5 576 1522.5 576 1522.5C576 1522.5 575.8 1525.9 574.9 1526C557.8 1527.7 528.9 1523.8 526.9 1522.2C526.5 1521.9 525.9 1517.2 526.1 1513.1C526.1 1512.7 527.2 1511.8 527.2 1511.8C526.3 1495.6 526.3 1464.4 526.2 1463.7C523.4 1449.7 613.8 1436.3 620.3 1460.5Z" fill="#2C2C2D"/>
<path d="M429.4 1483.9C457.9 1168.6 470.7 917.501 473.1 847.201L329.5 831.301C319.6 941.801 328.3 1226.8 311.5 1470.3C311.5 1470.3 325.1 1462.5 352.4 1464C378.4 1465.4 408.1 1481.5 422.8 1486C422.8 1486 428.7 1484.2 429.4 1484V1483.9Z" fill="#333844"/>
<path d="M520.9 1483.8C492.4 1168.5 478.8 917.501 476.5 847.201L620.1 831.301C630 941.801 621.2 1226.8 638 1470.3C638 1470.3 624.1 1464.3 597.2 1463.9C582 1463.7 541.3 1481.4 526.6 1485.9L521 1483.8H520.9Z" fill="#333844"/>
<path d="M330.8 800.1C326.6 880.2 325.4 917.8 325.4 917.8C325.4 917.8 408.9 924.7 499.4 923.9C558.2 923.4 608.4 927.8 612.3 903.9C615.8 882.3 618.3 856.5 620.4 801.7C620.4 799.3 618.4 797.3 616 797.6C601.3 799.1 551.3 803.5 472.8 802.5C386.5 801.4 348.2 795.8 337.3 794.9C335.7 794.8 330.9 798.5 330.8 800.2V800.1Z" fill="#333844"/>
<path d="M448 917L447 923.4C470.9 924.2 501.8 923.6 501.8 923.6V917.1C501.7 917.1 448 917.1 448 917.1V917Z" fill="#292D35"/>
<path d="M326 896.7C332.8 892.3 346.1 882.9 354.3 875.4C353.4 874.1 352.5 872.8 351.5 871.5C346.8 875 331.3 885.7 326.2 889.2C326.2 891.6 326 894.1 326 896.6V896.7Z" fill="#292D35"/>
<path d="M472.801 819.8C397.501 819.8 350.801 816.4 330.301 814.5C327.801 814.5 326.201 841.6 329.101 842.9C351.001 844.9 397.701 848.1 472.901 848.1C548.101 848.1 594.601 844.2 621.701 842.2C624.101 842.4 623.501 814.4 620.901 814.4C595.701 816.3 540.901 819.7 472.901 819.7L472.801 819.8Z" fill="#1C1D1E"/>
<path d="M406.2 857.9L389 857L392.3 809.6L409.4 810.5L406.2 857.9Z" fill="#333844"/>
<path d="M548.401 857.9L531.301 857L534.501 809.6L551.601 810.5L548.401 857.9Z" fill="#333844"/>
<path d="M594.2 871C593.1 873.5 593.5 872.7 592.5 875.3C600.7 882.4 615.7 891.3 623.5 896.2C623.5 892.8 623.3 891.9 623.3 888.9L594.2 871.1V871Z" fill="#292D35"/>
<path d="M616.4 923.701C616.4 923.701 624.4 1151.8 619.5 1156.7C614.7 1161.6 589.2 1181.9 582.5 1181.2C571.7 1180.1 520.5 1156.9 517.7 1149.4C515 1141.9 503.7 926.901 507.7 927.001C511.7 927.101 616.2 923.801 616.2 923.801L616.4 923.701Z" fill="url(#paint3_linear_2394_71815)"/>
<path d="M511.4 1374.2C511.2 1374.2 512.1 1393.5 512.1 1394.6C512.3 1399.8 511.2 1405.6 512 1410.6C512.8 1416 516.6 1420.6 516.2 1426.3C515.9 1429.8 513.9 1432.9 512.3 1436.1C510.7 1439.3 509.5 1443 510.8 1446.3C511.9 1449 514.7 1450.9 515.7 1453.7C517 1457.4 514.9 1460.9 514.7 1464.5C514.4 1468.5 515.6 1472.9 515.8 1477.1C515.9 1479.1 515.3 1492.1 517.4 1493.3C519.4 1494.4 524.4 1496.9 526.6 1496.4C543.7 1492.8 570.1 1471 591.7 1466C616.3 1460.2 637.8 1470.5 637.8 1470.5C635.6 1469.9 638.2 1454.8 638.8 1453.3C639.8 1451 641.2 1448.8 641.5 1446.4C642.2 1439.6 633.6 1434 635.1 1427.3C635.9 1423.9 639.2 1421.2 639.2 1417.7C639.2 1414.8 637.1 1412.4 635.6 1409.9C632.9 1405 634 1399.9 633.7 1394.6C633.4 1389.2 633.1 1383.9 632.8 1378.5C632.8 1377.7 631.9 1363.4 632 1363.4L511.2 1374.2H511.4Z" fill="#333844"/>
<path d="M438.6 1373.3C438.8 1373.3 437.6 1394.4 437.6 1395.5C437.4 1400.7 437.6 1405.6 437 1410.6C436.2 1416 434.2 1419.3 434.7 1425C435 1428.5 435.1 1432.9 436.7 1436.1C438.3 1439.3 439.5 1443 438.2 1446.3C437.1 1449 434.3 1450.9 433.3 1453.7C432 1457.4 434.1 1460.9 434.3 1464.5C434.6 1468.5 433.4 1472.9 433.2 1477.1C433.1 1479.1 433.7 1492.1 431.6 1493.3C429.6 1494.4 425.2 1495.9 422.9 1495.9C392 1495.9 377.6 1472.7 357.8 1467.6C333.3 1461.3 311.1 1470.5 311.1 1470.5C313.3 1469.9 310.7 1454.8 310.1 1453.3C309.1 1451 307.7 1448.8 307.4 1446.4C306.7 1439.6 315.3 1434 313.8 1427.3C313 1423.9 309.7 1421.2 309.7 1417.7C309.7 1414.8 311.8 1412.4 313.3 1409.9C316 1405 314.9 1399.9 315.2 1394.6C315.5 1389.2 315.8 1383.9 316.1 1378.5C316.1 1377.7 317.6 1362.2 317.5 1362.2L438.8 1373.3H438.6Z" fill="#333844"/>
<path d="M372.201 1515.6C349.401 1518.4 323.501 1521.6 301.801 1521.9C268.901 1522.5 252.801 1519.3 247.301 1517.9C247.301 1518 247.301 1518.1 247.301 1518.2C247.301 1518.8 245.001 1519.2 244.701 1519.6V1519.8C247.501 1520.7 261.101 1524.5 294.201 1524.5C327.301 1524.5 299.301 1524.5 302.001 1524.5C323.801 1524.1 349.701 1520.9 372.601 1518.1C394.701 1515.4 413.901 1513 423.401 1513.9C423.401 1513.6 423.401 1513.3 423.401 1513C423.401 1512.6 422.301 1511.7 422.301 1511.7C422.301 1511.6 422.301 1511.4 422.301 1511.3C412.201 1510.7 393.601 1513 372.401 1515.6H372.201Z" fill="#3D3D3D"/>
<path d="M577.2 1515.6C600 1518.4 625.9 1521.6 647.5 1521.9C680.4 1522.5 696.5 1519.3 702.1 1517.9C702.1 1518 702.1 1518.1 702.1 1518.2C702.1 1518.8 704.4 1519.2 704.7 1519.6C701.9 1520.7 688.2 1524.5 655.2 1524.5C622.2 1524.5 650.1 1524.5 647.4 1524.5C625.6 1524.1 599.7 1520.9 576.8 1518.1C554.7 1515.4 535.5 1513 526.1 1513.9C526.1 1513.6 526.1 1513.3 526.1 1513C526.1 1512.6 527.2 1511.7 527.2 1511.7C527.2 1511.6 527.2 1511.4 527.2 1511.3C537.3 1510.7 555.8 1513 577.1 1515.6H577.2Z" fill="#3D3D3D"/>
<path d="M344.7 1503.6C316.4 1486.8 290.9 1488.5 272.7 1494.5C263.7 1500.6 255.9 1506.6 251.4 1511.5C257.7 1513 269 1514.6 289.1 1515.1C329 1516.1 351.6 1507.8 344.7 1503.7V1503.6Z" fill="url(#paint4_linear_2394_71815)"/>
<path d="M698 1511.5C693.4 1506.6 685.3 1500.4 676.1 1494.1C658 1488.4 632.9 1487.1 605.1 1503.6C598.2 1507.7 620.9 1516 660.7 1515C680.3 1514.5 691.6 1512.9 697.9 1511.5H698Z" fill="url(#paint5_linear_2394_71815)"/>
<path d="M334.501 923.701C334.501 923.701 324.701 1153.7 329.601 1158.6C334.401 1163.5 361.001 1184.2 367.701 1183.6C378.501 1182.5 430.701 1152.6 433.401 1145.1C436.101 1137.6 447.101 926.801 443.001 927.001C439.001 927.101 334.501 923.801 334.501 923.801V923.701Z" fill="url(#paint6_linear_2394_71815)"/>
<path d="M257.201 703.1C260.801 668.3 263.901 643.3 263.901 643.3C263.901 643.3 266.001 582.3 274.801 538.6C274.801 538.6 365.401 559.7 365.301 561.4C363.901 574.4 354.001 646.7 344.801 713.6C318.001 706 294.701 700.6 257.301 703.2L257.201 703.1Z" fill="#CADBEF"/>
<path d="M411.7 390.801C416.4 400.901 430.3 430.001 436.5 433.501C442.4 436.801 465.2 418.801 474.5 411.101C477.3 412.101 479 412.501 479 412.501C480.4 412.001 481.8 411.401 483.2 410.901C492.8 417.201 514.2 430.501 522.4 430.001C531.6 429.401 544.8 401.001 548.6 392.501C550.2 392.601 551.8 392.701 553.4 392.901C549.4 402.801 533.4 436.901 526.3 441.601C517.9 447.101 479.3 416.401 479.3 416.401C479.3 416.401 445.2 446.701 435.2 445.401C426.6 444.301 411.3 403.401 407.1 391.701C408.7 391.401 410.2 391.101 411.6 390.801H411.7Z" fill="url(#paint7_linear_2394_71815)"/>
<path d="M259.901 628.7C259.101 629.9 253.601 702 256.401 704.5C256.801 704.8 262.201 705.8 262.201 705.8C280.601 702.6 323.701 710 335.001 714.4C336.801 715.1 338.101 714 338.301 713.5C340.101 709.3 344.701 639.2 344.901 634C345.201 628.8 262.401 625.1 259.901 628.7Z" fill="#CADBEF"/>
<path d="M744.8 655C755.2 645.5 758.5 598 758.5 598C758 595.8 757.5 593.5 756.8 591.2C750.2 607.7 738.6 639.4 738.6 639.4C738.6 639.4 690.8 630.1 687.3 627.4C683.8 624.7 617.8 547.6 617.8 547.6L611.2 493H604C604 493 606 760.8 602.5 762.2C599 763.6 480.3 775 478.2 775C476.1 775 350.1 762.1 349.4 756.8C348.7 751.5 365.2 497 365.2 497H358L341.3 627.7C325.9 622.1 274.5 620 265.2 619.7C265 622.6 264.8 625.3 264.7 627.7C286.8 626 341.4 635.2 341.4 635.2L335 699.6C335 699.6 308.2 693.4 297.7 691.7C287.1 690 262.9 691 262 689.6C261.1 688.4 257.6 671.9 256.8 668.1C255.8 685.9 255.2 703.3 256.5 704.5C256.9 704.8 262.3 705.8 262.3 705.8C277.2 703.2 308.2 707.6 325.5 711.6C325.5 741.2 326.1 766.4 327.3 782.5C327.7 788.4 337.8 795.9 337.9 798.9C337.9 798.9 408.4 804.6 478.3 804.6C545 804.6 615.4 800.3 615.4 800.3C616.5 798.1 627.3 787.4 627.9 780.7C631.4 745.7 617.3 572.3 617.3 572.3C617.3 572.3 655.2 623.8 666.3 635.2C676 645.1 731 667.7 744.8 655Z" fill="url(#paint8_linear_2394_71815)"/>
<path d="M474.6 804.5L476.7 413.1H482C482 413.1 478.9 737.1 480.9 804.5H474.7H474.6Z" fill="url(#paint9_linear_2394_71815)"/>
<path d="M497.201 819.701C497.201 819.701 445.201 819.201 445.201 820.201C445.201 820.201 444.701 847.201 445.201 847.601C445.701 848.001 497.501 848.001 497.501 848.001C497.501 848.001 497.501 852.401 496.601 853.001C493.401 854.901 439.801 854.401 438.301 853.001C436.801 851.601 437.801 816.501 438.901 814.501C440.001 812.501 494.901 813.201 496.001 814.001C497.001 814.801 497.101 819.701 497.101 819.701H497.201Z" fill="url(#paint10_linear_2394_71815)"/>
<path d="M440.3 829.5C440.3 829.5 439.6 835.7 440.1 836.1C440.5 836.5 453.1 836.1 453.4 835.9C453.7 835.7 453.9 830.6 453.5 829.7C453.3 829.1 440.8 829 440.3 829.5Z" fill="url(#paint11_linear_2394_71815)"/>
<path d="M258.5 642C259.1 634.3 259.7 629 259.9 628.7C260.4 628 263.6 627.6 268.7 627.4C290.1 628.4 339.5 632.7 341.4 635.1C341.4 635.1 340.6 647.6 340.6 648.2C340.6 648.7 273.1 644 258.5 642Z" fill="url(#paint12_linear_2394_71815)"/>
<path d="M304.4 967.6C304.7 967.6 322.7 962.3 328.1 965.2C333.5 968.1 342.5 985.2 340.8 987.9C339 990.7 332.7 990.9 332.4 991C332.1 991 306.9 985.6 306.9 985.6L304.5 967.5L304.4 967.6Z" fill="url(#paint13_linear_2394_71815)"/>
<path d="M333.599 711.7C333.599 749.3 315.799 845.5 320.099 862.4C324.399 879.2 339.799 890.3 341.799 902.5C343.799 914.7 347.299 969.3 350.699 977.2C354.099 985.1 337.499 988.9 331.699 981.5C325.899 974.1 319.599 946.9 316.399 943.2C313.199 939.5 306.699 951.1 306.699 951.1C306.699 951.1 309.499 979.3 310.499 979.5C311.499 979.8 337.499 984.9 343.299 990.8C349.099 996.7 342.799 1004.7 341.399 1004.9C339.999 1005.1 312.799 1003.5 307.499 1001.8C302.199 1000.2 293.799 996.5 293.799 996.5C293.799 996.5 284.099 994.3 281.599 992.2C279.099 990.1 255.099 954.3 253.899 944.2C252.699 934.1 264.599 875.3 264.599 872C264.599 868.7 260.199 706.2 262.799 702.6C265.399 699.1 333.599 708.4 333.599 711.5V711.7Z" fill="#FF9E78"/>
<path d="M335.499 973.8C328.199 974.7 311.199 976.8 305.699 977L305.299 974.2C310.999 973.3 327.499 970.9 333.299 970.5C334.099 971.5 334.799 972.7 335.499 973.9V973.8Z" fill="#D37762"/>
<path d="M256.3 921.101C256.7 927.301 256.3 932.401 257.1 933.701C258.6 936.101 292.9 937.201 298.1 934.701C302.7 932.501 322.9 886.301 325.3 874.301C331.5 885.001 340.4 893.401 341.9 902.501C343.9 914.701 347.4 969.301 350.8 977.201C354.2 985.101 337.6 988.901 331.8 981.501C326 974.101 319.7 946.901 316.5 943.201C313.3 939.501 306.8 951.101 306.8 951.101C306.8 951.101 309.6 979.301 310.6 979.501C311.6 979.801 337.6 984.901 343.4 990.801C349.2 996.701 342.9 1004.7 341.5 1004.9C340.1 1005.1 312.9 1003.5 307.6 1001.8C302.3 1000.2 293.9 996.501 293.9 996.501C293.9 996.501 284.2 994.301 281.7 992.201C279.2 990.101 255.2 954.301 254 944.201C253.6 940.801 254.7 931.601 256.4 921.001L256.3 921.101Z" fill="url(#paint14_linear_2394_71815)"/>
<path d="M312.2 929.001C312.6 929.101 314.9 937.901 316.1 943.001C314.8 941.901 313.2 942.801 311.6 944.401C310.3 939.001 308.5 930.101 308.6 929.801C308.8 929.401 311.6 928.801 312.1 929.001H312.2Z" fill="#E4856B"/>
<path d="M293.8 996.6C293.8 996.6 290.9 995.9 287.9 995C283 986.1 270 959.5 270.2 959C270.4 958.4 272.6 957.4 273.6 957.4C274.6 957.4 291.5 989.9 295.3 997.3C294.4 996.9 293.8 996.7 293.8 996.7V996.6Z" fill="#E4856B"/>
<path d="M269.701 711.801C265.501 716.801 262.901 797.201 262.901 797.301C262.001 752.801 261.401 704.701 262.801 702.801C265.401 699.301 333.101 708.601 333.101 711.701C333.101 747.501 316.701 836.601 318.701 859.501C316.701 858.601 319.301 724.701 319.101 720.101C318.601 710.601 271.501 709.701 269.701 711.901V711.801Z" fill="url(#paint15_linear_2394_71815)"/>
<path d="M393.597 303.024C403.716 300.046 408.38 285.605 404.014 270.771C399.648 255.936 387.905 246.324 377.786 249.303C367.666 252.281 363.002 266.721 367.368 281.556C371.735 296.391 383.477 306.003 393.597 303.024Z" fill="url(#paint16_linear_2394_71815)"/>
<path d="M543.101 159.399C537.001 124.699 438.501 109.499 410.201 157.699C401.301 179.999 391.401 221.599 387.001 262.799C387.001 262.399 387.001 262.099 387.001 262.099C387.001 262.099 360.801 369.599 458.201 373.699C552.001 377.699 566.601 331.299 561.601 267.399C561.201 231.399 550.801 185.999 543.101 159.399Z" fill="url(#paint17_linear_2394_71815)"/>
<g opacity="0.4">
<path d="M549.463 293.35C553.759 271.849 542.007 251.375 523.214 247.62C504.422 243.865 485.704 258.251 481.408 279.751C477.112 301.252 488.863 321.726 507.656 325.481C526.449 329.236 545.166 314.851 549.463 293.35Z" fill="#FF9E78"/>
<path d="M549.169 293.29C553.433 271.952 541.786 251.636 523.156 247.913C504.526 244.191 485.966 258.471 481.703 279.809C477.439 301.147 489.085 321.463 507.716 325.186C526.346 328.909 544.905 314.628 549.169 293.29Z" fill="#FF9D77"/>
<path d="M548.972 293.252C553.214 272.022 541.638 251.811 523.116 248.11C504.594 244.409 486.14 258.619 481.898 279.849C477.656 301.079 489.232 321.289 507.754 324.99C526.276 328.691 544.73 314.482 548.972 293.252Z" fill="#FF9C77"/>
<path d="M548.777 293.212C552.986 272.144 541.472 252.083 523.058 248.404C504.644 244.724 486.305 258.82 482.095 279.887C477.885 300.955 489.4 321.016 507.814 324.695C526.227 328.375 544.567 314.279 548.777 293.212Z" fill="#FF9B76"/>
<path d="M548.58 293.173C552.768 272.214 541.323 252.258 523.018 248.6C504.713 244.943 486.478 258.968 482.29 279.927C478.102 300.886 489.546 320.842 507.852 324.5C526.157 328.158 544.392 314.132 548.58 293.173Z" fill="#FF9A76"/>
<path d="M548.385 293.133C552.54 272.336 541.157 252.53 522.96 248.894C504.763 245.258 486.643 259.169 482.487 279.965C478.332 300.762 489.715 320.569 507.912 324.205C526.109 327.841 544.229 313.93 548.385 293.133Z" fill="#FF9975"/>
<path d="M548.089 293.075C552.212 272.441 540.935 252.793 522.9 249.189C504.865 245.585 486.903 259.391 482.78 280.025C478.657 300.659 489.934 320.308 507.969 323.912C526.003 327.515 543.966 313.709 548.089 293.075Z" fill="#FF9875"/>
<path d="M547.894 293.037C551.995 272.511 540.788 252.968 522.862 249.386C504.936 245.804 487.079 259.539 482.977 280.065C478.876 300.591 490.083 320.134 508.009 323.716C525.935 327.298 543.792 313.563 547.894 293.037Z" fill="#FF9774"/>
<path d="M547.697 292.997C551.766 272.633 540.62 253.239 522.802 249.679C504.984 246.119 487.241 259.74 483.172 280.103C479.103 300.467 490.249 319.861 508.067 323.421C525.885 326.982 543.628 313.36 547.697 292.997Z" fill="#FF9674"/>
<path d="M547.502 292.958C551.549 272.703 540.474 253.415 522.764 249.876C505.054 246.337 487.417 259.888 483.369 280.143C479.322 300.398 490.398 319.687 508.107 323.226C525.817 326.765 543.454 313.213 547.502 292.958Z" fill="#FF9573"/>
<path d="M547.208 292.899C551.223 272.806 540.253 253.675 522.706 250.169C505.159 246.663 487.679 260.109 483.664 280.201C479.649 300.294 490.619 319.424 508.166 322.931C525.714 326.437 543.193 312.991 547.208 292.899Z" fill="#FF9472"/>
<path d="M547.011 292.86C551.004 272.876 540.104 253.851 522.666 250.366C505.227 246.881 487.853 260.257 483.859 280.241C479.866 300.225 490.766 319.251 508.205 322.735C525.644 326.22 543.018 312.844 547.011 292.86Z" fill="#FF9372"/>
<path d="M546.816 292.82C550.777 272.998 539.938 254.122 522.608 250.659C505.277 247.196 488.017 260.458 484.056 280.279C480.096 300.101 490.934 318.977 508.264 322.44C525.595 325.903 542.855 312.642 546.816 292.82Z" fill="#FF9271"/>
<path d="M546.619 292.781C550.558 273.068 539.79 254.297 522.568 250.856C505.345 247.415 488.191 260.606 484.252 280.319C480.312 300.033 491.08 318.803 508.303 322.245C525.525 325.686 542.68 312.495 546.619 292.781Z" fill="#FF9171"/>
<path d="M546.424 292.741C550.33 273.19 539.624 254.569 522.51 251.149C505.396 247.73 488.355 260.807 484.449 280.358C480.542 299.909 491.249 318.53 508.362 321.95C525.476 325.369 542.517 312.292 546.424 292.741Z" fill="#FF9070"/>
<path d="M546.128 292.683C550.013 273.241 539.421 254.733 522.469 251.346C505.518 247.959 488.627 260.974 484.742 280.417C480.856 299.86 491.449 318.367 508.4 321.754C525.352 325.141 542.243 312.126 546.128 292.683Z" fill="#FF8F70"/>
<path d="M545.933 292.643C549.785 273.363 539.254 255.005 522.411 251.639C505.568 248.274 488.791 261.175 484.939 280.455C481.086 299.736 491.617 318.094 508.46 321.459C525.303 324.825 542.08 311.923 545.933 292.643Z" fill="#FF8E6F"/>
<path d="M545.736 292.605C549.556 273.487 539.086 255.279 522.352 251.935C505.617 248.591 488.954 261.378 485.134 280.496C481.314 299.613 491.783 317.822 508.518 321.166C525.253 324.51 541.916 311.723 545.736 292.605Z" fill="#FF8D6F"/>
<path d="M545.541 292.565C549.339 273.555 538.94 255.452 522.313 252.13C505.687 248.807 489.129 261.524 485.331 280.534C481.532 299.543 491.932 317.646 508.558 320.969C525.184 324.291 541.742 311.574 545.541 292.565Z" fill="#FF8C6E"/>
<path d="M545.247 292.507C549.013 273.66 538.719 255.715 522.255 252.425C505.791 249.135 489.392 261.746 485.626 280.593C481.86 299.44 492.153 317.386 508.617 320.676C525.081 323.965 541.481 311.354 545.247 292.507Z" fill="#FF8B6E"/>
<path d="M545.05 292.468C548.794 273.73 538.571 255.89 522.215 252.622C505.859 249.353 489.565 261.895 485.821 280.633C482.076 299.372 492.3 317.212 508.656 320.48C525.011 323.748 541.306 311.207 545.05 292.468Z" fill="#FF8A6D"/>
<path d="M544.855 292.428C548.567 273.852 538.405 256.161 522.157 252.915C505.91 249.668 489.73 262.095 486.018 280.672C482.306 299.248 492.468 316.938 508.715 320.185C524.963 323.432 541.143 311.004 544.855 292.428Z" fill="#FF896C"/>
<path d="M544.658 292.39C548.348 273.922 538.256 256.337 522.117 253.112C505.978 249.887 489.903 262.244 486.213 280.711C482.523 299.179 492.615 316.765 508.754 319.99C524.893 323.214 540.967 310.858 544.658 292.39Z" fill="#FF886C"/>
<path d="M544.461 292.35C548.118 274.044 538.088 256.608 522.057 253.405C506.027 250.202 490.066 262.444 486.408 280.75C482.75 299.055 492.781 316.491 508.811 319.695C524.842 322.898 540.803 310.655 544.461 292.35Z" fill="#FF876B"/>
<path d="M544.167 292.292C547.803 274.095 537.887 256.773 522.019 253.602C506.15 250.431 490.339 262.612 486.703 280.809C483.067 299.006 492.983 316.328 508.851 319.499C524.719 322.67 540.531 310.489 544.167 292.292Z" fill="#FF866B"/>
<path d="M543.972 292.252C547.575 274.217 537.721 257.044 521.961 253.895C506.201 250.746 490.504 262.813 486.9 280.847C483.296 298.882 493.151 316.055 508.911 319.204C524.671 322.353 540.368 310.286 543.972 292.252Z" fill="#FF856A"/>
<path d="M543.775 292.213C547.357 274.287 537.572 257.219 521.921 254.092C506.269 250.964 490.677 262.961 487.095 280.887C483.513 298.814 493.298 315.881 508.949 319.009C524.601 322.136 540.193 310.139 543.775 292.213Z" fill="#FF846A"/>
<path d="M543.58 292.173C547.129 274.409 537.406 257.491 521.863 254.385C506.32 251.279 490.842 263.162 487.292 280.926C483.743 298.689 493.466 315.608 509.009 318.714C524.552 321.819 540.03 309.937 543.58 292.173Z" fill="#FF8369"/>
<path d="M543.284 292.115C546.812 274.459 537.203 257.655 521.822 254.582C506.442 251.509 491.113 263.33 487.585 280.985C484.057 298.641 493.666 315.445 509.047 318.518C524.428 321.591 539.756 309.77 543.284 292.115Z" fill="#FF8269"/>
<path d="M543.089 292.075C546.584 274.582 537.037 257.927 521.765 254.875C506.492 251.823 491.278 263.53 487.782 281.023C484.287 298.516 493.834 315.171 509.106 318.223C524.379 321.275 539.593 309.568 543.089 292.075Z" fill="#FF8168"/>
<path d="M542.892 292.037C546.355 274.706 536.869 258.201 521.705 255.17C506.541 252.14 491.44 263.733 487.977 281.064C484.514 298.394 494 314.9 509.164 317.93C524.328 320.96 539.429 309.367 542.892 292.037Z" fill="#FF8067"/>
<path d="M542.697 291.998C546.138 274.776 536.723 258.376 521.667 255.367C506.611 252.359 491.616 263.881 488.174 281.104C484.733 298.326 494.149 314.726 509.204 317.734C524.26 320.743 539.255 309.22 542.697 291.998Z" fill="#FF7F67"/>
<path d="M542.5 291.958C545.908 274.898 536.554 258.647 521.607 255.661C506.659 252.674 491.778 264.082 488.37 281.142C484.961 298.202 494.315 314.453 509.262 317.439C524.21 320.426 539.091 309.018 542.5 291.958Z" fill="#FF7E66"/>
<path d="M542.206 291.9C545.593 274.949 536.353 258.812 521.568 255.857C506.783 252.903 492.052 264.25 488.664 281.201C485.277 298.153 494.517 314.29 509.302 317.244C524.087 320.198 538.819 308.851 542.206 291.9Z" fill="#FF7D66"/>
<path d="M542.011 291.86C545.366 275.071 536.187 259.083 521.51 256.151C506.834 253.218 492.216 264.451 488.861 281.24C485.507 298.029 494.685 314.016 509.362 316.949C524.039 319.882 538.656 308.649 542.011 291.86Z" fill="#FF7C65"/>
<path d="M541.814 291.821C545.147 275.141 536.039 259.259 521.47 256.348C506.902 253.436 492.39 264.599 489.057 281.279C485.724 297.96 494.832 313.842 509.4 316.753C523.968 319.664 538.481 308.502 541.814 291.821Z" fill="#FF7B65"/>
<path d="M541.619 291.781C544.919 275.263 535.873 259.53 521.412 256.641C506.952 253.751 492.554 264.8 489.254 281.318C485.953 297.836 495 313.569 509.46 316.458C523.92 319.348 538.318 308.299 541.619 291.781Z" fill="#FF7A64"/>
<path d="M541.323 291.723C544.602 275.313 535.67 259.695 521.372 256.838C507.074 253.981 492.826 264.967 489.547 281.377C486.268 297.787 495.2 313.406 509.498 316.263C523.795 319.12 538.044 308.133 541.323 291.723Z" fill="#FF7964"/>
<path d="M541.128 291.683C544.374 275.436 535.503 259.966 521.314 257.131C507.125 254.296 492.99 265.168 489.744 281.416C486.497 297.663 495.368 313.132 509.557 315.968C523.747 318.803 537.881 307.93 541.128 291.683Z" fill="#FF7863"/>
<path d="M540.931 291.645C544.156 275.506 535.355 260.141 521.274 257.328C507.193 254.514 493.164 265.316 489.939 281.455C486.714 297.594 495.515 312.959 509.596 315.772C523.677 318.586 537.706 307.784 540.931 291.645Z" fill="#FF7762"/>
<path d="M540.736 291.605C543.928 275.628 535.189 260.413 521.216 257.621C507.243 254.829 493.328 265.517 490.136 281.494C486.943 297.47 495.683 312.685 509.655 315.477C523.628 318.269 537.543 307.581 540.736 291.605Z" fill="#FF7762"/>
<path d="M540.538 291.566C543.698 275.752 535.021 260.687 521.156 257.916C507.292 255.146 493.491 265.72 490.331 281.534C487.171 297.348 495.849 312.414 509.713 315.184C523.578 317.955 537.379 307.381 540.538 291.566Z" fill="#FF7661"/>
<path d="M540.245 291.508C543.383 275.802 534.82 260.851 521.118 258.113C507.416 255.375 493.764 265.888 490.626 281.593C487.487 297.299 496.051 312.251 509.753 314.989C523.455 317.727 537.107 307.214 540.245 291.508Z" fill="#FF7561"/>
<path d="M540.048 291.468C543.154 275.925 534.652 261.123 521.058 258.406C507.464 255.69 493.927 266.088 490.821 281.632C487.715 297.175 496.217 311.977 509.811 314.694C523.404 317.41 536.942 307.012 540.048 291.468Z" fill="#FF7460"/>
<path d="M539.853 291.43C542.937 275.995 534.505 261.298 521.02 258.603C507.535 255.909 494.102 266.237 491.018 281.672C487.934 297.107 496.366 311.804 509.851 314.498C523.336 317.193 536.768 306.865 539.853 291.43Z" fill="#FF7360"/>
<path d="M539.656 291.39C542.707 276.117 534.337 261.57 520.96 258.897C507.583 256.224 494.265 266.437 491.213 281.71C488.161 296.982 496.532 311.53 509.909 314.203C523.286 316.876 536.604 306.662 539.656 291.39Z" fill="#FF725F"/>
<path d="M539.362 291.331C542.392 276.167 534.136 261.734 520.921 259.093C507.707 256.453 494.538 266.605 491.508 281.769C488.478 296.934 496.734 311.367 509.948 314.008C523.163 316.648 536.332 306.496 539.362 291.331Z" fill="#FF715F"/>
<path d="M539.167 291.291C542.164 276.29 533.97 262.005 520.864 259.387C507.757 256.768 494.703 266.806 491.705 281.808C488.707 296.809 496.902 311.094 510.008 313.713C523.114 316.331 536.169 306.293 539.167 291.291Z" fill="#FF705E"/>
<path d="M538.97 291.253C541.946 276.36 533.821 262.181 520.824 259.583C507.826 256.986 494.876 266.954 491.9 281.848C488.924 296.741 497.049 310.92 510.046 313.517C523.044 316.114 535.994 306.146 538.97 291.253Z" fill="#FF6F5E"/>
<path d="M538.775 291.213C541.718 276.482 533.655 262.452 520.766 259.877C507.876 257.301 495.041 267.155 492.097 281.886C489.154 296.617 497.217 310.647 510.106 313.222C522.996 315.798 535.831 305.944 538.775 291.213Z" fill="#FF6E5D"/>
<path d="M538.578 291.174C541.499 276.552 533.507 262.627 520.726 260.073C507.944 257.52 495.214 267.303 492.293 281.926C489.371 296.548 497.363 310.473 510.144 313.027C522.926 315.581 535.656 305.797 538.578 291.174Z" fill="#FF6D5C"/>
<path d="M538.284 291.115C541.173 276.655 533.286 262.888 520.667 260.367C508.049 257.845 495.477 267.523 492.587 281.984C489.698 296.444 497.585 310.21 510.204 312.732C522.823 315.253 535.394 305.575 538.284 291.115Z" fill="#FF6C5C"/>
<path d="M538.087 291.077C540.944 276.779 533.118 263.162 520.608 260.662C508.097 258.162 495.639 267.726 492.782 282.024C489.925 296.322 497.751 309.939 510.262 312.438C522.772 314.938 535.23 305.374 538.087 291.077Z" fill="#FF6B5B"/>
<path d="M537.892 291.038C540.727 276.849 532.971 263.337 520.569 260.859C508.167 258.381 495.815 267.874 492.979 282.064C490.144 296.253 497.9 309.765 510.302 312.243C522.704 314.721 535.056 305.227 537.892 291.038Z" fill="#FF6A5B"/>
<path d="M537.695 290.998C540.497 276.971 532.803 263.609 520.51 261.152C508.216 258.696 495.977 268.075 493.175 282.102C490.372 296.129 498.066 309.491 510.36 311.948C522.653 314.405 534.892 305.025 537.695 290.998Z" fill="#FF695A"/>
<path d="M537.401 290.94C540.182 277.021 532.602 263.773 520.471 261.349C508.34 258.925 496.251 268.243 493.469 282.161C490.688 296.08 498.268 309.328 510.399 311.752C522.531 314.177 534.62 304.858 537.401 290.94Z" fill="#FF685A"/>
<path d="M537.206 290.9C539.955 277.144 532.436 264.045 520.413 261.642C508.39 259.24 496.415 268.444 493.666 282.2C490.918 295.956 498.436 309.055 510.459 311.457C522.482 313.86 534.457 304.656 537.206 290.9Z" fill="#FF6759"/>
<path d="M537.009 290.861C539.736 277.214 532.288 264.22 520.373 261.839C508.458 259.458 496.589 268.592 493.862 282.24C491.135 295.887 498.583 308.881 510.497 311.262C522.412 313.643 534.282 304.509 537.009 290.861Z" fill="#FF6659"/>
<path d="M536.814 290.821C539.508 277.336 532.122 264.491 520.315 262.132C508.509 259.773 496.753 268.793 494.059 282.278C491.364 295.763 498.751 308.608 510.557 310.967C522.364 313.326 534.119 304.307 536.814 290.821Z" fill="#FF6558"/>
<path d="M536.616 290.783C539.289 277.406 531.973 264.667 520.275 262.329C508.577 259.992 496.927 268.941 494.254 282.318C491.581 295.695 498.897 308.434 510.595 310.772C522.293 313.109 533.944 304.16 536.616 290.783Z" fill="#FF6457"/>
<path d="M536.323 290.723C538.963 277.509 531.752 264.927 520.217 262.622C508.681 260.317 497.189 269.161 494.549 282.376C491.908 295.59 499.119 308.171 510.655 310.476C522.19 312.781 533.682 303.938 536.323 290.723Z" fill="#FF6357"/>
<path d="M536.126 290.685C538.745 277.578 531.604 265.103 520.177 262.819C508.749 260.536 497.363 269.309 494.744 282.416C492.125 295.522 499.266 307.998 510.693 310.281C522.12 312.564 533.507 303.791 536.126 290.685Z" fill="#FF6256"/>
<path d="M535.931 290.644C538.517 277.701 531.438 265.374 520.119 263.113C508.8 260.851 497.527 269.51 494.941 282.454C492.355 295.398 499.434 307.724 510.753 309.986C522.072 312.248 533.344 303.588 535.931 290.644Z" fill="#FF6156"/>
<path d="M535.734 290.606C538.298 277.771 531.289 265.549 520.079 263.309C508.868 261.069 497.701 269.658 495.136 282.494C492.571 295.329 499.58 307.55 510.791 309.79C522.002 312.031 533.169 303.441 535.734 290.606Z" fill="#FF6055"/>
<path d="M535.44 290.548C537.972 277.875 531.069 265.812 520.021 263.605C508.972 261.397 497.963 269.881 495.431 282.554C492.899 295.227 499.802 307.29 510.85 309.497C521.898 311.705 532.908 303.221 535.44 290.548Z" fill="#FF5F55"/>
<path d="M535.243 290.508C537.743 277.998 530.901 266.084 519.961 263.898C509.021 261.712 498.126 270.081 495.626 282.592C493.126 295.102 499.968 307.016 510.908 309.202C521.848 311.388 532.743 303.019 535.243 290.508Z" fill="#FF5E54"/>
<path d="M535.048 290.47C537.526 278.067 530.754 266.259 519.923 264.095C509.091 261.93 498.301 270.23 495.823 282.632C493.345 295.034 500.117 306.842 510.948 309.007C521.78 311.171 532.57 302.872 535.048 290.47Z" fill="#FF5D54"/>
<path d="M534.851 290.43C537.296 278.19 530.586 266.531 519.863 264.388C509.14 262.245 498.464 270.43 496.018 282.67C493.573 294.91 500.283 306.569 511.006 308.712C521.729 310.854 532.405 302.669 534.851 290.43Z" fill="#FF5C53"/>
<path d="M534.655 290.391C537.08 278.26 530.44 266.706 519.825 264.585C509.21 262.464 498.639 270.579 496.215 282.71C493.791 294.841 500.431 306.395 511.046 308.516C521.661 310.637 532.231 302.522 534.655 290.391Z" fill="#FF5B53"/>
<path d="M534.362 290.331C536.753 278.362 530.219 266.967 519.766 264.878C509.314 262.789 498.902 270.799 496.51 282.768C494.118 294.737 500.653 306.133 511.106 308.221C521.558 310.31 531.97 302.3 534.362 290.331Z" fill="#FF5A52"/>
<path d="M534.165 290.293C536.535 278.432 530.07 267.142 519.726 265.075C509.382 263.008 499.075 270.947 496.705 282.808C494.335 294.668 500.8 305.959 511.144 308.026C521.488 310.093 531.795 302.153 534.165 290.293Z" fill="#FF5951"/>
<path d="M533.97 290.253C536.307 278.555 529.904 267.413 519.668 265.368C509.433 263.323 499.24 271.148 496.902 282.846C494.565 294.544 500.968 305.685 511.204 307.731C521.439 309.776 531.632 301.951 533.97 290.253Z" fill="#FF5851"/>
<path d="M533.773 290.214C536.088 278.625 529.756 267.589 519.628 265.565C509.501 263.541 499.413 271.296 497.098 282.886C494.782 294.476 501.114 305.512 511.242 307.535C521.369 309.559 531.457 301.804 533.773 290.214Z" fill="#FF5750"/>
<path d="M533.479 290.155C535.762 278.727 529.535 267.849 519.57 265.858C509.605 263.867 499.676 271.516 497.392 282.944C495.109 294.371 501.336 305.249 511.301 307.24C521.266 309.231 531.195 301.582 533.479 290.155Z" fill="#FF5650"/>
<path d="M533.282 290.116C535.544 278.797 529.387 268.025 519.53 266.055C509.673 264.085 499.849 271.665 497.587 282.984C495.326 294.303 501.483 305.075 511.339 307.045C521.196 309.014 531.02 301.435 533.282 290.116Z" fill="#FF554F"/>
<path d="M533.087 290.078C535.316 278.921 529.221 268.298 519.472 266.35C509.724 264.402 500.014 271.867 497.785 283.024C495.555 294.18 501.651 304.804 511.399 306.752C521.148 308.7 530.857 301.234 533.087 290.078Z" fill="#FF544F"/>
<path d="M532.89 290.038C535.086 279.044 529.052 268.57 519.412 266.644C509.772 264.717 500.176 272.068 497.98 283.062C495.783 294.056 501.817 304.53 511.457 306.457C521.097 308.383 530.693 301.032 532.89 290.038Z" fill="#FF534E"/>
<path d="M532.694 289.999C534.87 279.114 528.906 268.745 519.374 266.84C509.842 264.936 500.352 272.216 498.177 283.102C496.002 293.988 501.965 304.357 511.497 306.261C521.029 308.166 530.519 300.885 532.694 289.999Z" fill="#FF524E"/>
<path d="M532.401 289.94C534.544 279.216 528.685 269.006 519.316 267.134C509.947 265.262 500.614 272.437 498.472 283.16C496.329 293.883 502.187 304.094 511.556 305.966C520.926 307.838 530.258 300.663 532.401 289.94Z" fill="#FF514D"/>
</g>
<path d="M591.995 281.522C596.361 266.687 591.697 252.247 581.577 249.269C571.458 246.29 559.715 255.902 555.349 270.737C550.983 285.572 555.647 300.012 565.766 302.99C575.886 305.969 587.629 296.357 591.995 281.522Z" fill="#FF9E78"/>
<path d="M583.501 284.2C573.901 290.5 563.601 288.6 556.101 282.7C556.201 286.5 556.101 291.3 555.301 296.9H555.501V333.9C559.401 324.5 561.401 313.6 562.101 301.5C563.001 302.1 564.001 302.6 565.101 303C575.101 306.4 587.001 297.3 591.701 282.6C592.901 278.8 593.501 275 593.601 271.4C591.901 276.4 588.701 281 583.601 284.3L583.501 284.2Z" fill="url(#paint18_linear_2394_71815)"/>
<path d="M566.201 276.401L575.301 277.601C575.001 263.201 585.601 258.301 585.601 258.301C568.201 252.301 566.201 276.401 566.201 276.401Z" fill="url(#paint19_linear_2394_71815)"/>
<path d="M505.801 96.8004C477.801 78.8004 441.501 77.9004 441.501 77.9004C440.101 80.3004 439.401 84.0004 440.001 86.7004C417.301 86.2004 399.501 88.9004 399.501 88.9004C394.901 116.1 402.701 132 411.201 141.1C414.301 144.4 418.701 150 431.101 155.2C431.101 155.2 445.001 166.3 465.701 166.4C484.201 166.5 509.601 152.7 509.601 152.7C528.001 152 554.401 208.7 557.501 254.6C558.201 265.1 567.201 252.8 567.201 252.8C567.201 252.8 568.001 241.3 567.001 224.9C567.001 224.8 582.801 158.8 566.601 131.4" fill="url(#paint20_linear_2394_71815)"/>
<path d="M402.602 128.1C375.102 136.9 386.202 237.2 387.002 253.7C387.002 254.9 387.002 255.7 386.802 257.1C386.802 257.7 389.002 257.5 388.802 256.9C388.602 255.9 388.802 254.3 388.802 253.7C392.202 223.1 415.502 156.3 430.802 155.3C430.802 155.3 416.002 146.7 402.502 128.2L402.602 128.1Z" fill="#59352C"/>
<g opacity="0.4">
<path d="M432.259 321.965C450.583 318.701 462.241 298.116 458.3 275.986C454.358 253.856 436.308 238.563 417.984 241.826C399.661 245.09 388.002 265.676 391.944 287.806C395.886 309.935 413.936 325.229 432.259 321.965Z" fill="#FF9E78"/>
<path d="M432.225 321.768C450.439 318.524 462.026 298.042 458.103 276.021C454.181 254 436.235 238.779 418.02 242.024C399.805 245.268 388.219 265.75 392.141 287.771C396.064 309.792 414.01 325.013 432.225 321.768Z" fill="#FF9D77"/>
<path d="M432.172 321.472C450.223 318.257 461.701 297.931 457.807 276.073C453.914 254.215 436.124 239.103 418.072 242.318C400.021 245.534 388.543 265.86 392.436 287.718C396.33 309.575 414.12 324.688 432.172 321.472Z" fill="#FF9C77"/>
<path d="M432.12 321.177C450.063 317.981 461.475 297.803 457.611 276.108C453.747 254.413 436.068 239.417 418.125 242.613C400.182 245.809 388.769 265.987 392.634 287.682C396.498 309.377 414.177 324.373 432.12 321.177Z" fill="#FF9B76"/>
<path d="M432.083 320.98C449.917 317.803 461.258 297.729 457.413 276.143C453.568 254.557 435.993 239.634 418.159 242.81C400.325 245.987 388.984 266.061 392.829 287.647C396.674 309.233 414.249 324.157 432.083 320.98Z" fill="#FF9A76"/>
<path d="M432.031 320.684C449.756 317.527 461.032 297.601 457.216 276.178C453.4 254.755 435.937 239.948 418.212 243.105C400.487 246.263 389.211 266.189 393.027 287.612C396.843 309.034 414.305 323.842 432.031 320.684Z" fill="#FF9975"/>
<path d="M431.996 320.488C449.613 317.35 460.816 297.527 457.02 276.213C453.223 254.899 435.864 240.164 418.248 243.302C400.631 246.441 389.427 266.263 393.224 287.577C397.021 308.891 414.38 323.626 431.996 320.488Z" fill="#FF9875"/>
<path d="M431.944 320.192C449.452 317.073 460.591 297.399 456.823 276.248C453.056 255.097 435.809 240.479 418.301 243.597C400.793 246.716 389.654 266.39 393.421 287.541C397.189 308.692 414.436 323.31 431.944 320.192Z" fill="#FF9774"/>
<path d="M431.89 319.898C449.289 316.798 460.364 297.272 456.625 276.284C452.887 255.296 435.751 240.795 418.352 243.894C400.953 246.993 389.878 266.52 393.617 287.508C397.355 308.496 414.491 322.997 431.89 319.898Z" fill="#FF9674"/>
<path d="M431.857 319.699C449.093 316.629 460.05 297.214 456.331 276.335C452.612 255.456 435.625 241.019 418.388 244.089C401.152 247.16 390.195 266.574 393.914 287.453C397.633 308.332 414.621 322.769 431.857 319.699Z" fill="#FF9573"/>
<path d="M431.803 319.405C448.93 316.354 459.823 297.088 456.133 276.372C452.443 255.656 435.567 241.335 418.44 244.386C401.312 247.437 390.419 266.704 394.109 287.42C397.799 308.136 414.675 322.456 431.803 319.405Z" fill="#FF9472"/>
<path d="M431.75 319.109C448.769 316.078 459.597 296.959 455.936 276.406C452.275 255.853 435.511 241.649 418.493 244.681C401.474 247.712 390.646 266.831 394.307 287.384C397.968 307.937 414.732 322.141 431.75 319.109Z" fill="#FF9372"/>
<path d="M431.716 318.913C448.626 315.901 459.382 296.886 455.74 276.442C452.098 255.997 435.438 241.866 418.528 244.878C401.618 247.89 390.862 266.905 394.504 287.349C398.146 307.793 414.806 321.925 431.716 318.913Z" fill="#FF9271"/>
<path d="M431.664 318.617C448.465 315.624 459.156 296.757 455.544 276.476C451.931 256.195 435.382 242.18 418.581 245.173C401.78 248.166 391.089 267.033 394.701 287.314C398.314 307.595 414.863 321.61 431.664 318.617Z" fill="#FF9171"/>
<path d="M431.627 318.42C448.319 315.447 458.938 296.684 455.345 276.511C451.752 256.339 435.307 242.397 418.615 245.37C401.922 248.344 391.304 267.107 394.897 287.279C398.49 307.451 414.935 321.394 431.627 318.42Z" fill="#FF9070"/>
<path d="M431.576 318.124C448.105 315.18 458.616 296.573 455.052 276.564C451.487 256.554 435.198 242.721 418.669 245.665C402.14 248.609 391.63 267.217 395.194 287.226C398.758 307.235 415.047 321.069 431.576 318.124Z" fill="#FF8F70"/>
<path d="M431.522 317.83C447.943 314.906 458.388 296.446 454.853 276.6C451.318 256.754 435.141 243.037 418.72 245.962C402.3 248.887 391.854 267.346 395.389 287.192C398.924 307.038 415.102 320.755 431.522 317.83Z" fill="#FF8E6F"/>
<path d="M431.487 317.632C447.799 314.726 458.172 296.371 454.657 276.633C451.141 256.896 435.068 243.251 418.756 246.157C402.444 249.063 392.071 267.418 395.587 287.155C399.102 306.893 415.176 320.537 431.487 317.632Z" fill="#FF8D6F"/>
<path d="M431.435 317.338C447.638 314.452 457.947 296.244 454.46 276.67C450.974 257.096 435.012 243.568 418.809 246.454C402.606 249.34 392.297 267.548 395.784 287.122C399.271 306.696 415.232 320.224 431.435 317.338Z" fill="#FF8C6E"/>
<path d="M431.401 317.139C447.495 314.273 457.731 296.169 454.264 276.703C450.797 257.238 434.939 243.782 418.844 246.649C402.75 249.516 392.514 267.62 395.981 287.085C399.449 306.55 415.306 320.006 431.401 317.139Z" fill="#FF8B6E"/>
<path d="M431.347 316.845C447.332 313.998 457.504 296.042 454.065 276.74C450.627 257.438 434.881 244.098 418.896 246.946C402.91 249.793 392.738 267.749 396.177 287.051C399.615 306.354 415.361 319.693 431.347 316.845Z" fill="#FF8A6D"/>
<path d="M431.296 316.55C447.118 313.731 457.181 295.931 453.772 276.792C450.363 257.653 434.772 244.422 418.95 247.241C403.127 250.059 393.064 267.859 396.474 286.998C399.883 306.137 415.473 319.368 431.296 316.55Z" fill="#FF896C"/>
<path d="M431.259 316.353C446.973 313.554 456.963 295.858 453.573 276.827C450.184 257.797 434.697 244.639 418.983 247.438C403.27 250.237 393.279 267.933 396.669 286.963C400.059 305.994 415.545 319.152 431.259 316.353Z" fill="#FF886C"/>
<path d="M431.207 316.057C446.812 313.277 456.738 295.729 453.377 276.862C450.016 257.995 434.641 244.953 419.037 247.733C403.432 250.512 393.506 268.061 396.866 286.928C400.227 305.795 415.602 318.837 431.207 316.057Z" fill="#FF876B"/>
<path d="M431.172 315.86C446.669 313.1 456.522 295.656 453.181 276.897C449.839 258.139 434.568 245.169 419.072 247.93C403.576 250.69 393.722 268.135 397.064 286.893C400.405 305.652 415.676 318.621 431.172 315.86Z" fill="#FF866B"/>
<path d="M431.12 315.565C446.508 312.824 456.296 295.527 452.984 276.932C449.672 258.336 434.513 245.484 419.125 248.225C403.738 250.966 393.949 268.262 397.261 286.857C400.574 305.453 415.733 318.306 431.12 315.565Z" fill="#FF856A"/>
<path d="M431.066 315.271C446.345 312.549 456.069 295.401 452.786 276.968C449.502 258.536 434.455 245.8 419.176 248.521C403.898 251.243 394.173 268.392 397.457 286.824C400.74 305.256 415.787 317.992 431.066 315.271Z" fill="#FF846A"/>
<path d="M431.031 315.072C446.201 312.37 455.853 295.325 452.589 277.002C449.325 258.678 434.382 246.014 419.212 248.717C404.042 251.419 394.39 268.464 397.654 286.787C400.918 305.111 415.862 317.774 431.031 315.072Z" fill="#FF8369"/>
<path d="M430.979 314.778C445.985 312.105 455.529 295.216 452.294 277.056C449.059 258.895 434.271 246.34 419.264 249.013C404.257 251.687 394.714 268.575 397.949 286.736C401.184 304.896 415.972 317.451 430.979 314.778Z" fill="#FF8269"/>
<path d="M430.944 314.582C445.842 311.928 455.313 295.143 452.097 277.091C448.882 259.039 434.198 246.557 419.3 249.211C404.402 251.864 394.931 268.649 398.146 286.701C401.362 304.753 416.046 317.235 430.944 314.582Z" fill="#FF8168"/>
<path d="M430.892 314.286C445.681 311.651 455.087 295.014 451.901 277.126C448.714 259.237 434.142 246.871 419.353 249.505C404.563 252.14 395.157 268.777 398.344 286.666C401.53 304.554 416.103 316.92 430.892 314.286Z" fill="#FF8067"/>
<path d="M430.84 313.99C445.52 311.375 454.862 294.886 451.704 277.16C448.547 259.435 434.086 247.185 419.406 249.8C404.725 252.415 395.384 268.904 398.541 286.63C401.699 304.355 416.159 316.605 430.84 313.99Z" fill="#FF7F67"/>
<path d="M430.803 313.793C445.375 311.198 454.644 294.812 451.506 277.196C448.368 259.579 434.011 247.402 419.439 249.997C404.868 252.593 395.599 268.978 398.737 286.595C401.875 304.212 416.231 316.389 430.803 313.793Z" fill="#FF7E66"/>
<path d="M430.751 313.497C445.214 310.921 454.419 294.684 451.31 277.23C448.201 259.776 433.956 247.716 419.492 250.292C405.029 252.869 395.825 269.106 398.934 286.56C402.043 304.013 416.288 316.074 430.751 313.497Z" fill="#FF7D66"/>
<path d="M430.698 313.201C444.998 310.654 454.094 294.573 451.014 277.282C447.934 259.992 433.845 248.04 419.545 250.587C405.245 253.134 396.149 269.216 399.229 286.506C402.309 303.797 416.398 315.749 430.698 313.201Z" fill="#FF7C65"/>
<path d="M430.663 313.005C444.855 310.477 453.878 294.499 450.817 277.317C447.757 260.136 433.772 248.256 419.58 250.784C405.389 253.312 396.366 269.29 399.426 286.472C402.487 303.653 416.472 315.533 430.663 313.005Z" fill="#FF7B65"/>
<path d="M430.611 312.711C444.694 310.202 453.652 294.373 450.621 277.354C447.59 260.335 433.716 248.573 419.633 251.081C405.551 253.59 396.592 269.419 399.624 286.438C402.655 303.457 416.529 315.219 430.611 312.711Z" fill="#FF7A64"/>
<path d="M430.575 312.512C444.549 310.023 453.435 294.297 450.423 277.387C447.411 260.478 433.641 248.787 419.667 251.276C405.693 253.765 396.807 269.491 399.819 286.401C402.831 303.311 416.601 315.001 430.575 312.512Z" fill="#FF7964"/>
<path d="M430.523 312.218C444.388 309.749 453.209 294.171 450.226 277.424C447.243 260.677 433.585 249.103 419.72 251.573C405.855 254.043 397.033 269.621 400.017 286.368C403 303.114 416.658 314.688 430.523 312.218Z" fill="#FF7863"/>
<path d="M430.471 311.923C444.227 309.472 452.984 294.042 450.03 277.458C447.076 260.875 433.529 249.418 419.773 251.868C406.017 254.318 397.26 269.748 400.214 286.332C403.168 302.916 416.714 314.373 430.471 311.923Z" fill="#FF7762"/>
<path d="M430.435 311.726C444.028 309.305 452.669 293.986 449.734 277.511C446.799 261.036 433.401 249.644 419.808 252.065C406.215 254.486 397.574 269.805 400.509 286.28C403.444 302.755 416.842 314.147 430.435 311.726Z" fill="#FF7762"/>
<path d="M430.383 311.43C443.867 309.028 452.443 293.858 449.538 277.546C446.632 261.234 433.345 249.958 419.861 252.36C406.377 254.762 397.801 269.932 400.706 286.244C403.612 302.556 416.899 313.832 430.383 311.43Z" fill="#FF7661"/>
<path d="M430.348 311.233C443.724 308.851 452.227 293.784 449.341 277.581C446.455 261.378 433.272 250.175 419.897 252.557C406.521 254.94 398.017 270.006 400.904 286.209C403.79 302.412 416.973 313.616 430.348 311.233Z" fill="#FF7561"/>
<path d="M430.294 310.938C443.561 308.574 452 293.656 449.143 277.616C446.286 261.576 433.215 250.489 419.948 252.852C406.681 255.215 398.242 270.134 401.099 286.174C403.956 302.214 417.027 313.301 430.294 310.938Z" fill="#FF7460"/>
<path d="M430.242 310.642C443.4 308.298 451.775 293.527 448.946 277.65C446.118 261.774 433.159 250.803 420.001 253.147C406.843 255.491 398.468 270.261 401.296 286.138C404.125 302.015 417.084 312.986 430.242 310.642Z" fill="#FF7360"/>
<path d="M430.208 310.445C443.257 308.121 451.559 293.454 448.75 277.686C445.941 261.918 433.086 251.019 420.036 253.344C406.987 255.668 398.685 270.335 401.494 286.103C404.303 301.871 417.158 312.77 430.208 310.445Z" fill="#FF725F"/>
<path d="M430.155 310.151C443.041 307.856 451.234 293.345 448.454 277.74C445.675 262.135 432.975 251.345 420.089 253.641C407.202 255.936 399.009 270.447 401.789 286.052C404.569 301.657 417.268 312.447 430.155 310.151Z" fill="#FF715F"/>
<path d="M430.12 309.953C442.898 307.677 451.018 293.269 448.258 277.773C445.498 262.277 432.902 251.56 420.124 253.836C407.347 256.112 399.226 270.519 401.986 286.015C404.747 301.512 417.342 312.229 430.12 309.953Z" fill="#FF705E"/>
<path d="M430.068 309.659C442.737 307.402 450.793 293.143 448.061 277.81C445.33 262.477 432.846 251.876 420.177 254.133C407.508 256.389 399.452 270.649 402.184 285.982C404.915 301.315 417.399 311.915 430.068 309.659Z" fill="#FF6F5E"/>
<path d="M430.014 309.363C442.574 307.126 450.565 293.014 447.863 277.844C445.161 262.674 432.788 252.19 420.228 254.428C407.668 256.665 399.677 270.776 402.379 285.946C405.081 301.116 417.454 311.6 430.014 309.363Z" fill="#FF6E5D"/>
<path d="M429.979 309.166C442.431 306.948 450.349 292.941 447.667 277.88C444.984 262.818 432.715 252.407 420.264 254.625C407.813 256.843 399.894 270.85 402.576 285.911C405.259 300.973 417.528 311.384 429.979 309.166Z" fill="#FF6D5C"/>
<path d="M429.927 308.87C442.27 306.672 450.124 292.812 447.47 277.914C444.817 263.016 432.66 252.721 420.317 254.92C407.974 257.118 400.12 270.978 402.774 285.876C405.428 300.774 417.585 311.069 429.927 308.87Z" fill="#FF6C5C"/>
<path d="M429.875 308.574C442.109 306.395 449.899 292.684 447.274 277.949C444.649 263.214 432.604 253.035 420.37 255.214C408.136 257.394 400.346 271.105 402.971 285.84C405.596 300.575 417.641 310.754 429.875 308.574Z" fill="#FF6B5B"/>
<path d="M429.84 308.378C441.91 306.228 449.583 292.628 446.978 278.002C444.373 263.375 432.476 253.261 420.405 255.412C408.334 257.562 400.661 271.162 403.266 285.788C405.872 300.414 417.769 310.528 429.84 308.378Z" fill="#FF6A5B"/>
<path d="M429.787 308.084C441.749 305.953 449.358 292.501 446.782 278.038C444.205 263.575 432.42 253.578 420.458 255.708C408.496 257.839 400.887 271.291 403.464 285.754C406.04 300.217 417.825 310.215 429.787 308.084Z" fill="#FF695A"/>
<path d="M429.751 307.885C441.604 305.774 449.14 292.426 446.583 278.071C444.026 263.717 432.345 253.792 420.491 255.904C408.638 258.015 401.102 271.363 403.659 285.717C406.216 300.072 417.898 309.997 429.751 307.885Z" fill="#FF685A"/>
<path d="M429.699 307.591C441.443 305.499 448.915 292.299 446.387 278.108C443.859 263.917 432.289 254.108 420.545 256.2C408.8 258.292 401.329 271.493 403.856 285.684C406.384 299.875 417.954 309.683 429.699 307.591Z" fill="#FF6759"/>
<path d="M429.647 307.296C441.282 305.223 448.689 292.171 446.19 278.143C443.692 264.114 432.233 254.423 420.598 256.495C408.962 258.568 401.555 271.62 404.054 285.648C406.553 299.676 418.011 309.368 429.647 307.296Z" fill="#FF6659"/>
<path d="M429.612 307.099C441.139 305.046 448.473 292.097 445.994 278.178C443.515 264.258 432.16 254.639 420.633 256.692C409.106 258.746 401.772 271.694 404.251 285.613C406.731 299.533 418.085 309.152 429.612 307.099Z" fill="#FF6558"/>
<path d="M429.559 306.803C440.923 304.779 448.149 291.986 445.698 278.23C443.248 264.474 432.049 254.963 420.685 256.987C409.322 259.011 402.096 271.804 404.546 285.56C406.997 299.317 418.195 308.827 429.559 306.803Z" fill="#FF6457"/>
<path d="M429.524 306.606C440.78 304.602 447.933 291.913 445.502 278.265C443.071 264.618 431.976 255.18 420.721 257.184C409.466 259.189 402.313 271.878 404.743 285.525C407.174 299.173 418.269 308.611 429.524 306.606Z" fill="#FF6357"/>
<path d="M429.47 306.311C440.617 304.325 447.706 291.784 445.304 278.3C442.902 264.815 431.919 255.494 420.772 257.479C409.626 259.465 402.537 272.005 404.939 285.49C407.341 298.974 418.324 308.296 429.47 306.311Z" fill="#FF6256"/>
<path d="M429.418 306.015C440.456 304.049 447.48 291.656 445.107 278.334C442.734 265.013 431.863 255.808 420.825 257.774C409.788 259.74 402.763 272.133 405.136 285.454C407.509 298.776 418.381 307.981 429.418 306.015Z" fill="#FF6156"/>
<path d="M429.384 305.818C440.313 303.871 447.264 291.582 444.911 278.37C442.557 265.157 431.79 256.024 420.861 257.971C409.932 259.918 402.98 272.207 405.334 285.42C407.687 298.632 418.455 307.765 429.384 305.818Z" fill="#FF6055"/>
<path d="M429.331 305.524C440.152 303.597 447.039 291.456 444.714 278.406C442.39 265.357 431.734 256.341 420.914 258.268C410.094 260.195 403.207 272.336 405.531 285.386C407.856 298.435 418.511 307.452 429.331 305.524Z" fill="#FF5F55"/>
<path d="M429.296 305.326C439.953 303.427 446.724 291.398 444.419 278.457C442.114 265.516 431.606 256.565 420.949 258.463C410.292 260.362 403.521 272.391 405.826 285.332C408.131 298.272 418.639 307.224 429.296 305.326Z" fill="#FF5E54"/>
<path d="M429.244 305.032C439.792 303.153 446.498 291.271 444.222 278.494C441.946 265.716 431.55 256.881 421.002 258.76C410.453 260.639 403.747 272.52 406.023 285.298C408.299 298.075 418.696 306.911 429.244 305.032Z" fill="#FF5D54"/>
<path d="M429.19 304.736C439.629 302.876 446.271 291.143 444.024 278.528C441.777 265.914 431.492 257.195 421.053 259.055C410.613 260.914 403.972 272.648 406.219 285.262C408.466 297.877 418.75 306.595 429.19 304.736Z" fill="#FF5C53"/>
<path d="M429.155 304.539C439.486 302.699 446.055 291.069 443.827 278.564C441.6 266.058 431.419 257.412 421.088 259.252C410.758 261.092 404.189 272.722 406.416 285.228C408.644 297.733 418.824 306.379 429.155 304.539Z" fill="#FF5B53"/>
<path d="M429.103 304.243C439.325 302.422 445.829 290.941 443.631 278.598C441.432 266.256 431.364 257.726 421.141 259.547C410.919 261.368 404.415 272.849 406.614 285.192C408.812 297.535 418.881 306.064 429.103 304.243Z" fill="#FF5A52"/>
<path d="M429.051 303.947C439.164 302.146 445.604 290.812 443.435 278.633C441.265 266.453 431.308 258.04 421.195 259.842C411.081 261.643 404.642 272.977 406.811 285.156C408.981 297.336 418.938 305.749 429.051 303.947Z" fill="#FF5951"/>
<path d="M429.014 303.751C439.019 301.969 445.386 290.739 443.236 278.668C441.086 266.597 431.233 258.257 421.228 260.039C411.224 261.821 404.856 273.051 407.006 285.122C409.157 297.192 419.01 305.533 429.014 303.751Z" fill="#FF5851"/>
<path d="M428.962 303.455C438.803 301.702 445.062 290.628 442.94 278.72C440.819 266.813 431.122 258.581 421.28 260.334C411.439 262.087 405.18 273.161 407.301 285.068C409.423 296.976 419.12 305.208 428.962 303.455Z" fill="#FF5750"/>
<path d="M428.927 303.258C438.66 301.525 444.846 290.554 442.744 278.755C440.642 266.957 431.049 258.797 421.316 260.531C411.583 262.265 405.397 273.235 407.499 285.034C409.601 296.832 419.194 304.992 428.927 303.258Z" fill="#FF5650"/>
<path d="M428.875 302.964C438.499 301.25 444.62 290.428 442.548 278.792C440.475 267.156 430.993 259.113 421.369 260.828C411.745 262.542 405.624 273.364 407.696 285C409.769 296.636 419.251 304.679 428.875 302.964Z" fill="#FF554F"/>
<path d="M428.823 302.669C438.338 300.974 444.395 290.299 442.351 278.827C440.308 267.354 430.937 259.428 421.422 261.122C411.907 262.817 405.85 273.492 407.894 284.964C409.937 296.437 419.307 304.363 428.823 302.669Z" fill="#FF544F"/>
<path d="M428.786 302.472C438.193 300.796 444.177 290.226 442.153 278.862C440.129 267.498 430.862 259.644 421.456 261.32C412.049 262.995 406.065 273.566 408.089 284.93C410.113 296.294 419.38 304.147 428.786 302.472Z" fill="#FF534E"/>
<path d="M428.734 302.176C438.032 300.52 443.952 290.097 441.956 278.896C439.961 267.696 430.807 259.958 421.509 261.615C412.211 263.271 406.291 273.693 408.286 284.894C410.282 296.095 419.436 303.832 428.734 302.176Z" fill="#FF524E"/>
<path d="M428.699 301.979C437.833 300.352 443.636 290.041 441.661 278.949C439.685 267.857 430.678 260.185 421.544 261.812C412.409 263.439 406.606 273.75 408.581 284.842C410.557 295.934 419.564 303.607 428.699 301.979Z" fill="#FF514D"/>
</g>
<path d="M430.9 313.401C430.9 313.401 433 350.001 475.2 346.801C517.4 343.601 511.6 305.301 511.6 305.301L430.9 313.401Z" fill="#FB755C"/>
<path d="M432.202 313.801C432.202 313.801 432.802 343.801 474.902 340.601C517.102 337.401 510.402 306.201 510.402 306.201L432.102 313.801H432.202Z" fill="url(#paint21_linear_2394_71815)"/>
<path opacity="0.1" d="M555.102 125.5C552.302 121.7 549.202 119.4 545.802 118.3C542.802 118.9 546.802 114.7 543.602 115.4C534.202 117.7 524.302 119.2 514.602 118.1C503.402 116.7 493.402 111.9 483.402 107C478.302 104.5 473.302 102 468.102 99.8997C456.902 95.2997 443.802 90.7997 431.502 91.3997C425.402 91.6997 419.502 93.5997 414.002 95.9997C408.902 98.1997 404.702 101.4 401.602 104.6C400.902 105.3 399.502 106.3 398.102 107.3C398.302 111.8 398.902 115.8 399.802 119.5C400.402 119.1 400.902 118.8 401.102 118.7C403.102 117.2 405.602 115.6 408.502 114.3C411.502 113.1 414.702 112 418.502 111.6C433.002 110.3 446.702 115.9 459.902 121.2C465.302 123.4 470.802 125.9 476.602 128.2C482.402 130.6 488.502 132.8 494.802 134.7C505.502 137.8 518.402 138.6 529.202 135.5C530.702 135.1 532.102 134.7 533.502 134.3C539.102 132.4 543.902 130.1 548.102 127.9" fill="#FFBC80"/>
<path d="M489.901 204.301C489.901 204.301 473.401 239.501 492.401 260.401L537.401 256.001C537.401 256.001 538.601 241.801 536.901 232.201C535.201 222.601 489.901 204.301 489.901 204.301Z" fill="url(#paint22_linear_2394_71815)"/>
<path d="M406.902 236.2C404.402 245 403.102 259.6 403.102 259.6L445.102 264C463.902 242.1 454.102 206.6 454.102 206.6C454.102 206.6 409.402 227.4 406.902 236.2Z" fill="url(#paint23_linear_2394_71815)"/>
<path d="M517.5 242.6C498.6 241.7 492.4 260.4 492.4 260.4C492.4 260.4 497.6 263.7 516.2 262.5C538.3 261 537.3 256 537.3 256C537.3 256 536.3 243.6 517.4 242.7L517.5 242.6Z" fill="white"/>
<path d="M403.102 259.6C403.102 259.6 401.602 263.5 421.602 264.8C443.102 266.2 445.102 264 445.102 264C445.102 264 423.202 226.7 403.102 259.6Z" fill="white"/>
<path d="M438 314.201C438 314.201 438.7 320.001 442.9 323.801C452.4 332.201 494.6 327.901 501.2 318.501C505.6 312.401 504.9 307.801 504.9 307.801L437.9 314.201H438Z" fill="#F7F0F0"/>
<path opacity="0.3" d="M504.9 307.9L437.9 314.3C437.9 314.3 438.5 319.7 442.3 323.4C444.4 318.5 452.9 320.7 457.6 321.4C464.7 322.5 474 320.8 481.1 319.9C488.4 319 492.9 315.5 496.5 315.8C498.8 316 499.7 318.4 499.4 320.4C500.1 319.8 500.7 319.3 501.1 318.6C505.5 312.5 504.8 307.9 504.8 307.9H504.9Z" fill="#C1BAB0"/>
<path d="M418.701 264.701C419.601 264.701 420.601 264.901 421.601 264.901C427.901 265.301 432.601 265.401 436.001 265.401C437.801 258.401 435.801 251.801 431.401 250.601C426.901 249.301 421.501 254.101 419.401 261.301C419.101 262.501 418.901 263.601 418.701 264.701Z" fill="url(#paint24_linear_2394_71815)"/>
<path d="M516.302 262.501C518.802 262.301 521.002 262.101 523.002 261.901C524.402 254.501 522.402 247.701 518.102 246.301C513.502 244.801 508.202 250.101 506.102 258.101C505.802 259.501 505.602 261.101 505.502 262.701C508.402 262.701 512.002 262.701 516.202 262.501H516.302Z" fill="url(#paint25_linear_2394_71815)"/>
<path d="M422.402 244C406.902 244 403.102 259.6 403.102 259.6C403.102 259.6 409.702 252.1 421.702 251.5C434.902 250.9 445.002 264 445.002 264C445.002 264 443.302 244.1 422.302 244H422.402Z" fill="#603F37"/>
<path d="M406.902 238.201C424.902 223.001 445.202 229.901 452.702 220.501C455.602 216.901 454.002 206.201 454.002 206.201C406.002 213.301 406.902 238.201 406.902 238.201Z" fill="url(#paint26_linear_2394_71815)"/>
<path d="M489.901 204.301C489.901 204.301 485.602 214.601 488.102 218.001C496.002 228.501 524.601 222.601 537.301 235.901C537.301 235.901 539.901 213.801 489.901 204.301Z" fill="url(#paint27_linear_2394_71815)"/>
<path d="M515.4 241.1C494.2 241.5 492.4 260 492.4 260C492.4 260 497.5 249.299 516 249.399C534.5 249.399 537.4 255.999 537.4 255.999C537.4 255.999 536.4 240.7 515.4 241.1Z" fill="#603F37"/>
<path opacity="0.1" d="M483.301 359.401C477.601 361.101 473.101 361.301 470.201 361.201C467.401 361.101 465.201 363.701 465.901 366.501C466.701 369.401 469.601 372.101 478.101 370.701C486.401 369.401 488.601 366.201 488.801 363.401C488.901 360.601 486.101 358.501 483.401 359.301L483.301 359.401Z" fill="black"/>
<path d="M432.802 260.601C432.802 258.201 431.002 256.401 428.702 256.601C426.402 256.801 424.502 259.001 424.502 261.401C424.502 263.201 425.502 264.601 426.902 265.101C427.802 265.101 428.602 265.101 429.402 265.101C431.402 264.501 432.902 262.601 432.902 260.401L432.802 260.601Z" fill="#1E1D1D"/>
<path d="M519.302 257.601C519.302 260.001 517.402 262.201 515.102 262.401C512.802 262.601 510.902 260.801 511.002 258.401C511.002 256.001 512.902 253.801 515.202 253.601C517.502 253.401 519.402 255.201 519.302 257.601Z" fill="#1E1D1D"/>
<path opacity="0.8" d="M423.802 257.001C421.602 258.201 420.102 260.601 420.502 262.201C420.902 263.801 423.002 264.101 425.202 262.901C427.402 261.701 428.902 259.301 428.502 257.701C428.102 256.101 426.002 255.801 423.802 257.001Z" fill="white"/>
<path opacity="0.8" d="M510.002 255.601C507.902 256.901 506.502 259.101 507.002 260.601C507.502 262.101 509.602 262.201 511.702 260.901C513.802 259.601 515.202 257.401 514.702 255.901C514.202 254.401 512.102 254.301 510.002 255.601Z" fill="white"/>
<path d="M458.902 270.301C458.902 270.301 442.302 267.801 438.802 282.301C434.402 300.701 471.102 310.201 480.402 290.801C489.702 271.401 462.402 236.801 462.402 236.801C462.402 236.801 469.302 255.001 458.902 270.301Z" fill="#FF9E78"/>
<path d="M438.602 287.4C441.302 302.3 472.002 308.3 480.402 290.8C480.902 289.7 481.302 288.6 481.602 287.5C467.402 291.1 452.502 290.8 438.602 287.5V287.4Z" fill="url(#paint28_linear_2394_71815)"/>
<path opacity="0.2" d="M468.801 255.701H464.701C464.701 255.701 463.001 268.901 459.101 270.901C458.501 270.901 457.801 270.901 457.201 270.901C450.101 270.901 444.301 273.401 444.301 276.501C444.301 279.601 450.101 281.901 457.201 281.901C463.901 281.901 469.701 280.501 470.401 276.901C470.401 276.901 473.101 263.001 468.901 255.801L468.801 255.701Z" fill="white"/>
<path d="M604.5 342.5C604.5 342.5 603.3 280.9 606.6 270.2C609.9 259.5 621.7 259.2 622.3 269.5C622.8 279.8 625.6 323.8 628.2 326C630.8 328.2 636.2 328.5 638.6 325.2C641.1 321.9 662.1 276.4 671 267.1C679.9 257.8 694.8 262.8 689.4 273C684 283.2 664.8 326.2 664.8 326.2C664.8 326.2 671.7 324.7 674.7 332.1C677.7 339.5 674 347.9 674 347.9C674 347.9 683.6 350.9 686.9 360.7C690.2 370.5 685.5 401.5 682.6 406.6C679.7 411.7 673.1 423.6 674.2 429.1C675.3 434.6 675.8 435.4 675.8 435.4L609.3 446.3C609.3 446.3 597.2 419.5 594.6 401.7C592 383.8 601.2 368.5 601.2 368.5L604.3 342.8L604.5 342.5Z" fill="#FF9E78"/>
<path d="M646.1 340.901C646.1 340.901 634.4 348.201 632.2 349.101C630.1 350.001 604 372.501 604 372.501C604 372.501 605.2 376.501 606.1 376.601C607 376.701 631.3 353.801 632.9 352.201C634.5 350.601 651.5 340.701 658.7 341.001C665.9 341.301 664.9 348.801 663.9 350.701C662.9 352.601 637.9 371.601 637.5 375.001C637.1 378.401 639.9 380.901 639.9 380.901V383.001C640 383.001 640 383.001 640 383.001V393.601C640 393.601 643.1 396.201 643.7 403.001C644.2 409.801 638.1 420.401 638.1 420.401L641.3 421.901C641.3 421.901 647.7 409.901 646.9 403.601C646.1 397.201 643.7 393.001 643.7 393.001L643.5 391.601C647.6 395.301 654 395.301 659.3 392.801C666.5 389.501 678.4 368.401 678.4 368.401L675.5 367.101C675.5 367.101 664.5 385.001 659.2 388.801C653.9 392.601 643.4 388.701 643.9 383.501C644.4 378.301 658.9 357.201 665.8 352.901C672.6 348.601 682.8 353.601 682.9 353.701C678.9 349.401 674.1 347.801 674.1 347.801C674.1 347.801 674.2 347.601 674.3 347.201C669.7 347.201 667.3 348.901 667.3 348.901C667.3 348.901 668.8 339.501 661.8 338.301C654.8 337.001 649.8 340.701 649.8 340.701C652.5 331.301 661.8 327.301 665.6 326.101C665.1 326.101 664.8 326.101 664.8 326.101C664.8 326.101 665.4 324.801 666.3 322.701C650.3 325.401 646 340.901 646 340.901H646.1Z" fill="url(#paint29_linear_2394_71815)"/>
<path d="M608.9 444.801C608.9 444.801 645.6 517.501 649.5 537.601C653.4 557.701 654.1 609.401 666.5 622.901C678.8 636.401 722.4 661.101 740.2 648.801C757.9 636.501 750.6 590.201 740.2 563.501C729.8 536.901 680.4 444.201 676.1 435.401C671.8 426.601 609 444.901 609 444.901L608.9 444.801Z" fill="#FF9E78"/>
<path d="M622.601 335.5C623.701 333.4 624.701 322.7 625.301 310.1C623.801 295.8 622.601 276 622.201 269.6C621.701 259.3 609.801 259.6 606.501 270.3C603.601 279.6 604.201 327.2 604.401 339.6C609.401 339.8 620.301 339.7 622.501 335.5H622.601Z" fill="url(#paint30_linear_2394_71815)"/>
<path d="M639.1 324.301C641.8 326.301 646.5 329.201 648.8 327.801C651.3 326.301 662.7 320.401 669.1 316.501C675.1 303.201 685.6 280.101 689.4 272.901C694.8 262.701 679.9 257.701 671 267.001C662.5 275.901 643.2 317.201 639.1 324.301Z" fill="url(#paint31_linear_2394_71815)"/>
<path d="M601.7 382.301C601.7 382.301 625.8 357.601 632.8 352.101C639.8 346.601 654.5 338.901 660.7 341.201C666.9 343.501 664.5 349.701 663.7 350.601C662.9 351.501 637.1 372.501 637.3 374.901C637.5 377.301 639.7 380.601 639.7 380.601L639.9 393.401C639.9 393.401 644.9 397.301 643.4 405.501C641.8 413.701 635.2 430.101 628.8 432.901C622.4 435.701 612 438.101 608.7 435.601C605.4 433.001 589.6 393.001 601.6 382.401L601.7 382.301Z" fill="url(#paint32_linear_2394_71815)"/>
<path d="M670.501 351.301C670.501 351.301 663.001 352.801 655.501 363.801C648.001 374.801 640.901 382.901 645.401 388.101C649.901 393.301 658.201 392.501 665.801 381.501C673.401 370.401 677.001 364.301 678.201 364.001C679.401 363.701 684.401 362.601 684.401 362.601C684.401 362.601 687.001 351.501 670.501 351.401V351.301Z" fill="url(#paint33_linear_2394_71815)"/>
<path d="M664.901 340.201C668.401 344.801 667.201 348.801 667.201 348.801C667.201 348.801 672.201 346.801 675.101 348.201C674.401 347.901 674.001 347.801 674.001 347.801C674.001 347.801 677.701 339.401 674.701 332.001C672.501 326.601 668.201 325.901 666.101 326.001C662.201 327.201 652.901 331.001 649.801 340.601C649.801 340.601 661.501 335.601 665.001 340.201H664.901Z" fill="url(#paint34_linear_2394_71815)"/>
<path d="M741.901 636.5C737.201 638.7 702.101 636.5 693.101 625.4C684.101 614.3 679.101 558 674.801 533.6C670.501 509.2 639.101 437.1 639.101 437.1C639.101 437.1 612.301 439.2 605.401 428.2C599.301 418.6 594.301 396.3 594.601 390C594.201 393.6 594.201 397.5 594.801 401.5C597.101 416.9 606.401 439.1 608.901 444.7C609.301 445.6 609.501 446.1 609.501 446.1C614.601 456.2 645.801 519.1 649.401 537.5C653.301 557.6 654.001 609.3 666.401 622.8C678.701 636.3 722.301 661 740.101 648.7C752.901 639.8 752.701 613.2 747.601 589.1C747.601 589.5 746.501 634.3 741.901 636.4V636.5Z" fill="url(#paint35_linear_2394_71815)"/>
<path d="M673.6 433.601C670.7 426.601 643.6 441.701 644 443.601C644.4 445.501 676.701 514.101 679.901 530.701C683.101 547.301 687.8 612.601 699.2 622.301C710.6 632.001 735.3 637.001 738.1 635.101C740.9 633.201 750.001 605.201 742.401 580.701C734.801 556.301 682.9 455.501 673.6 433.501V433.601Z" fill="url(#paint36_linear_2394_71815)"/>
<path d="M641.2 421.801C641.2 421.801 646.8 411.001 646.7 406.701C646.7 402.401 645.8 398.801 645.8 398.801C645.8 398.801 678 388.101 680.8 391.101C683.6 394.101 673.9 423.301 670.5 426.301C667.1 429.301 643.1 432.601 641.1 430.701C639.1 428.801 641.1 421.801 641.1 421.801H641.2Z" fill="url(#paint37_linear_2394_71815)"/>
<path d="M568.444 137.45C571.466 130.695 546.002 112.732 511.569 97.3293C477.136 81.9266 446.773 74.9168 443.751 81.6723C440.729 88.4279 466.193 106.391 500.626 121.793C535.059 137.196 565.422 144.206 568.444 137.45Z" fill="#0C4266"/>
<path d="M568.299 138.101C565.299 144.901 534.899 137.901 500.499 122.501C466.099 107.101 440.599 88.0013 443.599 81.2013C444.199 79.9013 445.799 79.5013 447.999 80.0013C450.199 80.5013 473.899 98.6013 501.899 111.101C531.999 124.601 564.799 126.801 568.099 135.001C571.399 143.201 568.599 137.201 568.299 138.001V138.101Z" fill="#092E4C"/>
<defs>
<linearGradient id="paint0_linear_2394_71815" x1="474.2" y1="1563" x2="474.2" y2="1480.9" gradientUnits="userSpaceOnUse">
<stop stop-color="white"/>
<stop offset="1" stop-color="#A5B7C6"/>
</linearGradient>
<linearGradient id="paint1_linear_2394_71815" x1="480.801" y1="392" x2="480.801" y2="415.8" gradientUnits="userSpaceOnUse">
<stop stop-color="#DB7D67"/>
<stop offset="1" stop-color="#FF9E78"/>
</linearGradient>
<linearGradient id="paint2_linear_2394_71815" x1="513.8" y1="407.601" x2="513.8" y2="542.901" gradientUnits="userSpaceOnUse">
<stop stop-color="#DEEFFF"/>
<stop offset="1" stop-color="#CADBEF"/>
</linearGradient>
<linearGradient id="paint3_linear_2394_71815" x1="573.4" y1="1109.7" x2="558.1" y2="935.501" gradientUnits="userSpaceOnUse">
<stop stop-color="#3D434F"/>
<stop offset="1" stop-color="#333844"/>
</linearGradient>
<linearGradient id="paint4_linear_2394_71815" x1="298.2" y1="1481.6" x2="298.7" y2="1508.7" gradientUnits="userSpaceOnUse">
<stop stop-color="#5B5B60"/>
<stop offset="1" stop-color="#2C2C2D"/>
</linearGradient>
<linearGradient id="paint5_linear_2394_71815" x1="650.5" y1="1481.6" x2="651" y2="1508.8" gradientUnits="userSpaceOnUse">
<stop stop-color="#5B5B60"/>
<stop offset="1" stop-color="#2C2C2D"/>
</linearGradient>
<linearGradient id="paint6_linear_2394_71815" x1="377.401" y1="1111.5" x2="392.801" y2="935.601" gradientUnits="userSpaceOnUse">
<stop stop-color="#3D434F"/>
<stop offset="1" stop-color="#333844"/>
</linearGradient>
<linearGradient id="paint7_linear_2394_71815" x1="480.4" y1="422.601" x2="480.4" y2="445.701" gradientUnits="userSpaceOnUse">
<stop stop-color="#B3CBE2"/>
<stop offset="1" stop-color="#CADBEF"/>
</linearGradient>
<linearGradient id="paint8_linear_2394_71815" x1="507" y1="506.7" x2="507" y2="823.4" gradientUnits="userSpaceOnUse">
<stop stop-color="#B3CBE2"/>
<stop offset="1" stop-color="#CADBEF"/>
</linearGradient>
<linearGradient id="paint9_linear_2394_71815" x1="478.3" y1="652.4" x2="478.3" y2="825.9" gradientUnits="userSpaceOnUse">
<stop stop-color="#B3CBE2"/>
<stop offset="1" stop-color="#CADBEF"/>
</linearGradient>
<linearGradient id="paint10_linear_2394_71815" x1="420.401" y1="833.701" x2="452.201" y2="833.701" gradientUnits="userSpaceOnUse">
<stop stop-color="#5F6163"/>
<stop offset="1" stop-color="#444749"/>
</linearGradient>
<linearGradient id="paint11_linear_2394_71815" x1="437.9" y1="832.8" x2="452" y2="832.8" gradientUnits="userSpaceOnUse">
<stop stop-color="#5F6163"/>
<stop offset="1" stop-color="#444749"/>
</linearGradient>
<linearGradient id="paint12_linear_2394_71815" x1="299.4" y1="632.3" x2="300.7" y2="647.8" gradientUnits="userSpaceOnUse">
<stop stop-color="#DEEFFF"/>
<stop offset="1" stop-color="#CADBEF"/>
</linearGradient>
<linearGradient id="paint13_linear_2394_71815" x1="325.9" y1="974.3" x2="347.9" y2="950.8" gradientUnits="userSpaceOnUse">
<stop stop-color="#DB7D67"/>
<stop offset="1" stop-color="#FF9E78"/>
</linearGradient>
<linearGradient id="paint14_linear_2394_71815" x1="311.9" y1="975.901" x2="287.9" y2="886.301" gradientUnits="userSpaceOnUse">
<stop stop-color="#F28C70"/>
<stop offset="1" stop-color="#FF9E78"/>
</linearGradient>
<linearGradient id="paint15_linear_2394_71815" x1="240.001" y1="715.401" x2="337.801" y2="795.101" gradientUnits="userSpaceOnUse">
<stop stop-color="#F28C70"/>
<stop offset="1" stop-color="#FF9E78"/>
</linearGradient>
<linearGradient id="paint16_linear_2394_71815" x1="365.921" y1="276.814" x2="405.496" y2="275.432" gradientUnits="userSpaceOnUse">
<stop stop-color="#F28C70"/>
<stop offset="1" stop-color="#FF9E78"/>
</linearGradient>
<linearGradient id="paint17_linear_2394_71815" x1="468.452" y1="153.022" x2="469.527" y2="183.804" gradientUnits="userSpaceOnUse">
<stop stop-color="#C6664F"/>
<stop offset="1" stop-color="#FF9E78"/>
</linearGradient>
<linearGradient id="paint18_linear_2394_71815" x1="554.546" y1="303.21" x2="594.622" y2="301.811" gradientUnits="userSpaceOnUse">
<stop stop-color="#F28C70"/>
<stop offset="1" stop-color="#FF9E78"/>
</linearGradient>
<linearGradient id="paint19_linear_2394_71815" x1="565.918" y1="267.793" x2="586.005" y2="267.091" gradientUnits="userSpaceOnUse">
<stop stop-color="#F28C70"/>
<stop offset="1" stop-color="#FF9E78"/>
</linearGradient>
<linearGradient id="paint20_linear_2394_71815" x1="486.301" y1="85.7004" x2="485.801" y2="162" gradientUnits="userSpaceOnUse">
<stop stop-color="#75483B"/>
<stop offset="0.4" stop-color="#704438"/>
<stop offset="0.7" stop-color="#623C2F"/>
<stop offset="1" stop-color="#563428"/>
</linearGradient>
<linearGradient id="paint21_linear_2394_71815" x1="473.602" y1="339.201" x2="473.102" y2="332.901" gradientUnits="userSpaceOnUse">
<stop stop-color="#7C302A"/>
<stop offset="0.2" stop-color="#772E28"/>
<stop offset="0.4" stop-color="#692A26"/>
<stop offset="0.7" stop-color="#522421"/>
<stop offset="1" stop-color="#2D1A19"/>
</linearGradient>
<linearGradient id="paint22_linear_2394_71815" x1="509.398" y1="170.806" x2="510.867" y2="250.103" gradientUnits="userSpaceOnUse">
<stop stop-color="#C6664F"/>
<stop offset="1" stop-color="#FF9E78"/>
</linearGradient>
<linearGradient id="paint23_linear_2394_71815" x1="428.719" y1="178.525" x2="430.17" y2="257.322" gradientUnits="userSpaceOnUse">
<stop stop-color="#C6664F"/>
<stop offset="1" stop-color="#FF9E78"/>
</linearGradient>
<linearGradient id="paint24_linear_2394_71815" x1="426.231" y1="267.786" x2="433.025" y2="247.437" gradientUnits="userSpaceOnUse">
<stop stop-color="#704A3E"/>
<stop offset="1"/>
</linearGradient>
<linearGradient id="paint25_linear_2394_71815" x1="514.17" y1="261.613" x2="518.32" y2="248.66" gradientUnits="userSpaceOnUse">
<stop stop-color="#704A3E"/>
<stop offset="1"/>
</linearGradient>
<linearGradient id="paint26_linear_2394_71815" x1="431.302" y1="207.801" x2="430.502" y2="234.001" gradientUnits="userSpaceOnUse">
<stop stop-color="#75483B"/>
<stop offset="0.4" stop-color="#704438"/>
<stop offset="0.7" stop-color="#623C2F"/>
<stop offset="1" stop-color="#563428"/>
</linearGradient>
<linearGradient id="paint27_linear_2394_71815" x1="512.801" y1="210.201" x2="512.101" y2="236.501" gradientUnits="userSpaceOnUse">
<stop stop-color="#75483B"/>
<stop offset="0.4" stop-color="#704438"/>
<stop offset="0.7" stop-color="#623C2F"/>
<stop offset="1" stop-color="#563428"/>
</linearGradient>
<linearGradient id="paint28_linear_2394_71815" x1="460.622" y1="298.385" x2="460.143" y2="284.694" gradientUnits="userSpaceOnUse">
<stop stop-color="#F28C70"/>
<stop offset="1" stop-color="#FF9E78"/>
</linearGradient>
<linearGradient id="paint29_linear_2394_71815" x1="625.7" y1="308.101" x2="670.9" y2="448.101" gradientUnits="userSpaceOnUse">
<stop stop-color="#DB7D67"/>
<stop offset="1" stop-color="#FF9E78"/>
</linearGradient>
<linearGradient id="paint30_linear_2394_71815" x1="585.601" y1="285.2" x2="619.101" y2="305.7" gradientUnits="userSpaceOnUse">
<stop stop-color="#FFB9A4"/>
<stop offset="1" stop-color="#FF9E78"/>
</linearGradient>
<linearGradient id="paint31_linear_2394_71815" x1="646.9" y1="270.201" x2="667.7" y2="299.601" gradientUnits="userSpaceOnUse">
<stop stop-color="#FFB9A4"/>
<stop offset="1" stop-color="#FF9E78"/>
</linearGradient>
<linearGradient id="paint32_linear_2394_71815" x1="595.6" y1="340.501" x2="640.9" y2="395.001" gradientUnits="userSpaceOnUse">
<stop stop-color="#FFB9A4"/>
<stop offset="1" stop-color="#FF9E78"/>
</linearGradient>
<linearGradient id="paint33_linear_2394_71815" x1="615.401" y1="390.101" x2="673.101" y2="366.701" gradientUnits="userSpaceOnUse">
<stop stop-color="#FFB9A4"/>
<stop offset="1" stop-color="#FF9E78"/>
</linearGradient>
<linearGradient id="paint34_linear_2394_71815" x1="675.101" y1="321.901" x2="666.201" y2="337.601" gradientUnits="userSpaceOnUse">
<stop stop-color="#FFB9A4"/>
<stop offset="1" stop-color="#FF9E78"/>
</linearGradient>
<linearGradient id="paint35_linear_2394_71815" x1="624.001" y1="536.9" x2="669.401" y2="518.8" gradientUnits="userSpaceOnUse">
<stop stop-color="#F28C70"/>
<stop offset="1" stop-color="#FF9E78"/>
</linearGradient>
<linearGradient id="paint36_linear_2394_71815" x1="741.4" y1="517.601" x2="684.6" y2="540.501" gradientUnits="userSpaceOnUse">
<stop stop-color="#FFB9A4"/>
<stop offset="1" stop-color="#FF9E78"/>
</linearGradient>
<linearGradient id="paint37_linear_2394_71815" x1="714.6" y1="413.301" x2="646.5" y2="410.301" gradientUnits="userSpaceOnUse">
<stop stop-color="#FFB9A4"/>
<stop offset="1" stop-color="#FF9E78"/>
</linearGradient>
</defs>
</svg>
