<svg width="100" height="100" viewBox="0 0 100 100" fill="none" xmlns="http://www.w3.org/2000/svg">
<path d="M41.0372 84.7606C19.6986 79.0429 6.22413 60.1366 10.9412 42.5322C15.6583 24.9279 36.7806 15.2918 58.1193 21.0095C79.4579 26.7271 92.9324 45.6334 88.2153 63.2378C83.4982 80.8421 62.3759 90.4782 41.0372 84.7606Z" fill="#ECF2F5"/>
<path d="M61.1992 60H45.1992V62C45.1992 66.4183 48.7809 70 53.1992 70C57.6175 70 61.1992 66.4183 61.1992 62V60Z" fill="#3D94D2"/>
<path d="M35.1992 30C35.1992 20.0589 43.2581 12 53.1992 12C63.1403 12 71.1992 20.0589 71.1992 30V44C71.1992 45.1046 72.0947 46 73.1992 46C74.3038 46 75.1992 46.8954 75.1992 48V52C75.1992 54.2091 73.4084 56 71.1992 56H35.1992C32.9901 56 31.1992 54.2091 31.1992 52V48C31.1992 46.8954 32.0946 46 33.1992 46C34.3038 46 35.1992 45.1046 35.1992 44V30Z" fill="#94C5E7"/>
</svg>
