<svg width="298" height="318" viewBox="0 0 298 318" fill="none" xmlns="http://www.w3.org/2000/svg">
<path d="M168.567 131.149C165.75 130.69 162.687 130.415 159.35 130.231L158.676 110.117C158.523 103.963 151.663 99.4325 143.212 100.014C135.127 100.596 128.482 106.076 128.635 112.229L129.248 132.343C125.604 133.078 122.297 133.905 119.234 134.976L120.459 153.345L169.822 150.682L168.536 131.149H168.567Z" fill="url(#paint0_linear_3485_73802)"/>
<path d="M248.064 200.555C248.768 183.502 213.308 149.367 204.244 140.182C196.221 132.1 176.347 131.549 167.895 130.447C165.2 123.589 159.168 124.569 159.168 124.569C158.249 135.927 144.99 139.999 144.99 139.999C132.496 136.233 129.189 128.579 129.189 128.579C124.35 128.886 121.655 132.712 120.767 134.243C107.63 137.274 95.5959 142.632 88.0016 151.908C78.1413 164.001 69.1077 201.84 67.8828 219.413C67.8828 225.904 90.1758 239.16 97.9845 240.231C97.9845 240.231 97.4945 253.671 99.3931 265.886C99.7606 268.244 102.823 270.815 103.252 271.55C107.6 278.928 198.425 276.326 200.202 270.509C200.6 269.162 205.009 264.876 205.04 262.794C205.285 249.906 206.479 233.404 204.427 207.198C212.512 214.76 227.578 225.291 238.663 219.107C245.614 215.25 247.697 208.821 248.033 200.555H248.064Z" fill="url(#paint1_linear_3485_73802)"/>
<path d="M167.923 130.447C166.484 134.09 162.503 145.234 160.39 146.551C158.369 147.836 150.009 141.928 146.61 139.417C145.661 139.815 145.048 139.999 145.048 139.999C144.528 139.846 144.038 139.662 143.548 139.509C140.302 141.897 133.014 146.979 130.135 146.949C126.889 146.949 122.357 137.121 120.826 134.213C120.367 134.335 119.142 134.641 118.621 134.764C120.213 138.162 125.634 149.428 128.236 150.929C131.268 152.704 144.987 141.377 144.987 141.377C144.987 141.377 157.358 150.775 160.88 150.163C163.881 149.612 168.903 134.917 170.158 130.723C169.607 130.631 168.474 130.539 167.954 130.478L167.923 130.447Z" fill="url(#paint2_linear_3485_73802)"/>
<path d="M65.8605 215.923C65.5849 216.382 64.0232 241.67 65.0337 242.497C65.1868 242.619 67.0854 242.833 67.0854 242.833C73.4854 241.364 88.7353 243.139 92.8081 244.486C93.4511 244.701 93.8799 244.272 93.9411 244.119C94.4923 242.619 94.7679 217.943 94.7679 216.107C94.7679 214.27 66.6567 214.637 65.8299 215.954L65.8605 215.923Z" fill="#CADBEF"/>
<path d="M149 272.868L145.876 140.184L144.039 140.275C144.039 140.275 145.723 249.172 146.336 272.868H149Z" fill="url(#paint3_linear_3485_73802)"/>
<path d="M238.693 219.108C245.644 215.25 247.727 208.821 248.064 200.555C248.217 196.973 246.747 192.595 244.266 187.881C240.377 196.698 234.467 209.801 230.793 211.454C225.158 213.965 198.639 195.932 197.874 194.218C197.078 192.504 194.322 169.451 194.322 169.451H191.382C191.382 169.451 197.108 257.744 195.638 258.815C194.199 259.887 149.919 267.938 148.113 268.061C146.306 268.183 107.109 261.509 104.935 258.386C102.761 255.264 107.109 173.676 107.109 173.676H105.303L101.965 214.179C91.3696 211.668 73.6393 213.015 73.5781 213.015C73.5781 213.75 73.5781 214.546 73.5781 215.22C77.3446 214.791 95.1055 215.587 96.6366 216.23C98.1677 216.873 97.5246 233.497 97.5246 233.497L97.0347 236.711C85.6126 234.231 68.2498 235.089 64.6976 235.303C64.6057 239.099 64.6976 242.773 65.0345 243.048C65.1876 243.171 91.7677 244.273 97.0041 245.559C97.2491 254.56 98.6577 260.897 99.4232 265.887C99.7907 268.244 103.251 272.163 103.71 272.898C103.71 272.898 126.401 274.092 148.358 273.847C173.253 273.571 199.558 271.122 199.558 271.122C199.956 269.775 205.07 264.877 205.101 262.826C205.346 249.937 206.54 233.435 204.488 207.229C212.572 214.791 227.639 225.323 238.724 219.138L238.693 219.108Z" fill="url(#paint4_linear_3485_73802)"/>
<path d="M204.52 198.626C204.52 198.626 208.745 201.841 209.235 201.718C209.725 201.626 235.448 189.595 242.124 186.901L239.245 181.604C239.245 181.604 208.684 171.808 204.52 198.626Z" fill="url(#paint5_linear_3485_73802)"/>
<path d="M67.2384 215.496C66.4422 215.619 65.9217 215.772 65.8298 215.925C65.7379 216.047 65.5542 218.343 65.3398 221.527C72.7504 221.925 96.452 223.058 96.7889 221.65C97.187 219.966 96.942 216.353 96.942 216.353C85.9486 214.272 67.2078 215.435 67.2078 215.496H67.2384Z" fill="url(#paint6_linear_3485_73802)"/>
<path d="M274 220.454H24V292.98H274V220.454Z" fill="white"/>
<path d="M180.359 220.393C173.653 223.914 167.865 226.822 165.875 228.047C162.445 230.037 150.533 237.109 146.276 242.222C141.285 248.222 143.214 252.08 143.214 252.08C143.214 252.08 139.938 259.55 139.019 264.785C138.1 269.989 136.171 290.287 138.223 292.552C140.275 294.818 143.429 294.267 144.225 292.001C145.021 289.736 146.583 274.337 146.828 272.898C146.828 272.898 147.073 277.827 150.809 277.49C154.544 277.184 155.524 273.816 155.524 273.816C155.524 273.816 157.515 275.071 159.934 274.428C162.353 273.816 163.854 271.428 163.854 271.428C163.854 271.428 165.599 273.479 170.07 271.673C174.541 269.867 177.266 251.161 177.909 250.335C179.073 248.865 183.023 246.875 183.85 246.477C183.911 246.477 183.972 246.416 184.003 246.385C187.004 244.518 220.26 229.853 230.855 220.363H180.267L180.359 220.393Z" fill="url(#paint7_linear_3485_73802)"/>
<path d="M162.933 221.925C162.933 221.925 147.377 230.62 142.386 236.62C137.394 242.621 139.324 246.478 139.324 246.478C139.324 246.478 136.047 253.948 135.128 259.183C134.21 264.388 132.281 284.685 134.332 286.951C136.384 289.216 139.538 288.665 140.334 286.369C141.13 284.104 142.692 268.704 142.937 267.265C142.937 267.265 143.182 272.194 146.918 271.858C150.654 271.551 151.634 268.184 151.634 268.184C151.634 268.184 153.624 269.439 156.043 268.796C158.463 268.184 159.963 265.796 159.963 265.796C159.963 265.796 161.708 267.847 166.179 266.041C170.65 264.235 173.376 245.529 174.019 244.702C175.335 243.049 180.143 240.784 180.143 240.784L162.872 221.864L162.933 221.925Z" fill="#FF9E78"/>
<path d="M161.984 222.444C166.639 219.628 191.841 207.596 201.181 200.402C210.521 193.207 220.687 182.217 235.906 187.421C251.126 192.656 244.389 208.637 240.5 213.505C233.12 222.781 183.328 238.854 180.174 240.813C177.02 242.773 161.984 222.444 161.984 222.444Z" fill="#FF9E78"/>
<path d="M240.53 213.505C244.389 208.637 251.156 192.657 235.937 187.421C234.375 186.901 232.875 186.534 231.405 186.319C248.798 192.381 243.348 207.168 236.886 213.781C230.425 220.363 180.664 236.374 174.754 242.987C174.356 243.416 174.172 244.273 173.988 245.008C174.019 244.885 174.05 244.793 174.08 244.763C183.236 238.456 231.65 224.741 240.53 213.536V213.505Z" fill="url(#paint8_linear_3485_73802)"/>
<path d="M143.489 237.997C143.887 237.354 142.815 237.048 142.325 236.711C137.426 242.651 139.355 246.478 139.355 246.478C139.355 246.478 142.57 239.467 143.489 237.997Z" fill="url(#paint9_linear_3485_73802)"/>
<path d="M166.242 266.071C166.303 266.071 166.364 266.01 166.426 265.979C166.426 265.979 166.487 265.949 166.517 265.918C166.548 265.918 166.579 265.887 166.609 265.857C166.64 265.857 166.701 265.796 166.732 265.765C166.732 265.765 166.762 265.765 166.793 265.734C166.854 265.704 166.885 265.642 166.946 265.612C170.56 262.52 172.795 248.529 173.775 245.375C172.856 248.039 168.293 262.244 165.905 263.04C162.567 264.173 161.22 261.724 160.24 261.846C159.26 261.969 158.617 264.479 156.198 265C153.779 265.52 152.462 262.305 151.298 262.581C150.134 262.826 149.859 264.969 146.98 265.061C144.133 265.153 143.03 263.285 142.755 263.438C142.724 263.438 142.693 263.499 142.663 263.591C142.663 263.714 142.632 263.867 142.632 264.05C142.356 267.143 140.58 283.368 139.355 285.94C138.529 287.685 135.099 288.389 134.333 285.787C133.721 283.828 134.823 261.173 134.885 260.805C133.935 267.694 132.619 284.838 134.119 287.195C135.558 289.491 139.57 288.634 140.366 286.369C141.162 284.103 142.724 268.704 142.969 267.265C142.969 267.265 143.122 270.265 144.959 271.429C144.99 271.429 145.051 271.49 145.082 271.52C145.143 271.52 145.174 271.582 145.235 271.612C145.541 271.765 145.909 271.857 146.276 271.888C146.276 271.888 146.276 271.888 146.307 271.888C146.399 271.888 146.46 271.888 146.552 271.888C146.644 271.888 146.766 271.888 146.858 271.888C149.093 271.704 150.349 270.418 150.992 269.408C151.053 269.316 151.084 269.255 151.145 269.163C151.206 269.041 151.298 268.918 151.329 268.796C151.512 268.428 151.574 268.183 151.574 268.183C151.574 268.183 152.217 268.581 153.197 268.796C153.319 268.796 153.411 268.857 153.534 268.857C153.901 268.918 154.268 268.949 154.697 268.949C155.095 268.949 155.524 268.888 155.983 268.765C158.403 268.153 159.903 265.765 159.903 265.765C159.903 265.765 160.515 266.5 161.955 266.714C162.016 266.714 162.108 266.714 162.2 266.714C162.353 266.714 162.537 266.714 162.72 266.714C163.608 266.714 164.741 266.53 166.15 265.979L166.242 266.071Z" fill="url(#paint10_linear_3485_73802)"/>
<path d="M137.488 256.397C137.488 256.397 163.027 260.591 166.272 257.254C169.518 253.917 172.764 240.416 172.764 240.416C172.764 240.416 236.765 214.516 240.378 206.097C244.022 197.678 239.827 188.371 228.038 187.361C220.168 186.687 204.305 200.648 199.345 203.801C194.384 206.954 155.34 227.038 149.89 232.12C144.439 237.171 136.691 253.55 137.457 256.397H137.488Z" fill="url(#paint11_linear_3485_73802)"/>
<path d="M112.69 104.722C116.273 103.722 117.995 98.6729 116.535 93.4454C115.075 88.2178 110.986 84.791 107.403 85.7913C103.819 86.7916 102.098 91.8403 103.557 97.0679C105.017 102.295 109.106 105.722 112.69 104.722Z" fill="url(#paint12_linear_3485_73802)"/>
<path d="M165.872 54.0668C163.882 41.8209 129.37 36.0041 119.173 52.8116C115.927 60.6183 112.222 75.1603 110.446 89.6105C110.446 89.4574 110.446 89.3655 110.446 89.3655C110.446 89.3655 100.677 126.991 134.913 128.95C167.862 130.849 173.221 114.592 171.813 92.1209C171.874 79.477 168.444 63.4655 165.872 54.0668Z" fill="url(#paint13_linear_3485_73802)"/>
<g opacity="0.4">
<path d="M167.303 99.2541C168.916 91.7319 164.889 84.4904 158.307 83.0798C151.725 81.6692 145.082 86.6236 143.469 94.1459C141.856 101.668 145.884 108.91 152.466 110.32C159.047 111.731 165.69 106.776 167.303 99.2541Z" fill="#FF9E78"/>
<path d="M167.214 99.233C168.82 91.7439 164.827 84.5378 158.295 83.1378C151.763 81.7378 145.166 86.6741 143.56 94.1633C141.954 101.652 145.947 108.859 152.479 110.259C159.011 111.658 165.608 106.722 167.214 99.233Z" fill="#FF9D77"/>
<path d="M167.153 99.221C168.749 91.7814 164.774 84.6213 158.275 83.2284C151.776 81.8355 145.214 86.7373 143.619 94.1769C142.024 101.616 145.999 108.777 152.498 110.17C158.996 111.562 165.558 106.661 167.153 99.221Z" fill="#FF9C77"/>
<path d="M167.064 99.2005C168.648 91.8105 164.705 84.6992 158.256 83.317C151.807 81.9347 145.294 86.8049 143.709 94.1949C142.124 101.585 146.068 108.696 152.517 110.078C158.966 111.461 165.479 106.59 167.064 99.2005Z" fill="#FF9B76"/>
<path d="M167.003 99.1865C168.577 91.8461 164.652 84.7808 158.235 83.4056C151.819 82.0304 145.342 86.8662 143.768 94.2066C142.194 101.547 146.119 108.612 152.535 109.988C158.952 111.363 165.429 106.527 167.003 99.1865Z" fill="#FF9A76"/>
<path d="M166.913 99.17C168.477 91.8792 164.583 84.8626 158.217 83.4981C151.85 82.1336 145.422 86.9377 143.858 94.2285C142.295 101.519 146.188 108.536 152.555 109.9C158.922 111.265 165.35 106.461 166.913 99.17Z" fill="#FF9975"/>
<path d="M166.854 99.156C168.407 91.9148 164.532 84.9442 158.198 83.5868C151.865 82.2293 145.472 86.999 143.919 94.2402C142.366 101.481 146.242 108.452 152.575 109.809C158.909 111.167 165.302 106.397 166.854 99.156Z" fill="#FF9875"/>
<path d="M166.765 99.1374C168.307 91.9458 164.463 85.0241 158.179 83.6773C151.895 82.3305 145.551 87.0686 144.009 94.2602C142.467 101.452 146.311 108.374 152.595 109.72C158.879 111.067 165.223 106.329 166.765 99.1374Z" fill="#FF9774"/>
<path d="M166.706 99.1234C168.237 91.9814 164.412 85.1056 158.161 83.7659C151.91 82.4262 145.601 87.1299 144.07 94.2719C142.538 101.414 146.364 108.29 152.615 109.629C158.866 110.969 165.174 106.265 166.706 99.1234Z" fill="#FF9674"/>
<path d="M166.614 99.1049C168.135 92.0125 164.341 85.1855 158.14 83.8565C151.939 82.5274 145.679 87.1995 144.158 94.2919C142.637 101.384 146.431 108.211 152.633 109.54C158.834 110.869 165.094 106.197 166.614 99.1049Z" fill="#FF9573"/>
<path d="M166.554 99.0929C168.064 92.0501 164.288 85.2691 158.12 83.9471C151.952 82.6251 145.727 87.2627 144.217 94.3055C142.707 101.348 146.483 108.129 152.651 109.451C158.819 110.773 165.043 106.136 166.554 99.0929Z" fill="#FF9472"/>
<path d="M166.464 99.0724C167.964 92.0792 164.219 85.347 158.101 84.0356C151.982 82.7243 145.807 87.3303 144.307 94.3235C142.807 101.317 146.552 108.049 152.67 109.36C158.789 110.672 164.964 106.066 166.464 99.0724Z" fill="#FF9372"/>
<path d="M166.375 99.0534C167.863 92.1098 164.151 85.4264 158.082 84.1257C152.013 82.8249 145.886 87.3994 144.397 94.343C142.908 101.287 146.621 107.97 152.69 109.271C158.759 110.571 164.886 105.997 166.375 99.0534Z" fill="#FF9271"/>
<path d="M166.314 99.0412C167.796 92.1307 164.104 85.4799 158.069 84.1862C152.033 82.8926 145.938 87.4459 144.457 94.3565C142.975 101.267 146.666 107.918 152.702 109.211C158.738 110.505 164.832 105.952 166.314 99.0412Z" fill="#FF9171"/>
<path d="M166.227 99.0222C167.698 92.1612 164.038 85.5592 158.051 84.2762C152.065 82.9932 146.02 87.515 144.549 94.376C143.077 101.237 146.738 107.839 152.724 109.122C158.71 110.405 164.755 105.883 166.227 99.0222Z" fill="#FF9070"/>
<path d="M166.166 99.0087C167.626 92.1973 163.984 85.6413 158.031 84.3654C152.078 83.0894 146.068 87.5768 144.608 94.3881C143.147 101.199 146.789 107.756 152.742 109.031C158.695 110.307 164.705 105.82 166.166 99.0087Z" fill="#FF8F70"/>
<path d="M166.078 98.9916C167.528 92.2299 163.918 85.7227 158.014 84.4574C152.111 83.1921 146.15 87.6478 144.7 94.4096C143.25 101.171 146.86 107.679 152.763 108.944C158.667 110.209 164.628 105.753 166.078 98.9916Z" fill="#FF8E6F"/>
<path d="M166.013 98.9781C167.453 92.266 163.86 85.8047 157.99 84.5465C152.12 83.2883 146.194 87.7096 144.755 94.4218C143.315 101.134 146.907 107.595 152.778 108.853C158.648 110.112 164.574 105.69 166.013 98.9781Z" fill="#FF8D6F"/>
<path d="M165.926 98.9572C167.354 92.2946 163.794 85.8822 157.973 84.6346C152.152 83.387 146.275 87.7767 144.847 94.4393C143.418 101.102 146.978 107.514 152.799 108.762C158.62 110.009 164.497 105.62 165.926 98.9572Z" fill="#FF8C6E"/>
<path d="M165.865 98.9456C167.283 92.3326 163.741 85.9662 157.953 84.7257C152.165 83.4852 146.324 87.8405 144.905 94.4534C143.487 101.066 147.03 107.433 152.818 108.673C158.605 109.914 164.447 105.559 165.865 98.9456Z" fill="#FF8B6E"/>
<path d="M165.777 98.9266C167.185 92.3632 163.674 86.0456 157.936 84.8157C152.198 83.5859 146.405 87.9095 144.998 94.4729C143.59 101.036 147.101 107.354 152.839 108.584C158.577 109.814 164.37 105.49 165.777 98.9266Z" fill="#FF8A6D"/>
<path d="M165.686 98.9061C167.083 92.3923 163.603 86.1235 157.915 84.9043C152.226 83.6851 146.482 87.9772 145.086 94.4909C143.689 101.005 147.168 107.274 152.857 108.493C158.545 109.712 164.289 105.42 165.686 98.9061Z" fill="#FF896C"/>
<path d="M165.627 98.8941C167.013 92.4299 163.552 86.207 157.896 84.9949C152.241 83.7828 146.533 88.0404 145.147 94.5046C143.76 100.969 147.221 107.192 152.877 108.404C158.532 109.616 164.241 105.358 165.627 98.8941Z" fill="#FF886C"/>
<path d="M165.535 98.8736C166.911 92.459 163.481 86.285 157.876 85.0835C152.27 83.882 146.61 88.108 145.235 94.5226C143.859 100.937 147.289 107.111 152.894 108.313C158.5 109.514 164.16 105.288 165.535 98.8736Z" fill="#FF876B"/>
<path d="M165.476 98.8616C166.841 92.4966 163.43 86.3685 157.857 85.1741C152.284 83.9797 146.66 88.1712 145.296 94.5362C143.931 100.901 147.342 107.029 152.915 108.224C158.487 109.418 164.112 105.227 165.476 98.8616Z" fill="#FF866B"/>
<path d="M165.387 98.843C166.741 92.5277 163.361 86.4484 157.838 85.2646C152.315 84.0808 146.74 88.2408 145.386 94.5562C144.031 100.872 147.411 106.951 152.934 108.135C158.457 109.318 164.033 105.158 165.387 98.843Z" fill="#FF856A"/>
<path d="M165.328 98.8304C166.676 92.548 163.317 86.5013 157.827 85.3246C152.337 84.148 146.794 88.2869 145.447 94.5692C144.1 100.852 147.458 106.898 152.949 108.075C158.439 109.252 163.981 105.113 165.328 98.8304Z" fill="#FF846A"/>
<path d="M165.237 98.8099C166.573 92.5772 163.247 86.5793 157.806 85.4132C152.366 84.2472 146.872 88.3545 145.535 94.5872C144.199 100.82 147.526 106.818 152.966 107.984C158.407 109.15 163.9 105.043 165.237 98.8099Z" fill="#FF8369"/>
<path d="M165.178 98.7959C166.504 92.6128 163.195 86.6608 157.788 85.5019C152.38 84.3429 146.922 88.4158 145.596 94.5989C144.27 100.782 147.579 106.734 152.986 107.893C158.394 109.052 163.852 104.979 165.178 98.7959Z" fill="#FF8269"/>
<path d="M165.088 98.7793C166.404 92.6458 163.127 86.7427 157.769 85.5944C152.411 84.446 147.001 88.4873 145.686 94.6208C144.371 100.754 147.648 106.657 153.006 107.806C158.364 108.954 163.773 104.913 165.088 98.7793Z" fill="#FF8168"/>
<path d="M165.028 98.7653C166.332 92.6814 163.073 86.8243 157.748 85.683C152.424 84.5418 147.05 88.5486 145.745 94.6325C144.44 100.716 147.699 106.574 153.024 107.715C158.349 108.856 163.723 104.849 165.028 98.7653Z" fill="#FF8067"/>
<path d="M164.936 98.7449C166.23 92.7105 163.003 86.9022 157.728 85.7716C152.452 84.641 147.127 88.6162 145.833 94.6505C144.539 100.685 147.767 106.493 153.042 107.624C158.317 108.754 163.642 104.779 164.936 98.7449Z" fill="#FF7F67"/>
<path d="M164.847 98.7278C166.13 92.7431 162.934 86.9835 157.709 85.8636C152.483 84.7436 147.207 88.6873 145.923 94.672C144.64 100.657 147.836 106.416 153.061 107.536C158.287 108.656 163.563 104.713 164.847 98.7278Z" fill="#FF7E66"/>
<path d="M164.79 98.7143C166.062 92.7792 162.885 87.0656 157.692 85.9527C152.5 84.8398 147.259 88.749 145.986 94.6842C144.713 100.619 147.891 106.333 153.083 107.446C158.276 108.559 163.517 104.649 164.79 98.7143Z" fill="#FF7D66"/>
<path d="M164.698 98.6953C165.96 92.8097 162.814 87.145 157.671 86.0427C152.528 84.9405 147.336 88.8181 146.074 94.7036C144.812 100.589 147.958 106.254 153.101 107.356C158.244 108.458 163.436 104.581 164.698 98.6953Z" fill="#FF7C65"/>
<path d="M164.639 98.6818C165.891 92.8458 162.763 87.2271 157.653 86.1319C152.543 85.0367 147.386 88.8799 146.135 94.7158C144.884 100.552 148.011 106.171 153.121 107.266C158.231 108.361 163.388 104.518 164.639 98.6818Z" fill="#FF7B65"/>
<path d="M164.548 98.6628C165.788 92.8764 162.692 87.3065 157.632 86.2219C152.572 85.1374 147.464 88.949 146.223 94.7353C144.982 100.522 148.079 106.092 153.139 107.176C158.199 108.261 163.307 104.449 164.548 98.6628Z" fill="#FF7A64"/>
<path d="M164.489 98.6493C165.719 92.9125 162.641 87.3885 157.614 86.3111C152.587 85.2336 147.514 89.0107 146.284 94.7475C145.054 100.484 148.132 106.008 153.159 107.086C158.186 108.163 163.259 104.386 164.489 98.6493Z" fill="#FF7964"/>
<path d="M164.4 98.6296C165.623 92.9259 162.579 87.4374 157.602 86.3705C152.624 85.3037 147.598 89.0626 146.375 94.7663C145.152 100.47 148.195 105.959 153.173 107.025C158.15 108.092 163.177 104.333 164.4 98.6296Z" fill="#FF7863"/>
<path d="M164.339 98.6181C165.551 92.964 162.526 87.5213 157.581 86.4616C152.637 85.4019 147.646 89.1264 146.434 94.7804C145.221 100.435 148.247 105.877 153.191 106.937C158.135 107.997 163.126 104.272 164.339 98.6181Z" fill="#FF7762"/>
<path d="M164.249 98.599C165.451 92.9946 162.457 87.6008 157.563 86.5517C152.668 85.5026 147.725 89.1954 146.524 94.7999C145.322 100.404 148.316 105.798 153.21 106.847C158.105 107.896 163.048 104.204 164.249 98.599Z" fill="#FF7762"/>
<path d="M164.16 98.5786C165.351 93.0237 162.389 87.6787 157.544 86.6402C152.698 85.6018 147.805 89.2631 146.614 94.818C145.423 100.373 148.385 105.718 153.23 106.756C158.075 107.795 162.969 104.133 164.16 98.5786Z" fill="#FF7661"/>
<path d="M164.101 98.5665C165.281 93.0612 162.337 87.7622 157.525 86.7309C152.713 85.6995 147.855 89.3263 146.675 94.8316C145.494 100.337 148.438 105.636 153.25 106.667C158.062 107.699 162.92 104.072 164.101 98.5665Z" fill="#FF7561"/>
<path d="M164.009 98.548C165.179 93.0923 162.267 87.8421 157.504 86.8214C152.742 85.8006 147.933 89.3959 146.763 94.8516C145.593 100.307 148.505 105.557 153.268 106.578C158.03 107.599 162.839 104.004 164.009 98.548Z" fill="#FF7460"/>
<path d="M163.95 98.536C165.11 93.1299 162.215 87.9256 157.486 86.912C152.757 85.8983 147.983 89.4591 146.824 94.8652C145.664 100.271 148.559 105.476 153.288 106.489C158.017 107.503 162.791 103.942 163.95 98.536Z" fill="#FF7360"/>
<path d="M163.859 98.5155C165.008 93.159 162.145 88.0036 157.465 87.0006C152.785 85.9975 148.06 89.5267 146.912 94.8832C145.763 100.24 148.626 105.395 153.306 106.398C157.985 107.401 162.71 103.872 163.859 98.5155Z" fill="#FF725F"/>
<path d="M163.8 98.5015C164.938 93.1946 162.094 88.0851 157.447 87.0892C152.8 86.0933 148.111 89.588 146.973 94.8949C145.835 100.202 148.679 105.311 153.326 106.307C157.973 107.303 162.662 103.808 163.8 98.5015Z" fill="#FF715F"/>
<path d="M163.71 98.483C164.838 93.2257 162.025 88.165 157.428 87.1797C152.831 86.1944 148.19 89.6576 147.063 94.9149C145.935 100.172 148.748 105.233 153.345 106.218C157.942 107.203 162.583 103.74 163.71 98.483Z" fill="#FF705E"/>
<path d="M163.651 98.4709C164.768 93.2632 161.974 88.2485 157.409 87.2703C152.845 86.2921 148.24 89.7208 147.124 94.9285C146.007 100.136 148.801 105.151 153.366 106.129C157.93 107.107 162.535 103.679 163.651 98.4709Z" fill="#FF6F5E"/>
<path d="M163.56 98.4505C164.666 93.2923 161.903 88.3265 157.389 87.3589C152.874 86.3913 148.318 89.7884 147.212 94.9465C146.106 100.105 148.869 105.071 153.383 106.038C157.898 107.006 162.454 103.609 163.56 98.4505Z" fill="#FF6E5D"/>
<path d="M163.47 98.4314C164.566 93.3229 161.834 88.4059 157.37 87.449C152.905 86.492 148.397 89.8575 147.302 94.966C146.206 100.075 148.938 104.992 153.403 105.949C157.868 106.905 162.375 103.54 163.47 98.4314Z" fill="#FF6D5C"/>
<path d="M163.41 98.4173C164.498 93.3419 161.788 88.4574 157.356 87.5075C152.925 86.5577 148.45 89.9021 147.361 94.9776C146.273 100.053 148.983 104.937 153.415 105.887C157.847 106.837 162.322 103.493 163.41 98.4173Z" fill="#FF6C5C"/>
<path d="M163.321 98.4002C164.398 93.3744 161.72 88.5387 157.337 87.5995C152.955 86.6603 148.529 89.9732 147.451 94.999C146.374 100.025 149.052 104.861 153.435 105.8C157.817 106.739 162.243 103.426 163.321 98.4002Z" fill="#FF6B5B"/>
<path d="M163.262 98.3867C164.329 93.4105 161.668 88.6208 157.319 87.6886C152.97 86.7565 148.579 90.0349 147.512 95.0112C146.445 99.9874 149.106 104.777 153.455 105.709C157.804 106.641 162.195 103.363 163.262 98.3867Z" fill="#FF6A5B"/>
<path d="M163.172 98.3658C164.229 93.4391 161.6 88.6983 157.3 87.7767C153.001 86.8552 148.659 90.1021 147.602 95.0287C146.546 99.9554 149.175 104.696 153.474 105.618C157.774 106.539 162.116 103.292 163.172 98.3658Z" fill="#FF695A"/>
<path d="M163.113 98.3542C164.159 93.4772 161.548 88.7822 157.282 87.8678C153.015 86.9534 148.709 90.1658 147.663 95.0428C146.617 99.9199 149.228 104.615 153.495 105.529C157.761 106.444 162.067 103.231 163.113 98.3542Z" fill="#FF685A"/>
<path d="M163.022 98.3352C164.057 93.5077 161.478 88.8616 157.261 87.9579C153.044 87.0541 148.786 90.2349 147.751 95.0623C146.716 99.8898 149.295 104.536 153.512 105.44C157.729 106.343 161.987 103.163 163.022 98.3352Z" fill="#FF6759"/>
<path d="M162.961 98.3237C163.985 93.5458 161.424 88.9457 157.241 88.049C153.057 87.1523 148.835 90.2986 147.81 95.0765C146.786 99.8543 149.347 104.454 153.53 105.351C157.714 106.248 161.936 103.102 162.961 98.3237Z" fill="#FF6659"/>
<path d="M162.871 98.3027C163.885 93.5744 161.356 89.0231 157.222 88.137C153.087 87.251 148.914 90.3657 147.9 95.094C146.886 99.8223 149.416 104.374 153.55 105.26C157.684 106.146 161.857 103.031 162.871 98.3027Z" fill="#FF6558"/>
<path d="M162.812 98.2912C163.816 93.6125 161.304 89.1071 157.203 88.2281C153.102 87.3492 148.964 90.4294 147.961 95.1081C146.958 99.7868 149.469 104.292 153.57 105.171C157.671 106.05 161.809 102.97 162.812 98.2912Z" fill="#FF6457"/>
<path d="M162.723 98.2721C163.715 93.6431 161.236 89.1865 157.184 88.3182C153.133 87.4498 149.044 90.4985 148.051 95.1276C147.059 99.7567 149.538 104.213 153.59 105.082C157.641 105.95 161.73 102.901 162.723 98.2721Z" fill="#FF6357"/>
<path d="M162.633 98.2516C163.615 93.6722 161.167 89.2645 157.165 88.4068C153.164 87.549 149.123 90.5661 148.141 95.1456C147.159 99.7251 149.607 104.133 153.609 104.991C157.611 105.848 161.651 102.831 162.633 98.2516Z" fill="#FF6256"/>
<path d="M162.572 98.2396C163.544 93.7097 161.114 89.348 157.145 88.4974C153.176 87.6467 149.172 90.6294 148.2 95.1593C147.229 99.6891 149.659 104.051 153.627 104.902C157.596 105.752 161.601 102.769 162.572 98.2396Z" fill="#FF6156"/>
<path d="M162.481 98.2185C163.446 93.7217 161.05 89.3953 157.131 88.5554C153.212 87.7154 149.253 90.6798 148.289 95.1766C147.325 99.6735 149.72 104 153.639 104.84C157.558 105.68 161.517 102.715 162.481 98.2185Z" fill="#FF6055"/>
<path d="M162.422 98.2065C163.376 93.7592 160.999 89.4789 157.113 88.646C153.227 87.8131 149.303 90.7431 148.35 95.1903C147.396 99.6375 149.773 103.918 153.659 104.751C157.545 105.584 161.469 102.654 162.422 98.2065Z" fill="#FF5F55"/>
<path d="M162.333 98.1879C163.276 93.7903 160.93 89.5588 157.094 88.7365C153.257 87.9142 149.383 90.8126 148.44 95.2103C147.497 99.6079 149.842 103.839 153.679 104.662C157.515 105.484 161.39 102.586 162.333 98.1879Z" fill="#FF5E54"/>
<path d="M162.272 98.1759C163.204 93.8279 160.877 89.6423 157.074 88.8271C153.27 88.0119 149.431 90.8759 148.499 95.2239C147.566 99.5719 149.894 103.758 153.697 104.573C157.501 105.388 161.34 102.524 162.272 98.1759Z" fill="#FF5D54"/>
<path d="M162.184 98.1554C163.106 93.857 160.81 89.7202 157.057 88.9157C153.303 88.1111 149.513 90.9435 148.591 95.2419C147.669 99.5403 149.965 103.677 153.719 104.482C157.472 105.286 161.263 102.454 162.184 98.1554Z" fill="#FF5C53"/>
<path d="M162.124 98.1434C163.035 93.8945 160.757 89.8037 157.036 89.0063C153.316 88.2088 149.561 91.0067 148.65 95.2555C147.739 99.5044 150.016 103.595 153.737 104.393C157.458 105.19 161.212 102.392 162.124 98.1434Z" fill="#FF5B53"/>
<path d="M162.032 98.1229C162.933 93.9237 160.686 89.8817 157.015 89.0949C153.344 88.308 149.638 91.0743 148.738 95.2736C147.837 99.4728 150.083 103.515 153.755 104.302C157.426 105.088 161.132 102.322 162.032 98.1229Z" fill="#FF5A52"/>
<path d="M161.943 98.1039C162.832 93.9543 160.618 89.9611 156.996 89.1849C153.375 88.4087 149.718 91.1434 148.828 95.2931C147.938 99.4427 150.153 103.436 153.774 104.212C157.396 104.988 161.053 102.254 161.943 98.1039Z" fill="#FF5951"/>
<path d="M161.884 98.0923C162.763 93.9923 160.566 90.0451 156.978 89.276C153.39 88.5069 149.768 91.2071 148.889 95.3072C148.01 99.4072 150.206 103.354 153.794 104.124C157.383 104.893 161.004 102.192 161.884 98.0923Z" fill="#FF5851"/>
<path d="M161.794 98.0733C162.663 94.0229 160.498 90.1245 156.959 89.366C153.42 88.6076 149.847 91.2762 148.979 95.3267C148.11 99.3771 150.275 103.276 153.814 104.034C157.353 104.792 160.925 102.124 161.794 98.0733Z" fill="#FF5750"/>
<path d="M161.735 98.0579C162.593 94.057 160.447 90.2046 156.941 89.4532C153.435 88.7018 149.898 91.336 149.04 95.3369C148.182 99.3377 150.328 103.19 153.834 103.942C157.34 104.693 160.877 102.059 161.735 98.0579Z" fill="#FF5650"/>
<path d="M161.646 98.0408C162.493 94.0896 160.378 90.286 156.922 89.5452C153.466 88.8045 149.977 91.4071 149.13 95.3583C148.283 99.3096 150.397 103.113 153.854 103.854C157.31 104.595 160.798 101.992 161.646 98.0408Z" fill="#FF554F"/>
<path d="M161.583 98.0273C162.419 94.1257 160.323 90.368 156.9 89.6343C153.477 88.9007 150.023 91.4688 149.187 95.3705C148.35 99.2721 150.447 103.03 153.87 103.763C157.293 104.497 160.746 101.929 161.583 98.0273Z" fill="#FF544F"/>
<path d="M161.494 98.0096C162.323 94.141 160.261 90.4188 156.888 89.6958C153.514 88.9727 150.107 91.5227 149.277 95.3913C148.448 99.2599 150.51 102.982 153.884 103.705C157.257 104.428 160.664 101.878 161.494 98.0096Z" fill="#FF534E"/>
<path d="M161.433 97.9961C162.252 94.1771 160.208 90.5008 156.867 89.7849C153.527 89.069 150.155 91.5845 149.336 95.4035C148.517 99.2225 150.561 102.899 153.902 103.615C157.242 104.331 160.614 101.815 161.433 97.9961Z" fill="#FF524E"/>
<path d="M161.345 97.9751C162.154 94.2058 160.141 90.5783 156.85 89.873C153.56 89.1677 150.237 91.6516 149.428 95.421C148.62 99.1904 150.633 102.818 153.923 103.523C157.214 104.228 160.537 101.745 161.345 97.9751Z" fill="#FF514D"/>
</g>
<path d="M182.571 97.4199C184.185 92.238 182.614 87.1404 179.062 86.0343C175.509 84.9281 171.321 88.2322 169.706 93.4141C168.092 98.5961 169.663 103.694 173.215 104.8C176.768 105.906 180.956 102.602 182.571 97.4199Z" fill="#FF9E78"/>
<path d="M179.437 98.1208C176.038 100.294 172.425 99.5597 169.822 97.4472C169.822 98.7637 169.761 100.478 169.455 102.437H169.516L169.332 115.449C170.771 112.173 171.506 108.346 171.812 104.091C172.149 104.305 172.486 104.489 172.854 104.642C176.345 105.897 180.57 102.744 182.285 97.6003C182.714 96.2839 182.959 94.9368 182.99 93.6816C182.377 95.4573 181.213 97.0186 179.407 98.1514L179.437 98.1208Z" fill="url(#paint14_linear_3485_73802)"/>
<path d="M173.373 95.3027L176.558 95.7619C176.558 90.7105 180.294 89.0573 180.294 89.0573C174.23 86.853 173.373 95.3027 173.373 95.3027Z" fill="url(#paint15_linear_3485_73802)"/>
<path d="M153.072 31.9006C143.304 25.4409 130.565 24.9204 130.565 24.9204C130.044 25.747 129.799 27.0634 129.983 28.0125C121.991 27.737 115.744 28.5636 115.744 28.5636C113.998 38.0847 116.662 43.7485 119.571 46.963C120.643 48.157 122.174 50.1163 126.492 52.0451C126.492 52.0451 131.085 54.6779 138.343 54.831C144.835 54.9841 154.083 51.5858 154.083 51.5858C160.544 51.4328 169.547 71.516 170.404 87.65C170.588 91.3544 173.803 87.0989 173.803 87.0989C173.803 87.0989 174.14 83.0578 173.865 77.3022C173.865 77.2716 178.917 51.2797 173.375 41.5442" fill="url(#paint16_linear_3485_73802)"/>
<path d="M116.664 42.3413C106.957 45.2803 110.325 80.5791 110.54 86.3959C110.54 86.8245 110.54 87.1001 110.478 87.5593C110.478 87.7736 111.244 87.7123 111.183 87.498C111.091 87.1613 111.183 86.5796 111.213 86.3653C112.561 75.6501 121.135 52.2911 126.494 52.0156C126.494 52.0156 121.349 48.9235 116.664 42.3413Z" fill="#59352C"/>
<g opacity="0.4">
<path d="M125.939 109.041C132.4 107.995 136.614 100.828 135.351 93.0336C134.088 85.2392 127.827 79.7686 121.366 80.8147C114.906 81.8609 110.692 89.0277 111.954 96.8222C113.217 104.617 119.478 110.087 125.939 109.041Z" fill="#FF9E78"/>
<path d="M125.93 108.982C132.341 107.944 136.519 100.811 135.261 93.0494C134.004 85.2883 127.788 79.8382 121.377 80.8763C114.966 81.9143 110.789 89.0475 112.046 96.8086C113.303 104.57 119.52 110.02 125.93 108.982Z" fill="#FF9D77"/>
<path d="M125.917 108.89C132.294 107.857 136.451 100.769 135.202 93.058C133.953 85.3469 127.77 79.933 121.393 80.9657C115.016 81.9983 110.858 89.0865 112.108 96.7975C113.357 104.509 119.539 109.922 125.917 108.89Z" fill="#FF9C77"/>
<path d="M125.9 108.799C132.227 107.774 136.351 100.733 135.11 93.0723C133.868 85.4114 127.733 80.0315 121.406 81.056C115.078 82.0806 110.955 89.1216 112.196 96.7825C113.438 104.444 119.573 109.823 125.9 108.799Z" fill="#FF9B76"/>
<path d="M125.885 108.709C132.178 107.69 136.281 100.694 135.048 93.0833C133.815 85.4724 127.713 80.1287 121.42 81.1479C115.126 82.167 111.023 89.163 112.256 96.7739C113.489 104.385 119.591 109.728 125.885 108.709Z" fill="#FF9A76"/>
<path d="M125.87 108.618C132.114 107.607 136.182 100.658 134.958 93.0977C133.733 85.5368 127.678 80.2272 121.434 81.2382C115.191 82.2492 111.122 89.1981 112.347 96.7589C113.572 104.32 119.626 109.629 125.87 108.618Z" fill="#FF9975"/>
<path d="M125.856 108.527C132.067 107.521 136.115 100.617 134.898 93.1067C133.681 85.5959 127.66 80.3225 121.45 81.3281C115.24 82.3337 111.191 89.2376 112.408 96.7483C113.625 104.259 119.646 109.533 125.856 108.527Z" fill="#FF9875"/>
<path d="M125.842 108.436C132.002 107.438 136.016 100.582 134.808 93.1211C133.599 85.6604 127.625 80.4209 121.465 81.4185C115.304 82.416 111.29 89.2727 112.499 96.7334C113.708 104.194 119.681 109.433 125.842 108.436Z" fill="#FF9774"/>
<path d="M125.828 108.348C131.955 107.356 135.949 100.545 134.748 93.134C133.548 85.7234 127.607 80.5201 121.481 81.5122C115.354 82.5043 111.36 89.3161 112.561 96.7267C113.761 104.137 119.701 109.34 125.828 108.348Z" fill="#FF9674"/>
<path d="M125.814 108.255C131.89 107.271 135.85 100.507 134.658 93.1464C133.465 85.7859 127.572 80.6167 121.495 81.6006C115.418 82.5846 111.459 89.3492 112.651 96.7098C113.844 104.07 119.737 109.239 125.814 108.255Z" fill="#FF9573"/>
<path d="M125.798 108.166C131.841 107.187 135.78 100.468 134.596 93.1573C133.412 85.8469 127.553 80.7139 121.509 81.6925C115.466 82.6711 111.526 89.3907 112.711 96.7011C113.895 104.012 119.754 109.145 125.798 108.166Z" fill="#FF9472"/>
<path d="M125.781 108.075C131.775 107.105 135.68 100.432 134.504 93.1717C133.327 85.9113 127.515 80.8124 121.522 81.7828C115.529 82.7533 111.623 89.4257 112.8 96.6861C113.976 103.947 119.788 109.046 125.781 108.075Z" fill="#FF9372"/>
<path d="M125.768 107.983C131.728 107.018 135.612 100.391 134.444 93.1802C133.276 85.9699 127.498 80.9071 121.538 81.8722C115.578 82.8373 111.693 89.4647 112.861 96.6751C114.029 103.885 119.808 108.948 125.768 107.983Z" fill="#FF9271"/>
<path d="M125.753 107.893C131.663 106.936 135.514 100.355 134.354 93.1951C133.194 86.0349 127.462 81.0061 121.552 81.9631C115.642 82.92 111.792 89.5003 112.952 96.6606C114.112 103.821 119.843 108.85 125.753 107.893Z" fill="#FF9171"/>
<path d="M125.739 107.803C131.616 106.851 135.446 100.316 134.294 93.2056C133.142 86.0954 127.445 81.1028 121.568 82.0544C115.692 83.006 111.862 89.5413 113.013 96.6515C114.165 103.762 119.863 108.754 125.739 107.803Z" fill="#FF9070"/>
<path d="M125.725 107.712C131.551 106.769 135.347 100.281 134.204 93.2204C133.06 86.1603 127.409 81.2018 121.583 82.1453C115.756 83.0887 111.96 89.5769 113.104 96.637C114.248 103.697 119.898 108.656 125.725 107.712Z" fill="#FF8F70"/>
<path d="M125.709 107.622C131.502 106.684 135.278 100.241 134.142 93.2309C133.007 86.2209 127.39 81.2986 121.597 82.2366C115.804 83.1746 112.028 89.6178 113.164 96.6278C114.299 103.638 119.916 108.56 125.709 107.622Z" fill="#FF8E6F"/>
<path d="M125.696 107.531C131.455 106.598 135.21 100.2 134.083 93.2399C132.955 86.2799 127.372 81.3938 121.612 82.3265C115.853 83.2591 112.098 89.6573 113.225 96.6173C114.353 103.577 119.936 108.463 125.696 107.531Z" fill="#FF8D6F"/>
<path d="M125.679 107.442C131.389 106.517 135.11 100.166 133.99 93.2562C132.871 86.3464 127.335 81.4943 121.625 82.4188C115.916 83.3433 112.195 89.6944 113.314 96.6042C114.433 103.514 119.969 108.366 125.679 107.442Z" fill="#FF8C6E"/>
<path d="M125.665 107.35C131.342 106.431 135.042 100.125 133.931 93.2652C132.819 86.4054 127.317 81.5895 121.641 82.5086C115.965 83.4278 112.264 89.7338 113.376 96.5937C114.487 103.453 119.989 108.269 125.665 107.35Z" fill="#FF8B6E"/>
<path d="M125.649 107.259C131.275 106.348 134.941 100.089 133.838 93.2796C132.735 86.4699 127.28 81.688 121.654 82.599C116.028 83.51 112.361 89.7689 113.464 96.5787C114.568 103.388 120.023 108.17 125.649 107.259Z" fill="#FF8A6D"/>
<path d="M125.635 107.168C131.228 106.262 134.874 100.048 133.779 93.2886C132.684 86.5289 127.262 81.7833 121.669 82.6889C116.077 83.5945 112.431 89.8084 113.526 96.5681C114.621 103.328 120.042 108.073 125.635 107.168Z" fill="#FF896C"/>
<path d="M125.621 107.077C131.163 106.179 134.775 100.013 133.688 93.303C132.601 86.5934 127.227 81.8818 121.684 82.7792C116.142 83.6767 112.53 89.8435 113.617 96.5531C114.704 103.263 120.078 107.974 125.621 107.077Z" fill="#FF886C"/>
<path d="M125.607 106.987C131.116 106.095 134.708 99.973 133.629 93.3135C132.55 86.6539 127.209 81.9785 121.7 82.8706C116.191 83.7627 112.599 89.8845 113.678 96.544C114.757 103.204 120.098 107.879 125.607 106.987Z" fill="#FF876B"/>
<path d="M125.59 106.896C131.05 106.012 134.607 99.9378 133.536 93.3284C132.465 86.7189 127.172 82.0775 121.713 82.9614C116.254 83.8454 112.696 89.92 113.767 96.5295C114.838 103.139 120.131 107.78 125.59 106.896Z" fill="#FF866B"/>
<path d="M125.577 106.806C131.002 105.928 134.539 99.8982 133.477 93.3388C132.414 86.7794 127.154 82.1742 121.729 83.0528C116.303 83.9313 112.766 89.961 113.828 96.5204C114.891 103.08 120.151 107.685 125.577 106.806Z" fill="#FF856A"/>
<path d="M125.56 106.714C130.936 105.844 134.439 99.861 133.384 93.3517C132.33 86.8424 127.117 82.2712 121.741 83.1417C116.366 84.0121 112.863 89.9946 113.917 96.5039C114.972 103.013 120.184 107.584 125.56 106.714Z" fill="#FF846A"/>
<path d="M125.546 106.624C130.889 105.759 134.371 99.8214 133.325 93.3622C132.278 86.9029 127.099 82.368 121.757 83.233C116.415 84.0981 112.932 90.0356 113.979 96.4948C115.025 102.954 120.204 107.489 125.546 106.624Z" fill="#FF8369"/>
<path d="M125.532 106.535C130.824 105.679 134.273 99.7882 133.234 93.379C132.196 86.9699 127.064 82.4689 121.772 83.3258C116.48 84.1828 113.031 90.0731 114.069 96.4823C115.108 102.891 120.24 107.392 125.532 106.535Z" fill="#FF8269"/>
<path d="M125.516 106.442C130.775 105.59 134.203 99.7447 133.173 93.3856C132.143 87.0265 127.044 82.5617 121.786 83.4132C116.527 84.2648 113.099 90.1102 114.129 96.4693C115.159 102.828 120.257 107.293 125.516 106.442Z" fill="#FF8168"/>
<path d="M125.504 106.353C130.712 105.51 134.106 99.7114 133.084 93.4024C132.062 87.0934 127.011 82.6626 121.802 83.506C116.594 84.3495 113.2 90.1477 114.222 96.4567C115.244 102.766 120.295 107.196 125.504 106.353Z" fill="#FF8067"/>
<path d="M125.488 106.259C130.663 105.421 134.037 99.6679 133.023 93.409C132.009 87.15 126.991 82.7555 121.816 83.5935C116.641 84.4315 113.267 90.1847 114.281 96.4437C115.295 102.703 120.313 107.097 125.488 106.259Z" fill="#FF7F67"/>
<path d="M125.473 106.171C130.599 105.341 133.938 99.6347 132.932 93.4258C131.926 87.2169 126.956 82.8564 121.831 83.6863C116.706 84.5162 113.366 90.2223 114.372 96.4311C115.378 102.64 120.348 107.001 125.473 106.171Z" fill="#FF7E66"/>
<path d="M125.46 106.079C130.552 105.254 133.871 99.5931 132.873 93.4343C131.875 87.2755 126.938 82.9512 121.847 83.7757C116.755 84.6002 113.436 90.2613 114.434 96.4201C115.431 102.579 120.368 106.903 125.46 106.079Z" fill="#FF7D66"/>
<path d="M125.443 105.988C130.485 105.171 133.77 99.5574 132.78 93.4487C131.791 87.34 126.901 83.0496 121.859 83.866C116.818 84.6824 113.533 90.2964 114.522 96.4051C115.512 102.514 120.401 106.804 125.443 105.988Z" fill="#FF7C65"/>
<path d="M125.43 105.9C130.438 105.089 133.702 99.5202 132.721 93.4616C131.739 87.4029 126.884 83.1488 121.875 83.9598C116.867 84.7708 113.602 90.3397 114.584 96.3984C115.565 102.457 120.421 106.711 125.43 105.9Z" fill="#FF7B65"/>
<path d="M125.415 105.807C130.373 105.004 133.604 99.4826 132.63 93.474C131.657 87.4654 126.848 83.2453 121.89 84.0482C116.932 84.8511 113.701 90.3729 114.675 96.3815C115.648 102.39 120.457 106.61 125.415 105.807Z" fill="#FF7A64"/>
<path d="M125.399 105.718C130.324 104.92 133.534 99.4435 132.569 93.485C131.604 87.5264 126.829 83.3426 121.904 84.14C116.979 84.9375 113.769 90.4143 114.734 96.3729C115.699 102.331 120.474 106.515 125.399 105.718Z" fill="#FF7964"/>
<path d="M125.385 105.627C130.26 104.837 133.435 99.4078 132.478 93.4994C131.521 87.5909 126.793 83.4411 121.918 84.2304C117.044 85.0198 113.868 90.4494 114.825 96.3579C115.782 102.266 120.51 106.416 125.385 105.627Z" fill="#FF7863"/>
<path d="M125.369 105.535C130.211 104.751 133.366 99.3667 132.417 93.5084C131.468 87.65 126.774 83.5363 121.932 84.3203C117.091 85.1042 113.935 90.4889 114.884 96.3473C115.834 102.206 120.528 106.319 125.369 105.535Z" fill="#FF7762"/>
<path d="M125.356 105.445C130.164 104.667 133.298 99.3271 132.357 93.5188C131.417 87.7105 126.756 83.6331 121.948 84.4116C117.14 85.1902 114.005 90.5299 114.946 96.3382C115.887 102.146 120.547 106.224 125.356 105.445Z" fill="#FF7762"/>
<path d="M125.341 105.353C130.099 104.583 133.2 99.29 132.267 93.5317C131.334 87.7735 126.721 83.7301 121.963 84.5005C117.205 85.2709 114.104 90.5635 115.037 96.3217C115.97 102.08 120.583 106.123 125.341 105.353Z" fill="#FF7661"/>
<path d="M125.327 105.263C130.052 104.498 133.132 99.2504 132.207 93.5422C131.283 87.834 126.703 83.8268 121.978 84.5918C117.254 85.3569 114.173 90.6044 115.098 96.3126C116.023 102.021 120.603 106.028 125.327 105.263Z" fill="#FF7561"/>
<path d="M125.313 105.174C129.987 104.417 133.034 99.2166 132.117 93.5585C131.2 87.9004 126.668 83.9272 121.993 84.6842C117.319 85.4411 114.272 90.6415 115.189 96.2996C116.106 101.958 120.638 105.931 125.313 105.174Z" fill="#FF7460"/>
<path d="M125.299 105.082C129.94 104.331 132.966 99.1756 132.057 93.5675C131.149 87.9595 126.65 84.0225 122.009 84.774C117.368 85.5255 114.342 90.681 115.25 96.289C116.159 101.897 120.658 105.834 125.299 105.082Z" fill="#FF7360"/>
<path d="M125.282 104.992C129.873 104.248 132.865 99.1399 131.965 93.5819C131.064 88.024 126.613 84.121 122.022 84.8644C117.431 85.6078 114.439 90.7161 115.339 96.274C116.24 101.832 120.691 105.735 125.282 104.992Z" fill="#FF725F"/>
<path d="M125.267 104.902C129.824 104.164 132.796 99.1007 131.904 93.5929C131.011 88.085 126.593 84.2182 122.036 84.9562C117.478 85.6942 114.507 90.7575 115.399 96.2654C116.291 101.773 120.709 105.64 125.267 104.902Z" fill="#FF715F"/>
<path d="M125.254 104.811C129.762 104.081 132.699 99.0651 131.815 93.6073C130.931 88.1494 126.56 84.3167 122.052 85.0466C117.545 85.7765 114.607 90.7926 115.492 96.2504C116.376 101.708 120.747 105.541 125.254 104.811Z" fill="#FF705E"/>
<path d="M125.241 104.72C129.715 103.995 132.632 99.024 131.755 93.6163C130.879 88.2085 126.542 84.412 122.068 85.1365C117.594 85.8609 114.677 90.8321 115.553 96.2398C116.429 101.648 120.766 105.444 125.241 104.72Z" fill="#FF6F5E"/>
<path d="M125.224 104.629C129.648 103.912 132.531 98.9883 131.663 93.6306C130.795 88.273 126.505 84.5105 122.081 85.2268C117.657 85.9432 114.774 90.8672 115.642 96.2248C116.51 101.583 120.8 105.345 125.224 104.629Z" fill="#FF6E5D"/>
<path d="M125.21 104.539C129.601 103.828 132.463 98.9492 131.603 93.6416C130.744 88.334 126.487 84.6077 122.097 85.3186C117.706 86.0296 114.844 90.9086 115.703 96.2162C116.563 101.524 120.82 105.25 125.21 104.539Z" fill="#FF6D5C"/>
<path d="M125.196 104.448C129.536 103.745 132.365 98.9135 131.513 93.656C130.661 88.3985 126.452 84.7062 122.111 85.409C117.771 86.1119 114.942 90.9437 115.794 96.2012C116.646 101.459 120.855 105.151 125.196 104.448Z" fill="#FF6C5C"/>
<path d="M125.18 104.358C129.487 103.661 132.295 98.8739 131.452 93.6664C130.608 88.459 126.432 84.8029 122.125 85.5003C117.818 86.1978 115.01 90.9847 115.854 96.1921C116.697 101.4 120.873 105.056 125.18 104.358Z" fill="#FF6B5B"/>
<path d="M125.167 104.268C129.425 103.578 132.198 98.8387 131.363 93.6813C130.527 88.5239 126.399 84.9019 122.142 85.5912C117.885 86.2805 115.111 91.0202 115.946 96.1776C116.782 101.335 120.91 104.957 125.167 104.268Z" fill="#FF6A5B"/>
<path d="M125.152 104.176C129.376 103.492 132.129 98.7971 131.302 93.6898C130.474 88.5825 126.379 84.9967 122.156 85.6806C117.932 86.3645 115.179 91.0592 116.006 96.1666C116.833 101.274 120.928 104.86 125.152 104.176Z" fill="#FF695A"/>
<path d="M125.137 104.085C129.311 103.409 132.03 98.7619 131.211 93.7047C130.392 88.6475 126.344 85.0956 122.17 85.7714C117.997 86.4473 115.277 91.0948 116.097 96.152C116.916 101.209 120.964 104.761 125.137 104.085Z" fill="#FF685A"/>
<path d="M125.122 103.995C129.262 103.325 131.961 98.7223 131.15 93.7152C130.338 88.708 126.324 85.1924 122.184 85.8628C118.044 86.5332 115.345 91.1358 116.156 96.1429C116.967 101.15 120.981 104.666 125.122 103.995Z" fill="#FF6759"/>
<path d="M125.107 103.905C129.197 103.243 131.862 98.6871 131.059 93.73C130.256 88.7729 126.289 85.2913 122.199 85.9536C118.109 86.6159 115.444 91.1714 116.247 96.1284C117.05 101.086 121.017 104.567 125.107 103.905Z" fill="#FF6659"/>
<path d="M125.093 103.813C129.15 103.156 131.794 98.6456 131 93.7385C130.205 88.8315 126.271 85.3861 122.215 86.043C118.158 86.6999 115.514 91.2104 116.309 96.1174C117.104 101.024 121.037 104.47 125.093 103.813Z" fill="#FF6558"/>
<path d="M125.077 103.724C129.084 103.076 131.694 98.6123 130.907 93.7554C130.12 88.8984 126.234 85.487 122.227 86.1358C118.221 86.7846 115.611 91.2479 116.397 96.1048C117.184 100.962 121.07 104.373 125.077 103.724Z" fill="#FF6457"/>
<path d="M125.061 103.632C129.035 102.989 131.624 98.5707 130.846 93.7639C130.067 88.957 126.215 85.5818 122.241 86.2252C118.268 86.8686 115.678 91.2869 116.457 96.0938C117.236 100.901 121.088 104.276 125.061 103.632Z" fill="#FF6357"/>
<path d="M125.049 103.542C128.972 102.907 131.528 98.5356 130.757 93.7788C129.986 89.0219 126.181 85.6808 122.258 86.316C118.335 86.9513 115.779 91.3225 116.55 96.0793C117.32 100.836 121.125 104.177 125.049 103.542Z" fill="#FF6256"/>
<path d="M125.035 103.45C128.925 102.82 131.46 98.494 130.698 93.7873C129.935 89.0805 126.164 85.7756 122.274 86.4054C118.384 87.0353 115.849 91.3615 116.611 96.0682C117.374 100.775 121.145 104.08 125.035 103.45Z" fill="#FF6156"/>
<path d="M125.019 103.36C128.876 102.736 131.391 98.4544 130.636 93.7977C129.882 89.1411 126.144 85.8723 122.287 86.4968C118.431 87.1212 115.916 91.4024 116.671 96.0591C117.425 100.716 121.163 103.984 125.019 103.36Z" fill="#FF6055"/>
<path d="M125.005 103.268C128.811 102.651 131.292 98.4172 130.546 93.8107C129.799 89.2041 126.109 85.9693 122.302 86.5857C118.496 87.202 116.015 91.4361 116.761 96.0426C117.508 100.649 121.198 103.884 125.005 103.268Z" fill="#FF5F55"/>
<path d="M124.989 103.18C128.762 102.569 131.222 98.3796 130.484 93.823C129.746 89.2665 126.089 86.068 122.316 86.6789C118.543 87.2899 116.083 91.4789 116.821 96.0355C117.559 100.592 121.216 103.791 124.989 103.18Z" fill="#FF5E54"/>
<path d="M124.973 103.087C128.696 102.484 131.122 98.3424 130.392 93.836C129.662 89.3295 126.052 86.165 122.329 86.7679C118.606 87.3707 116.18 91.5126 116.91 96.019C117.64 100.525 121.25 103.69 124.973 103.087Z" fill="#FF5D54"/>
<path d="M124.959 102.997C128.648 102.4 131.054 98.3028 130.332 93.8464C129.61 89.3901 126.034 86.2618 122.345 86.8592C118.655 87.4566 116.249 91.5535 116.971 96.0099C117.693 100.466 121.269 103.595 124.959 102.997Z" fill="#FF5C53"/>
<path d="M124.944 102.907C128.584 102.317 130.955 98.2676 130.242 93.8613C129.528 89.455 125.999 86.3607 122.359 86.95C118.72 87.5394 116.348 91.5891 117.062 95.9954C117.776 100.402 121.305 103.496 124.944 102.907Z" fill="#FF5B53"/>
<path d="M124.931 102.817C128.537 102.233 130.888 98.228 130.182 93.8718C129.476 89.5156 125.981 86.4575 122.375 87.0414C118.769 87.6253 116.418 91.6301 117.124 95.9863C117.829 100.343 121.325 103.401 124.931 102.817Z" fill="#FF5A52"/>
<path d="M124.916 102.726C128.472 102.15 130.789 98.1928 130.092 93.8866C129.394 89.5805 125.946 86.5564 122.39 87.1322C118.834 87.708 116.517 91.6656 117.214 95.9718C117.912 100.278 121.36 103.302 124.916 102.726Z" fill="#FF5951"/>
<path d="M124.902 102.634C128.425 102.064 130.722 98.1512 130.032 93.8952C129.343 89.6391 125.928 86.6512 122.406 87.2216C118.883 87.792 116.586 91.7046 117.276 95.9607C117.965 100.217 121.38 103.205 124.902 102.634Z" fill="#FF5851"/>
<path d="M124.886 102.544C128.358 101.982 130.621 98.1161 129.94 93.91C129.258 89.704 125.891 86.7502 122.418 87.3125C118.946 87.8747 116.683 91.7402 117.365 95.9462C118.046 100.152 121.413 103.106 124.886 102.544Z" fill="#FF5750"/>
<path d="M124.87 102.452C128.309 101.895 130.552 98.0745 129.878 93.9185C129.205 89.7626 125.871 86.845 122.432 87.4018C118.993 87.9587 116.751 91.7792 117.424 95.9352C118.097 100.091 121.431 103.009 124.87 102.452Z" fill="#FF5650"/>
<path d="M124.856 102.361C128.245 101.812 130.453 98.0388 129.788 93.9329C129.122 89.8271 125.836 86.9434 122.447 87.4922C119.058 88.041 116.85 91.8143 117.515 95.9202C118.18 100.026 121.467 102.91 124.856 102.361Z" fill="#FF554F"/>
<path d="M124.84 102.273C128.196 101.73 130.383 98.0016 129.726 93.9458C129.069 89.89 125.816 87.0426 122.461 87.586C119.105 88.1293 116.917 91.8577 117.574 95.9135C118.232 99.9693 121.484 102.817 124.84 102.273Z" fill="#FF544F"/>
<path d="M124.827 102.18C128.133 101.645 130.287 97.964 129.638 93.9583C128.989 89.9525 125.783 87.1392 122.477 87.6744C119.172 88.2096 117.018 91.8908 117.667 95.8966C118.316 99.9023 121.522 102.716 124.827 102.18Z" fill="#FF534E"/>
<path d="M124.814 102.093C128.086 101.563 130.219 97.9268 129.578 93.9712C128.937 90.0155 125.765 87.2383 122.493 87.7682C119.221 88.298 117.088 91.9342 117.729 95.8899C118.37 99.8456 121.542 102.623 124.814 102.093Z" fill="#FF524E"/>
<path d="M124.797 102.002C128.019 101.48 130.118 97.8911 129.486 93.9856C128.853 90.08 125.728 87.3368 122.506 87.8585C119.284 88.3803 117.185 91.9693 117.818 95.8749C118.45 99.7805 121.575 102.524 124.797 102.002Z" fill="#FF514D"/>
</g>
<path opacity="0.1" d="M172.118 41.1161C171.138 39.769 170.066 38.9424 168.903 38.5444C167.862 38.7281 167.402 38.3608 166.269 38.6363C162.962 39.4017 159.471 39.8915 156.072 39.4323C152.122 38.9118 148.662 37.1362 145.171 35.3605C143.394 34.4727 141.649 33.5542 139.812 32.7583C135.923 31.0745 131.299 29.4212 127.012 29.5743C124.868 29.6356 122.786 30.2785 120.826 31.1051C119.019 31.8398 117.519 32.9419 116.416 34.0441C116.171 34.289 115.681 34.6258 115.191 34.9931C115.222 36.5851 115.406 37.9934 115.712 39.2792C115.926 39.1567 116.11 39.0343 116.171 39.0037C116.876 38.4832 117.764 37.9628 118.805 37.5035C119.846 37.0749 121.01 36.7076 122.326 36.6157C127.44 36.2177 132.187 38.2995 136.811 40.1976C138.709 40.9936 140.638 41.8814 142.66 42.7387C144.681 43.5959 146.794 44.4225 149.029 45.096C152.765 46.2287 157.297 46.5961 161.125 45.5246C161.645 45.3715 162.135 45.2491 162.625 45.1266C164.585 44.5143 166.3 43.7183 167.77 42.953C169.24 42.1876 170.526 41.5141 171.628 40.963C172.026 40.7793 171.781 41.2385 172.118 41.0855V41.1161Z" fill="#FFBC80"/>
<path d="M146.947 67.813C146.947 67.813 140.975 80.1201 147.528 87.5595L163.36 86.2431C163.36 86.2431 163.85 81.2835 163.33 77.8852C162.809 74.487 146.947 67.8436 146.947 67.8436V67.813Z" fill="url(#paint17_linear_3485_73802)"/>
<path d="M117.58 78.6172C116.661 81.6787 116.141 86.822 116.141 86.822L130.87 88.5976C137.607 80.9745 134.33 68.4531 134.33 68.4531C134.33 68.4531 118.499 75.5557 117.58 78.6172Z" fill="url(#paint18_linear_3485_73802)"/>
<path d="M156.438 81.4347C149.793 81.0061 147.527 87.5576 147.527 87.5576C147.527 87.5576 149.365 89.119 155.918 88.7822C163.696 88.3842 163.359 86.2412 163.359 86.2412C163.359 86.2412 163.083 81.8633 156.438 81.4347Z" fill="white"/>
<path d="M116.138 86.8242C116.138 86.8242 115.495 88.6917 122.508 89.2734C130.072 89.8857 130.868 88.5999 130.868 88.5999C130.868 88.5999 123.365 75.3743 116.138 86.8242Z" fill="white"/>
<path d="M126.092 83.7627C124.5 83.2729 122.601 84.9261 121.805 87.4671C121.621 88.0488 121.529 88.6304 121.529 89.1815C121.836 89.2121 122.142 89.2427 122.479 89.2734C124.683 89.457 126.306 89.4571 127.501 89.3958C127.501 89.3346 127.562 89.2734 127.562 89.2121C128.327 86.6711 127.654 84.2525 126.061 83.7627H126.092Z" fill="url(#paint19_linear_3485_73802)"/>
<path d="M155.918 88.7517C156.776 88.721 157.511 88.6292 158.184 88.568C158.858 85.8433 158.184 83.241 156.623 82.6899C155.03 82.1389 153.132 83.9758 152.366 86.7923C152.213 87.3434 152.121 88.0475 152.121 88.721C153.162 88.8129 154.418 88.8129 155.918 88.721V88.7517Z" fill="url(#paint20_linear_3485_73802)"/>
<path d="M123.429 81.0069C117.978 80.9151 116.141 86.8237 116.141 86.8237C116.141 86.8237 118.835 83.7316 123.061 83.6398C128.512 83.548 130.87 88.5994 130.87 88.5994C130.87 88.5994 130.809 81.16 123.429 81.0375V81.0069Z" fill="#603F37"/>
<path d="M117.396 79.2314C123.797 73.9962 131.085 76.5985 133.779 73.3533C135.096 71.7614 134.3 68.3325 134.3 68.3325C117.366 70.5674 117.396 79.262 117.396 79.262V79.2314Z" fill="url(#paint21_linear_3485_73802)"/>
<path d="M146.948 67.813C146.948 67.813 145.386 71.4255 146.243 72.6195C148.969 76.3545 159.044 74.4258 163.453 79.171C163.453 79.171 164.494 71.4255 146.948 67.813Z" fill="url(#paint22_linear_3485_73802)"/>
<path d="M155.367 80.395C147.895 80.4562 147.527 87.4058 147.527 87.4058C147.527 87.4058 149.334 83.181 155.826 83.3034C162.318 83.4259 163.39 86.2424 163.39 86.2424C163.39 86.2424 162.777 80.3644 155.397 80.4256L155.367 80.395Z" fill="#603F37"/>
<path d="M126.554 87.313C126.554 88.1703 125.85 88.905 125.054 88.9969C124.257 89.0887 123.584 88.4152 123.614 87.558C123.614 86.7007 124.319 85.966 125.115 85.8742C125.942 85.8129 126.585 86.4558 126.554 87.313Z" fill="#1E1D1D"/>
<path d="M156.96 86.6998C156.96 87.557 156.256 88.2917 155.46 88.3836C154.633 88.4448 153.99 87.8019 154.021 86.9447C154.021 86.0875 154.725 85.3527 155.521 85.2609C156.348 85.1996 156.991 85.8426 156.96 86.6998Z" fill="#1E1D1D"/>
<path opacity="0.8" d="M123.428 86.3651C122.663 86.7937 122.111 87.5896 122.234 88.1713C122.356 88.753 123.091 88.8448 123.857 88.4162C124.622 87.9876 125.174 87.1916 125.051 86.61C124.929 86.0283 124.194 85.9364 123.428 86.3651Z" fill="white"/>
<path opacity="0.8" d="M153.746 85.9362C152.98 86.3648 152.521 87.1608 152.674 87.6507C152.827 88.1711 153.562 88.2323 154.327 87.8037C155.093 87.3751 155.583 86.5791 155.399 86.0893C155.246 85.5689 154.511 85.5076 153.746 85.9362Z" fill="white"/>
<path opacity="0.1" d="M164.372 46.7486C165.046 45.9833 164.004 44.8199 163.3 45.5853C160.544 48.5243 157.329 50.3612 153.838 51.647C153.991 51.5858 154.083 51.5552 154.083 51.5552C154.94 51.5552 155.859 51.8613 156.778 52.5042C159.595 51.0959 162.198 49.1978 164.372 46.7486Z" fill="black"/>
<path d="M128.085 107.766C128.085 107.766 127.166 121.604 142.385 119.828C157.605 118.083 155.155 105.164 155.155 105.164L128.085 107.735V107.766Z" fill="#FB755C"/>
<path d="M129.247 107.642C129.247 107.642 128.267 118.878 142.231 117.317C156.195 115.755 154.051 105.438 154.051 105.438L129.247 107.612V107.642Z" fill="url(#paint23_linear_3485_73802)"/>
<path d="M129.89 107.489C129.89 107.489 129.737 109.694 131.054 110.704C132.83 112.051 150.346 110.826 151.632 109.143C152.642 107.857 152.428 104.765 152.428 104.765L129.859 107.52L129.89 107.489Z" fill="#F7F0F0"/>
<path opacity="0.4" d="M152.428 104.765L129.859 107.52C129.859 107.52 129.706 109.724 131.023 110.735C131.145 110.826 131.359 110.918 131.635 110.979C131.849 108.438 135.157 108.224 137.453 108.224C139.505 108.224 141.465 108.04 143.486 107.795C145.109 107.581 146.946 107 148.569 107.153C149.641 107.244 150.59 108.163 150.253 109.326C150.192 109.541 150.1 109.724 149.978 109.877C150.805 109.663 151.386 109.418 151.601 109.143C152.611 107.857 152.397 104.765 152.397 104.765H152.428Z" fill="#AD9E99"/>
<path d="M135.678 90.8332C135.678 90.8332 129.86 89.8841 128.574 94.9356C126.92 101.395 139.782 104.916 143.15 98.1501C146.518 91.3843 137.087 79.0771 137.087 79.0771C137.087 79.0771 139.414 85.5062 135.678 90.8332Z" fill="#FF9E78"/>
<path d="M128.482 96.7432C129.34 101.978 140.119 104.274 143.15 98.1514C143.334 97.7841 143.487 97.3861 143.579 96.9881C138.557 98.1821 133.321 97.9678 128.482 96.7432Z" fill="url(#paint24_linear_3485_73802)"/>
<path opacity="0.2" d="M139.261 85.7821H137.821C137.821 85.7821 137.148 90.4049 135.77 91.0784C135.555 91.0784 135.31 91.0784 135.096 91.0478C132.585 91.0172 130.533 91.8744 130.533 92.9459C130.533 94.0481 132.554 94.8747 135.035 94.9053C137.393 94.9359 139.444 94.4767 139.689 93.1908C139.689 93.1908 140.7 88.3231 139.261 85.7515V85.7821Z" fill="white"/>
<path d="M174.23 43.2527C173.403 45.1508 163.297 42.5486 151.692 37.4359C140.086 32.3232 131.022 27.0269 132.032 25.19C133.563 22.4347 143.117 25.4349 154.723 30.5476C166.329 35.6602 175.056 41.3546 174.23 43.2527Z" fill="#0C4266"/>
<path d="M174.291 43.4981C173.465 45.3962 163.359 42.794 151.753 37.6813C140.148 32.5687 131.175 27.0886 132.002 25.1905C132.829 23.2924 132.89 24.1802 133.625 24.3945C134.36 24.6088 142.506 30.2726 151.968 34.4362C162.134 38.9059 172.883 40.1917 174.138 42.6409C175.394 45.0901 174.353 43.2838 174.261 43.5287L174.291 43.4981Z" fill="#092E4C"/>
<defs>
<linearGradient id="paint0_linear_3485_73802" x1="143.862" y1="127.888" x2="144.357" y2="137.029" gradientUnits="userSpaceOnUse">
<stop stop-color="#DB7D67"/>
<stop offset="1" stop-color="#FF9E78"/>
</linearGradient>
<linearGradient id="paint1_linear_3485_73802" x1="154.22" y1="137.325" x2="156.721" y2="183.516" gradientUnits="userSpaceOnUse">
<stop stop-color="#DEEFFF"/>
<stop offset="1" stop-color="#CADBEF"/>
</linearGradient>
<linearGradient id="paint2_linear_3485_73802" x1="145.009" y1="142.852" x2="145.45" y2="150.983" gradientUnits="userSpaceOnUse">
<stop stop-color="#B3CBE2"/>
<stop offset="1" stop-color="#CADBEF"/>
</linearGradient>
<linearGradient id="paint3_linear_3485_73802" x1="147.02" y1="221.263" x2="150.198" y2="279.957" gradientUnits="userSpaceOnUse">
<stop stop-color="#B3CBE2"/>
<stop offset="1" stop-color="#CADBEF"/>
</linearGradient>
<linearGradient id="paint4_linear_3485_73802" x1="156.35" y1="226.455" x2="156.136" y2="270.449" gradientUnits="userSpaceOnUse">
<stop stop-color="#B3CBE2"/>
<stop offset="1" stop-color="#CADBEF"/>
</linearGradient>
<linearGradient id="paint5_linear_3485_73802" x1="204.795" y1="180.839" x2="237.282" y2="199.031" gradientUnits="userSpaceOnUse">
<stop stop-color="#DEEFFF"/>
<stop offset="1" stop-color="#CADBEF"/>
</linearGradient>
<linearGradient id="paint6_linear_3485_73802" x1="81.3247" y1="214.7" x2="81.2022" y2="221.466" gradientUnits="userSpaceOnUse">
<stop stop-color="#DEEFFF"/>
<stop offset="1" stop-color="#CADBEF"/>
</linearGradient>
<linearGradient id="paint7_linear_3485_73802" x1="148.512" y1="289.185" x2="294.562" y2="77.9708" gradientUnits="userSpaceOnUse">
<stop stop-color="white"/>
<stop offset="1" stop-color="#A5B7C6"/>
</linearGradient>
<linearGradient id="paint8_linear_3485_73802" x1="173.958" y1="215.648" x2="245.399" y2="215.648" gradientUnits="userSpaceOnUse">
<stop stop-color="#F28C70"/>
<stop offset="1" stop-color="#FF9E78"/>
</linearGradient>
<linearGradient id="paint9_linear_3485_73802" x1="138.957" y1="241.579" x2="143.581" y2="241.579" gradientUnits="userSpaceOnUse">
<stop stop-color="#F28C70"/>
<stop offset="1" stop-color="#FF9E78"/>
</linearGradient>
<linearGradient id="paint10_linear_3485_73802" x1="133.445" y1="266.959" x2="173.805" y2="266.959" gradientUnits="userSpaceOnUse">
<stop stop-color="#F28C70"/>
<stop offset="1" stop-color="#FF9E78"/>
</linearGradient>
<linearGradient id="paint11_linear_3485_73802" x1="174.081" y1="199.546" x2="192.295" y2="231.419" gradientUnits="userSpaceOnUse">
<stop stop-color="#FFB9A4"/>
<stop offset="1" stop-color="#FF9E78"/>
</linearGradient>
<linearGradient id="paint12_linear_3485_73802" x1="103.125" y1="95.401" x2="117.025" y2="95.1098" gradientUnits="userSpaceOnUse">
<stop stop-color="#F28C70"/>
<stop offset="1" stop-color="#FF9E78"/>
</linearGradient>
<linearGradient id="paint13_linear_3485_73802" x1="139.51" y1="51.5683" x2="139.718" y2="62.404" gradientUnits="userSpaceOnUse">
<stop stop-color="#C6664F"/>
<stop offset="1" stop-color="#FF9E78"/>
</linearGradient>
<linearGradient id="paint14_linear_3485_73802" x1="168.925" y1="104.834" x2="183.039" y2="104.563" gradientUnits="userSpaceOnUse">
<stop stop-color="#F28C70"/>
<stop offset="1" stop-color="#FF9E78"/>
</linearGradient>
<linearGradient id="paint15_linear_3485_73802" x1="173.157" y1="92.4415" x2="180.199" y2="92.3063" gradientUnits="userSpaceOnUse">
<stop stop-color="#F28C70"/>
<stop offset="1" stop-color="#FF9E78"/>
</linearGradient>
<linearGradient id="paint16_linear_3485_73802" x1="145.91" y1="28.0039" x2="145.305" y2="54.8162" gradientUnits="userSpaceOnUse">
<stop stop-color="#75483B"/>
<stop offset="0.4" stop-color="#704438"/>
<stop offset="0.7" stop-color="#623C2F"/>
<stop offset="1" stop-color="#563428"/>
</linearGradient>
<linearGradient id="paint17_linear_3485_73802" x1="153.781" y1="56.3163" x2="153.857" y2="84.1794" gradientUnits="userSpaceOnUse">
<stop stop-color="#C6664F"/>
<stop offset="1" stop-color="#FF9E78"/>
</linearGradient>
<linearGradient id="paint18_linear_3485_73802" x1="125.395" y1="56.6135" x2="125.467" y2="84.2929" gradientUnits="userSpaceOnUse">
<stop stop-color="#C6664F"/>
<stop offset="1" stop-color="#FF9E78"/>
</linearGradient>
<linearGradient id="paint19_linear_3485_73802" x1="123.956" y1="90.2197" x2="126.749" y2="82.5458" gradientUnits="userSpaceOnUse">
<stop stop-color="#704A3E"/>
<stop offset="1"/>
</linearGradient>
<linearGradient id="paint20_linear_3485_73802" x1="154.995" y1="88.2567" x2="156.645" y2="83.5607" gradientUnits="userSpaceOnUse">
<stop stop-color="#704A3E"/>
<stop offset="1"/>
</linearGradient>
<linearGradient id="paint21_linear_3485_73802" x1="126.156" y1="68.876" x2="125.737" y2="78.0244" gradientUnits="userSpaceOnUse">
<stop stop-color="#75483B"/>
<stop offset="0.4" stop-color="#704438"/>
<stop offset="0.7" stop-color="#623C2F"/>
<stop offset="1" stop-color="#563428"/>
</linearGradient>
<linearGradient id="paint22_linear_3485_73802" x1="154.864" y1="70.1851" x2="154.444" y2="79.3947" gradientUnits="userSpaceOnUse">
<stop stop-color="#75483B"/>
<stop offset="0.4" stop-color="#704438"/>
<stop offset="0.7" stop-color="#623C2F"/>
<stop offset="1" stop-color="#563428"/>
</linearGradient>
<linearGradient id="paint23_linear_3485_73802" x1="142.407" y1="116.766" x2="142.063" y2="112.832" gradientUnits="userSpaceOnUse">
<stop stop-color="#7C302A"/>
<stop offset="0.2" stop-color="#772E28"/>
<stop offset="0.4" stop-color="#692A26"/>
<stop offset="0.7" stop-color="#522421"/>
<stop offset="1" stop-color="#2D1A19"/>
</linearGradient>
<linearGradient id="paint24_linear_3485_73802" x1="135.924" y1="100.874" x2="135.832" y2="96.0686" gradientUnits="userSpaceOnUse">
<stop stop-color="#F28C70"/>
<stop offset="1" stop-color="#FF9E78"/>
</linearGradient>
</defs>
</svg>
