<svg width="222" height="222" viewBox="0 0 222 222" fill="none" xmlns="http://www.w3.org/2000/svg">
<path d="M118.768 47.2708C70.7558 34.406 23.2305 56.0872 12.6171 95.6971C2.00367 135.307 32.3212 177.846 80.3331 190.711C128.345 203.576 175.87 181.894 186.484 142.285C197.097 102.675 166.78 60.1356 118.768 47.2708Z" fill="#D3E4EF"/>
<path d="M72.1387 94.964L56.8653 79.6905C52.6476 75.4728 45.8094 75.4728 41.5918 79.6905L30.1367 91.1456C25.9191 95.3633 25.9191 102.201 30.1367 106.419L45.4102 121.693L72.1387 94.964Z" fill="#3D94D2"/>
<path d="M148.504 34.6368C152.722 30.4191 159.56 30.4191 163.777 34.6368L175.232 46.0919C179.45 50.3095 179.45 57.1477 175.232 61.3653L86.1374 150.461C82.6227 153.976 76.9242 153.976 73.4095 150.461L53.0449 130.096L148.504 34.6368Z" fill="#94C5E7"/>
</svg>
