
<svg width="126" height="127" viewBox="0 0 126 127" fill="none" xmlns="http://www.w3.org/2000/svg">
<path d="M125.397 68.1998L117.959 56.4085L122.365 43.174C122.967 41.3761 122.218 39.3904 120.577 38.4492L108.548 31.4665L106.346 17.689C106.034 15.8072 104.455 14.4068 102.585 14.323L88.707 13.7793L80.3967 2.61489C79.2539 1.08909 77.2177 0.58763 75.5142 1.40282L62.9867 7.38192L50.4585 1.3814C48.755 0.566838 46.7189 1.0683 45.5761 2.5941L37.2658 13.7585L23.4083 14.3022C21.5177 14.386 19.9389 15.7864 19.6478 17.6682L17.4454 31.4457L5.41619 38.4284C3.77504 39.3696 3.02723 41.3553 3.62951 43.1532L8.03446 56.3871L0.616856 68.179C-0.401219 69.7886 -0.130949 71.8795 1.21977 73.2176L11.2336 82.8764L10.1116 96.7793C9.96603 98.6818 11.1504 100.417 12.9579 100.96L26.2754 104.829L31.6978 117.686C32.4456 119.442 34.2947 120.446 36.1437 120.049L49.7315 117.247L60.4516 126.09C61.1786 126.675 62.0719 126.989 62.9653 126.989C63.8586 126.989 64.7519 126.675 65.4796 126.09L76.1996 117.247L89.7874 120.049C91.6365 120.446 93.5063 119.442 94.2333 117.686L99.6564 104.829L112.973 100.96C114.781 100.438 115.986 98.6818 115.82 96.7793L114.698 82.8764L124.711 73.2176C126.146 71.9003 126.395 69.81 125.397 68.1998ZM91.7197 48.9446L63.88 90.9041C62.8204 92.4722 61.2 93.5173 59.579 93.5173C57.9587 93.5173 56.1512 92.5975 55.0084 91.4478L34.5857 70.5622C33.1941 69.1404 33.1941 66.8202 34.5857 65.3983L39.6345 60.2344C41.0262 58.8333 43.291 58.8333 44.6827 60.2344L57.9795 73.8236L79.8977 40.7492C80.999 39.0766 83.243 38.6583 84.8634 39.7873L90.7847 43.8853C92.4051 45.0142 92.8209 47.2928 91.7197 48.9446Z" fill="#00DDB3"/>
</svg>
