<svg width="240" height="408" viewBox="0 0 240 408" fill="none" xmlns="http://www.w3.org/2000/svg">
<path d="M197.09 391.909C197.09 391.909 160.986 398.896 116.415 398.896C71.844 398.896 35.7397 391.909 35.7397 391.909C35.7397 391.909 71.844 384.922 116.415 384.922C160.986 384.922 197.09 391.909 197.09 391.909Z" fill="url(#paint0_linear_2398_80443)"/>
<path d="M79.2682 375.538C78.9885 375.665 58.699 386.783 58.4701 390.277C58.4701 390.43 57.8854 390.532 57.8091 390.634V392.011C68.6404 395.683 90.5317 391.348 90.5317 391.348C90.5317 391.348 90.5826 392.215 90.8114 392.24C95.1592 392.674 102.507 391.679 103.016 391.271C103.117 391.195 103.27 389.996 103.219 388.951C103.219 388.849 102.939 388.619 102.939 388.619C103.168 384.488 103.168 376.532 103.194 376.354C103.906 372.784 80.9209 369.367 79.2682 375.538Z" fill="#2C2C2D"/>
<path d="M152.57 375.538C152.85 375.665 173.139 386.783 173.368 390.277C173.368 390.43 173.953 390.532 174.029 390.634V392.011C163.198 395.683 141.307 391.348 141.307 391.348C141.307 391.348 141.256 392.215 141.027 392.24C136.679 392.674 129.331 391.679 128.823 391.271C128.721 391.195 128.568 389.996 128.619 388.951C128.619 388.849 128.899 388.619 128.899 388.619C128.67 384.488 128.67 376.532 128.645 376.354C127.933 372.784 150.917 369.367 152.57 375.538Z" fill="#2C2C2D"/>
<path d="M104.795 381.53C112.042 301.129 127.5 237.098 128.111 219.172L91.5996 215.117C89.0824 243.295 79.0902 315.97 74.8187 378.062C74.8187 378.062 78.2766 376.073 85.2178 376.456C91.8284 376.813 99.3798 380.918 103.117 382.066C103.117 382.066 104.617 381.607 104.795 381.556V381.53Z" fill="#333844"/>
<path d="M127.297 381.505C124.831 300.593 129.56 237.098 128.975 219.172L165.486 215.117C168.003 243.295 157.198 318.086 157.07 378.062C157.07 378.062 153.511 376.124 146.697 376.43C138.001 376.813 132.484 380.893 128.746 382.04L127.323 381.505H127.297Z" fill="#333844"/>
<path d="M91.9302 207.162C90.8624 227.587 90.5573 237.175 90.5573 237.175C90.5573 237.175 111.788 238.935 134.798 238.731C149.748 238.603 162.511 239.725 163.503 233.631C164.393 228.123 165.181 221.722 165.715 207.748L164.062 206.014C160.325 206.397 147.994 208.003 128.034 207.748C106.092 207.468 96.3543 206.04 93.5829 205.81C93.1761 205.785 91.9557 206.728 91.9302 207.162Z" fill="#333844"/>
<path d="M121.729 236.971L121.475 238.603C127.551 238.807 135.408 238.654 135.408 238.654V236.996C135.382 236.996 121.729 236.996 121.729 236.996V236.971Z" fill="#292D35"/>
<path d="M90.0487 231.922C91.7776 230.8 95.8203 228.275 97.9052 226.363C97.6764 226.031 97.4475 225.7 97.1933 225.368C95.9983 226.261 91.5234 229.04 90.2267 229.933L90.0487 231.896V231.922Z" fill="#292D35"/>
<path d="M128.009 212.185C108.864 212.185 96.9899 211.318 91.7776 210.833C91.142 210.833 90.7352 217.744 91.4725 218.075C97.0407 218.585 108.914 219.401 128.034 219.401C147.154 219.401 158.825 218.432 165.69 217.922C166.3 217.973 166.071 210.808 165.41 210.808C159.003 211.292 145.324 212.159 128.009 212.159V212.185Z" fill="#1C1D1E"/>
<path d="M111.076 221.9L106.728 221.671L107.567 209.584L111.915 209.813L111.076 221.9Z" fill="#333844"/>
<path d="M147.256 221.9L142.883 221.671L143.722 209.584L148.07 209.813L147.256 221.9Z" fill="#333844"/>
<path d="M165.791 229.5L158.876 225.241C158.596 225.879 158.698 225.675 158.443 226.338C160.401 228.021 163.681 230.137 165.74 231.412C165.74 230.8 165.791 230.112 165.791 229.5Z" fill="#292D35"/>
<path d="M162.944 239.699C162.944 239.699 159.359 297.431 158.037 298.681C156.714 299.93 149.85 305.056 148.146 304.877C145.4 304.597 132.687 298.706 132.102 296.819C131.543 294.907 132.713 242.326 132.636 240.872C132.586 239.827 162.918 239.725 162.918 239.725L162.944 239.699Z" fill="url(#paint1_linear_2398_80443)"/>
<path d="M126.661 350.65C126.611 350.65 126.458 362.839 126.356 364.292C126.28 365.185 125.771 365.975 125.365 366.791C124.958 367.607 124.653 368.551 124.983 369.392C125.263 370.081 125.975 370.565 126.229 371.279C126.56 372.223 126.026 373.115 125.975 374.033C125.899 375.053 126.204 376.175 126.255 377.246C126.28 377.756 126.127 381.071 126.661 381.377C127.17 381.658 128.721 382.091 128.721 382.091C133.069 381.173 140.493 378.037 145.985 376.736C152.239 375.257 157.045 378.113 157.045 378.113C157.045 377.195 158.418 374.977 158.52 374.594C159.079 372.401 156.714 372.197 157.299 371.05C159.231 367.327 156.816 366.383 157.197 364.675C157.401 363.808 158.443 362.966 158.443 362.074C158.443 361.334 157.96 360.008 157.782 359.294C157.299 357.458 157.808 348.559 157.808 348.559C155.926 348.686 126.661 350.701 126.661 350.701V350.65Z" fill="#333844"/>
<path d="M108.152 349.528C108.152 349.528 106.448 366.23 106.855 367.046C107.262 367.862 107.567 368.806 107.236 369.647C106.957 370.336 106.245 370.82 105.991 371.534C105.66 372.478 106.194 373.37 106.245 374.288C106.321 375.308 106.016 376.43 105.965 377.501C105.94 378.011 105.558 381.632 105.558 381.632L103.117 382.295C95.2609 382.295 91.981 378.139 86.9214 376.864C80.6921 375.257 74.8188 378.113 74.8188 378.113C74.9205 376.532 74.8442 371.84 74.6917 371.458C74.4374 370.871 74.0815 370.31 74.0052 369.698C73.8272 367.964 76.0138 366.536 75.6324 364.828C75.429 363.961 74.59 363.272 74.59 362.38C74.59 361.64 75.1239 361.028 75.5053 360.391C76.1918 359.141 77.3105 347.131 77.3105 347.131C79.0903 347.59 108.177 349.579 108.177 349.579L108.152 349.528Z" fill="#333844"/>
<path d="M90.2266 389.614C84.4296 390.328 77.8444 391.144 72.3271 391.221C63.9621 391.374 59.8686 390.558 58.4701 390.201C58.4701 390.226 58.4701 390.252 58.4701 390.277C58.4701 390.43 57.8854 390.532 57.8091 390.634V390.685C58.521 390.915 61.9789 391.884 70.3947 391.884C78.8106 391.884 71.6914 391.884 72.3779 391.884C77.9207 391.782 84.5059 390.966 90.3283 390.252C95.9474 389.563 100.829 388.951 103.245 389.181C103.245 389.104 103.245 389.028 103.245 388.951C103.245 388.849 102.965 388.62 102.965 388.62C102.965 388.594 102.965 388.543 102.965 388.518C100.397 388.365 95.6677 388.951 90.2775 389.614H90.2266Z" fill="#3D3D3D"/>
<path d="M141.586 389.614C147.383 390.328 153.968 391.144 159.46 391.221C167.825 391.374 171.919 390.558 173.343 390.201C173.343 390.226 173.343 390.252 173.343 390.277C173.343 390.43 173.927 390.532 174.004 390.634C173.292 390.915 169.809 391.884 161.418 391.884C153.028 391.884 160.121 391.884 159.435 391.884C153.892 391.782 147.307 390.966 141.485 390.252C135.865 389.563 130.984 388.951 128.594 389.181C128.594 389.104 128.594 389.028 128.594 388.951C128.594 388.849 128.873 388.62 128.873 388.62C128.873 388.594 128.873 388.543 128.873 388.518C131.441 388.365 136.145 388.951 141.561 389.614H141.586Z" fill="#3D3D3D"/>
<path d="M83.2601 386.528C76.0647 382.244 69.5812 382.677 64.9537 384.207C62.6654 385.763 60.6822 387.293 59.5381 388.542C61.1399 388.925 64.013 389.333 69.1235 389.46C79.2683 389.715 85.0145 387.599 83.2601 386.553V386.528Z" fill="url(#paint2_linear_2398_80443)"/>
<path d="M172.326 388.569C171.156 387.319 169.097 385.738 166.758 384.132C162.155 382.678 155.774 382.347 148.705 386.554C146.951 387.6 152.723 389.716 162.842 389.461C167.825 389.334 170.698 388.926 172.3 388.569H172.326Z" fill="url(#paint3_linear_2398_80443)"/>
<path d="M92.2607 238.73C92.2607 238.73 84.1245 292.535 85.3195 293.759C86.5145 294.983 94.0151 301.741 95.8457 301.664C98.7696 301.511 111.915 294.881 112.805 293.096C113.694 291.311 122.39 240.592 121.322 240.566C120.229 240.566 92.2607 238.73 92.2607 238.73Z" fill="url(#paint4_linear_2398_80443)"/>
<path d="M135.23 212.134C135.23 212.134 122.009 212.007 122.009 212.262C122.009 212.262 121.882 219.147 122.009 219.249C122.136 219.376 135.306 219.351 135.306 219.351C135.306 219.351 135.306 220.473 135.077 220.626C134.264 221.11 120.636 220.983 120.254 220.626C119.873 220.269 120.127 211.318 120.407 210.808C120.687 210.324 134.645 210.477 134.925 210.681C135.179 210.885 135.204 212.134 135.204 212.134H135.23Z" fill="url(#paint5_linear_2398_80443)"/>
<path d="M120.788 214.659C120.788 214.659 120.61 216.24 120.737 216.342C120.839 216.444 124.043 216.342 124.119 216.291C124.195 216.24 124.246 214.939 124.144 214.71C124.093 214.557 120.915 214.531 120.788 214.659Z" fill="url(#paint6_linear_2398_80443)"/>
<path d="M145.578 104.881C143.544 104.447 141.357 104.09 138.967 103.835L139.247 89.2237C139.374 84.7611 134.569 81.1911 128.467 81.2931C122.619 81.3951 117.61 85.1181 117.483 89.5806L117.152 104.167C114.483 104.575 112.093 105.11 109.83 105.748L110.033 119.161H145.781L145.603 104.906L145.578 104.881Z" fill="url(#paint7_linear_2398_80443)"/>
<path d="M179.369 157.386C179.318 156.799 175.784 154.045 175.784 153.433C175.682 137.241 176.343 119.773 172.097 114.954C166.63 108.783 151.375 105.901 145.298 104.779L145.248 104.55C143.569 99.4752 139.095 99.7047 139.095 99.7047C137.976 107.916 128.263 110.338 128.263 110.338C119.39 107.125 117.279 101.439 117.279 101.439C113.771 101.464 111.686 104.142 110.974 105.213C100.651 105.799 91.3962 110.058 87.7095 114.163C80.1582 122.578 83.6669 163.735 85.1924 174.777C85.3704 175.669 87.9384 177.633 91.1674 179.52C90.4301 188.7 89.947 196.834 90.3792 201.169C90.5572 202.878 92.8709 204.918 93.1506 205.479C93.3286 205.836 93.8117 206.193 94.5236 206.499H163.63C163.783 206.346 163.884 206.218 163.884 206.065C163.884 205.3 166.707 203.158 166.808 201.654C167.495 192.321 167.724 200.736 167.266 181.687C172.936 180.616 176.216 177.225 177.843 175.287C179.089 173.833 180.03 164.5 179.318 157.411L179.369 157.386Z" fill="url(#paint8_linear_2398_80443)"/>
<path d="M179.597 161.134L178.046 168.35L171.563 170.441L153.562 158.89L157.503 126.811H155.621L150.994 159.4L154.274 161.899C154.274 161.899 117.356 165.596 116.974 165.571C116.593 165.52 106.448 151.265 106.448 151.265C106.448 151.265 103.677 126.811 103.295 126.811C102.914 126.811 101.719 127.525 101.719 127.525L103.295 148.154L100.905 153.815L114.686 171.13C114.686 171.13 105.635 178.448 105.024 178.754C104.414 179.06 91.4471 176.485 89.4894 174.827C88.0909 173.654 85.6501 169.447 84.3534 167.101C84.6585 170.263 84.9636 172.889 85.2179 174.7C85.3958 175.592 87.9638 177.556 91.1929 179.443C90.4555 188.623 89.9724 196.757 90.4047 201.092C90.5827 202.801 93.4812 205.937 93.7608 206.498C93.7608 206.498 111.635 208.589 128.568 208.64C146.265 208.691 163.605 206.906 163.605 206.906C163.605 206.141 166.732 203.056 166.859 201.577C167.546 192.244 167.775 200.659 167.317 181.61C172.987 180.539 176.267 177.148 177.894 175.21C178.911 173.986 179.75 167.356 179.597 161.108V161.134ZM157.757 197.828C157.757 198.109 131.441 201.781 129.204 202.036C126.967 202.291 95.8203 196.834 95.6423 196.298C95.4644 195.763 96.6339 185.257 96.6339 185.257C105.685 185.716 127.984 181.049 127.984 181.049L158.494 185.537C158.494 185.537 157.808 197.573 157.808 197.828H157.757Z" fill="url(#paint9_linear_2398_80443)"/>
<path d="M145.349 104.805C144.154 107.38 140.62 114.801 139.044 115.693C137.544 116.535 131.747 111.945 129.382 109.981C128.67 110.236 128.238 110.338 128.238 110.338C127.882 110.211 127.526 110.058 127.17 109.93C124.729 111.537 119.288 114.928 117.203 114.801C114.864 114.648 111.966 107.38 110.974 105.213C110.567 105.238 109.906 105.289 109.499 105.315C110.516 107.839 113.847 116.407 115.652 117.58C117.788 118.983 128.136 111.307 128.136 111.307C128.136 111.307 136.806 119.034 139.349 118.702C141.535 118.422 145.426 107.992 146.493 105.009C146.087 104.932 145.705 104.856 145.349 104.779V104.805Z" fill="url(#paint10_linear_2398_80443)"/>
<path d="M129.382 207.238L128.848 110.491H127.5C127.5 110.491 128.289 190.051 127.78 207.238H129.357H129.382Z" fill="url(#paint11_linear_2398_80443)"/>
<path d="M86.2349 168.912C86.3112 169.116 89.9725 174.241 90.1759 174.394C90.3793 174.522 105.558 163.047 105.558 163.047C105.558 163.047 108.355 156.672 108.355 156.289C108.355 155.907 104.185 152.235 100.651 153.102C97.117 153.969 87.3282 160.14 86.8705 160.624C86.4129 161.109 86.2095 168.937 86.2095 168.937L86.2349 168.912Z" fill="url(#paint12_linear_2398_80443)"/>
<path d="M179.369 157.385C179.318 156.798 175.936 154.172 175.784 153.483C173.597 152.744 168.664 151.418 167.088 151.367C165.156 151.316 155.469 154.248 154.986 154.503C154.477 154.758 153.613 158.201 153.613 158.201L172.224 169.854C172.224 169.854 177.538 168.528 178.174 167.763C178.53 167.33 179.114 164.193 179.597 161.337C179.572 159.986 179.496 158.66 179.369 157.41V157.385Z" fill="url(#paint13_linear_2398_80443)"/>
<path d="M105.533 157.461L103.295 174.597L119.364 172.787C119.364 172.787 154.884 181.125 162.334 180.36C169.783 179.595 174.817 169.676 174.894 166.998C174.995 164.193 167.902 157.487 163.986 156.467C160.071 155.447 118.525 158.813 118.525 158.813L105.533 157.461Z" fill="url(#paint14_linear_2398_80443)"/>
<path d="M174.589 166.846C174.589 166.948 170.826 177.607 161.189 177.99C151.553 178.372 120.076 168.937 120.076 168.937L114.584 169.855L110.542 170.595C110.542 170.595 110.77 172.201 111.025 173.757L119.39 172.813C119.39 172.813 154.909 181.152 162.359 180.387C169.809 179.622 174.843 169.702 174.919 167.025C174.919 166.515 174.716 165.852 174.283 165.112C174.411 165.775 174.589 166.795 174.589 166.872V166.846Z" fill="url(#paint15_linear_2398_80443)"/>
<path d="M105.584 68.5438C102.99 69.2833 101.719 72.9808 102.711 76.7803C103.702 80.5798 106.601 83.0788 109.169 82.3393C111.737 81.5998 113.033 77.9023 112.042 74.1028C111.05 70.3033 108.152 67.8043 105.584 68.5438Z" fill="url(#paint16_linear_2398_80443)"/>
<path d="M148.909 47.5317C147.815 38.6067 123.026 33.4302 115.195 45.3387C112.627 50.8977 109.575 61.3527 107.897 71.7822C107.897 71.6802 107.897 71.6036 107.897 71.6036C107.897 71.6036 99.8121 98.6337 124.5 100.98C148.248 103.249 152.595 91.6212 152.163 75.3012C152.545 66.1467 150.511 54.4422 148.909 47.5317Z" fill="url(#paint17_linear_2398_80443)"/>
<g opacity="0.4">
<path d="M148.733 81.7137C150.11 76.2958 147.399 70.9253 142.677 69.7183C137.955 68.5112 133.011 71.9247 131.634 77.3425C130.257 82.7603 132.969 88.1309 137.691 89.3379C142.412 90.545 147.356 87.1315 148.733 81.7137Z" fill="#FF9E78"/>
<path d="M148.659 81.6943C150.026 76.3174 147.339 70.9886 142.658 69.792C137.977 68.5953 133.075 71.9841 131.708 77.361C130.342 82.7379 133.029 88.0667 137.709 89.2634C142.39 90.46 147.293 87.0712 148.659 81.6943Z" fill="#FF9D77"/>
<path d="M148.61 81.6814C149.969 76.3319 147.299 71.0308 142.645 69.8411C137.992 68.6514 133.117 72.0237 131.758 77.3733C130.398 82.7229 133.068 88.024 137.722 89.2136C142.375 90.4033 147.25 87.031 148.61 81.6814Z" fill="#FF9C77"/>
<path d="M148.561 81.6689C149.91 76.3602 147.253 71.0979 142.627 69.9152C138 68.7325 133.156 72.0772 131.807 77.3859C130.458 82.6945 133.114 87.9568 137.741 89.1395C142.367 90.3222 147.211 86.9775 148.561 81.6689Z" fill="#FF9B76"/>
<path d="M148.511 81.6569C149.854 76.3756 147.213 71.1411 142.614 69.9653C138.015 68.7896 133.198 72.1178 131.856 77.3992C130.514 82.6805 133.154 87.915 137.753 89.0908C142.353 90.2665 147.169 86.9383 148.511 81.6569Z" fill="#FF9A76"/>
<path d="M148.462 81.6444C149.794 76.4039 147.167 71.2083 142.595 70.0395C138.023 68.8707 133.237 72.1714 131.905 77.4118C130.574 82.6522 133.2 87.8479 137.772 89.0167C142.344 90.1855 147.13 86.8848 148.462 81.6444Z" fill="#FF9975"/>
<path d="M148.388 81.625C149.71 76.4256 147.108 71.2715 142.576 70.1132C138.045 68.9548 133.301 72.2308 131.979 77.4302C130.658 82.6297 133.26 87.7838 137.791 88.9421C142.322 90.1005 147.067 86.8245 148.388 81.625Z" fill="#FF9875"/>
<path d="M148.339 81.6122C149.653 76.44 147.068 71.3137 142.564 70.1623C138.06 69.0109 133.343 72.2704 132.029 77.4426C130.714 82.6147 133.3 87.741 137.804 88.8924C142.307 90.0438 147.024 86.7843 148.339 81.6122Z" fill="#FF9774"/>
<path d="M148.29 81.5996C149.594 76.4683 147.022 71.3809 142.545 70.2364C138.068 69.092 133.382 72.3239 132.078 77.4552C130.774 82.5864 133.346 87.6738 137.822 88.8183C142.299 89.9627 146.985 86.7308 148.29 81.5996Z" fill="#FF9674"/>
<path d="M148.24 81.5877C149.537 76.4837 146.982 71.424 142.532 70.2866C138.083 69.1491 133.424 72.3645 132.127 77.4685C130.83 82.5724 133.385 87.6321 137.835 88.7696C142.284 89.907 146.943 86.6916 148.24 81.5877Z" fill="#FF9573"/>
<path d="M148.166 81.5683C149.453 76.5053 146.922 71.4873 142.514 70.3603C138.105 69.2332 133.488 72.4239 132.201 77.4869C130.914 82.5499 133.445 87.568 137.854 88.695C142.263 89.8221 146.88 86.6313 148.166 81.5683Z" fill="#FF9472"/>
<path d="M148.117 81.5554C149.397 76.5197 146.883 71.5295 142.501 70.4094C138.12 69.2893 133.53 72.4635 132.25 77.4992C130.97 82.5349 133.485 87.5252 137.866 88.6453C142.248 89.7654 146.837 86.5912 148.117 81.5554Z" fill="#FF9372"/>
<path d="M148.068 81.5429C149.337 76.5481 146.836 71.5967 142.482 70.4835C138.128 69.3704 133.569 72.5171 132.3 77.5118C131.03 82.5066 133.531 87.458 137.885 88.5712C142.239 89.6843 146.798 86.5376 148.068 81.5429Z" fill="#FF9271"/>
<path d="M148.019 81.5309C149.281 76.5635 146.797 71.6398 142.47 70.5336C138.143 69.4275 133.611 72.5576 132.349 77.5251C131.086 82.4926 133.571 87.4163 137.898 88.5224C142.225 89.6286 146.756 86.4984 148.019 81.5309Z" fill="#FF9171"/>
<path d="M147.969 81.5184C149.221 76.5918 146.751 71.707 142.451 70.6078C138.151 69.5086 133.65 72.6112 132.398 77.5377C131.146 82.4643 133.617 87.3491 137.917 88.4483C142.216 89.5475 146.717 86.4449 147.969 81.5184Z" fill="#FF9070"/>
<path d="M147.895 81.4987C149.14 76.5995 146.697 71.7453 142.438 70.6565C138.179 69.5677 133.717 72.6567 132.472 77.5559C131.227 82.4551 133.67 87.3094 137.929 88.3982C142.188 89.487 146.65 86.398 147.895 81.4987Z" fill="#FF8F70"/>
<path d="M147.846 81.4862C149.081 76.6279 146.651 71.8124 142.419 70.7306C138.188 69.6488 133.756 72.7102 132.521 77.5685C131.287 82.4268 133.716 87.2422 137.948 88.3241C142.18 89.4059 146.611 86.3445 147.846 81.4862Z" fill="#FF8E6F"/>
<path d="M147.797 81.4736C149.021 76.6562 146.605 71.8796 142.401 70.8047C138.196 69.7299 133.795 72.7638 132.571 77.5811C131.346 82.3985 133.762 87.1751 137.967 88.2499C142.171 89.3248 146.572 86.2909 147.797 81.4736Z" fill="#FF8D6F"/>
<path d="M147.748 81.4617C148.965 76.6716 146.565 71.9228 142.388 70.8549C138.211 69.7869 133.837 72.8043 132.62 77.5944C131.403 82.3845 133.802 87.1333 137.979 88.2012C142.157 89.2691 146.53 86.2517 147.748 81.4617Z" fill="#FF8C6E"/>
<path d="M147.674 81.4423C148.881 76.6932 146.506 71.986 142.369 70.9286C138.233 69.8711 133.901 72.8637 132.694 77.6129C131.487 82.362 133.862 87.0692 137.998 88.1267C142.135 89.1841 146.467 86.1915 147.674 81.4423Z" fill="#FF8B6E"/>
<path d="M147.624 81.4295C148.824 76.7076 146.466 72.0282 142.357 70.9777C138.247 69.9272 133.943 72.9033 132.743 77.6252C131.543 82.347 133.901 87.0264 138.011 88.0769C142.12 89.1275 146.424 86.1513 147.624 81.4295Z" fill="#FF8A6D"/>
<path d="M147.575 81.4169C148.765 76.736 146.42 72.0954 142.338 71.0518C138.256 70.0083 133.982 72.9569 132.792 77.6378C131.603 82.3187 133.948 86.9593 138.03 88.0028C142.112 89.0464 146.385 86.0978 147.575 81.4169Z" fill="#FF896C"/>
<path d="M147.526 81.405C148.709 76.7514 146.38 72.1385 142.325 71.1019C138.27 70.0653 134.024 72.9975 132.842 77.6511C131.659 82.3047 133.987 86.9175 138.042 87.9541C142.097 88.9907 146.343 86.0585 147.526 81.405Z" fill="#FF886C"/>
<path d="M147.477 81.3924C148.649 76.7797 146.334 72.2057 142.306 71.1761C138.279 70.1464 134.063 73.051 132.891 77.6637C131.719 82.2763 134.033 86.8503 138.061 87.88C142.089 88.9096 146.304 86.005 147.477 81.3924Z" fill="#FF876B"/>
<path d="M147.403 81.3727C148.568 76.7874 146.281 72.244 142.294 71.2248C138.307 70.2056 134.13 73.0965 132.965 77.6818C131.799 82.2672 134.087 86.8106 138.074 87.8298C142.06 88.849 146.237 85.9581 147.403 81.3727Z" fill="#FF866B"/>
<path d="M147.353 81.3602C148.508 76.8157 146.235 72.3112 142.275 71.2989C138.315 70.2867 134.169 73.15 133.014 77.6945C131.859 82.2389 134.133 86.7434 138.092 87.7557C142.052 88.768 146.198 85.9046 147.353 81.3602Z" fill="#FF856A"/>
<path d="M147.304 81.3483C148.452 76.8311 146.195 72.3543 142.262 71.349C138.33 70.3437 134.211 73.1906 133.063 77.7077C131.915 82.2249 134.173 86.7017 138.105 87.707C142.037 88.7123 146.156 85.8654 147.304 81.3483Z" fill="#FF846A"/>
<path d="M147.255 81.3357C148.392 76.8595 146.149 72.4215 142.244 71.4232C138.338 70.4248 134.25 73.2442 133.113 77.7203C131.975 82.1965 134.219 86.6345 138.124 87.6329C142.029 88.6312 146.117 85.8119 147.255 81.3357Z" fill="#FF8369"/>
<path d="M147.181 81.316C148.312 76.8672 146.095 72.4598 142.231 71.4719C138.367 70.4839 134.317 73.2896 133.187 77.7385C132.056 82.1874 134.272 86.5948 138.136 87.5827C142.001 88.5706 146.05 85.7649 147.181 81.316Z" fill="#FF8269"/>
<path d="M147.132 81.3035C148.252 76.8955 146.049 72.5269 142.212 71.546C138.375 70.565 134.356 73.3432 133.236 77.7511C132.116 82.1591 134.318 86.5276 138.155 87.5086C141.992 88.4895 146.011 85.7114 147.132 81.3035Z" fill="#FF8168"/>
<path d="M147.082 81.2909C148.192 76.9239 146.003 72.5941 142.193 71.6201C138.383 70.6461 134.395 73.3967 133.285 77.7637C132.175 82.1307 134.364 86.4605 138.174 87.4345C141.984 88.4085 145.972 85.6579 147.082 81.2909Z" fill="#FF8067"/>
<path d="M147.033 81.279C148.136 76.9392 145.964 72.6373 142.181 71.6702C138.398 70.7032 134.437 73.4373 133.334 77.777C132.232 82.1167 134.404 86.4187 138.187 87.3857C141.969 88.3528 145.93 85.6187 147.033 81.279Z" fill="#FF7F67"/>
<path d="M146.984 81.2664C148.076 76.9676 145.918 72.7045 142.162 71.7444C138.406 70.7843 134.476 73.4908 133.384 77.7896C132.291 82.0884 134.45 86.3515 138.206 87.3116C141.961 88.2717 145.891 85.5651 146.984 81.2664Z" fill="#FF7E66"/>
<path d="M146.91 81.2468C147.995 76.9753 145.864 72.7427 142.149 71.7931C138.435 70.8434 134.543 73.5363 133.458 77.8078C132.372 82.0793 134.503 86.3118 138.218 87.2615C141.933 88.2111 145.824 85.5182 146.91 81.2468Z" fill="#FF7D66"/>
<path d="M146.861 81.2342C147.936 77.0036 145.818 72.8099 142.131 71.8672C138.443 70.9245 134.582 73.5899 133.507 77.8204C132.432 82.0509 134.549 86.2447 138.237 87.1874C141.924 88.13 145.785 85.4647 146.861 81.2342Z" fill="#FF7C65"/>
<path d="M146.811 81.2223C147.88 77.019 145.778 72.8531 142.118 71.9173C138.458 70.9816 134.624 73.6304 133.556 77.8337C132.488 82.0369 134.589 86.2029 138.249 87.1386C141.91 88.0744 145.743 85.4255 146.811 81.2223Z" fill="#FF7B65"/>
<path d="M146.762 81.2097C147.82 77.0474 145.732 72.9202 142.099 71.9915C138.466 71.0627 134.663 73.684 133.605 77.8463C132.548 82.0086 134.635 86.1357 138.268 87.0645C141.901 87.9933 145.704 85.372 146.762 81.2097Z" fill="#FF7A64"/>
<path d="M146.688 81.1901C147.739 77.055 145.679 72.9585 142.087 72.0402C138.494 71.1218 134.73 73.7294 133.679 77.8645C132.628 81.9995 134.689 86.096 138.281 87.0144C141.873 87.9327 145.637 85.3251 146.688 81.1901Z" fill="#FF7964"/>
<path d="M146.639 81.1775C147.679 77.0834 145.633 73.0257 142.068 72.1143C138.503 71.2029 134.769 73.783 133.729 77.8771C132.688 81.9711 134.735 86.0289 138.3 86.9402C141.865 87.8516 145.598 85.2715 146.639 81.1775Z" fill="#FF7863"/>
<path d="M146.59 81.1656C147.623 77.0988 145.593 73.0688 142.055 72.1644C138.517 71.26 134.812 73.8236 133.778 77.8904C132.744 81.9571 134.774 85.9871 138.312 86.8915C141.85 87.7959 145.556 85.2323 146.59 81.1656Z" fill="#FF7762"/>
<path d="M146.54 81.153C147.563 77.1271 145.547 73.136 142.036 72.2385C138.526 71.3411 134.85 73.8771 133.827 77.903C132.804 81.9288 134.821 85.9199 138.331 86.8174C141.842 87.7149 145.517 85.1788 146.54 81.153Z" fill="#FF7762"/>
<path d="M146.491 81.1404C147.504 77.1555 145.501 73.2032 142.018 72.3127C138.534 71.4222 134.889 73.9307 133.877 77.9156C132.864 81.9005 134.867 85.8528 138.35 86.7433C141.833 87.6338 145.478 85.1253 146.491 81.1404Z" fill="#FF7661"/>
<path d="M146.417 81.1208C147.423 77.1632 145.448 73.2414 142.005 72.3614C138.562 71.4813 134.956 73.9761 133.95 77.9337C132.945 81.8913 134.92 85.813 138.362 86.6931C141.805 87.5732 145.411 85.0784 146.417 81.1208Z" fill="#FF7561"/>
<path d="M146.368 81.1082C147.363 77.1915 145.401 73.3086 141.986 72.4355C138.571 71.5624 134.995 74.0297 134 77.9463C133.004 81.863 134.966 85.7459 138.381 86.619C141.797 87.4921 145.372 85.0248 146.368 81.1082Z" fill="#FF7460"/>
<path d="M146.319 81.0963C147.307 77.2069 145.362 73.3518 141.974 72.4856C138.585 71.6195 135.037 74.0703 134.049 77.9596C133.06 81.849 135.006 85.7041 138.394 86.5703C141.782 87.4364 145.33 84.9856 146.319 81.0963Z" fill="#FF7360"/>
<path d="M146.269 81.0837C147.247 77.2353 145.316 73.419 141.955 72.5598C138.594 71.7006 135.076 74.1238 134.098 77.9722C133.12 81.8207 135.052 85.637 138.413 86.4962C141.774 87.3554 145.291 84.9321 146.269 81.0837Z" fill="#FF725F"/>
<path d="M146.195 81.0641C147.166 77.2429 145.262 73.4572 141.942 72.6085C138.622 71.7597 135.143 74.1693 134.172 77.9904C133.201 81.8115 135.105 85.5972 138.425 86.446C141.745 87.2948 145.224 84.8852 146.195 81.0641Z" fill="#FF715F"/>
<path d="M146.146 81.0515C147.107 77.2713 145.216 73.5244 141.923 72.6826C138.63 71.8408 135.182 74.2228 134.221 78.003C133.261 81.7832 135.151 85.5301 138.444 86.3719C141.737 87.2137 145.185 84.8317 146.146 81.0515Z" fill="#FF705E"/>
<path d="M146.097 81.0396C147.051 77.2867 145.176 73.5676 141.911 72.7327C138.645 71.8978 135.225 74.2634 134.271 78.0163C133.317 81.7692 135.191 85.4883 138.457 86.3232C141.722 87.158 145.143 84.7925 146.097 81.0396Z" fill="#FF6F5E"/>
<path d="M146.048 81.027C146.991 77.315 145.13 73.6348 141.892 72.8069C138.653 71.979 135.263 74.3169 134.32 78.0289C133.377 81.7409 135.237 85.4211 138.476 86.249C141.714 87.0769 145.104 84.7389 146.048 81.027Z" fill="#FF6E5D"/>
<path d="M145.998 81.0141C146.935 77.3294 145.091 73.6769 141.879 72.856C138.668 72.035 135.306 74.3565 134.369 78.0412C133.433 81.7259 135.277 85.3784 138.488 86.1993C141.699 87.0203 145.062 84.6988 145.998 81.0141Z" fill="#FF6D5C"/>
<path d="M145.924 80.9948C146.85 77.351 145.031 73.7402 141.861 72.9297C138.69 72.1192 135.369 74.416 134.443 78.0597C133.517 81.7034 135.337 85.3143 138.507 86.1248C141.677 86.9353 144.998 84.6385 145.924 80.9948Z" fill="#FF6C5C"/>
<path d="M145.875 80.9822C146.791 77.3794 144.985 73.8074 141.842 73.0038C138.698 72.2003 135.408 74.4695 134.492 78.0723C133.577 81.6751 135.383 85.2471 138.526 86.0507C141.669 86.8542 144.959 84.585 145.875 80.9822Z" fill="#FF6B5B"/>
<path d="M145.826 80.9703C146.735 77.3948 144.945 73.8505 141.829 73.0539C138.713 72.2574 135.45 74.5101 134.542 78.0856C133.633 81.6611 135.422 85.2053 138.538 86.0019C141.654 86.7985 144.917 84.5458 145.826 80.9703Z" fill="#FF6A5B"/>
<path d="M145.776 80.9577C146.675 77.4231 144.899 73.9177 141.81 73.1281C138.721 72.3384 135.489 74.5636 134.591 78.0982C133.693 81.6327 135.468 85.1382 138.557 85.9278C141.646 86.7174 144.878 84.4922 145.776 80.9577Z" fill="#FF695A"/>
<path d="M145.703 80.9381C146.594 77.4308 144.846 73.956 141.798 73.1768C138.75 72.3976 135.556 74.6091 134.665 78.1163C133.774 81.6236 135.522 85.0985 138.57 85.8777C141.618 86.6569 144.811 84.4453 145.703 80.9381Z" fill="#FF685A"/>
<path d="M145.653 80.9255C146.534 77.4592 144.8 74.0231 141.779 73.2509C138.758 72.4787 135.595 74.6626 134.714 78.129C133.833 81.5953 135.568 85.0313 138.589 85.8035C141.609 86.5758 144.772 84.3918 145.653 80.9255Z" fill="#FF6759"/>
<path d="M145.604 80.9136C146.478 77.4745 144.76 74.0663 141.766 73.301C138.773 72.5357 135.638 74.7032 134.763 78.1422C133.889 81.5813 135.608 84.9895 138.601 85.7548C141.595 86.5201 144.73 84.3526 145.604 80.9136Z" fill="#FF6659"/>
<path d="M145.555 80.901C146.418 77.5029 144.714 74.1335 141.748 73.3752C138.781 72.6168 135.676 74.7568 134.813 78.1548C133.949 81.5529 135.654 84.9224 138.62 85.6807C141.586 86.439 144.691 84.2991 145.555 80.901Z" fill="#FF6558"/>
<path d="M145.505 80.8881C146.362 77.5173 144.674 74.1757 141.735 73.4243C138.796 72.6729 135.719 74.7964 134.862 78.1672C134.005 81.5379 135.693 84.8796 138.633 85.631C141.572 86.3823 144.649 84.2589 145.505 80.8881Z" fill="#FF6457"/>
<path d="M145.432 80.8688C146.278 77.5389 144.614 74.2389 141.716 73.498C138.818 72.7571 135.782 74.8558 134.936 78.1856C134.09 81.5155 135.753 84.8155 138.651 85.5564C141.55 86.2973 144.585 84.1986 145.432 80.8688Z" fill="#FF6357"/>
<path d="M145.382 80.8569C146.222 77.5543 144.575 74.2821 141.703 73.5481C138.832 72.8141 135.824 74.8964 134.985 78.1989C134.146 81.5015 135.793 84.7737 138.664 85.5077C141.535 86.2417 144.543 84.1594 145.382 80.8569Z" fill="#FF6256"/>
<path d="M145.333 80.8443C146.162 77.5827 144.528 74.3493 141.685 73.6222C138.841 72.8952 135.863 74.9499 135.034 78.2115C134.205 81.4731 135.839 84.7066 138.683 85.4336C141.527 86.1606 144.504 84.1059 145.333 80.8443Z" fill="#FF6156"/>
<path d="M145.284 80.8314C146.106 77.5971 144.489 74.3914 141.672 73.6714C138.855 72.9513 135.906 74.9895 135.084 78.2238C134.262 81.4581 135.879 84.6638 138.695 85.3839C141.512 86.1039 144.462 84.0657 145.284 80.8314Z" fill="#FF6055"/>
<path d="M145.21 80.8121C146.021 77.6187 144.429 74.4547 141.653 73.7451C138.877 73.0355 135.969 75.0489 135.158 78.2423C134.346 81.4357 135.938 84.5997 138.714 85.3093C141.49 86.0189 144.398 84.0054 145.21 80.8121Z" fill="#FF5F55"/>
<path d="M145.161 80.7995C145.962 77.647 144.383 74.5219 141.634 73.8192C138.886 73.1165 136.008 75.1025 135.207 78.2549C134.406 81.4073 135.984 84.5325 138.733 85.2352C141.482 85.9379 144.359 83.9519 145.161 80.7995Z" fill="#FF5E54"/>
<path d="M145.111 80.7876C145.906 77.6624 144.343 74.565 141.622 73.8693C138.901 73.1736 136.051 75.143 135.256 78.2682C134.462 81.3933 136.024 84.4907 138.746 85.1865C141.467 85.8822 144.317 83.9127 145.111 80.7876Z" fill="#FF5D54"/>
<path d="M145.062 80.775C145.846 77.6908 144.297 74.6322 141.603 73.9435C138.909 73.2547 136.089 75.1966 135.306 78.2808C134.522 81.365 136.07 84.4236 138.765 85.1123C141.459 85.8011 144.278 83.8592 145.062 80.775Z" fill="#FF5C53"/>
<path d="M145.013 80.7621C145.79 77.7052 144.257 74.6744 141.59 73.9926C138.923 73.3108 136.132 75.2362 135.355 78.2931C134.578 81.35 136.11 84.3808 138.777 85.0626C141.444 85.7444 144.236 83.819 145.013 80.7621Z" fill="#FF5B53"/>
<path d="M144.939 80.7428C145.705 77.7268 144.198 74.7376 141.572 74.0663C138.945 73.3949 136.195 75.2956 135.429 78.3116C134.662 81.3275 136.17 84.3167 138.796 84.9881C141.422 85.6594 144.172 83.7587 144.939 80.7428Z" fill="#FF5A52"/>
<path d="M144.889 80.7309C145.649 77.7422 144.158 74.7808 141.559 74.1164C138.96 73.452 136.237 75.3362 135.478 78.3249C134.718 81.3135 136.209 84.2749 138.808 84.9393C141.407 85.6037 144.13 83.7195 144.889 80.7309Z" fill="#FF5951"/>
<path d="M144.84 80.7183C145.589 77.7705 144.112 74.848 141.54 74.1905C138.968 73.5331 136.276 75.3897 135.527 78.3375C134.778 81.2852 136.255 84.2078 138.827 84.8652C141.399 85.5227 144.091 83.666 144.84 80.7183Z" fill="#FF5851"/>
<path d="M144.791 80.7054C145.533 77.785 144.072 74.8902 141.528 74.2397C138.983 73.5892 136.319 75.4293 135.576 78.3498C134.834 81.2702 136.295 84.165 138.84 84.8155C141.384 85.466 144.049 83.6258 144.791 80.7054Z" fill="#FF5750"/>
<path d="M144.717 80.6861C145.449 77.8066 144.013 74.9534 141.509 74.3134C139.005 73.6733 136.382 75.4887 135.65 78.3682C134.919 81.2477 136.355 84.1009 138.859 84.7409C141.362 85.381 143.985 83.5656 144.717 80.6861Z" fill="#FF5650"/>
<path d="M144.668 80.6742C145.393 77.822 143.973 74.9966 141.496 74.3635C139.02 73.7304 136.425 75.5293 135.7 78.3815C134.975 81.2337 136.395 84.0591 138.871 84.6922C141.348 85.3253 143.943 83.5264 144.668 80.6742Z" fill="#FF554F"/>
<path d="M144.618 80.6616C145.333 77.8503 143.927 75.0638 141.477 74.4376C139.028 73.8115 136.463 75.5829 135.749 78.3941C135.034 81.2054 136.441 83.992 138.89 84.6181C141.339 85.2442 143.904 83.4728 144.618 80.6616Z" fill="#FF544F"/>
<path d="M144.569 80.649C145.273 77.8787 143.881 75.1309 141.459 74.5118C139.036 73.8926 136.502 75.6364 135.798 78.4067C135.094 81.1771 136.487 83.9248 138.909 84.544C141.331 85.1632 143.865 83.4193 144.569 80.649Z" fill="#FF534E"/>
<path d="M144.52 80.6361C145.217 77.8931 143.841 75.1731 141.446 74.5609C139.051 73.9487 136.545 75.676 135.848 78.419C135.15 81.1621 136.527 83.882 138.921 84.4943C141.316 85.1065 143.823 83.3791 144.52 80.6361Z" fill="#FF524E"/>
<path d="M144.446 80.6168C145.133 77.9147 143.781 75.2364 141.427 74.6346C139.073 74.0328 136.608 75.7354 135.921 78.4375C135.235 81.1396 136.586 83.8179 138.94 84.4197C141.294 85.0215 143.759 83.3189 144.446 80.6168Z" fill="#FF514D"/>
</g>
<path d="M157.655 71.0167C155.163 69.9967 152.011 72.1642 150.638 75.8617C149.265 79.5592 150.155 83.3587 152.646 84.3532C155.138 85.3732 158.291 83.2057 159.664 79.5082C161.037 75.8107 160.147 72.0112 157.655 71.0167Z" fill="#FF9E78"/>
<path d="M157.503 79.8398C154.985 81.3188 152.392 80.7068 150.561 79.0748C150.561 80.0438 150.434 81.2678 150.155 82.6703H150.205L149.697 92.1053C150.816 89.7593 151.477 87.0308 151.807 83.9198C152.036 84.0983 152.265 84.2258 152.545 84.3278C155.036 85.3478 158.189 83.1803 159.562 79.4828C159.918 78.5393 160.121 77.5703 160.198 76.6523C159.689 77.9018 158.825 79.0238 157.503 79.7888V79.8398Z" fill="url(#paint18_linear_2398_80443)"/>
<path d="M153.206 77.6217L155.494 78.0552C155.621 74.4087 158.367 73.2867 158.367 73.2867C154.045 71.5272 153.18 77.6217 153.18 77.6217H153.206Z" fill="url(#paint19_linear_2398_80443)"/>
<path d="M140.239 31.1094C133.348 26.1369 124.144 25.4229 124.144 25.4229C123.737 26.0094 123.534 26.9529 123.636 27.6414C117.89 27.2079 113.338 27.6414 113.338 27.6414C111.813 34.5009 113.593 38.6574 115.627 41.0799C116.364 41.9724 117.406 43.4514 120.508 44.9559C120.508 44.9559 123.89 47.9649 129.128 48.2709C133.806 48.5514 140.442 45.3894 140.442 45.3894C145.12 45.4659 151.07 60.2558 151.248 71.9858C151.299 74.6633 153.74 71.6799 153.74 71.6799C153.74 71.6799 154.096 68.7729 154.07 64.5653C154.07 64.5399 159.638 47.9904 155.214 41.1819" fill="url(#paint20_linear_2398_80443)"/>
<path d="M113.644 37.6885C106.55 39.55 108.025 65.254 107.999 69.4615C107.999 69.7675 107.974 69.9715 107.923 70.303C107.923 70.456 108.482 70.4305 108.431 70.303C108.38 70.048 108.457 69.64 108.482 69.487C109.753 61.7605 116.568 45.0325 120.458 44.9815C120.458 44.9815 116.822 42.61 113.618 37.714L113.644 37.6885Z" fill="#59352C"/>
<g opacity="0.4">
<path d="M118.581 87.4527C123.277 86.866 126.511 81.7795 125.805 76.0916C125.099 70.4036 120.719 66.2682 116.023 66.8548C111.327 67.4414 108.093 72.528 108.8 78.2159C109.506 83.9038 113.886 88.0393 118.581 87.4527Z" fill="#FF9E78"/>
<path d="M118.575 87.4027C123.243 86.8195 126.458 81.7585 125.755 76.0985C125.052 70.4385 120.698 66.3229 116.03 66.906C111.362 67.4892 108.147 72.5502 108.85 78.2102C109.553 83.8702 113.907 87.9858 118.575 87.4027Z" fill="#FF9D77"/>
<path d="M118.566 87.3267C123.192 86.7488 126.377 81.726 125.679 76.1079C124.981 70.4898 120.665 66.404 116.039 66.9819C111.413 67.5598 108.228 72.5827 108.926 78.2007C109.624 83.8188 113.939 87.9046 118.566 87.3267Z" fill="#FF9C77"/>
<path d="M118.556 87.2505C123.155 86.6761 126.321 81.6901 125.628 76.1139C124.936 70.5378 120.647 66.4831 116.048 67.0575C111.45 67.632 108.284 72.618 108.976 78.1941C109.669 83.7703 113.958 87.8249 118.556 87.2505Z" fill="#FF9B76"/>
<path d="M118.55 87.1995C123.121 86.6286 126.267 81.6681 125.578 76.1199C124.889 70.5717 120.625 66.5368 116.055 67.1078C111.484 67.6788 108.338 72.6393 109.027 78.1875C109.716 83.7357 113.98 87.7705 118.55 87.1995Z" fill="#FF9A76"/>
<path d="M118.541 87.1243C123.083 86.5569 126.211 81.6331 125.528 76.1269C124.844 70.6206 120.607 66.6169 116.064 67.1844C111.522 67.7519 108.393 72.6756 109.077 78.1819C109.761 83.6881 113.998 87.6918 118.541 87.1243Z" fill="#FF9975"/>
<path d="M118.534 87.0734C123.049 86.5094 126.157 81.6111 125.477 76.1328C124.797 70.6545 120.585 66.6707 116.07 67.2347C111.556 67.7987 108.447 72.6969 109.128 78.1752C109.808 83.6535 114.02 87.6374 118.534 87.0734Z" fill="#FF9875"/>
<path d="M118.525 86.9972C123.012 86.4367 126.102 81.5752 125.427 76.1388C124.751 70.7025 120.567 66.7498 116.08 67.3103C111.593 67.8708 108.503 72.7322 109.178 78.1686C109.853 83.605 114.038 87.5577 118.525 86.9972Z" fill="#FF9774"/>
<path d="M118.515 86.922C122.974 86.3649 126.046 81.5403 125.376 76.1459C124.706 70.7514 120.548 66.8299 116.089 67.3869C111.63 67.9439 108.559 72.7686 109.229 78.163C109.899 83.5575 114.056 87.479 118.515 86.922Z" fill="#FF9674"/>
<path d="M118.509 86.8712C122.926 86.3194 125.967 81.5217 125.3 76.1552C124.634 70.7887 120.513 66.8856 116.096 67.4374C111.678 67.9892 108.638 72.7869 109.304 78.1534C109.971 83.5199 114.092 87.423 118.509 86.8712Z" fill="#FF9573"/>
<path d="M118.5 86.795C122.889 86.2467 125.911 81.4858 125.25 76.1612C124.589 70.8366 120.494 66.9647 116.105 67.513C111.716 68.0614 108.694 72.8223 109.355 78.1469C110.016 83.4714 114.11 87.3434 118.5 86.795Z" fill="#FF9472"/>
<path d="M118.49 86.7188C122.852 86.174 125.856 81.4499 125.2 76.1672C124.543 70.8846 120.476 67.0438 116.114 67.5887C111.753 68.1335 108.749 72.8576 109.405 78.1403C110.061 83.4229 114.129 87.2637 118.49 86.7188Z" fill="#FF9372"/>
<path d="M118.484 86.6689C122.818 86.1275 125.802 81.4289 125.149 76.1742C124.496 70.9195 120.454 67.0985 116.121 67.6399C111.787 68.1813 108.803 72.8799 109.456 78.1346C110.108 83.3893 114.15 87.2102 118.484 86.6689Z" fill="#FF9271"/>
<path d="M118.475 86.5927C122.78 86.0548 125.746 81.393 125.099 76.1802C124.451 70.9674 120.436 67.1777 116.13 67.7155C111.824 68.2534 108.859 72.9152 109.506 78.128C110.154 83.3408 114.169 87.1305 118.475 86.5927Z" fill="#FF9171"/>
<path d="M118.468 86.5417C122.746 86.0073 125.692 81.371 125.048 76.1861C124.404 71.0013 120.414 67.2314 116.136 67.7658C111.859 68.3002 108.913 72.9365 109.557 78.1214C110.2 83.3062 114.19 87.0761 118.468 86.5417Z" fill="#FF9070"/>
<path d="M118.459 86.4657C122.695 85.9365 125.611 81.3384 124.973 76.1955C124.334 71.0526 120.382 67.3125 116.146 67.8416C111.91 68.3708 108.994 72.9689 109.632 78.1118C110.271 83.2547 114.223 86.9949 118.459 86.4657Z" fill="#FF8F70"/>
<path d="M118.449 86.3905C122.658 85.8648 125.555 81.3035 124.922 76.2025C124.288 71.1016 120.363 67.3926 116.155 67.9183C111.947 68.444 109.049 73.0053 109.683 78.1062C110.316 83.2072 114.241 86.9162 118.449 86.3905Z" fill="#FF8E6F"/>
<path d="M118.443 86.3396C122.623 85.8173 125.502 81.2815 124.872 76.2085C124.241 71.1355 120.342 67.4463 116.162 67.9685C111.981 68.4907 109.103 73.0266 109.733 78.0996C110.363 83.1726 114.263 86.8618 118.443 86.3396Z" fill="#FF8D6F"/>
<path d="M118.434 86.2634C122.586 85.7446 125.446 81.2456 124.821 76.2145C124.196 71.1834 120.324 67.5254 116.171 68.0442C112.019 68.5629 109.159 73.0619 109.784 78.093C110.409 83.1241 114.281 86.7821 118.434 86.2634Z" fill="#FF8C6E"/>
<path d="M118.427 86.2134C122.552 85.6981 125.392 81.2246 124.771 76.2214C124.149 71.2183 120.302 67.5801 116.177 68.0954C112.053 68.6106 109.213 73.0842 109.834 78.0873C110.456 83.0905 114.303 86.7286 118.427 86.2134Z" fill="#FF8B6E"/>
<path d="M118.418 86.1372C122.515 85.6254 125.336 81.1887 124.72 76.2275C124.104 71.2662 120.283 67.6592 116.187 68.171C112.09 68.6828 109.268 73.1195 109.885 78.0807C110.501 83.042 114.321 86.649 118.418 86.1372Z" fill="#FF8A6D"/>
<path d="M118.409 86.0612C122.464 85.5547 125.255 81.1562 124.645 76.2369C124.034 71.3176 120.251 67.7403 116.196 68.2469C112.141 68.7534 109.349 73.1519 109.96 78.0712C110.571 82.9905 114.354 86.5678 118.409 86.0612Z" fill="#FF896C"/>
<path d="M118.402 86.0102C122.429 85.5072 125.202 81.1341 124.594 76.2428C123.987 71.3515 120.23 67.7941 116.203 68.2971C112.175 68.8002 109.403 73.1732 110.011 78.0646C110.618 82.9559 114.375 86.5133 118.402 86.0102Z" fill="#FF886C"/>
<path d="M118.393 85.935C122.392 85.4355 125.146 81.0992 124.544 76.2498C123.941 71.4004 120.211 67.8742 116.212 68.3737C112.213 68.8733 109.459 73.2095 110.061 78.059C110.663 82.9084 114.394 86.4346 118.393 85.935Z" fill="#FF876B"/>
<path d="M118.387 85.8841C122.358 85.388 125.092 81.0772 124.493 76.2558C123.894 71.4343 120.189 67.9279 116.218 68.424C112.247 68.9201 109.513 73.2308 110.112 78.0523C110.71 82.8738 114.415 86.3802 118.387 85.8841Z" fill="#FF866B"/>
<path d="M118.377 85.8079C122.321 85.3153 125.036 81.0413 124.443 76.2618C123.849 71.4822 120.171 68.007 116.228 68.4996C112.284 68.9923 109.569 73.2662 110.162 78.0457C110.756 82.8253 114.434 86.3005 118.377 85.8079Z" fill="#FF856A"/>
<path d="M118.368 85.7327C122.283 85.2435 124.981 81.0064 124.392 76.2688C123.804 71.5312 120.153 68.0871 116.237 68.5762C112.321 69.0654 109.624 73.3025 110.213 78.0401C110.801 82.7777 114.452 86.2218 118.368 85.7327Z" fill="#FF846A"/>
<path d="M118.361 85.6817C122.249 85.196 124.927 80.9844 124.342 76.2747C123.757 71.5651 120.131 68.1408 116.243 68.6265C112.356 69.1122 109.678 73.3238 110.263 78.0335C110.848 82.7431 114.474 86.1674 118.361 85.6817Z" fill="#FF8369"/>
<path d="M118.352 85.6057C122.198 85.1253 124.846 80.9519 124.266 76.2841C123.686 71.6164 120.099 68.2219 116.253 68.7024C112.407 69.1828 109.759 73.3562 110.339 78.024C110.918 82.6917 114.506 86.0862 118.352 85.6057Z" fill="#FF8269"/>
<path d="M118.346 85.5548C122.164 85.0778 124.792 80.9299 124.216 76.2901C123.639 71.6503 120.077 68.2757 116.259 68.7526C112.441 69.2296 109.813 73.3775 110.389 78.0173C110.965 82.6571 114.528 86.0317 118.346 85.5548Z" fill="#FF8168"/>
<path d="M118.336 85.4796C122.126 85.0061 124.736 80.895 124.165 76.2971C123.594 71.6992 120.059 68.3557 116.268 68.8292C112.478 69.3027 109.869 73.4138 110.44 78.0117C111.011 82.6096 114.546 85.953 118.336 85.4796Z" fill="#FF8067"/>
<path d="M118.327 85.4034C122.089 84.9334 124.68 80.8591 124.115 76.3031C123.549 71.7472 120.04 68.4349 116.278 68.9049C112.516 69.3749 109.924 73.4492 110.49 78.0051C111.056 82.561 114.565 85.8734 118.327 85.4034Z" fill="#FF7F67"/>
<path d="M118.321 85.3524C122.055 84.8859 124.626 80.8371 124.064 76.3091C123.502 71.7811 120.019 68.4886 116.284 68.9551C112.55 69.4216 109.978 73.4705 110.541 77.9985C111.103 82.5264 114.586 85.8189 118.321 85.3524Z" fill="#FF7E66"/>
<path d="M118.311 85.2772C122.018 84.8142 124.571 80.8021 124.014 76.3161C123.457 71.83 120 68.5687 116.294 69.0317C112.587 69.4948 110.034 73.5068 110.591 77.9929C111.148 82.4789 114.605 85.7402 118.311 85.2772Z" fill="#FF7D66"/>
<path d="M118.302 85.2012C121.966 84.7434 124.49 80.7696 123.938 76.3255C123.386 71.8813 119.968 68.6498 116.303 69.1076C112.638 69.5654 110.115 73.5392 110.667 77.9833C111.219 82.4275 114.637 85.659 118.302 85.2012Z" fill="#FF7C65"/>
<path d="M118.295 85.1503C121.932 84.6959 124.436 80.7476 123.888 76.3314C123.339 71.9152 119.946 68.7035 116.309 69.1578C112.672 69.6122 110.169 73.5605 110.717 77.9767C111.266 82.3929 114.659 85.6046 118.295 85.1503Z" fill="#FF7B65"/>
<path d="M118.286 85.0741C121.895 84.6232 124.38 80.7117 123.837 76.3375C123.294 71.9632 119.928 68.7826 116.319 69.2335C112.71 69.6843 110.224 73.5958 110.768 77.9701C111.311 82.3444 114.677 85.5249 118.286 85.0741Z" fill="#FF7A64"/>
<path d="M118.28 85.0241C121.861 84.5767 124.326 80.6907 123.787 76.3444C123.247 71.9981 119.906 68.8373 116.325 69.2847C112.744 69.7321 110.278 73.6181 110.818 77.9644C111.358 82.3107 114.699 85.4714 118.28 85.0241Z" fill="#FF7964"/>
<path d="M118.27 84.9479C121.824 84.504 124.271 80.6548 123.736 76.3504C123.202 72.046 119.888 68.9165 116.334 69.3603C112.781 69.8042 110.334 73.6535 110.869 77.9578C111.403 82.2622 114.717 85.3918 118.27 84.9479Z" fill="#FF7863"/>
<path d="M118.261 84.8717C121.786 84.4313 124.215 80.6189 123.686 76.3564C123.156 72.094 119.869 68.9956 116.344 69.436C112.818 69.8764 110.39 73.6888 110.919 77.9513C111.448 82.2137 114.735 85.3121 118.261 84.8717Z" fill="#FF7762"/>
<path d="M118.255 84.821C121.738 84.3858 124.136 80.6003 123.61 76.3657C123.084 72.1312 119.834 69.0513 116.35 69.4865C112.867 69.9216 110.469 73.7072 110.995 77.9417C111.521 82.1762 114.771 85.2561 118.255 84.821Z" fill="#FF7762"/>
<path d="M118.245 84.7458C121.701 84.3141 124.08 80.5653 123.56 76.3728C123.039 72.1802 119.815 69.1314 116.36 69.5631C112.904 69.9948 110.525 73.7435 111.045 77.9361C111.566 82.1287 114.789 85.1774 118.245 84.7458Z" fill="#FF7661"/>
<path d="M118.239 84.6948C121.667 84.2666 124.026 80.5433 123.509 76.3787C122.992 72.2141 119.794 69.1851 116.366 69.6133C112.938 70.0415 110.578 73.7648 111.096 77.9294C111.613 82.094 114.811 85.123 118.239 84.6948Z" fill="#FF7561"/>
<path d="M118.229 84.6186C121.629 84.1939 123.971 80.5074 123.459 76.3847C122.947 72.262 119.775 69.2642 116.375 69.689C112.975 70.1137 110.634 73.8001 111.146 77.9228C111.658 82.0455 114.829 85.0433 118.229 84.6186Z" fill="#FF7460"/>
<path d="M118.22 84.5434C121.592 84.1221 123.915 80.4725 123.408 76.3917C122.901 72.311 119.757 69.3443 116.385 69.7656C113.013 70.1868 110.69 73.8364 111.197 77.9172C111.703 81.998 114.848 84.9646 118.22 84.5434Z" fill="#FF7360"/>
<path d="M118.214 84.4924C121.558 84.0746 123.861 80.4505 123.358 76.3977C122.854 72.3448 119.735 69.3981 116.391 69.8158C113.047 70.2336 110.744 73.8577 111.247 77.9106C111.75 81.9634 114.869 84.9102 118.214 84.4924Z" fill="#FF725F"/>
<path d="M118.204 84.4165C121.507 84.0039 123.78 80.418 123.282 76.4071C122.784 72.3962 119.703 69.4791 116.4 69.8917C113.098 70.3042 110.825 73.8902 111.323 77.9011C111.821 81.912 114.902 84.829 118.204 84.4165Z" fill="#FF715F"/>
<path d="M118.198 84.3655C121.473 83.9564 123.726 80.396 123.232 76.413C122.737 72.4301 119.681 69.5329 116.407 69.9419C113.132 70.351 110.879 73.9114 111.373 77.8944C111.868 81.8773 114.923 84.7745 118.198 84.3655Z" fill="#FF705E"/>
<path d="M118.189 84.2903C121.435 83.8847 123.671 80.3611 123.181 76.42C122.692 72.479 119.663 69.613 116.416 70.0186C113.169 70.4241 110.934 73.9478 111.424 77.8888C111.913 81.8298 114.942 84.6959 118.189 84.2903Z" fill="#FF6F5E"/>
<path d="M118.179 84.2141C121.398 83.812 123.615 80.3252 123.131 76.4261C122.646 72.527 119.644 69.6921 116.426 70.0942C113.207 70.4963 110.99 73.9831 111.474 77.8822C111.958 81.7813 114.96 84.6162 118.179 84.2141Z" fill="#FF6E5D"/>
<path d="M118.173 84.1631C121.364 83.7645 123.561 80.3032 123.08 76.432C122.599 72.5609 119.623 69.7458 116.432 70.1444C113.241 70.5431 111.044 74.0044 111.525 77.8755C112.005 81.7467 114.982 84.5617 118.173 84.1631Z" fill="#FF6D5C"/>
<path d="M118.163 84.0879C121.327 83.6928 123.505 80.2682 123.03 76.439C122.554 72.6098 119.604 69.8259 116.441 70.2211C113.278 70.6162 111.1 74.0407 111.575 77.8699C112.051 81.6992 115 84.483 118.163 84.0879Z" fill="#FF6C5C"/>
<path d="M118.154 84.0117C121.289 83.6201 123.45 80.2323 122.979 76.445C122.509 72.6577 119.586 69.905 116.451 70.2967C113.315 70.6884 111.155 74.0761 111.625 77.8634C112.096 81.6507 115.019 84.4034 118.154 84.0117Z" fill="#FF6B5B"/>
<path d="M118.148 83.961C121.241 83.5745 123.37 80.2137 122.904 76.4544C122.437 72.695 119.55 69.9607 116.457 70.3472C113.364 70.7336 111.234 74.0944 111.701 77.8538C112.168 81.6131 115.054 84.3474 118.148 83.961Z" fill="#FF6A5B"/>
<path d="M118.138 83.8848C121.204 83.5018 123.315 80.1778 122.853 76.4604C122.391 72.743 119.532 70.0398 116.466 70.4228C113.401 70.8058 111.29 74.1298 111.752 77.8472C112.213 81.5646 115.073 84.2677 118.138 83.8848Z" fill="#FF695A"/>
<path d="M118.132 83.8348C121.17 83.4553 123.261 80.1568 122.803 76.4673C122.344 72.7778 119.51 70.0946 116.473 70.474C113.435 70.8535 111.344 74.152 111.802 77.8415C112.26 81.531 115.094 84.2143 118.132 83.8348Z" fill="#FF685A"/>
<path d="M118.123 83.7586C121.132 83.3826 123.205 80.1209 122.752 76.4733C122.299 72.8258 119.492 70.1737 116.482 70.5497C113.472 70.9257 111.4 74.1874 111.853 77.8349C112.306 81.4825 115.113 84.1346 118.123 83.7586Z" fill="#FF6759"/>
<path d="M118.113 83.6824C121.095 83.3099 123.15 80.085 122.702 76.4794C122.254 72.8737 119.474 70.2528 116.492 70.6253C113.51 70.9978 111.455 74.2227 111.903 77.8284C112.351 81.434 115.131 84.0549 118.113 83.6824Z" fill="#FF6659"/>
<path d="M118.107 83.6324C121.061 83.2634 123.096 80.064 122.651 76.4863C122.207 72.9086 119.452 70.3075 116.498 70.6765C113.544 71.0456 111.509 74.245 111.954 77.8227C112.398 81.4003 115.153 84.0015 118.107 83.6324Z" fill="#FF6558"/>
<path d="M118.097 83.5564C121.01 83.1926 123.015 80.0314 122.576 76.4957C122.136 72.9599 119.42 70.3886 116.507 70.7524C113.595 71.1162 111.59 74.2774 112.029 77.8132C112.468 81.3489 115.185 83.9203 118.097 83.5564Z" fill="#FF6457"/>
<path d="M118.091 83.5055C120.976 83.1452 122.961 80.0094 122.525 76.5016C122.09 72.9938 119.398 70.4423 116.514 70.8026C113.629 71.163 111.644 74.2987 112.08 77.8065C112.515 81.3143 115.207 83.8658 118.091 83.5055Z" fill="#FF6357"/>
<path d="M118.082 83.4293C120.938 83.0724 122.905 79.9735 122.475 76.5077C122.044 73.0418 119.38 70.5214 116.523 70.8783C113.666 71.2351 111.7 74.3341 112.13 77.7999C112.561 81.2658 115.225 83.7861 118.082 83.4293Z" fill="#FF6256"/>
<path d="M118.072 83.3541C120.901 83.0007 122.849 79.9386 122.424 76.5147C121.999 73.0907 119.361 70.6015 116.532 70.9549C113.704 71.3083 111.755 74.3704 112.181 77.7943C112.606 81.2183 115.244 83.7075 118.072 83.3541Z" fill="#FF6156"/>
<path d="M118.066 83.3031C120.867 82.9532 122.796 79.9166 122.374 76.5206C121.952 73.1246 119.34 70.6553 116.539 71.0052C113.738 71.355 111.809 74.3917 112.231 77.7877C112.653 81.1836 115.265 83.653 118.066 83.3031Z" fill="#FF6055"/>
<path d="M118.057 83.2269C120.83 82.8805 122.74 79.8807 122.323 76.5266C121.907 73.1726 119.321 70.7344 116.548 71.0808C113.775 71.4272 111.865 74.427 112.281 77.7811C112.698 81.1351 115.284 83.5733 118.057 83.2269Z" fill="#FF5F55"/>
<path d="M118.05 83.1762C120.781 82.835 122.661 79.8621 122.248 76.536C121.835 73.2098 119.286 70.7901 116.554 71.1313C113.823 71.4724 111.944 74.4454 112.357 77.7715C112.77 81.0976 115.319 83.5174 118.05 83.1762Z" fill="#FF5E54"/>
<path d="M118.041 83.101C120.744 82.7633 122.605 79.8272 122.197 76.543C121.789 73.2588 119.267 70.8702 116.564 71.2079C113.861 71.5456 112 74.4817 112.408 77.7659C112.816 81.0501 115.338 83.4387 118.041 83.101Z" fill="#FF5D54"/>
<path d="M118.031 83.0248C120.707 82.6906 122.549 79.7913 122.147 76.549C121.744 73.3067 119.249 70.9493 116.573 71.2835C113.898 71.6177 112.055 74.517 112.458 77.7593C112.861 81.0016 115.356 83.359 118.031 83.0248Z" fill="#FF5C53"/>
<path d="M118.025 82.9738C120.673 82.6431 122.495 79.7693 122.096 76.5549C121.697 73.3406 119.227 71.003 116.58 71.3338C113.932 71.6645 112.109 74.5383 112.509 77.7526C112.908 80.967 115.378 83.3046 118.025 82.9738Z" fill="#FF5B53"/>
<path d="M118.016 82.8986C120.635 82.5714 122.44 79.7343 122.046 76.562C121.652 73.3896 119.209 71.0831 116.589 71.4104C113.969 71.7376 112.165 74.5747 112.559 77.747C112.953 80.9194 115.396 83.2259 118.016 82.8986Z" fill="#FF5A52"/>
<path d="M118.006 82.8224C120.598 82.4986 122.384 79.6984 121.995 76.568C121.606 73.4375 119.19 71.1623 116.598 71.486C114.007 71.8098 112.221 74.61 112.609 77.7405C112.998 80.8709 115.414 83.1462 118.006 82.8224Z" fill="#FF5951"/>
<path d="M118 82.7715C120.564 82.4512 122.33 79.6764 121.945 76.5739C121.559 73.4714 119.169 71.216 116.605 71.5363C114.041 71.8566 112.275 74.6313 112.66 77.7338C113.045 80.8363 115.436 83.0918 118 82.7715Z" fill="#FF5851"/>
<path d="M117.991 82.6955C120.513 82.3804 122.249 79.6439 121.869 76.5833C121.489 73.5227 119.136 71.2971 116.614 71.6121C114.092 71.9272 112.355 74.6637 112.736 77.7243C113.116 80.7849 115.468 83.0106 117.991 82.6955Z" fill="#FF5750"/>
<path d="M117.984 82.6455C120.479 82.3339 122.195 79.6229 121.819 76.5903C121.442 73.5576 119.115 71.3518 116.62 71.6634C114.126 71.9749 112.409 74.686 112.786 77.7186C113.163 80.7512 115.49 82.9571 117.984 82.6455Z" fill="#FF5650"/>
<path d="M117.975 82.5693C120.441 82.2612 122.14 79.587 121.768 76.5963C121.397 73.6056 119.096 71.4309 116.63 71.739C114.163 72.0471 112.465 74.7213 112.837 77.712C113.208 80.7027 115.509 82.8774 117.975 82.5693Z" fill="#FF554F"/>
<path d="M117.966 82.4931C120.404 82.1885 122.084 79.5511 121.718 76.6023C121.352 73.6535 119.078 71.51 116.639 71.8146C114.201 72.1193 112.521 74.7567 112.887 77.7055C113.253 80.6542 115.527 82.7978 117.966 82.4931Z" fill="#FF544F"/>
<path d="M117.959 82.4431C120.37 82.142 122.03 79.5301 121.667 76.6092C121.304 73.6884 119.056 71.5647 116.646 71.8659C114.235 72.167 112.575 74.7789 112.937 77.6998C113.3 80.6206 115.548 82.7443 117.959 82.4431Z" fill="#FF534E"/>
<path d="M117.95 82.3669C120.333 82.0693 121.974 79.4942 121.617 76.6153C121.259 73.7364 119.038 71.6438 116.655 71.9415C114.272 72.2392 112.63 74.8143 112.988 77.6932C113.345 80.5721 115.567 82.6646 117.95 82.3669Z" fill="#FF524E"/>
<path d="M117.944 82.3162C120.285 82.0238 121.895 79.4755 121.541 76.6246C121.187 73.7736 119.002 71.6995 116.661 71.992C114.32 72.2844 112.71 74.8326 113.064 77.6836C113.418 80.5346 115.603 82.6086 117.944 82.3162Z" fill="#FF514D"/>
</g>
<path opacity="0.1" d="M152.443 39.4228C151.782 38.4283 151.019 37.7908 150.18 37.4848C149.417 37.5868 150.409 36.2098 149.595 36.3628C147.18 36.8218 144.637 37.0768 142.196 36.6688C139.349 36.1843 136.908 34.8073 134.416 33.4048C133.17 32.7163 131.925 32.0023 130.628 31.3903C127.856 30.0643 124.577 28.7383 121.449 28.7383C119.898 28.7383 118.373 29.1463 116.949 29.6563C115.627 30.1408 114.508 30.9058 113.669 31.6708C113.491 31.8238 113.11 32.0788 112.754 32.3338C112.754 33.4813 112.83 34.5268 113.008 35.4703C113.16 35.3938 113.288 35.3173 113.338 35.2663C113.872 34.9093 114.533 34.5523 115.296 34.2463C116.059 33.9658 116.923 33.7363 117.864 33.6853C121.576 33.5323 124.958 35.1643 128.238 36.6943C129.585 37.3063 130.958 38.0203 132.408 38.7088C133.857 39.3973 135.357 40.0603 136.933 40.5958C139.603 41.5138 142.883 41.8963 145.654 41.2588C146.036 41.1823 146.392 41.1058 146.748 41.0038C148.171 40.5958 149.443 40.0858 150.536 39.5758" fill="#FFBC80"/>
<path d="M131.848 60.9698C131.848 60.9698 130.145 67.0133 134.696 72.5723L146.163 72.0368C146.163 72.0368 147.078 67.3193 145.883 63.6473C145.12 61.2758 131.848 60.9443 131.848 60.9443V60.9698Z" fill="url(#paint21_linear_2398_80443)"/>
<path d="M113.516 63.3413C112.601 65.4578 112.016 71.1698 112.016 71.1698L122.619 72.8528C127.678 67.5233 126.534 62.2193 126.534 62.2193C126.534 62.2193 114.457 61.1993 113.516 63.3158V63.3413Z" fill="url(#paint22_linear_2398_80443)"/>
<path d="M141.306 68.3905C136.501 67.906 134.696 72.4705 134.696 72.4705C134.696 72.4705 135.916 72.7765 140.671 72.7255C146.29 72.649 146.188 72.0625 146.188 72.0625C146.188 72.0625 146.112 68.9005 141.306 68.3905Z" fill="white"/>
<path d="M112.016 71.1955C112.016 71.1955 112.296 72.4705 116.822 72.5725C122.314 72.7 122.619 72.8785 122.619 72.8785C122.619 72.8785 122.619 71.0935 121.169 69.691C119.161 67.753 115.194 66.5035 112.016 71.1955Z" fill="white"/>
<path d="M140.671 68.3389C139.883 68.8744 139.247 69.8434 139.069 70.9909C138.967 71.6284 139.069 72.2404 139.247 72.7249C139.679 72.7249 140.137 72.7249 140.671 72.7249C141.713 72.7249 142.578 72.6739 143.264 72.6229C143.569 72.1639 143.798 71.6029 143.875 71.0164C144.002 70.2004 143.849 69.4354 143.519 68.9254C143.442 68.9254 143.341 68.8489 143.264 68.8234C143.213 68.8234 143.188 68.7979 143.137 68.7724C143.086 68.7724 143.01 68.7214 142.959 68.7214C142.908 68.7214 142.883 68.6959 142.832 68.6959C142.756 68.6959 142.68 68.6449 142.578 68.6194C142.578 68.6194 142.527 68.6194 142.502 68.6194C142.4 68.6194 142.273 68.5684 142.171 68.5429C142.146 68.5429 142.095 68.5429 142.069 68.5429C141.993 68.5429 141.891 68.5174 141.79 68.4919C141.764 68.4919 141.713 68.4919 141.688 68.4919C141.561 68.4919 141.434 68.4664 141.307 68.4409C141.179 68.4409 141.078 68.4409 140.976 68.4409C140.874 68.4409 140.773 68.4409 140.696 68.4409L140.671 68.3389Z" fill="url(#paint23_linear_2398_80443)"/>
<path d="M120.813 72.7001C121.119 72.2156 121.347 71.5781 121.449 70.9916C121.5 70.7111 121.576 70.4561 121.576 70.2011C121.576 70.1756 121.576 70.1246 121.576 70.0991C121.475 69.9716 121.347 69.8186 121.22 69.6911C120.534 69.0281 119.618 68.4416 118.576 68.1611C118.576 68.1611 118.551 68.1611 118.525 68.1611C118.449 68.2121 118.398 68.2376 118.322 68.2886C118.042 68.4926 117.813 68.7221 117.584 68.9771C117.127 69.5381 116.822 70.2266 116.72 70.9406C116.644 71.4761 116.72 72.0881 116.873 72.5471C118.729 72.5981 119.974 72.6491 120.839 72.6746L120.813 72.7001Z" fill="url(#paint24_linear_2398_80443)"/>
<path d="M118.296 67.4211C114.406 66.7581 111.711 69.5886 112.016 71.1951C112.016 71.1951 114.254 69.0531 117.483 69.4356C121.551 69.9201 122.619 72.8781 122.619 72.8781C123.407 71.3736 123.051 68.2116 118.296 67.4211Z" fill="#603F37"/>
<path d="M142.425 71.0681C142.476 70.4561 142.018 69.9716 141.434 69.9971C140.849 70.0226 140.34 70.5581 140.29 71.1701C140.264 71.6291 140.493 71.9861 140.849 72.1646C141.078 72.1646 141.281 72.2156 141.485 72.2156C141.993 72.1136 142.4 71.6291 142.451 71.0681H142.425Z" fill="#1E1D1D"/>
<path d="M113.313 63.928C117.915 61.0975 124.246 65.611 126.255 63.52C127.043 62.704 126.661 60.3835 126.661 60.3835C115.144 57.6295 113.338 63.9025 113.338 63.9025L113.313 63.928Z" fill="url(#paint25_linear_2398_80443)"/>
<path d="M131.848 60.9694C131.848 60.9694 131.391 63.5194 132.204 64.1059C135.306 66.4009 144.536 61.5304 145.883 63.6724C145.883 63.6724 145.324 57.7054 131.848 60.9694Z" fill="url(#paint26_linear_2398_80443)"/>
<path d="M139.959 67.6764C134.899 67.7529 133.933 71.7309 134.67 72.4704C134.67 72.4704 135.662 69.6144 140.417 69.6909C145.12 69.7674 146.163 72.0369 146.163 72.0369C146.29 70.4049 145.298 67.5744 139.959 67.6509V67.6764Z" fill="#603F37"/>
<path d="M120.051 71.0681C120.102 70.4561 119.644 69.9716 119.059 69.9971C118.474 70.0226 117.966 70.5581 117.915 71.1701C117.89 71.6291 118.118 71.9861 118.474 72.1646C118.703 72.1646 118.907 72.2156 119.11 72.2156C119.619 72.1136 120.025 71.6291 120.076 71.0681H120.051Z" fill="#1E1D1D"/>
<path d="M126.839 84.8375C122.288 84.2765 118.627 87.1835 118.627 87.1835C118.627 87.1835 118.932 89.249 120.661 89.351C122.568 89.453 125.085 88.127 126.636 88.076C129.585 87.9995 130.475 90.473 132.128 90.014C133.781 89.555 134.696 87.26 134.696 87.26C134.696 87.26 131.391 85.3985 126.839 84.8375Z" fill="url(#paint27_linear_2398_80443)"/>
<path d="M119.237 87.056C119.237 87.056 119.288 87.821 120.992 88.178C122.67 88.5605 124.195 86.648 127.119 87.056C130.043 87.4385 130.958 89.453 132.611 88.994C134.264 88.535 134.925 87.005 134.925 87.005C134.925 87.005 131.67 84.506 127.119 83.945C122.568 83.384 119.237 87.056 119.237 87.056Z" fill="#FB755C"/>
<path d="M153.74 71.6794L151.248 71.6029C150.739 76.3969 148.731 79.3549 147.307 81.5989C144.942 85.2964 138.637 87.7189 138.637 87.7189C136.628 83.1799 132.052 80.0944 126.483 80.0944C123.738 80.0944 119.415 81.0379 115.805 85.7809C115.805 85.7809 111.254 84.7099 109.423 78.5134C108.635 75.8869 108.508 71.0419 108.431 69.6904H108.101C104.846 82.2619 102.634 102.254 125.746 103.325C151.019 104.498 152.443 84.3019 152.443 84.3019C151.223 79.8139 153.765 71.6794 153.765 71.6794H153.74ZM133.45 90.5494C131.391 92.1814 129.941 89.2999 126.636 89.1979C123.127 89.0959 120.661 91.6714 119.11 89.9119C117.483 88.0504 122.441 84.8374 126.763 85.0924C132.382 85.4239 134.848 89.4274 133.425 90.5494H133.45Z" fill="url(#paint28_linear_2398_80443)"/>
<path opacity="0.8" d="M117.864 70.7873C117.305 71.0423 116.923 71.5523 117 71.9348C117.076 72.3173 117.584 72.3938 118.118 72.1388C118.678 71.8838 119.059 71.3738 118.983 70.9913C118.907 70.6088 118.398 70.5323 117.864 70.7873Z" fill="white"/>
<path opacity="0.8" d="M140.239 70.7873C139.679 71.0423 139.298 71.5523 139.374 71.9348C139.45 72.3173 139.959 72.3938 140.493 72.1388C141.052 71.8838 141.434 71.3738 141.357 70.9913C141.281 70.6088 140.773 70.5323 140.239 70.7873Z" fill="white"/>
<path d="M126.56 84.2767C129.84 84.2767 131.569 82.6702 132.433 81.3952C131.975 81.1657 131.492 80.9872 130.984 80.8087C129.687 80.4007 128.187 80.1457 126.483 80.0947C124.882 80.0947 122.72 80.4262 120.483 81.6502C121.475 82.7467 123.305 84.3022 126.56 84.2767Z" fill="url(#paint29_linear_2398_80443)"/>
<path d="M126.026 74.638C126.026 74.638 121.856 73.771 120.763 77.4175C119.39 82.0585 128.594 84.9655 131.213 80.146C133.831 75.3265 127.348 66.1465 127.348 66.1465C127.348 66.1465 128.848 70.864 126 74.6125L126.026 74.638Z" fill="#FF9E78"/>
<path d="M120.661 78.7178C121.144 82.5428 128.873 84.5063 131.238 80.1458C131.391 79.8908 131.492 79.6103 131.594 79.3043C127.933 80.0183 124.144 79.7378 120.686 78.7178H120.661Z" fill="url(#paint30_linear_2398_80443)"/>
<path opacity="0.2" d="M128.746 71.0676L127.704 71.0166C127.704 71.0166 127.094 74.3571 126.077 74.8161C125.924 74.8161 125.746 74.7906 125.594 74.7651C123.788 74.6631 122.288 75.2241 122.237 76.0146C122.187 76.8051 123.636 77.4681 125.441 77.5701C127.145 77.6721 128.645 77.3916 128.848 76.4736C128.848 76.4736 129.713 72.9801 128.746 71.0676Z" fill="white"/>
<path opacity="0.3" d="M118.678 73.975C117.457 73.924 116.262 73.8475 115.118 73.465C114.457 73.2355 113.872 74.2555 114.559 74.5105C115.805 74.995 117.178 75.2755 118.551 75.1225C119.161 75.046 119.339 74.026 118.678 74.0005V73.975Z" fill="#CC5C50"/>
<path opacity="0.3" d="M142.756 73.6182C141.383 73.7967 140.061 73.9752 138.662 73.8987C137.925 73.8477 137.95 74.9697 138.662 75.0462C140.061 75.1737 141.535 75.1482 142.883 74.7402C143.468 74.5617 143.366 73.5417 142.73 73.6437L142.756 73.6182Z" fill="#CC5C50"/>
<path d="M113.44 113.959C113.593 111.613 113.033 106.742 113.618 104.575C114.203 102.407 115.525 92.7939 115.169 91.5444C114.813 90.2949 117.051 89.0199 118.627 91.1364C120.203 93.2784 119.39 100.852 119.72 100.954C120.051 101.056 128.746 94.1964 131.543 93.6864C134.34 93.1764 140.722 95.7009 141.205 96.2619C141.688 96.8229 141.84 98.1744 140.417 98.8374C138.993 99.5004 135.916 98.3529 135.128 98.5569C134.365 98.7864 131.213 100.495 130.424 102.56C130.424 102.56 135.052 103.096 136.628 104.6C138.205 106.105 136.959 108.323 136.959 108.323C136.959 108.323 138.866 109.7 138.535 111.383C138.205 113.041 137.594 113.857 137.594 113.857C137.594 113.857 139.145 115.642 138.408 117.631C137.671 119.62 133.552 123.394 132.611 123.266C131.696 123.139 131.085 122.833 131.085 122.833C131.085 122.833 129.077 125.434 127.653 126.352C126.229 127.27 124.449 128.392 124.297 128.341C124.119 128.29 112.042 121.277 112.042 121.277C112.042 121.277 113.313 115.795 113.415 113.933L113.44 113.959Z" fill="#FF9E78"/>
<path d="M113.237 115.616L124.729 126.352C124.729 126.352 118.627 162.74 114.889 173.017C111.152 183.293 91.0149 173.374 90.8115 171.104C90.6081 168.86 112.144 124.414 113.237 115.591V115.616Z" fill="#FF9E78"/>
<path d="M139.959 98.3533C138.764 98.5573 135.84 98.0217 134.62 97.8942C132.509 97.6902 129.941 100.444 129.941 100.444L126.611 100.011C126.509 100.47 126.407 100.929 126.331 101.388C126.28 101.668 126.204 101.974 126.178 102.28C126.153 102.714 126.534 102.79 126.865 102.918C127.323 103.071 127.704 103.377 127.984 103.759C128.772 104.932 128.187 106.692 129.052 107.814C129.56 108.451 130.45 108.757 130.857 109.471C131.34 110.313 130.958 111.435 131.314 112.327C131.492 112.761 131.823 113.118 132.052 113.551C132.509 114.367 132.306 115.081 132.306 115.948C132.306 116.28 132.23 116.509 132.077 116.79C131.721 117.478 131.187 118.065 130.679 118.626C129.204 120.232 127.577 121.686 125.924 123.114C124.704 124.159 123.483 125.179 122.212 126.148C122.136 126.199 122.034 126.327 121.958 126.327C121.805 126.352 115.881 162.664 112.678 165.979C111.025 167.662 103.728 173.808 99.9647 172.66C97.2951 171.844 94.7779 164.551 94.6508 163.99C94.3711 162.894 113.186 120.487 113.796 117.835C114.381 115.183 114.991 109.905 115.169 109.063C115.169 109.063 119.212 102.255 120.737 100.342C120.153 100.75 119.797 100.98 119.72 100.954C119.39 100.852 120.229 93.2787 118.627 91.1367C117.025 88.9947 114.813 90.2952 115.169 91.5447C115.525 92.7942 114.203 102.408 113.618 104.575C113.033 106.743 113.618 111.613 113.44 113.959C113.415 114.495 113.288 115.311 113.11 116.203C110.923 126.709 90.6336 168.682 90.837 170.875C90.9387 171.972 95.5153 180.259 99.8885 180.922C105.889 181.815 112.983 178.092 114.915 172.788C118.093 164.041 122.975 136.45 124.373 128.367C124.755 128.239 126.356 127.219 127.653 126.378C129.077 125.46 131.086 122.859 131.086 122.859C131.086 122.859 131.696 123.19 132.611 123.292C133.526 123.42 137.645 119.646 138.408 117.657C139.171 115.668 137.595 113.883 137.595 113.883C137.595 113.883 138.23 113.067 138.535 111.409C138.866 109.752 136.959 108.349 136.959 108.349C136.959 108.349 138.179 106.131 136.628 104.626C135.077 103.122 130.425 102.586 130.425 102.586C131.238 100.521 134.365 98.8123 135.128 98.5828C135.891 98.3533 138.993 99.5008 140.417 98.8633C141.637 98.3023 141.688 97.2058 141.358 96.5428C141.358 97.0528 141.281 98.1492 139.959 98.3787V98.3533Z" fill="url(#paint31_linear_2398_80443)"/>
<path d="M119.695 100.954C119.593 100.928 119.593 100.214 119.619 99.1689C118.042 100.979 116.11 103.351 115.805 103.733L116.847 104.575C117.737 103.478 118.881 102.101 119.924 100.877C119.822 100.928 119.746 100.979 119.72 100.954H119.695Z" fill="#E4856B"/>
<path d="M131.213 101.311C129.509 100.98 127.78 100.674 127.043 100.521C126.992 100.954 126.941 101.464 126.89 101.898C127.551 102.025 128.975 102.28 130.45 102.535C130.628 102.102 130.908 101.694 131.238 101.286L131.213 101.311Z" fill="#E4856B"/>
<path d="M130.882 102.637C131.492 102.739 132.103 102.866 132.662 102.968C131.95 102.815 131.289 102.688 130.882 102.637Z" fill="#F87F67"/>
<path d="M137.62 108.936C137.264 108.553 136.959 108.349 136.959 108.349C136.959 108.349 137.162 107.992 137.289 107.457C135.611 106.921 132.815 106.182 131.035 106.36L131.162 107.686C132.967 107.508 136.222 108.502 137.595 108.961L137.62 108.936Z" fill="#E4856B"/>
<path d="M137.594 113.883C137.594 113.883 137.925 113.449 138.23 112.582C136.781 111.97 134.442 111.435 132.128 110.976C132.128 111.435 132.306 111.996 132.28 112.455C135.154 113.041 136.908 113.602 137.671 113.985C137.62 113.908 137.594 113.883 137.594 113.883Z" fill="#E4856B"/>
<path d="M136.171 118.371L135.103 117.58L131.086 122.859C131.086 122.859 131.67 123.165 132.535 123.292L136.171 118.396V118.371Z" fill="#E4856B"/>
<path d="M131.518 93.6864C129.535 94.0434 124.577 97.6134 121.729 99.6279C121.907 100.24 122.314 101.081 123.153 101.081C124.475 101.081 132.408 96.6699 133.069 96.6189C133.73 96.5679 139.222 98.1744 140.213 97.5624C140.9 97.1289 141.103 96.5679 141.052 96.1344C140.01 95.3949 134.162 93.2019 131.518 93.6864Z" fill="url(#paint32_linear_2398_80443)"/>
<path d="M115.449 90.5248C115.729 90.5758 116.288 91.1368 116.313 92.1823C116.313 93.0238 114.61 100.444 115.83 100.572C116.847 100.699 118.703 99.7813 119.67 98.2258C119.67 95.8033 119.619 92.4628 118.652 91.1623C117.534 89.6578 116.11 89.8618 115.474 90.5248H115.449Z" fill="url(#paint33_linear_2398_80443)"/>
<path d="M131.111 110.134C130.882 108.935 129.662 108.349 129.077 107.813C128.492 107.278 128.619 104.983 127.806 103.529C126.992 102.076 120.763 100.775 120.381 100.775C120 100.775 115.093 109.445 115.093 109.445L113.466 113.653C113.466 113.755 113.466 113.857 113.466 113.959C113.415 114.698 113.186 116.05 112.932 117.376C110.872 125.485 101.083 146.879 95.2609 160.139C94.9558 161.567 94.727 162.868 94.7778 163.505C94.8795 165.265 95.9474 171.716 99.9901 172.685C104.033 173.654 110.643 168.427 113.313 165.061C115.983 161.695 121.983 126.377 121.983 126.377C121.983 126.377 130.984 119.161 131.925 117.656C132.865 116.152 132.865 114.622 132.103 113.576C131.34 112.531 131.365 111.358 131.136 110.185L131.111 110.134Z" fill="url(#paint34_linear_2398_80443)"/>
<path d="M164.012 156.468C161.088 155.703 137.086 157.386 125.187 158.278C124.627 160.191 123.712 164.985 127.5 167.433C132.306 170.544 165.207 174.981 167.215 173.884C169.02 172.89 173.063 166.183 173.673 164.143C171.487 161.058 166.885 157.233 164.012 156.468Z" fill="url(#paint35_linear_2398_80443)"/>
<path opacity="0.1" d="M145.858 42.7374C146.341 42.2019 145.578 41.4879 145.044 41.9724C143.366 43.5789 141.561 44.7264 139.578 45.7974C140.112 45.5679 140.442 45.4149 140.442 45.4149C140.976 45.4149 141.51 45.6189 142.044 45.9759C143.468 45.0834 144.739 43.9614 145.832 42.7629L145.858 42.7374Z" fill="black"/>
<path d="M156.306 43.7917C157.279 42.178 151.679 36.9923 143.796 32.2093C135.914 27.4262 128.735 24.8569 127.762 26.4707C126.789 28.0844 132.39 33.27 140.272 38.0531C148.154 42.8362 155.333 45.4054 156.306 43.7917Z" fill="#0C4266"/>
<path d="M156.27 43.9388C155.301 45.5642 148.112 42.9729 140.218 38.2134C132.327 33.4286 126.75 27.9565 127.72 26.3311C127.912 26.0212 128.331 25.9451 128.842 26.1629C129.354 26.3808 134.536 31.5211 140.972 35.4311C147.887 39.6063 155.806 41.056 156.335 43.2022C156.399 43.5182 156.393 43.7743 156.267 43.964L156.27 43.9388Z" fill="#092E4C"/>
<defs>
<linearGradient id="paint0_linear_2398_80443" x1="116.44" y1="401.701" x2="116.44" y2="380.765" gradientUnits="userSpaceOnUse">
<stop stop-color="white"/>
<stop offset="1" stop-color="#A5B7C6"/>
</linearGradient>
<linearGradient id="paint1_linear_2398_80443" x1="183.411" y1="290.572" x2="179.498" y2="246.178" gradientUnits="userSpaceOnUse">
<stop stop-color="#3D434F"/>
<stop offset="1" stop-color="#333844"/>
</linearGradient>
<linearGradient id="paint2_linear_2398_80443" x1="71.4372" y1="380.943" x2="71.5651" y2="387.854" gradientUnits="userSpaceOnUse">
<stop stop-color="#5B5B60"/>
<stop offset="1" stop-color="#2C2C2D"/>
</linearGradient>
<linearGradient id="paint3_linear_2398_80443" x1="160.249" y1="380.944" x2="160.376" y2="387.88" gradientUnits="userSpaceOnUse">
<stop stop-color="#5B5B60"/>
<stop offset="1" stop-color="#2C2C2D"/>
</linearGradient>
<linearGradient id="paint4_linear_2398_80443" x1="119.321" y1="270.812" x2="123.713" y2="230.5" gradientUnits="userSpaceOnUse">
<stop stop-color="#3D434F"/>
<stop offset="1" stop-color="#333844"/>
</linearGradient>
<linearGradient id="paint5_linear_2398_80443" x1="115.703" y1="215.73" x2="123.814" y2="215.73" gradientUnits="userSpaceOnUse">
<stop stop-color="#5F6163"/>
<stop offset="1" stop-color="#444749"/>
</linearGradient>
<linearGradient id="paint6_linear_2398_80443" x1="120.178" y1="215.5" x2="123.738" y2="215.5" gradientUnits="userSpaceOnUse">
<stop stop-color="#5F6163"/>
<stop offset="1" stop-color="#444749"/>
</linearGradient>
<linearGradient id="paint7_linear_2398_80443" x1="127.78" y1="101.642" x2="127.78" y2="108.323" gradientUnits="userSpaceOnUse">
<stop stop-color="#DB7D67"/>
<stop offset="1" stop-color="#FF9E78"/>
</linearGradient>
<linearGradient id="paint8_linear_2398_80443" x1="131.314" y1="108.834" x2="131.314" y2="142.417" gradientUnits="userSpaceOnUse">
<stop stop-color="#DEEFFF"/>
<stop offset="1" stop-color="#CADBEF"/>
</linearGradient>
<linearGradient id="paint9_linear_2398_80443" x1="131.975" y1="146.165" x2="131.975" y2="213.817" gradientUnits="userSpaceOnUse">
<stop stop-color="#B3CBE2"/>
<stop offset="1" stop-color="#CADBEF"/>
</linearGradient>
<linearGradient id="paint10_linear_2398_80443" x1="128.009" y1="112.914" x2="128.009" y2="118.804" gradientUnits="userSpaceOnUse">
<stop stop-color="#B3CBE2"/>
<stop offset="1" stop-color="#CADBEF"/>
</linearGradient>
<linearGradient id="paint11_linear_2398_80443" x1="128.441" y1="169.651" x2="128.441" y2="212.542" gradientUnits="userSpaceOnUse">
<stop stop-color="#B3CBE2"/>
<stop offset="1" stop-color="#CADBEF"/>
</linearGradient>
<linearGradient id="paint12_linear_2398_80443" x1="92.5913" y1="157.054" x2="97.4647" y2="163.033" gradientUnits="userSpaceOnUse">
<stop stop-color="#DEEFFF"/>
<stop offset="1" stop-color="#CADBEF"/>
</linearGradient>
<linearGradient id="paint13_linear_2398_80443" x1="161.342" y1="151.341" x2="170.196" y2="162.256" gradientUnits="userSpaceOnUse">
<stop stop-color="#DEEFFF"/>
<stop offset="1" stop-color="#CADBEF"/>
</linearGradient>
<linearGradient id="paint14_linear_2398_80443" x1="111.635" y1="168.35" x2="130.475" y2="168.35" gradientUnits="userSpaceOnUse">
<stop stop-color="#C6664F"/>
<stop offset="1" stop-color="#FF9E78"/>
</linearGradient>
<linearGradient id="paint15_linear_2398_80443" x1="136.933" y1="184.033" x2="143.45" y2="167.395" gradientUnits="userSpaceOnUse">
<stop stop-color="#C6664F"/>
<stop offset="1" stop-color="#FF9E78"/>
</linearGradient>
<linearGradient id="paint16_linear_2398_80443" x1="102.377" y1="75.3283" x2="112.444" y2="75.5035" gradientUnits="userSpaceOnUse">
<stop stop-color="#F28C70"/>
<stop offset="1" stop-color="#FF9E78"/>
</linearGradient>
<linearGradient id="paint17_linear_2398_80443" x1="130.04" y1="44.8763" x2="129.902" y2="52.7546" gradientUnits="userSpaceOnUse">
<stop stop-color="#C6664F"/>
<stop offset="1" stop-color="#FF9E78"/>
</linearGradient>
<linearGradient id="paint18_linear_2398_80443" x1="149.901" y1="84.2956" x2="160.095" y2="84.473" gradientUnits="userSpaceOnUse">
<stop stop-color="#F28C70"/>
<stop offset="1" stop-color="#FF9E78"/>
</linearGradient>
<linearGradient id="paint19_linear_2398_80443" x1="153.285" y1="75.4288" x2="158.369" y2="75.5173" gradientUnits="userSpaceOnUse">
<stop stop-color="#F28C70"/>
<stop offset="1" stop-color="#FF9E78"/>
</linearGradient>
<linearGradient id="paint20_linear_2398_80443" x1="135.614" y1="28.0373" x2="134.49" y2="47.4614" gradientUnits="userSpaceOnUse">
<stop stop-color="#75483B"/>
<stop offset="0.4" stop-color="#704438"/>
<stop offset="0.7" stop-color="#623C2F"/>
<stop offset="1" stop-color="#563428"/>
</linearGradient>
<linearGradient id="paint21_linear_2398_80443" x1="139.435" y1="54.4259" x2="138.895" y2="70.6623" gradientUnits="userSpaceOnUse">
<stop stop-color="#C6664F"/>
<stop offset="1" stop-color="#FF9E78"/>
</linearGradient>
<linearGradient id="paint22_linear_2398_80443" x1="119.76" y1="55.4586" x2="119.269" y2="70.3443" gradientUnits="userSpaceOnUse">
<stop stop-color="#C6664F"/>
<stop offset="1" stop-color="#FF9E78"/>
</linearGradient>
<linearGradient id="paint23_linear_2398_80443" x1="139.018" y1="70.5319" x2="143.9" y2="70.5319" gradientUnits="userSpaceOnUse">
<stop stop-color="#704A3E"/>
<stop offset="1"/>
</linearGradient>
<linearGradient id="paint24_linear_2398_80443" x1="116.669" y1="70.4306" x2="121.551" y2="70.4306" gradientUnits="userSpaceOnUse">
<stop stop-color="#704A3E"/>
<stop offset="1"/>
</linearGradient>
<linearGradient id="paint25_linear_2398_80443" x1="97.384" y1="55.9283" x2="96.5056" y2="60.5905" gradientUnits="userSpaceOnUse">
<stop stop-color="#75483B"/>
<stop offset="0.4" stop-color="#704438"/>
<stop offset="0.7" stop-color="#623C2F"/>
<stop offset="1" stop-color="#563428"/>
</linearGradient>
<linearGradient id="paint26_linear_2398_80443" x1="137.35" y1="61.1502" x2="137.802" y2="65.0274" gradientUnits="userSpaceOnUse">
<stop stop-color="#75483B"/>
<stop offset="0.4" stop-color="#704438"/>
<stop offset="0.7" stop-color="#623C2F"/>
<stop offset="1" stop-color="#563428"/>
</linearGradient>
<linearGradient id="paint27_linear_2398_80443" x1="126.712" y1="85.679" x2="126.559" y2="89.198" gradientUnits="userSpaceOnUse">
<stop stop-color="#C6664F"/>
<stop offset="1" stop-color="#FF9E78"/>
</linearGradient>
<linearGradient id="paint28_linear_2398_80443" x1="129.738" y1="106.716" x2="129.943" y2="72.3424" gradientUnits="userSpaceOnUse">
<stop stop-color="#75483B"/>
<stop offset="0.4" stop-color="#704438"/>
<stop offset="0.7" stop-color="#623C2F"/>
<stop offset="1" stop-color="#563428"/>
</linearGradient>
<linearGradient id="paint29_linear_2398_80443" x1="126.433" y1="80.6557" x2="126.586" y2="84.5317" gradientUnits="userSpaceOnUse">
<stop stop-color="#4C2E25"/>
<stop offset="0.4" stop-color="#503127"/>
<stop offset="0.8" stop-color="#5E3A2E"/>
<stop offset="1" stop-color="#663F32"/>
</linearGradient>
<linearGradient id="paint30_linear_2398_80443" x1="126.117" y1="81.8133" x2="126.178" y2="78.3204" gradientUnits="userSpaceOnUse">
<stop stop-color="#F28C70"/>
<stop offset="1" stop-color="#FF9E78"/>
</linearGradient>
<linearGradient id="paint31_linear_2398_80443" x1="134.011" y1="138.707" x2="104.394" y2="135.007" gradientUnits="userSpaceOnUse">
<stop stop-color="#F28C70"/>
<stop offset="1" stop-color="#FF9E78"/>
</linearGradient>
<linearGradient id="paint32_linear_2398_80443" x1="132.193" y1="92.1984" x2="131.628" y2="96.3339" gradientUnits="userSpaceOnUse">
<stop stop-color="#FFB9A4"/>
<stop offset="1" stop-color="#FF9E78"/>
</linearGradient>
<linearGradient id="paint33_linear_2398_80443" x1="120.968" y1="91.6563" x2="117.605" y2="94.4605" gradientUnits="userSpaceOnUse">
<stop stop-color="#FFB9A4"/>
<stop offset="1" stop-color="#FF9E78"/>
</linearGradient>
<linearGradient id="paint34_linear_2398_80443" x1="86.7867" y1="125.025" x2="116.361" y2="139.09" gradientUnits="userSpaceOnUse">
<stop stop-color="#FFB9A4"/>
<stop offset="1" stop-color="#FF9E78"/>
</linearGradient>
<linearGradient id="paint35_linear_2398_80443" x1="150.917" y1="152.107" x2="148.335" y2="167.354" gradientUnits="userSpaceOnUse">
<stop stop-color="#FFB9A4"/>
<stop offset="1" stop-color="#FF9E78"/>
</linearGradient>
</defs>
</svg>
