<svg width="16" height="14" viewBox="0 0 16 14" fill="none" xmlns="http://www.w3.org/2000/svg">
<path d="M1.50781 0.5C1.50781 0.223858 1.28395 0 1.00781 0C0.73167 0 0.507812 0.223858 0.507812 0.5V11.5C0.507812 12.8807 1.6271 14 3.00781 14H14.0078C14.284 14 14.5078 13.7761 14.5078 13.5C14.5078 13.2239 14.284 13 14.0078 13H3.00781C2.17939 13 1.50781 12.3284 1.50781 11.5V0.5Z" fill="#CD190E"/>
<path d="M8.50781 9.5C8.50781 9.77614 8.28395 10 8.00781 10H4.00781C3.73167 10 3.50781 9.77614 3.50781 9.5V5.5C3.50781 5.22386 3.73167 5 4.00781 5C4.28396 5 4.50781 5.22386 4.50781 5.5V8.29292L9.15429 3.64645C9.24805 3.55268 9.37523 3.5 9.50784 3.5C9.64045 3.5 9.76763 3.55268 9.86139 3.64645L11.5078 5.29289L14.6543 2.14645C14.8495 1.95118 15.1661 1.95118 15.3614 2.14645C15.5566 2.34171 15.5566 2.65829 15.3614 2.85355L11.8614 6.35355C11.7676 6.44732 11.6404 6.5 11.5078 6.5C11.3752 6.5 11.248 6.44732 11.1543 6.35355L9.50784 4.70711L5.21495 9H8.00781C8.28395 9 8.50781 9.22386 8.50781 9.5Z" fill="#CD190E"/>
</svg>
