<svg width="18" height="17" viewBox="0 0 18 17" fill="none" xmlns="http://www.w3.org/2000/svg">
<path d="M6.54719 5.00002C6.65806 4.99995 6.76992 4.99988 6.8679 5.00497C7.00321 5.00813 7.15049 5.01804 7.2915 5.32977C7.38979 5.54714 7.55598 5.95687 7.68603 6.27749C7.77767 6.50343 7.85137 6.68513 7.87071 6.72408C7.9175 6.81829 7.95066 6.92928 7.88553 7.05258C7.87826 7.0674 7.87141 7.08154 7.86482 7.09513C7.8152 7.19747 7.78066 7.2687 7.70028 7.3675C7.66917 7.40341 7.63708 7.44219 7.60497 7.48099C7.53984 7.5597 7.47464 7.63848 7.41747 7.69354C7.32325 7.78776 7.22597 7.89106 7.33472 8.07886C7.44348 8.26665 7.82119 8.8823 8.37952 9.3793C8.97954 9.91535 9.50116 10.141 9.76619 10.2556C9.81816 10.2781 9.86026 10.2963 9.89115 10.3117C10.0796 10.4059 10.1887 10.3912 10.2975 10.2648C10.4094 10.1415 10.7675 9.7184 10.894 9.52997C11.0173 9.34154 11.1431 9.37414 11.3139 9.43611C11.4871 9.49808 12.411 9.95321 12.5995 10.0474C12.6364 10.0659 12.6708 10.0825 12.7026 10.0979C12.8334 10.161 12.9207 10.2033 12.9589 10.2648C13.0075 10.3438 13.0076 10.7201 12.8514 11.1589C12.6952 11.5971 11.9283 12.0209 11.5843 12.0506C11.5513 12.0536 11.5185 12.0575 11.4848 12.0615C11.1642 12.0996 10.7625 12.1473 9.32799 11.5825C7.55802 10.8854 6.39319 9.1555 6.15506 8.80184C6.13594 8.77344 6.12279 8.75392 6.11579 8.74452C6.02158 8.62121 5.3501 7.72629 5.3501 6.80311C5.3501 5.94142 5.77036 5.48873 5.96593 5.27807C5.9806 5.26227 5.99401 5.24783 6.00588 5.23468C6.17913 5.04625 6.38205 5.00003 6.50852 5.00003C6.52138 5.00003 6.53428 5.00002 6.54719 5.00002Z" fill="#373737"/>
<path fill-rule="evenodd" clip-rule="evenodd" d="M8.8501 0C4.15594 0 0.350098 3.80584 0.350098 8.5C0.350098 9.94049 0.715454 11.2922 1.34614 12.4768L0.681943 14.8998C0.376557 16.0138 1.39214 17.0405 2.50943 16.7472L5.02531 16.0867C6.17405 16.6679 7.47288 17 8.8501 17C13.5443 17 17.3501 13.1942 17.3501 8.5C17.3501 3.80584 13.5443 0 8.8501 0ZM2.3501 8.5C2.3501 4.91041 5.26051 2 8.8501 2C12.4397 2 15.3501 4.91041 15.3501 8.5C15.3501 12.0896 12.4397 15 8.8501 15C7.68471 15 6.59349 14.6894 5.64561 14.1505L5.29148 13.9491L2.83991 14.5927L3.49677 12.1964L3.27726 11.8301C2.69122 10.8519 2.3501 9.71658 2.3501 8.5Z" fill="#373737"/>
</svg>
